<svg width="7.9375mm" height="10.583mm" version="1.1" viewBox="0 0 7.9375 10.583333" xmlns="http://www.w3.org/2000/svg">
 <g transform="translate(-70.871 -91.381)">
  <g transform="matrix(.26458 0 0 .26458 606.92 246.77)">
   <path d="m-2026-587.31h30v40h-30z" fill="none"/>
   <g transform="translate(7.4153)" style="font-feature-settings:normal;font-variant-caps:normal;font-variant-ligatures:normal;font-variant-numeric:normal" aria-label="0 ">
    <path d="m-2005.6-555.64q0 0.95703-0.3646 1.8229-0.3646 0.8431-1.0026 1.4811t-1.5039 1.0026q-0.8431 0.36459-1.8001 0.36459h-16.338q-0.9571 0-1.8229-0.36459-0.8431-0.36458-1.4812-1.0026-0.638-0.63802-1.0026-1.4811-0.3645-0.86589-0.3645-1.8229v-23.333q0-0.95703 0.3645-1.8001 0.3646-0.86589 1.0026-1.4811 0.6381-0.63802 1.4812-1.0026 0.8658-0.38737 1.8229-0.38737h16.338q0.957 0 1.8001 0.38737 0.8659 0.36458 1.5039 1.0026 0.638 0.61523 1.0026 1.4811 0.3646 0.8431 0.3646 1.8001zm-21.009-23.333v23.333h16.338v-23.333z" stroke-width="1px" style="font-feature-settings:normal;font-variant-caps:normal;font-variant-ligatures:normal;font-variant-numeric:normal"/>
   </g>
  </g>
 </g>
</svg>
