<?xml version="1.0" encoding="UTF-8" standalone="no"?>
<!-- Created with Inkscape (http://www.inkscape.org/) -->

<svg
   xmlns:dc="http://purl.org/dc/elements/1.1/"
   xmlns:cc="http://creativecommons.org/ns#"
   xmlns:rdf="http://www.w3.org/1999/02/22-rdf-syntax-ns#"
   xmlns:svg="http://www.w3.org/2000/svg"
   xmlns="http://www.w3.org/2000/svg"
   xmlns:xlink="http://www.w3.org/1999/xlink"
   xmlns:sodipodi="http://sodipodi.sourceforge.net/DTD/sodipodi-0.dtd"
   xmlns:inkscape="http://www.inkscape.org/namespaces/inkscape"
   width="223.52098mm"
   height="214.562mm"
   viewBox="0 0 792.00348 760.25904"
   id="svg2"
   version="1.1"
   inkscape:version="0.91 r13725"
   sodipodi:docname="collorful star.svg">
  <defs
     id="defs4">
    <linearGradient
       inkscape:collect="always"
       id="linearGradient4451">
      <stop
         style="stop-color:#ffffff;stop-opacity:1"
         offset="0"
         id="stop4453" />
      <stop
         style="stop-color:#f8ff00;stop-opacity:1"
         offset="1"
         id="stop4455" />
    </linearGradient>
    <linearGradient
       inkscape:collect="always"
       id="linearGradient4415">
      <stop
         style="stop-color:#3fba00;stop-opacity:1;"
         offset="0"
         id="stop4417" />
      <stop
         style="stop-color:#3fba00;stop-opacity:0;"
         offset="1"
         id="stop4419" />
    </linearGradient>
    <filter
       inkscape:collect="always"
       style="color-interpolation-filters:sRGB"
       id="filter4391"
       x="-0.032926638"
       width="1.0658534"
       y="-0.034301478"
       height="1.068603">
      <feGaussianBlur
         inkscape:collect="always"
         stdDeviation="9.9812617"
         id="feGaussianBlur4393" />
    </filter>
    <clipPath
       clipPathUnits="userSpaceOnUse"
       id="clipPath4401">
      <path
         style="opacity:1;fill:#000000;fill-opacity:1;stroke:none;stroke-width:1.68829036;stroke-linecap:round;stroke-linejoin:round;stroke-miterlimit:4;stroke-dasharray:none;stroke-opacity:1"
         d="M 373.48889,173.17591 264.29944,407.62317 9.5572494,439.64075 196.77796,616.88098 l -48.54493,254.375 224.89649,-124.9082 224.73828,125.19531 -48.22461,-254.4375 187.44141,-177 L 482.38343,407.7638 373.48889,173.17591 Z m -0.0293,60.39843 90.05859,194.00977 210.64648,26.74805 L 519.14514,600.71692 559.02796,811.14466 373.16272,707.60364 187.16663,810.90638 227.31311,600.53138 72.479124,453.94934 283.15686,427.46888 373.4596,233.57434 Z"
         id="path4403"
         inkscape:connector-curvature="0" />
    </clipPath>
    <clipPath
       clipPathUnits="userSpaceOnUse"
       id="clipPath4405">
      <path
         style="opacity:1;fill:#000000;fill-opacity:1;stroke:none;stroke-width:1.68829036;stroke-linecap:round;stroke-linejoin:round;stroke-miterlimit:4;stroke-dasharray:none;stroke-opacity:1"
         d="M 373.48889,173.17591 264.29944,407.62317 9.5572494,439.64075 196.77796,616.88098 l -48.54493,254.375 224.89649,-124.9082 224.73828,125.19531 -48.22461,-254.4375 187.44141,-177 L 482.38343,407.7638 373.48889,173.17591 Z m -0.0293,60.39843 90.05859,194.00977 210.64648,26.74805 L 519.14514,600.71692 559.02796,811.14466 373.16272,707.60364 187.16663,810.90638 227.31311,600.53138 72.479124,453.94934 283.15686,427.46888 373.4596,233.57434 Z"
         id="path4407"
         inkscape:connector-curvature="0" />
    </clipPath>
    <linearGradient
       inkscape:collect="always"
       xlink:href="#linearGradient4415"
       id="linearGradient4421"
       x1="370.11234"
       y1="252.26169"
       x2="398.18829"
       y2="527.45569"
       gradientUnits="userSpaceOnUse" />
    <radialGradient
       inkscape:collect="always"
       xlink:href="#linearGradient4451"
       id="radialGradient4457"
       cx="366.70905"
       cy="557.32794"
       fx="366.70905"
       fy="557.32794"
       r="366.73602"
       gradientTransform="matrix(0.96926508,0.07367622,-0.08208158,1.079844,57.017138,-71.517033)"
       gradientUnits="userSpaceOnUse" />
    <filter
       style="color-interpolation-filters:sRGB"
       inkscape:label="Drop Shadow"
       id="filter4504">
      <feFlood
         flood-opacity="0.498039"
         flood-color="rgb(0,0,0)"
         result="flood"
         id="feFlood4506" />
      <feComposite
         in="flood"
         in2="SourceGraphic"
         operator="in"
         result="composite1"
         id="feComposite4508" />
      <feGaussianBlur
         in="composite1"
         stdDeviation="8"
         result="blur"
         id="feGaussianBlur4510" />
      <feOffset
         dx="10"
         dy="10"
         result="offset"
         id="feOffset4512" />
      <feComposite
         in="SourceGraphic"
         in2="offset"
         operator="over"
         result="composite2"
         id="feComposite4514" />
    </filter>
  </defs>
  <sodipodi:namedview
     id="base"
     pagecolor="#ffffff"
     bordercolor="#666666"
     borderopacity="1.0"
     inkscape:pageopacity="0.0"
     inkscape:pageshadow="2"
     inkscape:zoom="0.78490086"
     inkscape:cx="404.79247"
     inkscape:cy="380.12953"
     inkscape:document-units="px"
     inkscape:current-layer="layer1"
     showgrid="false"
     inkscape:window-width="1920"
     inkscape:window-height="1019"
     inkscape:window-x="-9"
     inkscape:window-y="-9"
     inkscape:window-maximized="1"
     fit-margin-top="0"
     fit-margin-left="0"
     fit-margin-right="0"
     fit-margin-bottom="0" />
  <metadata
     id="metadata7">
    <rdf:RDF>
      <cc:Work
         rdf:about="">
        <dc:format>image/svg+xml</dc:format>
        <dc:type
           rdf:resource="http://purl.org/dc/dcmitype/StillImage" />
        <dc:title></dc:title>
      </cc:Work>
    </rdf:RDF>
  </metadata>
  <g
     inkscape:label="Layer 1"
     inkscape:groupmode="layer"
     id="layer1"
     transform="translate(23.954501,-146.05158)">
    <g
       id="g4459"
       transform="matrix(0.90718637,0,0,0.90718637,34.531051,48.836761)"
       style="filter:url(#filter4504)">
      <path
         transform="matrix(0.90165117,-0.09569727,0.09569727,0.90165117,-2.9118286,68.564965)"
         inkscape:transform-center-y="-33.465949"
         inkscape:transform-center-x="0.11080843"
         d="M 548.05139,918.02588 334.52731,769.26803 94.740731,870.38099 170.23529,621.33882 -0.02698134,424.53385 260.1553,419.37518 394.71401,196.63006 480.02095,442.48399 733.44507,501.6249 525.98538,658.72966 Z"
         inkscape:randomized="0"
         inkscape:rounded="0"
         inkscape:flatsided="false"
         sodipodi:arg2="1.6755161"
         sodipodi:arg1="1.0471976"
         sodipodi:r2="188.0591"
         sodipodi:r1="387.73312"
         sodipodi:cy="582.23914"
         sodipodi:cx="354.18484"
         sodipodi:sides="5"
         id="path4447"
         style="opacity:1;fill:url(#radialGradient4457);fill-opacity:1;stroke:none;stroke-width:1;stroke-linecap:round;stroke-linejoin:round;stroke-miterlimit:4;stroke-dasharray:none;stroke-opacity:1"
         sodipodi:type="star" />
      <g
         id="g4426">
        <path
           clip-path="url(#clipPath4405)"
           style="opacity:1;fill:#72d4fd;fill-opacity:1;stroke:none;stroke-width:1.68829036;stroke-linecap:round;stroke-linejoin:round;stroke-miterlimit:4;stroke-dasharray:none;stroke-opacity:1"
           d="M 373.48889,173.17591 264.29944,407.62317 9.5572494,439.64075 196.77796,616.88098 l -48.54493,254.375 224.89649,-124.9082 224.73828,125.19531 -48.22461,-254.4375 187.44141,-177 L 482.38343,407.7638 373.48889,173.17591 Z m -0.0293,60.39843 90.05859,194.00977 210.64648,26.74805 L 519.14514,600.71692 559.02796,811.14466 373.16272,707.60364 187.16663,810.90638 227.31311,600.53138 72.479124,453.94934 283.15686,427.46888 373.4596,233.57434 Z"
           id="path4409"
           inkscape:connector-curvature="0"
           transform="translate(-1.2736806,3.8216024)" />
        <path
           transform="translate(-1.2736806,3.8216024)"
           inkscape:connector-curvature="0"
           id="path4423"
           d="M 373.48889,173.17591 264.29944,407.62317 9.5572494,439.64075 196.77796,616.88098 l -48.54493,254.375 224.89649,-124.9082 224.73828,125.19531 -48.22461,-254.4375 187.44141,-177 L 482.38343,407.7638 373.48889,173.17591 Z m -0.0293,60.39843 90.05859,194.00977 210.64648,26.74805 L 519.14514,600.71692 559.02796,811.14466 373.16272,707.60364 187.16663,810.90638 227.31311,600.53138 72.479124,453.94934 283.15686,427.46888 373.4596,233.57434 Z"
           style="opacity:1;fill:url(#linearGradient4421);fill-opacity:1;stroke:none;stroke-width:1.68829036;stroke-linecap:round;stroke-linejoin:round;stroke-miterlimit:4;stroke-dasharray:none;stroke-opacity:1"
           clip-path="url(#clipPath4405)" />
        <g
           id="g4411">
          <path
             transform="matrix(0.92294718,0,0,0.92294718,27.491749,44.070875)"
             clip-path="url(#clipPath4405)"
             style="opacity:1;fill:#000000;fill-opacity:1;stroke:none;stroke-width:1.68829036;stroke-linecap:round;stroke-linejoin:round;stroke-miterlimit:4;stroke-dasharray:none;stroke-opacity:1"
             d="M 373.48889,173.17591 264.29944,407.62317 9.5572494,439.64075 196.77796,616.88098 l -48.54493,254.375 224.89649,-124.9082 224.73828,125.19531 -48.22461,-254.4375 187.44141,-177 L 482.38343,407.7638 373.48889,173.17591 Z m -0.0293,60.39843 90.05859,194.00977 210.64648,26.74805 L 519.14514,600.71692 559.02796,811.14466 373.16272,707.60364 187.16663,810.90638 227.31311,600.53138 72.479124,453.94934 283.15686,427.46888 373.4596,233.57434 Z"
             id="path4399"
             inkscape:connector-curvature="0" />
          <path
             transform="matrix(0.92294718,0,0,0.92294718,27.491749,44.070875)"
             clip-path="url(#clipPath4401)"
             style="opacity:1;fill:#ff0000;fill-opacity:1;stroke:none;stroke-width:1.68829036;stroke-linecap:round;stroke-linejoin:round;stroke-miterlimit:4;stroke-dasharray:none;stroke-opacity:1;filter:url(#filter4391)"
             d="M 373.48889,173.17591 264.29944,407.62317 9.5572494,439.64075 196.77796,616.88098 l -48.54493,254.375 224.89649,-124.9082 224.73828,125.19531 -48.22461,-254.4375 187.44141,-177 L 482.38343,407.7638 373.48889,173.17591 Z m -0.0293,60.39843 90.05859,194.00977 210.64648,26.74805 L 519.14514,600.71692 559.02796,811.14466 373.16272,707.60364 187.16663,810.90638 227.31311,600.53138 72.479124,453.94934 283.15686,427.46888 373.4596,233.57434 Z"
             id="path4149"
             inkscape:connector-curvature="0" />
        </g>
      </g>
    </g>
  </g>
</svg>
