<?xml version="1.0" encoding="UTF-8" standalone="no"?>
<!-- Created with Inkscape (http://www.inkscape.org/) -->

<svg
   xmlns:dc="http://purl.org/dc/elements/1.1/"
   xmlns:cc="http://creativecommons.org/ns#"
   xmlns:rdf="http://www.w3.org/1999/02/22-rdf-syntax-ns#"
   xmlns:svg="http://www.w3.org/2000/svg"
   xmlns="http://www.w3.org/2000/svg"
   xmlns:sodipodi="http://sodipodi.sourceforge.net/DTD/sodipodi-0.dtd"
   xmlns:inkscape="http://www.inkscape.org/namespaces/inkscape"
   width="210mm"
   height="297mm"
   viewBox="0 0 744.09448819 1052.3622047"
   id="svg2"
   version="1.1"
   inkscape:version="0.91 r13725"
   sodipodi:docname="drawing4.svg">
  <defs
     id="defs4">
    <inkscape:path-effect
       effect="bend_path"
       id="path-effect4149"
       is_visible="true"
       bendpath="m 66.250408,798.82701 c 67.579472,41.89061 91.888542,-37.9385 139.987932,-36.61019 48.09938,1.32831 130.18145,72.34762 170.61372,56.65403 40.43227,-15.6936 99.09492,10.57857 143.67305,1.40346 44.57813,-9.1751 64.87937,-42.33107 125.41634,-21.4473"
       prop_scale="1"
       scale_y_rel="false"
       vertical="false"
       bendpath-nodetypes="csssc" />
    <inkscape:path-effect
       effect="envelope"
       id="path-effect4140"
       is_visible="true"
       yy="true"
       xx="true"
       bendpath1="M 161.80387,57.332077 713.46592,10.192367"
       bendpath2="M 713.46592,10.192367 487.95973,496.87809"
       bendpath3="M 121.03439,299.40092 713.46592,438.27196"
       bendpath4="m 19.110689,10.192367 0,428.079593"
       bendpath1-nodetypes="cc"
       bendpath2-nodetypes="cc"
       bendpath3-nodetypes="cc" />
    <inkscape:path-effect
       effect="construct_grid"
       id="path-effect4138"
       is_visible="true"
       nr_x="5"
       nr_y="2" />
  </defs>
  <sodipodi:namedview
     id="base"
     pagecolor="#ffffff"
     bordercolor="#666666"
     borderopacity="1.0"
     inkscape:pageopacity="0.0"
     inkscape:pageshadow="2"
     inkscape:zoom="0.78490086"
     inkscape:cx="372.04724"
     inkscape:cy="526.1811"
     inkscape:document-units="px"
     inkscape:current-layer="layer1"
     showgrid="false"
     inkscape:window-width="1920"
     inkscape:window-height="1019"
     inkscape:window-x="-9"
     inkscape:window-y="-9"
     inkscape:window-maximized="1" />
  <metadata
     id="metadata7">
    <rdf:RDF>
      <cc:Work
         rdf:about="">
        <dc:format>image/svg+xml</dc:format>
        <dc:type
           rdf:resource="http://purl.org/dc/dcmitype/StillImage" />
        <dc:title></dc:title>
      </cc:Work>
    </rdf:RDF>
  </metadata>
  <g
     inkscape:label="Layer 1"
     inkscape:groupmode="layer"
     id="layer1">
    <path
       style="fill:none;fill-rule:evenodd;stroke:#000000;stroke-width:1px;stroke-linecap:butt;stroke-linejoin:miter;stroke-opacity:1"
       d="M 292.41623,34.490226 C 164.06847,87.865147 89.087749,221.69422 49.913922,347.45158 M 382.95716,40.784965 C 260.81289,124.71328 226.94567,194.03702 169.55534,320.50383 M 466.65181,42.067497 C 334.34101,190.63831 350.40726,158.21987 278.08773,324.71216 M 546.33346,41.829798 C 428.62346,210.97154 419.87549,177.51357 377.05145,345.18668 M 622.31104,49.561722 C 513.93109,202.18084 464.40444,236.04807 465.46247,373.03535 M 692.36911,80.750999 C 567.89195,221.90144 500.64226,288.78173 539.81243,405.36404 M 292.41623,34.490226 c 107.71295,9.544 330.96825,-5.775166 399.95288,46.260773 M 137.72485,163.82749 c 173.14048,-11.3159 369.85748,37.78665 416.99817,88.44308 M 49.913922,347.45158 C 225.93701,279.19857 454.20224,359.49615 539.81243,405.36404"
       id="path4136"
       inkscape:connector-curvature="0"
       inkscape:path-effect="#path-effect4138;#path-effect4140"
       inkscape:original-d="M 108.29393,192.38099 197.47717,10.192367 300.67492,22.932837" />
    <path
       style="fill:none;fill-rule:evenodd;stroke:#000000;stroke-width:23.70000076;stroke-linecap:butt;stroke-linejoin:miter;stroke-miterlimit:4;stroke-dasharray:none;stroke-opacity:1"
       d="M 81.53896,625.55671 C 30.131962,603.85153 116.59051,485.19509 279.01613,537.64752 m 0,0 c 18.58864,49.60165 74.08773,149.56547 101.57753,161.88952 37.36141,16.74963 113.67048,-152.61462 162.16857,-150.96899 57.19947,1.94087 56.31661,102.82448 119.74182,177.63831"
       id="path4142"
       inkscape:connector-curvature="0"
       sodipodi:nodetypes="cccssc" />
    <path
       style="opacity:1;fill:#ffffff;fill-opacity:1;stroke:#000000;stroke-width:4.5;stroke-linejoin:round;stroke-miterlimit:4;stroke-dasharray:none;stroke-opacity:1"
       d="m 644.09048,804.19253 c -1.09592,3.17678 -5.39278,4.92296 -11.99869,6.33041 -5.50289,1.17245 -16.43978,2.61981 -24.3414,5.38811 -6.24675,2.02902 -12.61517,5.12566 -20.25923,9.70112 0,0 -1e-5,10e-6 -1e-5,10e-6 -3.25569,1.92234 -16.50531,10.48077 -23.6579,14.54746 -9.66881,5.61048 -21.61981,11.26222 -36.05895,15.33554 -15.8154,3.98934 -31.25933,5.20937 -45.69432,4.66703 1e-5,-10e-6 -2e-5,0 -2e-5,0 -14.47199,-0.35359 -27.4945,-1.65735 -40.4382,-2.88132 -11.66969,-1.00882 -22.70507,-2.07767 -31.94875,-1.73026 -8.01547,0.59294 -14.38573,1.00262 -17.48635,2.87913 -13.23364,4.67281 -25.26187,6.15036 -35.34984,5.04452 -7.88942,-0.65965 -15.06682,-1.91696 -21.5057,-3.56099 -2.93975,-0.75061 -5.70917,-1.57764 -8.30715,-2.45739 -20.27869,-6.67112 -37.37711,-15.30732 -51.56765,-23.03412 -17.62891,-9.35171 -29.81552,-16.61163 -44.10464,-23.69945 -6.27952,-3.09123 -11.68073,-5.68787 -16.68077,-7.56561 -4.57419,-1.56138 -7.57581,-2.81584 -9.49684,-3.12577 -0.4119,-0.5426 -1.73671,-0.64446 -3.46146,-0.57851 -2.11153,0.12365 -5.16679,1.38768 -8.90021,3.0899 -7.29867,3.45192 -20.90299,12.58885 -31.37819,18.4543 -6.8026,3.86394 -14.1008,7.27492 -21.87318,9.9727 -8.84167,3.09136 -17.90885,4.52826 -26.58155,4.5724 -11.60613,-0.10601 -21.155929,-2.94686 -28.334146,-6.43998 0,0 -1e-5,-10e-6 -1e-5,-10e-6 -19.940083,-9.91246 -23.550287,-21.99017 -21.405282,-25.45057 3.314326,-5.34682 13.036515,-2.23311 28.680301,-3.29503 0,0 9e-6,0 9e-6,0 5.151342,-0.34989 10.968588,-1.26814 16.212408,-3.4496 4.02272,-1.59074 8.00289,-3.93483 12.19913,-6.99191 3.82025,-2.77208 7.5058,-6.10674 11.85648,-10.18418 6.53575,-6.20273 16.80689,-17.19926 28.35072,-26.25359 5.36815,-4.24404 11.94456,-8.47123 19.97607,-12.01423 7.75351,-3.37288 16.65142,-5.48743 26.43409,-5.71265 9.71734,-0.0411 18.65192,1.27254 26.57677,3.3356 9.00503,2.2313 17.4778,5.09765 25.53962,8.26522 17.44744,6.81968 32.94302,14.45667 49.15969,22.21335 14.37082,6.74789 28.24651,13.58867 41.08666,17.45504 1.62703,0.47108 3.17136,0.91242 4.6222,1.29912 3.22701,0.86011 5.93867,1.34613 8.16958,1.28267 2.63172,-0.2922 3.90512,-0.34029 3.05675,-0.80018 16.40618,-6.72119 32.08278,-9.51346 45.2428,-10.21801 15.50338,-1.1144 30.06996,-0.91497 42.05152,-0.50219 -13.81947,-0.38433 52.72282,1.78955 35.6472,1.30685 17.99296,0.14973 5.9497,0.42753 21.12962,0.57377 1.03311,0.01 2.02027,-0.005 2.96569,-0.051 6.49942,-0.0122 14.5697,-1.47405 23.2953,-3.16059 9.69761,-2.07515 19.27783,-4.60391 31.29078,-6.34599 14.45603,-2.203 28.14783,-1.22388 39.71058,1.88298 0,0 10e-6,10e-6 10e-6,10e-6 15.06784,4.35965 25.09385,11.90857 30.69566,17.82702 5.78089,6.10767 7.82517,11.34136 6.8808,14.07886 z"
       id="path4146"
       inkscape:path-effect="#path-effect4149"
       inkscape:original-d="m 654.85977,839.5965 c -3e-5,20.40545 -129.76827,36.94734 -289.84552,36.94734 -160.07725,0 -289.845509,-16.54189 -289.845518,-36.94734 -3.5e-5,-20.40546 129.768238,-36.94735 289.845518,-36.94735 65.15301,0 112.54467,-15.09637 160.94994,-10.47063 70.52376,6.73943 128.8956,35.31774 128.89558,47.41798 z"
       inkscape:connector-curvature="0"
       sodipodi:nodetypes="ssssss" />
  </g>
</svg>
