<?xml version="1.0" encoding="UTF-8" standalone="no"?>
<!-- Created with Inkscape (http://www.inkscape.org/) -->

<svg
   xmlns:dc="http://purl.org/dc/elements/1.1/"
   xmlns:cc="http://creativecommons.org/ns#"
   xmlns:rdf="http://www.w3.org/1999/02/22-rdf-syntax-ns#"
   xmlns:svg="http://www.w3.org/2000/svg"
   xmlns="http://www.w3.org/2000/svg"
   xmlns:sodipodi="http://sodipodi.sourceforge.net/DTD/sodipodi-0.dtd"
   xmlns:inkscape="http://www.inkscape.org/namespaces/inkscape"
   width="146.16988mm"
   height="146.16989mm"
   viewBox="0 0 517.92476 517.92481"
   id="svg6705"
   version="1.1"
   inkscape:version="0.91 r13725"
   sodipodi:docname="drawing3.svg">
  <defs
     id="defs6707">
    <inkscape:path-effect
       effect="curvestitching"
       id="path-effect7259"
       is_visible="true"
       count="5"
       startpoint_edge_variation="0;1"
       startpoint_spacing_variation="0;1"
       endpoint_edge_variation="0;1"
       endpoint_spacing_variation="0;1"
       strokepath="m 90.74532,482.2265 554.9081,0"
       prop_scale="1"
       scale_y_rel="false" />
  </defs>
  <sodipodi:namedview
     id="base"
     pagecolor="#ffffff"
     bordercolor="#666666"
     borderopacity="1.0"
     inkscape:pageopacity="0.0"
     inkscape:pageshadow="2"
     inkscape:zoom="0.78490086"
     inkscape:cx="241.15148"
     inkscape:cy="87.743429"
     inkscape:document-units="px"
     inkscape:current-layer="layer1"
     showgrid="false"
     fit-margin-top="0"
     fit-margin-left="0"
     fit-margin-right="0"
     fit-margin-bottom="0"
     inkscape:window-width="1920"
     inkscape:window-height="1019"
     inkscape:window-x="-9"
     inkscape:window-y="-9"
     inkscape:window-maximized="1" />
  <metadata
     id="metadata6710">
    <rdf:RDF>
      <cc:Work
         rdf:about="">
        <dc:format>image/svg+xml</dc:format>
        <dc:type
           rdf:resource="http://purl.org/dc/dcmitype/StillImage" />
        <dc:title></dc:title>
      </cc:Work>
    </rdf:RDF>
  </metadata>
  <g
     inkscape:label="Layer 1"
     inkscape:groupmode="layer"
     id="layer1"
     transform="translate(-130.89577,-192.687)">
    <path
       id="path7255"
       style="opacity:1;fill:#ffffff;fill-opacity:1;stroke:#000000;stroke-width:3;stroke-linejoin:round;stroke-miterlimit:4;stroke-dasharray:none;stroke-opacity:1"
       d="M 498.48513,196.16946 647.32061,347.80868 M 535.694,234.07926 646.82498,400.9256 m -73.92211,-128.93653 73.42647,182.05346 m -36.2176,-144.14366 35.72197,197.26058 m 1.4869,-159.35077 -1.98253,212.46769 M 498.48513,196.16946 645.33808,560.27637 M 535.694,234.07926 607.42828,597.48524 m -34.52541,-325.49617 -3.3844,362.70504 M 610.11174,309.89887 531.60867,671.90298 M 647.32061,347.80868 493.69887,709.11185 m 4.78626,-512.94239 -4.78626,512.94239 M 535.694,234.07926 440.58195,708.61621 M 572.90287,271.98907 387.46502,708.12058 M 610.11174,309.89887 334.3481,707.62495 M 647.32061,347.80868 281.23118,707.12931 M 498.48513,196.16946 281.23118,707.12931 M 535.694,234.07926 244.02231,669.21951 M 572.90287,271.98907 206.81344,631.3097 M 610.11174,309.89887 169.60457,593.3999 M 647.32061,347.80868 132.3957,555.4901 M 498.48513,196.16946 132.3957,555.4901 M 535.694,234.07926 132.89133,502.37318 M 572.90287,271.98907 133.38697,449.25626 M 610.11174,309.89887 133.8826,396.13934 M 647.32061,347.80868 134.37823,343.02242 M 498.48513,196.16946 134.37823,343.02242 M 535.694,234.07926 172.28803,305.81355 M 572.90287,271.98907 210.19783,268.60468 M 610.11174,309.89887 248.10764,231.3958 M 647.32061,347.80868 286.01744,194.18693 m 212.46769,1.98253 -212.46769,-1.98253 M 535.694,234.07926 339.13436,194.68256 M 572.90287,271.98907 392.25128,195.1782 M 610.11174,309.89887 445.36821,195.67383 M 647.32061,347.80868 498.48513,196.16946 m 148.83548,151.63922 -1.98253,212.46769 m 1.4869,-159.35077 -39.3967,196.55964 M 646.32934,454.04253 569.51847,634.69411 M 645.83371,507.15945 531.60867,671.90298 M 645.33808,560.27637 493.69887,709.11185 M 647.32061,347.80868 493.69887,709.11185 M 646.82498,400.9256 440.58195,708.61621 M 646.32934,454.04253 387.46502,708.12058 M 645.83371,507.15945 334.3481,707.62495 M 645.33808,560.27637 281.23118,707.12931 M 647.32061,347.80868 281.23118,707.12931 M 646.82498,400.9256 244.02231,669.21951 M 646.32934,454.04253 206.81344,631.3097 M 645.83371,507.15945 169.60457,593.3999 M 645.33808,560.27637 132.3957,555.4901 M 647.32061,347.80868 132.3957,555.4901 M 646.82498,400.9256 132.89133,502.37318 M 646.32934,454.04253 133.38697,449.25626 M 645.83371,507.15945 133.8826,396.13934 M 645.33808,560.27637 134.37823,343.02242 m 512.94238,4.78626 -512.94238,-4.78626 M 646.82498,400.9256 172.28803,305.81355 M 646.32934,454.04253 210.19783,268.60468 M 645.83371,507.15945 248.10764,231.3958 M 645.33808,560.27637 286.01744,194.18693 M 647.32061,347.80868 286.01744,194.18693 M 646.82498,400.9256 339.13436,194.68256 M 646.32934,454.04253 392.25128,195.1782 M 645.83371,507.15945 445.36821,195.67383 M 645.33808,560.27637 498.48513,196.16946 M 645.33808,560.27637 493.69887,709.11185 M 607.42828,597.48524 440.58195,708.61621 m 128.93652,-73.9221 -182.05345,73.42647 m 144.14365,-36.2176 -197.26057,35.72197 m 159.35077,1.4869 -212.46769,-1.98254 M 645.33808,560.27637 281.23118,707.12931 M 607.42828,597.48524 244.02231,669.21951 M 569.51847,634.69411 206.81344,631.3097 M 531.60867,671.90298 169.60457,593.3999 M 493.69887,709.11185 132.3957,555.4901 M 645.33808,560.27637 132.3957,555.4901 M 607.42828,597.48524 132.89133,502.37318 M 569.51847,634.69411 133.38697,449.25626 M 531.60867,671.90298 133.8826,396.13934 M 493.69887,709.11185 134.37823,343.02242 M 645.33808,560.27637 134.37823,343.02242 M 607.42828,597.48524 172.28803,305.81355 M 569.51847,634.69411 210.19783,268.60468 M 531.60867,671.90298 248.10764,231.3958 M 493.69887,709.11185 286.01744,194.18693 M 645.33808,560.27637 286.01744,194.18693 M 607.42828,597.48524 339.13436,194.68256 M 569.51847,634.69411 392.25128,195.1782 M 531.60867,671.90298 445.36821,195.67383 m 48.33066,513.43802 4.78626,-512.94239 m -4.78626,512.94239 -212.46769,-1.98254 m 159.35077,1.4869 -196.55964,-39.3967 M 387.46502,708.12058 206.81344,631.3097 M 334.3481,707.62495 169.60457,593.3999 M 281.23118,707.12931 132.3957,555.4901 M 493.69887,709.11185 132.3957,555.4901 M 440.58195,708.61621 132.89133,502.37318 M 387.46502,708.12058 133.38696,449.25626 M 334.3481,707.62495 133.8826,396.13934 M 281.23118,707.12931 134.37823,343.02242 M 493.69887,709.11185 134.37823,343.02242 M 440.58195,708.61621 172.28803,305.81355 M 387.46502,708.12058 210.19783,268.60468 M 334.3481,707.62495 248.10764,231.3958 m 33.12354,475.73351 4.78626,-512.94238 M 493.69887,709.11185 286.01744,194.18693 M 440.58195,708.61621 339.13436,194.68256 m 48.33066,513.43802 4.78626,-512.94239 M 334.3481,707.62495 445.36821,195.67383 M 281.23118,707.12931 498.48513,196.16946 M 281.23118,707.12931 132.3957,555.4901 M 244.02231,669.21951 132.89133,502.37318 M 206.81344,631.3097 133.38696,449.25626 M 169.60457,593.3999 133.8826,396.13934 m -1.4869,159.35076 1.98253,-212.46768 M 281.23118,707.12931 134.37823,343.02242 M 244.02231,669.21951 172.28803,305.81355 m 34.52541,325.49615 3.38439,-362.70502 M 169.60457,593.3999 248.10764,231.3958 M 132.3957,555.4901 286.01744,194.18693 m -4.78626,512.94238 4.78626,-512.94238 M 244.02231,669.21951 339.13436,194.68256 M 206.81344,631.3097 392.25128,195.1782 M 169.60457,593.3999 445.36821,195.67383 M 132.3957,555.4901 498.48513,196.16946 M 132.3957,555.4901 134.37823,343.02242 m -1.4869,159.35076 39.3967,-196.55963 M 133.38696,449.25626 210.19783,268.60468 M 133.8826,396.13934 248.10764,231.3958 M 134.37823,343.02242 286.01744,194.18693 M 132.3957,555.4901 286.01744,194.18693 M 132.89133,502.37318 339.13436,194.68256 M 133.38696,449.25626 392.25128,195.1782 M 133.8826,396.13934 445.36821,195.67383 M 134.37823,343.02242 498.48513,196.16946 M 134.37823,343.02242 286.01744,194.18693 M 172.28803,305.81355 339.13436,194.68256 M 210.19783,268.60468 392.25128,195.1782 m -144.14364,36.2176 197.26057,-35.72197 m -159.35077,-1.4869 212.46769,1.98253"
       inkscape:path-effect="#path-effect7259"
       inkscape:original-d="m 498.48513,196.16946 148.83548,151.63922 m 0,0 -1.98253,212.46769 m 0,0 -151.63921,148.83548 m 0,0 -212.46769,-1.98254 m 0,0 L 132.3957,555.4901 m 0,0 1.98253,-212.46768 m 0,0 151.63921,-148.83549 m 0,0 212.46769,1.98253"
       inkscape:connector-curvature="0" />
  </g>
</svg>
