<?xml version="1.0" encoding="UTF-8" standalone="no"?>
<!-- Created with Inkscape (http://www.inkscape.org/) -->

<svg
   xmlns:dc="http://purl.org/dc/elements/1.1/"
   xmlns:cc="http://creativecommons.org/ns#"
   xmlns:rdf="http://www.w3.org/1999/02/22-rdf-syntax-ns#"
   xmlns:svg="http://www.w3.org/2000/svg"
   xmlns="http://www.w3.org/2000/svg"
   xmlns:sodipodi="http://sodipodi.sourceforge.net/DTD/sodipodi-0.dtd"
   xmlns:inkscape="http://www.inkscape.org/namespaces/inkscape"
   width="210mm"
   height="297mm"
   viewBox="0 0 744.09448819 1052.3622047"
   id="svg2"
   version="1.1"
   inkscape:version="0.91 r13725"
   sodipodi:docname="drawing-1.svg">
  <defs
     id="defs4">
    <inkscape:path-effect
       effect="ruler"
       id="path-effect6703"
       is_visible="true"
       unit="px"
       mark_distance="20"
       mark_length="14"
       minor_mark_length="7"
       major_mark_steps="5"
       shift="0"
       offset="0"
       mark_dir="left"
       border_marks="both" />
    <inkscape:path-effect
       effect="knot"
       id="path-effect6701"
       is_visible="false"
       interruption_width="3"
       prop_to_stroke_width="true"
       add_stroke_width="true"
       add_other_stroke_width="true"
       switcher_size="15"
       crossing_points_vector="" />
    <inkscape:path-effect
       effect="curvestitching"
       id="path-effect6694"
       is_visible="true"
       count="15"
       startpoint_edge_variation="0;1"
       startpoint_spacing_variation="0;1"
       endpoint_edge_variation="0;1"
       endpoint_spacing_variation="0;1"
       strokepath="M 277.5449,25.085787 C 277.5449,40.213968 51.200518,182.20547 35.3687,182.20547 19.536883,182.20547 3.9999994,46.520175 4,31.391994 c 0,-15.128181 9.230676,-42.707069 25.062493,-42.707069 15.831817,0 248.482407,21.2726809 248.482407,36.400862 z"
       prop_scale="1"
       scale_y_rel="false"
       strokepath-nodetypes="sssss" />
    <inkscape:path-effect
       effect="skeletal"
       id="path-effect4290"
       is_visible="true"
       pattern="M 61.332081,31.391994 A 28.66604,27.391994 0 0 1 32.66604,58.783989 28.66604,27.391994 0 0 1 4,31.391994 28.66604,27.391994 0 0 1 32.66604,4 28.66604,27.391994 0 0 1 61.332081,31.391994 Z"
       copytype="single_stretched"
       prop_scale="1"
       scale_y_rel="false"
       spacing="0"
       normal_offset="0"
       tang_offset="0"
       prop_units="false"
       vertical_pattern="false"
       fuse_tolerance="0" />
    <inkscape:path-effect
       effect="skeletal"
       id="path-effect4239"
       is_visible="true"
       pattern="M 267.0472,216.59731 A 152.88554,125.49355 0 0 1 57.015975,224.59744 152.88554,125.49355 0 0 1 35.872795,52.886091 152.88554,125.49355 0 0 1 243.60655,26.227431 l -86.7205,103.351829 z"
       copytype="repeated"
       prop_scale="1"
       scale_y_rel="false"
       spacing="0"
       normal_offset="0"
       tang_offset="0"
       prop_units="false"
       vertical_pattern="false"
       fuse_tolerance="0" />
    <inkscape:path-effect
       effect="powerstroke"
       id="path-effect4237"
       is_visible="true"
       offset_points="0,1 | 0.5,1 | 1,1"
       sort_points="true"
       interpolator_type="CentripetalCatmullRom"
       interpolator_beta="0.25"
       start_linecap_type="round"
       linejoin_type="round"
       miter_limit="4"
       end_linecap_type="round" />
    <inkscape:path-effect
       effect="skeletal"
       id="path-effect4228"
       is_visible="true"
       pattern="M 267.0472,216.59731 A 152.88554,125.49355 0 0 1 57.015975,224.59744 152.88554,125.49355 0 0 1 35.872795,52.886091 152.88554,125.49355 0 0 1 243.60655,26.227431 l -86.7205,103.351829 z"
       copytype="repeated"
       prop_scale="0.34"
       scale_y_rel="false"
       spacing="0"
       normal_offset="0"
       tang_offset="0"
       prop_units="false"
       vertical_pattern="false"
       fuse_tolerance="0" />
    <inkscape:path-effect
       effect="skeletal"
       id="path-effect4207"
       is_visible="true"
       pattern="m 10.946185,-22.179018 47.13971,0 0,43.317573 -47.13971,0 z"
       copytype="repeated"
       prop_scale="1"
       scale_y_rel="false"
       spacing="0"
       normal_offset="0"
       tang_offset="0"
       prop_units="false"
       vertical_pattern="false"
       fuse_tolerance="0" />
  </defs>
  <sodipodi:namedview
     id="base"
     pagecolor="#ffffff"
     bordercolor="#666666"
     borderopacity="1.0"
     inkscape:pageopacity="0.0"
     inkscape:pageshadow="2"
     inkscape:zoom="1.1100174"
     inkscape:cx="250.01655"
     inkscape:cy="690.42201"
     inkscape:document-units="px"
     inkscape:current-layer="layer1"
     showgrid="false"
     inkscape:window-width="1920"
     inkscape:window-height="1019"
     inkscape:window-x="-9"
     inkscape:window-y="-9"
     inkscape:window-maximized="1" />
  <metadata
     id="metadata7">
    <rdf:RDF>
      <cc:Work
         rdf:about="">
        <dc:format>image/svg+xml</dc:format>
        <dc:type
           rdf:resource="http://purl.org/dc/dcmitype/StillImage" />
        <dc:title />
      </cc:Work>
    </rdf:RDF>
  </metadata>
  <g
     inkscape:label="Layer 1"
     inkscape:groupmode="layer"
     id="layer1">
    <path
       style="fill:#e4ec31;fill-opacity:0.58160239;stroke:#5ad427;stroke-width:8;stroke-linejoin:round;stroke-miterlimit:4;stroke-dasharray:none;stroke-opacity:1"
       d="M 99.375605,65.61338 A 28.66604,27.391994 0 0 1 70.709564,93.005375 28.66604,27.391994 0 0 1 42.043524,65.61338 28.66604,27.391994 0 0 1 70.709564,38.221386 28.66604,27.391994 0 0 1 99.375605,65.61338 Z"
       id="path4276" />
    <path
       style="fill:none;fill-rule:evenodd;stroke:#000000;stroke-width:1px;stroke-linecap:butt;stroke-linejoin:miter;stroke-opacity:1"
       d="m 39.495434,921.13544 c -2.899149,-2.21295 8.827257,-23.40151 36.364285,-62.58274 27.943871,-39.7601 69.896011,-94.91056 126.827591,-165.8283 0,0 3e-5,-4e-5 3e-5,-4e-5 82.1214,74.82446 178.45911,164.45873 288.92101,268.21069 12.55133,-72.10218 26.65733,-153.82081 39.67642,-228.29127 C 542.4382,668.84506 553.62175,605.58819 564.94971,543.19444 466.11078,443.16186 365.44432,340.2675 289.57392,262.37878 c 0,0 -4e-5,4e-5 -4e-5,4e-5 C 150.0387,372.29066 62.293793,432.01713 57.332081,425.53145 c -2.311392,-3.02132 16.174454,-21.81476 56.038439,-55.17221 40.40144,-33.80719 99.63752,-80.02524 178.02061,-138.40805 0,0 5e-5,-3e-5 5e-5,-3e-5 85.74712,79.52253 201.06701,187.14153 318.32975,297.60134 -16.0308,67.94121 -32.68134,137.28112 -49.58903,207.16333 -20.01398,82.721 -41.28785,169.89698 -60.53227,249.0918 C 386.89461,884.90879 288.52481,795.99012 205.00746,718.91888 c 0,0 -3e-5,4e-5 -3e-5,4e-5 C 109.01848,851.99318 45.782988,925.93482 39.495434,921.13544 Z"
       id="path4278"
       inkscape:connector-curvature="0"
       inkscape:path-effect="#path-effect4290"
       inkscape:original-d="M 57.332081,425.53145 290.48255,247.16497 587.33532,536.37347 495.60399,973.37134 203.8474,705.82162 39.495434,921.13544" />
    <path
       id="path6689"
       style="fill:none;fill-rule:evenodd;stroke:#000000;stroke-width:1.17529786px;stroke-linecap:butt;stroke-linejoin:miter;stroke-opacity:1"
       d="M 9.8147333,250.28685 C 24.937226,250.70168 156.60461,629.01076 155.88622,655.19952 155.16783,681.38827 18.828545,703.36853 3.706053,702.9537 -11.416439,702.53887 -38.566101,686.51338 -37.847708,660.32462 -37.129315,634.13586 -5.3077592,249.87202 9.8147333,250.28685 l 0.3838947,-13.99473 m 10.312222,30.53828 6.303114,-3.04479 m 1.937723,21.26645 6.428733,-2.76972 m 1.288065,21.2207 6.481431,-2.64406 m 0.954891,21.21006 6.512553,-2.56645 m 0.737456,21.20606 13.068092,-5.02245 m -5.956577,23.71536 6.55034,-2.46841 m 0.450505,21.20306 6.563509,-2.43317 m 0.344119,21.2024 6.574685,-2.40281 m 0.251084,21.20197 6.58455,-2.37565 m 0.16673,21.20169 13.187131,-4.70102 m -6.50584,23.55201 6.602068,-2.32652 m 0.01143,21.20141 6.610331,-2.30294 m -0.0645,21.2014 6.61862,-2.27901 m -0.1426,21.2015 6.6272,-2.25394 m -0.22561,21.20174 13.2728,-4.4534 m -6.95383,23.42891 6.64668,-2.19581 m -0.42388,21.20307 6.65877,-2.15887 m -0.55504,21.20467 6.67397,-2.11144 m -0.73108,21.208 6.69498,-2.04384 m -1.0026,21.21641 13.45848,-3.85607 m -8.29734,23.17694 6.81134,-1.6142 m -8.40413,20.41025 5.08359,4.81217 m -21.8949,5.814 2.89062,6.37529 m -21.566,0.75611 2.19121,6.6482 m -21.364337,-0.96595 3.632327,13.52058 m -23.044556,-8.71234 1.562468,6.8234 m -21.122299,-2.65394 1.361345,6.86635 m -21.030137,-3.24506 1.171911,6.9012 m -20.940756,-3.87617 0.921956,6.93902 m -20.8126209,-5.97658 -2.5802461,13.76017 m -15.619144,-21.71043 -3.990016,5.7515 m -9.730964,-20.09835 -6.002751,3.60097 m 0.702966,-22.62435 -6.999901,-0.0372 m 8.206402,-19.92467 -6.981877,-0.50337 m 8.486545,-19.43992 -13.957569,-1.08916 m 15.549523,-18.84737 -6.976886,-0.56838 m 8.627757,-19.36336 -6.975372,-0.58668 m 8.674778,-19.34099 -6.974008,-0.60267 m 8.717569,-19.32118 -6.97269,-0.61774 m 8.758914,-19.30233 -13.942707,-1.26528 m 15.771892,-18.65089 -6.969953,-0.64789 m 8.843769,-19.26414 -6.968441,-0.66395 m 8.889834,-19.24353 -6.966769,-0.68128 m 8.94006,-19.22113 -6.964874,-0.70038 m 8.996054,-19.1962 -13.925348,-1.44385 m 16.022612,-18.44588 -6.960048,-0.74681 m 9.134718,-19.13459 -6.956812,-0.77638 m 9.224951,-19.09457 -6.952666,-0.81268 m 9.3380684,-19.04452 -6.9470664,-0.85923 m 9.4873903,-18.97871 -13.8778563,-1.8453 m 16.6390249,-17.96303 -6.9256638,-1.01744 M 0.29670457,283.16563 -6.6023202,281.98096 M 4.1796476,263.54951 -2.628374,261.92137 M 9.8147333,250.28685 10.198628,236.29212 M 39.556039,208.48185 C 54.681809,208.75194 189.95864,586.04935 189.49056,612.26236 189.02248,638.47538 52.899456,661.77755 37.773686,661.50745 22.647916,661.23736 -4.6536641,645.46158 -4.1855849,619.24856 -3.7175057,593.03555 24.430269,208.21175 39.556039,208.48185 l 0.249955,-13.99777 m 10.599527,30.44112 6.274477,-3.10337 m 2.135862,21.24742 6.402622,-2.82956 m 1.485979,21.20775 6.456474,-2.70443 m 1.15282,21.20021 6.48831,-2.62714 m 0.935429,21.19824 13.020618,-5.14427 m -5.734817,23.76994 6.526995,-2.52949 m 0.648578,21.19792 6.540492,-2.4944 m 0.54224,21.19825 6.55194,-2.46416 m 0.44927,21.19869 6.56205,-2.4371 m 0.36497,21.19919 13.14259,-4.82415 m -6.28526,23.61182 6.58001,-2.38819 m 0.20982,21.20036 6.58849,-2.36471 m 0.13396,21.20106 6.59698,-2.34089 m 0.056,21.20189 6.60579,-2.31595 m -0.0268,21.2029 13.23045,-4.5777 m -6.73367,23.49307 6.62577,-2.25814 m -0.22459,21.20606 6.63817,-2.22142 m -0.35523,21.20887 6.65373,-2.17436 m -0.53034,21.21381 6.67526,-2.10735 m -0.79978,21.2246 13.42061,-3.98589 m -8.06742,23.2545 6.79387,-1.68621 m -7.96361,20.5605 5.19193,4.69508 m -21.83482,6.18205 2.96753,6.33985 m -21.56091,1.00206 2.26284,6.62416 m -21.3749,-0.73988 3.77242,13.48217 m -23.13422,-8.47479 1.63191,6.80712 m -21.148451,-2.43952 1.430665,6.85224 m -21.061888,-3.03253 1.241608,6.88901 m -20.978594,-3.66255 0.994013,6.92907 m -20.87567,-5.68778 -2.333704,13.80413 m -15.983013,-21.47493 -3.906217,5.80874 m -10.0330445,-19.94555 -5.9428369,3.69902 m 0.3120732,-22.62841 -6.9994608,0.0869 m 7.992947,-20.06 -6.986451,-0.43531 m 8.2976187,-19.52164 -13.9674517,-0.95409 m 15.36666603,-18.99689 -6.98205013,-0.50098 m 8.44041193,-19.44577 -6.98071003,-0.51932 m 8.4876926,-19.42383 -6.9795002,-0.53533 m 8.5306589,-19.40442 -6.978328,-0.55039 m 8.5721344,-19.386 -13.9542759,-1.13057 M 7.2622202,460.79217 0.28633325,460.21165 M 8.9435008,440.86297 1.9689664,440.26642 M 10.672255,420.93783 3.6992202,420.324 M 12.452768,401.01725 5.4814364,400.38437 M 14.290983,381.10191 0.35228415,379.79322 M 16.195028,361.19276 9.2280503,360.51363 m 8.9480737,-19.22249 -6.964048,-0.70855 m 9.038098,-19.1836 -6.960283,-0.74463 m 9.150811,-19.13501 -6.955184,-0.79083 m 9.29933,-19.07125 -13.895507,-1.70731 m 16.458053,-18.12769 -6.935614,-0.94724 m 9.850152,-18.8388 -6.911232,-1.11124 m 10.568077,-18.54854 -6.829116,-1.53727 m 12.466378,-12.35733 0.249955,-13.99777 m 32.723994,-25.43671 c 15.127381,0.15557 153.257572,376.33612 152.988022,402.5462 -0.26956,26.21007 -136.212215,50.5365 -151.339596,50.38092 -15.127381,-0.15558 -42.547646,-15.72087 -42.27809,-41.93095 0.269557,-26.21007 25.502283,-411.15175 40.629664,-410.99617 l 0.143975,-13.99926 m 10.831051,30.35909 6.250556,-3.15127 m 2.298284,21.23048 6.380801,-2.87843 m 1.648065,21.19577 6.43561,-2.7537 m 1.31483,21.19078 6.46804,-2.67665 m 1.0974,21.19048 12.98093,-5.24362 m -5.55301,23.81307 6.50747,-2.57929 m 0.81053,21.19235 6.52124,-2.5443 m 0.70418,21.1935 6.53292,-2.51415 m 0.61119,21.19465 6.54324,-2.48716 m 0.52689,21.19579 13.10536,-4.92438 m -6.10475,23.65913 6.56158,-2.43837 m 0.3717,21.19814 6.57025,-2.41493 m 0.29581,21.19942 6.57892,-2.39118 m 0.21785,21.20084 6.58792,-2.36629 m 0.13495,21.20249 13.19513,-4.6785 m -6.55427,23.54376 6.60836,-2.30859 m -0.0629,21.20717 6.62105,-2.27194 m -0.19369,21.21099 6.637,-2.22493 m -0.36903,21.21727 6.65906,-2.15797 m -0.63899,21.23018 13.39016,-4.08701 m -7.89349,23.31517 6.78145,-1.7355 m -7.88311,20.59924 5.20807,4.67718 m -21.78894,6.29769 3.0105,6.31956 m -21.55183,1.15299 2.31042,6.60772 m -21.37923,-0.58471 3.87103,13.45418 m -23.19549,-8.30456 1.6821,6.79489 m -21.16581,-2.28309 1.48137,6.84145 m -21.08376,-2.87642 1.29258,6.87962 m -21.005221,-3.50764 1.044695,6.92161 m -20.916293,-5.55693 -2.264843,13.81559 m -16.096729,-21.38008 -3.870991,5.83227 m -10.150007,-19.88742 -5.922533,3.73144 m 0.194428,-22.63118 -6.998931,0.12229 m 7.848199,-20.10219 -6.989526,-0.38279 m 8.150368,-19.58346 -13.974247,-0.84878 m 15.222961,-19.11219 -6.985631,-0.4483 m 8.293464,-19.50889 -6.98443,-0.46663 m 8.340894,-19.48732 -6.98334,-0.48265 m 8.384009,-19.46823 -6.982282,-0.49774 m 8.425639,-19.45011 -13.962408,-1.02527 m 15.44873,-18.91942 -6.980067,-0.52789 m 8.511008,-19.41343 -6.978834,-0.54394 m 8.557322,-19.39366 -6.977463,-0.56125 m 8.607801,-19.37219 -6.975902,-0.58033 m 8.664054,-19.34828 -13.948159,-1.2037 m 15.702282,-18.71922 -6.97189,-0.62669 m 8.803253,-19.28927 -6.969177,-0.65618 m 8.893749,-19.25099 -6.965675,-0.69236 m 9.007098,-19.20314 -6.96091,-0.73873 m 9.156533,-19.14032 -13.907853,-1.60363 m 16.322909,-18.24987 -6.942433,-0.89589 m 9.711731,-18.91098 -6.919102,-1.06115 m 10.438635,-18.62361 -6.838869,-1.49328 m 12.332482,-12.26484 0.143975,-13.99926 m 36.639587,-22.10296 c 15.128,0.0739 155.29055,374.86888 155.16274,401.03567 -0.12781,26.16679 -135.93691,51.18338 -151.06491,51.10949 -15.128003,-0.0739 -42.632044,-15.46504 -42.504235,-41.63183 0.127808,-26.16679 23.278399,-410.58722 38.406405,-410.51333 l 0.0684,-13.99983 m 11.00538,30.29304 6.23151,-3.18876 m 2.4255,21.21642 6.36347,-2.91654 m 1.77466,21.1856 6.41907,-2.79206 m 1.44116,21.1826 6.45198,-2.71514 m 1.22357,21.18359 12.94949,-5.32078 m -5.41126,23.84572 6.49203,-2.61793 m 0.93643,21.18718 6.50601,-2.58297 m 0.82997,21.18896 6.51789,-2.55285 m 0.73685,21.19066 6.52839,-2.52588 m 0.65241,21.19231 13.07599,-5.00186 m -5.96469,23.69488 6.54706,-2.4771 m 0.49689,21.19561 6.55588,-2.45367 m 0.42079,21.19735 6.56473,-2.42989 m 0.34256,21.19925 6.5739,-2.40495 m 0.25931,21.2014 13.16753,-4.75566 m -6.4166,23.58182 6.5948,-2.34705 m 0.0602,21.20731 6.6078,-2.31019 m -0.0717,21.21197 6.62419,-2.26278 m -0.24909,21.21943 6.64695,-2.19499 m -0.52382,21.23435 13.36882,-4.15628 m -7.78657,23.3596 6.77642,-1.75504 m -8.36421,20.4737 5.08925,4.8062 m -21.76532,6.04801 3.00701,6.32123 m -21.53903,1.17579 2.32692,6.60193 m -21.37727,-0.5205 3.91789,13.44062 m -23.22303,-8.21892 1.70875,6.78824 m -21.17409,-2.1978 1.50956,6.83529 m -21.09537,-2.78916 1.32087,6.87425 m -21.02019,-3.42556 1.0683,6.918 m -20.93134,-5.66213 -2.4585,13.78245 m -15.845638,-21.49669 -3.908117,5.80746 m -9.994072,-19.97539 -5.963391,3.66579 m 0.490076,-22.63781 -6.99996,0.0239 m 7.787981,-20.00723 -6.991348,-0.34793 m 8.050488,-19.62398 -13.978434,-0.77677 m 15.123844,-19.1904 -6.987863,-0.41203 m 8.191971,-19.55168 -6.986762,-0.4303 m 8.239404,-19.53043 -6.985757,-0.44632 m 8.282652,-19.51158 -6.984775,-0.46144 m 8.324495,-19.49364 -13.96754,-0.95279 m 15.350438,-18.99934 -6.982708,-0.49173 m 8.410508,-19.45723 -6.98155,-0.5079 m 8.457263,-19.43758 -6.980258,-0.52535 m 8.508289,-19.41619 -6.978781,-0.54462 m 8.56523,-19.39235 -13.954099,-1.13275 m 15.607316,-18.79879 -6.974961,-0.59154 m 8.706493,-19.33335 -6.972358,-0.62147 m 8.798622,-19.29495 -6.968977,-0.6583 m 8.914363,-19.24682 -6.964341,-0.70566 m 9.067613,-19.18337 -13.914951,-1.54083 m 16.244428,-18.32288 -6.945999,-0.86782 m 9.645216,-18.94868 -6.922039,-1.04181 m 10.430599,-18.64421 -6.832603,-1.52169 m 11.955483,-10.88204 0.0684,-13.99983 m 41.05386,-17.18802 c 15.12816,0.0243 156.52077,372.82744 156.47889,398.88746 -0.0419,26.06002 -135.76809,51.41652 -150.89625,51.39221 -15.12816,-0.0243 -42.6826,-15.26281 -42.64072,-41.32283 0.0419,-26.06002 21.92991,-408.98115 37.05808,-408.95684 l 0.0225,-13.999977 m 11.13012,30.239437 6.2163,-3.21833 m 2.52556,21.20499 6.34974,-2.94632 m 1.87358,21.17719 6.40601,-2.8219 m 1.5395,21.17575 6.43934,-2.74499 m 1.3215,21.17776 12.92481,-5.38046 m -5.30133,23.87049 6.47992,-2.64775 m 1.03371,21.1827 6.49411,-2.61277 m 0.92694,21.18499 6.50616,-2.5826 m 0.83351,21.18714 6.51682,-2.55559 m 0.74873,21.18919 13.05316,-5.06111 m -5.85734,23.72176 6.53581,-2.50665 m 0.59238,21.19323 6.54479,-2.48309 m 0.51575,21.19534 6.55382,-2.45915 m 0.43683,21.19762 6.5632,-2.43402 m 0.3527,21.20021 13.14658,-4.81324 m -6.31394,23.6099 6.58463,-2.37543 m 0.15063,21.20719 6.59804,-2.33791 m 0.0159,21.21262 6.61504,-2.28937 m -0.16685,21.22128 6.63889,-2.21925 m -0.45389,21.23857 13.35774,-4.19176 m -7.76262,23.39083 6.78311,-1.729 m -9.77873,20.0391 4.78844,5.10596 m -21.75578,5.33494 2.94163,6.35192 m -21.52069,1.03075 2.3037,6.61007 m -21.36769,-0.57087 3.90105,13.44552 m -23.20981,-8.23701 1.70713,6.78865 m -21.17238,-2.19772 1.51101,6.83497 m -21.09585,-2.78416 1.32193,6.87405 m -21.02272,-3.43433 1.05578,6.91992 m -20.90409,-6.16326 -3.00715,13.67322 m -15.0796,-21.90479 -4.05405,5.70655 m -9.40524,-20.28366 -6.09654,3.4398 m 1.42667,-22.62273 -6.99873,-0.13321 m 7.79059,-19.85064 -6.99214,-0.33162 m 8.0002,-19.64293 -13.98047,-0.73922 m 15.07123,-19.23101 -6.98898,-0.39267 m 8.13746,-19.57432 -6.98794,-0.41076 m 8.18472,-19.5534 -6.98697,-0.42677 m 8.22812,-19.53467 -6.98604,-0.44197 m 8.27033,-19.51675 -13.97012,-0.91415 m 15.29809,-19.04171 -6.98403,-0.47262 m 8.35757,-19.48016 -6.9829,-0.48905 m 8.40523,-19.4603 -6.98163,-0.50685 m 8.4574,-19.43862 -6.98017,-0.52657 m 8.51582,-19.41438 -13.95689,-1.0978 m 15.56124,-18.83774 -6.97635,-0.57485 m 8.66166,-19.354 -6.97373,-0.60587 m 8.75753,-19.3144 -6.97029,-0.64428 m 8.87889,-19.26439 -6.9655,-0.69412 m 9.04133,-19.19778 -13.91654,-1.52635 m 16.23616,-18.33849 -6.94581,-0.86934 m 9.67716,-18.9426 -6.9181,-1.06767 m 10.64076,-18.57614 -6.78794,-1.70993 m 11.10093,-7.38431 0.0225,-13.999977 M 196.0912,77.574295 c 15.12818,-0.0011 157.14758,369.804835 157.14953,395.671925 0.002,25.86709 -135.68143,51.26253 -150.80961,51.26367 -15.12818,0.001 -42.7082,-15.07848 -42.71015,-40.94557 -0.002,-25.86709 21.24205,-405.988883 36.37023,-405.990025 l -0.001,-13.999999 m 11.22722,30.188913 6.20221,-3.245398 m 2.61678,21.194359 6.33718,-2.97324 m 1.96287,21.1693 6.39414,-2.84869 m 1.62776,21.16929 6.4279,-2.77167 m 1.40901,21.17222 12.90256,-5.4336 m -5.20332,23.89222 6.46904,-2.67422 m 1.12003,21.17841 6.48344,-2.63912 m 1.01269,21.18116 6.49569,-2.60882 m 0.91868,21.18371 6.50654,-2.58166 m 0.83326,21.18614 13.03296,-5.11291 m -5.76341,23.74496 6.52589,-2.53234 m 0.67538,21.19088 6.53508,-2.50854 m 0.59773,21.19336 6.54434,-2.48429 m 0.51757,21.19603 6.55397,-2.45874 m 0.43178,21.19903 13.1288,-4.86154 m -6.22826,23.63337 6.57617,-2.39874 m 0.22403,21.20715 6.5902,-2.35994 m 0.0837,21.2135 6.60817,-2.30914 m -0.10929,21.22369 6.63384,-2.23431 m -0.42128,21.24458 13.35691,-4.19437 m -7.84893,23.4171 6.81091,-1.61601 m -12.54863,19.01707 4.32246,5.50603 m -21.73309,4.23576 2.81122,6.41069 m -21.49378,0.71045 2.2384,6.63246 m -21.34896,-0.74128 3.81791,13.46936 m -23.15378,-8.362 1.67657,6.79626 m -21.16039,-2.28464 1.48517,6.84064 m -21.08522,-2.86411 1.29422,6.87932 m -21.01329,-3.54778 0.99421,6.92904 m -20.78491,-7.28621 -3.90851,13.44334 m -13.72748,-22.61934 -4.33997,5.49224 m -8.18034,-20.85882 -6.33901,2.96935 m 3.10214,-22.47661 -6.9967,-0.21496 m 7.82907,-19.76752 -6.99218,-0.33079 m 7.99135,-19.64421 -13.98094,-0.7303 m 15.05739,-19.2407 -6.98928,-0.38729 m 8.12193,-19.58061 -6.98826,-0.40512 m 8.1689,-19.56 -6.98733,-0.42114 m 8.21257,-19.54129 -6.98638,-0.43649 m 8.2554,-19.5232 -13.97079,-0.90376 m 15.28444,-19.05305 -6.98435,-0.46781 m 8.34486,-19.48586 -6.9832,-0.48475 m 8.39415,-19.46541 -6.98189,-0.50321 m 8.44843,-19.44294 -6.98038,-0.52378 m 8.50959,-19.41766 -13.95715,-1.09448 m 15.55879,-18.84128 -6.97637,-0.5747 m 8.66412,-19.35394 -6.97356,-0.60785 m 8.76721,-19.31153 -6.96981,-0.64942 m 8.89968,-19.2572 -6.96448,-0.7043 m 9.08091,-19.1833 -13.91229,-1.56475 m 16.31052,-18.29067 -6.94086,-0.90801 m 9.85047,-18.87806 -6.9019,-1.16785 M 193.5858,80.797636 187.093,78.181627 m 8.9982,-0.607332 -0.001,-13.999999 m 49.51713,-0.713085 c 15.12815,-0.02625 157.75395,365.451509 157.79833,391.032339 0.0444,25.58083 -135.59715,50.92051 -150.72531,50.94676 -15.12816,0.0262 -42.73288,-14.84071 -42.77726,-40.42154 -0.0444,-25.58082 20.57608,-401.531312 35.70424,-401.557559 l -0.0243,-13.999978 m 11.34658,30.122175 6.18364,-3.280639 m 2.73555,21.180005 6.32068,-3.008166 m 2.0788,21.158542 6.37857,-2.88338 m 1.74216,21.16039 6.41291,-2.80617 m 1.52229,21.16455 12.87344,-5.50223 m -5.07643,23.91975 6.45483,-2.70835 m 1.2315,21.17235 6.46952,-2.67306 m 1.12331,21.17571 6.48204,-2.64256 m 1.02841,21.17881 6.49315,-2.61516 m 0.94204,21.18173 13.00668,-5.1794 m -5.64259,23.77428 6.51302,-2.56527 m 0.7818,21.18744 6.5225,-2.54108 m 0.70261,21.19041 6.53208,-2.51634 m 0.62048,21.1936 6.54212,-2.49012 m 0.5321,21.1972 13.10607,-4.92251 m -6.1202,23.66275 6.56546,-2.4279 m 0.3153,21.20699 6.58045,-2.387 m 0.16599,21.21473 6.59998,-2.33244 m -0.0445,21.22741 6.62872,-2.24945 m -0.40161,21.25481 13.36384,-4.17226 m -8.12663,23.46369 6.89187,-1.22561 m -16.83302,16.94399 3.79968,5.87899 m -21.6799,3.02008 2.63979,6.48318 m -21.45662,0.2801 2.14515,6.66321 m -21.3218,-0.98958 3.69187,13.50445 m -23.06873,-8.55437 1.62776,6.80812 m -21.14119,-2.4262 1.44187,6.84989 m -21.06735,-3.00104 1.2452,6.88835 m -20.9978,-3.76751 0.85334,6.94779 m -20.46214,-9.20893 -5.03446,13.06347 m -11.85159,-23.55846 -4.76941,5.12374 m -6.12801,-21.63962 -6.65291,2.17688 m 5.20702,-21.99453 -6.99516,-0.26002 m 7.86673,-19.7209 -6.99204,-0.33373 m 7.9926,-19.64121 -13.98105,-0.72823 m 15.05272,-19.24303 -6.9894,-0.38518 m 8.11552,-19.58309 -6.98841,-0.40273 m 8.16226,-19.56278 -6.98746,-0.41883 m 8.20648,-19.54398 -6.98651,-0.43448 m 8.25039,-19.52555 -13.971,-0.90064 m 15.28107,-19.0564 -6.98441,-0.46689 m 8.34344,-19.48687 -6.9832,-0.48468 m 8.39539,-19.4654 -6.98182,-0.5042 m 8.45312,-19.4416 -6.9802,-0.52617 m 8.5188,-19.41455 -13.95648,-1.103 m 15.57376,-18.83148 -6.9758,-0.58153 m 8.68795,-19.34503 -6.97264,-0.61834 m 8.80361,-19.29763 -6.96829,-0.66549 m 8.95603,-19.23542 -6.96188,-0.72961 m 9.17268,-19.14767 -13.90236,-1.65051 m 16.47349,-18.183048 -6.92915,-0.993424 m 10.26492,-18.723184 -6.8514,-1.434674 m 12.22669,-12.279069 -0.0243,-13.999978 m 51.55227,10.373751 c 15.12796,-0.08076 159.04468,360.151806 159.17948,385.401556 0.1348,25.24974 -135.41627,50.75348 -150.54423,50.83424 -15.12797,0.0808 -42.78506,-14.49376 -42.91986,-39.7435 -0.1348,-25.24974 19.15664,-396.411532 34.28461,-396.492296 l -0.0747,-13.999801 m 11.53605,30.023948 6.15602,-3.33217 m 2.91029,21.157456 6.29594,-3.059587 m 2.25022,21.14135 6.35515,-2.93463 m 1.9118,21.14597 6.39031,-2.85726 m 1.69064,21.15195 12.82943,-5.60409 m -4.88715,23.95943 6.4333,-2.7591 m 1.39776,21.16219 6.44841,-2.72362 m 1.28857,21.16646 6.46129,-2.6929 m 1.19264,21.17037 6.47275,-2.66526 m 1.10512,21.17405 12.96658,-5.27898 m -5.46074,23.8171 6.49333,-2.61469 m 0.94206,21.18117 6.50321,-2.59004 m 0.86099,21.18488 6.51324,-2.56471 m 0.77647,21.18888 6.5238,-2.53771 m 0.68489,21.19338 13.07077,-5.01546 m -5.95431,23.70651 6.54871,-2.47272 m 0.45658,21.20569 6.56501,-2.42911 m 0.29542,21.21559 6.58675,-2.36954 m 0.0609,21.23226 6.62001,-2.27498 m -0.36548,21.27103 13.375,-4.13637 m -9.2406,23.5649 6.8207,1.57418 m -20.99979,11.82173 3.37466,6.13283 m -21.61185,2.03874 2.48413,6.5444 m -21.41665,-0.10817 2.0601,6.68999 m -21.29401,-1.21246 3.58004,13.53452 m -22.99162,-8.72195 1.58565,6.81804 m -21.12392,-2.54808 1.404,6.85775 m -21.05235,-3.12783 1.19486,6.89727 m -20.99291,-4.11133 0.44752,6.98568 m -19.69254,-11.61351 -6.13203,12.58563 m -9.76179,-24.51193 -5.2634,4.61482 m -3.42727,-22.34101 -6.9032,1.16012 m 6.85365,-21.12791 -6.99476,-0.27082 m 7.85625,-19.71058 -6.99251,-0.32371 m 7.9589,-19.65291 -13.9824,-0.70181 m 15.01475,-19.27152 -6.99015,-0.37106 m 8.07556,-19.59947 -6.98921,-0.38843 m 8.12241,-19.57943 -6.98829,-0.40471 m 8.16753,-19.56049 -6.98735,-0.42078 m 8.21295,-19.54163 -13.97266,-0.87451 m 15.24655,-19.08487 -6.98521,-0.45467 m 8.31082,-19.50135 -6.98397,-0.47354 m 8.36631,-19.47862 -6.98252,-0.4945 m 8.42863,-19.45314 -6.98078,-0.51834 m 8.50043,-19.42383 -13.95732,-1.09239 m 15.56419,-18.84293 -6.97595,-0.57976 m 8.68993,-19.34664 -6.97233,-0.62175 m 8.82382,-19.29231 -6.96717,-0.67711 m 9.00662,-19.21853 -6.9591,-0.75568 m 9.28169,-19.10873 -13.8885,-1.76341 m 16.72228,-18.033674 -6.90647,-1.140467 m 11.32859,-18.337387 -6.53468,-2.509566 m 9.18475,-1.058302 -0.0747,-13.999801 m 51.31639,21.310189 c 15.12716,-0.175868 161.25769,355.014758 161.54787,379.974278 0.29018,24.95952 -135.10118,51.03142 -150.22834,51.20729 -15.12715,0.17587 -42.87337,-14.05607 -43.16355,-39.01558 -0.29017,-24.95952 16.71686,-391.99012 31.84402,-392.165988 l -0.16275,-13.999054 m 11.79601,29.899287 6.12064,-3.396716 m 3.13079,21.126611 6.26398,-3.124513 m 2.46782,21.117373 6.32473,-2.99963 m 2.12788,21.12553 6.36086,-2.92222 m 1.90562,21.13383 12.77194,-5.73389 m -4.64436,24.00795 6.40511,-2.82391 m 1.61093,21.14717 6.4207,-2.7883 m 1.50088,21.15261 6.43402,-2.75743 m 1.40401,21.15755 6.44588,-2.72959 m 1.31549,21.16219 12.91365,-5.40718 m -5.22507,23.87026 6.46727,-2.67849 m 1.14988,21.17115 6.47759,-2.65346 m 1.0671,21.1758 6.48812,-2.62762 m 0.98037,21.18082 6.49927,-2.59992 m 0.88579,21.18647 13.02315,-5.13784 m -5.7339,23.76218 6.52588,-2.53236 m 0.64644,21.20202 6.54363,-2.48615 m 0.47343,21.21467 6.56782,-2.42152 m 0.21351,21.23654 6.60635,-2.31433 m -0.29649,21.29157 13.38659,-4.09868 m -12.04221,23.25268 5.69828,4.06565 m -21.7787,7.53376 3.11758,6.26743 m -21.55428,1.4575 2.39011,6.57932 m -21.38613,-0.33061 2.01528,6.70363 m -21.27584,-1.31979 3.5333,13.54681 m -22.95737,-8.78462 1.57235,6.82112 m -21.11787,-2.5844 1.39244,6.86011 m -21.0501,-3.18028 1.16436,6.90249 m -21.00661,-4.83007 -0.67148,6.96772 m -18.12912,-13.36221 -6.97786,12.13711 m -7.9195,-25.25696 -5.68481,4.08448 m -0.81874,-22.68609 -6.99586,0.24075 m 7.46748,-20.23333 -6.99557,-0.24907 m 7.77652,-19.73564 -6.99391,-0.29213 m 7.8666,-19.68881 -13.98561,-0.63464 m 14.92103,-19.34347 -6.99189,-0.33691 m 7.9796,-19.63868 -6.99103,-0.35426 m 8.02685,-19.6189 -6.99017,-0.37076 m 8.07303,-19.5999 -6.98928,-0.38728 m 8.12004,-19.58072 -13.97662,-0.80879 m 15.15778,-19.15629 -6.98722,-0.42266 m 8.22284,-19.53913 -6.98599,-0.44262 m 8.28193,-19.51534 -6.98453,-0.46501 m 8.34897,-19.48838 -6.98277,-0.49076 m 8.42711,-19.45701 -13.96114,-1.04243 m 15.50163,-18.89813 -6.97769,-0.5585 m 8.63843,-19.37239 -6.97371,-0.60617 m 8.79283,-19.31086 -6.96778,-0.6709 m 9.01184,-19.22421 -6.95782,-0.76725 m 9.36419,-19.08697 -13.87427,-1.872062 m 17.04436,-17.871908 -6.86378,-1.374235 m 12.22994,-12.667803 -0.16275,-13.999054 m 49.37147,30.38676 c 15.12538,-0.291004 163.90599,351.216542 164.38269,375.994032 0.47671,24.77748 -134.71566,51.70342 -149.84104,51.99442 -15.12538,0.29101 -42.97711,-13.6249 -43.45381,-38.40239 -0.47671,-24.77748 13.78678,-389.295057 28.91216,-389.586062 l -0.2693,-13.997409 m 12.06776,29.775763 6.08544,-3.45941 m 3.34652,21.093928 6.2319,-3.18801 m 2.68177,21.09146 6.29409,-3.0634 m 2.34093,21.10312 6.33112,-2.98613 m 2.11804,21.11371 12.71374,-5.86181 m -4.4034,24.05347 6.37654,-2.88788 m 1.82228,21.1301 6.39255,-2.85226 m 1.71171,21.13668 6.40625,-2.82134 m 1.61429,21.14265 6.41847,-2.79343 m 1.52515,21.14822 12.85954,-5.53464 m -4.98908,23.92092 6.44058,-2.74207 m 1.35795,21.15898 6.45127,-2.71683 m 1.27409,21.16455 6.46221,-2.6907 m 1.18595,21.17055 6.47384,-2.66258 m 1.08944,21.17733 12.97351,-5.26194 m -5.50827,23.81643 6.50185,-2.59343 m 0.84276,21.19598 6.52077,-2.5455 m 0.66161,21.21124 6.54694,-2.47743 m 0.38339,21.23803 6.58984,-2.36093 m -0.19521,21.30923 13.39034,-4.08642 m -14.26186,22.74182 5.07764,4.81846 m -21.78205,5.99735 3.01259,6.31856 m -21.51878,1.24414 2.3644,6.5886 m -21.3708,-0.37041 2.01582,6.70347 m -21.27075,-1.29912 3.5581,13.54031 m -22.97125,-8.73365 1.59026,6.81697 m -21.12424,-2.52734 1.41044,6.85643 m -21.06125,-3.14094 1.16461,6.90244 m -21.00921,-5.48505 -1.14385,6.90591 m -17.36593,-14.14542 -7.44678,11.85518 m -6.78376,-25.67028 -5.92964,3.72013 m 0.80475,-22.74113 -6.99994,-0.0293 m 7.44347,-19.96533 -6.99693,-0.20741 m 7.65122,-19.78186 -6.99566,-0.24629 m 7.73572,-19.74001 -13.98955,-0.54102 m 14.79076,-19.44292 -6.99399,-0.28985 m 7.84722,-19.69194 -6.99325,-0.30721 m 7.89493,-19.67244 -6.9925,-0.32393 m 7.94194,-19.65352 -6.9917,-0.34076 m 7.99013,-19.6343 -13.98165,-0.71662 m 15.03192,-19.25578 -6.98983,-0.37714 m 8.09646,-19.59221 -6.98869,-0.39787 m 8.15811,-19.5679 -6.98731,-0.42125 m 8.22852,-19.54019 -6.98563,-0.44832 m 8.31123,-19.50768 -13.96696,-0.96127 m 15.3951,-18.98765 -6.98061,-0.52062 m 8.53865,-19.41855 -6.97655,-0.5725 m 8.70881,-19.35225 -6.97026,-0.64451 m 8.95716,-19.25634 -6.9591,-0.75561 m 9.37874,-19.09674 -13.86631,-1.93013 m 17.35036,-17.756147 -6.79803,-1.66937 m 10.87637,-6.850445 -0.2693,-13.997409 m 46.76149,37.213361 c 15.12289,-0.39988 166.4045,349.06771 167.05777,373.77399 0.65328,24.70627 -134.34351,52.53877 -149.4664,52.93864 -15.1229,0.39988 -43.07304,-13.27604 -43.72631,-37.98231 -0.65327,-24.70628 11.01204,-388.33045 26.13494,-388.73032 l -0.37006,-13.995112 m 12.29849,29.675562 6.05685,-3.50921 m 3.51904,21.06598 6.20567,-3.23877 m 2.85364,21.06897 6.26894,-3.11454 m 2.51254,21.08342 6.30664,-3.03748 m 2.28945,21.09585 12.66575,-5.9648 m -4.20813,24.08846 6.35291,-2.93946 m 1.99339,21.11467 6.36925,-2.90391 m 1.88265,21.12218 6.38324,-2.87304 m 1.78505,21.12895 6.39571,-2.84515 m 1.69571,21.13527 12.81451,-5.6381 m -4.79625,23.96041 6.41831,-2.79379 m 1.52795,21.14744 6.42926,-2.76852 m 1.44371,21.15372 6.44047,-2.74232 m 1.35506,21.1605 6.45242,-2.7141 m 1.25782,21.16813 12.9314,-5.36462 m -5.31988,23.85958 6.48127,-2.64445 m 1.00838,21.18908 6.50085,-2.59594 m 0.82408,21.2062 6.52812,-2.52659 m 0.53851,21.23626 6.57336,-2.40642 m -0.0701,21.31743 13.37744,-4.12843 m -15.06367,22.55273 4.90468,4.99441 m -21.74061,5.6472 3.00567,6.32186 m -21.5014,1.26811 2.38479,6.58124 m -21.36703,-0.28928 2.04574,6.6944 m -21.27448,-1.19751 3.6268,13.52207 m -23.01453,-8.61383 1.6267,6.80836 m -21.13739,-2.41399 1.44685,6.84884 m -21.07901,-3.03641 1.19281,6.89762 m -21.02802,-5.68117 -1.26549,6.88466 m -17.16265,-14.33994 -7.57199,11.7756 m -6.44759,-25.79389 -6.00477,3.59759 m 1.29064,-22.73451 -6.99999,-0.0145 m 7.32733,-19.98253 -6.99815,-0.16108 m 7.51774,-19.83214 -6.99718,-0.19866 m 7.60061,-19.79223 -13.99292,-0.44513 m 14.65701,-19.54383 -6.99582,-0.24183 m 7.71186,-19.74535 -6.9952,-0.25921 m 7.75984,-19.72616 -6.99456,-0.276 m 7.80727,-19.70747 -6.99387,-0.29297 m 7.856,-19.68844 -13.9862,-0.6214 m 14.90077,-19.35767 -6.99223,-0.32977 m 7.96391,-19.64661 -6.99121,-0.35079 m 8.02667,-19.62237 -6.98997,-0.37457 m 8.09855,-19.59467 -6.98843,-0.40219 m 8.18323,-19.56207 -13.97291,-0.87051 m 15.27286,-19.08717 -6.98377,-0.47635 m 8.41763,-19.47214 -6.97991,-0.52999 m 8.59468,-19.40462 -6.97379,-0.6051 m 8.85619,-19.30588 -6.96259,-0.72279 m 9.31061,-19.13801 -13.8699,-1.90417 m 17.45959,-17.75871 -6.7524,-1.8453 m 10.2492,-4.63709 -0.37006,-13.995112 m 44.05205,42.120892 c 15.12032,-0.48766 168.43767,348.38928 169.23503,373.11187 0.79736,24.7226 -134.03492,53.3585 -149.15524,53.84616 -15.12032,0.48766 -43.14977,-13.03773 -43.94713,-37.76033 -0.79735,-24.72259 8.74702,-388.71004 23.86734,-389.1977 l -0.45129,-13.99272 m 12.46547,29.60754 6.03746,-3.54246 m 3.63493,21.04626 6.18773,-3.27293 m 2.96975,21.0529 6.25166,-3.14908 m 2.62885,21.06922 6.28977,-3.07225 m 2.40593,21.08287 12.6326,-6.03467 m -4.07497,24.11132 6.33657,-2.97454 m 2.11011,21.10332 6.35309,-2.93909 m 1.99948,21.11143 6.36723,-2.90832 m 1.90199,21.11873 6.37986,-2.88052 m 1.81275,21.12554 12.78308,-5.70903 m -4.66337,23.98661 6.40272,-2.82935 m 1.64528,21.13861 6.41378,-2.80417 m 1.5612,21.14536 6.42513,-2.77808 m 1.47275,21.1526 6.4372,-2.74999 m 1.37581,21.16074 12.90124,-5.43671 m -5.18642,23.88883 6.46635,-2.68073 m 1.12738,21.18298 6.48611,-2.63255 m 0.9442,21.20099 6.51359,-2.56382 m 0.66114,21.23231 6.55906,-2.44515 m 0.0626,21.31509 13.34777,-4.22341 m -14.63352,22.73114 4.99474,4.90435 m -21.70671,5.92217 3.05803,6.2967 m -21.49585,1.43238 2.43112,6.56428 m -21.37002,-0.14317 2.09012,6.68068 m -21.28254,-1.05829 3.71397,13.49838 m -23.06986,-8.46609 1.67003,6.79786 m -21.15235,-2.27938 1.49054,6.83947 m -21.09751,-2.89944 1.23951,6.88939 m -21.0668,-5.45052 -1.17426,6.9008 m -17.3375,-14.14301 -7.43881,11.86019 m -6.75772,-25.7027 -5.95247,3.68349 m 0.96208,-22.74642 -6.99991,0.0356 m 7.20316,-20.03427 -6.99898,-0.11923 m 7.3997,-19.87673 -6.99824,-0.1572 m 7.48338,-19.8369 -13.99531,-0.36241 m 14.54128,-19.63013 -6.99713,-0.2005 m 7.59508,-19.79056 -6.99661,-0.21788 m 7.64313,-19.77166 -6.99607,-0.23465 m 7.69057,-19.75328 -6.99548,-0.25158 m 7.73929,-19.73458 -13.98964,-0.53853 m 14.78572,-19.44562 -6.99406,-0.28826 m 7.84704,-19.69353 -6.99317,-0.30921 m 7.90965,-19.66977 -6.99208,-0.33287 m 7.9813,-19.64264 -6.99072,-0.36033 m 8.06563,-19.61075 -13.9779,-0.78635 m 15.1572,-19.17882 -6.98654,-0.43394 m 8.29857,-19.52293 -6.98303,-0.48707 m 8.474,-19.45718 -6.97747,-0.56126 m 8.73214,-19.36139 -6.96719,-0.67695 m 9.17739,-19.19971 -13.88379,-1.80012 m 17.27726,-17.89922 -6.78342,-1.72779 m 10.40541,-5.40576 -0.45129,-13.99272 m 41.57628,45.72735 c 15.1181,-0.55224 169.96501,348.78455 170.87081,373.5817 0.9058,24.79716 -133.80013,54.08542 -148.91823,54.63766 -15.1181,0.55224 -43.20673,-12.8989 -44.11253,-37.69605 -0.9058,-24.79716 7.04186,-389.97107 22.15995,-390.52331 l -0.51105,-13.99067 m 12.57253,29.56883 6.02645,-3.56117 m 3.70067,21.03461 6.17739,-3.29239 m 3.03628,21.04332 6.24164,-3.16891 m 2.69586,21.0607 6.27994,-3.09231 m 2.47331,21.07503 12.6132,-6.07513 m -3.99757,24.12421 6.32697,-2.99491 m 2.17808,21.09637 6.34357,-2.95959 m 2.06774,21.10482 6.35778,-2.92894 m 1.97054,21.1124 6.37045,-2.90127 m 1.88163,21.11947 12.76434,-5.75079 m -4.58476,24.00165 6.39338,-2.85038 m 1.71494,21.13301 6.40447,-2.82537 m 1.63138,21.13997 6.41583,-2.7995 m 1.54362,21.14743 6.42789,-2.77168 m 1.44759,21.15581 12.88256,-5.48085 m -5.10397,23.90617 6.45693,-2.70335 m 1.20261,21.17846 6.47651,-2.65609 m 1.02327,21.19658 6.50357,-2.58914 m 0.74897,21.22756 6.54778,-2.47519 m 0.18506,21.30608 13.31028,-4.34012 m -13.42164,23.10413 5.26319,4.61506 m -21.66831,6.63272 3.14663,6.2529 m -21.49714,1.67923 2.49075,6.54187 m -21.37644,0.0337 2.14,6.66486 m -21.29214,-0.90694 3.80503,13.473 m -23.12746,-8.31374 1.71371,6.78699 m -21.16667,-2.14376 1.53471,6.82969 m -21.11418,-2.7548 1.29335,6.87948 m -21.10673,-4.96499 -0.93932,6.93669 m -17.75215,-13.6867 -7.14103,12.04184 m -7.46564,-25.46368 -5.81511,3.89673 m 0.0996,-22.74645 -6.99906,0.11439 m 7.08214,-20.11374 -6.99949,-0.0846 m 7.30399,-19.91311 -6.9989,-0.12411 m 7.39017,-19.87205 -13.99685,-0.29701 m 14.44957,-19.69786 -6.99798,-0.1679 m 7.50279,-19.82572 -6.99755,-0.18527 m 7.55077,-19.80707 -6.99708,-0.20195 m 7.59796,-19.78902 -6.99658,-0.21874 m 7.64629,-19.7707 -13.99202,-0.47245 m 14.69336,-19.51524 -6.99535,-0.25497 m 7.75274,-19.73068 -6.99457,-0.27557 m 7.81436,-19.70761 -6.99362,-0.29879 m 7.88467,-19.68134 -6.99242,-0.32565 m 7.96712,-19.65057 -13.98172,-0.71531 m 15.05789,-19.25569 -6.98872,-0.39718 m 8.19316,-19.56647 -6.98563,-0.44835 m 8.36154,-19.50418 -6.98073,-0.51908 m 8.60597,-19.41458 -6.97182,-0.6275 m 9.01655,-19.26702 -13.90146,-1.65812 m 16.94567,-18.10227 -6.84389,-1.47007 m 10.98811,-8.09944 -0.51105,-13.99067 m 39.38136,48.36803 c 15.11645,-0.59579 171.03371,349.93539 172.01546,374.84467 0.98175,24.90929 -133.63482,54.69816 -148.75126,55.29394 -15.11645,0.59579 -43.24635,-12.84134 -44.2281,-37.75063 -0.98175,-24.90928 5.84746,-391.7922 20.9639,-392.38798 l -0.55135,-13.98914 m 12.62952,29.55415 6.02227,-3.56824 m 3.72606,21.02987 6.17329,-3.30008 m 3.06279,21.03935 6.23757,-3.17688 m 2.72303,21.05711 6.2759,-3.10049 m 2.50096,21.0717 12.60515,-6.09181 m -3.96547,24.1294 6.32294,-3.0034 m 2.20655,21.09336 6.33953,-2.96821 m 2.09659,21.10191 6.35373,-2.93769 m 1.99979,21.10959 6.36639,-2.91016 m 1.91131,21.11673 12.75617,-5.76889 m -4.55049,24.00803 6.38926,-2.8596 m 1.74572,21.13039 6.40029,-2.83482 m 1.6629,21.13739 6.41158,-2.8092 m 1.57609,21.14487 6.42354,-2.78174 m 1.48135,21.15324 12.87355,-5.50195 m -5.06384,23.9141 6.45219,-2.71464 m 1.2412,21.17568 6.47137,-2.6686 m 1.06717,21.19337 6.49761,-2.60405 m 0.80477,21.22303 6.53975,-2.49634 m 0.28515,21.29442 13.27363,-4.45092 m -11.80674,23.49864 5.6843,4.08519 m -21.59073,7.78066 3.26145,6.19378 m -21.5026,1.98332 2.55778,6.51596 m -21.38468,0.22538 2.19133,6.64816 m -21.30216,-0.75477 3.89372,13.44763 m -23.18327,-8.16686 1.75494,6.77644 m -21.17956,-2.01605 1.5762,6.82023 m -21.12844,-2.61623 1.34653,6.86927 m -21.13178,-4.37988 -0.58245,6.97572 m -18.33317,-13.03435 -6.74191,12.26974 m -8.38436,-25.12055 -5.6214,4.17131 m -1.12201,-22.68368 -6.99241,0.32586 m 6.94274,-20.32459 -6.99977,-0.057 m 7.23032,-19.94168 -6.9993,-0.0992 m 7.32047,-19.89821 -13.99779,-0.24844 m 14.38143,-19.74787 -6.99852,-0.14378 m 7.43443,-19.85147 -6.99814,-0.16114 m 7.48227,-19.83299 -6.99774,-0.1777 m 7.52908,-19.81524 -6.9973,-0.19429 m 7.57679,-19.79731 -13.99361,-0.423 m 14.62381,-19.56706 -6.99623,-0.22988 m 7.68129,-19.75838 -6.99554,-0.25 m 7.74143,-19.73607 -6.99469,-0.2726 m 7.80975,-19.71078 -6.99363,-0.29861 m 7.8895,-19.6813 -13.98449,-0.65889 m 14.97777,-19.3164 -6.99036,-0.36726 m 8.10577,-19.60157 -6.98764,-0.41574 m 8.26444,-19.54339 -6.9834,-0.48184 m 8.49061,-19.46112 -6.97586,-0.58086 m 8.85765,-19.3299 -13.918,-1.51299 m 16.60881,-18.30149 -6.89099,-1.23056 m 11.69055,-11.9352 -0.55135,-13.98914 m 37.46197,50.42364 c 15.11538,-0.62225 171.72796,351.6198 172.75905,376.66613 1.03109,25.04633 -133.5275,55.20713 -148.64288,55.82938 -15.11538,0.62226 -43.2721,-12.84651 -44.30318,-37.89285 -1.03109,-25.04633 5.07163,-393.9804 20.18701,-394.60266 l -0.57585,-13.98815 m 12.64749,29.55799 6.02332,-3.56646 m 3.7207,21.0305 6.17399,-3.29877 m 3.05875,21.03978 6.23812,-3.17583 m 2.71975,21.05743 6.27633,-3.09962 m 2.49826,21.07194 12.60585,-6.09036 m -3.96805,24.12884 6.32322,-3.0028 m 2.20477,21.09348 6.33975,-2.96775 m 2.09525,21.10197 6.35388,-2.93737 m 1.99892,21.1096 6.36648,-2.90999 m 1.91095,21.11668 12.75618,-5.76886 m -4.55027,24.0079 6.38918,-2.85979 m 1.74664,21.1302 6.40011,-2.83523 m 1.66468,21.13711 6.41126,-2.80992 m 1.57897,21.14446 6.42306,-2.78284 m 1.48573,21.15266 12.87214,-5.50526 m -5.05659,23.91494 6.45115,-2.71712 m 1.25113,21.17446 6.46977,-2.67247 m 1.08313,21.1914 6.49499,-2.61057 m 0.83387,21.21917 6.53468,-2.50958 m 0.3597,21.28259 13.24224,-4.54344 m -10.0912,23.78687 6.23836,3.17535 m -21.37723,9.51067 3.40061,6.11848 m -21.51075,2.33982 2.63049,6.48694 m -21.39408,0.42775 2.24312,6.63087 m -21.31227,-0.60428 3.97888,13.42269 m -23.23661,-8.02718 1.7933,6.76639 m -21.1911,-1.89785 1.61434,6.8113 m -21.14067,-2.48819 1.39581,6.85943 m -21.13691,-3.81596 -0.0882,6.99944 m -19.06269,-12.19046 -6.27556,12.51469 m -9.40548,-24.70088 -5.39023,4.46603 m -2.52932,-22.52379 -6.9538,0.80295 m 6.66906,-20.79373 -6.99991,-0.0349 m 7.17475,-19.96428 -6.99953,-0.0811 m 7.27045,-19.91705 -13.99836,-0.21396 m 14.33316,-19.78324 -6.99885,-0.12677 m 7.38622,-19.86947 -6.99851,-0.14414 m 7.43391,-19.85111 -6.99815,-0.16058 m 7.48025,-19.83361 -6.99776,-0.17694 m 7.52724,-19.81604 -13.99463,-0.38767 m 14.57377,-19.60394 -6.9968,-0.21179 m 7.62942,-19.7782 -6.99617,-0.23137 m 7.68784,-19.75666 -6.99542,-0.25324 m 7.75388,-19.73236 -6.99447,-0.2783 m 7.83051,-19.7042 -13.98646,-0.61562 m 14.91536,-19.36278 -6.99155,-0.34371 m 8.03581,-19.62897 -6.98917,-0.38925 m 8.18388,-19.57497 -6.9855,-0.45039 m 8.39076,-19.50005 -6.97917,-0.53972 m 8.71467,-19.38445 -13.93167,-1.38153 m 16.31911,-18.47338 -6.92159,-1.04479 m 12.39119,-16.48772 -0.57585,-13.98815"
       inkscape:path-effect="#path-effect6694;#path-effect6701;#path-effect6703"
       inkscape:original-d="M 57.738931,704.43589 C 230.85824,480.53063 426.05194,389.1174 682.78936,667.09348 M 70.151447,251.94197 C 232.78301,3.0578608 430.29222,-8.0257453 664.97406,234.33858"
       inkscape:connector-curvature="0" />
  </g>
</svg>
