<?xml version="1.0" encoding="UTF-8" standalone="no"?>
<!-- Created with Inkscape (http://www.inkscape.org/) -->

<svg
   xmlns:dc="http://purl.org/dc/elements/1.1/"
   xmlns:cc="http://creativecommons.org/ns#"
   xmlns:rdf="http://www.w3.org/1999/02/22-rdf-syntax-ns#"
   xmlns:svg="http://www.w3.org/2000/svg"
   xmlns="http://www.w3.org/2000/svg"
   xmlns:xlink="http://www.w3.org/1999/xlink"
   xmlns:sodipodi="http://sodipodi.sourceforge.net/DTD/sodipodi-0.dtd"
   xmlns:inkscape="http://www.inkscape.org/namespaces/inkscape"
   width="210mm"
   height="297mm"
   viewBox="0 0 744.09448819 1052.3622047"
   id="svg2"
   version="1.1"
   inkscape:version="0.91 r13725"
   sodipodi:docname="fish.svg">
  <defs
     id="defs4">
    <linearGradient
       inkscape:collect="always"
       id="linearGradient8126">
      <stop
         style="stop-color:#d0e7fb;stop-opacity:1"
         offset="0"
         id="stop8128" />
      <stop
         style="stop-color:#005ba7;stop-opacity:1"
         offset="1"
         id="stop8130" />
    </linearGradient>
    <linearGradient
       inkscape:collect="always"
       id="linearGradient8118">
      <stop
         style="stop-color:#baeefa;stop-opacity:1;"
         offset="0"
         id="stop8120" />
      <stop
         style="stop-color:#ffffff;stop-opacity:1"
         offset="1"
         id="stop8122" />
    </linearGradient>
    <linearGradient
       inkscape:collect="always"
       id="linearGradient8104">
      <stop
         style="stop-color:#ffffff;stop-opacity:1"
         offset="0"
         id="stop8106" />
      <stop
         style="stop-color:#ffed00;stop-opacity:1"
         offset="1"
         id="stop8108" />
    </linearGradient>
    <linearGradient
       id="linearGradient8080-6"
       inkscape:collect="always">
      <stop
         id="stop8100"
         offset="0"
         style="stop-color:#ff002b;stop-opacity:1" />
      <stop
         id="stop8102"
         offset="1"
         style="stop-color:#ff85c8;stop-opacity:1" />
    </linearGradient>
    <linearGradient
       inkscape:collect="always"
       id="linearGradient8080">
      <stop
         style="stop-color:#ffe300;stop-opacity:1"
         offset="0"
         id="stop8082" />
      <stop
         style="stop-color:#ff8e00;stop-opacity:1"
         offset="1"
         id="stop8084" />
    </linearGradient>
    <radialGradient
       inkscape:collect="always"
       xlink:href="#linearGradient8080"
       id="radialGradient8086"
       cx="339.57565"
       cy="837.77905"
       fx="339.57565"
       fy="837.77905"
       r="236.06553"
       gradientTransform="matrix(1,0,0,0.55819336,0,373.23277)"
       gradientUnits="userSpaceOnUse" />
    <linearGradient
       inkscape:collect="always"
       xlink:href="#linearGradient8080-6"
       id="linearGradient8096"
       x1="268.43762"
       y1="427.79114"
       x2="51.558125"
       y2="108.9528"
       gradientUnits="userSpaceOnUse" />
    <radialGradient
       inkscape:collect="always"
       xlink:href="#linearGradient8104"
       id="radialGradient8116"
       cx="492.06409"
       cy="149.44356"
       fx="492.06409"
       fy="149.44356"
       r="136.35195"
       gradientTransform="matrix(0.66829975,-0.04477451,0.04866244,0.72633052,155.94549,62.930067)"
       gradientUnits="userSpaceOnUse" />
    <linearGradient
       inkscape:collect="always"
       xlink:href="#linearGradient8118"
       id="linearGradient8124"
       x1="354.50357"
       y1="3.9121089"
       x2="354.50357"
       y2="369.69598"
       gradientUnits="userSpaceOnUse" />
    <linearGradient
       inkscape:collect="always"
       xlink:href="#linearGradient8126"
       id="linearGradient8132"
       x1="401.4491"
       y1="574.92212"
       x2="401.4491"
       y2="1056.1138"
       gradientUnits="userSpaceOnUse" />
    <filter
       inkscape:collect="always"
       style="color-interpolation-filters:sRGB"
       id="filter4288"
       x="-0.14045703"
       width="1.2809141"
       y="-0.11035561"
       height="1.2207112">
      <feGaussianBlur
         inkscape:collect="always"
         stdDeviation="3.0548011"
         id="feGaussianBlur4290" />
    </filter>
    <filter
       inkscape:collect="always"
       style="color-interpolation-filters:sRGB"
       id="filter4426"
       x="-0.13898426"
       width="1.2779685"
       y="-0.10745073"
       height="1.2149015">
      <feGaussianBlur
         inkscape:collect="always"
         stdDeviation="3.4533287"
         id="feGaussianBlur4428" />
    </filter>
    <filter
       inkscape:collect="always"
       style="color-interpolation-filters:sRGB"
       id="filter4610"
       x="-0.18081456"
       width="1.3616291"
       y="-0.19405295"
       height="1.3881059">
      <feGaussianBlur
         inkscape:collect="always"
         stdDeviation="5.591178"
         id="feGaussianBlur4612" />
    </filter>
    <filter
       inkscape:collect="always"
       style="color-interpolation-filters:sRGB"
       id="filter4835"
       x="-0.045542638"
       width="1.0910853"
       y="-0.34267978"
       height="1.6853596">
      <feGaussianBlur
         inkscape:collect="always"
         stdDeviation="13.288407"
         id="feGaussianBlur4837" />
    </filter>
  </defs>
  <sodipodi:namedview
     id="base"
     pagecolor="#ffffff"
     bordercolor="#666666"
     borderopacity="1.0"
     inkscape:pageopacity="0.0"
     inkscape:pageshadow="2"
     inkscape:zoom="0.39245043"
     inkscape:cx="1262.0324"
     inkscape:cy="164.20169"
     inkscape:document-units="px"
     inkscape:current-layer="layer1"
     showgrid="false"
     inkscape:window-width="1920"
     inkscape:window-height="1019"
     inkscape:window-x="-9"
     inkscape:window-y="-9"
     inkscape:window-maximized="1" />
  <metadata
     id="metadata7">
    <rdf:RDF>
      <cc:Work
         rdf:about="">
        <dc:format>image/svg+xml</dc:format>
        <dc:type
           rdf:resource="http://purl.org/dc/dcmitype/StillImage" />
        <dc:title />
      </cc:Work>
    </rdf:RDF>
  </metadata>
  <g
     inkscape:label="Layer 1"
     inkscape:groupmode="layer"
     id="layer1">
    <rect
       style="fill:url(#linearGradient8124);fill-opacity:1;stroke:#000000;stroke-width:3;stroke-linecap:round;stroke-linejoin:round;stroke-miterlimit:4;stroke-dasharray:none;stroke-opacity:1"
       id="rect8088"
       width="751.12842"
       height="571.17053"
       x="1.9560635"
       y="-5.8681841" />
    <path
       style="fill:url(#linearGradient8132);fill-opacity:1;stroke:#000000;stroke-width:3;stroke-linecap:round;stroke-linejoin:round;stroke-miterlimit:4;stroke-dasharray:none;stroke-opacity:1"
       d="m 753.08445,1064.0986 -758.9526408,0 6.84622253,-574.10467 C 58.196778,485.40645 108.23114,520.9912 170.17753,475.32345 c 26.08084,-36.51318 15.64851,-57.37786 -31.29702,-62.59403 39.19016,-26.99694 73.88548,-36.76366 82.15467,54.76978 56.72585,60.48221 113.45169,24.9011 170.17754,0 23.7361,-40.89853 0.20584,-73.54976 -46.94553,-68.46223 34.68779,-25.71878 87.72232,-78.71814 93.89105,60.63797 70.80709,58.05139 110.11845,27.16636 133.01232,3.91213 19.3046,-19.60846 23.07791,-78.36347 -48.90158,-66.50616 50.31675,-26.00259 95.69329,-39.3802 99.75924,52.81371 38.07596,26.37082 60.5041,52.73179 126.16609,26.40687 z"
       id="rect8077"
       inkscape:connector-curvature="0"
       sodipodi:nodetypes="cccccccccscccc" />
    <path
       style="fill:url(#radialGradient8086);fill-rule:evenodd;stroke:#000000;stroke-width:6;stroke-linecap:butt;stroke-linejoin:miter;stroke-miterlimit:4;stroke-dasharray:none;stroke-opacity:1;fill-opacity:1"
       d="m 606.37971,780.46937 c -19.96058,-24.23784 -230.30154,224.46303 -346.22325,189.73817 -42.04203,-12.59387 -99.65929,-66.20398 -68.51948,-62.15757 38.31895,4.97929 86.46222,-24.83961 79.18288,-50.48715 -1.78598,-6.2926 -97.76188,22.66683 -100.69423,16.98307 -29.30734,-56.80638 16.77154,-122.75229 95.89902,-152.75843 107.44173,-40.74326 346.22325,148.66083 346.22325,148.66083 9.99592,-8.65851 31.24865,-55.72086 -5.86819,-89.97892 z"
       id="path8068"
       inkscape:connector-curvature="0"
       sodipodi:nodetypes="cssssscc" />
    <path
       style="fill:none;fill-rule:evenodd;stroke:#000000;stroke-width:3;stroke-linecap:butt;stroke-linejoin:miter;stroke-miterlimit:4;stroke-dasharray:none;stroke-opacity:1"
       d="m 299.27773,837.19521 c 14.00343,-22.85626 25.14365,-52.4801 52.81371,-43.0334 -0.022,12.01639 0.64748,24.3401 -10.75834,31.29702 12.03388,4.27644 13.07671,10.75109 12.22539,17.60457 -0.20239,15.56974 -8.32193,15.30516 -14.67047,18.58261 9.61723,2.79443 12.67194,10.27638 13.20342,19.56063 -24.32704,5.10564 -38.14325,-14.75195 -52.3247,-33.74209"
       id="path8070"
       inkscape:connector-curvature="0"
       sodipodi:nodetypes="ccccccc" />
    <ellipse
       style="fill:#000000;fill-opacity:1;stroke:none;stroke-width:3;stroke-linecap:round;stroke-linejoin:round;stroke-miterlimit:4;stroke-dasharray:none;stroke-opacity:1"
       id="path8072"
       cx="241.15886"
       cy="797.13019"
       rx="16.59775"
       ry="14.177245" />
    <ellipse
       style="fill:#ffffff;fill-opacity:1;stroke:none;stroke-width:3;stroke-linecap:round;stroke-linejoin:round;stroke-miterlimit:4;stroke-dasharray:none;stroke-opacity:1"
       id="path8074"
       cx="236.66364"
       cy="795.74701"
       rx="10.027807"
       ry="8.6446609" />
    <ellipse
       style="fill:#ffffff;fill-opacity:1;stroke:#000000;stroke-width:3;stroke-linecap:round;stroke-linejoin:round;stroke-miterlimit:4;stroke-dasharray:none;stroke-opacity:1"
       id="path8076"
       ry="20.055614"
       rx="21.438761"
       cy="684.43787"
       cx="186.00926" />
    <path
       cx="112.72639"
       cy="122.19664"
       rx="21.438761"
       ry="20.055614"
       id="path8078"
       style="fill:#ffffff;fill-opacity:1;stroke:#000000;stroke-width:3;stroke-linecap:round;stroke-linejoin:round;stroke-miterlimit:4;stroke-dasharray:none;stroke-opacity:1"
       d=""
       inkscape:connector-curvature="0" />
    <ellipse
       cx="149.62997"
       cy="589.9704"
       rx="12.49705"
       ry="11.690789"
       id="ellipse8080"
       style="fill:#ffffff;fill-opacity:1;stroke:#000000;stroke-width:1.74875557;stroke-linecap:round;stroke-linejoin:round;stroke-miterlimit:4;stroke-dasharray:none;stroke-opacity:1" />
    <ellipse
       style="fill:#ffffff;fill-opacity:1;stroke:#000000;stroke-width:1.281896;stroke-linecap:round;stroke-linejoin:round;stroke-miterlimit:4;stroke-dasharray:none;stroke-opacity:1"
       id="ellipse8082"
       ry="8.4663544"
       rx="9.2726154"
       cy="539.4856"
       cx="202.18602" />
    <path
       id="path4616"
       style="fill:#ffffff;fill-opacity:1;fill-rule:evenodd;stroke:none;stroke-width:3;stroke-linecap:butt;stroke-linejoin:miter;stroke-miterlimit:4;stroke-dasharray:none;stroke-opacity:1;filter:url(#filter4835)"
       d="m 594.0513,525.76905 c -63.61764,-49.01947 -105.82552,-20.48294 -146.70477,1.95606 -44.33717,24.33708 -92.31234,31.18573 -152.57296,-11.73638 -48.74326,-34.71859 -105.18552,-19.90295 -148.66083,3.91213 -41.25951,22.60129 -92.889211,36.52183 -118.72785,18.74719 30.934825,59.18114 82.56452,45.2606 123.82403,22.65931 43.47531,-23.81508 99.91757,-38.63072 148.66083,-3.91213 60.26062,42.92211 108.23579,36.07346 152.57296,11.73638 40.87925,-22.439 83.08713,-50.97553 146.70477,-1.95606 50.82125,39.15943 110.75494,17.49375 128.50817,-38.30782 -22.84941,14.39507 -82.7831,36.06075 -133.60435,-3.09868 z"
       inkscape:connector-curvature="0"
       sodipodi:nodetypes="sssscsssscs" />
    <path
       style="fill:none;fill-rule:evenodd;stroke:#000000;stroke-width:3;stroke-linecap:butt;stroke-linejoin:miter;stroke-miterlimit:4;stroke-dasharray:none;stroke-opacity:1"
       d="m 27.38489,534.13717 c 28.386732,38.47789 80.01643,24.55735 121.27594,1.95606 43.47531,-23.81508 99.91757,-38.63072 148.66083,-3.91213 60.26062,42.92211 108.23579,36.07346 152.57296,11.73638 40.87925,-22.439 83.08713,-50.97553 146.70477,-1.95606 50.82125,39.15943 110.75494,17.49375 131.05626,-17.60457"
       id="path8075"
       inkscape:connector-curvature="0"
       sodipodi:nodetypes="cssssc" />
    <path
       style="fill:url(#linearGradient8096);fill-opacity:1;stroke:#000000;stroke-width:3;stroke-linecap:round;stroke-linejoin:round;stroke-miterlimit:4;stroke-dasharray:none;stroke-opacity:1"
       d="M 161.2881,34.035139 A 154.52902,154.52902 0 0 0 35.209981,185.82615 154.52902,154.52902 0 0 0 189.73732,340.35545 154.52902,154.52902 0 0 0 308.25881,284.94139 149.63887,149.63887 0 0 1 265.04592,291.4531 149.63887,149.63887 0 0 1 115.40724,141.81443 149.63887,149.63887 0 0 1 161.2881,34.035139 Z"
       id="path8077"
       inkscape:connector-curvature="0" />
    <path
       sodipodi:type="star"
       style="fill:url(#radialGradient8116);fill-opacity:1;stroke:#000000;stroke-width:3;stroke-linecap:round;stroke-linejoin:round;stroke-miterlimit:4;stroke-dasharray:none;stroke-opacity:1"
       id="path8082"
       sodipodi:sides="5"
       sodipodi:cx="496.84014"
       sodipodi:cy="158.44115"
       sodipodi:r1="142.63177"
       sodipodi:r2="71.315887"
       sodipodi:arg1="0.83390378"
       sodipodi:arg2="1.4622223"
       inkscape:flatsided="false"
       inkscape:rounded="0"
       inkscape:randomized="0"
       d="M 592.68726,264.06858 504.568,229.3371 l -78.56712,52.90074 5.80125,-94.53902 -74.59017,-58.37454 91.70463,-23.69685 32.46786,-88.978189 50.87533,79.893559 94.65641,3.382997 -60.26195,73.073783 z"
       inkscape:transform-center-x="4.7760732"
       inkscape:transform-center-y="-8.9976069" />
    <path
       style="fill:#ffffff;fill-opacity:1;fill-rule:evenodd;stroke:none;stroke-width:1px;stroke-linecap:butt;stroke-linejoin:miter;stroke-opacity:1;filter:url(#filter4288);opacity:0.638"
       d="m 160.52983,408.33182 c -1.88125,-3.95667 6.06399,-6.1267 13.21823,-8.44055 9.67914,-2.65155 16.99709,0.4312 23.72911,4.93693 13.38524,12.56298 11.90764,22.37358 14.65153,32.96594 l 0.31851,19.74772 c -14.94464,-1.3102 -19.24729,4.47427 -27.23274,7.80353 l 3.02586,-31.85115 c -1.62141,-13.58513 -9.40591,-18.83198 -18.15515,-22.77358 z"
       id="path4166"
       inkscape:connector-curvature="0"
       sodipodi:nodetypes="ccccccccc" />
    <path
       style="fill:#ffffff;fill-opacity:1;fill-rule:evenodd;stroke:none;stroke-width:1px;stroke-linecap:butt;stroke-linejoin:miter;stroke-opacity:1;filter:url(#filter4426);opacity:0.528"
       d="m 370.90671,390.83301 c 6.01801,-4.75443 9.39092,-9.50884 20.181,-14.26327 7.35736,-1.31034 14.62322,-3.62731 22.76052,3.64169 6.96208,12.41512 13.16477,25.46306 15.32542,41.87936 l 1.36563,26.40221 c -8.80073,-3.16999 -17.60147,1.28712 -26.4022,3.79342 -2.14583,-15.37492 6.20662,-30.36102 -6.52469,-46.128 -5.12844,-9.15146 -16.08219,-12.06151 -26.70568,-15.32541 z"
       id="path4292"
       inkscape:connector-curvature="0"
       sodipodi:nodetypes="cccccccc" />
    <path
       style="fill:#ffffff;fill-rule:evenodd;stroke:none;stroke-width:1px;stroke-linecap:butt;stroke-linejoin:miter;stroke-opacity:1;fill-opacity:1;filter:url(#filter4610);opacity:0.573"
       d="m 543.22147,391.92848 c 16.83135,-2.24882 28.24328,-17.82936 48.89153,-5.57395 13.20922,16.53542 21.87933,35.43571 25.32167,60.03942 -11.86968,-2.67477 -22.29615,0.42331 -32.48818,4.45917 11.01488,-34.19122 2.40737,-56.12494 -41.72502,-58.92464 z"
       id="path4432"
       inkscape:connector-curvature="0"
       sodipodi:nodetypes="ccccc" />
  </g>
</svg>
