<?xml version="1.0" encoding="UTF-8" standalone="no"?>
<!-- Created with Inkscape (http://www.inkscape.org/) -->

<svg
   xmlns:dc="http://purl.org/dc/elements/1.1/"
   xmlns:cc="http://creativecommons.org/ns#"
   xmlns:rdf="http://www.w3.org/1999/02/22-rdf-syntax-ns#"
   xmlns:svg="http://www.w3.org/2000/svg"
   xmlns="http://www.w3.org/2000/svg"
   xmlns:sodipodi="http://sodipodi.sourceforge.net/DTD/sodipodi-0.dtd"
   xmlns:inkscape="http://www.inkscape.org/namespaces/inkscape"
   width="500"
   height="500"
   viewBox="0 0 500 500"
   version="1.1"
   id="svg8"
   inkscape:version="0.92.2 5c3e80d, 2017-08-06"
   sodipodi:docname="Globe.svg">
  <defs
     id="defs2" />
  <sodipodi:namedview
     id="base"
     pagecolor="#ffffff"
     bordercolor="#666666"
     borderopacity="1.0"
     inkscape:pageopacity="0.0"
     inkscape:pageshadow="2"
     inkscape:zoom="1.750474"
     inkscape:cx="250"
     inkscape:cy="250"
     inkscape:document-units="px"
     inkscape:current-layer="layer1"
     showgrid="false"
     units="px"
     borderlayer="false"
     inkscape:showpageshadow="false"
     inkscape:window-width="1440"
     inkscape:window-height="851"
     inkscape:window-x="0"
     inkscape:window-y="1"
     inkscape:window-maximized="1"
     inkscape:snap-global="false" />
  <metadata
     id="metadata5">
    <rdf:RDF>
      <cc:Work
         rdf:about="">
        <dc:format>image/svg+xml</dc:format>
        <dc:type
           rdf:resource="http://purl.org/dc/dcmitype/StillImage" />
        <dc:title></dc:title>
      </cc:Work>
    </rdf:RDF>
  </metadata>
  <g
     inkscape:label="Layer 1"
     inkscape:groupmode="layer"
     id="layer1"
     transform="translate(0,-164.70831)">
    <g
       id="g982"
       transform="translate(20.664491,-1.788325)">
      <circle
         r="118.73041"
         cy="369.6456"
         cx="241.77115"
         id="path913"
         style="opacity:1;fill:#5d9ce2;fill-opacity:1;fill-rule:evenodd;stroke:none;stroke-width:2;stroke-linecap:butt;stroke-linejoin:miter;stroke-miterlimit:4;stroke-dasharray:none;stroke-opacity:1" />
      <path
         inkscape:connector-curvature="0"
         id="path915"
         d="m 176.72223,310.14778 c 0.46903,6.68706 2.45094,12.60217 7.73546,16.33029 1.7458,1.23161 5.47379,0.40199 7.6531,1.93944 5.34052,3.76761 3.57524,7.9901 5.78864,11.00299 4.42384,6.02177 8.95506,4.34066 13.31663,7.41764 0.76179,0.53743 3.80371,12.45385 6.08155,13.18658 1.55035,0.49869 4.9237,1.00236 5.75814,1.59106 2.15019,1.51691 3.39345,-1.55987 4.17749,-1.00674 1.3089,0.9234 6.87708,9.12631 4.64737,11.68054 -1.83159,2.09817 -1.92585,6.61466 -4.82747,9.9386 -2.11128,2.41856 -8.07837,2.32645 -9.88375,4.39459 -3.43971,3.94034 2.12411,12.35832 1.05577,17.05447 -1.15134,5.06095 -6.72251,8.13062 -8.712,13.12893 -1.82128,4.57565 -0.35157,39.29053 2.45633,41.27144 2.795,1.9718 8.11536,2.42486 10.52149,4.95149 2.1838,2.29317 2.93959,5.4645 5.34921,7.7276 1.42333,1.33677 4.95833,1.841 5.97784,3.22877 3.45927,4.70876 18.11465,12.8203 23.47196,9.63965 5.40071,-3.20645 5.09859,-9.61942 8.10475,-13.0631 0.5584,-0.63967 3.3619,-0.70226 4.10424,-1.55264 2.67429,-3.06352 3.85846,-6.93919 6.64921,-10.13611 1.15058,-1.31805 1.19045,-5.2329 1.55016,-6.81411 0.58138,-2.55557 1.97062,-3.49109 2.91112,-5.85398 0.91018,-2.28665 -5.59186,-34.38427 -6.65517,-35.83168 -2.7613,-3.75868 -4.75227,-8.91637 -8.43731,-12.37733 -1.43399,-1.34679 -1.17909,-3.30297 -2.40761,-4.16966 -5.27812,-3.7236 -17.38766,-14.80203 -18.1837,-20.73588 -0.41734,-3.11088 -5.79738,-8.78669 -3.06672,-9.08274 0.48026,-0.0521 7.74396,-4.42146 10.78393,-2.27683 3.67684,2.59392 6.55693,4.13151 10.13394,6.65502 1.98463,1.40011 3.3315,4.72802 5.66353,5.47817 3.49187,1.12325 12.18531,2.41574 14.72033,-0.48825 8.26099,-9.4633 -9.95985,-22.34763 -15.19934,-26.04396 -2.13574,-1.50672 -2.57988,-12.09051 -1.97732,-14.73922 0.80489,-3.53803 13.11549,-16.28393 16.40785,-20.0555 3.0134,-3.45196 1.19184,-8.83339 2.63956,-12.47057 1.16903,-2.93701 1.53917,-6.1717 3.22543,-8.1034 0.41092,-0.47072 -0.28523,-4.82091 -0.12509,-5.5248 1.984,-8.72107 3.09259,-11.85391 -1.88271,-18.62633 -1.76054,-2.39645 -1.58681,-4.42798 -5.05629,-5.54402 -11.81698,-3.8012 -28.79022,3.40134 -42.80005,2.4249 -7.06487,-0.4924 -12.77057,-4.56746 -19.77661,-5.05576 -20.21259,-1.40874 -26.5318,11.03703 -40.52978,19.34771 -1.42243,0.84449 -3.99435,0.30864 -5.39198,1.13841 -0.81909,0.48629 -9.95965,6.77495 -10.12482,7.18991 -2.12049,5.32741 -0.51665,17.8545 4.45816,19.45477 0.7259,0.23351 4.51389,0.21905 5.00442,0.5651 1.89794,1.33896 1.46905,2.45081 4.69011,2.81454 z"
         style="color:#000000;clip-rule:nonzero;display:inline;overflow:visible;visibility:visible;opacity:1;isolation:auto;mix-blend-mode:normal;color-interpolation:sRGB;color-interpolation-filters:linearRGB;solid-color:#000000;solid-opacity:1;fill:#00d400;fill-opacity:1;fill-rule:evenodd;stroke:#000000;stroke-width:1.88976383;stroke-linecap:round;stroke-linejoin:round;stroke-miterlimit:2;stroke-dasharray:none;stroke-dashoffset:0;stroke-opacity:1;color-rendering:auto;image-rendering:auto;shape-rendering:auto;text-rendering:auto;enable-background:accumulate" />
      <rect
         transform="rotate(-7.1379787)"
         y="269.17874"
         x="185.25203"
         height="8.8665428"
         width="7.9093595"
         id="rect917"
         style="opacity:1;fill:#2d5016;fill-opacity:1;fill-rule:evenodd;stroke:none;stroke-width:1.88976371;stroke-linecap:butt;stroke-linejoin:miter;stroke-miterlimit:2;stroke-dasharray:none;stroke-opacity:1" />
      <rect
         style="opacity:1;fill:#2d5016;fill-opacity:1;fill-rule:evenodd;stroke:none;stroke-width:1.88976371;stroke-linecap:butt;stroke-linejoin:miter;stroke-miterlimit:2;stroke-dasharray:none;stroke-opacity:1"
         id="rect919"
         width="7.9093595"
         height="8.8665428"
         x="195.98764"
         y="515.6991"
         transform="rotate(-7.1379787)" />
      <path
         inkscape:connector-curvature="0"
         id="path931"
         d="m 211.16265,236.13715 c -66.18076,10.3964 -118.481458,76.26804 -112.531246,143.19813 3.219646,59.37076 49.390856,114.30736 108.267906,125.19247 21.30979,4.60324 43.66484,3.64866 64.6823,-2.13884 l -1.59008,-9.81144 c -30.34361,8.44144 -63.92132,5.54163 -92.09942,-8.79756 -44.45855,-21.45202 -72.25396,-71.24911 -69.3327,-120.2224 2.11838,-56.97337 48.11095,-108.35059 104.21051,-117.5761 5.60756,-0.9803 11.27959,-1.57368 16.96668,-1.79401 l -1.60883,-9.92712 c -0.3209,0.0227 -0.64135,0.0317 -0.96226,0.057 -5.36378,0.29421 -10.7098,0.90107 -16.00287,1.81985 z"
         style="opacity:1;fill:#2d5016;fill-opacity:1;fill-rule:evenodd;stroke:none;stroke-width:2;stroke-linecap:butt;stroke-linejoin:miter;stroke-miterlimit:4;stroke-dasharray:none;stroke-opacity:1" />
      <path
         sodipodi:nodetypes="ccccc"
         inkscape:connector-curvature="0"
         id="rect947"
         d="m 128.30914,534.47131 c 72.24291,-18.32945 143.96177,-19.36488 215.06243,0 v 64.26168 H 128.30914 Z"
         style="opacity:1;fill:#2d5016;fill-opacity:1;fill-rule:evenodd;stroke:none;stroke-width:1.88976383;stroke-linecap:butt;stroke-linejoin:miter;stroke-miterlimit:2;stroke-dasharray:none;stroke-opacity:1" />
      <rect
         y="507.05298"
         x="225.34428"
         height="14.13757"
         width="20.992149"
         id="rect950"
         style="opacity:1;fill:#2d5016;fill-opacity:1;fill-rule:evenodd;stroke:none;stroke-width:1.88976383;stroke-linecap:butt;stroke-linejoin:miter;stroke-miterlimit:2;stroke-dasharray:none;stroke-opacity:1" />
      <path
         sodipodi:nodetypes="ccccc"
         inkscape:connector-curvature="0"
         id="rect954"
         d="m 149.72971,539.32788 c 57.4071,-6.79508 114.81419,-6.91387 172.22129,0 v 48.41047 H 149.72971 Z"
         style="opacity:1;fill:#d5c446;fill-opacity:1;fill-rule:evenodd;stroke:none;stroke-width:1.88976371;stroke-linecap:butt;stroke-linejoin:miter;stroke-miterlimit:2;stroke-dasharray:none;stroke-opacity:1" />
      <g
         transform="translate(-0.85683433)"
         id="g968">
        <circle
           style="opacity:1;fill:#ffff00;fill-opacity:1;fill-rule:evenodd;stroke:none;stroke-width:1.88976383;stroke-linecap:butt;stroke-linejoin:miter;stroke-miterlimit:2;stroke-dasharray:none;stroke-opacity:1"
           id="path959"
           cx="184.64523"
           cy="563.17487"
           r="13.709159" />
        <circle
           r="13.709159"
           cy="563.17487"
           cx="236.69719"
           id="circle961"
           style="opacity:1;fill:#ffff00;fill-opacity:1;fill-rule:evenodd;stroke:none;stroke-width:1.88976383;stroke-linecap:butt;stroke-linejoin:miter;stroke-miterlimit:2;stroke-dasharray:none;stroke-opacity:1" />
        <circle
           style="opacity:1;fill:#ffff00;fill-opacity:1;fill-rule:evenodd;stroke:none;stroke-width:1.88976383;stroke-linecap:butt;stroke-linejoin:miter;stroke-miterlimit:2;stroke-dasharray:none;stroke-opacity:1"
           id="circle963"
           cx="288.74915"
           cy="563.17487"
           r="13.709159" />
      </g>
    </g>
  </g>
</svg>
