<?xml version="1.0" encoding="UTF-8" standalone="no"?>
<!-- Created with Inkscape (http://www.inkscape.org/) -->

<svg
   xmlns:dc="http://purl.org/dc/elements/1.1/"
   xmlns:cc="http://creativecommons.org/ns#"
   xmlns:rdf="http://www.w3.org/1999/02/22-rdf-syntax-ns#"
   xmlns:svg="http://www.w3.org/2000/svg"
   xmlns="http://www.w3.org/2000/svg"
   xmlns:sodipodi="http://sodipodi.sourceforge.net/DTD/sodipodi-0.dtd"
   xmlns:inkscape="http://www.inkscape.org/namespaces/inkscape"
   width="210mm"
   height="297mm"
   viewBox="0 0 744.09448819 1052.3622047"
   id="svg4151"
   version="1.1"
   inkscape:version="0.91 r13725"
   sodipodi:docname="Hatches rough.svg">
  <defs
     id="defs4153">
    <inkscape:path-effect
       effect="rough_hatches"
       id="path-effect4161"
       is_visible="true"
       direction="442.73107,484.87076 , 9.8738594,39.495434"
       dist_rdm="75;1"
       growth="0"
       do_bend="true"
       bender="394.31731,493.6929 , 82.716821,-5.096185"
       bottom_edge_variation="88.291405;1"
       top_edge_variation="88.291405;1"
       bottom_tgt_variation="0;1"
       top_tgt_variation="0;1"
       scale_bf="1"
       scale_bb="1"
       scale_tf="1"
       scale_tb="1"
       top_smth_variation="0;1"
       bottom_smth_variation="0;1"
       fat_output="true"
       stroke_width_top="1"
       stroke_width_bottom="1"
       front_thickness="1"
       back_thickness="0.25" />
  </defs>
  <sodipodi:namedview
     id="base"
     pagecolor="#ffffff"
     bordercolor="#666666"
     borderopacity="1.0"
     inkscape:pageopacity="0.0"
     inkscape:pageshadow="2"
     inkscape:zoom="0.78490086"
     inkscape:cx="372.04724"
     inkscape:cy="526.1811"
     inkscape:document-units="px"
     inkscape:current-layer="layer1"
     showgrid="false"
     inkscape:window-width="1920"
     inkscape:window-height="1019"
     inkscape:window-x="-9"
     inkscape:window-y="-9"
     inkscape:window-maximized="1" />
  <metadata
     id="metadata4156">
    <rdf:RDF>
      <cc:Work
         rdf:about="">
        <dc:format>image/svg+xml</dc:format>
        <dc:type
           rdf:resource="http://purl.org/dc/dcmitype/StillImage" />
        <dc:title></dc:title>
      </cc:Work>
    </rdf:RDF>
  </metadata>
  <g
     inkscape:label="Layer 1"
     inkscape:groupmode="layer"
     id="layer1">
    <path
       style="fill:none;fill-rule:evenodd;stroke:#000000;stroke-width:1px;stroke-linecap:butt;stroke-linejoin:miter;stroke-opacity:1"
       d="m 325.85917,950.56105 c 0,0 -9.31349,2.42483 -9.55161,-2.70904 -0.2554,-5.50639 -15.47148,-1.75861 -23.06292,-6.23071 -8.05522,-4.74532 -2.97087,-5.99319 -3.25836,-12.33114 -0.30438,-6.71037 -45.75027,4.5083 -47.59122,3.423 -2.28702,-1.34826 55.29042,-15.5795 55.0962,-19.83034 -0.21177,-4.63469 -59.9687,10.12898 -66.38491,6.34733 -6.81806,-4.01849 125.12019,-36.69695 124.81775,-42.98349 -0.32234,-6.70027 -87.95018,14.97534 -95.95057,10.26813 -8.43366,-4.96214 65.11239,-23.17433 64.9837,-25.91855 -0.12917,-2.75465 -109.31306,23.49312 -109.27558,21.46808 0.0574,-3.10056 85.15993,-23.51989 84.92534,-28.62796 -0.22264,-4.84758 -108.43505,21.27423 -108.39078,18.99989 0.0669,-3.43402 102.49642,-27.87571 102.26975,-32.8349 -0.21178,-4.63377 -107.44435,21.40021 -107.33048,15.61519 0.13382,-6.79826 93.69103,-29.21043 93.42785,-35.03546 -0.24993,-5.53185 -105.95133,20.05227 -105.91163,18.08762 0.0761,-3.76454 168.77627,-43.32115 168.64167,-46.13922 -0.081,-1.6957 -105.16789,23.57225 -105.15806,23.0151 0.0311,-1.76342 101.59129,-26.06265 101.34179,-31.30143 -0.2327,-4.88618 -104.5178,20.37065 -104.47721,18.08776 0.0575,-3.23496 78.62,-22.17345 78.50112,-24.72507 -0.10692,-2.29505 -103.72873,22.66407 -103.71785,22.08578 0.0371,-1.97488 126.16936,-31.96289 126.03262,-34.84071 -0.10674,-2.24653 -103.24595,22.59957 -103.24087,22.3153 0.024,-1.34038 84.46489,-21.67746 84.29782,-25.25071 -0.1596,-3.41357 -102.74065,21.56301 -102.62349,15.27868 0.13283,-7.12478 72.79953,-24.71937 72.61954,-28.66952 -0.17652,-3.87368 -101.39728,20.77571 -101.28765,15.2449 0.13351,-6.73598 116.45475,-34.45258 116.22301,-39.46674 -0.22409,-4.8487 -104.80391,21.20533 -105.23326,20.57147 -0.56857,-0.83939 141.35028,-36.28972 141.12347,-41.04392 -0.25093,-5.25966 -111.18663,22.38688 -113.58619,18.85278 -2.54674,-3.75084 129.10068,-36.64981 128.96459,-39.46319 -0.16078,-3.32388 -118.96932,26.32791 -120.03443,24.76085 -1.20958,-1.7796 121.70578,-32.49443 121.53845,-35.94776 -0.19173,-3.95693 -125.09955,27.23056 -126.36654,25.36674 -1.43454,-2.1103 80.50789,-22.55597 80.18185,-29.55404 -0.34779,-7.46516 -135.55558,26.29826 -136.08462,25.51769 -0.64143,-0.94638 158.5138,-40.79024 158.42387,-42.68237 -0.11635,-2.44802 -138.76371,32.19868 -142.36332,26.89562 -3.70492,-5.45819 154.09033,-44.99673 153.92985,-48.33717 -0.18828,-3.9194 -149.49021,33.44226 -150.5348,31.90458 -1.13572,-1.67181 160.24774,-42.12566 159.95229,-48.22315 -0.3234,-6.67448 -158.55156,32.91952 -161.75627,28.20517 -3.30374,-4.86001 151.49432,-43.68781 151.16803,-50.47605 -0.35477,-7.38069 -172.22359,35.68663 -173.97702,33.10564 -1.80904,-2.66286 186.73557,-50.02868 186.67269,-51.32206 -0.0951,-1.95668 -177.00122,42.43743 -178.45978,40.29236 -1.53429,-2.25645 150.28901,-40.35152 150.23644,-41.45886 -0.0818,-1.72306 -181.26401,43.75815 -182.41272,42.06568 -1.23559,-1.82046 129.49979,-34.5994 129.38801,-37.06678 -0.13854,-3.05788 -186.503927,43.71472 -188.726976,40.42804 -1.179521,-1.74387 57.506326,-17.399 116.395326,-33.15683 58.89927,-15.76057 117.99818,-31.62296 117.89505,-33.80734 -0.11207,-2.37387 -48.99926,8.63569 -98.2566,19.70168 -49.25584,11.06565 -98.88226,22.1878 -100.34614,20.03008 -3.07013,-4.5253 162.05165,-46.02287 161.9819,-47.54794 -0.0464,-1.01521 -50.8004,11.15123 -101.91078,23.09339 -51.10716,11.94141 -102.5655,23.65746 -103.870472,21.72943 -1.415894,-2.09191 56.488082,-17.76961 114.651392,-33.53653 58.17378,-15.76976 116.60365,-31.62792 116.48761,-34.10697 -0.12493,-2.66877 -53.45784,9.31511 -106.71094,21.32811 -53.25135,12.0126 -106.423722,24.05447 -106.07723,21.491 0.373266,-2.76157 64.24548,-20.05328 127.92057,-37.06378 63.68798,-17.01394 127.18525,-33.74819 127.10371,-35.42626 -0.0908,-1.86787 -51.18992,9.97262 -101.9498,21.81123 -50.75681,11.83789 -101.17545,23.67416 -99.75512,21.78599 3.25705,-4.32991 152.42804,-41.50038 152.32267,-43.76264 -0.0598,-1.28488 -48.40486,10.16254 -96.13266,21.08719 -47.72637,10.92432 -94.82554,21.32385 -92.2697,17.93433 5.56417,-7.37909 190.10521,-53.33438 189.78497,-60.19596 -0.32942,-7.05824 -168.90006,35.01075 -166.81096,32.23991 2.59826,-3.44617 190.94601,-50.38253 190.61376,-57.34876 -0.34268,-7.18505 -150.14411,30.26091 -145.17626,23.66379 5.42145,-7.19948 151.30757,-43.62443 150.9658,-50.74711 -0.35534,-7.40526 -124.99242,23.79751 -120.48611,17.81121 4.91452,-6.52857 103.99824,-31.3186 103.71467,-37.30925 -0.29907,-6.31817 -102.92853,19.39129 -101.9665,18.11431 1.37376,-1.82351 112.53144,-29.64034 112.31234,-34.22487 -0.23499,-4.91697 -91.07753,17.87073 -85.33067,10.23824 6.11208,-8.11756 25.30019,-12.94446 25.07538,-17.90355 -0.24214,-5.34125 -68.47531,11.78284 -66.20538,8.77698 2.68959,-3.56159 142.15631,-38.48097 142.02861,-41.11349 -0.14323,-2.95258 -57.73937,11.52735 -51.5873,3.34963 6.51143,-8.6554 43.49164,-17.95781 43.1435,-25.17974 -0.36729,-7.61914 -30.0144,-0.14035 -24.16457,-7.91347 6.19877,-8.23679 -41.16507,3.67103 -41.39804,-1.44639 -0.25102,-5.5138 -10.95384,-2.81072 -10.62899,-3.55972 0.51909,-1.19688 54.7262,-14.81346 54.42455,-21.18051 -0.31995,-6.75336 -3.06561,-6.03165 0.26107,-13.73291 0,0 -0.96026,0.24192 -0.96026,0.24192 -3.83223,8.87086 -0.53266,8.00713 -0.26162,13.73295 0.28924,6.11028 -53.77937,19.69145 -54.42526,21.18055 -0.83071,1.9152 10.42484,-0.92477 10.62882,3.55973 0.22107,4.86023 47.83814,-7.11084 41.39788,1.44641 -6.81572,9.05614 23.84666,1.32071 24.1642,7.91349 0.33548,6.96503 -36.39197,16.20448 -43.14439,25.17979 -7.11674,9.45956 51.49385,-5.27771 51.5873,-3.34963 0.11516,2.37582 -139.09878,37.23235 -142.0299,41.11357 -3.23606,4.28502 66.01011,-13.09239 66.20557,-8.77699 0.21299,4.70247 -18.72328,9.46679 -25.07603,17.90359 -6.70995,8.91115 85.14496,-14.13152 85.33087,-10.23825 0.20668,4.32842 -110.69915,32.08225 -112.31343,34.22493 -1.92306,2.55253 101.71663,-23.40754 101.96697,-18.11433 0.27122,5.73449 -98.56128,30.46212 -103.7159,37.30932 -5.46632,7.26126 120.18054,-24.19333 120.48652,-17.81124 0.32922,6.86675 -145.30615,43.2296 -150.96744,50.74722 -5.92692,7.87034 144.88315,-29.82682 145.17685,-23.66383 0.31979,6.71072 -187.77749,53.5848 -190.61558,57.34887 -3.04729,4.04153 166.53036,-38.27594 166.81183,-32.23996 0.30805,6.60603 -183.98321,52.4997 -189.7869,60.19608 -3.03483,4.02455 44.0746,-6.1195 91.92861,-17.07539 47.85515,-10.95615 96.43879,-22.72088 96.47484,-21.9462 0.0934,2.0069 -148.82837,39.11583 -152.32404,43.76272 -1.89767,2.52264 48.53211,-9.05834 99.41643,-20.92774 50.88717,-11.87007 102.2238,-24.02753 102.28973,-22.66955 0.0753,1.55059 -63.4139,18.21839 -127.096,35.23086 -63.66922,17.00903 -127.539162,34.36459 -127.930539,37.25932 -0.418604,3.09609 52.764529,-8.69073 106.041669,-20.70941 53.27884,-12.01906 106.64669,-24.269 106.74768,-22.10978 0.10999,2.35168 -58.35781,18.15495 -116.54891,33.92903 -58.18064,15.77125 -116.08244,31.51274 -114.592214,33.71461 1.602576,2.36787 53.071474,-9.09334 104.111534,-21.01765 51.0433,-11.92508 101.64788,-24.31123 101.671,-23.80525 0.0581,1.27056 -165.20252,42.80282 -161.9834,47.54803 1.76202,2.59733 51.39952,-8.2702 100.58826,-19.31878 49.1903,-11.04894 97.9276,-22.27809 98.01558,-20.41305 0.097,2.05717 -59.03974,17.86473 -117.95628,33.62961 -58.90628,15.76214 -117.589932,31.48097 -116.336191,33.33469 2.816834,4.16483 188.635781,-42.46816 188.728121,-40.42811 0.10017,2.21299 -130.77364,35.0269 -129.38917,37.06686 1.74435,2.5702 182.38048,-42.7715 182.41395,-42.06576 0.0405,0.85316 -151.92117,38.98296 -150.23772,41.45894 2.05505,3.0225 178.41529,-41.23218 178.46094,-40.29244 0.0505,1.03929 -188.63227,48.43986 -186.67427,51.32216 2.35017,3.45959 173.67218,-39.47146 173.97791,-33.10569 0.31382,6.53409 -154.62211,45.39707 -151.16967,50.47615 3.80082,5.5916 161.48298,-33.86513 161.757,-28.20521 0.28291,5.84343 -161.23807,46.33265 -159.95382,48.22324 1.6401,2.41442 150.39624,-34.81007 150.5357,-31.90463 0.14818,3.08695 -157.78479,42.65996 -153.9314,48.33726 4.19333,6.17813 142.29597,-28.32912 142.36404,-26.89567 0.0778,1.63864 -159.21488,41.51723 -158.42517,42.68246 1.12353,1.6578 135.78489,-31.9713 136.0853,-25.51774 0.31395,6.74448 -81.76579,27.22531 -80.18283,29.5541 1.86199,2.73928 126.22466,-28.31165 126.36724,-25.36679 0.15493,3.20012 -122.89764,33.94965 -121.53958,35.94784 1.65977,2.4421 119.92337,-27.07306 120.03512,-24.7609 0.12374,2.56043 -131.66088,35.49376 -128.96585,39.46328 2.99334,4.4089 113.38414,-23.10148 113.58666,-18.85282 0.21456,4.50109 -141.84112,39.98636 -141.12476,41.044 1.02203,1.50892 105.05657,-24.41022 105.23383,-20.5715 0.21981,4.76014 -116.08545,32.47573 -116.2243,39.46682 -0.13036,6.56332 101.15732,-18.1154 101.288,-15.24493 0.16825,3.69539 -72.48264,21.29088 -72.6205,28.66958 -0.13674,7.319 102.51107,-17.69305 102.62385,-15.2787 0.1552,3.32223 -84.26997,23.65312 -84.29861,25.25076 -0.0234,1.30583 103.18286,-23.55062 103.2415,-22.31533 0.12467,2.62598 -125.99165,32.60959 -126.0337,34.84077 -0.0302,1.60025 103.65868,-23.37048 103.71848,-22.08582 0.10701,2.29887 -78.43972,21.23494 -78.50191,24.72512 -0.0588,3.30221 104.29332,-21.96198 104.47767,-18.08779 0.23739,4.98881 -101.30705,29.28036 -101.34279,31.30149 -0.0279,1.57954 105.12589,-23.70288 105.15871,-23.01514 0.12243,2.56536 -168.56172,42.11993 -168.64309,46.13931 -0.0603,2.98078 105.70815,-22.60579 105.9121,-18.08765 0.25154,5.57239 -93.28991,27.98266 -93.42902,35.03553 -0.13437,6.81233 107.16494,-19.24822 107.33084,-15.61521 0.21501,4.70839 -102.19883,29.14493 -102.27081,32.83497 -0.0642,3.29133 108.21516,-22.83789 108.39127,-18.99992 0.2229,4.85775 -84.86402,25.27128 -84.92627,28.62801 -0.0565,3.04599 109.19416,-23.21837 109.27617,-21.46812 0.1168,2.49302 -73.72184,20.7777 -64.98458,25.91861 9.21552,5.42232 95.67693,-15.96461 95.95075,-10.26814 0.29012,6.03543 -131.93993,38.78655 -124.81916,42.98358 7.62863,4.49636 66.21921,-9.97889 66.385,-6.34734 0.1826,3.99995 -57.6866,18.30361 -55.09685,19.83038 3.05354,1.80021 47.33254,-9.13132 47.59124,-3.423 0.27587,6.08727 -5.10007,7.40738 3.25786,12.33117 8.80349,5.18628 22.85384,1.72569 23.06261,6.23073 0.22631,4.88352 10.53887,2.46545 10.53887,2.46545 z m -17.51625,-701.2214 c 0,0 16.16083,-4.59521 15.9403,-9.18325 -0.23944,-4.98149 15.46809,-8.92895 18.61447,-16.22251 3.33319,-7.72661 -72.71269,11.46145 -73.01129,4.9478 -0.31579,-6.88874 25.5485,-13.43736 23.92082,-19.6132 -1.73527,-6.58403 -21.87914,-1.4339 -22.16327,-7.61515 -0.30018,-6.53041 20.22993,-11.73021 19.37561,-14.97013 -0.95774,-3.63217 -32.21812,4.30342 -32.5234,-2.41268 -0.32147,-7.07213 15.91744,-11.20365 14.96109,-14.83774 -1.05479,-4.00817 30.50372,-12.00001 30.25071,-17.33917 -0.27128,-5.72446 12.0545,-8.86144 11.2569,-11.86959 -0.89966,-3.39307 16.14726,-7.68891 15.84991,-13.81175 -0.31517,-6.48993 8.05295,-8.63567 7.55788,-10.49435 -0.59822,-2.24601 -28.81898,4.91178 -29.04986,0.0708 -0.24868,-5.21415 5.18666,-6.60902 4.81628,-8.00425 -0.47167,-1.77683 18.78742,-6.64401 18.49023,-12.74637 -0.31517,-6.471425 1.86475,-7.055306 1.53183,-8.304578 -0.43683,-1.639171 -18.7615,3.018241 -18.96802,-1.284548 -0.22486,-4.684856 -25.17256,1.505826 -25.17256,1.505826 0,0 23.98253,-6.208415 24.21964,-1.264352 0.2562,5.342492 18.7923,0.625453 18.96792,1.284555 0.2671,1.002452 -1.85962,1.575223 -1.53216,8.304597 0.34758,7.14294 -18.7027,11.94762 -18.49069,12.7464 0.30492,1.14881 -5.07736,2.53204 -4.81659,8.00427 0.28017,5.87943 28.71239,-1.33773 29.0498,-0.0708 0.42936,1.61225 -7.8857,3.74672 -7.55828,10.49437 0.34747,7.16089 -16.49065,11.3968 -15.85043,13.81179 0.73229,2.76224 -11.5406,5.88723 -11.25734,11.86962 0.30187,6.37543 -31.04848,14.30956 -30.25132,17.3392 0.89149,3.38818 -15.29454,7.50806 -14.96165,14.83777 0.35209,7.75274 31.8231,-0.24286 32.52323,2.4127 0.78941,2.99424 -19.6879,8.18237 -19.37616,14.97017 0.33133,7.21433 20.68572,2.00948 22.1629,7.61516 1.56288,5.93087 -24.24885,12.46692 -23.92153,19.61325 0.34558,7.54498 75.83969,-11.50366 73.0113,-4.9478 -3.02028,7.00063 -18.86666,10.98376 -18.61506,16.22255 0.26982,5.61824 -14.98121,8.94139 -14.98121,8.94139 z"
       id="path4159"
       inkscape:connector-curvature="0"
       inkscape:path-effect="#path-effect4161"
       inkscape:original-d="m 289.2085,84.087031 34.39925,129.952719 -40.76949,94.27942 -191.106934,253.53521 126.130584,186.01075 -2.54809,137.597 114.66416,67.52444"
       sodipodi:nodetypes="ccccccc" />
    <text
       xml:space="preserve"
       style="font-style:normal;font-weight:normal;font-size:40px;line-height:125%;font-family:sans-serif;letter-spacing:0px;word-spacing:0px;fill:#000000;fill-opacity:1;stroke:none;stroke-width:1px;stroke-linecap:butt;stroke-linejoin:miter;stroke-opacity:1"
       x="346.54059"
       y="175.81836"
       id="text4163"
       sodipodi:linespacing="125%"><tspan
         sodipodi:role="line"
         id="tspan4165"
         x="346.54059"
         y="175.81836">Hatches Rough</tspan></text>
  </g>
</svg>
