<?xml version="1.0" encoding="UTF-8" standalone="no"?>
<!-- Created with Inkscape (http://www.inkscape.org/) -->

<svg
   xmlns:dc="http://purl.org/dc/elements/1.1/"
   xmlns:cc="http://creativecommons.org/ns#"
   xmlns:rdf="http://www.w3.org/1999/02/22-rdf-syntax-ns#"
   xmlns:svg="http://www.w3.org/2000/svg"
   xmlns="http://www.w3.org/2000/svg"
   xmlns:sodipodi="http://sodipodi.sourceforge.net/DTD/sodipodi-0.dtd"
   xmlns:inkscape="http://www.inkscape.org/namespaces/inkscape"
   width="793.70081"
   height="1122.5197"
   viewBox="0 0 793.70081 1122.5197"
   version="1.1"
   id="svg8"
   inkscape:version="0.92.2 5c3e80d, 2017-08-06"
   sodipodi:docname="lava lamp.svg">
  <defs
     id="defs2" />
  <sodipodi:namedview
     id="base"
     pagecolor="#ffffff"
     bordercolor="#666666"
     borderopacity="1.0"
     inkscape:pageopacity="0.0"
     inkscape:pageshadow="2"
     inkscape:zoom="0.44190378"
     inkscape:cx="250.24099"
     inkscape:cy="431.31579"
     inkscape:document-units="px"
     inkscape:current-layer="layer1"
     showgrid="false"
     units="px"
     inkscape:showpageshadow="false"
     borderlayer="true"
     inkscape:window-width="1440"
     inkscape:window-height="851"
     inkscape:window-x="0"
     inkscape:window-y="1"
     inkscape:window-maximized="1" />
  <metadata
     id="metadata5">
    <rdf:RDF>
      <cc:Work
         rdf:about="">
        <dc:format>image/svg+xml</dc:format>
        <dc:type
           rdf:resource="http://purl.org/dc/dcmitype/StillImage" />
        <dc:title></dc:title>
      </cc:Work>
    </rdf:RDF>
  </metadata>
  <g
     inkscape:label="Layer 1"
     inkscape:groupmode="layer"
     id="layer1">
    <g
       id="g906"
       transform="matrix(2.1468059,0,0,2.1399617,-406.47692,-519.00966)"
       style="stroke-width:0.46655259">
      <path
         style="opacity:1;fill:#506488;fill-opacity:1;fill-rule:evenodd;stroke:#000000;stroke-width:0.93310517;stroke-linecap:butt;stroke-linejoin:miter;stroke-miterlimit:4;stroke-dasharray:none;stroke-opacity:1"
         d="m 366.97656,759.02976 c 40.83858,-0.0167 78.7597,-8.78229 116.13672,-19.18359 L 438.1836,623.30125 c -41.41486,-13.67676 -84.46496,-9.36588 -127.97461,0 L 265.2793,739.84617 c 36.40645,13.91639 69.93393,19.19654 101.69726,19.18359 z"
         id="path828"
         inkscape:connector-curvature="0"
         sodipodi:nodetypes="sccccs" />
      <path
         sodipodi:nodetypes="sccccs"
         inkscape:connector-curvature="0"
         id="path823"
         d="m 381.41602,486.58594 c -40.83858,0.0167 -78.7597,8.78229 -116.13672,19.18359 l 44.92968,116.54492 c 41.41486,13.67676 84.46496,9.36588 127.97461,0 L 483.11328,505.76953 C 446.70683,491.85314 413.17935,486.57299 381.41602,486.58594 Z"
         style="opacity:1;fill:#506488;fill-opacity:1;fill-rule:evenodd;stroke:#000000;stroke-width:0.93310517;stroke-linecap:butt;stroke-linejoin:miter;stroke-miterlimit:4;stroke-dasharray:none;stroke-opacity:1" />
      <path
         inkscape:connector-curvature="0"
         id="path837"
         d="m 372.73857,366.46432 c -6.54312,0.10975 -14.08883,3.72215 -22.52539,12.11328 -27.12229,30.73674 -22.28095,56.85878 -26.40234,80.80664 -4.49475,28.95762 -7.31776,47.15714 -7.84766,59.05664 a 84.007156,88.007492 0 0 0 16.64844,1.74805 84.007156,88.007492 0 0 0 8.27149,-0.51563 c -0.20597,-17.98286 11.73046,-34.68749 11.73046,-34.6875 10.58416,9.92265 52.11127,-27.82846 48.80469,-72.00586 -1.78159,-24.19874 -11.95836,-46.79611 -28.67969,-46.51562 z"
         style="color:#000000;clip-rule:nonzero;display:inline;overflow:visible;visibility:visible;opacity:1;isolation:auto;mix-blend-mode:normal;color-interpolation:sRGB;color-interpolation-filters:linearRGB;solid-color:#000000;solid-opacity:1;fill:#ff0066;fill-opacity:1;fill-rule:evenodd;stroke:#b30048;stroke-width:0.93310517;stroke-linecap:butt;stroke-linejoin:miter;stroke-miterlimit:4;stroke-dasharray:none;stroke-dashoffset:0;stroke-opacity:1;color-rendering:auto;image-rendering:auto;shape-rendering:auto;text-rendering:auto;enable-background:accumulate" />
      <ellipse
         transform="matrix(0.78310492,0.6218896,-0.56535138,0.82485018,0,0)"
         style="opacity:1;fill:#ff0066;fill-opacity:1;fill-rule:evenodd;stroke:#b30048;stroke-width:0.93425965;stroke-linecap:butt;stroke-linejoin:miter;stroke-miterlimit:4;stroke-dasharray:none;stroke-opacity:1"
         id="ellipse844"
         cx="487.37308"
         cy="29.77478"
         rx="26.662386"
         ry="36.183353" />
      <ellipse
         ry="36.403099"
         rx="31.602692"
         cy="450.86246"
         cx="422.836"
         id="path842"
         style="opacity:1;fill:#ff0066;fill-opacity:1;fill-rule:evenodd;stroke:#b30048;stroke-width:0.93310517;stroke-linecap:butt;stroke-linejoin:miter;stroke-miterlimit:4;stroke-dasharray:none;stroke-opacity:1" />
      <path
         sodipodi:nodetypes="ccccc"
         inkscape:connector-curvature="0"
         id="path817"
         d="m 363.11321,250.58632 -97.83478,253.77149 c 83.21474,31.80889 151.38729,18.4912 217.83533,0 L 385.27898,250.58632 Z"
         style="opacity:1;fill:#dfedfc;fill-opacity:0.21527776;fill-rule:evenodd;stroke:#000000;stroke-width:0.93310517;stroke-linecap:butt;stroke-linejoin:miter;stroke-miterlimit:4;stroke-dasharray:none;stroke-opacity:1" />
      <path
         sodipodi:nodetypes="ccccc"
         inkscape:connector-curvature="0"
         id="path832"
         d="m 363.11328,250.58594 -12.5918,32.66211 c 15.7832,8.76695 31.56641,6.0615 47.34961,0 L 385.2793,250.58594 Z"
         style="opacity:1;fill:#506488;fill-opacity:1;fill-rule:evenodd;stroke:#000000;stroke-width:0.93310517;stroke-linecap:butt;stroke-linejoin:miter;stroke-miterlimit:4;stroke-dasharray:none;stroke-opacity:1" />
    </g>
  </g>
</svg>
