<?xml version="1.0" encoding="UTF-8" standalone="no"?>
<!-- Created with Inkscape (http://www.inkscape.org/) -->

<svg
   xmlns:dc="http://purl.org/dc/elements/1.1/"
   xmlns:cc="http://creativecommons.org/ns#"
   xmlns:rdf="http://www.w3.org/1999/02/22-rdf-syntax-ns#"
   xmlns:svg="http://www.w3.org/2000/svg"
   xmlns="http://www.w3.org/2000/svg"
   xmlns:xlink="http://www.w3.org/1999/xlink"
   xmlns:sodipodi="http://sodipodi.sourceforge.net/DTD/sodipodi-0.dtd"
   xmlns:inkscape="http://www.inkscape.org/namespaces/inkscape"
   width="297mm"
   height="210mm"
   viewBox="0 0 1052.3622 744.09448"
   id="svg2"
   version="1.1"
   inkscape:version="0.91 r13725"
   sodipodi:docname="round_button.svg"
   inkscape:export-filename="C:\Users\SherazD\Dropbox\inkscape work\round_button.png"
   inkscape:export-xdpi="54.73"
   inkscape:export-ydpi="54.73">
  <defs
     id="defs4">
    <linearGradient
       inkscape:collect="always"
       id="linearGradient4244">
      <stop
         style="stop-color:#ffffff;stop-opacity:1"
         offset="0"
         id="stop4246" />
      <stop
         style="stop-color:#ffffff;stop-opacity:0"
         offset="1"
         id="stop4248" />
    </linearGradient>
    <linearGradient
       id="linearGradient4220"
       inkscape:collect="always">
      <stop
         id="stop4230"
         offset="0"
         style="stop-color:#ffffff;stop-opacity:0" />
      <stop
         style="stop-color:#ffffff;stop-opacity:0"
         offset="0.33295223"
         id="stop4236" />
      <stop
         id="stop4238"
         offset="0.75744146"
         style="stop-color:#ffffff;stop-opacity:0.24705882" />
      <stop
         id="stop4232"
         offset="1"
         style="stop-color:#ffffff;stop-opacity:0.40949556" />
    </linearGradient>
    <linearGradient
       inkscape:collect="always"
       id="linearGradient4174">
      <stop
         style="stop-color:#313131;stop-opacity:1"
         offset="0"
         id="stop4176" />
      <stop
         style="stop-color:#ebebeb;stop-opacity:1"
         offset="1"
         id="stop4178" />
    </linearGradient>
    <linearGradient
       id="linearGradient4164"
       inkscape:collect="always">
      <stop
         id="stop4166"
         offset="0"
         style="stop-color:#ffffff;stop-opacity:0" />
      <stop
         style="stop-color:#ffffff;stop-opacity:1"
         offset="0.56475937"
         id="stop4170" />
      <stop
         id="stop4168"
         offset="1"
         style="stop-color:#ffffff;stop-opacity:0" />
    </linearGradient>
    <linearGradient
       id="linearGradient4154"
       inkscape:collect="always">
      <stop
         id="stop4156"
         offset="0"
         style="stop-color:#1d1d1d;stop-opacity:1" />
      <stop
         id="stop4158"
         offset="1"
         style="stop-color:#929292;stop-opacity:1" />
    </linearGradient>
    <linearGradient
       inkscape:collect="always"
       id="linearGradient4140">
      <stop
         style="stop-color:#dcdcdc;stop-opacity:1"
         offset="0"
         id="stop4142" />
      <stop
         style="stop-color:#6a6a6a;stop-opacity:1"
         offset="1"
         id="stop4144" />
    </linearGradient>
    <linearGradient
       inkscape:collect="always"
       xlink:href="#linearGradient4154"
       id="linearGradient4146"
       x1="407.18002"
       y1="527.172"
       x2="405.37839"
       y2="866.789"
       gradientUnits="userSpaceOnUse"
       spreadMethod="reflect"
       gradientTransform="translate(125.30705,0.90081118)" />
    <linearGradient
       inkscape:collect="always"
       xlink:href="#linearGradient4140"
       id="linearGradient4152"
       gradientUnits="userSpaceOnUse"
       spreadMethod="reflect"
       x1="407.18002"
       y1="527.172"
       x2="403.55014"
       y2="811.02722"
       gradientTransform="matrix(0.98546512,0,0,0.98546512,131.13387,10.776341)" />
    <linearGradient
       inkscape:collect="always"
       xlink:href="#linearGradient4164"
       id="linearGradient4162"
       gradientUnits="userSpaceOnUse"
       gradientTransform="matrix(0.98546512,0,0,0.98546512,131.13336,10.775491)"
       spreadMethod="pad"
       x1="427.29083"
       y1="614.0141"
       x2="335.90469"
       y2="716.87207" />
    <linearGradient
       inkscape:collect="always"
       xlink:href="#linearGradient4174"
       id="linearGradient4180"
       x1="527.08197"
       y1="589.33002"
       x2="522.57776"
       y2="801.02759"
       gradientUnits="userSpaceOnUse"
       gradientTransform="translate(6.577244e-4,4.4118898e-4)" />
    <linearGradient
       inkscape:collect="always"
       xlink:href="#linearGradient4220"
       id="linearGradient4226"
       x1="882.82391"
       y1="570.86292"
       x2="888.22894"
       y2="836.61084"
       gradientUnits="userSpaceOnUse"
       gradientTransform="translate(-355.29158,-25.673977)" />
    <linearGradient
       inkscape:collect="always"
       xlink:href="#linearGradient4244"
       id="linearGradient4250"
       x1="853.48737"
       y1="458.51407"
       x2="892.03339"
       y2="663.00494"
       gradientUnits="userSpaceOnUse"
       gradientTransform="matrix(0.97718802,0.21237604,-0.21237604,0.97718802,-207.75735,-121.85307)" />
  </defs>
  <sodipodi:namedview
     id="base"
     pagecolor="#ffffff"
     bordercolor="#666666"
     borderopacity="1.0"
     inkscape:pageopacity="0.0"
     inkscape:pageshadow="2"
     inkscape:zoom="1.1100741"
     inkscape:cx="316.73562"
     inkscape:cy="372.04724"
     inkscape:document-units="px"
     inkscape:current-layer="layer3"
     showgrid="false"
     inkscape:window-width="1920"
     inkscape:window-height="1019"
     inkscape:window-x="-9"
     inkscape:window-y="-9"
     inkscape:window-maximized="1" />
  <metadata
     id="metadata7">
    <rdf:RDF>
      <cc:Work
         rdf:about="">
        <dc:format>image/svg+xml</dc:format>
        <dc:type
           rdf:resource="http://purl.org/dc/dcmitype/StillImage" />
        <dc:title />
      </cc:Work>
    </rdf:RDF>
  </metadata>
  <g
     inkscape:groupmode="layer"
     id="layer2"
     inkscape:label="Red"
     style="display:inline">
    <path
       style="opacity:1;fill:#ae0000;fill-opacity:1;stroke:none;stroke-width:1;stroke-linecap:round;stroke-linejoin:round;stroke-miterlimit:4;stroke-dasharray:none;stroke-opacity:1"
       d="M 663.55936,372.04724 A 137.37822,137.37822 0 0 1 526.1811,509.42547 137.37822,137.37822 0 0 1 388.80285,372.04724 137.37822,137.37822 0 0 1 526.1811,234.66902 137.37822,137.37822 0 0 1 663.55936,372.04724 Z"
       id="path4212"
       inkscape:connector-curvature="0" />
    <text
       xml:space="preserve"
       style="font-style:normal;font-variant:normal;font-weight:normal;font-stretch:normal;font-size:166.57499695px;line-height:125%;font-family:Andalus;-inkscape-font-specification:'Andalus, Normal';text-align:start;letter-spacing:0px;word-spacing:0px;writing-mode:lr-tb;text-anchor:start;fill:#ffffff;fill-opacity:1;stroke:#ffffff;stroke-width:1px;stroke-linecap:butt;stroke-linejoin:miter;stroke-opacity:1"
       x="447.32639"
       y="422.14987"
       id="text4254"
       sodipodi:linespacing="125%"><tspan
         sodipodi:role="line"
         id="tspan4256"
         x="447.32639"
         y="422.14987">@</tspan></text>
  </g>
  <g
     inkscape:groupmode="layer"
     id="layer3"
     inkscape:label="Orange"
     style="display:inline">
    <path
       inkscape:connector-curvature="0"
       id="path4259"
       d="M 663.55936,372.04724 A 137.37822,137.37822 0 0 1 526.1811,509.42547 137.37822,137.37822 0 0 1 388.80285,372.04724 137.37822,137.37822 0 0 1 526.1811,234.66902 137.37822,137.37822 0 0 1 663.55936,372.04724 Z"
       style="display:inline;opacity:1;fill:#ff7400;fill-opacity:1;stroke:none;stroke-width:1;stroke-linecap:round;stroke-linejoin:round;stroke-miterlimit:4;stroke-dasharray:none;stroke-opacity:1" />
    <text
       xml:space="preserve"
       style="font-style:normal;font-variant:normal;font-weight:normal;font-stretch:normal;font-size:174.69563293px;line-height:125%;font-family:DFKai-SB;-inkscape-font-specification:'DFKai-SB, Normal';text-align:start;letter-spacing:0px;word-spacing:0px;writing-mode:lr-tb;text-anchor:start;fill:#ffffff;fill-opacity:1;stroke:none;stroke-width:1px;stroke-linecap:butt;stroke-linejoin:miter;stroke-opacity:1"
       x="481.8248"
       y="426.63962"
       id="text4262"
       sodipodi:linespacing="125%"><tspan
         sodipodi:role="line"
         id="tspan4264"
         x="481.8248"
         y="426.63962">$</tspan></text>
  </g>
  <g
     inkscape:label="frame and glayer"
     inkscape:groupmode="layer"
     id="layer1"
     transform="translate(0,-308.26772)"
     style="display:inline">
    <path
       inkscape:connector-curvature="0"
       id="path4218"
       d="M 663.55932,680.31496 A 137.37822,137.37822 0 0 1 526.18113,817.69319 137.37822,137.37822 0 0 1 388.80288,680.31496 137.37822,137.37822 0 0 1 526.18113,542.93674 137.37822,137.37822 0 0 1 663.55932,680.31496 Z"
       style="opacity:0.71100003;fill:url(#linearGradient4226);fill-opacity:1;stroke:none;stroke-width:1;stroke-linecap:round;stroke-linejoin:round;stroke-miterlimit:4;stroke-dasharray:none;stroke-opacity:1" />
    <path
       style="opacity:1;fill:url(#linearGradient4146);fill-opacity:1;stroke:none;stroke-width:1;stroke-linecap:round;stroke-linejoin:round;stroke-miterlimit:4;stroke-dasharray:none;stroke-opacity:1"
       d="M 526.18109,525.37063 A 154.94461,154.94461 0 0 0 371.23577,680.31399 154.94461,154.94461 0 0 0 526.18109,835.2593 154.94461,154.94461 0 0 0 681.12644,680.31399 154.94461,154.94461 0 0 0 526.18109,525.37063 Z m 0,17.5664 A 137.37822,137.37822 0 0 1 663.56004,680.31399 137.37822,137.37822 0 0 1 526.18109,817.69289 137.37822,137.37822 0 0 1 388.80218,680.31399 137.37822,137.37822 0 0 1 526.18109,542.93703 Z"
       id="path4136"
       inkscape:connector-curvature="0" />
    <path
       style="opacity:1;fill:url(#linearGradient4152);fill-opacity:1;stroke:none;stroke-width:1;stroke-linecap:round;stroke-linejoin:round;stroke-miterlimit:4;stroke-dasharray:none;stroke-opacity:1"
       d="M 526.18209,527.62258 A 152.6925,152.6925 0 0 0 373.48873,680.31594 152.6925,152.6925 0 0 0 526.18209,833.00735 152.6925,152.6925 0 0 0 678.87347,680.31594 152.6925,152.6925 0 0 0 526.18209,527.62258 Z m 0,15.31446 A 137.37822,137.37822 0 0 1 663.55907,680.31594 137.37822,137.37822 0 0 1 526.18209,817.6929 137.37822,137.37822 0 0 1 388.80318,680.31594 137.37822,137.37822 0 0 1 526.18209,542.93704 Z"
       id="circle4150"
       inkscape:connector-curvature="0" />
    <path
       style="opacity:1;fill:url(#linearGradient4162);fill-opacity:1;stroke:none;stroke-width:1;stroke-linecap:round;stroke-linejoin:round;stroke-miterlimit:4;stroke-dasharray:none;stroke-opacity:1"
       d="M 526.18013,527.62258 A 152.6925,152.6925 0 0 0 373.48873,680.31399 152.6925,152.6925 0 0 0 526.18013,833.00735 152.6925,152.6925 0 0 0 678.87347,680.31399 152.6925,152.6925 0 0 0 526.18013,527.62258 Z m 0,15.31445 A 137.37822,137.37822 0 0 1 663.55906,680.31399 137.37822,137.37822 0 0 1 526.18013,817.69289 137.37822,137.37822 0 0 1 388.80318,680.31399 137.37822,137.37822 0 0 1 526.18013,542.93703 Z"
       id="circle4160"
       inkscape:connector-curvature="0" />
    <path
       style="opacity:1;fill:url(#linearGradient4180);fill-opacity:1;stroke:none;stroke-width:1;stroke-linecap:round;stroke-linejoin:round;stroke-miterlimit:4;stroke-dasharray:none;stroke-opacity:1"
       d="M 526.1811,539.78371 A 140.53116,140.53116 0 0 0 385.64985,680.31496 140.53116,140.53116 0 0 0 526.1811,820.84622 140.53116,140.53116 0 0 0 666.71235,680.31496 140.53116,140.53116 0 0 0 526.1811,539.78371 Z m 0,3.1543 A 137.37822,137.37822 0 0 1 663.56005,680.31496 137.37822,137.37822 0 0 1 526.1811,817.69383 137.37822,137.37822 0 0 1 388.80414,680.31496 137.37822,137.37822 0 0 1 526.1811,542.93801 Z"
       id="circle4172"
       inkscape:connector-curvature="0" />
    <path
       inkscape:connector-curvature="0"
       id="path4242"
       d="m 653.69323,664.79883 c -0.11248,22.67639 -50.96225,-5.73956 -125.07109,-7.53406 -74.10886,-1.79451 -131.05102,20.50057 -129.79212,1.36264 4.27818,-65.03769 56.608,-115.77291 130.71687,-113.97838 74.10884,1.79455 124.4744,54.02936 124.14634,120.1498 z"
       style="opacity:0.55500034;fill:url(#linearGradient4250);fill-opacity:1;stroke:none;stroke-width:1;stroke-linecap:round;stroke-linejoin:round;stroke-miterlimit:4;stroke-dasharray:none;stroke-opacity:1"
       sodipodi:nodetypes="sssss"
       inkscape:transform-center-x="3.7739664"
       inkscape:transform-center-y="-80.457565" />
  </g>
</svg>
