<?xml version="1.0" encoding="UTF-8" standalone="no"?>
<!-- Created with Inkscape (http://www.inkscape.org/) -->

<svg
   xmlns:dc="http://purl.org/dc/elements/1.1/"
   xmlns:cc="http://creativecommons.org/ns#"
   xmlns:rdf="http://www.w3.org/1999/02/22-rdf-syntax-ns#"
   xmlns:svg="http://www.w3.org/2000/svg"
   xmlns="http://www.w3.org/2000/svg"
   xmlns:xlink="http://www.w3.org/1999/xlink"
   xmlns:sodipodi="http://sodipodi.sourceforge.net/DTD/sodipodi-0.dtd"
   xmlns:inkscape="http://www.inkscape.org/namespaces/inkscape"
   width="297mm"
   height="210mm"
   viewBox="0 0 1052.3622 744.09448"
   id="svg2"
   version="1.1"
   inkscape:version="0.91 r13725"
   sodipodi:docname="S1.svg">
  <defs
     id="defs4">
    <linearGradient
       inkscape:collect="always"
       id="linearGradient4530">
      <stop
         style="stop-color:#0f508c;stop-opacity:1;"
         offset="0"
         id="stop4532" />
      <stop
         style="stop-color:#96c8f6;stop-opacity:1"
         offset="1"
         id="stop4534" />
    </linearGradient>
    <linearGradient
       inkscape:collect="always"
       id="linearGradient4519">
      <stop
         style="stop-color:#a67e2f;stop-opacity:1"
         offset="0"
         id="stop4521" />
      <stop
         style="stop-color:#fff4ca;stop-opacity:1"
         offset="1"
         id="stop4523" />
    </linearGradient>
    <linearGradient
       inkscape:collect="always"
       id="linearGradient4449">
      <stop
         style="stop-color:#2a6b27;stop-opacity:1"
         offset="0"
         id="stop4451" />
      <stop
         style="stop-color:#52cc4f;stop-opacity:1"
         offset="1"
         id="stop4453" />
    </linearGradient>
    <filter
       inkscape:collect="always"
       style="color-interpolation-filters:sRGB"
       id="filter4403"
       x="-0.032210255"
       width="1.0644205"
       y="-0.094156162"
       height="1.1883123">
      <feGaussianBlur
         inkscape:collect="always"
         stdDeviation="1.6950582"
         id="feGaussianBlur4405" />
    </filter>
    <filter
       inkscape:collect="always"
       style="color-interpolation-filters:sRGB"
       id="filter4409"
       x="-0.037063437"
       width="1.0741269"
       y="-0.068092531"
       height="1.1361851">
      <feGaussianBlur
         inkscape:collect="always"
         stdDeviation="1.0091625"
         id="feGaussianBlur4411" />
    </filter>
    <filter
       inkscape:collect="always"
       style="color-interpolation-filters:sRGB"
       id="filter4417"
       x="-0.036259261"
       width="1.0725185"
       y="-0.070984889"
       height="1.1419698">
      <feGaussianBlur
         inkscape:collect="always"
         stdDeviation="1.913466"
         id="feGaussianBlur4419" />
    </filter>
    <filter
       inkscape:collect="always"
       style="color-interpolation-filters:sRGB"
       id="filter4423"
       x="-0.038527659"
       width="1.0770553"
       y="-0.063648507"
       height="1.127297">
      <feGaussianBlur
         inkscape:collect="always"
         stdDeviation="2.0855099"
         id="feGaussianBlur4425" />
    </filter>
    <filter
       inkscape:collect="always"
       style="color-interpolation-filters:sRGB"
       id="filter4429"
       x="-0.036555682"
       width="1.0731114"
       y="-0.069875645"
       height="1.1397513">
      <feGaussianBlur
         inkscape:collect="always"
         stdDeviation="1.9514005"
         id="feGaussianBlur4431" />
    </filter>
    <filter
       inkscape:collect="always"
       style="color-interpolation-filters:sRGB"
       id="filter4435"
       x="-0.035888058"
       width="1.0717761"
       y="-0.072451984"
       height="1.144904">
      <feGaussianBlur
         inkscape:collect="always"
         stdDeviation="1.2956703"
         id="feGaussianBlur4437" />
    </filter>
    <linearGradient
       inkscape:collect="always"
       xlink:href="#linearGradient4449"
       id="linearGradient4455"
       x1="627.01599"
       y1="861.36975"
       x2="627.01599"
       y2="496.26715"
       gradientUnits="userSpaceOnUse" />
    <filter
       inkscape:collect="always"
       style="color-interpolation-filters:sRGB"
       id="filter4476"
       x="-0.024702491"
       width="1.049405"
       y="-0.84393878"
       height="2.6878776">
      <feGaussianBlur
         inkscape:collect="always"
         stdDeviation="3.1154887"
         id="feGaussianBlur4478" />
    </filter>
    <filter
       inkscape:collect="always"
       style="color-interpolation-filters:sRGB"
       id="filter4513"
       x="-0.024721952"
       width="1.0494439"
       y="-0.82183646"
       height="2.6436729">
      <feGaussianBlur
         inkscape:collect="always"
         stdDeviation="3.1429834"
         id="feGaussianBlur4515" />
    </filter>
    <linearGradient
       inkscape:collect="always"
       xlink:href="#linearGradient4519"
       id="linearGradient4525"
       x1="413.57446"
       y1="507.20779"
       x2="555.08099"
       y2="238.26714"
       gradientUnits="userSpaceOnUse" />
    <linearGradient
       inkscape:collect="always"
       xlink:href="#linearGradient4530"
       id="linearGradient4536"
       x1="518.33618"
       y1="572.09753"
       x2="518.33618"
       y2="168.68651"
       gradientUnits="userSpaceOnUse" />
  </defs>
  <sodipodi:namedview
     id="base"
     pagecolor="#ffffff"
     bordercolor="#666666"
     borderopacity="1.0"
     inkscape:pageopacity="0.0"
     inkscape:pageshadow="2"
     inkscape:zoom="0.63954628"
     inkscape:cx="705.005"
     inkscape:cy="409.56309"
     inkscape:document-units="px"
     inkscape:current-layer="layer4"
     showgrid="false"
     inkscape:window-width="1600"
     inkscape:window-height="848"
     inkscape:window-x="1592"
     inkscape:window-y="-8"
     inkscape:window-maximized="1" />
  <metadata
     id="metadata7">
    <rdf:RDF>
      <cc:Work
         rdf:about="">
        <dc:format>image/svg+xml</dc:format>
        <dc:type
           rdf:resource="http://purl.org/dc/dcmitype/StillImage" />
        <dc:title />
      </cc:Work>
    </rdf:RDF>
  </metadata>
  <g
     inkscape:groupmode="layer"
     id="layer2"
     inkscape:label="S border"
     style="display:inline">
    <ellipse
       style="opacity:1;fill:url(#linearGradient4525);fill-opacity:1;stroke:none;stroke-width:0.5;stroke-linecap:round;stroke-linejoin:round;stroke-miterlimit:4;stroke-dasharray:none;stroke-opacity:1"
       id="path4517"
       cx="481.59143"
       cy="376.64648"
       rx="112.5798"
       ry="150.88821" />
    <path
       transform="translate(0,-308.26772)"
       style="fill:url(#linearGradient4455);fill-opacity:1;stroke:none;stroke-width:5;stroke-linecap:round;stroke-linejoin:round;stroke-miterlimit:10;stroke-dasharray:none;stroke-opacity:1"
       d="m 329.93035,494.56772 0,369.28321 306.26172,0 0,-369.28321 -306.26172,0 z m 152.57813,64.61329 c 3.56284,0 7.00354,0.11161 10.32226,0.33593 3.31872,0.22433 6.51524,0.56112 9.58985,1.00977 3.0746,0.44865 6.02694,1.00866 8.85742,1.68164 2.83048,0.67298 5.53864,1.45816 8.125,2.35547 2.61275,0.87092 5.11353,1.81913 7.50195,2.8418 2.38842,1.02266 4.66403,2.1205 6.82813,3.29492 2.16409,1.17442 4.21647,2.42578 6.15624,3.75195 1.93978,1.32617 3.76698,2.72716 5.48243,4.20508 1.71544,1.45153 3.31626,2.92295 4.80078,4.41406 1.48452,1.49112 2.85383,3.0025 4.10742,4.5332 1.25359,1.53071 2.39139,3.0801 3.41406,4.65039 1.02267,1.5703 1.92896,3.16161 2.72071,4.77149 0.79174,1.60988 1.48431,3.20874 2.07812,4.79883 0.59381,1.59008 1.0885,3.16994 1.48438,4.74023 0.39587,1.57029 0.69464,3.13115 0.89257,4.68164 0.19794,1.5505 0.29688,3.09235 0.29688,4.62305 0,1.39875 -0.12624,2.76294 -0.37695,4.0957 -0.25072,1.33277 -0.62747,2.6336 -1.12891,3.90039 -0.50144,1.26679 -1.12675,2.50036 -1.87891,3.70117 -0.75215,1.20082 -1.62994,2.36908 -2.63281,3.50391 -0.97648,1.10844 -2.01534,2.07687 -3.11719,2.9082 -1.10184,0.83133 -2.26694,1.52586 -3.49414,2.08008 -1.2272,0.55422 -2.51658,0.96899 -3.86914,1.2461 -1.35256,0.27711 -2.76817,0.41601 -4.24609,0.41601 -1.34596,0 -2.61317,-0.0831 -3.80078,-0.24804 -1.18762,-0.16495 -2.29691,-0.4123 -3.32617,-0.74219 -1.02927,-0.3299 -1.9787,-0.74149 -2.84961,-1.23633 -0.87092,-0.49484 -1.66244,-1.07264 -2.375,-1.73242 -1.37236,-1.37236 -2.81015,-3.16789 -4.31446,-5.38477 -1.50431,-2.21688 -3.07467,-4.85461 -4.71093,-7.91601 -1.05566,-2.19049 -2.16495,-4.25871 -3.32618,-6.20508 -1.16122,-1.94637 -2.37579,-3.77236 -3.64258,-5.47461 -1.26678,-1.70225 -2.58467,-3.28211 -3.95703,-4.74024 -1.37235,-1.45812 -2.79747,-2.7938 -4.27539,-4.00781 -1.47792,-1.2404 -3.18084,-2.32556 -5.10742,-3.25586 -1.92657,-0.9303 -4.0779,-1.70597 -6.45312,-2.32617 -2.37523,-0.6202 -4.97495,-1.08443 -7.79883,-1.39453 -2.82388,-0.3101 -5.872,-0.46484 -9.14453,-0.46484 -3.03502,0 -5.92522,0.16741 -8.66992,0.5039 -2.74471,0.33649 -5.34443,0.84069 -7.79883,1.51367 -2.45441,0.67299 -4.76364,1.51397 -6.92774,2.52344 -2.16409,1.00947 -4.18285,2.18724 -6.05664,3.5332 -1.8474,1.31958 -3.46406,2.70985 -4.84961,4.16797 -1.38555,1.45813 -2.53919,2.98535 -3.46289,4.58203 -0.9237,1.59669 -1.61627,3.26281 -2.07812,4.99805 -0.46185,1.73524 -0.69336,3.53832 -0.69336,5.41211 0,1.16122 0.0799,2.28319 0.23828,3.36523 0.15835,1.08205 0.39619,2.12408 0.71289,3.12696 0.3167,1.00287 0.71245,1.96692 1.1875,2.89062 0.47505,0.9237 1.02871,1.80782 1.66211,2.65235 1.26679,1.68905 2.76988,3.25941 4.51172,4.71093 1.74183,1.45153 3.72257,2.78405 5.93945,3.99805 2.21688,1.21401 4.44618,2.296 6.68945,3.24609 2.24328,0.9501 4.49987,1.76891 6.76953,2.45508 4.53933,1.37236 12.03533,3.37844 22.48633,6.01758 6.54508,1.5307 12.77192,3.13907 18.6836,4.82813 5.91168,1.68905 11.50687,3.45728 16.78515,5.30468 2.66554,0.9237 5.23041,1.89726 7.69141,2.91993 2.461,1.02266 4.8197,2.09516 7.07617,3.21679 2.25647,1.12164 4.40901,2.29307 6.46094,3.51367 2.05193,1.22061 4.00221,2.49098 5.84961,3.81055 1.87379,1.31957 3.64203,2.7269 5.30469,4.22461 1.66266,1.49771 3.22034,3.08586 4.67187,4.76172 1.45153,1.67586 2.79671,3.44092 4.03711,5.29492 1.2404,1.854 2.37503,3.79599 3.4043,5.82813 1.05565,2.00574 1.97974,4.1266 2.77148,6.36328 0.79174,2.23667 1.45264,4.58904 1.98047,7.05664 0.52783,2.4676 0.92359,5.05147 1.1875,7.75 0.26391,2.69852 0.39453,5.51196 0.39453,8.4414 0,3.51006 -0.22639,6.93176 -0.68164,10.26368 -0.45525,3.33191 -1.13832,6.57474 -2.04883,9.72851 -0.9105,3.15378 -2.0483,6.21773 -3.41406,9.19336 -1.36576,2.97563 -2.96024,5.86267 -4.78125,8.66016 -1.79462,2.79749 -3.8007,5.44351 -6.01758,7.9375 -2.21688,2.49399 -4.64406,4.8349 -7.2832,7.02539 -2.63914,2.19049 -5.48938,4.2302 -8.55078,6.11719 -3.06141,1.88698 -6.33469,3.62159 -9.81836,5.20507 -3.48367,1.58349 -7.12859,2.97059 -10.93555,4.15821 -3.80696,1.18761 -7.77599,2.177 -11.90625,2.96875 -4.13026,0.79174 -8.42145,1.38538 -12.875,1.78125 -4.45355,0.39587 -9.06885,0.59375 -13.8457,0.59375 -5.72694,0 -11.20419,-0.27148 -16.42969,-0.8125 -5.2255,-0.54103 -10.19976,-1.35155 -14.92383,-2.4336 -4.72406,-1.08205 -9.19729,-2.43552 -13.41992,-4.05859 -2.11131,-0.81154 -4.16053,-1.68993 -6.14648,-2.63672 -1.98596,-0.94679 -3.90894,-1.96092 -5.76954,-3.04297 -2.63914,-1.55709 -5.15575,-3.24418 -7.55078,-5.05859 -2.39502,-1.81441 -4.66745,-3.7564 -6.81836,-5.82813 -2.1509,-2.07172 -4.18111,-4.27252 -6.08789,-6.60156 -1.90678,-2.32904 -3.69085,-4.78669 -5.35351,-7.37305 -1.63627,-2.61275 -3.06772,-5.20613 -4.29492,-7.77929 -1.22721,-2.57317 -2.25023,-5.12658 -3.06836,-7.66016 -0.81814,-2.53358 -1.43078,-5.04702 -1.83985,-7.54101 -0.40906,-2.494 -0.61328,-4.96748 -0.61328,-7.42188 0,-1.42514 0.12112,-2.79762 0.36524,-4.11719 0.24412,-1.31957 0.60941,-2.58677 1.09765,-3.80078 0.48824,-1.214 1.09967,-2.37593 1.83203,-3.48437 0.73237,-1.10844 1.58602,-2.16315 2.5625,-3.16602 1.00288,-1.02927 2.0722,-1.92922 3.20703,-2.70117 1.13484,-0.77195 2.33478,-1.41701 3.60157,-1.93164 1.26679,-0.51463 2.60125,-0.89894 4,-1.15625 1.39874,-0.25732 2.86187,-0.38672 4.39258,-0.38672 1.24039,0 2.43279,0.0989 3.57421,0.29687 1.14143,0.19794 2.23293,0.49476 3.2754,0.89063 1.04246,0.39587 2.03502,0.89057 2.97851,1.48437 0.94349,0.59381 1.83712,1.28639 2.68164,2.07813 0.87092,0.79174 1.70873,1.67903 2.51367,2.66211 0.80494,0.98308 1.57745,2.06191 2.31641,3.23633 1.47792,2.34883 2.8231,5.08112 4.03711,8.19531 1.47792,3.6948 3.01026,7.08603 4.59375,10.17383 1.58348,3.08779 3.21915,5.87272 4.9082,8.35351 0.87092,1.2404 1.82668,2.42767 2.86914,3.5625 1.04246,1.13483 2.17076,2.21683 3.38477,3.2461 1.214,1.02926 2.51484,2.00598 3.90039,2.92968 1.38555,0.9237 2.85697,1.7932 4.41406,2.61133 1.5571,0.79175 3.2359,1.48432 5.03711,2.07813 1.80122,0.5938 3.7242,1.0885 5.76953,1.48437 2.04534,0.39587 4.2125,0.69464 6.50195,0.89258 2.28946,0.19794 4.7008,0.29688 7.23438,0.29688 3.48367,0 6.80326,-0.203 9.95703,-0.60547 3.15378,-0.40247 6.14292,-1.00561 8.9668,-1.81055 2.82388,-0.80494 5.48257,-1.81017 7.97656,-3.01758 2.49399,-1.20741 4.82223,-2.61668 6.98633,-4.22656 2.19049,-1.63627 4.10713,-3.37087 5.75,-5.20508 1.64287,-1.8342 3.01218,-3.76864 4.10742,-5.80078 1.09524,-2.03214 1.91722,-4.1625 2.46484,-6.39258 0.54763,-2.23007 0.82032,-4.55831 0.82032,-6.98633 0,-1.92657 -0.14841,-3.76207 -0.44532,-5.5039 -0.2969,-1.74184 -0.74213,-3.39017 -1.33593,-4.94727 -0.59381,-1.55709 -1.33585,-3.02218 -2.22657,-4.39453 -0.89071,-1.37235 -1.92957,-2.65223 -3.11718,-3.83984 -1.16123,-1.21401 -2.41064,-2.35498 -3.75,-3.42383 -1.33937,-1.06885 -2.76765,-2.06654 -4.28516,-2.99024 -1.51751,-0.9237 -3.12466,-1.77418 -4.82031,-2.55273 -1.69565,-0.77855 -3.47973,-1.48379 -5.35352,-2.11719 -3.6948,-1.26679 -8.02474,-2.57396 -12.98633,-3.91992 -4.96158,-1.34596 -10.55482,-2.73111 -16.7832,-4.15625 -8.33969,-1.95297 -16.00822,-4.06432 -23.00195,-6.33398 -3.49687,-1.13484 -6.824,-2.30944 -9.98438,-3.52344 -3.16037,-1.21401 -6.15268,-2.46854 -8.97656,-3.76172 -2.79749,-1.31957 -5.45301,-2.75419 -7.9668,-4.30469 -2.51378,-1.55049 -4.88711,-3.21662 -7.11718,-4.99804 -2.23008,-1.78143 -4.31731,-3.67711 -6.26368,-5.68946 -1.94636,-2.01234 -3.7514,-4.14149 -5.41406,-6.38476 -1.63627,-2.26967 -3.06772,-4.67467 -4.29492,-7.21485 -1.2272,-2.54017 -2.25023,-5.2147 -3.06836,-8.02539 -0.81813,-2.81068 -1.43078,-5.75669 -1.83984,-8.83789 -0.40907,-3.0812 -0.61328,-6.29868 -0.61328,-9.65039 0,-3.19336 0.21688,-6.29728 0.65234,-9.3125 0.43546,-3.01522 1.08807,-5.94026 1.95898,-8.77734 0.87092,-2.83708 1.95925,-5.58521 3.26563,-8.24414 1.30637,-2.65894 2.83238,-5.23015 4.57422,-7.71094 1.74183,-2.48079 3.67748,-4.81537 5.80859,-7.00586 2.13111,-2.19049 4.45618,-4.23654 6.97656,-6.13672 2.52039,-1.90018 5.23683,-3.65379 8.14649,-5.26367 2.90965,-1.60988 6.01357,-3.07496 9.3125,-4.39453 3.29893,-1.34596 6.7428,-2.52373 10.33203,-3.5332 3.58923,-1.00948 7.32358,-1.85046 11.20312,-2.52344 3.87954,-0.67298 7.90438,-1.17914 12.07422,-1.51563 4.16985,-0.33649 8.48516,-0.5039 12.94532,-0.5039 z"
       id="rect4282"
       inkscape:connector-curvature="0" />
  </g>
  <g
     inkscape:groupmode="layer"
     id="layer3"
     inkscape:label="Flat Ractangle"
     style="display:none">
    <rect
       style="opacity:1;fill:url(#linearGradient4536);fill-opacity:1;stroke:none;stroke-width:0.5;stroke-linecap:round;stroke-linejoin:round;stroke-miterlimit:4;stroke-dasharray:none;stroke-opacity:1"
       id="rect4528"
       width="347.12109"
       height="408.10175"
       x="311.93988"
       y="169.46835"
       rx="1.53679"
       ry="0.95965803" />
  </g>
  <g
     inkscape:label="Shadings"
     inkscape:groupmode="layer"
     id="layer1"
     transform="translate(0,-308.26772)"
     style="display:inline">
    <path
       style="opacity:0.4;fill:#000000;fill-opacity:1;fill-rule:evenodd;stroke:none;stroke-width:1px;stroke-linecap:butt;stroke-linejoin:miter;stroke-opacity:1;filter:url(#filter4403)"
       d="M 435.45952,566.40069 C 489.21497,545.03618 543.41956,553.16538 561.75904,598.33581 537.4728,560.05518 498.49726,551.18537 435.45952,566.40069 Z"
       id="path4301"
       inkscape:connector-curvature="0"
       sodipodi:nodetypes="ccc" />
    <path
       style="opacity:0.6;fill:#ffffff;fill-opacity:1;fill-rule:evenodd;stroke:none;stroke-width:1px;stroke-linecap:butt;stroke-linejoin:miter;stroke-opacity:1;filter:url(#filter4409)"
       d="m 463.21497,594.88764 c 10.4818,-2.42327 25.92258,-5.49909 42.68156,3.13823 12.90198,9.72796 15.3332,19.8922 22.66559,29.85223 -7.51928,-10.07606 -15.92727,-19.15959 -25.00812,-26.63304 -13.86588,-8.86233 -26.23986,-6.6399 -40.33903,-6.35742 z"
       id="path4407"
       inkscape:connector-curvature="0"
       sodipodi:nodetypes="ccccc" />
    <path
       style="opacity:0.4;fill:#000000;fill-opacity:1;fill-rule:evenodd;stroke:none;stroke-width:0.30000001;stroke-linecap:butt;stroke-linejoin:miter;stroke-miterlimit:4;stroke-dasharray:none;stroke-opacity:1;filter:url(#filter4417)"
       d="m 439.66716,626.18116 c 7.25333,6.9674 14.13336,14.32803 30.1972,18.27468 17.92071,3.88182 34.87054,8.52952 52.28316,13.68157 10.99944,3.64456 21.07577,8.91391 34.39938,17.9815 4.21664,5.1143 6.99098,9.64225 9.77255,14.75656 -5.33417,-6.3644 -10.41753,-12.4698 -17.29742,-16.51562 -9.67977,-6.20013 -19.96426,-10.73726 -30.68581,-14.07248 l -45.73555,-12.31342 c -8.61263,-2.31133 -16.79584,-5.76778 -24.62684,-10.16345 -4.50454,-3.84387 -6.89446,-7.78547 -8.30667,-11.62934 z"
       id="path4415"
       inkscape:connector-curvature="0"
       sodipodi:nodetypes="cccccccccc" />
    <path
       style="opacity:0.6;fill:#ffffff;fill-opacity:1;fill-rule:evenodd;stroke:none;stroke-width:0.5;stroke-linecap:butt;stroke-linejoin:miter;stroke-miterlimit:4;stroke-dasharray:none;stroke-opacity:1;filter:url(#filter4423)"
       d="m 398.58256,647.42222 c 5.01391,11.46136 16.01994,21.42469 29.85223,30.68146 15.00867,6.89199 30.25674,11.77189 46.98962,15.20253 12.34116,2.60727 29.86689,6.6579 43.3963,15.75534 6.40085,5.40515 8.77457,11.22791 9.67433,16.99918 -4.66798,-5.05837 -6.41922,-10.99176 -14.37329,-15.06431 l -30.54326,-10.77997 c -14.32722,-4.37649 -30.49587,-6.54366 -43.81091,-12.43843 -9.78,-4.99707 -20.82142,-9.89028 -27.64095,-16.86099 -6.77124,-7.93811 -11.2208,-15.5506 -13.54407,-23.49481 z"
       id="path4421"
       inkscape:connector-curvature="0"
       sodipodi:nodetypes="cccccccccc" />
    <path
       style="display:inline;opacity:0.4;fill:#000000;fill-opacity:1;fill-rule:evenodd;stroke:none;stroke-width:0.5;stroke-linecap:butt;stroke-linejoin:miter;stroke-miterlimit:4;stroke-dasharray:none;stroke-opacity:1;filter:url(#filter4435)"
       d="m 430.36966,413.50867 9.25277,16.58457 c 4.03207,5.33483 8.24656,10.59365 15.34768,14.64971 7.08563,3.95882 15.10739,5.81134 23.2184,7.46306 8.41392,1.0725 16.10855,0.68755 23.2184,-0.82923 6.10441,-0.9901 10.43771,-3.75132 15.6102,-5.67334 l -10.91124,6.77897 c -7.89672,2.05403 -15.42963,3.88551 -25.33195,3.93393 -9.29651,0.19908 -16.49483,-2.12804 -23.49481,-4.69896 -4.52164,-3.11124 -8.26274,-5.73386 -11.75436,-8.84511 -3.0937,-4.19635 -6.41767,-8.33514 -8.52126,-12.77903 z"
       id="path4433"
       inkscape:connector-curvature="0"
       sodipodi:nodetypes="cccccccccccc"
       transform="translate(0,308.26772)" />
    <path
       style="display:inline;opacity:0.6;fill:#ffffff;fill-opacity:1;fill-rule:evenodd;stroke:none;stroke-width:0.5;stroke-linecap:butt;stroke-linejoin:miter;stroke-miterlimit:4;stroke-dasharray:none;stroke-opacity:1;filter:url(#filter4429)"
       d="m 391.1195,427.60556 c 0.84594,9.42108 4.70358,17.79145 9.39793,26.53531 5.8384,6.31381 10.73513,12.81594 18.24303,18.79585 9.68963,5.41003 14.24577,10.96267 36.20965,16.03175 16.20346,2.71805 32.11926,2.27172 47.95706,0.96744 l 14.92611,-5.38999 c -4.73337,2.48963 -7.54553,6.42814 -14.37329,8.5687 -14.82314,4.17505 -41.34435,3.51772 -51.41218,0.96743 -13.20576,-4.18285 -26.3643,-9.0742 -37.4535,-17.1374 -7.06902,-8.01274 -13.80699,-16.19646 -19.07225,-25.29146 -1.73863,-3.1109 -3.13971,-6.56526 -4.62986,-13.33677 z"
       id="path4427"
       inkscape:connector-curvature="0"
       sodipodi:nodetypes="cccccccccccc"
       transform="translate(0,308.26772)" />
    <path
       style="opacity:0.6;fill:#ffffff;fill-opacity:1;stroke:none;stroke-width:0.5;stroke-linecap:round;stroke-linejoin:round;stroke-miterlimit:4;stroke-dasharray:none;stroke-opacity:1;filter:url(#filter4476)"
       d="m 332.3928,495.16477 302.68902,0.55282 c -46.72284,8.37357 -50.38051,8.60059 -153.0995,8.1893 -111.53237,0.23558 -114.51887,0.0553 -149.58952,-8.74212 z"
       id="rect4457"
       inkscape:connector-curvature="0"
       sodipodi:nodetypes="cccc" />
    <path
       style="opacity:0.4;fill:#000000;fill-opacity:1;stroke:none;stroke-width:0.5;stroke-linecap:round;stroke-linejoin:round;stroke-miterlimit:4;stroke-dasharray:none;stroke-opacity:1;filter:url(#filter4513)"
       d="m 485.65157,854.56573 c 49.79043,2.37176 100.64928,4.29817 149.55396,9.04021 l -305.11992,0.13821 c 49.13587,-5.1746 99.83946,-9.12986 155.56596,-9.17842 z"
       id="rect4506"
       inkscape:connector-curvature="0"
       sodipodi:nodetypes="cccc" />
  </g>
  <g
     inkscape:groupmode="layer"
     id="layer4"
     inkscape:label="Spare Items"
     style="display:none">
    <path
       transform="translate(0,-308.26772)"
       style="display:inline;fill:#3bc136;fill-opacity:1;stroke:none;stroke-width:5;stroke-linecap:round;stroke-linejoin:round;stroke-miterlimit:10;stroke-dasharray:none;stroke-opacity:1"
       d="m 1227.3375,30.610655 c -4.4601,0 -8.7755,0.16741 -12.9453,0.5039 -4.1698,0.33649 -8.1947,0.84265 -12.0742,1.51563 -3.8796,0.67298 -7.6139,1.51396 -11.2031,2.52344 -3.5893,1.00947 -7.0331,2.18724 -10.3321,3.5332 -3.2989,1.31957 -6.4028,2.78465 -9.3125,4.39453 -2.9096,1.60988 -5.6261,3.36349 -8.1465,5.26367 -2.5203,1.90018 -4.8454,3.94623 -6.9765,6.13672 -2.1311,2.19049 -4.0668,4.52507 -5.8086,7.00586 -1.7419,2.48079 -3.2679,5.052 -4.5742,7.71094 -1.3064,2.65893 -2.3947,5.40706 -3.2657,8.24414 -0.8709,2.83708 -1.5235,5.76212 -1.9589,8.77734 -0.4355,3.01522 -0.6524,6.11914 -0.6524,9.3125 0,3.35171 0.2042,6.569185 0.6133,9.650385 0.4091,3.0812 1.0217,6.02721 1.8398,8.83789 0.8182,2.81069 1.8412,5.48522 3.0684,8.02539 1.2272,2.54018 2.6586,4.94518 4.2949,7.21485 1.6627,2.24327 3.4677,4.37242 5.4141,6.38476 1.9463,2.01235 4.0336,3.90803 6.2637,5.68946 2.23,1.78142 4.6034,3.44755 7.1171,4.99804 2.5138,1.5505 5.1693,2.98512 7.9668,4.30469 2.8239,1.29318 5.8162,2.54771 8.9766,3.76172 3.1604,1.214 6.4875,2.3886 9.9844,3.52344 6.9937,2.26966 14.6622,4.38101 23.0019,6.33398 6.2284,1.42514 11.8216,2.81029 16.7832,4.15625 4.9616,1.34596 9.2916,2.65313 12.9864,3.91992 1.8737,0.6334 3.6578,1.33864 5.3535,2.11719 1.6956,0.77855 3.3028,1.62903 4.8203,2.55273 1.5175,0.9237 2.9458,1.92139 4.2851,2.99024 1.3394,1.06885 2.5888,2.20982 3.75,3.42383 1.1877,1.18761 2.2265,2.46749 3.1172,3.83984 0.8907,1.37235 1.6328,2.83744 2.2266,4.39453 0.5938,1.5571 1.039,3.20543 1.3359,4.94727 0.2969,1.74183 0.4453,3.57733 0.4453,5.5039 0,2.42802 -0.2726,4.75626 -0.8203,6.98633 -0.5476,2.23008 -1.3696,4.36044 -2.4648,6.39258 -1.0953,2.03214 -2.4646,3.96658 -4.1074,5.80078 -1.6429,1.83421 -3.5595,3.56881 -5.75,5.20508 -2.1641,1.60988 -4.4924,3.01915 -6.9864,4.22656 -2.494,1.20741 -5.1526,2.21264 -7.9765,3.01758 -2.8239,0.80494 -5.813,1.40808 -8.9668,1.81055 -3.1538,0.40247 -6.4734,0.60547 -9.9571,0.60547 -2.5335,0 -4.9449,-0.0989 -7.2343,-0.29688 -2.2895,-0.19794 -4.4566,-0.49671 -6.502,-0.89258 -2.0453,-0.39587 -3.9683,-0.89057 -5.7695,-1.48437 -1.8012,-0.59381 -3.48,-1.28638 -5.0371,-2.07813 -1.5571,-0.81813 -3.0285,-1.68763 -4.4141,-2.61133 -1.3855,-0.9237 -2.6864,-1.90042 -3.9004,-2.92968 -1.214,-1.02927 -2.3423,-2.11127 -3.3847,-3.2461 -1.0425,-1.13483 -1.9983,-2.3221 -2.8692,-3.5625 -1.689,-2.48079 -3.3247,-5.26572 -4.9082,-8.35351 -1.5835,-3.0878 -3.1158,-6.47903 -4.5937,-10.17383 -1.214,-3.11419 -2.5592,-5.84648 -4.0371,-8.19531 -0.739,-1.17442 -1.5115,-2.25325 -2.3165,-3.23633 -0.8049,-0.98308 -1.6427,-1.87037 -2.5136,-2.66211 -0.8445,-0.79174 -1.7382,-1.48432 -2.6817,-2.07813 -0.9435,-0.5938 -1.936,-1.0885 -2.9785,-1.48437 -1.0424,-0.39587 -2.1339,-0.69269 -3.2754,-0.89063 -1.1414,-0.19793 -2.3338,-0.29687 -3.5742,-0.29687 -1.5307,0 -2.9938,0.1294 -4.3926,0.38672 -1.3987,0.25731 -2.7332,0.64162 -4,1.15625 -1.2668,0.51463 -2.4667,1.15969 -3.6015,1.93164 -1.1349,0.77195 -2.2042,1.6719 -3.2071,2.70117 -0.9764,1.00287 -1.8301,2.05758 -2.5625,3.16602 -0.7323,1.10844 -1.3438,2.27037 -1.832,3.48437 -0.4882,1.21401 -0.8535,2.48121 -1.0976,3.80078 -0.2442,1.31957 -0.3653,2.69205 -0.3653,4.11719 0,2.4544 0.2042,4.92788 0.6133,7.42188 0.4091,2.49399 1.0217,5.00743 1.8398,7.54101 0.8182,2.53358 1.8412,5.08699 3.0684,7.66016 1.2272,2.57316 2.6587,5.16654 4.2949,7.77929 1.6627,2.58636 3.4468,5.04401 5.3535,7.37305 1.9068,2.32904 3.937,4.52984 6.0879,6.60156 2.1509,2.07173 4.4234,4.01372 6.8184,5.82813 2.395,1.81441 4.9116,3.5015 7.5508,5.05859 1.8606,1.08205 3.7835,2.09618 5.7695,3.04297 1.986,0.94679 4.0352,1.82518 6.1465,2.63672 4.2226,1.62307 8.6958,2.97654 13.4199,4.05859 4.7241,1.08205 9.6983,1.89257 14.9238,2.4336 5.2255,0.54102 10.7028,0.8125 16.4297,0.8125 4.7769,0 9.3922,-0.19788 13.8457,-0.59375 4.4536,-0.39587 8.7448,-0.98951 12.875,-1.78125 4.1303,-0.79175 8.0993,-1.78114 11.9063,-2.96875 3.8069,-1.18762 7.4519,-2.57472 10.9355,-4.15821 3.4837,-1.58348 6.757,-3.31809 9.8184,-5.20507 3.0614,-1.88699 5.9116,-3.9267 8.5508,-6.11719 2.6391,-2.19049 5.0663,-4.5314 7.2832,-7.02539 2.2168,-2.49399 4.2229,-5.14001 6.0175,-7.9375 1.8211,-2.79749 3.4155,-5.68453 4.7813,-8.66016 1.3658,-2.97563 2.5036,-6.03958 3.4141,-9.19336 0.9105,-3.15377 1.5935,-6.3966 2.0488,-9.72851 0.4552,-3.33192 0.6816,-6.75362 0.6816,-10.26368 0,-2.92944 -0.1306,-5.74288 -0.3945,-8.4414 -0.2639,-2.69853 -0.6597,-5.2824 -1.1875,-7.75 -0.5278,-2.4676 -1.1887,-4.81997 -1.9805,-7.05664 -0.7917,-2.23668 -1.7158,-4.35754 -2.7715,-6.36328 -1.0292,-2.03214 -2.1639,-3.97413 -3.4043,-5.82813 -1.2404,-1.854 -2.5855,-3.61906 -4.0371,-5.29492 -1.4515,-1.67586 -3.0092,-3.26401 -4.6718,-4.76172 -1.6627,-1.49771 -3.4309,-2.90504 -5.3047,-4.22461 -1.8474,-1.31957 -3.7977,-2.58994 -5.8496,-3.81055 -2.052,-1.2206 -4.2045,-2.39203 -6.461,-3.51367 -2.2564,-1.12163 -4.6151,-2.19413 -7.0761,-3.21679 -2.461,-1.02267 -5.0259,-1.99623 -7.6915,-2.91993 -5.2782,-1.8474 -10.8734,-3.61563 -16.7851,-5.30468 -5.9117,-1.68906 -12.1385,-3.29743 -18.6836,-4.82813 -10.451,-2.63914 -17.947,-4.64522 -22.4863,-6.01758 -2.2697,-0.68617 -4.5263,-1.50498 -6.7696,-2.45508 -2.2432,-0.95009 -4.4725,-2.03208 -6.6894,-3.24609 -2.2169,-1.214 -4.1976,-2.54652 -5.9395,-3.99805 -1.7418,-1.45152 -3.2449,-3.02188 -4.5117,-4.71093 -0.6334,-0.84453 -1.187,-1.72865 -1.6621,-2.65235 -0.475,-0.923695 -0.8708,-1.887745 -1.1875,-2.890615 -0.3167,-1.00288 -0.5545,-2.04491 -0.7129,-3.12696 -0.1583,-1.08204 -0.2383,-2.20401 -0.2383,-3.36523 0,-1.87379 0.2315,-3.67687 0.6934,-5.41211 0.4618,-1.73524 1.1544,-3.40136 2.0781,-4.99805 0.9237,-1.59668 2.0774,-3.1239 3.4629,-4.58203 1.3856,-1.45812 3.0022,-2.84839 4.8496,-4.16797 1.8738,-1.34596 3.8926,-2.52373 6.0567,-3.5332 2.1641,-1.00947 4.4733,-1.85045 6.9277,-2.52344 2.4544,-0.67298 5.0541,-1.17718 7.7988,-1.51367 2.7447,-0.33649 5.6349,-0.5039 8.6699,-0.5039 3.2726,0 6.3207,0.15474 9.1446,0.46484 2.8239,0.3101 5.4236,0.77433 7.7988,1.39453 2.3752,0.6202 4.5266,1.39587 6.4531,2.32617 1.9266,0.9303 3.6295,2.01546 5.1074,3.25586 1.478,1.21401 2.9031,2.54969 4.2754,4.00781 1.3724,1.45813 2.6903,3.03799 3.9571,4.74024 1.2668,1.70225 2.4813,3.52824 3.6425,5.47461 1.1613,1.94637 2.2706,4.01459 3.3262,6.20508 1.6363,3.0614 3.2066,5.69913 4.711,7.91601 1.5043,2.216875 2.9421,4.012405 4.3144,5.384765 0.7126,0.65978 1.5041,1.23758 2.375,1.73242 0.8709,0.49484 1.8204,0.90643 2.8496,1.23633 1.0293,0.32989 2.1386,0.57724 3.3262,0.74219 1.1876,0.16494 2.4548,0.24804 3.8008,0.24804 1.4779,0 2.8935,-0.1389 4.2461,-0.41601 1.3525,-0.27711 2.6419,-0.69188 3.8691,-1.2461 1.2272,-0.55422 2.3923,-1.24875 3.4941,-2.08008 1.1019,-0.83133 2.1408,-1.79976 3.1172,-2.9082 1.0029,-1.13483 1.8807,-2.30309 2.6328,-3.503905 0.7522,-1.20081 1.3775,-2.43438 1.879,-3.70117 0.5014,-1.26679 0.8781,-2.56762 1.1289,-3.90039 0.2507,-1.33276 0.3769,-2.69695 0.3769,-4.0957 0,-1.5307 -0.099,-3.07255 -0.2969,-4.62305 -0.1979,-1.55049 -0.4967,-3.11135 -0.8925,-4.68164 -0.3959,-1.57029 -0.8906,-3.15015 -1.4844,-4.74023 -0.5938,-1.59009 -1.2864,-3.18895 -2.0781,-4.79883 -0.7918,-1.60988 -1.6981,-3.20119 -2.7207,-4.77149 -1.0227,-1.57029 -2.1605,-3.11968 -3.4141,-4.65039 -1.2536,-1.5307 -2.6229,-3.04208 -4.1074,-4.5332 -1.4845,-1.49111 -3.0854,-2.96253 -4.8008,-4.41406 -1.7155,-1.47792 -3.5427,-2.87891 -5.4824,-4.20508 -1.9398,-1.32617 -3.9922,-2.57753 -6.1563,-3.75195 -2.1641,-1.17442 -4.4397,-2.27226 -6.8281,-3.29492 -2.3884,-1.02267 -4.8892,-1.97088 -7.502,-2.8418 -2.5863,-0.89731 -5.2945,-1.68249 -8.125,-2.35547 -2.8304,-0.67298 -5.7828,-1.23299 -8.8574,-1.68164 -3.0746,-0.44865 -6.2711,-0.78544 -9.5898,-1.00977 -3.3187,-0.22432 -6.7594,-0.33593 -10.3223,-0.33593 z"
       id="path4295"
       inkscape:connector-curvature="0" />
    <text
       transform="translate(0,-308.26772)"
       sodipodi:linespacing="125%"
       id="text4288"
       y="256.24536"
       x="864.24103"
       style="font-style:normal;font-variant:normal;font-weight:normal;font-stretch:normal;font-size:324.29788208px;line-height:125%;font-family:'Arial Rounded MT Bold';-inkscape-font-specification:'Arial Rounded MT Bold, Normal';text-align:start;letter-spacing:0px;word-spacing:0px;writing-mode:lr-tb;text-anchor:start;display:inline;fill:#000000;fill-opacity:1;stroke:none;stroke-width:1px;stroke-linecap:butt;stroke-linejoin:miter;stroke-opacity:1"
       xml:space="preserve"><tspan
         y="256.24536"
         x="864.24103"
         id="tspan4290"
         sodipodi:role="line">S</tspan></text>
    <rect
       transform="translate(0,-308.26772)"
       y="341.68381"
       x="1141.4161"
       height="369.28314"
       width="306.26178"
       id="rect4292"
       style="display:inline;fill:#3bc136;fill-opacity:1;stroke:none;stroke-width:5;stroke-linecap:round;stroke-linejoin:round;stroke-miterlimit:10;stroke-dasharray:none;stroke-opacity:1" />
  </g>
</svg>
