<?xml version="1.0" encoding="UTF-8" standalone="no"?>
<!-- Created with Inkscape (http://www.inkscape.org/) -->

<svg
   xmlns:dc="http://purl.org/dc/elements/1.1/"
   xmlns:cc="http://creativecommons.org/ns#"
   xmlns:rdf="http://www.w3.org/1999/02/22-rdf-syntax-ns#"
   xmlns:svg="http://www.w3.org/2000/svg"
   xmlns="http://www.w3.org/2000/svg"
   xmlns:xlink="http://www.w3.org/1999/xlink"
   xmlns:sodipodi="http://sodipodi.sourceforge.net/DTD/sodipodi-0.dtd"
   xmlns:inkscape="http://www.inkscape.org/namespaces/inkscape"
   width="297mm"
   height="210mm"
   viewBox="0 0 1052.3622 744.09448"
   id="svg4543"
   version="1.1"
   inkscape:version="0.91 r13725"
   sodipodi:docname="S2.svg"
   inkscape:export-filename="C:\Users\chaush01\mydev\inkscape work\S2.png"
   inkscape:export-xdpi="90"
   inkscape:export-ydpi="90">
  <defs
     id="defs4545">
    <linearGradient
       inkscape:collect="always"
       id="linearGradient5168">
      <stop
         style="stop-color:#c8c8c8;stop-opacity:1"
         offset="0"
         id="stop5170" />
      <stop
         style="stop-color:#ffffff;stop-opacity:1"
         offset="1"
         id="stop5172" />
    </linearGradient>
    <linearGradient
       inkscape:collect="always"
       id="linearGradient5157">
      <stop
         style="stop-color:#406588;stop-opacity:1"
         offset="0"
         id="stop5159" />
      <stop
         style="stop-color:#97bbdc;stop-opacity:1"
         offset="1"
         id="stop5161" />
    </linearGradient>
    <filter
       inkscape:collect="always"
       style="color-interpolation-filters:sRGB"
       id="filter5135"
       x="-0.052880964"
       width="1.1057619"
       y="-0.043943933"
       height="1.0878879">
      <feGaussianBlur
         inkscape:collect="always"
         stdDeviation="6.0874219"
         id="feGaussianBlur5137" />
    </filter>
    <filter
       inkscape:collect="always"
       style="color-interpolation-filters:sRGB"
       id="filter5139"
       x="-0.055001317"
       width="1.1100026"
       y="-0.042579856"
       height="1.0851597">
      <feGaussianBlur
         inkscape:collect="always"
         stdDeviation="5.9448242"
         id="feGaussianBlur5141" />
    </filter>
    <linearGradient
       inkscape:collect="always"
       xlink:href="#linearGradient5157"
       id="linearGradient5163"
       x1="834.57367"
       y1="664.44165"
       x2="834.57367"
       y2="81.215698"
       gradientUnits="userSpaceOnUse" />
    <linearGradient
       inkscape:collect="always"
       xlink:href="#linearGradient5168"
       id="linearGradient5176"
       x1="390.9021"
       y1="618.224"
       x2="548.82654"
       y2="289.86621"
       gradientUnits="userSpaceOnUse" />
  </defs>
  <sodipodi:namedview
     id="base"
     pagecolor="#ffffff"
     bordercolor="#666666"
     borderopacity="1.0"
     inkscape:pageopacity="0.0"
     inkscape:pageshadow="2"
     inkscape:zoom="0.63954628"
     inkscape:cx="531.6315"
     inkscape:cy="309.64875"
     inkscape:document-units="px"
     inkscape:current-layer="layer7"
     showgrid="false"
     inkscape:window-width="1600"
     inkscape:window-height="848"
     inkscape:window-x="1592"
     inkscape:window-y="-8"
     inkscape:window-maximized="1" />
  <metadata
     id="metadata4548">
    <rdf:RDF>
      <cc:Work
         rdf:about="">
        <dc:format>image/svg+xml</dc:format>
        <dc:type
           rdf:resource="http://purl.org/dc/dcmitype/StillImage" />
        <dc:title />
      </cc:Work>
    </rdf:RDF>
  </metadata>
  <g
     inkscape:groupmode="layer"
     id="layer7"
     inkscape:label="S color"
     style="display:inline">
    <ellipse
       style="opacity:1;fill:url(#linearGradient5176);fill-opacity:1;stroke:none;stroke-width:0.5;stroke-linecap:round;stroke-linejoin:round;stroke-miterlimit:4;stroke-dasharray:none;stroke-opacity:1"
       id="path5166"
       cx="523.02704"
       cy="377.42828"
       rx="207.17812"
       ry="243.14111" />
  </g>
  <g
     inkscape:label="S Cutout"
     inkscape:groupmode="layer"
     id="layer1"
     transform="translate(0,-308.26772)"
     style="display:inline">
    <path
       style="opacity:1;fill:url(#linearGradient5163);fill-opacity:1;stroke:none;stroke-width:0.5;stroke-linecap:round;stroke-linejoin:round;stroke-miterlimit:4;stroke-dasharray:none;stroke-opacity:1"
       d="m 204.43945,81.816406 0,580.460934 643.48243,0 0,-580.460934 -643.48243,0 z M 525.33203,188.08008 c 21.84309,0 40.69237,2.75073 56.54883,8.25195 16.01826,5.33942 29.28569,12.53877 39.80273,21.59961 10.51705,8.89904 18.20263,18.28446 23.05664,28.1543 4.85402,9.86984 7.28125,19.49642 7.28125,28.88086 0,8.57543 -3.07423,16.3414 -9.22265,23.29882 -5.98663,6.79563 -13.50948,10.19336 -22.57031,10.19336 -8.25184,0 -14.56303,-2.02139 -18.93164,-6.0664 -4.20682,-4.20682 -8.81817,-11.00228 -13.83399,-20.38672 -6.47203,-13.42945 -14.23799,-23.86576 -23.29883,-31.30859 -9.06083,-7.60463 -23.62226,-11.40821 -43.68554,-11.40821 -18.60708,0 -33.65474,4.12708 -45.14258,12.37891 -11.32605,8.09003 -16.99024,17.87934 -16.99024,29.36719 0,7.11922 1.94296,13.26769 5.82618,18.44531 3.88321,5.17762 9.22195,9.62624 16.01757,13.34765 6.79563,3.72142 13.67148,6.63488 20.62891,8.73829 6.95743,2.1034 18.44658,5.17764 34.46484,9.22265 20.06328,4.69222 38.18322,9.86823 54.36328,15.53125 16.34187,5.66302 30.17591,12.54083 41.50196,20.63086 11.48784,8.09003 20.38704,18.36362 26.69726,30.82227 6.47203,12.29685 9.70899,27.42489 9.70899,45.38476 0,21.51949 -5.58185,40.85499 -16.7461,58.00586 -11.00244,17.15087 -27.18333,30.58103 -48.54101,40.28906 -21.35769,9.70804 -46.67893,14.56055 -75.96485,14.56055 -35.11074,0 -64.07282,-6.63274 -86.88671,-19.90039 -16.18007,-9.54624 -29.36711,-22.24705 -39.56055,-38.10351 -10.03164,-16.01827 -15.04688,-31.55215 -15.04688,-46.59961 0,-8.73724 2.9919,-16.1797 8.97852,-22.32813 6.14842,-6.31022 13.91634,-9.46484 23.30078,-9.46484 7.60463,0 13.99426,2.42723 19.17188,7.28125 5.33942,4.85402 9.87038,12.05337 13.59179,21.59961 4.53042,11.32604 9.38488,20.79185 14.5625,28.39648 5.33942,7.60463 12.78189,13.91387 22.32813,18.92969 9.54624,4.85402 22.08628,7.28125 37.61914,7.28125 21.35768,0 38.66985,-4.93485 51.9375,-14.80469 13.42945,-10.03164 20.14453,-22.48934 20.14453,-37.375 0,-11.81145 -3.64085,-21.35764 -10.92188,-28.63867 -7.11922,-7.44283 -16.42231,-13.10702 -27.91015,-16.99023 -11.32605,-3.88322 -26.53643,-8.00834 -45.62891,-12.37696 -25.5645,-5.98662 -47.00178,-12.94481 -64.31445,-20.87304 -17.15087,-8.09004 -30.82414,-19.01062 -41.01758,-32.76368 -10.03164,-13.91485 -15.04687,-31.14663 -15.04687,-51.69531 0,-19.57788 5.33873,-36.97238 16.01757,-52.18164 10.67885,-15.20926 26.13235,-26.85919 46.35743,-34.94922 20.22508,-8.25183 44.0092,-12.37695 71.35351,-12.37695 z"
       transform="translate(0,308.26772)"
       id="rect5091"
       inkscape:connector-curvature="0" />
  </g>
  <g
     inkscape:groupmode="layer"
     id="layer5"
     inkscape:label="Shading"
     style="display:inline">
    <path
       transform="translate(0,-308.26772)"
       style="font-style:normal;font-variant:normal;font-weight:normal;font-stretch:normal;font-size:497.05157471px;line-height:125%;font-family:'Arial Rounded MT Bold';-inkscape-font-specification:'Arial Rounded MT Bold, Normal';text-align:start;letter-spacing:0px;word-spacing:0px;writing-mode:lr-tb;text-anchor:start;display:inline;opacity:0.6;fill:#000000;fill-opacity:1;stroke:none;stroke-width:1px;stroke-linecap:butt;stroke-linejoin:miter;stroke-opacity:1;filter:url(#filter5135)"
       d="m 531.33203,490.3478 c -27.34431,0 -51.12843,4.12512 -71.35351,12.37695 -16.28927,6.51571 -29.4773,15.3448 -39.57422,26.47852 9.14956,-8.34813 20.33279,-15.18195 33.57422,-20.47852 20.22508,-8.25183 44.0092,-12.37695 71.35351,-12.37695 21.84309,0 40.69237,2.75073 56.54883,8.25195 16.01826,5.33942 29.28569,12.53877 39.80273,21.59961 10.51705,8.89904 18.20263,18.28446 23.05664,28.1543 4.85402,9.86984 7.28125,19.49642 7.28125,28.88086 0,7.88722 -2.60744,15.08892 -7.80859,21.60742 1.61704,-1.24102 3.1466,-2.67476 4.58594,-4.3086 6.14842,-6.95742 9.22265,-14.72339 9.22265,-23.29882 0,-9.38444 -2.42723,-19.01102 -7.28125,-28.88086 -4.85401,-9.86984 -12.53959,-19.25526 -23.05664,-28.1543 -10.51704,-9.06084 -23.78447,-16.26019 -39.80273,-21.59961 -15.85646,-5.50122 -34.70574,-8.25195 -56.54883,-8.25195 z m -59.4082,72.23437 c -9.04248,7.55189 -13.57813,16.45608 -13.57813,26.72071 0,7.11922 1.94296,13.26769 5.82618,18.44531 3.88321,5.17762 9.22195,9.62624 16.01757,13.34765 6.79563,3.72142 13.67148,6.63488 20.62891,8.73829 6.95743,2.1034 18.44658,5.17764 34.46484,9.22265 20.06328,4.69222 38.18322,9.86823 54.36328,15.53125 16.34187,5.66302 30.17591,12.54083 41.50196,20.63086 11.48784,8.09003 20.38704,18.36362 26.69726,30.82227 6.47203,12.29685 9.70899,27.42489 9.70899,45.38476 0,21.51949 -5.58185,40.85499 -16.7461,58.00586 -3.04659,4.7491 -6.50513,9.20244 -10.3457,13.38086 6.33152,-5.82572 11.78976,-12.27895 16.3457,-19.38086 11.16425,-17.15087 16.7461,-36.48637 16.7461,-58.00586 0,-17.95987 -3.23696,-33.08791 -9.70899,-45.38476 -6.31022,-12.45865 -15.20942,-22.73224 -26.69726,-30.82227 -11.32605,-8.09003 -25.16009,-14.96784 -41.50196,-20.63086 -16.18006,-5.66302 -34.3,-10.83903 -54.36328,-15.53125 -16.01826,-4.04501 -27.50741,-7.11925 -34.46484,-9.22265 -6.95743,-2.10341 -13.83328,-5.01687 -20.62891,-8.73829 -6.79562,-3.72141 -12.13436,-8.17003 -16.01757,-13.34765 -3.88322,-5.17762 -5.82618,-11.32609 -5.82618,-18.44531 0,-7.66453 2.53648,-14.56867 7.57813,-20.72071 z m -48.83594,159.30274 c -9.38444,0 -17.15236,3.15462 -23.30078,9.46484 -0.90889,0.93345 -1.73887,1.90141 -2.50977,2.89453 5.51715,-4.23742 12.12036,-6.35937 19.81055,-6.35937 7.60463,0 13.99426,2.42723 19.17188,7.28125 5.33942,4.85402 9.87038,12.05337 13.59179,21.59961 4.53042,11.32604 9.38488,20.79185 14.5625,28.39648 5.33942,7.60463 12.78189,13.91387 22.32813,18.92969 9.54624,4.85402 22.08628,7.28125 37.61914,7.28125 21.35768,0 38.66985,-4.93485 51.9375,-14.80469 3.72408,-2.78184 6.91215,-5.75699 9.60351,-8.91211 -1.14802,0.9902 -2.33582,1.96516 -3.60351,2.91211 -13.26765,9.86984 -30.57982,14.80469 -51.9375,14.80469 -15.53286,0 -28.0729,-2.42723 -37.61914,-7.28125 -9.54624,-5.01582 -16.98871,-11.32506 -22.32813,-18.92969 -5.17762,-7.60463 -10.03208,-17.07044 -14.5625,-28.39648 -3.72141,-9.54624 -8.25237,-16.74559 -13.59179,-21.59961 -5.17762,-4.85402 -11.56725,-7.28125 -19.17188,-7.28125 z"
       id="text5093"
       inkscape:connector-curvature="0" />
    <path
       transform="translate(0,-308.26772)"
       style="font-style:normal;font-variant:normal;font-weight:normal;font-stretch:normal;font-size:497.05157471px;line-height:125%;font-family:'Arial Rounded MT Bold';-inkscape-font-specification:'Arial Rounded MT Bold, Normal';text-align:start;letter-spacing:0px;word-spacing:0px;writing-mode:lr-tb;text-anchor:start;display:inline;opacity:0.6;fill:#ffffff;fill-opacity:1;stroke:none;stroke-width:1px;stroke-linecap:butt;stroke-linejoin:miter;stroke-opacity:1;filter:url(#filter5139)"
       d="m 414.4043,535.20327 c -4.82557,4.40288 -9.09584,9.21899 -12.78321,14.4707 -10.67884,15.20926 -16.01757,32.60376 -16.01757,52.18164 0,20.54868 5.01523,37.78046 15.04687,51.69531 10.19344,13.75306 23.86671,24.67364 41.01758,32.76368 17.31267,7.92823 38.74995,14.88642 64.31445,20.87304 19.09248,4.36862 34.30286,8.49374 45.62891,12.37696 11.48784,3.88321 20.79093,9.5474 27.91015,16.99023 7.28103,7.28103 10.92188,16.82722 10.92188,28.63867 0,10.75776 -3.52701,20.24031 -10.54102,28.46289 11.01374,-9.49964 16.54102,-20.98238 16.54102,-34.46289 0,-11.81145 -3.64085,-21.35764 -10.92188,-28.63867 -7.11922,-7.44283 -16.42231,-13.10702 -27.91015,-16.99023 -11.32605,-3.88322 -26.53643,-8.00834 -45.62891,-12.37696 -25.5645,-5.98662 -47.00178,-12.94481 -64.31445,-20.87304 -17.15087,-8.09004 -30.82414,-19.01062 -41.01758,-32.76368 -10.03164,-13.91485 -15.04687,-31.14663 -15.04687,-51.69531 0,-19.57788 5.33873,-36.97238 16.01757,-52.18164 2.07812,-2.95974 4.34358,-5.78057 6.78321,-8.4707 z m 106.07422,12.35351 c -18.60708,0 -33.65474,4.12708 -45.14258,12.37891 -3.76947,2.69247 -6.89718,5.57765 -9.41211,8.64648 1.07757,-0.89994 2.20612,-1.78506 3.41211,-2.64648 11.48784,-8.25183 26.5355,-12.37891 45.14258,-12.37891 20.06328,0 34.62471,3.80358 43.68554,11.40821 9.06084,7.44283 16.8268,17.87914 23.29883,31.30859 5.01582,9.38444 9.62717,16.1799 13.83399,20.38672 4.36861,4.04501 10.6798,6.0664 18.93164,6.0664 9.06083,0 16.58368,-3.39773 22.57031,-10.19336 0.49344,-0.55836 0.96022,-1.12262 1.41406,-1.6914 -5.1087,3.92076 -11.10199,5.88476 -17.98437,5.88476 -8.25184,0 -14.56303,-2.02139 -18.93164,-6.0664 -4.20682,-4.20682 -8.81817,-11.00228 -13.83399,-20.38672 -6.47203,-13.42945 -14.23799,-23.86576 -23.29883,-31.30859 -9.06083,-7.60463 -23.62226,-11.40821 -43.68554,-11.40821 z m -129.20118,192.6875 c -1.2155,0.93356 -2.3802,1.96623 -3.49023,3.10547 -5.98662,6.14843 -8.97852,13.59089 -8.97852,22.32813 0,15.04746 5.01524,30.58134 15.04688,46.59961 10.19344,15.85646 23.38048,28.55727 39.56055,38.10351 22.81389,13.26765 51.77597,19.90039 86.88671,19.90039 29.28592,0 54.60716,-4.85251 75.96485,-14.56055 15.44371,-7.01986 28.16606,-15.99668 38.19531,-26.9082 -8.95887,8.24319 -19.68152,15.22012 -32.19531,20.9082 -21.35769,9.70804 -46.67893,14.56055 -75.96485,14.56055 -35.11074,0 -64.07282,-6.63274 -86.88671,-19.90039 -16.18007,-9.54624 -29.36711,-22.24705 -39.56055,-38.10351 -10.03164,-16.01827 -15.04688,-31.55215 -15.04688,-46.59961 0,-7.41076 2.16191,-13.88526 6.46875,-19.4336 z"
       id="text5101"
       inkscape:connector-curvature="0" />
  </g>
  <g
     inkscape:groupmode="layer"
     id="layer6"
     inkscape:label="spare Items"
     style="display:inline">
    <text
       transform="translate(0,-308.26772)"
       xml:space="preserve"
       style="font-style:normal;font-variant:normal;font-weight:normal;font-stretch:normal;font-size:497.05157471px;line-height:125%;font-family:'Arial Rounded MT Bold';-inkscape-font-specification:'Arial Rounded MT Bold, Normal';text-align:start;letter-spacing:0px;word-spacing:0px;writing-mode:lr-tb;text-anchor:start;display:inline;fill:#ffe336;fill-opacity:1;stroke:none;stroke-width:1px;stroke-linecap:butt;stroke-linejoin:miter;stroke-opacity:1"
       x="1112.832"
       y="670.11035"
       id="text5144"
       sodipodi:linespacing="125%"><tspan
         sodipodi:role="line"
         id="tspan5146"
         x="1112.832"
         y="670.11035">S</tspan></text>
  </g>
</svg>
