<?xml version="1.0" encoding="UTF-8" standalone="no"?>
<!-- Created with Inkscape (http://www.inkscape.org/) -->

<svg
   xmlns:dc="http://purl.org/dc/elements/1.1/"
   xmlns:cc="http://creativecommons.org/ns#"
   xmlns:rdf="http://www.w3.org/1999/02/22-rdf-syntax-ns#"
   xmlns:svg="http://www.w3.org/2000/svg"
   xmlns="http://www.w3.org/2000/svg"
   xmlns:xlink="http://www.w3.org/1999/xlink"
   xmlns:sodipodi="http://sodipodi.sourceforge.net/DTD/sodipodi-0.dtd"
   xmlns:inkscape="http://www.inkscape.org/namespaces/inkscape"
   width="297mm"
   height="210mm"
   viewBox="0 0 1052.3622 744.09448"
   id="svg2"
   version="1.1"
   inkscape:version="0.91 r13725"
   sodipodi:docname="S4.svg"
   inkscape:export-filename="C:\Users\chaush01\mydev\inkscape work\S4.png"
   inkscape:export-xdpi="90"
   inkscape:export-ydpi="90">
  <defs
     id="defs4">
    <linearGradient
       inkscape:collect="always"
       id="linearGradient4294">
      <stop
         style="stop-color:#dddddd;stop-opacity:1"
         offset="0"
         id="stop4296" />
      <stop
         style="stop-color:#dddddd;stop-opacity:1"
         offset="1"
         id="stop4298" />
    </linearGradient>
    <linearGradient
       inkscape:collect="always"
       id="linearGradient4203">
      <stop
         style="stop-color:#99ffb4;stop-opacity:1"
         offset="0"
         id="stop4205" />
      <stop
         style="stop-color:#00806a;stop-opacity:1"
         offset="1"
         id="stop4207" />
    </linearGradient>
    <linearGradient
       id="linearGradient4185"
       inkscape:collect="always">
      <stop
         id="stop4187"
         offset="0"
         style="stop-color:#ffffff;stop-opacity:1" />
      <stop
         id="stop4189"
         offset="1"
         style="stop-color:#800028;stop-opacity:1" />
    </linearGradient>
    <radialGradient
       inkscape:collect="always"
       xlink:href="#linearGradient4203"
       id="radialGradient4177"
       gradientUnits="userSpaceOnUse"
       gradientTransform="matrix(1.4159361,0.00588429,-0.00445214,1.0713184,-275.45606,37.411071)"
       cx="666.90588"
       cy="434.4375"
       fx="666.90588"
       fy="434.4375"
       r="526.28375" />
    <radialGradient
       inkscape:collect="always"
       xlink:href="#linearGradient4185"
       id="radialGradient4197"
       gradientUnits="userSpaceOnUse"
       gradientTransform="matrix(1.4159361,0.00588429,-0.00445214,1.0713184,-1909.4534,-412.38922)"
       cx="666.90588"
       cy="434.4375"
       fx="666.90588"
       fy="434.4375"
       r="526.28375" />
    <radialGradient
       inkscape:collect="always"
       xlink:href="#linearGradient4185"
       id="radialGradient4199"
       gradientUnits="userSpaceOnUse"
       gradientTransform="matrix(1.4159361,0.00588429,-0.00445214,1.0713184,-1965.8287,382.60641)"
       cx="666.90588"
       cy="434.4375"
       fx="666.90588"
       fy="434.4375"
       r="526.28375" />
    <radialGradient
       inkscape:collect="always"
       xlink:href="#linearGradient4294"
       id="radialGradient4201"
       gradientUnits="userSpaceOnUse"
       gradientTransform="matrix(1.4159361,0.00588429,-0.00445214,1.0713184,-275.45604,37.409269)"
       cx="666.90588"
       cy="434.4375"
       fx="666.90588"
       fy="434.4375"
       r="526.28375" />
    <filter
       inkscape:collect="always"
       style="color-interpolation-filters:sRGB"
       id="filter4290"
       x="-0.0022450527"
       width="1.0044901"
       y="-0.009080036"
       height="1.0181601">
      <feGaussianBlur
         inkscape:collect="always"
         stdDeviation="0.75598242"
         id="feGaussianBlur4292" />
    </filter>
    <filter
       inkscape:collect="always"
       style="color-interpolation-filters:sRGB"
       id="filter4312"
       x="-0.0030304642"
       width="1.0060609"
       y="-0.011536125"
       height="1.0230722">
      <feGaussianBlur
         inkscape:collect="always"
         stdDeviation="0.99908399"
         id="feGaussianBlur4314" />
    </filter>
    <radialGradient
       inkscape:collect="always"
       xlink:href="#linearGradient4294"
       id="radialGradient4321"
       gradientUnits="userSpaceOnUse"
       gradientTransform="matrix(1.4159361,0.00588429,-0.00445214,1.0713184,-275.45603,37.409292)"
       cx="666.90588"
       cy="434.4375"
       fx="666.90588"
       fy="434.4375"
       r="526.28375" />
  </defs>
  <sodipodi:namedview
     id="base"
     pagecolor="#ffffff"
     bordercolor="#666666"
     borderopacity="1.0"
     inkscape:pageopacity="0.0"
     inkscape:pageshadow="2"
     inkscape:zoom="0.22611376"
     inkscape:cx="-1156.3759"
     inkscape:cy="162.75107"
     inkscape:document-units="px"
     inkscape:current-layer="layer1"
     showgrid="false"
     inkscape:window-width="1600"
     inkscape:window-height="848"
     inkscape:window-x="1592"
     inkscape:window-y="-8"
     inkscape:window-maximized="1" />
  <metadata
     id="metadata7">
    <rdf:RDF>
      <cc:Work
         rdf:about="">
        <dc:format>image/svg+xml</dc:format>
        <dc:type
           rdf:resource="http://purl.org/dc/dcmitype/StillImage" />
        <dc:title />
      </cc:Work>
    </rdf:RDF>
  </metadata>
  <g
     inkscape:label="Background Cut out"
     inkscape:groupmode="layer"
     id="layer1"
     transform="translate(0,-308.26772)"
     style="display:inline">
    <path
       d="M 1052.4648,680.31494 A 526.28375,371.49442 0 0 1 549.58411,1051.4419 526.28375,371.49442 0 0 1 1.9787296,713.32181 526.28375,371.49442 0 0 1 456.15716,312.12354 526.28375,371.49442 0 0 1 1044.1557,614.56229"
       sodipodi:open="true"
       sodipodi:end="6.1052529"
       sodipodi:start="0"
       sodipodi:ry="371.49442"
       sodipodi:rx="526.28375"
       sodipodi:cy="680.31494"
       sodipodi:cx="526.18109"
       sodipodi:type="arc"
       id="path4318"
       style="display:inline;opacity:1;fill:url(#radialGradient4321);fill-opacity:1;stroke:none;stroke-width:0.5;stroke-linecap:round;stroke-linejoin:round;stroke-miterlimit:4;stroke-dasharray:none;stroke-opacity:1" />
    <path
       style="opacity:1;fill:url(#radialGradient4177);fill-opacity:1;stroke:#204b00;stroke-width:4.19999981;stroke-linecap:round;stroke-linejoin:round;stroke-miterlimit:4;stroke-dasharray:none;stroke-opacity:1"
       d="m 508.58008,309.02923 a 526.28375,371.49442 0 0 0 -52.42383,3.0957 A 526.28375,371.49442 0 0 0 1.978455,713.32415 526.28375,371.49442 0 0 0 549.58397,1051.4434 526.28375,371.49442 0 0 0 1052.4647,680.31634 l -8.3086,-65.75196 A 526.28375,371.49442 0 0 0 508.58008,309.02923 Z M 221.08397,575.70696 c 14.14024,0 25.8764,3.27144 35.20704,9.8125 9.42682,6.44487 14.13867,11.83151 14.13867,16.16016 0,3.75149 -6.2045,12.98573 -18.61328,27.70312 l -2.59571,0 c -1.92384,-0.76954 -3.12646,-3.60787 -3.60742,-8.51367 -1.05811,-9.90779 -4.47261,-17.98775 -10.24414,-24.24023 -5.77152,-6.34868 -12.69721,-9.52149 -20.77734,-9.52149 -7.59918,0 -14.14205,2.78805 -19.625,8.36719 -5.48295,5.48295 -8.22266,12.07221 -8.22266,19.76758 0,5.57914 1.73044,11.59224 5.19336,18.03711 3.46292,6.34867 12.45742,16.44912 26.98242,30.30078 14.6212,13.85166 24.00046,24.91302 28.13672,33.18554 4.13626,8.17633 6.20313,15.96821 6.20313,23.375 0,17.1222 -7.45546,32.22452 -22.36524,45.30664 -14.81358,12.98594 -32.17613,19.47852 -52.08789,19.47852 -16.44885,0 -30.01213,-3.79926 -40.68945,-11.39844 -10.67732,-7.69536 -16.01563,-13.94821 -16.01563,-18.75781 0,-2.69338 2.93502,-8.94622 8.80274,-18.75781 5.86771,-9.8116 9.23388,-14.7168 10.09961,-14.7168 3.07814,0 5.24169,0.91259 6.49218,2.74023 1.34669,1.73146 2.26123,5.0029 2.74219,9.8125 1.44288,15.00597 5.05074,25.34616 10.82227,31.02149 5.86771,5.67533 13.46624,8.51367 22.79687,8.51367 10.19636,0 19.09419,-3.51118 26.69336,-10.5332 7.59918,-7.11822 11.39844,-15.3432 11.39844,-24.67383 0,-4.8096 -1.4907,-9.90816 -4.47266,-15.29492 -2.88576,-5.48295 -11.20547,-14.71719 -24.96094,-27.70313 -13.65927,-13.08212 -22.60543,-24.14349 -26.83789,-33.18554 -4.23245,-9.04206 -6.34961,-17.8432 -6.34961,-26.4043 0,-14.90977 5.62834,-28.61808 16.88282,-41.12305 11.25447,-12.50497 26.21178,-18.75781 44.87304,-18.75781 z m 152.8008,0.28906 c 2.50099,0 4.61815,2.02048 6.34961,6.06055 1.73145,4.04007 2.5957,9.09029 2.5957,15.15039 0,10.19636 -3.12642,21.49942 -9.37891,33.9082 -6.25248,12.31259 -16.06289,27.22156 -29.43359,44.72852 12.79355,-7.40679 21.30661,-12.07225 25.53906,-13.9961 4.23245,-1.92384 8.56149,-2.88476 12.98633,-2.88476 4.9058,0 8.84812,1.77878 11.83008,5.33789 3.07814,3.46292 4.61718,8.08004 4.61718,13.85156 0,8.65729 -3.46284,22.07556 -10.38867,40.25586 -6.82964,18.18031 -10.24414,29.58005 -10.24414,34.19727 0,2.11622 0.62646,3.99169 1.87696,5.62695 1.34668,1.63527 2.88572,2.45313 4.61718,2.45313 6.03183,0 17.06165,-8.93582 33.06641,-26.75782 1.09238,-18.36746 8.09382,-35.08742 21.04101,-50.14843 14.14024,-16.54504 29.81873,-24.81641 47.03711,-24.81641 8.94587,0 16.11325,2.30856 21.5,6.92578 5.38676,4.61722 8.08008,10.6767 8.08008,18.17969 0,19.91176 -21.16181,36.07169 -63.48633,48.48047 3.84769,18.75745 13.89979,28.13672 30.15625,28.13672 6.34868,0 12.40817,-1.68406 18.17969,-5.05079 5.77153,-3.46291 14.47599,-11.06144 26.11524,-22.79687 l 0,0.2207 c 6.25157,-6.81748 11.97953,-14.05582 17.17186,-21.7207 -8.27252,-3.6553 -12.41016,-9.09028 -12.41016,-16.30469 0,-7.40679 2.50192,-15.2934 7.50391,-23.66211 5.09818,-8.4649 12.0722,-12.69726 20.92188,-12.69726 7.50298,0 11.2539,3.8476 11.2539,11.54297 0,6.0601 -2.16354,14.71818 -6.49219,25.97265 15.96789,-1.73146 29.91594,-13.94906 41.84375,-36.65039 l 13.12891,-0.57617 -13.41797,36.9375 c -5.57914,15.58312 -9.187,26.21138 -10.82226,31.88672 -1.63527,5.57914 -2.45313,10.53268 -2.45313,14.86133 0,4.04006 0.91454,7.26316 2.74219,9.66797 1.92384,2.4048 4.47214,3.60742 7.64648,3.60742 3.46292,0 6.7827,-1.15428 9.95703,-3.46289 3.05623,-2.31532 9.86063,-8.56322 20.22852,-18.54688 1.37199,-10.95951 5.10731,-21.51701 11.22656,-31.66601 7.98395,-13.08213 18.17911,-23.66206 30.58789,-31.74219 12.40878,-8.08014 23.37542,-12.1211 32.89844,-12.1211 12.02401,0 20.4404,5.53166 25.25,16.59375 l 29.43555,-16.30468 8.08008,0 -12.69727,42.27539 c -6.54106,21.25845 -9.8125,35.83295 -9.8125,43.7207 0,8.27252 2.93502,12.4082 8.80273,12.4082 3.7515,0 7.88718,-1.97214 12.40821,-5.91601 4.52103,-4.04007 10.86859,-10.14789 19.04492,-18.32422 l 0,0.29297 c 11.07669,-11.65354 21.75828,-24.53483 32.0332,-38.67383 11.35067,-15.58312 17.93993,-25.39548 19.76758,-29.43555 1.82765,-4.04006 3.31835,-6.05859 4.47266,-6.05859 0.67334,0 5.09711,0.67284 13.27343,2.01953 8.17633,1.2505 14.76559,1.875 19.76758,1.875 9.04206,0 17.31538,-0.6245 24.81836,-1.875 7.59918,-1.34669 12.02294,-2.01953 13.27344,-2.01953 1.82765,0 2.74219,0.47948 2.74219,1.44141 0,3.5591 -7.74355,14.62242 -23.23047,33.1875 l -46.60547,56.41601 c 3.84768,-0.38477 7.02244,-0.57617 9.52344,-0.57617 1.82765,0 8.03215,1.10594 18.61328,3.31836 10.67732,2.11622 17.07518,3.17383 19.1914,3.17383 5.96391,0 11.06052,-1.58738 15.29297,-4.76172 4.32865,-3.27053 10.58149,-9.37836 18.75782,-18.32422 l 0,16.59375 c -13.08213,14.42881 -22.94088,23.95114 -29.57813,28.56836 -6.54106,4.61722 -13.0356,6.92578 -19.48047,6.92578 -3.6553,0 -10.38762,-1.58738 -20.19922,-4.76172 -9.7154,-3.17434 -17.07418,-4.76172 -22.07617,-4.76172 -6.25248,0 -10.82127,1.58738 -13.70703,4.76172 -2.78957,3.17434 -4.61865,4.76172 -5.48437,4.76172 -4.80961,0 -7.69433,-0.0967 -8.65626,-0.28906 -0.96192,-0.0962 -1.44335,-0.43262 -1.44335,-1.00977 0,-2.11622 8.22498,-13.22593 24.67382,-33.33008 l 49.7793,-60.60156 c -5.57914,1.15431 -11.59029,1.73242 -18.03516,1.73242 -8.65728,0 -17.60345,-1.44431 -26.83789,-4.33008 -17.31457,24.81756 -34.14929,45.59657 -50.50195,62.33399 l -0.14453,0 c -15.39074,14.6212 -26.40376,24.14352 -33.04102,28.56836 -6.63725,4.42483 -12.98677,6.63672 -19.04687,6.63672 -15.19835,0 -22.36378,-13.41827 -21.49805,-40.25586 -9.61921,13.75547 -18.51703,23.90425 -26.69336,30.44531 -8.08013,6.54106 -16.44818,9.81055 -25.10547,9.81055 -8.4649,0 -15.68062,-3.94428 -21.64453,-11.83203 -4.60739,-6.26908 -7.3971,-13.64005 -8.38672,-22.10352 -23.49827,22.79794 -41.68273,34.22461 -54.52343,34.22461 -5.86772,0 -10.82126,-2.45358 -14.86133,-7.35937 -4.04007,-5.00199 -6.0586,-11.15816 -6.0586,-18.46876 0,-13.56308 7.26211,-31.74348 21.78711,-54.54101 -7.11821,3.6553 -14.91009,6.20556 -23.375,7.64844 -6.25248,11.54305 -16.06484,23.95205 -29.43553,37.22656 l -0.14453,0 c -12.2164,12.02401 -23.18109,20.92183 -32.89649,26.69336 -9.7154,5.67533 -20.44034,8.51172 -32.17578,8.51172 -13.08212,0 -23.664,-4.18402 -31.74414,-12.55274 -5.794,-6.07322 -9.4752,-13.54675 -11.06445,-22.40625 -22.68708,23.49411 -41.36461,35.24805 -56.0293,35.24805 -6.54106,0 -11.97604,-2.21188 -16.30469,-6.63672 -4.23245,-4.52103 -6.34961,-10.1977 -6.34961,-17.02734 0,-11.54305 4.42572,-27.79966 13.27539,-48.76953 4.71342,-11.35067 7.07032,-18.75584 7.07032,-22.21875 0,-3.94388 -1.87547,-5.91602 -5.62696,-5.91602 -3.84768,0 -9.42768,2.64498 -16.73828,7.93555 -7.3106,5.19437 -15.00581,12.31146 -23.08595,21.35351 -3.36672,17.69935 -5.05078,38.95783 -5.05078,63.77539 l -32.17578,7.50391 c -1.2505,-10.10017 -1.875,-21.06681 -1.875,-32.89844 0,-28.66524 3.94428,-55.35871 11.83203,-80.08008 7.88775,-24.72136 20.2948,-50.93339 37.22461,-78.63671 12.60118,-5.09819 23.56782,-9.23387 32.89845,-12.40821 9.42682,-3.27053 14.81347,-4.90625 16.16016,-4.90625 z m -8.22461,17.31446 c -5.29057,0 -12.84075,9.47593 -22.65235,28.42578 -9.81159,18.94984 -17.84322,41.7957 -24.09571,68.53711 34.34059,-39.91972 51.50978,-69.35485 51.50978,-88.30469 0,-5.77153 -1.58738,-8.6582 -4.76172,-8.6582 z m 343.98241,76.90625 c -9.61921,0 -18.75678,8.17664 -27.41406,24.52929 -8.5611,16.35266 -12.8418,31.40664 -12.8418,45.16211 0,5.19437 1.25096,9.42674 3.75195,12.69727 2.59719,3.17434 5.86667,4.76172 9.81055,4.76172 9.61921,0 18.66205,-8.17665 27.12695,-24.5293 8.5611,-16.44885 12.8418,-31.59951 12.8418,-45.45117 0,-5.38676 -1.20262,-9.57078 -3.60742,-12.55274 -2.40481,-3.07814 -5.6279,-4.61718 -9.66797,-4.61718 z m -231.87109,0.28906 c -6.34867,0 -12.40816,4.85686 -18.17968,14.57226 -5.77153,9.61921 -8.65625,22.17323 -8.65625,37.66016 24.62517,-6.92583 36.9375,-19.71959 36.9375,-38.38086 0,-9.23444 -3.36812,-13.85156 -10.10157,-13.85156 z"
       id="path4175"
       inkscape:connector-curvature="0" />
    <path
       d="m -637.90802,1025.5121 a 526.28375,371.49442 0 0 1 -502.88078,371.1269 526.28375,371.49442 0 0 1 -547.6053,-338.12 526.28375,371.49442 0 0 1 454.1784,-401.19832 526.28375,371.49442 0 0 1 587.99858,302.43875"
       sodipodi:open="true"
       sodipodi:end="6.1052529"
       sodipodi:start="0"
       sodipodi:ry="371.49442"
       sodipodi:rx="526.28375"
       sodipodi:cy="1025.5121"
       sodipodi:cx="-1164.1918"
       sodipodi:type="arc"
       id="path4193"
       style="opacity:1;fill:url(#radialGradient4199);fill-opacity:1;stroke:none;stroke-width:0.5;stroke-linecap:round;stroke-linejoin:round;stroke-miterlimit:4;stroke-dasharray:none;stroke-opacity:1" />
    <path
       style="opacity:1;fill:url(#radialGradient4197);fill-opacity:1;stroke:none;stroke-width:0.5;stroke-linecap:round;stroke-linejoin:round;stroke-miterlimit:4;stroke-dasharray:none;stroke-opacity:1"
       id="path4195"
       sodipodi:type="arc"
       sodipodi:cx="-1107.8164"
       sodipodi:cy="230.51646"
       sodipodi:rx="526.28375"
       sodipodi:ry="371.49442"
       sodipodi:start="0"
       sodipodi:end="6.1052529"
       sodipodi:open="true"
       d="m -581.53265,230.51646 a 526.28375,371.49442 0 0 1 -502.88075,371.12693 526.28375,371.49442 0 0 1 -547.6054,-338.12006 526.28375,371.49442 0 0 1 454.1785,-401.19827 526.28375,371.49442 0 0 1 587.99855,302.43875" />
  </g>
  <g
     inkscape:groupmode="layer"
     id="layer4"
     inkscape:label="Background Flat"
     style="display:none">
    <path
       transform="translate(0,-308.26772)"
       style="display:inline;opacity:1;fill:url(#radialGradient4201);fill-opacity:1;stroke:none;stroke-width:0.5;stroke-linecap:round;stroke-linejoin:round;stroke-miterlimit:4;stroke-dasharray:none;stroke-opacity:1"
       id="path4191"
       sodipodi:type="arc"
       sodipodi:cx="526.18109"
       sodipodi:cy="680.31494"
       sodipodi:rx="526.28375"
       sodipodi:ry="371.49442"
       sodipodi:start="0"
       sodipodi:end="6.1052529"
       sodipodi:open="true"
       d="M 1052.4648,680.31494 A 526.28375,371.49442 0 0 1 549.58411,1051.4419 526.28375,371.49442 0 0 1 1.9787296,713.32181 526.28375,371.49442 0 0 1 456.15716,312.12354 526.28375,371.49442 0 0 1 1044.1557,614.56229" />
  </g>
  <g
     inkscape:groupmode="layer"
     id="layer2"
     inkscape:label="Text"
     style="display:inline">
    <text
       sodipodi:linespacing="125%"
       id="text4215"
       y="-442.41946"
       x="-622.09137"
       style="font-style:normal;font-variant:normal;font-weight:bold;font-stretch:normal;font-size:295.50210571px;line-height:125%;font-family:'Script MT Bold';-inkscape-font-specification:'Script MT Bold, Bold';letter-spacing:0px;word-spacing:0px;display:inline;fill:#000000;fill-opacity:1;stroke:none;stroke-width:1px;stroke-linecap:butt;stroke-linejoin:miter;stroke-opacity:1"
       xml:space="preserve"><tspan
         y="-442.41946"
         x="-622.09137"
         id="tspan4217"
         sodipodi:role="line">Sheraz</tspan></text>
    <text
       sodipodi:linespacing="125%"
       id="text4223"
       y="-437.99692"
       x="200.50343"
       style="font-style:normal;font-variant:normal;font-weight:bold;font-stretch:normal;font-size:295.50210571px;line-height:125%;font-family:'Script MT Bold';-inkscape-font-specification:'Script MT Bold, Bold';letter-spacing:0px;word-spacing:0px;display:inline;fill:#000000;fill-opacity:1;stroke:none;stroke-width:1px;stroke-linecap:butt;stroke-linejoin:miter;stroke-opacity:1"
       xml:space="preserve"><tspan
         y="-437.99692"
         x="200.50343"
         id="tspan4225"
         sodipodi:role="line">Sheraz</tspan></text>
  </g>
  <g
     inkscape:groupmode="layer"
     id="layer3"
     inkscape:label="shading"
     style="display:inline">
    <path
       style="font-style:normal;font-variant:normal;font-weight:bold;font-stretch:normal;font-size:295.50210571px;line-height:125%;font-family:'Script MT Bold';-inkscape-font-specification:'Script MT Bold, Bold';letter-spacing:0px;word-spacing:0px;display:inline;opacity:1;fill:#000000;fill-opacity:1;stroke:none;stroke-width:1px;stroke-linecap:butt;stroke-linejoin:miter;stroke-opacity:1;filter:url(#filter4312)"
       d="m 223.08398,265.4375 c -18.01709,0 -32.57076,5.84736 -43.68359,17.50391 10.84084,-10.32318 24.72826,-15.50391 41.68359,-15.50391 14.14024,0 25.8764,3.27144 35.20704,9.8125 9.42682,6.44487 14.13867,11.83151 14.13867,16.16016 0,3.57326 -5.69736,12.18118 -16.95508,25.70312 l 0.3418,0 c 12.40878,-14.71739 18.61328,-23.95163 18.61328,-27.70312 0,-4.32865 -4.71185,-9.71529 -14.13867,-16.16016 -9.33064,-6.54106 -21.0668,-9.8125 -35.20704,-9.8125 z m 152.80079,0.28906 c -1.34669,0 -6.73334,1.63572 -16.16016,4.90625 -9.33063,3.17434 -20.29727,7.31002 -32.89844,12.40821 -0.32372,0.52973 -0.63466,1.05534 -0.95508,1.58398 12.15046,-4.89917 22.78941,-8.90852 31.85352,-11.99219 9.42682,-3.27053 14.81347,-4.90625 16.16016,-4.90625 2.50099,0 4.61815,2.02048 6.34961,6.06055 1.73145,4.04007 2.5957,9.09029 2.5957,15.15039 0,10.19636 -3.12642,21.49942 -9.37891,33.9082 -6.25248,12.31259 -16.06289,27.22156 -29.43359,44.72852 12.79355,-7.40679 21.30661,-12.07225 25.53906,-13.9961 4.23245,-1.92384 8.56149,-2.88476 12.98633,-2.88476 4.9058,0 8.84812,1.77878 11.83008,5.33789 3.07814,3.46292 4.61718,8.08004 4.61718,13.85156 0,8.65729 -3.46284,22.07556 -10.38867,40.25586 -6.82964,18.18031 -10.24414,29.58005 -10.24414,34.19727 0,2.11622 0.62646,3.99169 1.87696,5.62695 1.34668,1.63527 2.88572,2.45313 4.61718,2.45313 4.77584,0 12.69281,-5.6125 23.72071,-16.78516 -9.98885,9.84071 -17.23858,14.78516 -21.72071,14.78516 -1.73146,0 -3.2705,-0.81786 -4.61718,-2.45313 -1.2505,-1.63526 -1.87696,-3.51073 -1.87696,-5.62695 0,-4.61722 3.4145,-16.01696 10.24414,-34.19727 6.92583,-18.1803 10.38867,-31.59857 10.38867,-40.25586 0,-5.77152 -1.53904,-10.38864 -4.61718,-13.85156 -2.98196,-3.55911 -6.92428,-5.33789 -11.83008,-5.33789 -4.42484,0 -8.75388,0.96092 -12.98633,2.88476 -4.23245,1.92385 -12.74551,6.58931 -25.53906,13.9961 13.3707,-17.50696 23.18111,-32.41593 29.43359,-44.72852 6.25249,-12.40878 9.37891,-23.71184 9.37891,-33.9082 0,-6.0601 -0.86425,-11.11032 -2.5957,-15.15039 -1.73146,-4.04007 -3.84862,-6.06055 -6.34961,-6.06055 z m -179.77539,20.37696 c -0.38515,0.35568 -0.76735,0.71974 -1.14258,1.10156 -5.48295,5.48295 -8.22266,12.07221 -8.22266,19.76758 0,5.57914 1.73044,11.59224 5.19336,18.03711 3.46292,6.34867 12.45742,16.44912 26.98242,30.30078 14.6212,13.85166 24.00046,24.91302 28.13672,33.18554 4.13626,8.17633 6.20313,15.96821 6.20313,23.375 0,14.94462 -5.68249,28.34998 -17.04102,40.2168 12.68324,-12.35532 19.04102,-26.42473 19.04102,-42.2168 0,-7.40679 -2.06687,-15.19867 -6.20313,-23.375 -4.13626,-8.27252 -13.51552,-19.33388 -28.13672,-33.18554 -14.525,-13.85166 -23.5195,-23.95211 -26.98242,-30.30078 -3.46292,-6.44487 -5.19336,-12.45797 -5.19336,-18.03711 0,-7.28041 2.45766,-13.56899 7.36524,-18.86914 z m 163.89843,1.74414 c -4.60296,4.08228 -10.26981,12.62064 -17,25.61914 -9.81159,18.94984 -17.84321,41.7957 -24.0957,68.53711 0.72991,-0.8485 1.4067,-1.66489 2.12109,-2.50391 6.23527,-26.5228 14.22522,-49.20349 23.97461,-68.0332 5.78902,-11.18075 10.78485,-19.03524 15,-23.61914 z m 350.04883,60.26757 c -9.52302,0 -20.48966,4.04096 -32.89844,12.1211 -6.1001,3.97216 -11.66259,8.55145 -16.69336,13.73242 4.49485,-4.36663 9.3904,-8.27933 14.69336,-11.73242 12.40878,-8.08014 23.37542,-12.1211 32.89844,-12.1211 12.02401,0 20.4404,5.53166 25.25,16.59375 l 29.43555,-16.30468 8.08008,0 -12.69727,42.27539 c -6.54106,21.25845 -9.8125,35.83295 -9.8125,43.7207 0,8.27252 2.93502,12.4082 8.80273,12.4082 3.7515,0 7.88718,-1.97214 12.40821,-5.91601 4.52103,-4.04007 10.86859,-10.14789 19.04492,-18.32422 l 0,0.29297 c 0.66736,-0.70212 1.33554,-1.40214 2,-2.11328 l 0,-0.17969 c -8.17633,8.17633 -14.52389,14.28415 -19.04492,18.32422 -4.52103,3.94387 -8.65671,5.91601 -12.40821,5.91601 -5.86771,0 -8.80273,-4.13568 -8.80273,-12.4082 0,-7.88775 3.27144,-22.46225 9.8125,-43.7207 l 12.69727,-42.27539 -8.08008,0 -29.43555,16.30468 c -4.8096,-11.06209 -13.22599,-16.59375 -25.25,-16.59375 z m -148.32812,0.28907 c -6.88394,0 -12.62824,2.57329 -17.24219,7.69531 4.242,-3.79031 9.32039,-5.69531 15.24219,-5.69531 7.50298,0 11.2539,3.8476 11.2539,11.54297 0,6.0601 -2.16354,14.71818 -6.49219,25.97265 9.51469,-1.03171 18.31233,-5.78847 26.39258,-14.26562 -7.52682,7.22406 -15.65647,11.31833 -24.39258,12.26562 4.32865,-11.25447 6.49219,-19.91255 6.49219,-25.97265 0,-7.69537 -3.75092,-11.54297 -11.2539,-11.54297 z m -73.73243,0.28906 c -15.48816,0 -29.72509,6.71652 -42.72265,20.10352 12.45455,-12.05475 26.02536,-18.10352 40.72265,-18.10352 8.94587,0 16.11325,2.30856 21.5,6.92578 5.38676,4.61722 8.08008,10.6767 8.08008,18.17969 0,7.52724 -3.02967,14.51764 -9.07812,20.97265 7.37546,-7.00458 11.07812,-14.6606 11.07812,-22.97265 0,-7.50299 -2.69332,-13.56247 -8.08008,-18.17969 -5.38675,-4.61722 -12.55413,-6.92578 -21.5,-6.92578 z m 133.4668,0 -13.12891,0.57617 c -0.35325,0.67232 -0.71546,1.30506 -1.07226,1.95899 l 12.20117,-0.53516 -13.41797,36.9375 c -5.57914,15.58312 -9.187,26.21138 -10.82226,31.88672 -1.63527,5.57914 -2.45313,10.53268 -2.45313,14.86133 0,4.04006 0.91454,7.26316 2.74219,9.66797 1.92384,2.4048 4.47214,3.60742 7.64648,3.60742 3.46292,0 6.7827,-1.15428 9.95703,-3.46289 3.05623,-2.31532 9.86063,-8.56322 20.22852,-18.54688 0.004,-0.0325 0.008,-0.0651 0.0117,-0.0976 -9.19431,8.81362 -15.39279,14.48737 -18.24024,16.64453 -3.17433,2.30861 -6.49411,3.46289 -9.95703,3.46289 -3.17434,0 -5.72264,-1.20262 -7.64648,-3.60742 -1.82765,-2.40481 -2.74219,-5.62791 -2.74219,-9.66797 0,-4.32865 0.81786,-9.28219 2.45313,-14.86133 1.63526,-5.67534 5.24312,-16.3036 10.82226,-31.88672 l 13.41797,-36.9375 z m 225.37891,0 c -0.67228,0 -1.4626,0.70577 -2.36328,2.07617 0.12359,-0.0413 0.24657,-0.0762 0.36328,-0.0762 0.67334,0 5.09711,0.67284 13.27343,2.01953 8.17633,1.2505 14.76559,1.875 19.76758,1.875 9.04206,0 17.31538,-0.6245 24.81836,-1.875 7.59918,-1.34669 12.02294,-2.01953 13.27344,-2.01953 1.82765,0 2.74219,0.47948 2.74219,1.44141 0,3.5591 -7.74355,14.62242 -23.23047,33.1875 l -46.60547,56.41601 c 3.84768,-0.38477 7.02244,-0.57617 9.52344,-0.57617 1.82765,0 8.03215,1.10594 18.61328,3.31836 10.67732,2.11622 17.07518,3.17383 19.1914,3.17383 5.96391,0 11.06052,-1.58738 15.29297,-4.76172 2.76537,-2.08939 6.32442,-5.35017 10.66016,-9.75586 -3.43597,3.39501 -6.33469,5.99884 -8.66016,7.75586 -4.23245,3.17434 -9.32906,4.76172 -15.29297,4.76172 -2.11622,0 -8.51408,-1.05761 -19.1914,-3.17383 -10.58113,-2.21242 -16.78563,-3.31836 -18.61328,-3.31836 -2.501,0 -5.67576,0.1914 -9.52344,0.57617 l 46.60547,-56.41601 c 15.48692,-18.56508 23.23047,-29.6284 23.23047,-33.1875 0,-0.96193 -0.91454,-1.44141 -2.74219,-1.44141 -1.2505,0 -5.67426,0.67284 -13.27344,2.01953 -7.50298,1.2505 -15.7763,1.875 -24.81836,1.875 -5.00199,0 -11.59125,-0.6245 -19.76758,-1.875 -8.17632,-1.34669 -12.60009,-2.01953 -13.27343,-2.01953 z m -379.44141,18.0957 c -2.65919,2.39534 -5.26178,5.7324 -7.80859,10.01953 -5.77153,9.61921 -8.65625,22.17323 -8.65625,37.66016 12.62425,-3.55057 22.0039,-8.64837 28.15625,-15.2832 -6.11676,5.66787 -14.83038,10.0978 -26.15625,13.2832 0,-15.48693 2.88472,-28.04095 8.65625,-37.66016 1.90436,-3.20567 3.84139,-5.87159 5.80859,-8.01953 z m 227.68945,1.75391 c -4.39845,4.083 -8.68655,10.04791 -12.86132,17.93359 -8.5611,16.35266 -12.8418,31.40664 -12.8418,45.16211 0,5.19437 1.25096,9.42674 3.75195,12.69727 2.59719,3.17434 5.86667,4.76172 9.81055,4.76172 5.62173,0 11.04597,-2.81506 16.27344,-8.40039 -4.60779,4.25771 -9.36511,6.40039 -14.27344,6.40039 -3.94388,0 -7.21336,-1.58738 -9.81055,-4.76172 -2.50099,-3.27053 -3.75195,-7.5029 -3.75195,-12.69727 0,-13.75547 4.2807,-28.80945 12.8418,-45.16211 3.53957,-6.68586 7.16096,-11.98128 10.86132,-15.93359 z m 144.125,10.28515 c -16.63502,23.84353 -32.82514,43.94879 -48.57226,60.33399 l 0.0703,0 c 15.8727,-16.24617 32.20344,-36.3344 48.98242,-60.19336 -0.16054,-0.0494 -0.31975,-0.0904 -0.48047,-0.14063 z m -516.35546,18.12891 c -2.62087,2.59761 -5.28104,5.39038 -7.98829,8.41992 -3.29593,17.32722 -4.96781,38.08902 -5.03711,62.23828 l 1.98633,-0.46289 c 0,-24.81756 1.68406,-46.07604 5.05078,-63.77539 2.02004,-2.26051 4.01635,-4.39988 5.98829,-6.41992 z M 557.10742,403.75 c -0.32998,0.06 -0.65428,0.12895 -0.98633,0.18555 -5.93596,10.95869 -15.12094,22.70727 -27.47265,35.22656 l 0.0371,0 c 12.67324,-12.58206 22.1436,-24.38558 28.42187,-35.41211 z m -414.10351,7.27539 c -0.31828,0 -0.98224,0.6739 -1.97657,2 3.06525,0.005 5.22155,0.9174 6.46875,2.74023 1.34669,1.73146 2.26123,5.0029 2.74219,9.8125 1.44288,15.00597 5.05074,25.34616 10.82227,31.02149 5.86771,5.67533 13.46624,8.51367 22.79687,8.51367 10.19636,0 19.09419,-3.51118 26.69336,-10.5332 0.68979,-0.64613 1.33767,-1.30439 1.96484,-1.96875 -7.59152,7.00057 -16.47742,10.50195 -26.6582,10.50195 -9.33063,0 -16.92916,-2.83834 -22.79687,-8.51367 -5.77153,-5.67533 -9.37939,-16.01552 -10.82227,-31.02149 -0.48096,-4.8096 -1.3955,-8.08104 -2.74219,-9.8125 -1.25049,-1.82764 -3.41404,-2.74023 -6.49218,-2.74023 z m 385.53711,11.54297 c -11.63925,11.73543 -20.34371,19.33396 -26.11524,22.79687 -5.77152,3.36673 -11.83101,5.05079 -18.17969,5.05079 -15.86689,0 -25.80584,-8.96086 -29.85156,-26.83008 -0.76639,0.23146 -1.5239,0.46444 -2.30469,0.69336 3.84769,18.75745 13.89979,28.13672 30.15625,28.13672 6.34868,0 12.40817,-1.68406 18.17969,-5.05079 5.77153,-3.46291 14.47599,-11.06144 26.11524,-22.79687 l 0,0.2207 c 0.67243,-0.7333 1.33982,-1.47174 2,-2.21484 l 0,-0.006 z m 403.71875,0 c -0.70832,0.77498 -1.32057,1.40824 -2,2.14062 l 0,16.45313 c -4.65256,5.13149 -8.87745,9.61144 -12.71485,13.50195 4.35049,-4.32358 9.23251,-9.45526 14.71485,-15.50195 l 0,-16.59375 z m -217.27735,13.54297 c -6.70181,9.58359 -13.04544,17.37536 -19.04687,23.45703 5.98572,-5.75118 12.33421,-13.32314 19.03515,-22.65039 0.007,-0.27468 0.003,-0.5291 0.0117,-0.80664 z m -296.32226,5.29687 c -0.92544,0.95836 -1.83597,1.87567 -2.74805,2.79492 0.9099,-0.89807 1.83043,-1.82974 2.75391,-2.76757 -0.002,-0.009 -0.004,-0.0181 -0.006,-0.0273 z m 407.81836,29.29297 c -0.44988,0.37004 -0.871,0.76571 -1.25977,1.19336 -0.46663,0.531 -0.8665,0.95236 -1.2793,1.39453 0.70416,-0.62812 1.56632,-1.5166 2.53907,-2.58789 z"
       id="text4235"
       inkscape:connector-curvature="0" />
    <path
       style="font-style:normal;font-variant:normal;font-weight:bold;font-stretch:normal;font-size:295.50210571px;line-height:125%;font-family:'Script MT Bold';-inkscape-font-specification:'Script MT Bold, Bold';letter-spacing:0px;word-spacing:0px;display:inline;opacity:1;fill:#ffffff;fill-opacity:1;stroke:none;stroke-width:1px;stroke-linecap:butt;stroke-linejoin:miter;stroke-opacity:1;filter:url(#filter4290)"
       d="m 214.5918,278.83789 c -7.59918,0 -14.14205,2.78805 -19.625,8.36719 -0.29566,0.29566 -0.57771,0.59634 -0.85742,0.89844 5.24263,-4.84165 11.4033,-7.26563 18.48242,-7.26563 8.08013,0 15.00582,3.17281 20.77734,9.52149 5.77153,6.25248 9.18603,14.33244 10.24414,24.24023 0.48096,4.9058 1.68358,7.74413 3.60742,8.51367 l 2.59571,0 c 0.58953,-0.69921 1.09667,-1.32553 1.6582,-2 l -2.25391,0 c -1.92384,-0.76954 -3.12646,-3.60787 -3.60742,-8.51367 -1.05811,-9.90779 -4.47261,-17.98775 -10.24414,-24.24023 -5.77152,-6.34868 -12.69721,-9.52149 -20.77734,-9.52149 z m -37.19141,6.10352 c -1.09073,1.03864 -2.16062,2.11075 -3.18945,3.2539 -11.25448,12.50497 -16.88282,26.21328 -16.88282,41.12305 0,8.5611 2.11716,17.36224 6.34961,26.4043 4.23246,9.04205 13.17862,20.10342 26.83789,33.18554 13.75547,12.98594 22.07518,22.22018 24.96094,27.70313 2.98196,5.38676 4.47266,10.48532 4.47266,15.29492 0,8.48368 -3.15139,16.0504 -9.4336,22.70508 0.0116,-0.0107 0.0235,-0.0205 0.0352,-0.0312 7.59918,-7.11822 11.39844,-15.3432 11.39844,-24.67383 0,-4.8096 -1.4907,-9.90816 -4.47266,-15.29492 -2.88576,-5.48295 -11.20547,-14.71719 -24.96094,-27.70313 -13.65927,-13.08212 -22.60543,-24.14349 -26.83789,-33.18554 -4.23245,-9.04206 -6.34961,-17.8432 -6.34961,-26.4043 0,-14.90977 5.62834,-28.61808 16.88282,-41.12305 0.38849,-0.43166 0.79213,-0.83714 1.18945,-1.2539 z m 188.25977,0.0996 c -2.16904,0 -4.72339,1.62145 -7.65235,4.80664 2.10747,-1.86907 3.9908,-2.80664 5.65235,-2.80664 3.17434,0 4.76172,2.88667 4.76172,8.6582 0,18.54706 -16.49241,47.1658 -49.38868,85.80078 -0.0398,0.16921 -0.0815,0.33439 -0.12109,0.50391 34.34058,-39.91972 51.50977,-69.35485 51.50977,-88.30469 0,-5.77153 -1.58738,-8.6582 -4.76172,-8.6582 z m -41.78907,1.58398 c -0.35728,0.14406 -0.68497,0.27039 -1.04492,0.41602 -16.92981,27.70332 -29.33686,53.91535 -37.22461,78.63671 -7.88775,24.72137 -11.83203,51.41484 -11.83203,80.08008 0,11.83163 0.6245,22.79827 1.875,32.89844 l 32.17578,-7.50391 c 0,-0.52178 0.0122,-1.01847 0.0137,-1.53711 l -30.18945,7.04102 c -1.2505,-10.10017 -1.875,-21.06681 -1.875,-32.89844 0,-28.66524 3.94428,-55.35871 11.83203,-80.08008 7.73693,-24.24865 19.83304,-49.93507 36.26953,-77.05273 z m 518.60743,66.14453 c -1.0988,0.36718 -2.46652,2.35083 -4.10938,5.98242 -1.82765,4.04007 -8.41691,13.85243 -19.76758,29.43555 -9.65586,13.28713 -19.66927,25.46841 -30.0332,36.56055 l 0,0.11328 c 11.07669,-11.65354 21.75828,-24.53483 32.0332,-38.67383 11.35067,-15.58312 17.93993,-25.39548 19.76758,-29.43555 0.76321,-1.68708 1.46359,-2.99984 2.10938,-3.98242 z m -237.2168,0.45899 -0.92774,0.041 c -4.82046,9.17443 -9.97086,16.63526 -15.45117,22.38477 5.82329,-5.58906 11.27946,-13.07965 16.37891,-22.42578 z m -62.77539,4.87109 c -2.09734,1.87402 -3.99298,4.20138 -5.67969,7.00195 -5.00199,8.36871 -7.50391,16.25532 -7.50391,23.66211 0,7.21441 4.13764,12.64939 12.41016,16.30469 -4.63384,6.84043 -9.6944,13.34033 -15.17187,19.50586 l 0,0.21484 c 6.25158,-6.81748 11.97954,-14.05582 17.17187,-21.7207 -8.27252,-3.6553 -12.41016,-9.09028 -12.41016,-16.30469 0,-7.40679 2.50192,-15.2934 7.50391,-23.66211 1.13244,-1.88027 2.36216,-3.53934 3.67969,-5.00195 z m 167.15625,3.84766 c -5.68635,0 -11.20253,2.88122 -16.55274,8.5957 4.7227,-4.38398 9.57216,-6.5957 14.55274,-6.5957 4.04007,0 7.26316,1.53904 9.66797,4.61718 2.4048,2.98196 3.60742,7.16598 3.60742,12.55274 0,13.85166 -4.2807,29.00232 -12.8418,45.45117 -3.51778,6.79571 -7.13638,12.1573 -10.85351,16.12891 4.42242,-4.08645 8.70794,-10.12042 12.85351,-18.12891 8.5611,-16.44885 12.8418,-31.59951 12.8418,-45.45117 0,-5.38676 -1.20262,-9.57078 -3.60742,-12.55274 -2.40481,-3.07814 -5.6279,-4.61718 -9.66797,-4.61718 z m -231.8711,0.28906 c -4.25388,0 -8.37632,2.19094 -12.37109,6.55273 3.36701,-3.03293 6.82391,-4.55273 10.37109,-4.55273 6.73345,0 10.10157,4.61712 10.10157,13.85156 0,9.09445 -2.93268,16.79042 -8.78125,23.09766 7.18254,-6.65545 10.78125,-15.01929 10.78125,-25.09766 0,-9.23444 -3.36812,-13.85156 -10.10157,-13.85156 z m -34.49804,8.56055 c -2.13638,2.06779 -4.24407,4.29039 -6.31446,6.71289 -12.94719,15.06101 -19.94863,31.78097 -21.04101,50.14843 -3.33264,3.71104 -6.44548,7.03436 -9.3457,9.97266 3.45366,-3.40244 7.23374,-7.39382 11.3457,-11.97266 1.09238,-18.36746 8.09382,-35.08742 21.04101,-50.14843 1.42091,-1.66256 2.86247,-3.21741 4.31446,-4.71289 z m 215.1914,5.17187 c -6.02295,5.85114 -11.32257,12.51837 -15.89453,20.00977 -6.10109,10.11888 -9.83288,20.64377 -11.21484,31.56836 0.67412,-0.64621 1.28004,-1.22036 1.98828,-1.90235 1.37199,-10.95951 5.10731,-21.51701 11.22656,-31.66601 4.05908,-6.65102 8.69175,-12.65165 13.89453,-18.00977 z m -303.76953,0.11914 c -3.84768,0 -9.42768,2.64498 -16.73828,7.93555 -5.19089,3.68826 -10.57933,8.36598 -16.1582,13.99414 4.86972,-4.74949 9.58908,-8.74766 14.1582,-11.99414 7.3106,-5.29057 12.8906,-7.93555 16.73828,-7.93555 3.75149,0 5.62696,1.97214 5.62696,5.91602 0,3.46291 -2.3569,10.86808 -7.07032,22.21875 -8.84967,20.96987 -13.27539,37.22648 -13.27539,48.76953 0,6.82964 2.11716,12.50631 6.34961,17.02734 4.32865,4.42484 9.76363,6.63672 16.30469,6.63672 14.0665,0 31.8335,-10.83663 53.28125,-32.45313 -20.55514,20.28819 -37.65378,30.45313 -51.28125,30.45313 -6.54106,0 -11.97604,-2.21188 -16.30469,-6.63672 -4.23245,-4.52103 -6.34961,-10.1977 -6.34961,-17.02734 0,-11.54305 4.42572,-27.79966 13.27539,-48.76953 4.71342,-11.35067 7.07032,-18.75584 7.07032,-22.21875 0,-3.94388 -1.87547,-5.91602 -5.62696,-5.91602 z m 484.51953,2.74023 c -0.50819,0.72841 -1.01216,1.41918 -1.51953,2.14063 9.06386,2.78619 17.85081,4.18945 26.35742,4.18945 6.44487,0 12.45602,-0.57811 18.03516,-1.73242 l -49.7793,60.60156 c -16.44884,20.10415 -24.67382,31.21386 -24.67382,33.33008 0,0.57715 0.48143,0.91358 1.44335,1.00977 0.96193,0.19238 3.84665,0.28906 8.65626,0.28906 0.72091,0 2.15012,-1.16602 4.20507,-3.36719 -0.99803,0.89027 -1.7466,1.36719 -2.20507,1.36719 -4.80961,0 -7.69433,-0.0967 -8.65626,-0.28906 -0.96192,-0.0962 -1.44335,-0.43262 -1.44335,-1.00977 0,-2.11622 8.22498,-13.22593 24.67382,-33.33008 l 49.7793,-60.60156 c -5.57914,1.15431 -11.59029,1.73242 -18.03516,1.73242 -8.65728,0 -17.60345,-1.44431 -26.83789,-4.33008 z M 579.49609,396.2871 c -7.11821,3.6553 -14.91009,6.20556 -23.375,7.64844 -0.32615,0.60212 -0.66815,1.20761 -1.01367,1.81445 8.0821,-1.46966 15.54968,-3.95098 22.38867,-7.46289 -14.525,22.79753 -21.78711,40.97793 -21.78711,54.54101 0,7.3106 2.01853,13.46677 6.0586,18.46876 4.04007,4.90579 8.99361,7.35937 14.86133,7.35937 12.8407,0 31.02516,-11.42667 54.52343,-34.22461 0.98962,8.46347 3.77933,15.83444 8.38672,22.10352 5.96391,7.88775 13.17963,11.83203 21.64453,11.83203 8.65729,0 17.02534,-3.26949 25.10547,-9.81055 2.47979,-1.98383 5.03398,-4.34084 7.64649,-6.98828 -1.91812,1.84296 -3.80181,3.51254 -5.64649,4.98828 -8.08013,6.54106 -16.44818,9.81055 -25.10547,9.81055 -8.4649,0 -15.68062,-3.94428 -21.64453,-11.83203 -4.60739,-6.26908 -7.3971,-13.64005 -8.38672,-22.10352 -23.49827,22.79794 -41.68273,34.22461 -54.52343,34.22461 -5.86772,0 -10.82126,-2.45358 -14.86133,-7.35937 -4.04007,-5.00199 -6.0586,-11.15816 -6.0586,-18.46876 0,-13.56308 7.26211,-31.74348 21.78711,-54.54101 z m -74.99804,2.48437 c -10.29267,9.77511 -27.75182,18.27901 -52.40821,25.50782 0.0922,0.4495 0.20536,0.8679 0.30469,1.30664 25.07257,-7.57252 42.4472,-16.50906 52.10352,-26.81446 z m -365.49414,16.25391 c -0.86573,0 -4.2319,4.9052 -10.09961,14.7168 -5.86772,9.81159 -8.80274,16.06443 -8.80274,18.75781 0,4.8096 5.33831,11.06245 16.01563,18.75781 10.67732,7.59918 24.2406,11.39844 40.68945,11.39844 19.91176,0 37.27431,-6.49258 52.08789,-19.47852 1.8962,-1.66376 3.66917,-3.36073 5.32422,-5.08984 -1.06828,1.04066 -2.16596,2.07357 -3.32422,3.08984 -14.81358,12.98594 -32.17613,19.47852 -52.08789,19.47852 -16.44885,0 -30.01213,-3.79926 -40.68945,-11.39844 -10.67732,-7.69536 -16.01563,-13.94821 -16.01563,-18.75781 0,-2.69338 2.93502,-8.94622 8.80274,-18.75781 3.71053,-6.2045 6.41273,-10.4358 8.12304,-12.7168 -0.008,-10e-6 -0.0153,0 -0.0234,0 z m 789.25586,11.54297 c -2.95286,3.23077 -5.64665,6.07781 -8.09766,8.56836 2.4057,-2.37702 5.14757,-5.24775 8.09766,-8.42774 l 0,-0.14062 z m -213.27735,9.54297 c -0.6766,0.96755 -1.34225,1.87479 -2.01172,2.80664 -0.69236,26.28537 6.46859,39.44922 21.50977,39.44922 6.0601,0 12.40962,-2.21189 19.04687,-6.63672 6.63726,-4.42484 17.65028,-13.94716 33.04102,-28.56836 l 0.14453,0 c 0.6418,-0.65691 1.2864,-1.33065 1.92969,-2 l -0.0742,0 c -15.39074,14.6212 -26.40376,24.14352 -33.04102,28.56836 -6.63725,4.42483 -12.98677,6.63672 -19.04687,6.63672 -15.19835,0 -22.36378,-13.41827 -21.49805,-40.25586 z m -188.4414,5.05078 c -12.2164,12.02401 -23.18109,20.92183 -32.89649,26.69336 -9.7154,5.67533 -20.44034,8.51172 -32.17578,8.51172 -13.08212,0 -23.664,-4.18402 -31.74414,-12.55274 -5.794,-6.07322 -9.4752,-13.54675 -11.06445,-22.40625 -0.67141,0.6953 -1.32976,1.35263 -1.99414,2.02735 1.59196,8.84741 5.27061,16.31198 11.05859,22.3789 8.08014,8.36872 18.66202,12.55274 31.74414,12.55274 11.73544,0 22.46038,-2.83639 32.17578,-8.51172 9.7154,-5.77153 20.68009,-14.66935 32.89649,-26.69336 l 0.14453,0 c 0.67687,-0.67201 1.30425,-1.33243 1.96289,-2 l -0.10742,0 z m 389.0039,15.50195 c -6.03078,5.99349 -11.0075,10.38413 -14.86328,13.06641 -6.54106,4.61722 -13.0356,6.92578 -19.48047,6.92578 -3.6553,0 -10.38762,-1.58738 -20.19922,-4.76172 -9.7154,-3.17434 -17.07418,-4.76172 -22.07617,-4.76172 -6.25248,0 -10.82127,1.58738 -13.70703,4.76172 -0.26996,0.30719 -0.48829,0.52918 -0.74023,0.80664 2.88945,-2.37665 7.03712,-3.56836 12.44726,-3.56836 5.00199,0 12.36077,1.58738 22.07617,4.76172 9.8116,3.17434 16.54392,4.76172 20.19922,4.76172 6.44487,0 12.93941,-2.30856 19.48047,-6.92578 4.27677,-2.97514 9.91062,-8.01752 16.86328,-15.06641 z"
       id="text4231"
       inkscape:connector-curvature="0" />
  </g>
</svg>
