<?xml version="1.0" encoding="UTF-8" standalone="no"?>
<!-- Created with Inkscape (http://www.inkscape.org/) -->

<svg
   xmlns:dc="http://purl.org/dc/elements/1.1/"
   xmlns:cc="http://creativecommons.org/ns#"
   xmlns:rdf="http://www.w3.org/1999/02/22-rdf-syntax-ns#"
   xmlns:svg="http://www.w3.org/2000/svg"
   xmlns="http://www.w3.org/2000/svg"
   xmlns:sodipodi="http://sodipodi.sourceforge.net/DTD/sodipodi-0.dtd"
   xmlns:inkscape="http://www.inkscape.org/namespaces/inkscape"
   width="1920"
   height="1080"
   viewBox="0 0 508.00001 285.74999"
   version="1.1"
   id="svg1505"
   inkscape:version="0.92.2 5c3e80d, 2017-08-06"
   sodipodi:docname="Sheraz_Drip.svg">
  <defs
     id="defs1499">
    <inkscape:path-effect
       effect="envelope"
       id="path-effect2127"
       is_visible="true"
       yy="true"
       xx="true"
       bendpath1="m 291.42939,44.0867 c 31.55013,5.791235 6.05463,-18.201342 52.79319,-19.03686"
       bendpath2="M 352.14101,36.57215 V 49.696037"
       bendpath3="m 281.53136,49.696037 h 70.60965"
       bendpath4="M 281.53136,36.57215 V 49.696037"
       bendpath1-nodetypes="cc" />
    <filter
       style="color-interpolation-filters:sRGB"
       id="filter2125"
       inkscape:label="filter0" />
  </defs>
  <sodipodi:namedview
     id="base"
     pagecolor="#ffffff"
     bordercolor="#666666"
     borderopacity="1.0"
     inkscape:pageopacity="0.0"
     inkscape:pageshadow="2"
     inkscape:zoom="0.59074074"
     inkscape:cx="1044.6395"
     inkscape:cy="673.21258"
     inkscape:document-units="px"
     inkscape:current-layer="layer1"
     showgrid="false"
     units="px"
     borderlayer="true"
     inkscape:showpageshadow="false"
     inkscape:window-width="1440"
     inkscape:window-height="851"
     inkscape:window-x="0"
     inkscape:window-y="1"
     inkscape:window-maximized="1"
     inkscape:snap-global="false" />
  <metadata
     id="metadata1502">
    <rdf:RDF>
      <cc:Work
         rdf:about="">
        <dc:format>image/svg+xml</dc:format>
        <dc:type
           rdf:resource="http://purl.org/dc/dcmitype/StillImage" />
        <dc:title></dc:title>
      </cc:Work>
    </rdf:RDF>
  </metadata>
  <g
     inkscape:label="Layer 1"
     inkscape:groupmode="layer"
     id="layer1"
     transform="translate(0,-11.25001)">
    <g
       aria-label="Sheraz"
       style="font-style:normal;font-variant:normal;font-weight:normal;font-stretch:normal;font-size:168.24737549px;line-height:125%;font-family:Euphorigenic;-inkscape-font-specification:'Euphorigenic, Normal';font-variant-ligatures:normal;font-variant-caps:normal;font-variant-numeric:normal;font-feature-settings:normal;text-align:start;letter-spacing:0px;word-spacing:0px;writing-mode:lr-tb;text-anchor:start;fill:#000000;fill-opacity:1;stroke:none;stroke-width:4.20618391px;stroke-linecap:butt;stroke-linejoin:miter;stroke-opacity:1"
       id="text2052"
       transform="translate(31.031302,9.9183913)">
      <path
         d="m 92.789924,170.83529 c 0,4.59876 -0.841237,8.74886 -2.523711,12.45031 -1.682473,3.70144 -3.925772,6.78597 -6.729895,9.2536 -2.804123,2.57979 -5.94474,4.54268 -9.421853,5.88866 -1.738556,0.67299 -3.471174,1.30852 -5.25773,1.51423 -7.478042,0.86101 -1.737425,9.94789 -5.341854,10.02974 -4.323205,0.0982 2.808562,-7.32302 -7.444946,-10.78685 -2.344615,-0.79206 -4.500618,-2.1031 -6.519586,-3.78557 -4.037937,-3.25279 -6.898143,-7.96371 -8.580617,-14.13278 l 5.215669,-1.34598 c 1.121649,3.81361 3.084535,7.01031 5.888658,9.5901 2.916288,2.57979 6.281236,3.86969 10.094843,3.86969 5.720411,0 9.758348,-1.79464 12.113811,-5.38392 2.355463,-3.58927 3.533195,-8.58061 3.533195,-14.97401 0,-6.7299 -1.514227,-13.57196 -4.54268,-20.52618 -6.196248,-11.33713 -0.413947,4.0619 -5.208724,3.84517 -4.464551,-0.2018 3.245176,-6.57299 -8.251066,-27.06331 -8.070881,-14.38513 0.410883,10.82974 -6.042665,10.96865 -6.362679,0.13695 3.132706,-13.93715 -7.417125,-36.03751 -3.789961,-7.939416 -4.374431,-15.815254 -4.374431,-22.545149 0,-4.374432 0.616907,-8.300204 1.850721,-11.777316 1.345979,-3.589277 3.084535,-6.61773 5.215668,-9.085359 2.243299,-2.467628 4.879174,-4.374431 7.907627,-5.72041 3.028453,-1.345979 6.281235,-2.018969 9.758348,-2.018969 3.589277,0 7.627214,1.906804 12.113811,5.720411 v -7.06639 h 6.3934 v 21.535664 h -1.59835 c -2.877355,0.130789 2.482764,11.907928 -1.24867,12.00569 -3.731434,0.09776 0.881941,-12.191179 -1.94803,-12.00569 h -1.59835 c 0,-3.925772 -1.065567,-7.06639 -3.1967,-9.421853 -1.248053,-1.183644 -2.727871,-1.994725 -4.195773,-2.696698 -8.095092,-3.871195 0.814568,10.474059 -4.214855,10.603058 -5.029861,0.129011 2.460701,-13.449575 -4.743542,-10.512325 -1.366695,0.557217 -2.468997,1.666547 -3.334073,3.026584 -1.682474,2.74804 -2.523711,6.870101 -2.523711,12.366182 0,13.23546 6.000823,28.71422 18.002469,46.43628 6.056906,8.86103 10.599585,17.10515 13.628038,24.73236 3.028453,7.62721 4.542679,15.31051 4.542679,23.04989 z"
         style="font-style:normal;font-variant:normal;font-weight:normal;font-stretch:normal;font-size:168.24737549px;font-family:Euphorigenic;-inkscape-font-specification:'Euphorigenic, Normal';font-variant-ligatures:normal;font-variant-caps:normal;font-variant-numeric:normal;font-feature-settings:normal;text-align:start;writing-mode:lr-tb;text-anchor:start;stroke-width:4.20618391px"
         id="path2073"
         inkscape:connector-curvature="0"
         sodipodi:nodetypes="sscssssccccssscsssssccssccccczcccssscscss" />
      <path
         d="m 166.44021,169.82581 c -8.27331,0.0205 -4.2603,11.55883 -7.52907,11.64166 -3.26877,0.0828 0.68042,-11.5023 -7.52907,-11.64166 h -15.05814 v -7.06639 h 2.35547 c 1.23381,0 2.18721,-0.11217 2.8602,-0.3365 0.67299,-0.33649 1.17774,-1.06556 1.51423,-2.18721 0.33649,-1.23382 0.50474,-3.02846 0.50474,-5.38392 0.11217,-2.35547 0.16825,-5.55217 0.16825,-9.5901 v -32.47174 c -0.33649,-3.36495 -1.45814,-6.33733 -3.36495,-8.91712 -1.79464,-2.57979 -4.36204,-4.401034 -7.57113,-3.86969 -7.39172,1.22388 0.22448,11.37118 -4.24469,11.49989 -4.08137,0.11755 3.42525,-16.384336 -4.16768,-7.46195 -2.01897,2.57979 -3.02845,5.60825 -3.02845,9.08536 v 33.48123 c 0,6.05691 0.39258,10.26309 1.17773,12.61855 0.89732,2.35547 3.08454,3.5332 6.56165,3.5332 v 7.06639 h -7.52907 c -3.11157,0.11148 -1.95768,2.65395 -3.76454,2.64583 -1.80685,-0.008 -0.87247,-2.3398 -3.76453,-2.64583 -13.67771,0 -1.87814,14.22033 -8.46155,14.22033 -6.583411,0 4.36573,-14.22033 -6.596593,-14.22033 v -7.06639 h 2.523713 c 2.80412,0 4.31835,-1.62639 4.54268,-4.87918 0.44866,-9.53401 0.72907,-18.8437 0.84123,-27.92906 0.11217,-9.08536 0.16825,-18.33897 0.16825,-27.76082 0,-5.72041 -0.0561,-11.777315 -0.16825,-18.170716 -0.11216,-6.505565 -0.39257,-13.964532 -0.84123,-22.376901 -0.22433,-2.243298 -0.89732,-3.589277 -2.01897,-4.037937 -1.12165,-0.448659 -2.80413,-0.672989 -5.047423,-0.672989 v -7.06639 h 23.218133 c 0,5.159586 -0.0561,11.721234 -0.16824,19.684943 -0.11217,7.963709 -0.28041,17.890304 -0.50474,29.779785 2.80412,-4.150102 6.89814,-6.225153 12.28205,-6.225153 4.03794,0 7.57114,0.616907 10.59959,1.850722 3.14061,1.121649 5.77649,2.74804 7.90762,4.879173 2.2433,2.131133 3.92578,4.598763 5.04743,7.402883 1.12165,2.80413 1.68247,5.7765 1.68247,8.91711 v 21.03092 c 0,6.28124 0.11216,11.16042 0.33649,14.63753 0.22433,3.36495 0.61691,5.88866 1.17774,7.57113 0.56082,1.57031 1.28989,2.52371 2.18721,2.8602 1.00949,0.3365 2.2433,0.50475 3.70144,0.50475 z"
         style="font-style:normal;font-variant:normal;font-weight:normal;font-stretch:normal;font-size:168.24737549px;font-family:Euphorigenic;-inkscape-font-specification:'Euphorigenic, Normal';font-variant-ligatures:normal;font-variant-caps:normal;font-variant-numeric:normal;font-feature-settings:normal;text-align:start;writing-mode:lr-tb;text-anchor:start;stroke-width:4.20618391px"
         id="path2075"
         inkscape:connector-curvature="0"
         sodipodi:nodetypes="czcccscccsccsscsscccczczccscssccccccscscccssccccc" />
      <path
         d="m 221.76468,151.99158 c -3.92577,12.67464 -11.77732,19.01196 -23.55463,19.01196 -4.03794,0 -7.6833,-0.9534 -10.93608,-2.86021 -3.25278,-1.9068 -6.0569,-4.43051 -8.41237,-7.57113 -2.35546,-3.25278 -4.20618,-7.0103 -5.55216,-11.27257 -1.23381,-4.26227 -1.85072,-8.69278 -1.85072,-13.29155 v -9.42185 c 0,-4.37443 0.67299,-8.58062 2.01897,-12.61855 1.34597,-4.03794 3.19669,-7.57114 5.55216,-10.59959 2.46763,-3.02845 5.32783,-5.439996 8.58061,-7.234635 3.25279,-1.906803 6.78598,-2.860205 10.59959,-2.860205 7.17855,0 12.7868,2.018968 16.82474,6.056905 4.1501,3.925765 6.22515,9.477935 6.22515,16.656495 0,1.34597 -0.16825,2.57979 -0.50474,3.70144 -0.33649,1.12165 -1.00948,2.18721 -2.01897,3.1967 -0.89732,0.89732 -2.18722,1.85072 -3.86969,2.8602 -9.29383,4.74036 -5.64114,15.27032 -8.17358,15.19929 -2.53243,-0.071 2.49783,-11.95953 -8.48291,-7.45991 l -10.59959,4.71093 v 12.61855 c 0,3.58928 1.00949,6.67382 3.02846,9.25361 2.13113,2.57979 4.65484,3.86969 7.57113,3.86969 1.9068,0 3.86969,-0.28041 5.88866,-0.84124 2.13113,-0.67299 4.09402,-1.51422 5.88866,-2.52371 1.79463,-1.12165 3.36494,-2.41154 4.71092,-3.86969 1.34598,-1.45815 2.29938,-3.02846 2.86021,-4.71093 z m -10.26309,-37.51916 c 0,-4.71093 -1.10785,-8.21291 -3.32321,-10.55277 -1.10769,-1.16992 -2.49225,1.69131 -4.15365,1.58929 -1.76132,-0.10815 -3.59964,-5.13809 -5.81468,-5.1693 -6.98998,-0.0985 -1.80339,8.44816 -4.37443,8.58607 -2.57104,0.13791 1.38904,-10.511841 -3.36495,-4.54813 -0.89732,1.23381 -1.62639,2.63587 -2.18722,4.20618 -0.44866,1.57031 -0.67299,3.1967 -0.67299,4.87917 v 16.32 l 19.01196,-7.73938 c 3.25278,-1.34598 4.87917,-3.86969 4.87917,-7.57113 z"
         style="font-style:normal;font-variant:normal;font-weight:normal;font-stretch:normal;font-size:168.24737549px;font-family:Euphorigenic;-inkscape-font-specification:'Euphorigenic, Normal';font-variant-ligatures:normal;font-variant-caps:normal;font-variant-numeric:normal;font-feature-settings:normal;text-align:start;writing-mode:lr-tb;text-anchor:start;stroke-width:4.20618391px"
         id="path2077"
         inkscape:connector-curvature="0"
         sodipodi:nodetypes="cscccsscccscscsczccscsccsccsssszccsccs" />
      <path
         d="m 283.23806,114.97716 c 0,3.58928 -1.00948,6.50557 -3.02845,8.74886 -10.59191,6.36834 -4.43051,12.7217 -7.23464,12.7217 -3.02845,0 3.52711,-7.00068 -7.23463,-12.88994 -2.52015,-1.37913 -2.69196,-4.99134 -2.69196,-8.24412 0,-2.69196 0.67299,-5.04742 2.01897,-7.06639 1.45814,-2.13113 3.47711,-3.1967 6.0569,-3.1967 0,-3.02845 -2.18721,-4.54268 -6.56164,-4.54268 -4.15011,0 -7.40289,2.91629 -9.75835,8.74886 -2.2433,5.83257 -3.36495,13.85237 -3.36495,24.05938 0,5.49608 0.0561,10.31917 0.16825,14.46927 0.22433,4.03793 0.56082,7.45896 1.00948,10.26309 0.33649,2.01897 0.84124,3.30886 1.51423,3.86969 0.67299,0.56083 2.46762,0.84124 5.38391,0.84124 v 7.06639 c -13.82463,0.65619 -11.03988,15.91011 -15.05814,15.875 -4.01826,-0.0351 -1.50594,-15.42204 -15.05814,-15.875 v -7.06639 h 2.35547 c 1.34598,0 2.35546,-0.50474 3.02845,-1.51423 0.78515,-1.12165 1.34598,-2.57979 1.68247,-4.37443 0.44866,-1.90681 0.72907,-4.15011 0.84124,-6.7299 0.11217,-2.57979 0.16825,-5.32783 0.16825,-8.24412 0,-7.17855 -0.11217,-13.7402 -0.3365,-19.68494 -0.11216,-5.94474 -0.33649,-11.04824 -0.67299,-15.31051 -0.11216,-1.12165 -0.22432,-1.96289 -0.33649,-2.52371 -0.11217,-0.67299 -0.44866,-1.17774 -1.00949,-1.51423 -0.44865,-0.33649 -1.12164,-0.56082 -2.01896,-0.67299 -0.89732,-0.11217 -2.13114,-0.16825 -3.70145,-0.16825 v -7.066386 h 21.03093 v 8.748866 c 1.79463,-6.842062 6.50556,-10.263093 14.13278,-10.263093 6.16907,0 10.82391,1.682474 13.96453,5.047421 3.14061,3.364952 4.71092,8.861032 4.71092,16.488242 z"
         style="font-style:normal;font-variant:normal;font-weight:normal;font-stretch:normal;font-size:168.24737549px;font-family:Euphorigenic;-inkscape-font-specification:'Euphorigenic, Normal';font-variant-ligatures:normal;font-variant-caps:normal;font-variant-numeric:normal;font-feature-settings:normal;text-align:start;writing-mode:lr-tb;text-anchor:start;stroke-width:4.20618391px"
         id="path2079"
         inkscape:connector-curvature="0"
         sodipodi:nodetypes="scsssccscsccccczccsccssccccsccccscs" />
      <path
         d="m 349.56433,159.05797 c 0,3.36495 -1.12165,6.22515 -3.36495,8.58062 -1.12164,1.17773 -2.38418,2.09452 -3.82762,2.64989 -6.6527,2.55966 -2.29906,9.34997 -5.81132,9.34997 -2.80413,0 1.95211,-6.73265 -6.17631,-10.35945 -2.17425,-0.97013 -3.64535,-3.15464 -4.87917,-5.67835 -3.14062,2.46763 -6.28124,4.37444 -9.42186,5.72041 -10.71454,2.92261 -6.05691,14.1898 -9.08536,14.1898 -3.70144,0 0.74589,-12.68999 -9.71628,-13.43268 -2.89346,-0.20541 -5.08948,-2.1031 -6.94021,-3.78557 -3.70144,-3.36495 -5.55216,-8.24412 -5.55216,-14.63752 0,-3.14062 0.61691,-5.88866 1.85072,-8.24412 1.34598,-2.46763 3.42103,-4.43051 6.22515,-5.88866 2.69196,-1.34598 5.44,-2.63588 8.24413,-3.86969 2.91629,-1.23381 5.66433,-2.52371 8.24412,-3.86969 2.57979,-1.34598 4.99134,-2.74804 7.23463,-4.20618 2.35547,-1.57031 4.31835,-3.36495 5.88866,-5.38392 -0.11216,-4.03794 -0.33649,-7.29072 -0.67299,-9.75835 -0.33649,-2.57979 -0.84123,-4.59876 -1.51422,-6.0569 -0.67299,-1.45815 -1.6264,-2.46763 -2.86021,-3.02846 -1.23381,-0.56082 -2.80412,-0.84123 -4.71092,-0.84123 -6.61773,0 -9.9266,1.51423 -9.9266,4.54268 4.59876,1.68247 6.89814,5.27175 6.89814,10.76783 0,2.91629 -0.9534,5.49608 -2.8602,7.73938 -0.9534,1.12165 -2.0082,1.98608 -3.1967,2.52371 -4.72516,2.13745 -1.18545,4.60424 -3.86969,4.5454 -2.44255,-0.0535 0.9544,-3.08371 -3.99588,-4.50334 -1.26715,-0.3634 -2.28536,-1.33196 -3.23876,-2.39753 -1.90681,-2.13113 -2.86021,-4.65484 -2.86021,-7.57113 0,-3.70144 0.61691,-6.95422 1.85073,-9.75834 1.23381,-2.80413 2.91629,-5.15959 5.04742,-7.066395 2.24329,-1.906803 4.82309,-3.364947 7.73938,-4.374431 3.02845,-1.009485 6.22515,-1.514227 9.5901,-1.514227 4.03793,0 7.51504,0.504742 10.43133,1.514227 3.02845,1.009484 5.49608,3.028453 7.40289,6.056906 1.9068,3.02845 3.30886,7.3468 4.20618,12.95505 0.89732,5.49608 1.34598,12.7868 1.34598,21.87216 0,8.41237 0.16825,14.97401 0.50474,19.68494 0.44866,4.59876 1.40206,6.89814 2.86021,6.89814 0.67299,0 1.23381,-0.33649 1.68247,-1.00948 0.56083,-0.67299 0.84124,-1.6264 0.84124,-2.86021 v -5.21567 h 6.3934 z m -26.41484,-10.09484 c 0,-3.81361 -0.0561,-7.62721 -0.16824,-11.44082 0,-3.81361 -0.0561,-7.62721 -0.16825,-11.44082 -1.68247,2.46763 -3.75753,4.54268 -6.22516,6.22515 -2.35546,1.68247 -4.65484,3.36495 -6.89814,5.04742 -2.13113,1.57031 -3.98185,3.36495 -5.55216,5.38392 -1.57031,2.01897 -2.35546,4.59876 -2.35546,7.73938 0,3.14061 0.89732,5.60824 2.69195,7.40288 1.90681,1.68247 4.71093,2.52371 8.41237,2.52371 2.91629,0 5.32783,-1.17773 7.23464,-3.53319 2.01897,-2.35547 3.02845,-4.99134 3.02845,-7.90763 z"
         style="font-style:normal;font-variant:normal;font-weight:normal;font-stretch:normal;font-size:168.24737549px;font-family:Euphorigenic;-inkscape-font-specification:'Euphorigenic, Normal';font-variant-ligatures:normal;font-variant-caps:normal;font-variant-numeric:normal;font-feature-settings:normal;text-align:start;writing-mode:lr-tb;text-anchor:start;stroke-width:4.20618391px"
         id="path2081"
         inkscape:connector-curvature="0"
         sodipodi:nodetypes="sssssccsssscccscccccscscssssscccscccscscsccssccccsscscs" />
      <path
         d="m 404.96766,169.82581 c -12.66612,0.13936 -9.30983,17.69821 -13.0944,17.69821 -3.78458,0 -1.70812,-18.81306 -12.81569,-17.69821 h -25.9101 v -7.06639 c 5.15959,-8.18804 10.26309,-17.2734 15.31051,-27.25608 5.04742,-10.09484 10.09484,-21.25525 15.14226,-33.48123 -8.34287,0.41807 -6.75079,5.89456 -9.75834,5.82083 -3.00756,-0.0737 -4.18933,-6.22338 -9.75835,-5.82083 -3.13245,0.22643 -4.59877,3.02845 -4.37444,9.08536 h -6.56164 V 94.955724 h 50.97895 v 7.066386 c -1.62639,2.84619 -3.33688,5.58739 -4.76087,8.42026 -4.61336,9.17769 -4.08617,24.52813 -6.11178,24.58782 -2.08734,0.0615 0.6406,-14.8293 -2.70018,-8.45711 -1.37283,2.61855 -2.74015,5.17975 -4.05108,7.71047 -5.24371,10.12288 -9.85649,19.61484 -13.83835,28.47587 h 21.36742 c 3.02845,0 4.4866,-3.08454 4.37443,-9.25361 h 6.56165 z"
         style="font-style:normal;font-variant:normal;font-weight:normal;font-stretch:normal;font-size:168.24737549px;font-family:Euphorigenic;-inkscape-font-specification:'Euphorigenic, Normal';font-variant-ligatures:normal;font-variant-caps:normal;font-variant-numeric:normal;font-feature-settings:normal;text-align:start;writing-mode:lr-tb;text-anchor:start;stroke-width:4.20618391px"
         id="path2083"
         inkscape:connector-curvature="0"
         sodipodi:nodetypes="czccccczscccccsssscsccc" />
    </g>
    <ellipse
       style="opacity:1;fill:#000000;fill-opacity:1;fill-rule:evenodd;stroke:none;stroke-width:2.99467373;stroke-linecap:round;stroke-linejoin:round;stroke-miterlimit:4;stroke-dasharray:none;stroke-opacity:1"
       id="path2086"
       cx="254"
       cy="235.41594"
       rx="203.11539"
       ry="13.212579" />
  </g>
</svg>
