<?xml version="1.0" encoding="UTF-8" standalone="no"?>
<!-- Created with Inkscape (http://www.inkscape.org/) -->

<svg
   xmlns:dc="http://purl.org/dc/elements/1.1/"
   xmlns:cc="http://creativecommons.org/ns#"
   xmlns:rdf="http://www.w3.org/1999/02/22-rdf-syntax-ns#"
   xmlns:svg="http://www.w3.org/2000/svg"
   xmlns="http://www.w3.org/2000/svg"
   xmlns:sodipodi="http://sodipodi.sourceforge.net/DTD/sodipodi-0.dtd"
   xmlns:inkscape="http://www.inkscape.org/namespaces/inkscape"
   width="500"
   height="500"
   viewBox="0 0 132.29166 132.29167"
   version="1.1"
   id="svg8"
   inkscape:version="0.92.2 5c3e80d, 2017-08-06"
   sodipodi:docname="logo.svg">
  <defs
     id="defs2" />
  <sodipodi:namedview
     id="base"
     pagecolor="#ffffff"
     bordercolor="#666666"
     borderopacity="1.0"
     inkscape:pageopacity="0.0"
     inkscape:pageshadow="2"
     inkscape:zoom="1.8045365"
     inkscape:cx="288.17085"
     inkscape:cy="246.58676"
     inkscape:document-units="px"
     inkscape:current-layer="layer1"
     showgrid="false"
     borderlayer="true"
     inkscape:showpageshadow="false"
     units="px"
     inkscape:window-width="1440"
     inkscape:window-height="851"
     inkscape:window-x="0"
     inkscape:window-y="1"
     inkscape:window-maximized="1" />
  <metadata
     id="metadata5">
    <rdf:RDF>
      <cc:Work
         rdf:about="">
        <dc:format>image/svg+xml</dc:format>
        <dc:type
           rdf:resource="http://purl.org/dc/dcmitype/StillImage" />
        <dc:title></dc:title>
      </cc:Work>
    </rdf:RDF>
  </metadata>
  <g
     inkscape:label="Layer 1"
     inkscape:groupmode="layer"
     id="layer1"
     transform="translate(0,-164.70832)">
    <path
       style="color:#000000;clip-rule:nonzero;display:inline;overflow:visible;visibility:visible;opacity:1;isolation:auto;mix-blend-mode:normal;color-interpolation:sRGB;color-interpolation-filters:linearRGB;solid-color:#000000;solid-opacity:1;fill:#ff0000;fill-opacity:1;fill-rule:evenodd;stroke:none;stroke-width:0.26458332px;stroke-linecap:butt;stroke-linejoin:miter;stroke-miterlimit:4;stroke-dasharray:none;stroke-dashoffset:0;stroke-opacity:1;color-rendering:auto;image-rendering:auto;shape-rendering:auto;text-rendering:auto;enable-background:accumulate"
       d="m 100.0716,243.4723 c 3.62932,-5.1318 5.64662,-12.47563 6.97859,-18.45795 -5.38918,15.77932 -21.273662,24.28367 -36.970021,26.28118 -15.57428,1.373 -27.183897,-3.59421 -32.869206,-12.35741 -5.68531,-8.76321 -5.364657,-20.79957 3.084922,-32.51919 6.216457,-8.36196 15.526971,-14.25014 24.947992,-15.18271 -14.265691,-0.55687 -26.042795,5.05507 -33.338261,13.85313 -3.647733,4.39903 -6.571931,9.85917 -8.126588,15.74301 -4.835567,17.60838 8.224315,34.59302 23.450611,38.88608 19.587933,3.5776 41.32206,-1.29829 52.841961,-16.24614 z"
       id="path853"
       inkscape:connector-curvature="0"
       sodipodi:nodetypes="ccccccsccc" />
    <rect
       style="opacity:1;fill:none;fill-opacity:1;stroke:#000000;stroke-width:0.34773892;stroke-linecap:round;stroke-linejoin:round;stroke-miterlimit:4;stroke-dasharray:none;stroke-opacity:1"
       id="rect866"
       width="523.06134"
       height="270.87283"
       x="-107.87163"
       y="-159.24365" />
    <path
       id="path864"
       d="m 96.825934,-103.69422 a 38.567788,38.567788 0 0 0 -38.56767,38.56767 38.567788,38.567788 0 0 0 38.56767,38.56767 38.567788,38.567788 0 0 0 33.961236,-20.31555 31.932469,33.487622 0 0 1 -25.25221,13.05812 31.932469,33.487622 0 0 1 -31.932406,-33.48737 31.932469,33.487622 0 0 1 31.932406,-33.48787 31.932469,33.487622 0 0 1 8.71265,1.302239 38.567788,38.567788 0 0 0 -17.421676,-4.204909 z"
       style="color:#000000;clip-rule:nonzero;display:inline;overflow:visible;visibility:visible;opacity:1;isolation:auto;mix-blend-mode:normal;color-interpolation:sRGB;color-interpolation-filters:linearRGB;solid-color:#000000;solid-opacity:1;fill:#ff0000;fill-opacity:1;fill-rule:evenodd;stroke:none;stroke-width:0.26458332px;stroke-linecap:butt;stroke-linejoin:miter;stroke-miterlimit:4;stroke-dasharray:none;stroke-dashoffset:0;stroke-opacity:1;color-rendering:auto;image-rendering:auto;shape-rendering:auto;text-rendering:auto;enable-background:accumulate"
       inkscape:connector-curvature="0" />
  </g>
</svg>
