<?xml version="1.0" encoding="UTF-8" standalone="no"?>
<!-- Created with Inkscape (http://www.inkscape.org/) -->

<svg
   xmlns:dc="http://purl.org/dc/elements/1.1/"
   xmlns:cc="http://creativecommons.org/ns#"
   xmlns:rdf="http://www.w3.org/1999/02/22-rdf-syntax-ns#"
   xmlns:svg="http://www.w3.org/2000/svg"
   xmlns="http://www.w3.org/2000/svg"
   xmlns:sodipodi="http://sodipodi.sourceforge.net/DTD/sodipodi-0.dtd"
   xmlns:inkscape="http://www.inkscape.org/namespaces/inkscape"
   width="550"
   height="550"
   viewBox="0 0 145.52083 145.52084"
   version="1.1"
   id="svg8"
   inkscape:version="0.92.2 5c3e80d, 2017-08-06"
   sodipodi:docname="logo.svg"
   inkscape:export-filename="/Users/sheraz/dev/playground/projects/hidaya_center/graphics/logo.png"
   inkscape:export-xdpi="96"
   inkscape:export-ydpi="96">
  <defs
     id="defs2" />
  <sodipodi:namedview
     id="base"
     pagecolor="#ffffff"
     bordercolor="#666666"
     borderopacity="1.0"
     inkscape:pageopacity="0.0"
     inkscape:pageshadow="2"
     inkscape:zoom="0.36984596"
     inkscape:cx="580.75858"
     inkscape:cy="862.52126"
     inkscape:document-units="px"
     inkscape:current-layer="layer1"
     showgrid="false"
     borderlayer="true"
     inkscape:showpageshadow="false"
     units="px"
     inkscape:window-width="1440"
     inkscape:window-height="851"
     inkscape:window-x="0"
     inkscape:window-y="1"
     inkscape:window-maximized="1"
     inkscape:snap-global="false" />
  <metadata
     id="metadata5">
    <rdf:RDF>
      <cc:Work
         rdf:about="">
        <dc:format>image/svg+xml</dc:format>
        <dc:type
           rdf:resource="http://purl.org/dc/dcmitype/StillImage" />
        <dc:title></dc:title>
      </cc:Work>
    </rdf:RDF>
  </metadata>
  <g
     inkscape:label="Layer 1"
     inkscape:groupmode="layer"
     id="layer1"
     transform="translate(0,-151.47915)">
    <path
       style="color:#000000;clip-rule:nonzero;display:inline;overflow:visible;visibility:visible;opacity:1;isolation:auto;mix-blend-mode:normal;color-interpolation:sRGB;color-interpolation-filters:linearRGB;solid-color:#000000;solid-opacity:1;fill:#ff0000;fill-opacity:1;fill-rule:evenodd;stroke:none;stroke-width:0.26458332px;stroke-linecap:butt;stroke-linejoin:miter;stroke-miterlimit:4;stroke-dasharray:none;stroke-dashoffset:0;stroke-opacity:1;color-rendering:auto;image-rendering:auto;shape-rendering:auto;text-rendering:auto;enable-background:accumulate"
       d="m 260.11018,-80.45663 c 3.62932,-5.1318 5.64662,-12.475629 6.97859,-18.457949 -5.38918,15.779319 -21.27366,24.283669 -36.97002,26.281179 -15.57428,1.373 -27.18389,-3.59421 -32.8692,-12.35741 -5.68531,-8.763209 -5.36466,-20.79957 3.08492,-32.51919 6.21646,-8.36196 15.52697,-14.25014 24.94799,-15.18271 -14.26569,-0.55687 -26.04279,5.05507 -33.33826,13.85313 -3.64773,4.39903 -6.57193,9.85917 -8.12659,15.74301 -4.83557,17.60838 8.22432,34.59302 23.45061,38.88608 19.58794,3.5776 41.32206,-1.29829 52.84196,-16.24614 z"
       id="path853"
       inkscape:connector-curvature="0"
       sodipodi:nodetypes="ccccccsccc" />
    <rect
       style="opacity:1;fill:none;fill-opacity:1;stroke:#000000;stroke-width:0.34773892;stroke-linecap:round;stroke-linejoin:round;stroke-miterlimit:4;stroke-dasharray:none;stroke-opacity:1"
       id="rect866"
       width="523.06134"
       height="270.87283"
       x="-107.87163"
       y="-159.24365" />
    <path
       id="path864"
       d="m 91.354544,-132.41902 a 38.567788,38.567788 0 0 0 -38.56767,38.567671 38.567788,38.567788 0 0 0 38.56767,38.56767 38.567788,38.567788 0 0 0 33.961236,-20.31555 31.932469,33.487622 0 0 1 -25.25221,13.05812 31.932469,33.487622 0 0 1 -31.932406,-33.48737 31.932469,33.487622 0 0 1 31.932406,-33.487871 31.932469,33.487622 0 0 1 8.71265,1.30224 38.567788,38.567788 0 0 0 -17.421676,-4.20491 z"
       style="color:#000000;clip-rule:nonzero;display:inline;overflow:visible;visibility:visible;opacity:1;isolation:auto;mix-blend-mode:normal;color-interpolation:sRGB;color-interpolation-filters:linearRGB;solid-color:#000000;solid-opacity:1;fill:#ff0000;fill-opacity:1;fill-rule:evenodd;stroke:none;stroke-width:0.26458332px;stroke-linecap:butt;stroke-linejoin:miter;stroke-miterlimit:4;stroke-dasharray:none;stroke-dashoffset:0;stroke-opacity:1;color-rendering:auto;image-rendering:auto;shape-rendering:auto;text-rendering:auto;enable-background:accumulate"
       inkscape:connector-curvature="0" />
    <path
       sodipodi:nodetypes="cccccssccccsscccccc"
       id="path870"
       d="m -62.347808,-115.2374 c -12.48057,6.31716 -18.89435,15.835 -20.92002,25.53961 -1.79415,14.4019 3.69706,25.22096 12.57397,32.57666 12.14362,9.55561 29.06235,12.55052 43.08465,11.93058 8.87573,-0.45617 17.44127,-2.57327 25.8563202,-6.48614 8.91123,-4.31717 15.9507798,-10.09245 20.5899498,-16.55498 2.31958,-3.23127 4.05088,-6.63079 5.09239,-10.11287 1.04044,-3.47853 1.72962,-7.03251 1.6245,-10.56559 0.018,-0.35122 -0.90015,-0.60831 -0.98382,0.0412 -0.89694,4.93594 -3.25472,10.0837 -6.16998,13.68089 -3.67298,4.42329 -8.7562898,8.31581 -14.9603698,11.32886 -22.1449902,10.72069 -51.8658502,7.36569 -66.3836202,-7.49366 -7.25897,-7.42975 -9.34267,-16.3289 -6.84349,-24.71071 1.24959,-4.19091 3.6449,-8.25249 7.1119,-11.93639 4.12273,-4.07615 7.68749,-6.63172 11.56902,-8.5798 3.88154,-1.94808 7.98917,-4.05964 13.37904,-5.70582 0.30072,-0.61292 0.35427,-0.80305 -0.44867,-1.10003 -2.31088,0.47621 -7.40174,1.38532 -12.39092,3.14197 -4.98918,1.75665 -9.87669,4.08859 -11.78085,5.00622 z"
       style="color:#000000;clip-rule:nonzero;display:inline;overflow:visible;visibility:visible;opacity:1;isolation:auto;mix-blend-mode:normal;color-interpolation:sRGB;color-interpolation-filters:linearRGB;solid-color:#000000;solid-opacity:1;fill:#ff0000;fill-opacity:1;fill-rule:evenodd;stroke:none;stroke-width:0.32253799px;stroke-linecap:butt;stroke-linejoin:miter;stroke-miterlimit:4;stroke-dasharray:none;stroke-dashoffset:0;stroke-opacity:1;color-rendering:auto;image-rendering:auto;shape-rendering:auto;text-rendering:auto;enable-background:accumulate"
       inkscape:connector-curvature="0" />
    <path
       style="opacity:1;fill:#2aa72e;fill-opacity:1;stroke:none;stroke-width:0.2128893;stroke-linecap:round;stroke-linejoin:round;stroke-miterlimit:4;stroke-dasharray:none;stroke-opacity:1"
       d="m 215.72764,-17.448707 11.79769,-17.0159 c 0.39896,-0.19453 0.79791,-0.33995 1.19687,-0.0235 V 78.561234 h -12.99456 z"
       id="path879"
       inkscape:connector-curvature="0"
       sodipodi:nodetypes="cccccc" />
    <rect
       style="opacity:1;fill:#ffffff;fill-opacity:1;stroke:none;stroke-width:0.26458335;stroke-linecap:round;stroke-linejoin:round;stroke-miterlimit:4;stroke-dasharray:none;stroke-opacity:1"
       id="rect951"
       width="145.52083"
       height="145.52083"
       x="3.3764647e-06"
       y="151.47916" />
    <g
       id="g949"
       transform="translate(-6.6145809,-1.6101087)">
      <path
         inkscape:connector-curvature="0"
         d="m 96.954844,174.27324 11.797686,-16.04373 c 0.39896,-0.18341 0.79791,-0.32052 1.19687,-0.0221 V 264.79782 H 96.954844 Z m -48.15425,0 11.79769,-16.04373 c 0.39896,-0.18341 0.79791,-0.32052 1.19687,-0.0221 v 106.59046 h -12.99456 z"
         style="opacity:1;fill:#2871ad;fill-opacity:1;stroke:none;stroke-width:0.20671834;stroke-linecap:round;stroke-linejoin:round;stroke-miterlimit:4;stroke-dasharray:none;stroke-opacity:1"
         id="path877" />
      <g
         id="g932">
        <path
           style="color:#000000;clip-rule:nonzero;display:inline;overflow:visible;visibility:visible;opacity:1;isolation:auto;mix-blend-mode:normal;color-interpolation:sRGB;color-interpolation-filters:linearRGB;solid-color:#000000;solid-opacity:1;fill:#ffffff;fill-opacity:1;fill-rule:evenodd;stroke:none;stroke-width:0.32253799px;stroke-linecap:butt;stroke-linejoin:miter;stroke-miterlimit:4;stroke-dasharray:none;stroke-dashoffset:0;stroke-opacity:1;color-rendering:auto;image-rendering:auto;shape-rendering:auto;text-rendering:auto;enable-background:accumulate"
           d="m 69.923116,170.29237 c -16.81242,3.38466 -35.58397,10.38007 -43.7168,26.71485 -8.603271,16.88641 -0.004,38.98938 16.65039,47.27929 27.1807,14.54103 65.192784,10.062 85.177744,-14.47851 5.16282,-6.79777 8.8165,-15.71724 7.6914,-24.30664 -2.53071,-3.07273 -5.56949,0.6688 -5.24609,3.5371 -4.42901,15.74142 -21.49549,23.83215 -36.548834,26.21094 -17.22561,2.56025 -37.44551,-0.79019 -49.29297,-15.05664 -8.54148,-9.94629 -5.07926,-25.53203 4.79493,-33.21484 6.37882,-6.31971 15.86464,-8.90943 23.14257,-12.77149 1.23787,-1.91475 -0.55928,-4.22473 -2.65234,-3.91406 z"
           id="path890"
           inkscape:connector-curvature="0" />
        <path
           sodipodi:nodetypes="cccccssccccsscccccc"
           id="path888"
           d="m 46.145886,180.40186 c -12.48057,6.31716 -18.89435,15.835 -20.920021,25.53961 -1.79415,14.4019 3.697061,25.22096 12.573971,32.57666 12.14362,9.55561 29.06235,12.55052 43.08465,11.93058 8.87573,-0.45617 17.44127,-2.57327 25.856324,-6.48614 8.91123,-4.31717 15.95078,-10.09245 20.58995,-16.55498 2.31958,-3.23127 4.05088,-6.63079 5.09239,-10.11287 1.04044,-3.47853 1.72962,-7.03251 1.6245,-10.56559 0.018,-0.35122 -0.90015,-0.60831 -0.98382,0.0412 -0.89694,4.93594 -3.25472,10.0837 -6.16998,13.68089 -3.67298,4.42329 -8.75629,8.31581 -14.96038,11.32886 -22.144984,10.72069 -51.865844,7.36569 -66.383614,-7.49366 -7.25897,-7.42975 -9.34267,-16.3289 -6.84349,-24.71071 1.24959,-4.19091 3.6449,-8.25249 7.1119,-11.93639 4.12273,-4.07615 7.68749,-6.63172 11.56902,-8.5798 3.88154,-1.94808 7.98917,-4.05964 13.37904,-5.70582 0.30072,-0.61292 0.35427,-0.80305 -0.44867,-1.10003 -2.31088,0.47621 -7.40174,1.38532 -12.39092,3.14197 -4.98918,1.75665 -9.87669,4.08859 -11.78085,5.00622 z"
           style="color:#000000;clip-rule:nonzero;display:inline;overflow:visible;visibility:visible;opacity:1;isolation:auto;mix-blend-mode:normal;color-interpolation:sRGB;color-interpolation-filters:linearRGB;solid-color:#000000;solid-opacity:1;fill:#5fb348;fill-opacity:1;fill-rule:evenodd;stroke:none;stroke-width:0.32253799px;stroke-linecap:butt;stroke-linejoin:miter;stroke-miterlimit:4;stroke-dasharray:none;stroke-dashoffset:0;stroke-opacity:1;color-rendering:auto;image-rendering:auto;shape-rendering:auto;text-rendering:auto;enable-background:accumulate"
           inkscape:connector-curvature="0" />
      </g>
      <g
         id="g938">
        <text
           xml:space="preserve"
           style="font-style:normal;font-weight:normal;font-size:19.07020378px;line-height:125%;font-family:sans-serif;letter-spacing:0px;word-spacing:0px;fill:#5fb348;fill-opacity:1;stroke:none;stroke-width:0.47675508px;stroke-linecap:butt;stroke-linejoin:miter;stroke-opacity:1"
           x="39.237247"
           y="283.21796"
           id="text922"><tspan
             sodipodi:role="line"
             id="tspan920"
             x="39.237247"
             y="283.21796"
             style="font-style:normal;font-variant:normal;font-weight:bold;font-stretch:normal;font-family:sans-serif;-inkscape-font-specification:'sans-serif Bold';letter-spacing:0px;fill:#5fb348;fill-opacity:1;stroke-width:0.47675508px">HIDAYA</tspan></text>
        <text
           xml:space="preserve"
           style="font-style:normal;font-weight:normal;font-size:10.58333302px;line-height:125%;font-family:sans-serif;letter-spacing:0px;word-spacing:0px;fill:#2871ad;fill-opacity:1;stroke:none;stroke-width:0.26458332px;stroke-linecap:butt;stroke-linejoin:miter;stroke-opacity:1"
           x="51.348286"
           y="293.51645"
           id="text926"><tspan
             sodipodi:role="line"
             id="tspan924"
             x="51.348286"
             y="293.51645"
             style="letter-spacing:2.64583325px;word-spacing:0px;fill:#2871ad;fill-opacity:1;stroke-width:0.26458332px">CENTER</tspan></text>
      </g>
    </g>
  </g>
</svg>
