<?xml version="1.0" encoding="UTF-8" standalone="no"?>
<!-- Created with Inkscape (http://www.inkscape.org/) -->

<svg
   xmlns:dc="http://purl.org/dc/elements/1.1/"
   xmlns:cc="http://creativecommons.org/ns#"
   xmlns:rdf="http://www.w3.org/1999/02/22-rdf-syntax-ns#"
   xmlns:svg="http://www.w3.org/2000/svg"
   xmlns="http://www.w3.org/2000/svg"
   xmlns:sodipodi="http://sodipodi.sourceforge.net/DTD/sodipodi-0.dtd"
   xmlns:inkscape="http://www.inkscape.org/namespaces/inkscape"
   width="2000"
   height="2000"
   viewBox="0 0 529.16665 529.16669"
   version="1.1"
   id="svg8"
   inkscape:version="0.92.2 5c3e80d, 2017-08-06"
   sodipodi:docname="logo.svg"
   inkscape:export-filename="/Users/sheraz/dev/playground/projects/hidaya_center/graphics/logo.png"
   inkscape:export-xdpi="96"
   inkscape:export-ydpi="96">
  <defs
     id="defs2" />
  <sodipodi:namedview
     id="base"
     pagecolor="#ffffff"
     bordercolor="#666666"
     borderopacity="1.0"
     inkscape:pageopacity="0.0"
     inkscape:pageshadow="2"
     inkscape:zoom="0.319"
     inkscape:cx="1000"
     inkscape:cy="1000"
     inkscape:document-units="px"
     inkscape:current-layer="layer1"
     showgrid="false"
     borderlayer="true"
     inkscape:showpageshadow="false"
     units="px"
     inkscape:window-width="1440"
     inkscape:window-height="851"
     inkscape:window-x="0"
     inkscape:window-y="1"
     inkscape:window-maximized="1"
     inkscape:snap-global="false" />
  <metadata
     id="metadata5">
    <rdf:RDF>
      <cc:Work
         rdf:about="">
        <dc:format>image/svg+xml</dc:format>
        <dc:type
           rdf:resource="http://purl.org/dc/dcmitype/StillImage" />
        <dc:title></dc:title>
      </cc:Work>
    </rdf:RDF>
  </metadata>
  <g
     inkscape:label="Layer 1"
     inkscape:groupmode="layer"
     id="layer1"
     transform="translate(0,232.16669)">
    <rect
       style="opacity:1;fill:none;fill-opacity:1;stroke:#000000;stroke-width:0.11664298;stroke-linecap:round;stroke-linejoin:round;stroke-miterlimit:4;stroke-dasharray:none;stroke-opacity:1"
       id="rect866"
       width="97.810539"
       height="162.98331"
       x="-207.5515"
       y="434.91534" />
    <path
       id="path864"
       d="m 484.94474,209.83333 a 38.567788,38.567788 0 0 0 -38.56767,38.56767 38.567788,38.567788 0 0 0 38.56767,38.56767 38.567788,38.567788 0 0 0 33.96124,-20.31555 31.932469,33.487622 0 0 1 -25.25221,13.05812 31.932469,33.487622 0 0 1 -31.93241,-33.48737 31.932469,33.487622 0 0 1 31.93241,-33.48787 31.932469,33.487622 0 0 1 8.71265,1.30224 38.567788,38.567788 0 0 0 -17.42168,-4.20491 z"
       style="color:#000000;clip-rule:nonzero;display:inline;overflow:visible;visibility:visible;opacity:1;isolation:auto;mix-blend-mode:normal;color-interpolation:sRGB;color-interpolation-filters:linearRGB;solid-color:#000000;solid-opacity:1;fill:#ff0000;fill-opacity:1;fill-rule:evenodd;stroke:none;stroke-width:0.26458332px;stroke-linecap:butt;stroke-linejoin:miter;stroke-miterlimit:4;stroke-dasharray:none;stroke-dashoffset:0;stroke-opacity:1;color-rendering:auto;image-rendering:auto;shape-rendering:auto;text-rendering:auto;enable-background:accumulate"
       inkscape:connector-curvature="0" />
    <path
       sodipodi:nodetypes="cccccssccccsscccccc"
       id="path870"
       d="m 343.67499,221.10159 c -12.48057,6.31716 -18.89435,15.835 -20.92002,25.53961 -1.79415,14.4019 3.69706,25.22096 12.57397,32.57666 12.14362,9.55561 29.06235,12.55052 43.08465,11.93058 8.87573,-0.45617 17.44127,-2.57327 25.85632,-6.48614 8.91123,-4.31717 15.95078,-10.09245 20.58995,-16.55498 2.31958,-3.23127 4.05088,-6.63079 5.09239,-10.11287 1.04044,-3.47853 1.72962,-7.03251 1.6245,-10.56559 0.018,-0.35122 -0.90015,-0.60831 -0.98382,0.0412 -0.89694,4.93594 -3.25472,10.0837 -6.16998,13.68089 -3.67298,4.42329 -8.75629,8.31581 -14.96037,11.32886 -22.14499,10.72069 -51.86585,7.36569 -66.38362,-7.49366 -7.25897,-7.42975 -9.34267,-16.3289 -6.84349,-24.71071 1.24959,-4.19091 3.6449,-8.25249 7.1119,-11.93639 4.12273,-4.07615 7.68749,-6.63172 11.56902,-8.5798 3.88154,-1.94808 7.98917,-4.05964 13.37904,-5.70582 0.30072,-0.61292 0.35427,-0.80305 -0.44867,-1.10003 -2.31088,0.47621 -7.40174,1.38532 -12.39092,3.14197 -4.98918,1.75665 -9.87669,4.08859 -11.78085,5.00622 z"
       style="color:#000000;clip-rule:nonzero;display:inline;overflow:visible;visibility:visible;opacity:1;isolation:auto;mix-blend-mode:normal;color-interpolation:sRGB;color-interpolation-filters:linearRGB;solid-color:#000000;solid-opacity:1;fill:#ff0000;fill-opacity:1;fill-rule:evenodd;stroke:none;stroke-width:0.32253799px;stroke-linecap:butt;stroke-linejoin:miter;stroke-miterlimit:4;stroke-dasharray:none;stroke-dashoffset:0;stroke-opacity:1;color-rendering:auto;image-rendering:auto;shape-rendering:auto;text-rendering:auto;enable-background:accumulate"
       inkscape:connector-curvature="0" />
    <g
       id="g962">
      <rect
         y="-220.33136"
         x="12.445543"
         height="145.52083"
         width="145.52083"
         id="rect951"
         style="opacity:1;fill:#ffffff;fill-opacity:1;stroke:none;stroke-width:0.26458335;stroke-linecap:round;stroke-linejoin:round;stroke-miterlimit:4;stroke-dasharray:none;stroke-opacity:1" />
      <path
         inkscape:connector-curvature="0"
         d="m 102.7858,-199.14738 11.79769,-16.04373 c 0.39896,-0.18341 0.79791,-0.32052 1.19687,-0.0221 V -108.6228 H 102.7858 Z m -48.154247,0 11.79769,-16.04373 c 0.39896,-0.18341 0.79791,-0.32052 1.19687,-0.0221 v 106.59046 h -12.99456 z"
         style="opacity:1;fill:#2871ad;fill-opacity:1;stroke:none;stroke-width:0.20671834;stroke-linecap:round;stroke-linejoin:round;stroke-miterlimit:4;stroke-dasharray:none;stroke-opacity:1"
         id="path877" />
      <path
         inkscape:connector-curvature="0"
         id="path890"
         d="m 75.754075,-203.12825 c -16.81242,3.38466 -35.58397,10.38007 -43.7168,26.71485 -8.603271,16.88641 -0.004,38.98938 16.65039,47.27929 27.1807,14.54103 65.192785,10.062 85.177745,-14.47851 5.16282,-6.79777 8.8165,-15.71724 7.6914,-24.30664 -2.53071,-3.07273 -5.56949,0.6688 -5.24609,3.5371 -4.42901,15.74142 -21.49549,23.83215 -36.548835,26.21094 -17.22561,2.56025 -37.44551,-0.79019 -49.29297,-15.05664 -8.54148,-9.94629 -5.07926,-25.53203 4.79493,-33.21484 6.37882,-6.31971 15.86464,-8.90943 23.14257,-12.77149 1.23787,-1.91475 -0.55928,-4.22473 -2.65234,-3.91406 z"
         style="color:#000000;clip-rule:nonzero;display:inline;overflow:visible;visibility:visible;opacity:1;isolation:auto;mix-blend-mode:normal;color-interpolation:sRGB;color-interpolation-filters:linearRGB;solid-color:#000000;solid-opacity:1;fill:#ffffff;fill-opacity:1;fill-rule:evenodd;stroke:none;stroke-width:0.32253799px;stroke-linecap:butt;stroke-linejoin:miter;stroke-miterlimit:4;stroke-dasharray:none;stroke-dashoffset:0;stroke-opacity:1;color-rendering:auto;image-rendering:auto;shape-rendering:auto;text-rendering:auto;enable-background:accumulate" />
      <path
         inkscape:connector-curvature="0"
         style="color:#000000;clip-rule:nonzero;display:inline;overflow:visible;visibility:visible;opacity:1;isolation:auto;mix-blend-mode:normal;color-interpolation:sRGB;color-interpolation-filters:linearRGB;solid-color:#000000;solid-opacity:1;fill:#5fb348;fill-opacity:1;fill-rule:evenodd;stroke:none;stroke-width:0.32253799px;stroke-linecap:butt;stroke-linejoin:miter;stroke-miterlimit:4;stroke-dasharray:none;stroke-dashoffset:0;stroke-opacity:1;color-rendering:auto;image-rendering:auto;shape-rendering:auto;text-rendering:auto;enable-background:accumulate"
         d="m 51.976845,-193.01876 c -12.48057,6.31716 -18.89435,15.835 -20.920021,25.53961 -1.79415,14.4019 3.697061,25.22096 12.573971,32.57666 12.14362,9.55561 29.06235,12.55052 43.08465,11.93058 8.87573,-0.45617 17.441275,-2.57327 25.856325,-6.48614 8.91123,-4.31717 15.95078,-10.09245 20.58995,-16.55498 2.31958,-3.23127 4.05088,-6.63079 5.09239,-10.11287 1.04044,-3.47853 1.72962,-7.03251 1.6245,-10.56559 0.018,-0.35122 -0.90015,-0.60831 -0.98382,0.0412 -0.89694,4.93594 -3.25472,10.0837 -6.16998,13.68089 -3.67298,4.42329 -8.75629,8.31581 -14.96038,11.32886 -22.144985,10.72069 -51.865845,7.36569 -66.383615,-7.49366 -7.25897,-7.42975 -9.34267,-16.3289 -6.84349,-24.71071 1.24959,-4.19091 3.6449,-8.25249 7.1119,-11.93639 4.12273,-4.07615 7.68749,-6.63172 11.56902,-8.5798 3.88154,-1.94808 7.98917,-4.05964 13.37904,-5.70582 0.30072,-0.61292 0.35427,-0.80305 -0.44867,-1.10003 -2.31088,0.47621 -7.40174,1.38532 -12.39092,3.14197 -4.98918,1.75665 -9.87669,4.08859 -11.78085,5.00622 z"
         id="path888"
         sodipodi:nodetypes="cccccssccccsscccccc" />
      <text
         id="text922"
         y="-90.202667"
         x="45.068207"
         style="font-style:normal;font-weight:normal;font-size:19.07020378px;line-height:125%;font-family:sans-serif;letter-spacing:0px;word-spacing:0px;fill:#5fb348;fill-opacity:1;stroke:none;stroke-width:0.47675508px;stroke-linecap:butt;stroke-linejoin:miter;stroke-opacity:1"
         xml:space="preserve"><tspan
           style="font-style:normal;font-variant:normal;font-weight:bold;font-stretch:normal;font-family:sans-serif;-inkscape-font-specification:'sans-serif Bold';letter-spacing:0px;fill:#5fb348;fill-opacity:1;stroke-width:0.47675508px"
           y="-90.202667"
           x="45.068207"
           id="tspan920"
           sodipodi:role="line">HIDAYA</tspan></text>
      <text
         id="text926"
         y="-79.904175"
         x="57.179245"
         style="font-style:normal;font-weight:normal;font-size:10.58333302px;line-height:125%;font-family:sans-serif;letter-spacing:0px;word-spacing:0px;fill:#2871ad;fill-opacity:1;stroke:none;stroke-width:0.26458332px;stroke-linecap:butt;stroke-linejoin:miter;stroke-opacity:1"
         xml:space="preserve"><tspan
           style="letter-spacing:2.64583325px;word-spacing:0px;fill:#2871ad;fill-opacity:1;stroke-width:0.26458332px"
           y="-79.904175"
           x="57.179245"
           id="tspan924"
           sodipodi:role="line">CENTER</tspan></text>
    </g>
    <g
       id="g952"
       inkscape:export-xdpi="96"
       inkscape:export-ydpi="96">
      <path
         inkscape:connector-curvature="0"
         id="path836"
         d="m 240.30097,-213.23931 c -0.24935,-0.0166 -0.49841,0.0797 -0.74776,0.19431 l -11.79773,16.04398 v 2.54868 c 4.1859,-1.90222 8.58749,-3.40988 12.99456,-4.6147 v -14.00018 c -0.14961,-0.11191 -0.29946,-0.16215 -0.44907,-0.17209 z m 48.15467,0 c -0.24934,-0.0166 -0.49892,0.0797 -0.74827,0.19431 l -11.79771,16.04398 v 60.4237 c 4.36144,-0.89953 8.80549,-2.2785 12.99456,-4.17804 v -72.31186 c -0.14963,-0.11191 -0.29896,-0.16215 -0.44858,-0.17209 z m -47.7056,21.11499 c -4.47012,2.04083 -8.87979,4.37746 -12.36256,7.82795 -0.21418,0.16665 -0.42391,0.33817 -0.632,0.51211 v 36.98948 c 3.84335,3.39043 8.2618,5.9441 12.99456,7.77782 z m 48.15418,65.40532 c -4.11885,2.19168 -8.48374,3.92996 -12.99456,5.21983 v 15.02234 h 12.99456 z m -61.14874,2.53679 v 17.70538 h 12.99456 v -13.74179 c -4.45953,-0.91076 -8.81997,-2.23443 -12.99456,-3.96359 z"
         style="opacity:1;fill:#2871ad;fill-opacity:1;stroke:none;stroke-width:0.20671836;stroke-linecap:round;stroke-linejoin:round;stroke-miterlimit:4;stroke-dasharray:none;stroke-opacity:1" />
      <path
         sodipodi:nodetypes="cccccssccccsscccccc"
         id="path840"
         d="m 225.10073,-190.87259 c -12.48057,6.31716 -18.89435,15.835 -20.92003,25.53961 -1.79415,14.4019 3.69707,25.22096 12.57398,32.57666 12.14362,9.55561 29.06235,12.55052 43.08465,11.93058 8.87573,-0.45617 17.44127,-2.57327 25.85632,-6.48614 8.91123,-4.31717 15.95078,-10.09245 20.58995,-16.55498 2.31958,-3.23127 4.05088,-6.63079 5.09239,-10.11287 1.04044,-3.47853 1.72962,-7.03251 1.6245,-10.56559 0.018,-0.35122 -0.90015,-0.60831 -0.98382,0.0412 -0.89694,4.93594 -3.25472,10.0837 -6.16998,13.68089 -3.67298,4.42329 -8.75629,8.31581 -14.96038,11.32886 -22.14498,10.72069 -51.86584,7.36569 -66.38361,-7.49366 -7.25897,-7.42975 -9.34267,-16.3289 -6.84349,-24.71071 1.24959,-4.19091 3.6449,-8.25249 7.1119,-11.93639 4.12273,-4.07615 7.68749,-6.63172 11.56902,-8.5798 3.88154,-1.94808 7.98917,-4.05964 13.37904,-5.70582 0.30072,-0.61292 0.35427,-0.80305 -0.44867,-1.10003 -2.31088,0.47621 -7.40174,1.38532 -12.39092,3.14197 -4.98918,1.75665 -9.87669,4.08859 -11.78085,5.00622 z"
         style="color:#000000;clip-rule:nonzero;display:inline;overflow:visible;visibility:visible;opacity:1;isolation:auto;mix-blend-mode:normal;color-interpolation:sRGB;color-interpolation-filters:linearRGB;solid-color:#000000;solid-opacity:1;fill:#5fb348;fill-opacity:1;fill-rule:evenodd;stroke:none;stroke-width:0.32253799px;stroke-linecap:butt;stroke-linejoin:miter;stroke-miterlimit:4;stroke-dasharray:none;stroke-dashoffset:0;stroke-opacity:1;color-rendering:auto;image-rendering:auto;shape-rendering:auto;text-rendering:auto;enable-background:accumulate"
         inkscape:connector-curvature="0" />
      <text
         xml:space="preserve"
         style="font-style:normal;font-weight:normal;font-size:19.07020378px;line-height:125%;font-family:sans-serif;letter-spacing:0px;word-spacing:0px;fill:#5fb348;fill-opacity:1;stroke:none;stroke-width:0.47675508px;stroke-linecap:butt;stroke-linejoin:miter;stroke-opacity:1"
         x="218.19208"
         y="-88.056511"
         id="text846"><tspan
           sodipodi:role="line"
           id="tspan844"
           x="218.19208"
           y="-88.056511"
           style="font-style:normal;font-variant:normal;font-weight:bold;font-stretch:normal;font-family:sans-serif;-inkscape-font-specification:'sans-serif Bold';letter-spacing:0px;fill:#5fb348;fill-opacity:1;stroke-width:0.47675508px">HIDAYA</tspan></text>
      <text
         xml:space="preserve"
         style="font-style:normal;font-weight:normal;font-size:10.58333302px;line-height:125%;font-family:sans-serif;letter-spacing:0px;word-spacing:0px;fill:#2871ad;fill-opacity:1;stroke:none;stroke-width:0.26458332px;stroke-linecap:butt;stroke-linejoin:miter;stroke-opacity:1"
         x="230.30312"
         y="-77.758018"
         id="text850"><tspan
           sodipodi:role="line"
           id="tspan848"
           x="230.30312"
           y="-77.758018"
           style="letter-spacing:2.64583325px;word-spacing:0px;fill:#2871ad;fill-opacity:1;stroke-width:0.26458332px">CENTER</tspan></text>
    </g>
    <text
       xml:space="preserve"
       style="font-style:normal;font-weight:normal;font-size:10.58333397px;line-height:125%;font-family:sans-serif;letter-spacing:0px;word-spacing:0px;fill:#000000;fill-opacity:1;stroke:none;stroke-width:0.26458335px;stroke-linecap:butt;stroke-linejoin:miter;stroke-opacity:1"
       x="37.484119"
       y="-53.348869"
       id="text875"><tspan
         sodipodi:role="line"
         id="tspan873"
         x="37.484119"
         y="-53.348869"
         style="stroke-width:0.26458335px">white background</tspan></text>
    <text
       xml:space="preserve"
       style="font-style:normal;font-weight:normal;font-size:10.58333397px;line-height:125%;font-family:sans-serif;letter-spacing:0px;word-spacing:0px;fill:#000000;fill-opacity:1;stroke:none;stroke-width:0.26458335px;stroke-linecap:butt;stroke-linejoin:miter;stroke-opacity:1"
       x="197.73103"
       y="-49.056541"
       id="text879"><tspan
         sodipodi:role="line"
         id="tspan877"
         x="197.73103"
         y="-49.056541"
         style="stroke-width:0.26458335px">transparent background</tspan></text>
    <g
       id="g966"
       inkscape:export-xdpi="96"
       inkscape:export-ydpi="96">
      <path
         style="opacity:1;fill:#2871ad;fill-opacity:1;stroke:none;stroke-width:0.20671836;stroke-linecap:round;stroke-linejoin:round;stroke-miterlimit:4;stroke-dasharray:none;stroke-opacity:1"
         d="m 405.55558,-213.23931 c -0.24935,-0.0166 -0.49841,0.0797 -0.74776,0.19431 l -11.79773,16.04398 v 2.54868 c 4.1859,-1.90222 8.58749,-3.40988 12.99456,-4.6147 v -14.00018 c -0.14961,-0.11191 -0.29946,-0.16215 -0.44907,-0.17209 z m 48.15467,0 c -0.24934,-0.0166 -0.49892,0.0797 -0.74827,0.19431 l -11.79771,16.04398 v 60.4237 c 4.36144,-0.89953 8.80549,-2.2785 12.99456,-4.17804 v -72.31186 c -0.14963,-0.11191 -0.29896,-0.16215 -0.44858,-0.17209 z m -47.7056,21.11499 c -4.47012,2.04083 -8.87979,4.37746 -12.36256,7.82795 -0.21418,0.16665 -0.42391,0.33817 -0.632,0.51211 v 36.98948 c 3.84335,3.39043 8.2618,5.9441 12.99456,7.77782 z m 48.15418,65.40532 c -4.11885,2.19168 -8.48374,3.92996 -12.99456,5.21983 v 15.02234 h 12.99456 z m -61.14874,2.53679 v 17.70538 h 12.99456 v -13.74179 c -4.45953,-0.91076 -8.81997,-2.23443 -12.99456,-3.96359 z"
         id="path881"
         inkscape:connector-curvature="0" />
      <path
         inkscape:connector-curvature="0"
         style="color:#000000;clip-rule:nonzero;display:inline;overflow:visible;visibility:visible;opacity:1;isolation:auto;mix-blend-mode:normal;color-interpolation:sRGB;color-interpolation-filters:linearRGB;solid-color:#000000;solid-opacity:1;fill:#5fb348;fill-opacity:1;fill-rule:evenodd;stroke:none;stroke-width:0.32253799px;stroke-linecap:butt;stroke-linejoin:miter;stroke-miterlimit:4;stroke-dasharray:none;stroke-dashoffset:0;stroke-opacity:1;color-rendering:auto;image-rendering:auto;shape-rendering:auto;text-rendering:auto;enable-background:accumulate"
         d="m 390.35534,-190.87259 c -12.48057,6.31716 -18.89435,15.835 -20.92003,25.53961 -1.79415,14.4019 3.69707,25.22096 12.57398,32.57666 12.14362,9.55561 29.06235,12.55052 43.08465,11.93058 8.87573,-0.45617 17.44127,-2.57327 25.85632,-6.48614 8.91123,-4.31717 15.95078,-10.09245 20.58995,-16.55498 2.31958,-3.23127 4.05088,-6.63079 5.09239,-10.11287 1.04044,-3.47853 1.72962,-7.03251 1.6245,-10.56559 0.018,-0.35122 -0.90015,-0.60831 -0.98382,0.0412 -0.89694,4.93594 -3.25472,10.0837 -6.16998,13.68089 -3.67298,4.42329 -8.75629,8.31581 -14.96038,11.32886 -22.14498,10.72069 -51.86584,7.36569 -66.38361,-7.49366 -7.25897,-7.42975 -9.34267,-16.3289 -6.84349,-24.71071 1.24959,-4.19091 3.6449,-8.25249 7.1119,-11.93639 4.12273,-4.07615 7.68749,-6.63172 11.56902,-8.5798 3.88154,-1.94808 7.98917,-4.05964 13.37904,-5.70582 0.30072,-0.61292 0.35427,-0.80305 -0.44867,-1.10003 -2.31088,0.47621 -7.40174,1.38532 -12.39092,3.14197 -4.98918,1.75665 -9.87669,4.08859 -11.78085,5.00622 z"
         id="path883"
         sodipodi:nodetypes="cccccssccccsscccccc" />
    </g>
    <text
       id="text887"
       y="-48.341148"
       x="360.12408"
       style="font-style:normal;font-weight:normal;font-size:10.58333397px;line-height:125%;font-family:sans-serif;letter-spacing:0px;word-spacing:0px;fill:#000000;fill-opacity:1;stroke:none;stroke-width:0.26458335px;stroke-linecap:butt;stroke-linejoin:miter;stroke-opacity:1"
       xml:space="preserve"><tspan
         style="stroke-width:0.26458335px"
         y="-48.341148"
         x="360.12408"
         id="tspan885"
         sodipodi:role="line">transparent background</tspan><tspan
         style="stroke-width:0.26458335px"
         y="-35.111992"
         x="360.12408"
         sodipodi:role="line"
         id="tspan889">no text</tspan></text>
    <ellipse
       style="color:#000000;clip-rule:nonzero;display:inline;overflow:visible;visibility:visible;opacity:1;isolation:auto;mix-blend-mode:normal;color-interpolation:sRGB;color-interpolation-filters:linearRGB;solid-color:#000000;solid-opacity:1;fill:#2871ad;fill-opacity:1;fill-rule:evenodd;stroke:none;stroke-width:0.26458332px;stroke-linecap:butt;stroke-linejoin:miter;stroke-miterlimit:4;stroke-dasharray:none;stroke-dashoffset:0;stroke-opacity:1;color-rendering:auto;image-rendering:auto;shape-rendering:auto;text-rendering:auto;enable-background:accumulate"
       id="path904"
       cx="22.394197"
       cy="267.55576"
       rx="8.2941484"
       ry="6.2206111" />
    <ellipse
       style="opacity:1;vector-effect:none;fill:#5fb348;fill-opacity:1;fill-rule:evenodd;stroke:none;stroke-width:0.26458332px;stroke-linecap:butt;stroke-linejoin:miter;stroke-miterlimit:4;stroke-dasharray:none;stroke-dashoffset:0;stroke-opacity:1"
       id="path906"
       cx="59.717861"
       cy="268.38516"
       rx="7.4647331"
       ry="6.2206111" />
    <text
       xml:space="preserve"
       style="font-style:normal;font-weight:normal;font-size:10.58333302px;line-height:125%;font-family:sans-serif;letter-spacing:0px;word-spacing:0px;fill:#000000;fill-opacity:1;stroke:none;stroke-width:0.26458332px;stroke-linecap:butt;stroke-linejoin:miter;stroke-opacity:1"
       x="10.782393"
       y="233.13504"
       id="text910"><tspan
         sodipodi:role="line"
         id="tspan908"
         x="10.782393"
         y="233.13504"
         style="stroke-width:0.26458332px">Color Palette</tspan></text>
    <text
       id="text914"
       y="170.09952"
       x="331.76593"
       style="font-style:normal;font-weight:normal;font-size:10.58333302px;line-height:125%;font-family:sans-serif;letter-spacing:0px;word-spacing:0px;fill:#000000;fill-opacity:1;stroke:none;stroke-width:0.26458332px;stroke-linecap:butt;stroke-linejoin:miter;stroke-opacity:1"
       xml:space="preserve"><tspan
         style="stroke-width:0.26458332px"
         y="170.09952"
         x="331.76593"
         id="tspan912"
         sodipodi:role="line">Scrap</tspan></text>
    <path
       inkscape:connector-curvature="0"
       d="m 187.38611,199.80115 11.79769,-16.04373 c 0.39896,-0.18341 0.79791,-0.32052 1.19687,-0.0221 v 106.59041 h -12.99456 z m -48.15425,0 11.79769,-16.04373 c 0.39896,-0.18341 0.79791,-0.32052 1.19687,-0.0221 v 106.59046 h -12.99456 z"
       style="opacity:1;fill:#2871ad;fill-opacity:1;stroke:none;stroke-width:0.20671834;stroke-linecap:round;stroke-linejoin:round;stroke-miterlimit:4;stroke-dasharray:none;stroke-opacity:1"
       id="path942" />
    <path
       inkscape:connector-curvature="0"
       id="path944"
       d="m 246.10687,180.73274 c -0.24935,-0.0166 -0.49841,0.0797 -0.74776,0.19431 l -11.79773,16.04398 v 2.54868 c 4.1859,-1.90222 8.58749,-3.40988 12.99456,-4.6147 v -14.00018 c -0.14961,-0.11191 -0.29946,-0.16215 -0.44907,-0.17209 z m 48.15467,0 c -0.24934,-0.0166 -0.49892,0.0797 -0.74827,0.19431 l -11.79771,16.04398 v 60.4237 c 4.36144,-0.89953 8.80549,-2.2785 12.99456,-4.17804 v -72.31186 c -0.14963,-0.11191 -0.29896,-0.16215 -0.44858,-0.17209 z m -47.7056,21.11499 c -4.47012,2.04083 -8.87979,4.37746 -12.36256,7.82795 -0.21418,0.16665 -0.42391,0.33817 -0.632,0.51211 v 36.98948 c 3.84335,3.39043 8.2618,5.9441 12.99456,7.77782 z m 48.15418,65.40532 c -4.11885,2.19168 -8.48374,3.92996 -12.99456,5.21983 v 15.02234 h 12.99456 z m -61.14874,2.53679 v 17.70538 h 12.99456 v -13.74179 c -4.45953,-0.91076 -8.81997,-2.23443 -12.99456,-3.96359 z"
       style="opacity:1;fill:#2871ad;fill-opacity:1;stroke:none;stroke-width:0.20671836;stroke-linecap:round;stroke-linejoin:round;stroke-miterlimit:4;stroke-dasharray:none;stroke-opacity:1" />
    <g
       id="g1001"
       inkscape:export-xdpi="96"
       inkscape:export-ydpi="96">
      <path
         style="opacity:1;fill:#2871ad;fill-opacity:1;stroke:none;stroke-width:0.20671836;stroke-linecap:round;stroke-linejoin:round;stroke-miterlimit:4;stroke-dasharray:none;stroke-opacity:1"
         d="m 78.56508,-10.86209 c -0.24935,-0.0166 -0.49841,0.0797 -0.74776,0.19431 L 66.01959,5.3762 V 7.92488 C 70.20549,6.02266 74.60708,4.515 79.01415,3.31018 V -10.69 c -0.14961,-0.11191 -0.29946,-0.16215 -0.44907,-0.17209 z m 48.15467,0 c -0.24934,-0.0166 -0.49892,0.0797 -0.74827,0.19431 L 114.17377,5.3762 v 60.4237 c 4.36144,-0.89953 8.80549,-2.2785 12.99456,-4.17804 V -10.69 c -0.14963,-0.11191 -0.29896,-0.16215 -0.44858,-0.17209 z M 79.01415,10.2529 c -4.47012,2.04083 -8.87979,4.37746 -12.36256,7.82795 -0.21418,0.16665 -0.42391,0.33817 -0.632,0.51211 v 36.98948 c 3.84335,3.39043 8.2618,5.9441 12.99456,7.77782 z m 48.15418,65.40532 c -4.11885,2.19168 -8.48374,3.92996 -12.99456,5.21983 v 15.02234 h 12.99456 z M 66.01959,78.19501 V 95.90039 H 79.01415 V 82.1586 C 74.55462,81.24784 70.19418,79.92417 66.01959,78.19501 Z"
         id="path968"
         inkscape:connector-curvature="0" />
      <path
         inkscape:connector-curvature="0"
         style="color:#000000;clip-rule:nonzero;display:inline;overflow:visible;visibility:visible;opacity:1;isolation:auto;mix-blend-mode:normal;color-interpolation:sRGB;color-interpolation-filters:linearRGB;solid-color:#000000;solid-opacity:1;fill:#5fb348;fill-opacity:1;fill-rule:evenodd;stroke:none;stroke-width:0.32253799px;stroke-linecap:butt;stroke-linejoin:miter;stroke-miterlimit:4;stroke-dasharray:none;stroke-dashoffset:0;stroke-opacity:1;color-rendering:auto;image-rendering:auto;shape-rendering:auto;text-rendering:auto;enable-background:accumulate"
         d="m 63.36484,11.50463 c -12.48057,6.31716 -18.89435,15.835 -20.92003,25.53961 -1.79415,14.4019 3.69707,25.22096 12.57398,32.57666 12.14362,9.55561 29.06235,12.55052 43.08465,11.93058 8.87573,-0.45617 17.44127,-2.57327 25.85632,-6.48614 8.91123,-4.31717 15.95078,-10.09245 20.58995,-16.55498 2.31958,-3.23127 4.05088,-6.63079 5.09239,-10.11287 1.04044,-3.47853 1.72962,-7.03251 1.6245,-10.56559 0.018,-0.35122 -0.90015,-0.60831 -0.98382,0.0412 -0.89694,4.93594 -3.25472,10.0837 -6.16998,13.68089 -3.67298,4.42329 -8.75629,8.31581 -14.96038,11.32886 -22.14498,10.72069 -51.86584,7.36569 -66.38361,-7.49366 -7.25897,-7.42975 -9.34267,-16.3289 -6.84349,-24.71071 1.24959,-4.19091 3.6449,-8.25249 7.1119,-11.93639 4.12273,-4.07615 7.68749,-6.63172 11.56902,-8.5798 C 78.48778,8.21421 82.59541,6.10265 87.98528,4.45647 88.286,3.84355 88.33955,3.65342 87.53661,3.35644 85.22573,3.83265 80.13487,4.74176 75.14569,6.49841 70.15651,8.25506 65.269,10.587 63.36484,11.50463 Z"
         id="path970"
         sodipodi:nodetypes="cccccssccccsscccccc" />
      <g
         transform="translate(-3.1750001,-4.5517733)"
         id="g992">
        <text
           xml:space="preserve"
           style="font-style:normal;font-weight:normal;font-size:47.65071487px;line-height:125%;font-family:sans-serif;letter-spacing:0px;word-spacing:0px;fill:#5fb348;fill-opacity:1;stroke:none;stroke-width:1.19126785px;stroke-linecap:butt;stroke-linejoin:miter;stroke-opacity:1"
           x="159.9977"
           y="51.385117"
           id="text974"><tspan
             sodipodi:role="line"
             id="tspan972"
             x="159.9977"
             y="51.385117"
             style="font-style:normal;font-variant:normal;font-weight:bold;font-stretch:normal;font-family:sans-serif;-inkscape-font-specification:'sans-serif Bold';letter-spacing:0px;fill:#5fb348;fill-opacity:1;stroke-width:1.19126785px">HIDAYA</tspan></text>
        <text
           xml:space="preserve"
           style="font-style:normal;font-weight:normal;font-size:26.44457436px;line-height:125%;font-family:sans-serif;letter-spacing:0px;word-spacing:0px;fill:#2871ad;fill-opacity:1;stroke:none;stroke-width:0.66111434px;stroke-linecap:butt;stroke-linejoin:miter;stroke-opacity:1"
           x="190.25954"
           y="77.117958"
           id="text978"><tspan
             sodipodi:role="line"
             id="tspan976"
             x="190.25954"
             y="77.117958"
             style="letter-spacing:6.61114359px;word-spacing:0px;fill:#2871ad;fill-opacity:1;stroke-width:0.66111434px">CENTER</tspan></text>
      </g>
    </g>
    <text
       xml:space="preserve"
       style="font-style:normal;font-weight:normal;font-size:10.58333397px;line-height:125%;font-family:sans-serif;letter-spacing:0px;word-spacing:0px;fill:#000000;fill-opacity:1;stroke:none;stroke-width:0.26458335px;stroke-linecap:butt;stroke-linejoin:miter;stroke-opacity:1"
       x="67.340645"
       y="128.32422"
       id="text1007"><tspan
         id="tspan1005"
         sodipodi:role="line"
         x="67.340645"
         y="128.32422"
         style="stroke-width:0.26458335px">transparent side text</tspan></text>
  </g>
</svg>
