<?xml version="1.0" encoding="UTF-8" standalone="no"?>
<!-- Created with Inkscape (http://www.inkscape.org/) -->

<svg
   xmlns:dc="http://purl.org/dc/elements/1.1/"
   xmlns:cc="http://creativecommons.org/ns#"
   xmlns:rdf="http://www.w3.org/1999/02/22-rdf-syntax-ns#"
   xmlns:svg="http://www.w3.org/2000/svg"
   xmlns="http://www.w3.org/2000/svg"
   xmlns:sodipodi="http://sodipodi.sourceforge.net/DTD/sodipodi-0.dtd"
   xmlns:inkscape="http://www.inkscape.org/namespaces/inkscape"
   width="297mm"
   height="210mm"
   viewBox="0 0 297 210"
   version="1.1"
   id="svg8"
   inkscape:version="0.92.2 (5c3e80d, 2017-08-06)"
   sodipodi:docname="all_images.svg">
  <defs
     id="defs2" />
  <sodipodi:namedview
     id="base"
     pagecolor="#ffffff"
     bordercolor="#666666"
     borderopacity="1.0"
     inkscape:pageopacity="0.0"
     inkscape:pageshadow="2"
     inkscape:zoom="0.96131944"
     inkscape:cx="561.25984"
     inkscape:cy="396.85039"
     inkscape:document-units="mm"
     inkscape:current-layer="g4540"
     showgrid="false"
     inkscape:window-width="1920"
     inkscape:window-height="986"
     inkscape:window-x="-11"
     inkscape:window-y="-11"
     inkscape:window-maximized="1" />
  <metadata
     id="metadata5">
    <rdf:RDF>
      <cc:Work
         rdf:about="">
        <dc:format>image/svg+xml</dc:format>
        <dc:type
           rdf:resource="http://purl.org/dc/dcmitype/StillImage" />
        <dc:title></dc:title>
      </cc:Work>
    </rdf:RDF>
  </metadata>
  <g
     inkscape:label="Layer 1"
     inkscape:groupmode="layer"
     id="layer1"
     transform="translate(0,-87)">
    <g
       id="g4540"
       transform="translate(39.908257,48.990826)">
      <path
         id="path4542"
         style="fill:#010101;stroke-width:0.11993857"
         d="m 10.954161,66.62362 c -0.259045,-0.13107 -1.9932952,-2.242287 -2.9594562,-3.602746 -0.394997,-0.556199 -0.482481,-0.486992 1.552904,-1.228428 1.1793022,-0.429585 1.5756502,-0.528797 1.6834752,-0.421398 0.07757,0.07726 0.599794,0.743788 1.160504,1.481176 0.818598,1.076528 1.149461,1.412962 1.679141,1.707419 0.753576,0.418923 0.905277,0.772256 0.45712,1.06471 -0.302209,0.197208 -2.908839,1.154685 -3.135722,1.151816 -0.07698,-9.07e-4 -0.274058,-0.06962 -0.437966,-0.152549 z M 4.1199668,60.524009 c -0.873541,-0.344879 -1.825894,-1.296008 -2.116253,-2.113532 -0.470559,-1.175617 -0.242211,-2.024578 -0.01663,-3.008118 0.248932,-0.700883 0.911598,-1.488955 1.569108,-1.866051 0.738546,-0.423569 4.279132,-1.679309 4.388172,-1.556353 0.10262,0.115717 2.5881802,6.997728 2.5881802,7.166146 0,0.05731 -0.8635582,0.428071 -1.9190162,0.823916 -1.628539,0.610778 -2.064257,0.726762 -2.878527,0.766259 -0.77656,0.03767 -1.084496,-0.0027 -1.615031,-0.212267 z M 21.62686,58.795198 c -1.769283,-0.358882 -4.562731,-0.56648 -6.416715,-0.476865 -0.989492,0.04782 -2.007393,0.09526 -2.261995,0.105413 l -0.462922,0.01845 -1.30598,-3.598157 c -0.71829,-1.978984 -1.3060712,-3.628833 -1.3061752,-3.666322 -1.09e-4,-0.03749 0.5260352,-0.425042 1.1692072,-0.861223 1.516915,-1.028735 3.294892,-2.625614 4.647623,-4.174238 0.593692,-0.679672 1.224017,-1.401589 1.400717,-1.604259 0.247948,-0.284385 0.336208,-0.327427 0.386711,-0.188582 1.24404,3.420146 5.15474,14.272188 5.19741,14.422615 0.06859,0.241792 0.03373,0.242558 -1.047881,0.02316 z m 6.739611,-3.925607 c -0.352876,-0.177181 -0.497265,-0.317408 -0.45546,-0.442332 0.449508,-1.343247 0.564934,-1.962162 0.570959,-3.061432 0.0097,-1.770674 -0.426525,-3.178581 -1.442264,-4.654912 -0.443225,-0.6442 -1.671064,-1.792637 -2.301366,-2.152534 -0.259044,-0.147911 -0.471402,-0.311203 -0.47191,-0.362867 -4.53e-4,-0.05167 0.136057,-0.364262 0.303478,-0.694654 l 0.304408,-0.600709 0.625116,0.333505 c 0.344176,0.183623 1.139529,0.846192 1.769708,1.474254 0.888336,0.885353 1.25487,1.355559 1.637183,2.100254 0.524749,1.02214 0.947058,2.398692 0.998133,2.921142 0.217521,0.908055 0.101079,2.358664 0,3.159547 -0.05697,0.186016 -0.139117,0.758208 -0.306901,1.289344 -0.342182,1.083191 -0.393443,1.111981 -1.231084,0.691394 z M 25.59309,53.516684 c -0.696413,-0.302168 -0.723036,-0.352014 -0.526357,-0.985408 0.11359,-0.365813 0.158844,-0.886903 0.128051,-1.474476 -0.07626,-1.455033 -0.746721,-2.663683 -1.993944,-3.594503 l -0.405001,-0.302259 0.319647,-0.630796 0.319648,-0.630796 0.489758,0.274951 c 0.601933,0.33793 1.697514,1.50235 2.03388,2.161682 0.824333,1.615832 0.962425,3.044832 0.470709,4.870933 -0.147004,0.545923 -0.226311,0.575383 -0.836391,0.310672 z"
         inkscape:connector-curvature="0" />
      <path
         inkscape:connector-curvature="0"
         id="path4655"
         d="m 64.743185,62.737684 c -1.740883,-2.858262 -3.032044,-4.45377 -4.446462,-5.494564 -1.691554,-1.244722 -4.694539,-2.197968 -6.924203,-2.197968 -0.45621,0 -0.498516,0.01205 -0.536243,0.152831 -0.02253,0.08406 -0.04137,1.260863 -0.04188,2.615123 -5.78e-4,1.354259 -0.01623,2.462288 -0.03495,2.462288 -0.06675,0 -12.600067,-8.378107 -12.600067,-8.422728 0,-0.04462 12.533318,-8.422726 12.600067,-8.422726 0.01872,0 0.03402,1.157778 0.03402,2.572841 0,1.976525 0.01968,2.588686 0.08491,2.641208 0.0467,0.0376 0.495672,0.104124 0.997718,0.147826 2.788636,0.24274 4.974013,0.946794 6.864627,2.211548 2.414049,1.614914 4.047882,3.939633 4.726282,6.724836 0.28936,1.18801 0.36811,2.060619 0.36811,4.078992 v 1.864464 h -0.26153 -0.26154 z"
         style="fill:#000000;stroke-width:0.06792522" />
      <path
         style="stroke-width:0.06812304"
         inkscape:connector-curvature="0"
         d="m 93.448834,65.349046 c -0.0019,-0.003 -0.0031,-0.006 -0.0049,-0.008 l -1.316684,-1.83933 c -0.05927,-0.0827 -0.141832,-0.14592 -0.237204,-0.18141 l -2.253715,-0.839 c -3.641585,-2.94067 -4.80758,-5.72758 -5.465853,-8.06822 -0.177458,-0.63109 -0.481901,-1.12798 -0.849971,-1.51662 l -0.0013,-0.51876 c -2.64e-4,-0.0284 0.01111,-0.0514 0.03393,-0.0683 0.02297,-0.0169 0.04803,-0.0212 0.07541,-0.0126 l 0.774763,0.24565 c 0.247219,0.0784 0.513853,-0.0409 0.62026,-0.27719 1.156049,-2.56729 0.112131,-5.79332 0.0671,-5.92943 -0.05954,-0.17985 -0.213632,-0.31201 -0.400426,-0.34341 -2.913692,-0.49008 -5.104392,1.53706 -5.196154,1.62358 -0.15784,0.14878 -0.204573,0.38094 -0.116557,0.57918 l 1.077978,2.42824 v 1.02689 c -0.127187,0.026 -0.24136,0.0991 -0.317044,0.20778 -0.113221,0.16254 -2.743997,4.0399 -1.32438,10.53448 -0.04966,0.46957 -0.174874,2.47845 1.118034,3.65289 -0.160907,0.13781 -0.375563,0.2511 -0.703916,0.31882 -1.048957,0.21649 -1.56649,0.98901 -1.384327,2.06651 0.0968,0.57278 0.589741,0.98846 1.172125,0.98846 h 0.315476 c 0.282234,0 0.510924,-0.22875 0.510924,-0.51092 0,-0.28216 -0.22869,-0.51092 -0.510924,-0.51092 h -0.315476 c -0.07105,0 -0.132363,-0.0433 -0.156207,-0.10654 0.0071,-0.0199 0.01341,-0.0403 0.01805,-0.0615 0.05293,-0.0199 0.223784,-0.0592 0.662905,0.007 0.412417,0.0623 0.895136,0.19122 1.361917,0.31589 0.195717,0.0522 0.385984,0.103 0.566851,0.14775 l -0.164108,0.43756 c -0.05879,0.15689 -0.03699,0.33264 0.05845,0.47039 0.09537,0.13774 0.252328,0.2199 0.41991,0.2199 1.481132,0 4.015173,-0.0431 6.282512,-0.16472 4.344001,-0.23298 4.841777,-0.59581 5.05432,-0.75079 1.495983,-1.09024 1.008359,-2.79515 0.541443,-3.5443 -0.0039,-0.007 -0.0087,-0.0126 -0.01307,-0.019 z m -1.642104,-0.53967 -0.346882,-0.0859 c -0.163904,-0.0406 -0.332169,-0.0539 -0.500706,-0.0395 l -0.30594,0.0262 -1.386099,-0.55439 0.339865,-0.59512 1.780191,0.6627 z m -7.750768,-13.38563 -0.318746,-0.10103 c -0.337415,-0.10702 -0.708208,-0.0451 -0.992349,0.16534 -0.218813,0.16199 -0.368001,0.39899 -0.423452,0.65895 -0.35097,-0.18454 -0.710047,-0.31037 -1.044192,-0.39041 v -1.24155 c 0,-0.0714 -0.01497,-0.14203 -0.04401,-0.20729 l -0.116829,-0.26316 c 0.177596,-0.16139 1.364911,-1.18343 3.183048,-1.44809 0.08379,0.85944 0.06996,1.8866 -0.243472,2.82724 z m -0.04905,-4.46499 c 0.04162,0.15784 0.09319,0.37188 0.143399,0.62673 -1.712138,0.24886 -2.928406,1.06068 -3.465693,1.48645 l -0.416025,-0.93717 c 0.574754,-0.4366 1.997503,-1.34189 3.738319,-1.17601 z m -4.320022,8.0845 c 0.32045,-1.17682 0.729189,-1.98497 0.943639,-2.36094 0.619374,0.0762 2.110862,0.42407 2.556182,2.00738 0.685181,2.43622 1.882921,5.32416 5.533634,8.36293 l -0.403696,0.70684 c -1.131115,-0.53892 -4.448776,-2.39909 -6.692477,-6.53933 -0.09251,-0.17072 -0.2682,-0.26759 -0.44968,-0.26759 -0.08223,0 -0.165608,0.0199 -0.242928,0.0618 -0.248102,0.13441 -0.340206,0.44451 -0.205798,0.69261 0.717267,1.32356 1.531337,2.42634 2.353855,3.33776 -1.570167,0.009 -2.859397,0.37011 -3.57101,0.62271 -0.545121,-2.89986 -0.213635,-5.18478 0.178279,-6.62422 z m 1.279417,12.52177 c -0.45833,-0.12242 -0.906375,-0.24198 -1.319747,-0.31528 0.750649,-0.26751 1.076005,-0.74785 1.301287,-1.08227 0.06206,-0.0922 0.155866,-0.23141 0.194831,-0.25287 0.09789,-0.0141 0.490215,0.39409 0.763455,1.08779 l -0.275217,0.73389 c -0.20362,-0.0482 -0.430061,-0.10859 -0.664609,-0.17126 z m 11.353524,0.52087 c -0.08522,0.0575 -0.705006,0.35458 -4.543263,0.55881 -1.895999,0.10089 -3.97641,0.14667 -5.454272,0.15832 l 0.863936,-2.30379 c 0.578639,-0.0834 2.205826,-0.23747 5.458563,-0.0105 0.283258,0.0191 0.52564,-0.19265 0.545259,-0.47413 0.01969,-0.28149 -0.192585,-0.52557 -0.47407,-0.54526 -4.425,-0.30873 -5.968055,0.0665 -6.031545,0.0826 -0.117715,0.0298 -0.218948,0.10055 -0.288297,0.19674 -0.421818,-0.63035 -0.890231,-0.91592 -1.392979,-0.8463 -0.283324,0.039 -0.480745,0.17672 -0.634021,0.34035 -0.746493,-0.73137 -0.7811,-1.97053 -0.754599,-2.52253 0.648395,-0.25158 2.425454,-0.83178 4.5295,-0.59839 2.121624,1.96003 4.042013,2.70625 4.204485,2.76715 l 2.037834,0.81516 c 0.07405,0.0296 0.153755,0.0414 0.233389,0.0347 l 0.426792,-0.0366 c 0.05654,-0.005 0.112744,-2.7e-4 0.16765,0.0132 l 1.472616,0.36473 c 0.192584,0.40022 0.519437,1.35973 -0.366978,2.00574 z"
         id="path4716" />
      <g
         id="g4834"
         transform="matrix(0.38272232,0,0,0.38272232,-80.850459,-3.1878869)">
        <path
           id="path4789"
           style="fill:#010101;stroke-width:0.28774893"
           d="m 146.68253,185.11963 c -0.62148,-0.31447 -4.7822,-5.37957 -7.10013,-8.6435 -0.94765,-1.33439 -1.15754,-1.16835 3.72564,-2.94717 2.82929,-1.03063 3.78019,-1.26864 4.03887,-1.01096 0.18617,0.18544 1.43899,1.78442 2.78421,3.55352 1.96392,2.58273 2.75772,3.38987 4.02849,4.09633 1.80791,1.00505 2.17187,1.85276 1.0967,2.55438 -0.72504,0.47313 -6.9787,2.77027 -7.52304,2.76338 -0.18474,-0.002 -0.65748,-0.16699 -1.05074,-0.36598 z m -16.39618,-14.6338 c -2.09573,-0.82742 -4.38054,-3.10931 -5.07716,-5.07065 -1.12894,-2.82047 -0.58109,-4.85725 -0.0398,-7.21689 0.59721,-1.68153 2.18705,-3.57221 3.7645,-4.47691 1.77186,-1.0162 10.26622,-4.0289 10.52782,-3.73392 0.2462,0.27764 6.20941,16.78851 6.20941,17.19257 0,0.13747 -2.07182,1.027 -4.60398,1.97669 -3.90709,1.46533 -4.95243,1.74361 -6.90598,1.83835 -1.86308,0.0905 -2.60187,-0.007 -3.87467,-0.50924 z m 42.00144,-4.14766 c -4.24476,-0.86102 -10.9466,-1.35906 -15.39458,-1.14407 -2.37391,0.11462 -4.81599,0.22864 -5.42683,0.25289 l -1.1106,0.0442 -3.13322,-8.63245 c -1.72327,-4.74786 -3.13347,-8.70607 -3.1337,-8.79599 -2.7e-4,-0.09 1.26204,-1.01976 2.80509,-2.06621 3.63927,-2.46807 7.90489,-6.2992 11.15027,-10.01457 1.42434,-1.63062 2.93659,-3.36258 3.36051,-3.84882 0.59488,-0.68229 0.80663,-0.78555 0.92778,-0.45244 2.98462,8.2054 12.36692,34.24092 12.4693,34.60182 0.16457,0.58008 0.0808,0.58194 -2.51402,0.0557 z m 16.16925,-9.41807 c -0.84661,-0.42509 -1.19302,-0.76151 -1.09271,-1.06122 1.07843,-3.22263 1.35534,-4.70747 1.3698,-7.34478 0.024,-4.2481 -1.0233,-7.62587 -3.46019,-11.16777 -1.06336,-1.54553 -4.00911,-4.30077 -5.52128,-5.16422 -0.62149,-0.35486 -1.13096,-0.74661 -1.13217,-0.87057 -10e-4,-0.12405 0.3264,-0.87391 0.72808,-1.66656 l 0.7303,-1.44119 1.49974,0.80011 c 0.82574,0.44055 2.73389,2.03015 4.24579,3.53694 2.13121,2.12409 3.01059,3.25218 3.9278,5.0388 1.25896,2.45225 2.27214,5.75477 2.39466,7.00821 0.52186,2.17855 0.24251,5.65877 0,7.58019 -0.13674,0.44628 -0.33374,1.81905 -0.73629,3.09333 -0.82094,2.59871 -0.94392,2.66778 -2.95353,1.65873 z m -6.65372,-3.24581 c -1.6708,-0.72494 -1.73467,-0.84453 -1.2628,-2.36414 0.27252,-0.87762 0.38107,-2.12779 0.30719,-3.53745 -0.18304,-3.49081 -1.79146,-6.39053 -4.78372,-8.62369 l -0.97165,-0.72516 0.76687,-1.51338 0.76687,-1.51338 1.175,0.65967 c 1.44411,0.81074 4.07256,3.60434 4.87956,5.18616 1.97768,3.8766 2.30897,7.30497 1.12929,11.68603 -0.3527,1.30974 -0.54294,1.38041 -2.00661,0.74534 z"
           inkscape:connector-curvature="0" />
        <path
           id="path4785"
           style="opacity:1;vector-effect:none;fill:none;fill-opacity:1;stroke:#b92727;stroke-width:5.69899988;stroke-linecap:butt;stroke-linejoin:miter;stroke-miterlimit:4;stroke-dasharray:none;stroke-dashoffset:0;stroke-opacity:1"
           d="m 191.21696,127.76753 -65.45493,56.96412 m 61.44216,4.54116 a 43.761466,43.761466 0 0 1 -61.73974,-4.28218 43.761466,43.761466 0 0 1 4.28217,-61.73974 43.761466,43.761466 0 0 1 61.73974,4.28218 43.761466,43.761466 0 0 1 -4.28217,61.73974 z"
           inkscape:connector-curvature="0" />
      </g>
      <g
         id="g4722"
         transform="matrix(0.26458333,0,0,0.26458333,53.462887,98.538326)" />
      <g
         id="g4724"
         transform="matrix(0.26458333,0,0,0.26458333,53.462887,98.538326)" />
      <g
         id="g4726"
         transform="matrix(0.26458333,0,0,0.26458333,53.462887,98.538326)" />
      <g
         id="g4728"
         transform="matrix(0.26458333,0,0,0.26458333,53.462887,98.538326)" />
      <g
         id="g4730"
         transform="matrix(0.26458333,0,0,0.26458333,53.462887,98.538326)" />
      <g
         id="g4732"
         transform="matrix(0.26458333,0,0,0.26458333,53.462887,98.538326)" />
      <g
         id="g4734"
         transform="matrix(0.26458333,0,0,0.26458333,53.462887,98.538326)" />
      <g
         id="g4736"
         transform="matrix(0.26458333,0,0,0.26458333,53.462887,98.538326)" />
      <g
         id="g4738"
         transform="matrix(0.26458333,0,0,0.26458333,53.462887,98.538326)" />
      <g
         id="g4740"
         transform="matrix(0.26458333,0,0,0.26458333,53.462887,98.538326)" />
      <g
         id="g4742"
         transform="matrix(0.26458333,0,0,0.26458333,53.462887,98.538326)" />
      <g
         id="g4744"
         transform="matrix(0.26458333,0,0,0.26458333,53.462887,98.538326)" />
      <g
         id="g4746"
         transform="matrix(0.26458333,0,0,0.26458333,53.462887,98.538326)" />
      <g
         id="g4748"
         transform="matrix(0.26458333,0,0,0.26458333,53.462887,98.538326)" />
      <g
         id="g4750"
         transform="matrix(0.26458333,0,0,0.26458333,53.462887,98.538326)" />
    </g>
  </g>
</svg>
