<?xml version="1.0" encoding="UTF-8" standalone="no"?>
<!-- Created with Inkscape (http://www.inkscape.org/) -->

<svg
   xmlns:dc="http://purl.org/dc/elements/1.1/"
   xmlns:cc="http://creativecommons.org/ns#"
   xmlns:rdf="http://www.w3.org/1999/02/22-rdf-syntax-ns#"
   xmlns:svg="http://www.w3.org/2000/svg"
   xmlns="http://www.w3.org/2000/svg"
   xmlns:sodipodi="http://sodipodi.sourceforge.net/DTD/sodipodi-0.dtd"
   xmlns:inkscape="http://www.inkscape.org/namespaces/inkscape"
   width="297mm"
   height="210mm"
   viewBox="0 0 297 210"
   version="1.1"
   id="svg8"
   inkscape:version="0.92.2 (5c3e80d, 2017-08-06)"
   sodipodi:docname="all_images.svg">
  <defs
     id="defs2" />
  <sodipodi:namedview
     id="base"
     pagecolor="#ffffff"
     bordercolor="#666666"
     borderopacity="1.0"
     inkscape:pageopacity="0.0"
     inkscape:pageshadow="2"
     inkscape:zoom="0.96131944"
     inkscape:cx="561.25984"
     inkscape:cy="396.85039"
     inkscape:document-units="mm"
     inkscape:current-layer="g4540"
     showgrid="false"
     inkscape:window-width="1920"
     inkscape:window-height="986"
     inkscape:window-x="-11"
     inkscape:window-y="-11"
     inkscape:window-maximized="1" />
  <metadata
     id="metadata5">
    <rdf:RDF>
      <cc:Work
         rdf:about="">
        <dc:format>image/svg+xml</dc:format>
        <dc:type
           rdf:resource="http://purl.org/dc/dcmitype/StillImage" />
        <dc:title></dc:title>
      </cc:Work>
    </rdf:RDF>
  </metadata>
  <g
     inkscape:label="Layer 1"
     inkscape:groupmode="layer"
     id="layer1"
     transform="translate(0,-87)">
    <g
       id="g4540"
       transform="translate(39.908257,48.990826)">
      <path
         id="path4542"
         style="fill:#010101;stroke-width:0.11993857"
         d="m 10.954161,66.62362 c -0.259045,-0.13107 -1.9932952,-2.242287 -2.9594562,-3.602746 -0.394997,-0.556199 -0.482481,-0.486992 1.552904,-1.228428 1.1793022,-0.429585 1.5756502,-0.528797 1.6834752,-0.421398 0.07757,0.07726 0.599794,0.743788 1.160504,1.481176 0.818598,1.076528 1.149461,1.412962 1.679141,1.707419 0.753576,0.418923 0.905277,0.772256 0.45712,1.06471 -0.302209,0.197208 -2.908839,1.154685 -3.135722,1.151816 -0.07698,-9.07e-4 -0.274058,-0.06962 -0.437966,-0.152549 z M 4.1199668,60.524009 c -0.873541,-0.344879 -1.825894,-1.296008 -2.116253,-2.113532 -0.470559,-1.175617 -0.242211,-2.024578 -0.01663,-3.008118 0.248932,-0.700883 0.911598,-1.488955 1.569108,-1.866051 0.738546,-0.423569 4.279132,-1.679309 4.388172,-1.556353 0.10262,0.115717 2.5881802,6.997728 2.5881802,7.166146 0,0.05731 -0.8635582,0.428071 -1.9190162,0.823916 -1.628539,0.610778 -2.064257,0.726762 -2.878527,0.766259 -0.77656,0.03767 -1.084496,-0.0027 -1.615031,-0.212267 z M 21.62686,58.795198 c -1.769283,-0.358882 -4.562731,-0.56648 -6.416715,-0.476865 -0.989492,0.04782 -2.007393,0.09526 -2.261995,0.105413 l -0.462922,0.01845 -1.30598,-3.598157 c -0.71829,-1.978984 -1.3060712,-3.628833 -1.3061752,-3.666322 -1.09e-4,-0.03749 0.5260352,-0.425042 1.1692072,-0.861223 1.516915,-1.028735 3.294892,-2.625614 4.647623,-4.174238 0.593692,-0.679672 1.224017,-1.401589 1.400717,-1.604259 0.247948,-0.284385 0.336208,-0.327427 0.386711,-0.188582 1.24404,3.420146 5.15474,14.272188 5.19741,14.422615 0.06859,0.241792 0.03373,0.242558 -1.047881,0.02316 z m 6.739611,-3.925607 c -0.352876,-0.177181 -0.497265,-0.317408 -0.45546,-0.442332 0.449508,-1.343247 0.564934,-1.962162 0.570959,-3.061432 0.0097,-1.770674 -0.426525,-3.178581 -1.442264,-4.654912 -0.443225,-0.6442 -1.671064,-1.792637 -2.301366,-2.152534 -0.259044,-0.147911 -0.471402,-0.311203 -0.47191,-0.362867 -4.53e-4,-0.05167 0.136057,-0.364262 0.303478,-0.694654 l 0.304408,-0.600709 0.625116,0.333505 c 0.344176,0.183623 1.139529,0.846192 1.769708,1.474254 0.888336,0.885353 1.25487,1.355559 1.637183,2.100254 0.524749,1.02214 0.947058,2.398692 0.998133,2.921142 0.217521,0.908055 0.101079,2.358664 0,3.159547 -0.05697,0.186016 -0.139117,0.758208 -0.306901,1.289344 -0.342182,1.083191 -0.393443,1.111981 -1.231084,0.691394 z M 25.59309,53.516684 c -0.696413,-0.302168 -0.723036,-0.352014 -0.526357,-0.985408 0.11359,-0.365813 0.158844,-0.886903 0.128051,-1.474476 -0.07626,-1.455033 -0.746721,-2.663683 -1.993944,-3.594503 l -0.405001,-0.302259 0.319647,-0.630796 0.319648,-0.630796 0.489758,0.274951 c 0.601933,0.33793 1.697514,1.50235 2.03388,2.161682 0.824333,1.615832 0.962425,3.044832 0.470709,4.870933 -0.147004,0.545923 -0.226311,0.575383 -0.836391,0.310672 z"
         inkscape:connector-curvature="0" />
      <path
         inkscape:connector-curvature="0"
         id="path4655"
         d="m 64.743185,62.737684 c -1.740883,-2.858262 -3.032044,-4.45377 -4.446462,-5.494564 -1.691554,-1.244722 -4.694539,-2.197968 -6.924203,-2.197968 -0.45621,0 -0.498516,0.01205 -0.536243,0.152831 -0.02253,0.08406 -0.04137,1.260863 -0.04188,2.615123 -5.78e-4,1.354259 -0.01623,2.462288 -0.03495,2.462288 -0.06675,0 -12.600067,-8.378107 -12.600067,-8.422728 0,-0.04462 12.533318,-8.422726 12.600067,-8.422726 0.01872,0 0.03402,1.157778 0.03402,2.572841 0,1.976525 0.01968,2.588686 0.08491,2.641208 0.0467,0.0376 0.495672,0.104124 0.997718,0.147826 2.788636,0.24274 4.974013,0.946794 6.864627,2.211548 2.414049,1.614914 4.047882,3.939633 4.726282,6.724836 0.28936,1.18801 0.36811,2.060619 0.36811,4.078992 v 1.864464 h -0.26153 -0.26154 z"
         style="fill:#000000;stroke-width:0.06792522" />
      <path
         style="stroke-width:0.06812304"
         inkscape:connector-curvature="0"
         d="m 93.448834,65.349046 c -0.0019,-0.003 -0.0031,-0.006 -0.0049,-0.008 l -1.316684,-1.83933 c -0.05927,-0.0827 -0.141832,-0.14592 -0.237204,-0.18141 l -2.253715,-0.839 c -3.641585,-2.94067 -4.80758,-5.72758 -5.465853,-8.06822 -0.177458,-0.63109 -0.481901,-1.12798 -0.849971,-1.51662 l -0.0013,-0.51876 c -2.64e-4,-0.0284 0.01111,-0.0514 0.03393,-0.0683 0.02297,-0.0169 0.04803,-0.0212 0.07541,-0.0126 l 0.774763,0.24565 c 0.247219,0.0784 0.513853,-0.0409 0.62026,-0.27719 1.156049,-2.56729 0.112131,-5.79332 0.0671,-5.92943 -0.05954,-0.17985 -0.213632,-0.31201 -0.400426,-0.34341 -2.913692,-0.49008 -5.104392,1.53706 -5.196154,1.62358 -0.15784,0.14878 -0.204573,0.38094 -0.116557,0.57918 l 1.077978,2.42824 v 1.02689 c -0.127187,0.026 -0.24136,0.0991 -0.317044,0.20778 -0.113221,0.16254 -2.743997,4.0399 -1.32438,10.53448 -0.04966,0.46957 -0.174874,2.47845 1.118034,3.65289 -0.160907,0.13781 -0.375563,0.2511 -0.703916,0.31882 -1.048957,0.21649 -1.56649,0.98901 -1.384327,2.06651 0.0968,0.57278 0.589741,0.98846 1.172125,0.98846 h 0.315476 c 0.282234,0 0.510924,-0.22875 0.510924,-0.51092 0,-0.28216 -0.22869,-0.51092 -0.510924,-0.51092 h -0.315476 c -0.07105,0 -0.132363,-0.0433 -0.156207,-0.10654 0.0071,-0.0199 0.01341,-0.0403 0.01805,-0.0615 0.05293,-0.0199 0.223784,-0.0592 0.662905,0.007 0.412417,0.0623 0.895136,0.19122 1.361917,0.31589 0.195717,0.0522 0.385984,0.103 0.566851,0.14775 l -0.164108,0.43756 c -0.05879,0.15689 -0.03699,0.33264 0.05845,0.47039 0.09537,0.13774 0.252328,0.2199 0.41991,0.2199 1.481132,0 4.015173,-0.0431 6.282512,-0.16472 4.344001,-0.23298 4.841777,-0.59581 5.05432,-0.75079 1.495983,-1.09024 1.008359,-2.79515 0.541443,-3.5443 -0.0039,-0.007 -0.0087,-0.0126 -0.01307,-0.019 z m -1.642104,-0.53967 -0.346882,-0.0859 c -0.163904,-0.0406 -0.332169,-0.0539 -0.500706,-0.0395 l -0.30594,0.0262 -1.386099,-0.55439 0.339865,-0.59512 1.780191,0.6627 z m -7.750768,-13.38563 -0.318746,-0.10103 c -0.337415,-0.10702 -0.708208,-0.0451 -0.992349,0.16534 -0.218813,0.16199 -0.368001,0.39899 -0.423452,0.65895 -0.35097,-0.18454 -0.710047,-0.31037 -1.044192,-0.39041 v -1.24155 c 0,-0.0714 -0.01497,-0.14203 -0.04401,-0.20729 l -0.116829,-0.26316 c 0.177596,-0.16139 1.364911,-1.18343 3.183048,-1.44809 0.08379,0.85944 0.06996,1.8866 -0.243472,2.82724 z m -0.04905,-4.46499 c 0.04162,0.15784 0.09319,0.37188 0.143399,0.62673 -1.712138,0.24886 -2.928406,1.06068 -3.465693,1.48645 l -0.416025,-0.93717 c 0.574754,-0.4366 1.997503,-1.34189 3.738319,-1.17601 z m -4.320022,8.0845 c 0.32045,-1.17682 0.729189,-1.98497 0.943639,-2.36094 0.619374,0.0762 2.110862,0.42407 2.556182,2.00738 0.685181,2.43622 1.882921,5.32416 5.533634,8.36293 l -0.403696,0.70684 c -1.131115,-0.53892 -4.448776,-2.39909 -6.692477,-6.53933 -0.09251,-0.17072 -0.2682,-0.26759 -0.44968,-0.26759 -0.08223,0 -0.165608,0.0199 -0.242928,0.0618 -0.248102,0.13441 -0.340206,0.44451 -0.205798,0.69261 0.717267,1.32356 1.531337,2.42634 2.353855,3.33776 -1.570167,0.009 -2.859397,0.37011 -3.57101,0.62271 -0.545121,-2.89986 -0.213635,-5.18478 0.178279,-6.62422 z m 1.279417,12.52177 c -0.45833,-0.12242 -0.906375,-0.24198 -1.319747,-0.31528 0.750649,-0.26751 1.076005,-0.74785 1.301287,-1.08227 0.06206,-0.0922 0.155866,-0.23141 0.194831,-0.25287 0.09789,-0.0141 0.490215,0.39409 0.763455,1.08779 l -0.275217,0.73389 c -0.20362,-0.0482 -0.430061,-0.10859 -0.664609,-0.17126 z m 11.353524,0.52087 c -0.08522,0.0575 -0.705006,0.35458 -4.543263,0.55881 -1.895999,0.10089 -3.97641,0.14667 -5.454272,0.15832 l 0.863936,-2.30379 c 0.578639,-0.0834 2.205826,-0.23747 5.458563,-0.0105 0.283258,0.0191 0.52564,-0.19265 0.545259,-0.47413 0.01969,-0.28149 -0.192585,-0.52557 -0.47407,-0.54526 -4.425,-0.30873 -5.968055,0.0665 -6.031545,0.0826 -0.117715,0.0298 -0.218948,0.10055 -0.288297,0.19674 -0.421818,-0.63035 -0.890231,-0.91592 -1.392979,-0.8463 -0.283324,0.039 -0.480745,0.17672 -0.634021,0.34035 -0.746493,-0.73137 -0.7811,-1.97053 -0.754599,-2.52253 0.648395,-0.25158 2.425454,-0.83178 4.5295,-0.59839 2.121624,1.96003 4.042013,2.70625 4.204485,2.76715 l 2.037834,0.81516 c 0.07405,0.0296 0.153755,0.0414 0.233389,0.0347 l 0.426792,-0.0366 c 0.05654,-0.005 0.112744,-2.7e-4 0.16765,0.0132 l 1.472616,0.36473 c 0.192584,0.40022 0.519437,1.35973 -0.366978,2.00574 z"
         id="path4716" />
      <g
         id="g4834"
         transform="matrix(0.38272232,0,0,0.38272232,-80.850459,-3.1878869)">
        <path
           id="path4789"
           style="fill:#010101;stroke-width:0.28774893"
           d="m 146.68253,185.11963 c -0.62148,-0.31447 -4.7822,-5.37957 -7.10013,-8.6435 -0.94765,-1.33439 -1.15754,-1.16835 3.72564,-2.94717 2.82929,-1.03063 3.78019,-1.26864 4.03887,-1.01096 0.18617,0.18544 1.43899,1.78442 2.78421,3.55352 1.96392,2.58273 2.75772,3.38987 4.02849,4.09633 1.80791,1.00505 2.17187,1.85276 1.0967,2.55438 -0.72504,0.47313 -6.9787,2.77027 -7.52304,2.76338 -0.18474,-0.002 -0.65748,-0.16699 -1.05074,-0.36598 z m -16.39618,-14.6338 c -2.09573,-0.82742 -4.38054,-3.10931 -5.07716,-5.07065 -1.12894,-2.82047 -0.58109,-4.85725 -0.0398,-7.21689 0.59721,-1.68153 2.18705,-3.57221 3.7645,-4.47691 1.77186,-1.0162 10.26622,-4.0289 10.52782,-3.73392 0.2462,0.27764 6.20941,16.78851 6.20941,17.19257 0,0.13747 -2.07182,1.027 -4.60398,1.97669 -3.90709,1.46533 -4.95243,1.74361 -6.90598,1.83835 -1.86308,0.0905 -2.60187,-0.007 -3.87467,-0.50924 z m 42.00144,-4.14766 c -4.24476,-0.86102 -10.9466,-1.35906 -15.39458,-1.14407 -2.37391,0.11462 -4.81599,0.22864 -5.42683,0.25289 l -1.1106,0.0442 -3.13322,-8.63245 c -1.72327,-4.74786 -3.13347,-8.70607 -3.1337,-8.79599 -2.7e-4,-0.09 1.26204,-1.01976 2.80509,-2.06621 3.63927,-2.46807 7.90489,-6.2992 11.15027,-10.01457 1.42434,-1.63062 2.93659,-3.36258 3.36051,-3.84882 0.59488,-0.68229 0.80663,-0.78555 0.92778,-0.45244 2.98462,8.2054 12.36692,34.24092 12.4693,34.60182 0.16457,0.58008 0.0808,0.58194 -2.51402,0.0557 z m 16.16925,-9.41807 c -0.84661,-0.42509 -1.19302,-0.76151 -1.09271,-1.06122 1.07843,-3.22263 1.35534,-4.70747 1.3698,-7.34478 0.024,-4.2481 -1.0233,-7.62587 -3.46019,-11.16777 -1.06336,-1.54553 -4.00911,-4.30077 -5.52128,-5.16422 -0.62149,-0.35486 -1.13096,-0.74661 -1.13217,-0.87057 -10e-4,-0.12405 0.3264,-0.87391 0.72808,-1.66656 l 0.7303,-1.44119 1.49974,0.80011 c 0.82574,0.44055 2.73389,2.03015 4.24579,3.53694 2.13121,2.12409 3.01059,3.25218 3.9278,5.0388 1.25896,2.45225 2.27214,5.75477 2.39466,7.00821 0.52186,2.17855 0.24251,5.65877 0,7.58019 -0.13674,0.44628 -0.33374,1.81905 -0.73629,3.09333 -0.82094,2.59871 -0.94392,2.66778 -2.95353,1.65873 z m -6.65372,-3.24581 c -1.6708,-0.72494 -1.73467,-0.84453 -1.2628,-2.36414 0.27252,-0.87762 0.38107,-2.12779 0.30719,-3.53745 -0.18304,-3.49081 -1.79146,-6.39053 -4.78372,-8.62369 l -0.97165,-0.72516 0.76687,-1.51338 0.76687,-1.51338 1.175,0.65967 c 1.44411,0.81074 4.07256,3.60434 4.87956,5.18616 1.97768,3.8766 2.30897,7.30497 1.12929,11.68603 -0.3527,1.30974 -0.54294,1.38041 -2.00661,0.74534 z"
           inkscape:connector-curvature="0" />
        <path
           id="path4785"
           style="opacity:1;vector-effect:none;fill:none;fill-opacity:1;stroke:#b92727;stroke-width:5.69899988;stroke-linecap:butt;stroke-linejoin:miter;stroke-miterlimit:4;stroke-dasharray:none;stroke-dashoffset:0;stroke-opacity:1"
           d="m 191.21696,127.76753 -65.45493,56.96412 m 61.44216,4.54116 a 43.761466,43.761466 0 0 1 -61.73974,-4.28218 43.761466,43.761466 0 0 1 4.28217,-61.73974 43.761466,43.761466 0 0 1 61.73974,4.28218 43.761466,43.761466 0 0 1 -4.28217,61.73974 z"
           inkscape:connector-curvature="0" />
      </g>
      <g
         id="g4722"
         transform="matrix(0.26458333,0,0,0.26458333,53.462887,98.538326)" />
      <g
         id="g4724"
         transform="matrix(0.26458333,0,0,0.26458333,53.462887,98.538326)" />
      <g
         id="g4726"
         transform="matrix(0.26458333,0,0,0.26458333,53.462887,98.538326)" />
      <g
         id="g4728"
         transform="matrix(0.26458333,0,0,0.26458333,53.462887,98.538326)" />
      <g
         id="g4730"
         transform="matrix(0.26458333,0,0,0.26458333,53.462887,98.538326)" />
      <g
         id="g4732"
         transform="matrix(0.26458333,0,0,0.26458333,53.462887,98.538326)" />
      <g
         id="g4734"
         transform="matrix(0.26458333,0,0,0.26458333,53.462887,98.538326)" />
      <g
         id="g4736"
         transform="matrix(0.26458333,0,0,0.26458333,53.462887,98.538326)" />
      <g
         id="g4738"
         transform="matrix(0.26458333,0,0,0.26458333,53.462887,98.538326)" />
      <g
         id="g4740"
         transform="matrix(0.26458333,0,0,0.26458333,53.462887,98.538326)" />
      <g
         id="g4742"
         transform="matrix(0.26458333,0,0,0.26458333,53.462887,98.538326)" />
      <g
         id="g4744"
         transform="matrix(0.26458333,0,0,0.26458333,53.462887,98.538326)" />
      <g
         id="g4746"
         transform="matrix(0.26458333,0,0,0.26458333,53.462887,98.538326)" />
      <g
         id="g4748"
         transform="matrix(0.26458333,0,0,0.26458333,53.462887,98.538326)" />
      <g
         id="g4750"
         transform="matrix(0.26458333,0,0,0.26458333,53.462887,98.538326)" />
      <path
         id="path4885"
         d="m 104.9126,54.883218 c 0.009,0.0011 0.019,0.0016 0.0283,0.0016 0.12346,0 0.22995,-0.09264 0.24438,-0.218194 0.29108,-2.536476 1.49313,-3.04106 1.51694,-3.05062 0.12642,-0.04699 0.1916,-0.187198 0.14565,-0.314372 -0.0462,-0.127926 -0.18725,-0.194323 -0.31518,-0.147974 -0.0614,0.02212 -1.50599,0.575673 -1.83664,3.456824 -0.0156,0.13517 0.0814,0.257302 0.21652,0.272772 z m 25.72564,12.689271 h -2.41805 L 127.4893,55.963824 c -7.9e-4,-0.0131 -0.004,-0.02556 -0.006,-0.03789 l 0.87058,-0.318892 c 0.25435,-0.09079 0.45806,-0.275206 0.57364,-0.5193 0.11565,-0.244036 0.12921,-0.518491 0.0384,-0.772665 l -0.1715,-0.480248 c -0.0999,-0.279667 -0.31617,-0.495083 -0.58222,-0.600125 -0.0237,-0.235112 -0.12758,-0.452438 -0.29861,-0.619591 -0.1726,-0.168714 -0.39595,-0.26837 -0.63344,-0.28494 -0.17758,-1.012063 -0.53755,-2.388442 -1.2448,-3.189031 0.49149,-0.112633 0.96061,-0.351859 1.35511,-0.719826 0.73779,-0.688131 1.07348,-1.718677 0.89063,-2.709013 l 0.63332,-1.262472 c 0.15047,-0.300006 0.0288,-0.666406 -0.27115,-0.81693 l -3.23903,-1.624529 c -0.0844,-0.04235 -0.17874,-0.06477 -0.27272,-0.06477 -0.23169,0 -0.44027,0.128683 -0.54421,0.335753 l -0.70911,1.41346 c -0.19044,0.111067 -0.36935,0.242411 -0.53129,0.393515 -1.12336,1.047872 -1.24834,2.77101 -0.33361,3.966795 -0.5226,0.231521 -2.52164,1.381709 -2.76747,5.503952 -0.19299,3.236542 -0.60575,12.49118 -0.67336,14.015476 h -3.15357 l -0.64196,-10.195612 c -2.6e-4,-0.0042 -0.002,-0.008 -0.002,-0.01222 l 0.74358,-0.272309 c 0.23129,-0.08262 0.41658,-0.250349 0.52173,-0.472311 0.10511,-0.221961 0.1175,-0.471617 0.0349,-0.702791 l -0.15093,-0.422889 c -0.0888,-0.248555 -0.27868,-0.441317 -0.51304,-0.539234 -0.025,-0.206955 -0.11837,-0.397976 -0.26958,-0.545777 -0.14798,-0.144614 -0.3361,-0.232855 -0.53854,-0.255508 -0.14751,-0.874287 -0.45342,-2.04823 -1.07742,-2.766142 0.41872,-0.104926 0.81745,-0.313272 1.15488,-0.627992 0.65453,-0.610494 0.95361,-1.523484 0.7948,-2.402173 l 0.55314,-1.102736 c 0.13974,-0.278624 0.0268,-0.618953 -0.2518,-0.758758 l -2.85172,-1.430261 c -0.0785,-0.0394 -0.16599,-0.0602 -0.25336,-0.0602 -0.21513,0 -0.40882,0.119467 -0.50546,0.31188 l -0.62034,1.236634 c -0.16669,0.09797 -0.32341,0.213328 -0.46548,0.345889 -0.99103,0.924579 -1.10916,2.439371 -0.31866,3.502708 -0.36003,0.16895 -1.31119,0.747405 -1.91572,2.327264 -0.17353,-0.498967 -0.40783,-0.978924 -0.72359,-1.342255 0.41877,-0.104926 0.81745,-0.313272 1.15488,-0.627991 0.65453,-0.610494 0.9536,-1.523484 0.79479,-2.402173 l 0.55314,-1.102739 c 0.13975,-0.278624 0.0268,-0.618953 -0.2518,-0.758758 l -2.85171,-1.430261 c -0.0785,-0.0394 -0.166,-0.0602 -0.25337,-0.0602 -0.21512,0 -0.40881,0.11947 -0.50545,0.31188 l -0.6204,1.236634 c -0.16669,0.09797 -0.32341,0.213328 -0.46548,0.345889 -0.99097,0.924462 -1.10911,2.439083 -0.31889,3.502364 -0.51206,0.239167 -2.20831,1.295207 -2.4206,4.855681 -0.18459,3.0939 -0.59711,12.433588 -0.60122,12.527565 -2.7e-4,0.0062 5.3e-4,0.01183 0.001,0.01744 -2.6e-4,0.0052 -0.002,0.01027 -0.002,0.01564 0,0.136039 0.1102,0.246237 0.24624,0.246237 h 27.05631 c 0.13604,0 0.24624,-0.110198 0.24624,-0.246237 0,-0.136038 -0.1102,-0.246237 -0.24624,-0.246237 z m -2.13635,-13.091768 c 0.0466,0.130363 0.0396,0.271095 -0.0197,0.396182 -0.0593,0.125147 -0.16374,0.219702 -0.29607,0.26698 l -2.99245,1.096132 c -0.0565,0.02021 -0.11518,0.03042 -0.17445,0.03042 -0.21848,0 -0.41455,-0.1383 -0.48807,-0.344154 -7.9e-4,-0.0019 -10e-4,-0.0039 -0.002,-0.0059 l -1.78664,-4.626536 c -0.0455,-0.129609 -0.0382,-0.269296 0.0207,-0.393632 0.0187,-0.03952 0.0423,-0.07549 0.0694,-0.108288 l 0.97955,2.340181 c 0.0422,0.100582 0.14329,0.15852 0.24642,0.150466 0.0254,-0.0021 0.051,-0.0081 0.0759,-0.01836 0.12538,-0.05255 0.18454,-0.196816 0.13205,-0.32231 l -0.99776,-2.383401 0.26866,-0.096 c 0.0565,-0.02016 0.11519,-0.03036 0.1744,-0.03036 0.21854,0 0.41472,0.138298 0.4883,0.344152 0.001,0.0027 0.002,0.0053 0.003,0.0079 l 1.35599,3.420613 c 0.0492,0.124045 0.18812,0.186386 0.31373,0.140441 l 1.79516,-0.658582 c 0.0565,-0.02022 0.11512,-0.03036 0.17434,-0.03036 0.21854,0 0.41477,0.138356 0.48836,0.344154 z m -0.93275,-1.513459 c 0.0602,0.05886 0.10406,0.129897 0.12967,0.20765 -0.0669,0.0097 -0.13326,0.02537 -0.19867,0.04867 l -0.0896,0.03285 c -0.0122,-0.115006 -0.0287,-0.254812 -0.0505,-0.413795 0.0778,0.02405 0.14925,0.06611 0.2091,0.124627 z m -2.43792,-10.531248 c 0.018,0 0.0353,0.0042 0.0519,0.01246 l 3.2391,1.624587 c 0.0572,0.02868 0.0805,0.09867 0.0518,0.155911 l -0.56368,1.123709 -3.51007,-1.602684 0.14097,-0.280885 1.12029,0.538303 c 0.0344,0.01651 0.0707,0.02434 0.10649,0.02434 0.0917,0 0.17978,-0.05151 0.22213,-0.139631 0.0589,-0.122598 0.007,-0.269701 -0.11529,-0.328623 l -1.11271,-0.534713 0.26525,-0.528627 c 0.0236,-0.04728 0.0692,-0.06414 0.10388,-0.06414 z m -1.44857,2.010339 c 0.12208,-0.113908 0.25556,-0.214429 0.39717,-0.301165 l 3.72507,1.700776 c 0.13471,0.812351 -0.14623,1.651585 -0.75053,2.21515 -0.99677,0.929503 -2.56382,0.875099 -3.49332,-0.121438 -0.92956,-0.996593 -0.87504,-2.563649 0.12161,-3.493323 z m -2.94546,9.139978 c 0.13419,-2.249971 0.824,-3.521831 1.37904,-4.192637 0.53639,-0.648388 1.0039,-0.85737 1.23803,-0.96641 0.56443,0.523703 1.28871,0.789176 2.01509,0.789176 0.009,0 0.0179,-5.29e-4 0.0268,-5.29e-4 1.18223,0.863396 1.47957,3.489036 1.53994,4.214711 l -1.00784,0.369764 -1.26617,-3.193902 c -0.14456,-0.399018 -0.52591,-0.666753 -0.95048,-0.666753 -0.11576,0 -0.23025,0.01987 -0.34004,0.0591 l -0.48008,0.171497 c -0.25429,0.09073 -0.458,0.275148 -0.57358,0.519242 -0.11559,0.244036 -0.12915,0.518488 -0.0383,0.772838 7.9e-4,0.0019 0.001,0.0039 0.002,0.0058 l 1.78676,4.626885 c 0.14421,0.399598 0.52585,0.667853 0.95077,0.667853 0.11587,0 0.23036,-0.01992 0.342,-0.05985 l 1.64331,-0.601977 0.65429,10.3926 h -2.96336 c -0.13604,0 -0.24624,0.110199 -0.24624,0.246237 0,0.136041 0.1102,0.246237 0.24624,0.246237 h 2.99436 l 0.0369,0.586277 h -5.09693 l 0.0486,-3.298015 c 0.002,-0.13598 -0.10667,-0.247801 -0.24265,-0.249886 -10e-4,0 -0.002,0 -0.004,0 -0.1343,0 -0.24415,0.107823 -0.24618,0.242644 l -0.0487,3.305257 h -0.79004 l 0.19948,-6.122731 c 0.004,-0.135982 -0.1022,-0.249713 -0.23807,-0.254174 -0.13679,-0.0016 -0.24971,0.102203 -0.25417,0.238067 l -0.20001,6.13878 h -0.78923 c 0.0705,-1.587273 0.48013,-10.767925 0.67203,-13.986042 z m -4.12607,2.496556 c 0.0384,0.107418 0.0326,0.223295 -0.0162,0.326308 -0.0488,0.103071 -0.13488,0.180998 -0.24421,0.220048 l -2.63445,0.964962 c -0.0466,0.01662 -0.0949,0.02508 -0.14369,0.02508 -0.17989,0 -0.34143,-0.113909 -0.40197,-0.283435 -8e-4,-0.0019 -10e-4,-0.0039 -0.002,-0.006 l -1.57279,-4.072763 c -0.0374,-0.106722 -0.0313,-0.221557 0.0172,-0.323874 0.0107,-0.0226 0.0235,-0.04369 0.0375,-0.06367 l 0.79995,1.992146 c 0.0407,0.101219 0.14097,0.160604 0.24421,0.154 0.0254,-0.0016 0.0511,-0.0072 0.0761,-0.01728 0.12619,-0.0507 0.18738,-0.194093 0.13674,-0.320283 l -0.82179,-2.046492 0.19212,-0.06871 c 0.0466,-0.01662 0.095,-0.02508 0.14363,-0.02508 0.17995,0 0.3416,0.113967 0.40214,0.283551 8e-4,0.0027 0.002,0.0053 0.003,0.0079 l 1.19381,3.011567 c 0.0492,0.124047 0.18813,0.18633 0.31374,0.140443 l 1.18715,-0.435581 c 0.037,-0.0049 0.0709,-0.01767 0.10053,-0.03691 l 0.29252,-0.107299 c 0.0466,-0.01662 0.0949,-0.02508 0.14357,-0.02508 0.18002,0 0.34172,0.113964 0.40221,0.283432 z m -0.81403,-1.321282 c 0.041,0.04004 0.0729,0.08697 0.0946,0.138184 -0.0487,0.009 -0.0971,0.02172 -0.14497,0.03882 l -0.0382,0.01397 c -0.008,-0.0799 -0.0174,-0.171556 -0.0297,-0.273063 0.0431,0.02035 0.0831,0.04774 0.11825,0.0821 z m -2.12581,-9.263502 c 0.0111,0 0.0221,0.0027 0.0325,0.0079 l 2.85177,1.430322 c 0.0359,0.01797 0.0504,0.06182 0.0324,0.0978 l -0.48355,0.963975 -3.03671,-1.386576 0.0974,-0.194093 0.96021,0.46142 c 0.0344,0.01651 0.0707,0.02434 0.10649,0.02434 0.0917,0 0.17973,-0.05151 0.22214,-0.139631 0.0589,-0.122598 0.007,-0.269703 -0.1153,-0.328626 l -0.95262,-0.457769 0.22005,-0.438534 c 0.0148,-0.0299 0.0434,-0.0405 0.0652,-0.0405 z m -1.25529,1.761959 c 0.10221,-0.09537 0.21339,-0.180073 0.33129,-0.253537 l 3.25178,1.484722 c 0.11084,0.700646 -0.13378,1.42244 -0.6547,1.90831 -0.86553,0.807427 -2.22668,0.759976 -3.03393,-0.105389 -0.80737,-0.865597 -0.76003,-2.226622 0.10556,-3.034106 z m -2.32395,6.312537 c 0.55157,-2.105879 1.79388,-2.69876 2.01538,-2.788679 0.49954,0.453713 1.13558,0.683784 1.77348,0.683784 0.005,0 0.01,-2.65e-4 0.0145,-2.65e-4 1.01259,0.750126 1.27684,2.997317 1.33362,3.661114 l -0.83929,0.307885 -1.10401,-2.784859 c -0.13158,-0.362693 -0.4784,-0.606033 -0.86438,-0.606033 -0.10533,0 -0.20939,0.01812 -0.30933,0.05382 l -0.42266,0.150929 c -0.23123,0.08256 -0.41652,0.250235 -0.52168,0.472255 -0.10515,0.221962 -0.11755,0.471617 -0.0349,0.702905 7.9e-4,0.0019 0.001,0.0039 0.002,0.0059 l 1.57303,4.073343 c 0.13122,0.363273 0.47828,0.607076 0.86461,0.607076 0.10539,0 0.2095,-0.01812 0.31124,-0.05446 l 1.40975,-0.516345 0.57168,9.079145 h -2.57767 c -0.13604,0 -0.24624,0.110196 -0.24624,0.246237 0,0.136038 0.1102,0.246237 0.24624,0.246237 h 2.60867 l 0.029,0.459971 h -4.9098 l -0.64109,-10.208821 0.74063,-0.271325 c 0.23128,-0.08262 0.41657,-0.250351 0.52173,-0.472313 0.1051,-0.221959 0.1175,-0.471615 0.0349,-0.702789 l -0.15093,-0.422891 c -0.089,-0.24896 -0.27932,-0.442069 -0.51432,-0.539753 -0.0293,-0.208113 -0.13969,-0.407014 -0.3131,-0.557363 -0.14125,-0.122484 -0.31437,-0.204986 -0.49293,-0.237895 -0.0303,-0.180594 -0.0675,-0.373991 -0.11281,-0.573646 10e-4,-0.0045 0.003,-0.0086 0.005,-0.0131 z m -3.88256,-0.639289 c 0.0173,-0.03644 0.0394,-0.06953 0.0652,-0.09902 l 0.74288,1.98896 c 0.0382,0.102203 0.13697,0.164023 0.24028,0.159967 0.0255,-0.0011 0.0513,-0.006 0.0765,-0.01543 0.12741,-0.04763 0.19207,-0.189458 0.14456,-0.316865 l -0.75905,-2.032701 0.15452,-0.05522 c 0.0466,-0.01662 0.095,-0.02508 0.14363,-0.02508 0.18001,0 0.3416,0.113964 0.40221,0.283552 0.001,0.0027 0.002,0.0053 0.003,0.0079 l 1.19382,3.011567 c 0.0493,0.124047 0.18807,0.18633 0.31373,0.140443 l 1.18721,-0.435578 c 0.0369,-0.0049 0.0709,-0.01767 0.10047,-0.03691 l 0.29253,-0.107302 c 0.0466,-0.01662 0.0949,-0.02508 0.14363,-0.02508 0.18001,0 0.34166,0.113964 0.40221,0.283432 l 0.15092,0.422892 c 0.0384,0.107418 0.0326,0.223292 -0.0162,0.326308 -0.0488,0.103071 -0.13488,0.180999 -0.24421,0.220049 l -2.63445,0.964959 c -0.0466,0.01662 -0.0949,0.02508 -0.14363,0.02508 -0.17984,0 -0.34143,-0.113905 -0.40197,-0.283432 -8e-4,-0.0019 -10e-4,-0.0039 -0.002,-0.006 l -1.57285,-4.072765 c -0.0373,-0.106664 -0.0312,-0.221499 0.0172,-0.323816 z m 4.06912,1.771981 c 0.0326,0.01826 0.0637,0.03951 0.0919,0.06402 0.0318,0.02758 0.0754,0.07306 0.10783,0.132678 -0.0453,0.0089 -0.0904,0.02069 -0.135,0.03662 l -0.0382,0.01397 c -0.007,-0.07312 -0.0157,-0.155969 -0.0266,-0.24728 z m -2.01069,-9.207188 c 0.0111,0 0.0221,0.0027 0.0325,0.0079 l 2.85178,1.430322 c 0.0359,0.01797 0.0504,0.06182 0.0324,0.0978 l -0.48355,0.963975 -3.03672,-1.386634 0.0974,-0.194093 0.9602,0.46142 c 0.0344,0.01651 0.0708,0.02434 0.10649,0.02434 0.0917,0 0.17979,-0.05151 0.22214,-0.139631 0.0589,-0.122598 0.007,-0.269704 -0.1153,-0.328626 l -0.95262,-0.457769 0.22005,-0.438534 c 0.0149,-0.02984 0.0435,-0.04044 0.0652,-0.04044 z m -1.25529,1.761959 c 0.10221,-0.09537 0.21339,-0.180073 0.33135,-0.253537 l 3.25172,1.484722 c 0.11084,0.700646 -0.13378,1.42244 -0.6547,1.90831 -0.86559,0.807427 -2.22668,0.759976 -3.03393,-0.105389 -0.80737,-0.865597 -0.76004,-2.226622 0.10556,-3.034106 z m -2.58392,8.027275 c 0.11744,-1.970013 0.71982,-3.08347 1.20436,-3.670673 0.43059,-0.52179 0.91675,-0.763857 1.07208,-0.831818 0.49937,0.453134 1.13496,0.682858 1.77245,0.682858 0.005,0 0.01,-2.65e-4 0.0145,-2.65e-4 1.01265,0.750126 1.27684,2.997317 1.33368,3.661114 l -0.83935,0.307885 -1.10401,-2.784859 c -0.13158,-0.362693 -0.4784,-0.606033 -0.86438,-0.606033 -0.10533,0 -0.20939,0.01812 -0.30933,0.05382 l -0.42266,0.150929 c -0.23123,0.08256 -0.41658,0.250235 -0.52168,0.472255 -0.10516,0.221962 -0.11755,0.471617 -0.0349,0.702905 7.9e-4,0.0019 10e-4,0.0039 0.002,0.0059 l 1.57302,4.073343 c 0.13123,0.363273 0.47828,0.607076 0.86461,0.607076 0.1054,0 0.20951,-0.01812 0.31125,-0.05446 l 1.41143,-0.51698 0.57017,9.07978 h -2.57778 c -0.13604,0 -0.24624,0.110196 -0.24624,0.246237 0,0.136038 0.1102,0.246237 0.24624,0.246237 h 2.60878 l 0.0289,0.459971 h -4.42648 l 0.0424,-2.8764 c 0.002,-0.13598 -0.10667,-0.2478 -0.24265,-0.249885 -0.13598,-0.0013 -0.2478,0.106664 -0.24989,0.242644 l -0.0425,2.883641 h -0.63616 l 0.17474,-5.362816 c 0.004,-0.13598 -0.10221,-0.249714 -0.23807,-0.254175 -0.003,-5.8e-5 -0.005,-1.16e-4 -0.008,-1.16e-4 -0.13221,0 -0.2416,0.105042 -0.24595,0.238186 l -0.1752,5.378862 h -0.63559 c 0.0654,-1.474179 0.42249,-9.470397 0.59034,-12.285093 z m 16.89529,-2.19122 c 0.01,0.0011 0.019,0.0016 0.0283,0.0016 0.12346,0 0.22996,-0.09264 0.24438,-0.218197 0.33373,-2.908088 1.71938,-3.482546 1.74423,-3.492396 0.1266,-0.04693 0.19189,-0.187257 0.14595,-0.314545 -0.0462,-0.12787 -0.18726,-0.193921 -0.31525,-0.147918 -0.0689,0.02492 -1.69104,0.64665 -2.06421,3.898718 -0.0155,0.13517 0.0815,0.257246 0.21657,0.272774 z"
         inkscape:connector-curvature="0"
         style="stroke-width:0.05793817" />
      <path
         id="path4954"
         style="opacity:1;vector-effect:none;fill:#010101;fill-opacity:1;stroke:#000000;stroke-width:0.55431944;stroke-linecap:butt;stroke-linejoin:miter;stroke-miterlimit:4;stroke-dasharray:none;stroke-dashoffset:0;stroke-opacity:1"
         d="m 161.22757,60.378804 c -7.1916,-2.843824 -13.80594,-2.174976 -20.25877,0.08632 1.33399,-2.234081 0.52264,-4.468162 -0.73425,-6.702242 6.00726,-1.500106 12.02831,-4.028078 19.5001,0.01021 l -1.91218,-5.613816 c 4.5502,2.468084 7.75807,5.253186 12.68272,10.042671 -4.12549,1.995694 -7.12665,5.304731 -10.19127,7.694117 z"
         inkscape:connector-curvature="0"
         sodipodi:nodetypes="cccccccc" />
      <path
         inkscape:connector-curvature="0"
         id="path4994"
         d="m 191.67606,63.720783 6.10256,-6.10377 -6.13839,-6.13838 -6.13839,-6.138376 -1.73675,1.736736 -1.73672,1.736738 4.25598,4.256741 c 2.80429,2.804811 4.25596,4.355731 4.25596,4.546951 0,0.19123 -1.45143,1.74191 -4.25522,4.54621 l -4.25521,4.256 1.69801,1.70246 c 0.93393,0.93635 1.73125,1.70246 1.77184,1.70246 0.0406,0 2.81995,-2.7467 6.17633,-6.10377 z"
         style="fill:#000000;stroke-width:0.14194334" />
      <g
         id="g4889"
         transform="matrix(0.26458333,0,0,0.26458333,71.133862,112.99612)" />
      <g
         id="g4891"
         transform="matrix(0.26458333,0,0,0.26458333,71.133862,112.99612)" />
      <g
         id="g4893"
         transform="matrix(0.26458333,0,0,0.26458333,71.133862,112.99612)" />
      <g
         id="g4895"
         transform="matrix(0.26458333,0,0,0.26458333,71.133862,112.99612)" />
      <g
         id="g4897"
         transform="matrix(0.26458333,0,0,0.26458333,71.133862,112.99612)" />
      <g
         id="g4899"
         transform="matrix(0.26458333,0,0,0.26458333,71.133862,112.99612)" />
      <g
         id="g4901"
         transform="matrix(0.26458333,0,0,0.26458333,71.133862,112.99612)" />
      <g
         id="g4903"
         transform="matrix(0.26458333,0,0,0.26458333,71.133862,112.99612)" />
      <g
         id="g4905"
         transform="matrix(0.26458333,0,0,0.26458333,71.133862,112.99612)" />
      <g
         id="g4907"
         transform="matrix(0.26458333,0,0,0.26458333,71.133862,112.99612)" />
      <g
         id="g4909"
         transform="matrix(0.26458333,0,0,0.26458333,71.133862,112.99612)" />
      <g
         id="g4911"
         transform="matrix(0.26458333,0,0,0.26458333,71.133862,112.99612)" />
      <g
         id="g4913"
         transform="matrix(0.26458333,0,0,0.26458333,71.133862,112.99612)" />
      <g
         id="g4915"
         transform="matrix(0.26458333,0,0,0.26458333,71.133862,112.99612)" />
      <g
         id="g4917"
         transform="matrix(0.26458333,0,0,0.26458333,71.133862,112.99612)" />
      <g
         id="g5085"
         transform="matrix(0.0468224,0,0,0.0468224,201.39256,43.811254)"
         style="fill:#010101;fill-opacity:1">
        <path
           style="fill:#010101;fill-opacity:1"
           d="m 207.55871,557.04765 c -10.28797,-20.38032 -33.70548,-53.5467 -68.35764,-96.81538 -17.07917,-21.32603 -43.724317,-53.22342 -58.711197,-70.28424 -3.76089,-4.28133 -6.83798,-8.21656 -6.83798,-8.74496 0,-1.06589 98.467977,-67.01891 101.078607,-67.70161 1.18123,-0.3089 3.29141,2.18714 7.52484,8.90077 18.90512,29.98085 39.86585,51.6546 58.03561,60.00981 5.50892,2.53322 8.54282,3.24257 15.39555,3.59961 6.60909,0.34434 8.8034,0.12076 9.72607,-0.99099 0.65532,-0.78961 4.86786,-8.60252 9.36122,-17.36202 23.83873,-46.47208 69.35876,-122.72202 106.21926,-177.92637 67.3403,-100.852581 123.2488,-165.101238 161.0085,-185.0270966 17.6387,-9.3079481 37.0948,-14.2485871 59.6504,-15.1474904 27.2121,-1.084482 45.0427,4.1947223 52.7386,15.6146294 2.9467,4.3727 2.9133,10.1180196 -0.096,16.5813996 -1.8808,4.03892 -4.6672,6.95117 -14.2403,14.88378 -14.9904,12.42165 -49.1366,46.65926 -65.1604,65.334978 -60.0611,70.00112 -121.6112,163.28444 -181.2915,274.7598 -30.622,57.19799 -63.4481,128.53032 -78.4616,170.5 -2.6561,7.425 -5.25768,14.0625 -5.78126,14.75 -0.7387,0.96996 -11.89898,1.25 -49.81513,1.25 h -48.86317 z"
           id="path5083"
           inkscape:connector-curvature="0" />
      </g>
      <g
         id="g5094"
         transform="matrix(0.25509919,0,0,0.25509919,-32.647024,59.170524)">
        <path
           id="path5050"
           style="fill:#010101;stroke-width:0.56374806"
           d="m 47.568682,214.95817 c -1.217591,-0.61607 -9.369103,-10.5394 -13.910356,-16.93398 -1.856607,-2.61431 -2.267808,-2.28901 7.299126,-5.774 5.543086,-2.01921 7.406043,-2.48552 7.912853,-1.98071 0.364603,0.36333 2.819216,3.49604 5.454725,6.962 3.847662,5.06002 5.40282,6.64135 7.892478,8.0254 3.542036,1.96905 4.255076,3.62981 2.148606,5.00446 -1.420477,0.9269 -13.672437,5.42735 -14.738857,5.41386 -0.36183,-0.004 -1.288157,-0.32714 -2.058575,-0.71703 z M 15.445868,186.28813 c -4.10591,-1.62104 -8.5822617,-6.09164 -9.9470377,-9.93424 -2.211772,-5.52577 -1.138466,-9.51614 -0.07817,-14.13908 1.170057,-3.29436 4.28479,-6.99853 7.3752887,-8.77101 3.471393,-1.99091 20.113234,-7.89327 20.625755,-7.31532 0.482346,0.54391 12.165245,32.89147 12.165245,33.68305 0,0.26933 -4.058992,2.01211 -9.019969,3.87268 -7.654633,2.87085 -9.702641,3.41599 -13.52996,3.60166 -3.65007,0.1772 -5.097464,-0.0141 -7.591142,-0.99774 z m 82.287796,-8.12594 c -8.31619,-1.68684 -21.44626,-2.66263 -30.16055,-2.24138 -4.650917,0.22467 -9.435364,0.44794 -10.632072,0.49546 l -2.175875,0.087 -6.138507,-16.91246 c -3.376183,-9.30181 -6.138939,-17.05661 -6.139428,-17.23282 -5.12e-4,-0.17627 2.472531,-1.99782 5.495637,-4.048 7.129966,-4.8354 15.487003,-12.34122 21.845255,-19.6202 2.79053,-3.19466 5.75325,-6.5879 6.5838,-7.54052 1.16543,-1.33667 1.58028,-1.53902 1.81766,-0.88638 5.84737,16.0757 24.228866,67.08366 24.429426,67.79068 0.32245,1.13654 0.1584,1.14011 -4.925346,0.10905 z m 31.678226,-18.45157 c -1.65864,-0.8328 -2.33732,-1.49187 -2.1408,-2.07908 2.11279,-6.31364 2.65535,-9.22276 2.68369,-14.38966 0.047,-8.3227 -2.00482,-14.94031 -6.77911,-21.8795 -2.08327,-3.02794 -7.8545,-8.42596 -10.8171,-10.1176 -1.21762,-0.69522 -2.21577,-1.46273 -2.21812,-1.70555 -0.002,-0.24301 0.63947,-1.71214 1.4264,-3.26512 l 1.43082,-2.82352 2.93826,1.5676 c 1.6177,0.86307 5.35614,3.97735 8.31818,6.92943 4.17542,4.16146 5.89827,6.37155 7.69524,9.87187 2.46649,4.80436 4.45148,11.27456 4.69152,13.73024 1.02241,4.26811 0.47511,11.08643 0,14.85085 -0.26792,0.87431 -0.65391,3.56378 -1.44252,6.0603 -1.60835,5.09132 -1.84929,5.22664 -5.78646,3.24974 z m -13.03573,-6.35904 c -3.27339,-1.42029 -3.39851,-1.6546 -2.47406,-4.63173 0.53391,-1.71942 0.7466,-4.1687 0.60188,-6.93051 -0.35864,-6.83909 -3.50982,-12.52011 -9.37213,-16.89524 l -1.90368,-1.42072 1.50246,-2.9649 1.50245,-2.96496 2.30202,1.29235 c 2.82926,1.58838 7.97882,7.0615 9.55986,10.16055 3.87461,7.5949 4.52367,14.31164 2.21249,22.89491 -0.691,2.56599 -1.06373,2.70447 -3.93129,1.46025 z"
           inkscape:connector-curvature="0" />
        <g
           id="g5089"
           transform="matrix(0.15427096,0,0,0.15427096,7.6989505,109.07256)"
           style="fill:#34ca31;fill-opacity:1">
          <path
             style="fill:#34ca31;fill-opacity:1"
             d="m 207.55871,557.04765 c -10.28797,-20.38032 -33.70548,-53.5467 -68.35764,-96.81538 -17.07917,-21.32603 -43.724317,-53.22342 -58.711197,-70.28424 -3.76089,-4.28133 -6.83798,-8.21656 -6.83798,-8.74496 0,-1.06589 98.467977,-67.01891 101.078607,-67.70161 1.18123,-0.3089 3.29141,2.18714 7.52484,8.90077 18.90512,29.98085 39.86585,51.6546 58.03561,60.00981 5.50892,2.53322 8.54282,3.24257 15.39555,3.59961 6.60909,0.34434 8.8034,0.12076 9.72607,-0.99099 0.65532,-0.78961 4.86786,-8.60252 9.36122,-17.36202 23.83873,-46.47208 69.35876,-122.72202 106.21926,-177.92637 67.3403,-100.852581 123.2488,-165.101238 161.0085,-185.0270966 17.6387,-9.3079481 37.0948,-14.2485871 59.6504,-15.1474904 27.2121,-1.084482 45.0427,4.1947223 52.7386,15.6146294 2.9467,4.3727 2.9133,10.1180196 -0.096,16.5813996 -1.8808,4.03892 -4.6672,6.95117 -14.2403,14.88378 -14.9904,12.42165 -49.1366,46.65926 -65.1604,65.334978 -60.0611,70.00112 -121.6112,163.28444 -181.2915,274.7598 -30.622,57.19799 -63.4481,128.53032 -78.4616,170.5 -2.6561,7.425 -5.25768,14.0625 -5.78126,14.75 -0.7387,0.96996 -11.89898,1.25 -49.81513,1.25 h -48.86317 z"
             id="path5087"
             inkscape:connector-curvature="0" />
        </g>
      </g>
    </g>
  </g>
</svg>
