<?xml version="1.0" encoding="UTF-8" standalone="no"?>
<!-- Created with Inkscape (http://www.inkscape.org/) -->

<svg
   xmlns:dc="http://purl.org/dc/elements/1.1/"
   xmlns:cc="http://creativecommons.org/ns#"
   xmlns:rdf="http://www.w3.org/1999/02/22-rdf-syntax-ns#"
   xmlns:svg="http://www.w3.org/2000/svg"
   xmlns="http://www.w3.org/2000/svg"
   xmlns:xlink="http://www.w3.org/1999/xlink"
   xmlns:sodipodi="http://sodipodi.sourceforge.net/DTD/sodipodi-0.dtd"
   xmlns:inkscape="http://www.inkscape.org/namespaces/inkscape"
   width="297mm"
   height="210mm"
   viewBox="0 0 297 210"
   version="1.1"
   id="svg8"
   inkscape:version="0.91 r13725"
   sodipodi:docname="all_images.svg">
  <defs
     id="defs2">
    <linearGradient
       inkscape:collect="always"
       id="linearGradient4209">
      <stop
         style="stop-color:#161616;stop-opacity:1"
         offset="0"
         id="stop4211" />
      <stop
         style="stop-color:#828282;stop-opacity:1"
         offset="1"
         id="stop4213" />
    </linearGradient>
    <linearGradient
       id="linearGradient4199"
       inkscape:collect="always">
      <stop
         id="stop4201"
         offset="0"
         style="stop-color:#7f1e1c;stop-opacity:1" />
      <stop
         id="stop4203"
         offset="1"
         style="stop-color:#ff0000;stop-opacity:1" />
    </linearGradient>
    <linearGradient
       inkscape:collect="always"
       id="linearGradient4183">
      <stop
         style="stop-color:#1a6c18;stop-opacity:1"
         offset="0"
         id="stop4185" />
      <stop
         style="stop-color:#31ce2e;stop-opacity:1"
         offset="1"
         id="stop4187" />
    </linearGradient>
    <linearGradient
       inkscape:collect="always"
       xlink:href="#linearGradient4183"
       id="linearGradient4189"
       x1="418.15631"
       y1="448.58618"
       x2="418.15631"
       y2="317.46677"
       gradientUnits="userSpaceOnUse"
       gradientTransform="matrix(0.38272232,0,0,0.38272232,-7.0505906,-49.678546)" />
    <linearGradient
       inkscape:collect="always"
       xlink:href="#linearGradient4199"
       id="linearGradient4193"
       gradientUnits="userSpaceOnUse"
       x1="418.15631"
       y1="448.58618"
       x2="418.15631"
       y2="317.46677"
       gradientTransform="translate(248.78317,189.43089)" />
    <linearGradient
       inkscape:collect="always"
       xlink:href="#linearGradient4183"
       id="linearGradient4197"
       gradientUnits="userSpaceOnUse"
       gradientTransform="translate(112.12948,189.43087)"
       x1="418.15631"
       y1="448.58618"
       x2="418.15631"
       y2="317.46677" />
    <linearGradient
       inkscape:collect="always"
       xlink:href="#linearGradient4209"
       id="linearGradient4207"
       gradientUnits="userSpaceOnUse"
       gradientTransform="translate(385.43675,189.43089)"
       x1="418.15631"
       y1="448.58618"
       x2="418.15631"
       y2="317.46677" />
    <linearGradient
       inkscape:collect="always"
       xlink:href="#linearGradient4183"
       id="linearGradient4222"
       gradientUnits="userSpaceOnUse"
       gradientTransform="matrix(0.38272232,0,0,0.38272232,-116.84991,-50.78663)"
       x1="418.15631"
       y1="448.58618"
       x2="418.15631"
       y2="317.46677" />
    <linearGradient
       inkscape:collect="always"
       xlink:href="#linearGradient4199"
       id="linearGradient4233"
       gradientUnits="userSpaceOnUse"
       gradientTransform="translate(-193.36377,45.446433)"
       x1="418.15631"
       y1="448.58618"
       x2="418.15631"
       y2="317.46677" />
    <linearGradient
       inkscape:collect="always"
       xlink:href="#linearGradient4199"
       id="linearGradient4249"
       gradientUnits="userSpaceOnUse"
       gradientTransform="translate(-19.648016,46.720639)"
       x1="418.15631"
       y1="448.58618"
       x2="418.15631"
       y2="317.46677" />
    <linearGradient
       inkscape:collect="always"
       xlink:href="#linearGradient4183"
       id="linearGradient4273"
       gradientUnits="userSpaceOnUse"
       gradientTransform="matrix(0.38272232,0,0,0.38272232,48.937087,-48.660329)"
       x1="418.15631"
       y1="448.58618"
       x2="418.15631"
       y2="317.46677" />
    <linearGradient
       inkscape:collect="always"
       xlink:href="#linearGradient4209"
       id="linearGradient4284"
       gradientUnits="userSpaceOnUse"
       gradientTransform="translate(-22.933173,52.6669)"
       x1="418.15631"
       y1="448.58618"
       x2="418.15631"
       y2="317.46677" />
    <linearGradient
       inkscape:collect="always"
       xlink:href="#linearGradient4209"
       id="linearGradient4297"
       gradientUnits="userSpaceOnUse"
       gradientTransform="translate(76.632028,22.198203)"
       x1="418.15631"
       y1="448.58618"
       x2="418.15631"
       y2="317.46677" />
    <linearGradient
       inkscape:collect="always"
       xlink:href="#linearGradient4209"
       id="linearGradient4318"
       gradientUnits="userSpaceOnUse"
       gradientTransform="translate(206.1622,30.561501)"
       x1="418.15631"
       y1="448.58618"
       x2="418.15631"
       y2="317.46677" />
  </defs>
  <sodipodi:namedview
     id="base"
     pagecolor="#ffffff"
     bordercolor="#666666"
     borderopacity="1.0"
     inkscape:pageopacity="0.0"
     inkscape:pageshadow="2"
     inkscape:zoom="0.86808356"
     inkscape:cx="577.4494"
     inkscape:cy="373.41298"
     inkscape:document-units="mm"
     inkscape:current-layer="g4540"
     showgrid="false"
     inkscape:window-width="1440"
     inkscape:window-height="851"
     inkscape:window-x="0"
     inkscape:window-y="1"
     inkscape:window-maximized="1" />
  <metadata
     id="metadata5">
    <rdf:RDF>
      <cc:Work
         rdf:about="">
        <dc:format>image/svg+xml</dc:format>
        <dc:type
           rdf:resource="http://purl.org/dc/dcmitype/StillImage" />
        <dc:title />
      </cc:Work>
    </rdf:RDF>
  </metadata>
  <g
     inkscape:label="Layer 1"
     inkscape:groupmode="layer"
     id="layer1"
     transform="translate(0,-87)">
    <g
       id="g4540"
       transform="translate(39.908257,48.990826)">
      <path
         id="path4542"
         style="fill:#010101;stroke-width:0.11993857"
         d="m 10.954161,66.62362 c -0.259045,-0.13107 -1.9932952,-2.242287 -2.9594562,-3.602746 -0.394997,-0.556199 -0.482481,-0.486992 1.552904,-1.228428 1.1793022,-0.429585 1.5756502,-0.528797 1.6834752,-0.421398 0.07757,0.07726 0.599794,0.743788 1.160504,1.481176 0.818598,1.076528 1.149461,1.412962 1.679141,1.707419 0.753576,0.418923 0.905277,0.772256 0.45712,1.06471 -0.302209,0.197208 -2.908839,1.154685 -3.135722,1.151816 -0.07698,-9.07e-4 -0.274058,-0.06962 -0.437966,-0.152549 z M 4.1199668,60.524009 c -0.873541,-0.344879 -1.825894,-1.296008 -2.116253,-2.113532 -0.470559,-1.175617 -0.242211,-2.024578 -0.01663,-3.008118 0.248932,-0.700883 0.911598,-1.488955 1.569108,-1.866051 0.738546,-0.423569 4.279132,-1.679309 4.388172,-1.556353 0.10262,0.115717 2.5881802,6.997728 2.5881802,7.166146 0,0.05731 -0.8635582,0.428071 -1.9190162,0.823916 -1.628539,0.610778 -2.064257,0.726762 -2.878527,0.766259 -0.77656,0.03767 -1.084496,-0.0027 -1.615031,-0.212267 z M 21.62686,58.795198 c -1.769283,-0.358882 -4.562731,-0.56648 -6.416715,-0.476865 -0.989492,0.04782 -2.007393,0.09526 -2.261995,0.105413 l -0.462922,0.01845 -1.30598,-3.598157 c -0.71829,-1.978984 -1.3060712,-3.628833 -1.3061752,-3.666322 -1.09e-4,-0.03749 0.5260352,-0.425042 1.1692072,-0.861223 1.516915,-1.028735 3.294892,-2.625614 4.647623,-4.174238 0.593692,-0.679672 1.224017,-1.401589 1.400717,-1.604259 0.247948,-0.284385 0.336208,-0.327427 0.386711,-0.188582 1.24404,3.420146 5.15474,14.272188 5.19741,14.422615 0.06859,0.241792 0.03373,0.242558 -1.047881,0.02316 z m 6.739611,-3.925607 c -0.352876,-0.177181 -0.497265,-0.317408 -0.45546,-0.442332 0.449508,-1.343247 0.564934,-1.962162 0.570959,-3.061432 0.0097,-1.770674 -0.426525,-3.178581 -1.442264,-4.654912 -0.443225,-0.6442 -1.671064,-1.792637 -2.301366,-2.152534 -0.259044,-0.147911 -0.471402,-0.311203 -0.47191,-0.362867 -4.53e-4,-0.05167 0.136057,-0.364262 0.303478,-0.694654 l 0.304408,-0.600709 0.625116,0.333505 c 0.344176,0.183623 1.139529,0.846192 1.769708,1.474254 0.888336,0.885353 1.25487,1.355559 1.637183,2.100254 0.524749,1.02214 0.947058,2.398692 0.998133,2.921142 0.217521,0.908055 0.101079,2.358664 0,3.159547 -0.05697,0.186016 -0.139117,0.758208 -0.306901,1.289344 -0.342182,1.083191 -0.393443,1.111981 -1.231084,0.691394 z M 25.59309,53.516684 c -0.696413,-0.302168 -0.723036,-0.352014 -0.526357,-0.985408 0.11359,-0.365813 0.158844,-0.886903 0.128051,-1.474476 -0.07626,-1.455033 -0.746721,-2.663683 -1.993944,-3.594503 l -0.405001,-0.302259 0.319647,-0.630796 0.319648,-0.630796 0.489758,0.274951 c 0.601933,0.33793 1.697514,1.50235 2.03388,2.161682 0.824333,1.615832 0.962425,3.044832 0.470709,4.870933 -0.147004,0.545923 -0.226311,0.575383 -0.836391,0.310672 z"
         inkscape:connector-curvature="0" />
      <path
         inkscape:connector-curvature="0"
         id="path4655"
         d="m 64.743185,62.737684 c -1.740883,-2.858262 -3.032044,-4.45377 -4.446462,-5.494564 -1.691554,-1.244722 -4.694539,-2.197968 -6.924203,-2.197968 -0.45621,0 -0.498516,0.01205 -0.536243,0.152831 -0.02253,0.08406 -0.04137,1.260863 -0.04188,2.615123 -5.78e-4,1.354259 -0.01623,2.462288 -0.03495,2.462288 -0.06675,0 -12.600067,-8.378107 -12.600067,-8.422728 0,-0.04462 12.533318,-8.422726 12.600067,-8.422726 0.01872,0 0.03402,1.157778 0.03402,2.572841 0,1.976525 0.01968,2.588686 0.08491,2.641208 0.0467,0.0376 0.495672,0.104124 0.997718,0.147826 2.788636,0.24274 4.974013,0.946794 6.864627,2.211548 2.414049,1.614914 4.047882,3.939633 4.726282,6.724836 0.28936,1.18801 0.36811,2.060619 0.36811,4.078992 v 1.864464 h -0.26153 -0.26154 z"
         style="fill:#000000;stroke-width:0.06792522" />
      <path
         style="stroke-width:0.06812304"
         inkscape:connector-curvature="0"
         d="m 93.448834,65.349046 c -0.0019,-0.003 -0.0031,-0.006 -0.0049,-0.008 l -1.316684,-1.83933 c -0.05927,-0.0827 -0.141832,-0.14592 -0.237204,-0.18141 l -2.253715,-0.839 c -3.641585,-2.94067 -4.80758,-5.72758 -5.465853,-8.06822 -0.177458,-0.63109 -0.481901,-1.12798 -0.849971,-1.51662 l -0.0013,-0.51876 c -2.64e-4,-0.0284 0.01111,-0.0514 0.03393,-0.0683 0.02297,-0.0169 0.04803,-0.0212 0.07541,-0.0126 l 0.774763,0.24565 c 0.247219,0.0784 0.513853,-0.0409 0.62026,-0.27719 1.156049,-2.56729 0.112131,-5.79332 0.0671,-5.92943 -0.05954,-0.17985 -0.213632,-0.31201 -0.400426,-0.34341 -2.913692,-0.49008 -5.104392,1.53706 -5.196154,1.62358 -0.15784,0.14878 -0.204573,0.38094 -0.116557,0.57918 l 1.077978,2.42824 v 1.02689 c -0.127187,0.026 -0.24136,0.0991 -0.317044,0.20778 -0.113221,0.16254 -2.743997,4.0399 -1.32438,10.53448 -0.04966,0.46957 -0.174874,2.47845 1.118034,3.65289 -0.160907,0.13781 -0.375563,0.2511 -0.703916,0.31882 -1.048957,0.21649 -1.56649,0.98901 -1.384327,2.06651 0.0968,0.57278 0.589741,0.98846 1.172125,0.98846 h 0.315476 c 0.282234,0 0.510924,-0.22875 0.510924,-0.51092 0,-0.28216 -0.22869,-0.51092 -0.510924,-0.51092 h -0.315476 c -0.07105,0 -0.132363,-0.0433 -0.156207,-0.10654 0.0071,-0.0199 0.01341,-0.0403 0.01805,-0.0615 0.05293,-0.0199 0.223784,-0.0592 0.662905,0.007 0.412417,0.0623 0.895136,0.19122 1.361917,0.31589 0.195717,0.0522 0.385984,0.103 0.566851,0.14775 l -0.164108,0.43756 c -0.05879,0.15689 -0.03699,0.33264 0.05845,0.47039 0.09537,0.13774 0.252328,0.2199 0.41991,0.2199 1.481132,0 4.015173,-0.0431 6.282512,-0.16472 4.344001,-0.23298 4.841777,-0.59581 5.05432,-0.75079 1.495983,-1.09024 1.008359,-2.79515 0.541443,-3.5443 -0.0039,-0.007 -0.0087,-0.0126 -0.01307,-0.019 z m -1.642104,-0.53967 -0.346882,-0.0859 c -0.163904,-0.0406 -0.332169,-0.0539 -0.500706,-0.0395 l -0.30594,0.0262 -1.386099,-0.55439 0.339865,-0.59512 1.780191,0.6627 z m -7.750768,-13.38563 -0.318746,-0.10103 c -0.337415,-0.10702 -0.708208,-0.0451 -0.992349,0.16534 -0.218813,0.16199 -0.368001,0.39899 -0.423452,0.65895 -0.35097,-0.18454 -0.710047,-0.31037 -1.044192,-0.39041 v -1.24155 c 0,-0.0714 -0.01497,-0.14203 -0.04401,-0.20729 l -0.116829,-0.26316 c 0.177596,-0.16139 1.364911,-1.18343 3.183048,-1.44809 0.08379,0.85944 0.06996,1.8866 -0.243472,2.82724 z m -0.04905,-4.46499 c 0.04162,0.15784 0.09319,0.37188 0.143399,0.62673 -1.712138,0.24886 -2.928406,1.06068 -3.465693,1.48645 l -0.416025,-0.93717 c 0.574754,-0.4366 1.997503,-1.34189 3.738319,-1.17601 z m -4.320022,8.0845 c 0.32045,-1.17682 0.729189,-1.98497 0.943639,-2.36094 0.619374,0.0762 2.110862,0.42407 2.556182,2.00738 0.685181,2.43622 1.882921,5.32416 5.533634,8.36293 l -0.403696,0.70684 c -1.131115,-0.53892 -4.448776,-2.39909 -6.692477,-6.53933 -0.09251,-0.17072 -0.2682,-0.26759 -0.44968,-0.26759 -0.08223,0 -0.165608,0.0199 -0.242928,0.0618 -0.248102,0.13441 -0.340206,0.44451 -0.205798,0.69261 0.717267,1.32356 1.531337,2.42634 2.353855,3.33776 -1.570167,0.009 -2.859397,0.37011 -3.57101,0.62271 -0.545121,-2.89986 -0.213635,-5.18478 0.178279,-6.62422 z m 1.279417,12.52177 c -0.45833,-0.12242 -0.906375,-0.24198 -1.319747,-0.31528 0.750649,-0.26751 1.076005,-0.74785 1.301287,-1.08227 0.06206,-0.0922 0.155866,-0.23141 0.194831,-0.25287 0.09789,-0.0141 0.490215,0.39409 0.763455,1.08779 l -0.275217,0.73389 c -0.20362,-0.0482 -0.430061,-0.10859 -0.664609,-0.17126 z m 11.353524,0.52087 c -0.08522,0.0575 -0.705006,0.35458 -4.543263,0.55881 -1.895999,0.10089 -3.97641,0.14667 -5.454272,0.15832 l 0.863936,-2.30379 c 0.578639,-0.0834 2.205826,-0.23747 5.458563,-0.0105 0.283258,0.0191 0.52564,-0.19265 0.545259,-0.47413 0.01969,-0.28149 -0.192585,-0.52557 -0.47407,-0.54526 -4.425,-0.30873 -5.968055,0.0665 -6.031545,0.0826 -0.117715,0.0298 -0.218948,0.10055 -0.288297,0.19674 -0.421818,-0.63035 -0.890231,-0.91592 -1.392979,-0.8463 -0.283324,0.039 -0.480745,0.17672 -0.634021,0.34035 -0.746493,-0.73137 -0.7811,-1.97053 -0.754599,-2.52253 0.648395,-0.25158 2.425454,-0.83178 4.5295,-0.59839 2.121624,1.96003 4.042013,2.70625 4.204485,2.76715 l 2.037834,0.81516 c 0.07405,0.0296 0.153755,0.0414 0.233389,0.0347 l 0.426792,-0.0366 c 0.05654,-0.005 0.112744,-2.7e-4 0.16765,0.0132 l 1.472616,0.36473 c 0.192584,0.40022 0.519437,1.35973 -0.366978,2.00574 z"
         id="path4716" />
      <g
         id="g4834"
         transform="matrix(0.38272232,0,0,0.38272232,-80.850459,-3.1878869)">
        <path
           id="path4785"
           style="opacity:1;vector-effect:none;fill:none;fill-opacity:1;stroke:#b92727;stroke-width:5.69899988;stroke-linecap:butt;stroke-linejoin:miter;stroke-miterlimit:4;stroke-dasharray:none;stroke-dashoffset:0;stroke-opacity:1"
           d="m 191.21696,127.76753 -65.45493,56.96412 m 61.44216,4.54116 a 43.761466,43.761466 0 0 1 -61.73974,-4.28218 43.761466,43.761466 0 0 1 4.28217,-61.73974 43.761466,43.761466 0 0 1 61.73974,4.28218 43.761466,43.761466 0 0 1 -4.28217,61.73974 z"
           inkscape:connector-curvature="0" />
        <circle
           r="65.368675"
           cy="572.49341"
           cx="666.2146"
           id="circle4191"
           style="color:#000000;clip-rule:nonzero;display:inline;overflow:visible;visibility:visible;opacity:1;isolation:auto;mix-blend-mode:normal;color-interpolation:sRGB;color-interpolation-filters:linearRGB;solid-color:#000000;solid-opacity:1;fill:url(#linearGradient4193);fill-opacity:1;fill-rule:evenodd;stroke:none;stroke-width:0.73740727px;stroke-linecap:butt;stroke-linejoin:miter;stroke-miterlimit:4;stroke-dasharray:none;stroke-dashoffset:0;stroke-opacity:1;color-rendering:auto;image-rendering:auto;shape-rendering:auto;text-rendering:auto;enable-background:accumulate" />
        <circle
           style="color:#000000;clip-rule:nonzero;display:inline;overflow:visible;visibility:visible;opacity:1;isolation:auto;mix-blend-mode:normal;color-interpolation:sRGB;color-interpolation-filters:linearRGB;solid-color:#000000;solid-opacity:1;fill:url(#linearGradient4197);fill-opacity:1;fill-rule:evenodd;stroke:none;stroke-width:0.73740727px;stroke-linecap:butt;stroke-linejoin:miter;stroke-miterlimit:4;stroke-dasharray:none;stroke-dashoffset:0;stroke-opacity:1;color-rendering:auto;image-rendering:auto;shape-rendering:auto;text-rendering:auto;enable-background:accumulate"
           id="circle4195"
           cx="529.5611"
           cy="572.49341"
           r="65.368675" />
        <circle
           style="color:#000000;clip-rule:nonzero;display:inline;overflow:visible;visibility:visible;opacity:1;isolation:auto;mix-blend-mode:normal;color-interpolation:sRGB;color-interpolation-filters:linearRGB;solid-color:#000000;solid-opacity:1;fill:url(#linearGradient4207);fill-opacity:1;fill-rule:evenodd;stroke:none;stroke-width:0.73740727px;stroke-linecap:butt;stroke-linejoin:miter;stroke-miterlimit:4;stroke-dasharray:none;stroke-dashoffset:0;stroke-opacity:1;color-rendering:auto;image-rendering:auto;shape-rendering:auto;text-rendering:auto;enable-background:accumulate"
           id="circle4205"
           cx="802.86816"
           cy="572.49341"
           r="65.368675" />
        <g
           id="g4237">
          <path
             inkscape:connector-curvature="0"
             d="m 146.68253,185.11963 c -0.62148,-0.31447 -4.7822,-5.37957 -7.10013,-8.6435 -0.94765,-1.33439 -1.15754,-1.16835 3.72564,-2.94717 2.82929,-1.03063 3.78019,-1.26864 4.03887,-1.01096 0.18617,0.18544 1.43899,1.78442 2.78421,3.55352 1.96392,2.58273 2.75772,3.38987 4.02849,4.09633 1.80791,1.00505 2.17187,1.85276 1.0967,2.55438 -0.72504,0.47313 -6.9787,2.77027 -7.52304,2.76338 -0.18474,-0.002 -0.65748,-0.16699 -1.05074,-0.36598 z m -16.39618,-14.6338 c -2.09573,-0.82742 -4.38054,-3.10931 -5.07716,-5.07065 -1.12894,-2.82047 -0.58109,-4.85725 -0.0398,-7.21689 0.59721,-1.68153 2.18705,-3.57221 3.7645,-4.47691 1.77186,-1.0162 10.26622,-4.0289 10.52782,-3.73392 0.2462,0.27764 6.20941,16.78851 6.20941,17.19257 0,0.13747 -2.07182,1.027 -4.60398,1.97669 -3.90709,1.46533 -4.95243,1.74361 -6.90598,1.83835 -1.86308,0.0905 -2.60187,-0.007 -3.87467,-0.50924 z m 42.00144,-4.14766 c -4.24476,-0.86102 -10.9466,-1.35906 -15.39458,-1.14407 -2.37391,0.11462 -4.81599,0.22864 -5.42683,0.25289 l -1.1106,0.0442 -3.13322,-8.63245 c -1.72327,-4.74786 -3.13347,-8.70607 -3.1337,-8.79599 -2.7e-4,-0.09 1.26204,-1.01976 2.80509,-2.06621 3.63927,-2.46807 7.90489,-6.2992 11.15027,-10.01457 1.42434,-1.63062 2.93659,-3.36258 3.36051,-3.84882 0.59488,-0.68229 0.80663,-0.78555 0.92778,-0.45244 2.98462,8.2054 12.36692,34.24092 12.4693,34.60182 0.16457,0.58008 0.0808,0.58194 -2.51402,0.0557 z m 16.16925,-9.41807 c -0.84661,-0.42509 -1.19302,-0.76151 -1.09271,-1.06122 1.07843,-3.22263 1.35534,-4.70747 1.3698,-7.34478 0.024,-4.2481 -1.0233,-7.62587 -3.46019,-11.16777 -1.06336,-1.54553 -4.00911,-4.30077 -5.52128,-5.16422 -0.62149,-0.35486 -1.13096,-0.74661 -1.13217,-0.87057 -10e-4,-0.12405 0.3264,-0.87391 0.72808,-1.66656 l 0.7303,-1.44119 1.49974,0.80011 c 0.82574,0.44055 2.73389,2.03015 4.24579,3.53694 2.13121,2.12409 3.01059,3.25218 3.9278,5.0388 1.25896,2.45225 2.27214,5.75477 2.39466,7.00821 0.52186,2.17855 0.24251,5.65877 0,7.58019 -0.13674,0.44628 -0.33374,1.81905 -0.73629,3.09333 -0.82094,2.59871 -0.94392,2.66778 -2.95353,1.65873 z m -6.65372,-3.24581 c -1.6708,-0.72494 -1.73467,-0.84453 -1.2628,-2.36414 0.27252,-0.87762 0.38107,-2.12779 0.30719,-3.53745 -0.18304,-3.49081 -1.79146,-6.39053 -4.78372,-8.62369 l -0.97165,-0.72516 0.76687,-1.51338 0.76687,-1.51338 1.175,0.65967 c 1.44411,0.81074 4.07256,3.60434 4.87956,5.18616 1.97768,3.8766 2.30897,7.30497 1.12929,11.68603 -0.3527,1.30974 -0.54294,1.38041 -2.00661,0.74534 z"
             style="fill:#010101;stroke-width:0.28774893"
             id="path4789" />
          <path
             id="path4235"
             style="opacity:1;vector-effect:none;fill:none;fill-opacity:1;stroke:#b92727;stroke-width:5.69899988;stroke-linecap:butt;stroke-linejoin:miter;stroke-miterlimit:4;stroke-dasharray:none;stroke-dashoffset:0;stroke-opacity:1"
             d="m 191.21696,127.76753 -65.45493,56.96412 m 61.44216,4.54116 a 43.761466,43.761466 0 0 1 -61.73974,-4.28218 43.761466,43.761466 0 0 1 4.28217,-61.73974 43.761466,43.761466 0 0 1 61.73974,4.28218 43.761466,43.761466 0 0 1 -4.28217,61.73974 z"
             inkscape:connector-curvature="0" />
        </g>
        <g
           id="g4261"
           transform="translate(-44.17222,-22.530113)">
          <circle
             r="65.368675"
             cy="428.50894"
             cx="224.06766"
             id="circle4231"
             style="color:#000000;clip-rule:nonzero;display:inline;overflow:visible;visibility:visible;opacity:1;isolation:auto;mix-blend-mode:normal;color-interpolation:sRGB;color-interpolation-filters:linearRGB;solid-color:#000000;solid-opacity:1;fill:url(#linearGradient4233);fill-opacity:1;fill-rule:evenodd;stroke:none;stroke-width:0.73740727px;stroke-linecap:butt;stroke-linejoin:miter;stroke-miterlimit:4;stroke-dasharray:none;stroke-dashoffset:0;stroke-opacity:1;color-rendering:auto;image-rendering:auto;shape-rendering:auto;text-rendering:auto;enable-background:accumulate" />
          <g
             transform="matrix(1.2643525,0,0,1.2643525,23.698881,230.93889)"
             id="g4241">
            <path
               inkscape:connector-curvature="0"
               d="m 146.68253,185.11963 c -0.62148,-0.31447 -4.7822,-5.37957 -7.10013,-8.6435 -0.94765,-1.33439 -1.15754,-1.16835 3.72564,-2.94717 2.82929,-1.03063 3.78019,-1.26864 4.03887,-1.01096 0.18617,0.18544 1.43899,1.78442 2.78421,3.55352 1.96392,2.58273 2.75772,3.38987 4.02849,4.09633 1.80791,1.00505 2.17187,1.85276 1.0967,2.55438 -0.72504,0.47313 -6.9787,2.77027 -7.52304,2.76338 -0.18474,-0.002 -0.65748,-0.16699 -1.05074,-0.36598 z m -16.39618,-14.6338 c -2.09573,-0.82742 -4.38054,-3.10931 -5.07716,-5.07065 -1.12894,-2.82047 -0.58109,-4.85725 -0.0398,-7.21689 0.59721,-1.68153 2.18705,-3.57221 3.7645,-4.47691 1.77186,-1.0162 10.26622,-4.0289 10.52782,-3.73392 0.2462,0.27764 6.20941,16.78851 6.20941,17.19257 0,0.13747 -2.07182,1.027 -4.60398,1.97669 -3.90709,1.46533 -4.95243,1.74361 -6.90598,1.83835 -1.86308,0.0905 -2.60187,-0.007 -3.87467,-0.50924 z m 42.00144,-4.14766 c -4.24476,-0.86102 -10.9466,-1.35906 -15.39458,-1.14407 -2.37391,0.11462 -4.81599,0.22864 -5.42683,0.25289 l -1.1106,0.0442 -3.13322,-8.63245 c -1.72327,-4.74786 -3.13347,-8.70607 -3.1337,-8.79599 -2.7e-4,-0.09 1.26204,-1.01976 2.80509,-2.06621 3.63927,-2.46807 7.90489,-6.2992 11.15027,-10.01457 1.42434,-1.63062 2.93659,-3.36258 3.36051,-3.84882 0.59488,-0.68229 0.80663,-0.78555 0.92778,-0.45244 2.98462,8.2054 12.36692,34.24092 12.4693,34.60182 0.16457,0.58008 0.0808,0.58194 -2.51402,0.0557 z m 16.16925,-9.41807 c -0.84661,-0.42509 -1.19302,-0.76151 -1.09271,-1.06122 1.07843,-3.22263 1.35534,-4.70747 1.3698,-7.34478 0.024,-4.2481 -1.0233,-7.62587 -3.46019,-11.16777 -1.06336,-1.54553 -4.00911,-4.30077 -5.52128,-5.16422 -0.62149,-0.35486 -1.13096,-0.74661 -1.13217,-0.87057 -10e-4,-0.12405 0.3264,-0.87391 0.72808,-1.66656 l 0.7303,-1.44119 1.49974,0.80011 c 0.82574,0.44055 2.73389,2.03015 4.24579,3.53694 2.13121,2.12409 3.01059,3.25218 3.9278,5.0388 1.25896,2.45225 2.27214,5.75477 2.39466,7.00821 0.52186,2.17855 0.24251,5.65877 0,7.58019 -0.13674,0.44628 -0.33374,1.81905 -0.73629,3.09333 -0.82094,2.59871 -0.94392,2.66778 -2.95353,1.65873 z m -6.65372,-3.24581 c -1.6708,-0.72494 -1.73467,-0.84453 -1.2628,-2.36414 0.27252,-0.87762 0.38107,-2.12779 0.30719,-3.53745 -0.18304,-3.49081 -1.79146,-6.39053 -4.78372,-8.62369 l -0.97165,-0.72516 0.76687,-1.51338 0.76687,-1.51338 1.175,0.65967 c 1.44411,0.81074 4.07256,3.60434 4.87956,5.18616 1.97768,3.8766 2.30897,7.30497 1.12929,11.68603 -0.3527,1.30974 -0.54294,1.38041 -2.00661,0.74534 z"
               style="fill:#ffffff;fill-opacity:1;stroke-width:0.28774893"
               id="path4243" />
            <path
               id="path4245"
               style="opacity:1;fill:none;fill-opacity:1;stroke:#000000;stroke-width:5.69899988;stroke-linecap:butt;stroke-linejoin:miter;stroke-miterlimit:4;stroke-dasharray:none;stroke-dashoffset:0;stroke-opacity:1"
               d="m 191.21696,127.76753 -65.45493,56.96412 m 61.44216,4.54116 a 43.761466,43.761466 0 0 1 -61.73974,-4.28218 43.761466,43.761466 0 0 1 4.28217,-61.73974 43.761466,43.761466 0 0 1 61.73974,4.28218 43.761466,43.761466 0 0 1 -4.28217,61.73974 z"
               inkscape:connector-curvature="0" />
          </g>
        </g>
      </g>
      <g
         id="g4722"
         transform="matrix(0.26458333,0,0,0.26458333,53.462887,98.538326)" />
      <g
         id="g4724"
         transform="matrix(0.26458333,0,0,0.26458333,53.462887,98.538326)" />
      <g
         id="g4726"
         transform="matrix(0.26458333,0,0,0.26458333,53.462887,98.538326)" />
      <g
         id="g4728"
         transform="matrix(0.26458333,0,0,0.26458333,53.462887,98.538326)" />
      <g
         id="g4730"
         transform="matrix(0.26458333,0,0,0.26458333,53.462887,98.538326)" />
      <g
         id="g4732"
         transform="matrix(0.26458333,0,0,0.26458333,53.462887,98.538326)" />
      <g
         id="g4734"
         transform="matrix(0.26458333,0,0,0.26458333,53.462887,98.538326)" />
      <g
         id="g4736"
         transform="matrix(0.26458333,0,0,0.26458333,53.462887,98.538326)" />
      <g
         id="g4738"
         transform="matrix(0.26458333,0,0,0.26458333,53.462887,98.538326)" />
      <g
         id="g4740"
         transform="matrix(0.26458333,0,0,0.26458333,53.462887,98.538326)" />
      <g
         id="g4742"
         transform="matrix(0.26458333,0,0,0.26458333,53.462887,98.538326)" />
      <g
         id="g4744"
         transform="matrix(0.26458333,0,0,0.26458333,53.462887,98.538326)" />
      <g
         id="g4746"
         transform="matrix(0.26458333,0,0,0.26458333,53.462887,98.538326)" />
      <g
         id="g4748"
         transform="matrix(0.26458333,0,0,0.26458333,53.462887,98.538326)" />
      <g
         id="g4750"
         transform="matrix(0.26458333,0,0,0.26458333,53.462887,98.538326)" />
      <path
         id="path4885"
         d="m 104.9126,54.883218 c 0.009,0.0011 0.019,0.0016 0.0283,0.0016 0.12346,0 0.22995,-0.09264 0.24438,-0.218194 0.29108,-2.536476 1.49313,-3.04106 1.51694,-3.05062 0.12642,-0.04699 0.1916,-0.187198 0.14565,-0.314372 -0.0462,-0.127926 -0.18725,-0.194323 -0.31518,-0.147974 -0.0614,0.02212 -1.50599,0.575673 -1.83664,3.456824 -0.0156,0.13517 0.0814,0.257302 0.21652,0.272772 z m 25.72564,12.689271 h -2.41805 L 127.4893,55.963824 c -7.9e-4,-0.0131 -0.004,-0.02556 -0.006,-0.03789 l 0.87058,-0.318892 c 0.25435,-0.09079 0.45806,-0.275206 0.57364,-0.5193 0.11565,-0.244036 0.12921,-0.518491 0.0384,-0.772665 l -0.1715,-0.480248 c -0.0999,-0.279667 -0.31617,-0.495083 -0.58222,-0.600125 -0.0237,-0.235112 -0.12758,-0.452438 -0.29861,-0.619591 -0.1726,-0.168714 -0.39595,-0.26837 -0.63344,-0.28494 -0.17758,-1.012063 -0.53755,-2.388442 -1.2448,-3.189031 0.49149,-0.112633 0.96061,-0.351859 1.35511,-0.719826 0.73779,-0.688131 1.07348,-1.718677 0.89063,-2.709013 l 0.63332,-1.262472 c 0.15047,-0.300006 0.0288,-0.666406 -0.27115,-0.81693 l -3.23903,-1.624529 c -0.0844,-0.04235 -0.17874,-0.06477 -0.27272,-0.06477 -0.23169,0 -0.44027,0.128683 -0.54421,0.335753 l -0.70911,1.41346 c -0.19044,0.111067 -0.36935,0.242411 -0.53129,0.393515 -1.12336,1.047872 -1.24834,2.77101 -0.33361,3.966795 -0.5226,0.231521 -2.52164,1.381709 -2.76747,5.503952 -0.19299,3.236542 -0.60575,12.49118 -0.67336,14.015476 h -3.15357 l -0.64196,-10.195612 c -2.6e-4,-0.0042 -0.002,-0.008 -0.002,-0.01222 l 0.74358,-0.272309 c 0.23129,-0.08262 0.41658,-0.250349 0.52173,-0.472311 0.10511,-0.221961 0.1175,-0.471617 0.0349,-0.702791 l -0.15093,-0.422889 c -0.0888,-0.248555 -0.27868,-0.441317 -0.51304,-0.539234 -0.025,-0.206955 -0.11837,-0.397976 -0.26958,-0.545777 -0.14798,-0.144614 -0.3361,-0.232855 -0.53854,-0.255508 -0.14751,-0.874287 -0.45342,-2.04823 -1.07742,-2.766142 0.41872,-0.104926 0.81745,-0.313272 1.15488,-0.627992 0.65453,-0.610494 0.95361,-1.523484 0.7948,-2.402173 l 0.55314,-1.102736 c 0.13974,-0.278624 0.0268,-0.618953 -0.2518,-0.758758 l -2.85172,-1.430261 c -0.0785,-0.0394 -0.16599,-0.0602 -0.25336,-0.0602 -0.21513,0 -0.40882,0.119467 -0.50546,0.31188 l -0.62034,1.236634 c -0.16669,0.09797 -0.32341,0.213328 -0.46548,0.345889 -0.99103,0.924579 -1.10916,2.439371 -0.31866,3.502708 -0.36003,0.16895 -1.31119,0.747405 -1.91572,2.327264 -0.17353,-0.498967 -0.40783,-0.978924 -0.72359,-1.342255 0.41877,-0.104926 0.81745,-0.313272 1.15488,-0.627991 0.65453,-0.610494 0.9536,-1.523484 0.79479,-2.402173 l 0.55314,-1.102739 c 0.13975,-0.278624 0.0268,-0.618953 -0.2518,-0.758758 l -2.85171,-1.430261 c -0.0785,-0.0394 -0.166,-0.0602 -0.25337,-0.0602 -0.21512,0 -0.40881,0.11947 -0.50545,0.31188 l -0.6204,1.236634 c -0.16669,0.09797 -0.32341,0.213328 -0.46548,0.345889 -0.99097,0.924462 -1.10911,2.439083 -0.31889,3.502364 -0.51206,0.239167 -2.20831,1.295207 -2.4206,4.855681 -0.18459,3.0939 -0.59711,12.433588 -0.60122,12.527565 -2.7e-4,0.0062 5.3e-4,0.01183 0.001,0.01744 -2.6e-4,0.0052 -0.002,0.01027 -0.002,0.01564 0,0.136039 0.1102,0.246237 0.24624,0.246237 h 27.05631 c 0.13604,0 0.24624,-0.110198 0.24624,-0.246237 0,-0.136038 -0.1102,-0.246237 -0.24624,-0.246237 z m -2.13635,-13.091768 c 0.0466,0.130363 0.0396,0.271095 -0.0197,0.396182 -0.0593,0.125147 -0.16374,0.219702 -0.29607,0.26698 l -2.99245,1.096132 c -0.0565,0.02021 -0.11518,0.03042 -0.17445,0.03042 -0.21848,0 -0.41455,-0.1383 -0.48807,-0.344154 -7.9e-4,-0.0019 -10e-4,-0.0039 -0.002,-0.0059 l -1.78664,-4.626536 c -0.0455,-0.129609 -0.0382,-0.269296 0.0207,-0.393632 0.0187,-0.03952 0.0423,-0.07549 0.0694,-0.108288 l 0.97955,2.340181 c 0.0422,0.100582 0.14329,0.15852 0.24642,0.150466 0.0254,-0.0021 0.051,-0.0081 0.0759,-0.01836 0.12538,-0.05255 0.18454,-0.196816 0.13205,-0.32231 l -0.99776,-2.383401 0.26866,-0.096 c 0.0565,-0.02016 0.11519,-0.03036 0.1744,-0.03036 0.21854,0 0.41472,0.138298 0.4883,0.344152 0.001,0.0027 0.002,0.0053 0.003,0.0079 l 1.35599,3.420613 c 0.0492,0.124045 0.18812,0.186386 0.31373,0.140441 l 1.79516,-0.658582 c 0.0565,-0.02022 0.11512,-0.03036 0.17434,-0.03036 0.21854,0 0.41477,0.138356 0.48836,0.344154 z m -0.93275,-1.513459 c 0.0602,0.05886 0.10406,0.129897 0.12967,0.20765 -0.0669,0.0097 -0.13326,0.02537 -0.19867,0.04867 l -0.0896,0.03285 c -0.0122,-0.115006 -0.0287,-0.254812 -0.0505,-0.413795 0.0778,0.02405 0.14925,0.06611 0.2091,0.124627 z m -2.43792,-10.531248 c 0.018,0 0.0353,0.0042 0.0519,0.01246 l 3.2391,1.624587 c 0.0572,0.02868 0.0805,0.09867 0.0518,0.155911 l -0.56368,1.123709 -3.51007,-1.602684 0.14097,-0.280885 1.12029,0.538303 c 0.0344,0.01651 0.0707,0.02434 0.10649,0.02434 0.0917,0 0.17978,-0.05151 0.22213,-0.139631 0.0589,-0.122598 0.007,-0.269701 -0.11529,-0.328623 l -1.11271,-0.534713 0.26525,-0.528627 c 0.0236,-0.04728 0.0692,-0.06414 0.10388,-0.06414 z m -1.44857,2.010339 c 0.12208,-0.113908 0.25556,-0.214429 0.39717,-0.301165 l 3.72507,1.700776 c 0.13471,0.812351 -0.14623,1.651585 -0.75053,2.21515 -0.99677,0.929503 -2.56382,0.875099 -3.49332,-0.121438 -0.92956,-0.996593 -0.87504,-2.563649 0.12161,-3.493323 z m -2.94546,9.139978 c 0.13419,-2.249971 0.824,-3.521831 1.37904,-4.192637 0.53639,-0.648388 1.0039,-0.85737 1.23803,-0.96641 0.56443,0.523703 1.28871,0.789176 2.01509,0.789176 0.009,0 0.0179,-5.29e-4 0.0268,-5.29e-4 1.18223,0.863396 1.47957,3.489036 1.53994,4.214711 l -1.00784,0.369764 -1.26617,-3.193902 c -0.14456,-0.399018 -0.52591,-0.666753 -0.95048,-0.666753 -0.11576,0 -0.23025,0.01987 -0.34004,0.0591 l -0.48008,0.171497 c -0.25429,0.09073 -0.458,0.275148 -0.57358,0.519242 -0.11559,0.244036 -0.12915,0.518488 -0.0383,0.772838 7.9e-4,0.0019 0.001,0.0039 0.002,0.0058 l 1.78676,4.626885 c 0.14421,0.399598 0.52585,0.667853 0.95077,0.667853 0.11587,0 0.23036,-0.01992 0.342,-0.05985 l 1.64331,-0.601977 0.65429,10.3926 h -2.96336 c -0.13604,0 -0.24624,0.110199 -0.24624,0.246237 0,0.136041 0.1102,0.246237 0.24624,0.246237 h 2.99436 l 0.0369,0.586277 h -5.09693 l 0.0486,-3.298015 c 0.002,-0.13598 -0.10667,-0.247801 -0.24265,-0.249886 -10e-4,0 -0.002,0 -0.004,0 -0.1343,0 -0.24415,0.107823 -0.24618,0.242644 l -0.0487,3.305257 h -0.79004 l 0.19948,-6.122731 c 0.004,-0.135982 -0.1022,-0.249713 -0.23807,-0.254174 -0.13679,-0.0016 -0.24971,0.102203 -0.25417,0.238067 l -0.20001,6.13878 h -0.78923 c 0.0705,-1.587273 0.48013,-10.767925 0.67203,-13.986042 z m -4.12607,2.496556 c 0.0384,0.107418 0.0326,0.223295 -0.0162,0.326308 -0.0488,0.103071 -0.13488,0.180998 -0.24421,0.220048 l -2.63445,0.964962 c -0.0466,0.01662 -0.0949,0.02508 -0.14369,0.02508 -0.17989,0 -0.34143,-0.113909 -0.40197,-0.283435 -8e-4,-0.0019 -10e-4,-0.0039 -0.002,-0.006 l -1.57279,-4.072763 c -0.0374,-0.106722 -0.0313,-0.221557 0.0172,-0.323874 0.0107,-0.0226 0.0235,-0.04369 0.0375,-0.06367 l 0.79995,1.992146 c 0.0407,0.101219 0.14097,0.160604 0.24421,0.154 0.0254,-0.0016 0.0511,-0.0072 0.0761,-0.01728 0.12619,-0.0507 0.18738,-0.194093 0.13674,-0.320283 l -0.82179,-2.046492 0.19212,-0.06871 c 0.0466,-0.01662 0.095,-0.02508 0.14363,-0.02508 0.17995,0 0.3416,0.113967 0.40214,0.283551 8e-4,0.0027 0.002,0.0053 0.003,0.0079 l 1.19381,3.011567 c 0.0492,0.124047 0.18813,0.18633 0.31374,0.140443 l 1.18715,-0.435581 c 0.037,-0.0049 0.0709,-0.01767 0.10053,-0.03691 l 0.29252,-0.107299 c 0.0466,-0.01662 0.0949,-0.02508 0.14357,-0.02508 0.18002,0 0.34172,0.113964 0.40221,0.283432 z m -0.81403,-1.321282 c 0.041,0.04004 0.0729,0.08697 0.0946,0.138184 -0.0487,0.009 -0.0971,0.02172 -0.14497,0.03882 l -0.0382,0.01397 c -0.008,-0.0799 -0.0174,-0.171556 -0.0297,-0.273063 0.0431,0.02035 0.0831,0.04774 0.11825,0.0821 z m -2.12581,-9.263502 c 0.0111,0 0.0221,0.0027 0.0325,0.0079 l 2.85177,1.430322 c 0.0359,0.01797 0.0504,0.06182 0.0324,0.0978 l -0.48355,0.963975 -3.03671,-1.386576 0.0974,-0.194093 0.96021,0.46142 c 0.0344,0.01651 0.0707,0.02434 0.10649,0.02434 0.0917,0 0.17973,-0.05151 0.22214,-0.139631 0.0589,-0.122598 0.007,-0.269703 -0.1153,-0.328626 l -0.95262,-0.457769 0.22005,-0.438534 c 0.0148,-0.0299 0.0434,-0.0405 0.0652,-0.0405 z m -1.25529,1.761959 c 0.10221,-0.09537 0.21339,-0.180073 0.33129,-0.253537 l 3.25178,1.484722 c 0.11084,0.700646 -0.13378,1.42244 -0.6547,1.90831 -0.86553,0.807427 -2.22668,0.759976 -3.03393,-0.105389 -0.80737,-0.865597 -0.76003,-2.226622 0.10556,-3.034106 z m -2.32395,6.312537 c 0.55157,-2.105879 1.79388,-2.69876 2.01538,-2.788679 0.49954,0.453713 1.13558,0.683784 1.77348,0.683784 0.005,0 0.01,-2.65e-4 0.0145,-2.65e-4 1.01259,0.750126 1.27684,2.997317 1.33362,3.661114 l -0.83929,0.307885 -1.10401,-2.784859 c -0.13158,-0.362693 -0.4784,-0.606033 -0.86438,-0.606033 -0.10533,0 -0.20939,0.01812 -0.30933,0.05382 l -0.42266,0.150929 c -0.23123,0.08256 -0.41652,0.250235 -0.52168,0.472255 -0.10515,0.221962 -0.11755,0.471617 -0.0349,0.702905 7.9e-4,0.0019 0.001,0.0039 0.002,0.0059 l 1.57303,4.073343 c 0.13122,0.363273 0.47828,0.607076 0.86461,0.607076 0.10539,0 0.2095,-0.01812 0.31124,-0.05446 l 1.40975,-0.516345 0.57168,9.079145 h -2.57767 c -0.13604,0 -0.24624,0.110196 -0.24624,0.246237 0,0.136038 0.1102,0.246237 0.24624,0.246237 h 2.60867 l 0.029,0.459971 h -4.9098 l -0.64109,-10.208821 0.74063,-0.271325 c 0.23128,-0.08262 0.41657,-0.250351 0.52173,-0.472313 0.1051,-0.221959 0.1175,-0.471615 0.0349,-0.702789 l -0.15093,-0.422891 c -0.089,-0.24896 -0.27932,-0.442069 -0.51432,-0.539753 -0.0293,-0.208113 -0.13969,-0.407014 -0.3131,-0.557363 -0.14125,-0.122484 -0.31437,-0.204986 -0.49293,-0.237895 -0.0303,-0.180594 -0.0675,-0.373991 -0.11281,-0.573646 10e-4,-0.0045 0.003,-0.0086 0.005,-0.0131 z m -3.88256,-0.639289 c 0.0173,-0.03644 0.0394,-0.06953 0.0652,-0.09902 l 0.74288,1.98896 c 0.0382,0.102203 0.13697,0.164023 0.24028,0.159967 0.0255,-0.0011 0.0513,-0.006 0.0765,-0.01543 0.12741,-0.04763 0.19207,-0.189458 0.14456,-0.316865 l -0.75905,-2.032701 0.15452,-0.05522 c 0.0466,-0.01662 0.095,-0.02508 0.14363,-0.02508 0.18001,0 0.3416,0.113964 0.40221,0.283552 0.001,0.0027 0.002,0.0053 0.003,0.0079 l 1.19382,3.011567 c 0.0493,0.124047 0.18807,0.18633 0.31373,0.140443 l 1.18721,-0.435578 c 0.0369,-0.0049 0.0709,-0.01767 0.10047,-0.03691 l 0.29253,-0.107302 c 0.0466,-0.01662 0.0949,-0.02508 0.14363,-0.02508 0.18001,0 0.34166,0.113964 0.40221,0.283432 l 0.15092,0.422892 c 0.0384,0.107418 0.0326,0.223292 -0.0162,0.326308 -0.0488,0.103071 -0.13488,0.180999 -0.24421,0.220049 l -2.63445,0.964959 c -0.0466,0.01662 -0.0949,0.02508 -0.14363,0.02508 -0.17984,0 -0.34143,-0.113905 -0.40197,-0.283432 -8e-4,-0.0019 -10e-4,-0.0039 -0.002,-0.006 l -1.57285,-4.072765 c -0.0373,-0.106664 -0.0312,-0.221499 0.0172,-0.323816 z m 4.06912,1.771981 c 0.0326,0.01826 0.0637,0.03951 0.0919,0.06402 0.0318,0.02758 0.0754,0.07306 0.10783,0.132678 -0.0453,0.0089 -0.0904,0.02069 -0.135,0.03662 l -0.0382,0.01397 c -0.007,-0.07312 -0.0157,-0.155969 -0.0266,-0.24728 z m -2.01069,-9.207188 c 0.0111,0 0.0221,0.0027 0.0325,0.0079 l 2.85178,1.430322 c 0.0359,0.01797 0.0504,0.06182 0.0324,0.0978 l -0.48355,0.963975 -3.03672,-1.386634 0.0974,-0.194093 0.9602,0.46142 c 0.0344,0.01651 0.0708,0.02434 0.10649,0.02434 0.0917,0 0.17979,-0.05151 0.22214,-0.139631 0.0589,-0.122598 0.007,-0.269704 -0.1153,-0.328626 l -0.95262,-0.457769 0.22005,-0.438534 c 0.0149,-0.02984 0.0435,-0.04044 0.0652,-0.04044 z m -1.25529,1.761959 c 0.10221,-0.09537 0.21339,-0.180073 0.33135,-0.253537 l 3.25172,1.484722 c 0.11084,0.700646 -0.13378,1.42244 -0.6547,1.90831 -0.86559,0.807427 -2.22668,0.759976 -3.03393,-0.105389 -0.80737,-0.865597 -0.76004,-2.226622 0.10556,-3.034106 z m -2.58392,8.027275 c 0.11744,-1.970013 0.71982,-3.08347 1.20436,-3.670673 0.43059,-0.52179 0.91675,-0.763857 1.07208,-0.831818 0.49937,0.453134 1.13496,0.682858 1.77245,0.682858 0.005,0 0.01,-2.65e-4 0.0145,-2.65e-4 1.01265,0.750126 1.27684,2.997317 1.33368,3.661114 l -0.83935,0.307885 -1.10401,-2.784859 c -0.13158,-0.362693 -0.4784,-0.606033 -0.86438,-0.606033 -0.10533,0 -0.20939,0.01812 -0.30933,0.05382 l -0.42266,0.150929 c -0.23123,0.08256 -0.41658,0.250235 -0.52168,0.472255 -0.10516,0.221962 -0.11755,0.471617 -0.0349,0.702905 7.9e-4,0.0019 10e-4,0.0039 0.002,0.0059 l 1.57302,4.073343 c 0.13123,0.363273 0.47828,0.607076 0.86461,0.607076 0.1054,0 0.20951,-0.01812 0.31125,-0.05446 l 1.41143,-0.51698 0.57017,9.07978 h -2.57778 c -0.13604,0 -0.24624,0.110196 -0.24624,0.246237 0,0.136038 0.1102,0.246237 0.24624,0.246237 h 2.60878 l 0.0289,0.459971 h -4.42648 l 0.0424,-2.8764 c 0.002,-0.13598 -0.10667,-0.2478 -0.24265,-0.249885 -0.13598,-0.0013 -0.2478,0.106664 -0.24989,0.242644 l -0.0425,2.883641 h -0.63616 l 0.17474,-5.362816 c 0.004,-0.13598 -0.10221,-0.249714 -0.23807,-0.254175 -0.003,-5.8e-5 -0.005,-1.16e-4 -0.008,-1.16e-4 -0.13221,0 -0.2416,0.105042 -0.24595,0.238186 l -0.1752,5.378862 h -0.63559 c 0.0654,-1.474179 0.42249,-9.470397 0.59034,-12.285093 z m 16.89529,-2.19122 c 0.01,0.0011 0.019,0.0016 0.0283,0.0016 0.12346,0 0.22996,-0.09264 0.24438,-0.218197 0.33373,-2.908088 1.71938,-3.482546 1.74423,-3.492396 0.1266,-0.04693 0.19189,-0.187257 0.14595,-0.314545 -0.0462,-0.12787 -0.18726,-0.193921 -0.31525,-0.147918 -0.0689,0.02492 -1.69104,0.64665 -2.06421,3.898718 -0.0155,0.13517 0.0815,0.257246 0.21657,0.272774 z"
         inkscape:connector-curvature="0"
         style="stroke-width:0.05793817" />
      <path
         id="path4954"
         style="opacity:1;vector-effect:none;fill:#010101;fill-opacity:1;stroke:#000000;stroke-width:0.55431944;stroke-linecap:butt;stroke-linejoin:miter;stroke-miterlimit:4;stroke-dasharray:none;stroke-dashoffset:0;stroke-opacity:1"
         d="m 161.22757,60.378804 c -7.1916,-2.843824 -13.80594,-2.174976 -20.25877,0.08632 1.33399,-2.234081 0.52264,-4.468162 -0.73425,-6.702242 6.00726,-1.500106 12.02831,-4.028078 19.5001,0.01021 l -1.91218,-5.613816 c 4.5502,2.468084 7.75807,5.253186 12.68272,10.042671 -4.12549,1.995694 -7.12665,5.304731 -10.19127,7.694117 z"
         inkscape:connector-curvature="0"
         sodipodi:nodetypes="cccccccc" />
      <path
         inkscape:connector-curvature="0"
         id="path4994"
         d="m 191.67606,63.720783 6.10256,-6.10377 -6.13839,-6.13838 -6.13839,-6.138376 -1.73675,1.736736 -1.73672,1.736738 4.25598,4.256741 c 2.80429,2.804811 4.25596,4.355731 4.25596,4.546951 0,0.19123 -1.45143,1.74191 -4.25522,4.54621 l -4.25521,4.256 1.69801,1.70246 c 0.93393,0.93635 1.73125,1.70246 1.77184,1.70246 0.0406,0 2.81995,-2.7467 6.17633,-6.10377 z"
         style="fill:#000000;stroke-width:0.14194334" />
      <g
         id="g4889"
         transform="matrix(0.26458333,0,0,0.26458333,71.133862,112.99612)" />
      <g
         id="g4891"
         transform="matrix(0.26458333,0,0,0.26458333,71.133862,112.99612)" />
      <g
         id="g4893"
         transform="matrix(0.26458333,0,0,0.26458333,71.133862,112.99612)" />
      <g
         id="g4895"
         transform="matrix(0.26458333,0,0,0.26458333,71.133862,112.99612)" />
      <g
         id="g4897"
         transform="matrix(0.26458333,0,0,0.26458333,71.133862,112.99612)" />
      <g
         id="g4899"
         transform="matrix(0.26458333,0,0,0.26458333,71.133862,112.99612)" />
      <g
         id="g4901"
         transform="matrix(0.26458333,0,0,0.26458333,71.133862,112.99612)" />
      <g
         id="g4903"
         transform="matrix(0.26458333,0,0,0.26458333,71.133862,112.99612)" />
      <g
         id="g4905"
         transform="matrix(0.26458333,0,0,0.26458333,71.133862,112.99612)" />
      <g
         id="g4907"
         transform="matrix(0.26458333,0,0,0.26458333,71.133862,112.99612)" />
      <g
         id="g4909"
         transform="matrix(0.26458333,0,0,0.26458333,71.133862,112.99612)" />
      <g
         id="g4911"
         transform="matrix(0.26458333,0,0,0.26458333,71.133862,112.99612)" />
      <g
         id="g4913"
         transform="matrix(0.26458333,0,0,0.26458333,71.133862,112.99612)" />
      <g
         id="g4915"
         transform="matrix(0.26458333,0,0,0.26458333,71.133862,112.99612)" />
      <g
         id="g4917"
         transform="matrix(0.26458333,0,0,0.26458333,71.133862,112.99612)" />
      <g
         id="g5085"
         transform="matrix(0.0468224,0,0,0.0468224,201.39256,43.811254)"
         style="fill:#010101;fill-opacity:1">
        <path
           style="fill:#010101;fill-opacity:1"
           d="m 207.55871,557.04765 c -10.28797,-20.38032 -33.70548,-53.5467 -68.35764,-96.81538 -17.07917,-21.32603 -43.724317,-53.22342 -58.711197,-70.28424 -3.76089,-4.28133 -6.83798,-8.21656 -6.83798,-8.74496 0,-1.06589 98.467977,-67.01891 101.078607,-67.70161 1.18123,-0.3089 3.29141,2.18714 7.52484,8.90077 18.90512,29.98085 39.86585,51.6546 58.03561,60.00981 5.50892,2.53322 8.54282,3.24257 15.39555,3.59961 6.60909,0.34434 8.8034,0.12076 9.72607,-0.99099 0.65532,-0.78961 4.86786,-8.60252 9.36122,-17.36202 23.83873,-46.47208 69.35876,-122.72202 106.21926,-177.92637 67.3403,-100.852581 123.2488,-165.101238 161.0085,-185.0270966 17.6387,-9.3079481 37.0948,-14.2485871 59.6504,-15.1474904 27.2121,-1.084482 45.0427,4.1947223 52.7386,15.6146294 2.9467,4.3727 2.9133,10.1180196 -0.096,16.5813996 -1.8808,4.03892 -4.6672,6.95117 -14.2403,14.88378 -14.9904,12.42165 -49.1366,46.65926 -65.1604,65.334978 -60.0611,70.00112 -121.6112,163.28444 -181.2915,274.7598 -30.622,57.19799 -63.4481,128.53032 -78.4616,170.5 -2.6561,7.425 -5.25768,14.0625 -5.78126,14.75 -0.7387,0.96996 -11.89898,1.25 -49.81513,1.25 h -48.86317 z"
           id="path5083"
           inkscape:connector-curvature="0" />
      </g>
      <g
         id="g5094"
         transform="matrix(0.25509919,0,0,0.25509919,-32.647024,59.170524)">
        <path
           id="path5050"
           style="fill:#010101;stroke-width:0.56374806"
           d="m 47.568682,214.95817 c -1.217591,-0.61607 -9.369103,-10.5394 -13.910356,-16.93398 -1.856607,-2.61431 -2.267808,-2.28901 7.299126,-5.774 5.543086,-2.01921 7.406043,-2.48552 7.912853,-1.98071 0.364603,0.36333 2.819216,3.49604 5.454725,6.962 3.847662,5.06002 5.40282,6.64135 7.892478,8.0254 3.542036,1.96905 4.255076,3.62981 2.148606,5.00446 -1.420477,0.9269 -13.672437,5.42735 -14.738857,5.41386 -0.36183,-0.004 -1.288157,-0.32714 -2.058575,-0.71703 z M 15.445868,186.28813 c -4.10591,-1.62104 -8.5822617,-6.09164 -9.9470377,-9.93424 -2.211772,-5.52577 -1.138466,-9.51614 -0.07817,-14.13908 1.170057,-3.29436 4.28479,-6.99853 7.3752887,-8.77101 3.471393,-1.99091 20.113234,-7.89327 20.625755,-7.31532 0.482346,0.54391 12.165245,32.89147 12.165245,33.68305 0,0.26933 -4.058992,2.01211 -9.019969,3.87268 -7.654633,2.87085 -9.702641,3.41599 -13.52996,3.60166 -3.65007,0.1772 -5.097464,-0.0141 -7.591142,-0.99774 z m 82.287796,-8.12594 c -8.31619,-1.68684 -21.44626,-2.66263 -30.16055,-2.24138 -4.650917,0.22467 -9.435364,0.44794 -10.632072,0.49546 l -2.175875,0.087 -6.138507,-16.91246 c -3.376183,-9.30181 -6.138939,-17.05661 -6.139428,-17.23282 -5.12e-4,-0.17627 2.472531,-1.99782 5.495637,-4.048 7.129966,-4.8354 15.487003,-12.34122 21.845255,-19.6202 2.79053,-3.19466 5.75325,-6.5879 6.5838,-7.54052 1.16543,-1.33667 1.58028,-1.53902 1.81766,-0.88638 5.84737,16.0757 24.228866,67.08366 24.429426,67.79068 0.32245,1.13654 0.1584,1.14011 -4.925346,0.10905 z m 31.678226,-18.45157 c -1.65864,-0.8328 -2.33732,-1.49187 -2.1408,-2.07908 2.11279,-6.31364 2.65535,-9.22276 2.68369,-14.38966 0.047,-8.3227 -2.00482,-14.94031 -6.77911,-21.8795 -2.08327,-3.02794 -7.8545,-8.42596 -10.8171,-10.1176 -1.21762,-0.69522 -2.21577,-1.46273 -2.21812,-1.70555 -0.002,-0.24301 0.63947,-1.71214 1.4264,-3.26512 l 1.43082,-2.82352 2.93826,1.5676 c 1.6177,0.86307 5.35614,3.97735 8.31818,6.92943 4.17542,4.16146 5.89827,6.37155 7.69524,9.87187 2.46649,4.80436 4.45148,11.27456 4.69152,13.73024 1.02241,4.26811 0.47511,11.08643 0,14.85085 -0.26792,0.87431 -0.65391,3.56378 -1.44252,6.0603 -1.60835,5.09132 -1.84929,5.22664 -5.78646,3.24974 z m -13.03573,-6.35904 c -3.27339,-1.42029 -3.39851,-1.6546 -2.47406,-4.63173 0.53391,-1.71942 0.7466,-4.1687 0.60188,-6.93051 -0.35864,-6.83909 -3.50982,-12.52011 -9.37213,-16.89524 l -1.90368,-1.42072 1.50246,-2.9649 1.50245,-2.96496 2.30202,1.29235 c 2.82926,1.58838 7.97882,7.0615 9.55986,10.16055 3.87461,7.5949 4.52367,14.31164 2.21249,22.89491 -0.691,2.56599 -1.06373,2.70447 -3.93129,1.46025 z"
           inkscape:connector-curvature="0" />
        <g
           id="g5089"
           transform="matrix(0.15427096,0,0,0.15427096,7.6989505,109.07256)"
           style="fill:#34ca31;fill-opacity:1">
          <path
             style="fill:#34ca31;fill-opacity:1"
             d="m 207.55871,557.04765 c -10.28797,-20.38032 -33.70548,-53.5467 -68.35764,-96.81538 -17.07917,-21.32603 -43.724317,-53.22342 -58.711197,-70.28424 -3.76089,-4.28133 -6.83798,-8.21656 -6.83798,-8.74496 0,-1.06589 98.467977,-67.01891 101.078607,-67.70161 1.18123,-0.3089 3.29141,2.18714 7.52484,8.90077 18.90512,29.98085 39.86585,51.6546 58.03561,60.00981 5.50892,2.53322 8.54282,3.24257 15.39555,3.59961 6.60909,0.34434 8.8034,0.12076 9.72607,-0.99099 0.65532,-0.78961 4.86786,-8.60252 9.36122,-17.36202 23.83873,-46.47208 69.35876,-122.72202 106.21926,-177.92637 67.3403,-100.852581 123.2488,-165.101238 161.0085,-185.0270966 17.6387,-9.3079481 37.0948,-14.2485871 59.6504,-15.1474904 27.2121,-1.084482 45.0427,4.1947223 52.7386,15.6146294 2.9467,4.3727 2.9133,10.1180196 -0.096,16.5813996 -1.8808,4.03892 -4.6672,6.95117 -14.2403,14.88378 -14.9904,12.42165 -49.1366,46.65926 -65.1604,65.334978 -60.0611,70.00112 -121.6112,163.28444 -181.2915,274.7598 -30.622,57.19799 -63.4481,128.53032 -78.4616,170.5 -2.6561,7.425 -5.25768,14.0625 -5.78126,14.75 -0.7387,0.96996 -11.89898,1.25 -49.81513,1.25 h -48.86317 z"
             id="path5087"
             inkscape:connector-curvature="0" />
        </g>
      </g>
      <g
         id="g4303"
         transform="translate(-0.51002916,1.0182114)"
         inkscape:export-filename="/Users/sheraz/dev/playground/projects/azan_call/src/ui/images/salah_in_progress_a@4x.png"
         inkscape:export-xdpi="519.82001"
         inkscape:export-ydpi="519.82001">
        <circle
           r="25.018051"
           cy="96.928047"
           cx="152.70981"
           id="path4179"
           style="color:#000000;clip-rule:nonzero;display:inline;overflow:visible;visibility:visible;opacity:1;isolation:auto;mix-blend-mode:normal;color-interpolation:sRGB;color-interpolation-filters:linearRGB;solid-color:#000000;solid-opacity:1;fill:url(#linearGradient4189);fill-opacity:1;fill-rule:evenodd;stroke:none;stroke-width:0.73740727px;stroke-linecap:butt;stroke-linejoin:miter;stroke-miterlimit:4;stroke-dasharray:none;stroke-dashoffset:0;stroke-opacity:1;color-rendering:auto;image-rendering:auto;shape-rendering:auto;text-rendering:auto;enable-background:accumulate" />
        <path
           id="path4181"
           d="m 138.17283,96.783901 c 0.0107,0.001 0.0226,0.002 0.0337,0.002 0.14715,0 0.27407,-0.11036 0.29126,-0.26006 0.34693,-3.02309 1.77959,-3.62448 1.80797,-3.63588 0.15067,-0.056 0.22835,-0.22311 0.17359,-0.37468 -0.0551,-0.15247 -0.22317,-0.2316 -0.37565,-0.17635 -0.0732,0.0263 -1.79491,0.68611 -2.18899,4.12 -0.0186,0.1611 0.097,0.30666 0.25806,0.3251 z m 30.66105,15.123679 -2.88195,0 -0.87111,-13.835769 c -9.4e-4,-0.0156 -0.005,-0.0305 -0.007,-0.0452 l 1.0376,-0.38007 c 0.30315,-0.10822 0.54594,-0.32801 0.68369,-0.61893 0.13784,-0.29086 0.154,-0.61796 0.0458,-0.92089 l -0.2044,-0.57239 c -0.11906,-0.33332 -0.37682,-0.59007 -0.69391,-0.71526 -0.0283,-0.28022 -0.15206,-0.53924 -0.3559,-0.73846 -0.20572,-0.20107 -0.47191,-0.31985 -0.75497,-0.3396 -0.21165,-1.20622 -0.64067,-2.84666 -1.48361,-3.80084 0.58578,-0.13424 1.1449,-0.41936 1.61509,-0.85793 0.87933,-0.82015 1.27942,-2.04839 1.06149,-3.22873 l 0.75482,-1.50467 c 0.17934,-0.35757 0.0343,-0.79426 -0.32317,-0.97366 l -3.86043,-1.93619 c -0.10059,-0.0504 -0.21303,-0.0772 -0.32504,-0.0772 -0.27614,0 -0.52473,0.15337 -0.64861,0.40016 l -0.84516,1.68463 c -0.22697,0.13238 -0.4402,0.28892 -0.63321,0.46902 -1.33888,1.2489 -1.48783,3.30262 -0.39762,4.72781 -0.62285,0.27594 -3.00541,1.64679 -3.2984,6.55988 -0.23001,3.85747 -0.72196,14.887589 -0.80254,16.704309 l -3.75858,0 -0.76512,-12.151619 c -3.1e-4,-0.005 -0.002,-0.01 -0.002,-0.0145 l 0.88624,-0.32455 c 0.27566,-0.0984 0.4965,-0.29838 0.62182,-0.56292 0.12528,-0.26454 0.14004,-0.5621 0.0416,-0.83762 l -0.17988,-0.50402 c -0.10584,-0.29624 -0.33215,-0.52599 -0.61147,-0.64268 -0.0298,-0.24666 -0.14108,-0.47433 -0.3213,-0.65049 -0.17637,-0.17236 -0.40058,-0.27753 -0.64186,-0.30453 -0.1758,-1.04202 -0.5404,-2.44117 -1.28412,-3.29681 0.49905,-0.12506 0.97428,-0.37337 1.37645,-0.74847 0.7801,-0.72763 1.13655,-1.81577 0.94728,-2.86304 l 0.65925,-1.31428 c 0.16655,-0.33209 0.0319,-0.73771 -0.3001,-0.90433 l -3.39875,-1.70469 c -0.0936,-0.047 -0.19784,-0.0718 -0.30197,-0.0718 -0.2564,0 -0.48725,0.14239 -0.60243,0.37171 l -0.73935,1.47388 c -0.19867,0.1168 -0.38546,0.25426 -0.55478,0.41225 -1.18116,1.10196 -1.32195,2.90735 -0.3798,4.17469 -0.4291,0.20137 -1.56274,0.89079 -2.28324,2.77374 -0.20683,-0.59468 -0.48608,-1.16672 -0.86241,-1.59975 0.49911,-0.12506 0.97427,-0.37337 1.37644,-0.74847 0.7801,-0.72763 1.13655,-1.81577 0.94727,-2.86304 l 0.65926,-1.31428 c 0.16656,-0.33209 0.0319,-0.73771 -0.30011,-0.90433 l -3.39881,-1.70465 c -0.0936,-0.047 -0.19784,-0.0718 -0.30197,-0.0718 -0.2564,0 -0.48724,0.14239 -0.60242,0.37171 l -0.73943,1.47388 c -0.19867,0.1168 -0.38545,0.25426 -0.55478,0.41225 -1.18108,1.10181 -1.32189,2.90701 -0.38007,4.17428 -0.61029,0.28505 -2.63197,1.54369 -2.88498,5.78723 -0.22001,3.687459 -0.71167,14.818949 -0.71657,14.930959 -3.2e-4,0.007 6.4e-4,0.0141 0.001,0.0207 -3.1e-4,0.006 -0.002,0.0123 -0.002,0.0186 0,0.16214 0.13135,0.29348 0.29348,0.29348 l 32.24701,0 c 0.16214,0 0.29348,-0.13134 0.29348,-0.29348 0,-0.16214 -0.13134,-0.29348 -0.29348,-0.29348 z m -2.5462,-15.603399 c 0.0555,0.15537 0.0472,0.3231 -0.0235,0.47218 -0.0707,0.14916 -0.19516,0.26185 -0.35287,0.3182 l -3.56655,1.30642 c -0.0673,0.0241 -0.13728,0.0362 -0.20792,0.0362 -0.26039,0 -0.49408,-0.16484 -0.5817,-0.41018 -9.4e-4,-0.002 -0.001,-0.005 -0.002,-0.007 l -2.1294,-5.51413 c -0.0542,-0.15448 -0.0455,-0.32095 0.0247,-0.46915 0.0223,-0.0471 0.0504,-0.09 0.0827,-0.12906 l 1.16747,2.78914 c 0.0503,0.11988 0.17078,0.18893 0.2937,0.17933 0.0303,-0.002 0.0608,-0.01 0.0905,-0.0219 0.14943,-0.0626 0.21994,-0.23458 0.15738,-0.38414 l -1.18918,-2.84065 0.3202,-0.11442 c 0.0673,-0.0241 0.13729,-0.0362 0.20786,-0.0362 0.26047,0 0.49429,0.16483 0.58198,0.41017 0.001,0.004 0.002,0.006 0.004,0.01 l 1.61613,4.07684 c 0.0586,0.14785 0.22421,0.22215 0.37392,0.1674 l 2.13956,-0.78494 c 0.0673,-0.0241 0.13721,-0.0362 0.20779,-0.0362 0.26046,0 0.49434,0.1649 0.58205,0.41018 z m -1.1117,-1.80382 c 0.0717,0.0702 0.12403,0.15483 0.15455,0.24749 -0.0797,0.0119 -0.15883,0.0303 -0.23679,0.058 l -0.10679,0.0391 c -0.0145,-0.13708 -0.0342,-0.3037 -0.0602,-0.49318 0.0927,0.0286 0.17789,0.0788 0.24922,0.14853 z m -2.90563,-12.55164 c 0.0214,0 0.0421,0.005 0.0619,0.0149 l 3.86052,1.93627 c 0.0682,0.0342 0.0959,0.11763 0.0617,0.18582 l -0.67182,1.33929 -4.18347,-1.91015 0.16801,-0.33478 1.33522,0.64157 c 0.041,0.0197 0.0843,0.029 0.12692,0.029 0.10929,0 0.21427,-0.0614 0.26474,-0.16641 0.0702,-0.14612 0.008,-0.32144 -0.13741,-0.39167 l -1.32618,-0.63729 0.31614,-0.63005 c 0.0281,-0.0564 0.0825,-0.0764 0.12381,-0.0764 z m -1.72647,2.39602 c 0.1455,-0.13577 0.30458,-0.25557 0.47336,-0.35894 l 4.43972,2.02706 c 0.16055,0.9682 -0.17428,1.96844 -0.89452,2.64012 -1.188,1.10783 -3.05568,1.04299 -4.1635,-0.14474 -1.1079,-1.18778 -1.04292,-3.05547 0.14494,-4.1635 z m -3.51054,10.89346 c 0.15993,-2.68162 0.98208,-4.19748 1.6436,-4.99699 0.6393,-0.77278 1.1965,-1.02185 1.47555,-1.15181 0.67271,0.62418 1.53594,0.94058 2.40168,0.94058 0.0107,0 0.0213,-6.3e-4 0.0319,-6.3e-4 1.40904,1.02904 1.76342,4.1584 1.83537,5.02329 l -1.20119,0.4407 -1.50908,-3.80664 c -0.1723,-0.47557 -0.62681,-0.79467 -1.13283,-0.79467 -0.13797,0 -0.27442,0.0237 -0.40528,0.0704 l -0.57218,0.2044 c -0.30307,0.1081 -0.54587,0.32793 -0.68362,0.61886 -0.13776,0.29084 -0.15393,0.61796 -0.0457,0.92111 9.4e-4,0.002 0.001,0.005 0.002,0.007 l 2.12955,5.51453 c 0.17187,0.47627 0.62673,0.79598 1.13317,0.79598 0.1381,0 0.27455,-0.0237 0.40761,-0.0714 l 1.95858,-0.71746 0.77981,12.386399 -3.53187,0 c -0.16214,0 -0.29348,0.13134 -0.29348,0.29347 0,0.16215 0.13134,0.29348 0.29348,0.29348 l 3.56882,0 0.044,0.69876 -6.07477,0 0.0579,-3.93074 c 0.002,-0.16207 -0.12713,-0.29534 -0.2892,-0.29782 -0.001,0 -0.002,0 -0.005,0 -0.16006,0 -0.29099,0.1285 -0.29341,0.28919 l -0.058,3.93937 -0.94161,0 0.23775,-7.29737 c 0.005,-0.16206 -0.1218,-0.29762 -0.28374,-0.30294 -0.16303,-0.002 -0.29761,0.12182 -0.30293,0.28374 l -0.23838,7.3165 -0.94064,0 c 0.084,-1.89179 0.57224,-12.833729 0.80095,-16.669239 z m -4.91765,2.97552 c 0.0458,0.12802 0.0388,0.26613 -0.0193,0.3889 -0.0582,0.12285 -0.16076,0.21573 -0.29106,0.26227 l -3.13987,1.150079 c -0.0555,0.0198 -0.1131,0.0299 -0.17125,0.0299 -0.21441,0 -0.40694,-0.135759 -0.47909,-0.337809 -9.5e-4,-0.002 -0.001,-0.005 -0.002,-0.007 l -1.87453,-4.85411 c -0.0446,-0.1272 -0.0373,-0.26406 0.0205,-0.38601 0.0127,-0.0269 0.028,-0.0521 0.0447,-0.0759 l 0.95342,2.37433 c 0.0485,0.12064 0.16802,0.19142 0.29106,0.18355 0.0303,-0.002 0.0609,-0.008 0.0907,-0.0206 0.1504,-0.0604 0.22333,-0.23134 0.16297,-0.38174 l -0.97944,-2.4391 0.22897,-0.0819 c 0.0555,-0.0198 0.11323,-0.0299 0.17119,-0.0299 0.21447,0 0.40713,0.13584 0.47929,0.33795 9.5e-4,0.004 0.002,0.006 0.004,0.01 l 1.42284,3.58933 c 0.0586,0.14785 0.22422,0.22208 0.37393,0.16738 l 1.4149,-0.51914 c 0.0441,-0.006 0.0845,-0.0211 0.11982,-0.044 l 0.34864,-0.12789 c 0.0555,-0.0198 0.1131,-0.0299 0.17111,-0.0299 0.21456,0 0.40728,0.13583 0.47937,0.33782 z m -0.9702,-1.57478 c 0.0489,0.0477 0.0869,0.1037 0.11275,0.16471 -0.058,0.0107 -0.11573,0.0259 -0.17279,0.0462 l -0.0455,0.0167 c -0.01,-0.0952 -0.0207,-0.20448 -0.0354,-0.32546 0.0514,0.0242 0.099,0.0568 0.14094,0.0978 z m -2.53364,-11.04068 c 0.0132,0 0.0263,0.004 0.0387,0.01 l 3.39887,1.70472 c 0.0428,0.0215 0.0601,0.0737 0.0386,0.11656 l -0.57632,1.14892 -3.61929,-1.65259 0.11608,-0.23133 1.14443,0.54994 c 0.041,0.0197 0.0843,0.029 0.12692,0.029 0.10929,0 0.21421,-0.0614 0.26475,-0.16642 0.0702,-0.14612 0.008,-0.32144 -0.13742,-0.39168 l -1.13537,-0.54559 0.26226,-0.52266 c 0.0176,-0.0356 0.0517,-0.0483 0.0777,-0.0483 z m -1.49612,2.09999 c 0.12182,-0.1137 0.25433,-0.21462 0.39485,-0.30218 l 3.87563,1.76957 c 0.1321,0.83506 -0.15945,1.69533 -0.78031,2.27442 -1.03158,0.96232 -2.65386,0.90577 -3.61598,-0.12561 -0.96226,-1.03167 -0.90584,-2.65381 0.12581,-3.6162 z m -2.76979,7.52359 c 0.65738,-2.50989 2.13803,-3.21651 2.40202,-3.32369 0.59538,0.54076 1.35344,0.81497 2.11372,0.81497 0.006,0 0.0119,-3.1e-4 0.0173,-3.1e-4 1.20685,0.89403 1.5218,3.57233 1.58947,4.36348 l -1.0003,0.36696 -1.31582,-3.31913 c -0.15682,-0.43228 -0.57018,-0.72231 -1.03021,-0.72231 -0.12553,0 -0.24956,0.0216 -0.36867,0.0641 l -0.50375,0.17988 c -0.27559,0.0984 -0.49642,0.29825 -0.62176,0.56286 -0.12532,0.26455 -0.1401,0.5621 -0.0416,0.83775 9.4e-4,0.002 0.001,0.005 0.002,0.007 l 1.87481,4.85482 c 0.1564,0.432959 0.57004,0.723529 1.03049,0.723529 0.12561,0 0.24969,-0.0216 0.37095,-0.065 l 1.6802,-0.615399 0.68136,10.820949 -3.07219,0 c -0.16214,0 -0.29348,0.13134 -0.29348,0.29348 0,0.16214 0.13134,0.29348 0.29348,0.29348 l 3.10914,0 0.0346,0.54822 -5.85174,0 -0.76408,-12.167359 0.88272,-0.32339 c 0.27565,-0.0984 0.49649,-0.29838 0.62182,-0.56292 0.12526,-0.26454 0.14004,-0.5621 0.0416,-0.83762 l -0.17988,-0.50402 c -0.10608,-0.29672 -0.33291,-0.52688 -0.613,-0.6433 -0.0349,-0.24804 -0.16648,-0.4851 -0.37316,-0.6643 -0.16835,-0.14598 -0.37468,-0.2443 -0.5875,-0.28353 -0.0361,-0.21524 -0.0804,-0.44574 -0.13445,-0.6837 10e-4,-0.006 0.004,-0.0107 0.006,-0.0156 z m -4.62743,-0.76194 c 0.0206,-0.0434 0.047,-0.0828 0.0777,-0.11799 l 0.8854,2.37054 c 0.0455,0.1218 0.16325,0.19548 0.28638,0.19066 0.0304,-10e-4 0.0611,-0.007 0.0912,-0.0184 0.15186,-0.0567 0.22892,-0.22581 0.1723,-0.37766 l -0.90468,-2.42267 0.18417,-0.0658 c 0.0555,-0.0198 0.11322,-0.0299 0.17118,-0.0299 0.21455,0 0.40714,0.13582 0.47938,0.33794 0.001,0.004 0.002,0.006 0.004,0.01 l 1.42285,3.58933 c 0.0588,0.14785 0.22415,0.22208 0.37392,0.16739 l 1.41497,-0.51915 c 0.044,-0.006 0.0845,-0.0211 0.11975,-0.044 l 0.34865,-0.12788 c 0.0555,-0.0198 0.1131,-0.0299 0.17118,-0.0299 0.21455,0 0.40721,0.13584 0.47938,0.33781 l 0.17987,0.50403 c 0.0458,0.12802 0.0388,0.26613 -0.0193,0.3889 -0.0582,0.12284 -0.16076,0.21572 -0.29106,0.26226 l -3.13987,1.150089 c -0.0555,0.0198 -0.1131,0.0299 -0.17118,0.0299 -0.21434,0 -0.40693,-0.135759 -0.47909,-0.337809 -9.5e-4,-0.002 -0.001,-0.005 -0.002,-0.007 l -1.8746,-4.85412 c -0.0445,-0.12713 -0.0372,-0.26399 0.0205,-0.38594 z m 4.84978,2.11193 c 0.0388,0.0218 0.0759,0.0471 0.10953,0.0763 0.0379,0.0329 0.0899,0.0871 0.12851,0.15813 -0.054,0.0107 -0.10774,0.0247 -0.1609,0.0436 l -0.0455,0.0167 c -0.008,-0.0871 -0.0187,-0.18589 -0.0317,-0.29472 z m -2.39644,-10.97357 c 0.0132,0 0.0263,0.004 0.0387,0.01 l 3.39889,1.70472 c 0.0428,0.0215 0.0601,0.0737 0.0386,0.11656 l -0.57632,1.14892 -3.61931,-1.65266 0.11609,-0.23133 1.14441,0.54994 c 0.041,0.0197 0.0844,0.029 0.12692,0.029 0.10929,0 0.21428,-0.0614 0.26476,-0.16641 0.0702,-0.14612 0.008,-0.32144 -0.13742,-0.39168 l -1.13538,-0.54558 0.26226,-0.52267 c 0.0178,-0.0355 0.0519,-0.0482 0.0777,-0.0482 z m -1.49611,2.09999 c 0.12181,-0.1137 0.25432,-0.21462 0.39491,-0.30218 l 3.87556,1.76957 c 0.1321,0.83506 -0.15945,1.69533 -0.7803,2.27442 -1.03165,0.96232 -2.65387,0.90577 -3.61599,-0.12561 -0.96226,-1.03167 -0.90585,-2.65381 0.12582,-3.6162 z m -3.07964,9.5673 c 0.13997,-2.34797 0.85791,-3.67503 1.43541,-4.3749 0.5132,-0.62189 1.09263,-0.91039 1.27776,-0.9914 0.59517,0.54008 1.3527,0.81387 2.11249,0.81387 0.006,0 0.0119,-3.1e-4 0.0173,-3.1e-4 1.20692,0.89403 1.5218,3.57233 1.58954,4.36348 l -1.00038,0.36696 -1.31581,-3.31913 c -0.15682,-0.43228 -0.57018,-0.72231 -1.03021,-0.72231 -0.12554,0 -0.24956,0.0216 -0.36867,0.0641 l -0.50375,0.17988 c -0.27559,0.0984 -0.4965,0.29825 -0.62176,0.56286 -0.12534,0.26455 -0.1401,0.5621 -0.0416,0.83775 9.4e-4,0.002 0.001,0.005 0.002,0.007 l 1.8748,4.85482 c 0.1564,0.432959 0.57003,0.723529 1.03048,0.723529 0.12562,0 0.2497,-0.0216 0.37096,-0.065 l 1.68221,-0.616159 0.67956,10.821709 -3.07232,0 c -0.16214,0 -0.29348,0.13134 -0.29348,0.29348 0,0.16214 0.13134,0.29348 0.29348,0.29348 l 3.10927,0 0.0344,0.54822 -5.27569,0 0.0505,-3.42823 c 0.002,-0.16207 -0.12714,-0.29534 -0.2892,-0.29783 -0.16207,-0.001 -0.29535,0.12713 -0.29784,0.2892 l -0.0506,3.43686 -0.7582,0 0.20826,-6.39167 c 0.005,-0.16206 -0.12182,-0.29761 -0.28374,-0.30293 -0.004,-7e-5 -0.006,-1.4e-4 -0.009,-1.4e-4 -0.15758,0 -0.28795,0.12519 -0.29314,0.28388 l -0.20881,6.41079 -0.75753,0 c 0.078,-1.757 0.50355,-11.28728 0.7036,-14.641959 z m 20.13661,-2.6116 c 0.0119,10e-4 0.0226,0.002 0.0337,0.002 0.14715,0 0.27408,-0.11037 0.29127,-0.26006 0.39775,-3.466 2.04924,-4.15067 2.07885,-4.16241 0.15089,-0.0559 0.22871,-0.22318 0.17395,-0.37489 -0.0551,-0.1524 -0.22318,-0.23112 -0.37573,-0.17629 -0.0821,0.0297 -2.01546,0.7707 -2.46022,4.64668 -0.0185,0.1611 0.0971,0.30659 0.25812,0.3251 z"
           inkscape:connector-curvature="0"
           style="fill:#ffffff;fill-opacity:1;stroke-width:0.05793817" />
      </g>
      <g
         id="g4267"
         transform="translate(52.791546,2.126297)"
         inkscape:export-filename="/Users/sheraz/dev/playground/projects/azan_call/src/ui/images/azan_called@4x.png"
         inkscape:export-xdpi="519.82001"
         inkscape:export-ydpi="519.82001">
        <circle
           style="color:#000000;clip-rule:nonzero;display:inline;overflow:visible;visibility:visible;opacity:1;isolation:auto;mix-blend-mode:normal;color-interpolation:sRGB;color-interpolation-filters:linearRGB;solid-color:#000000;solid-opacity:1;fill:url(#linearGradient4222);fill-opacity:1;fill-rule:evenodd;stroke:none;stroke-width:0.73740727px;stroke-linecap:butt;stroke-linejoin:miter;stroke-miterlimit:4;stroke-dasharray:none;stroke-dashoffset:0;stroke-opacity:1;color-rendering:auto;image-rendering:auto;shape-rendering:auto;text-rendering:auto;enable-background:accumulate"
           id="circle4220"
           cx="42.910492"
           cy="95.819962"
           r="25.018051" />
        <path
           id="path4224"
           style="fill:#ffffff;fill-opacity:1;stroke-width:0.11993857"
           d="m 36.511466,111.13593 c -0.336645,-0.17034 -2.590415,-2.914 -3.846004,-4.68201 -0.513324,-0.7228 -0.627015,-0.63287 2.018099,-1.59641 1.532579,-0.55828 2.047659,-0.68721 2.187785,-0.54763 0.100807,0.10045 0.779471,0.9666 1.508149,1.92487 1.063821,1.39902 1.493799,1.83625 2.182152,2.2189 0.979321,0.54443 1.176466,1.00361 0.594057,1.38366 -0.39274,0.25629 -3.780224,1.5006 -4.075073,1.49687 -0.10004,-0.001 -0.356156,-0.0904 -0.569165,-0.19825 z m -8.881476,-7.92684 c -1.135222,-0.44819 -2.372867,-1.68424 -2.750207,-2.74667 -0.611522,-1.527797 -0.314769,-2.631085 -0.02161,-3.909257 0.323504,-0.910843 1.184681,-1.934993 2.039157,-2.425054 0.959789,-0.550455 5.561008,-2.18237 5.702713,-2.022581 0.133361,0.150382 3.363507,9.094012 3.363507,9.312882 0,0.0745 -1.12225,0.55631 -2.493885,1.07073 -2.116392,0.79375 -2.682635,0.94448 -3.740832,0.99581 -1.00919,0.049 -1.409372,-0.004 -2.098837,-0.27586 z m 22.751337,-2.2467 c -2.299297,-0.46639 -5.929563,-0.73618 -8.338935,-0.61972 -1.285909,0.0622 -2.608737,0.1238 -2.939608,0.13699 l -0.601597,0.024 -1.697206,-4.67605 c -0.933464,-2.571818 -1.697323,-4.715903 -1.697458,-4.764622 -1.42e-4,-0.04872 0.683616,-0.55237 1.51946,-1.119215 1.971329,-1.336907 4.281924,-3.412155 6.039885,-5.424691 0.771542,-0.883278 1.59069,-1.821456 1.820323,-2.084838 0.322224,-0.369577 0.436924,-0.425513 0.502555,-0.245075 1.616711,4.4447 6.698918,18.547641 6.75437,18.743131 0.08914,0.31423 0.04383,0.31522 -1.361789,0.0301 z m 8.758559,-5.101594 c -0.458585,-0.230258 -0.646228,-0.412492 -0.591899,-0.574839 0.584164,-1.745636 0.734168,-2.549956 0.741998,-3.978528 0.01261,-2.301105 -0.554297,-4.130771 -1.874315,-6.049358 -0.576,-0.83718 -2.171656,-2.329648 -2.990774,-2.797357 -0.336644,-0.19222 -0.612617,-0.404429 -0.613277,-0.471569 -5.89e-4,-0.06715 0.176814,-0.473382 0.394389,-0.902748 l 0.395598,-0.78066 0.812378,0.433411 c 0.447279,0.23863 1.480892,1.099681 2.29985,1.915888 1.15445,1.150574 1.630784,1.761637 2.127625,2.729416 0.681945,1.328337 1.230763,3.117255 1.297138,3.796212 0.282683,1.180076 0.131359,3.065236 0,4.106036 -0.07404,0.241739 -0.180792,0.98534 -0.398838,1.675585 -0.444687,1.407677 -0.511304,1.445091 -1.599873,0.898511 z m -3.604187,-1.75819 c -0.905034,-0.392686 -0.939632,-0.457465 -0.684035,-1.280601 0.147617,-0.475397 0.206428,-1.152588 0.16641,-1.916177 -0.0991,-1.890909 -0.970412,-3.461627 -2.591258,-4.671288 l -0.526325,-0.392805 0.415402,-0.81976 0.415403,-0.81976 0.636472,0.357316 c 0.782251,0.439162 2.206029,1.952401 2.643158,2.809245 1.071274,2.099878 1.250733,3.956956 0.611717,6.330092 -0.191041,0.709462 -0.294106,0.747747 -1.086944,0.403738 z"
           inkscape:connector-curvature="0" />
      </g>
      <g
         id="g4257"
         transform="translate(-32.185842,-63.353455)"
         inkscape:export-filename="/Users/sheraz/dev/playground/projects/azan_call/src/ui/images/azan_not_called@4x.png"
         inkscape:export-xdpi="519.82001"
         inkscape:export-ydpi="519.82001">
        <circle
           r="65.368675"
           cy="429.78314"
           cx="397.78342"
           id="circle4247"
           style="color:#000000;clip-rule:nonzero;display:inline;overflow:visible;visibility:visible;opacity:1;isolation:auto;mix-blend-mode:normal;color-interpolation:sRGB;color-interpolation-filters:linearRGB;solid-color:#000000;solid-opacity:1;fill:url(#linearGradient4249);fill-opacity:1;fill-rule:evenodd;stroke:none;stroke-width:0.73740727px;stroke-linecap:butt;stroke-linejoin:miter;stroke-miterlimit:4;stroke-dasharray:none;stroke-dashoffset:0;stroke-opacity:1;color-rendering:auto;image-rendering:auto;shape-rendering:auto;text-rendering:auto;enable-background:accumulate"
           transform="matrix(0.38272232,0,0,0.38272232,-80.850458,-3.1878878)" />
        <path
           inkscape:connector-curvature="0"
           d="m 65.121103,175.50761 c -0.336645,-0.17034 -2.590415,-2.914 -3.846004,-4.68201 -0.513324,-0.7228 -0.627015,-0.63287 2.018099,-1.59641 1.532579,-0.55828 2.047659,-0.68721 2.187785,-0.54763 0.100807,0.10045 0.779471,0.9666 1.508149,1.92487 1.063821,1.39902 1.493799,1.83625 2.182152,2.2189 0.979321,0.54443 1.176466,1.00361 0.594057,1.38366 -0.39274,0.25629 -3.780224,1.5006 -4.075073,1.49687 -0.10004,-0.001 -0.356156,-0.0904 -0.569165,-0.19825 z m -8.881476,-7.92684 c -1.135222,-0.44819 -2.372867,-1.68424 -2.750207,-2.74667 -0.611522,-1.52779 -0.314769,-2.63108 -0.02161,-3.90925 0.323504,-0.91085 1.184681,-1.935 2.039157,-2.42506 0.959789,-0.55045 5.561008,-2.18237 5.702713,-2.02258 0.133361,0.15038 3.363507,9.09401 3.363507,9.31288 0,0.0745 -1.12225,0.55631 -2.493885,1.07073 -2.116392,0.79375 -2.682635,0.94448 -3.740832,0.99581 -1.00919,0.049 -1.409372,-0.004 -2.098837,-0.27586 z m 22.751337,-2.2467 c -2.299297,-0.46639 -5.929563,-0.73618 -8.338935,-0.61972 -1.285909,0.0622 -2.608737,0.1238 -2.939608,0.13699 l -0.601597,0.024 -1.697206,-4.67605 c -0.933464,-2.57181 -1.697323,-4.7159 -1.697458,-4.76462 -1.42e-4,-0.0487 0.683616,-0.55237 1.51946,-1.11921 1.971329,-1.33691 4.281924,-3.41216 6.039885,-5.42469 0.771542,-0.88328 1.59069,-1.82146 1.820323,-2.08484 0.322224,-0.36958 0.436924,-0.42552 0.502555,-0.24508 1.616711,4.4447 6.698918,18.54764 6.75437,18.74313 0.08914,0.31423 0.04383,0.31522 -1.361789,0.0301 z m 8.758559,-5.10159 c -0.458585,-0.23026 -0.646228,-0.41249 -0.591899,-0.57484 0.584164,-1.74564 0.734168,-2.54996 0.741998,-3.97853 0.01261,-2.3011 -0.554297,-4.13077 -1.874315,-6.04936 -0.576,-0.83718 -2.171656,-2.32964 -2.990774,-2.79735 -0.336644,-0.19222 -0.612617,-0.40443 -0.613277,-0.47157 -5.89e-4,-0.0671 0.176814,-0.47338 0.394389,-0.90275 l 0.395598,-0.78066 0.812378,0.43341 c 0.447279,0.23863 1.480892,1.09968 2.29985,1.91589 1.15445,1.15057 1.630784,1.76164 2.127625,2.72942 0.681945,1.32833 1.230763,3.11725 1.297138,3.79621 0.282683,1.18007 0.131359,3.06523 0,4.10603 -0.07404,0.24174 -0.180792,0.98534 -0.398838,1.67559 -0.444687,1.40768 -0.511304,1.44509 -1.599873,0.89851 z m -3.604187,-1.75819 c -0.905034,-0.39269 -0.939632,-0.45747 -0.684035,-1.2806 0.147617,-0.4754 0.206428,-1.15259 0.16641,-1.91618 -0.0991,-1.89091 -0.970412,-3.46163 -2.591258,-4.67129 l -0.526325,-0.3928 0.415402,-0.81976 0.415403,-0.81976 0.636472,0.35731 c 0.782251,0.43917 2.206029,1.95241 2.643158,2.80925 1.071274,2.09988 1.250733,3.95696 0.611717,6.33009 -0.191041,0.70946 -0.294106,0.74775 -1.086944,0.40374 z"
           style="fill:#ffffff;fill-opacity:1;stroke-width:0.11993857"
           id="path4251" />
      </g>
      <g
         id="g4307"
         inkscape:export-filename="/Users/sheraz/dev/playground/projects/azan_call/src/ui/images/salah_in_progress_b@1x.png"
         inkscape:export-xdpi="129.95"
         inkscape:export-ydpi="129.95">
        <circle
           style="color:#000000;clip-rule:nonzero;display:inline;overflow:visible;visibility:visible;opacity:1;isolation:auto;mix-blend-mode:normal;color-interpolation:sRGB;color-interpolation-filters:linearRGB;solid-color:#000000;solid-opacity:1;fill:url(#linearGradient4273);fill-opacity:1;fill-rule:evenodd;stroke:none;stroke-width:0.73740727px;stroke-linecap:butt;stroke-linejoin:miter;stroke-miterlimit:4;stroke-dasharray:none;stroke-dashoffset:0;stroke-opacity:1;color-rendering:auto;image-rendering:auto;shape-rendering:auto;text-rendering:auto;enable-background:accumulate"
           id="circle4271"
           cx="208.69749"
           cy="97.946259"
           r="25.018051" />
        <path
           style="fill:#ffffff;fill-opacity:1;stroke-width:0.06812304"
           inkscape:connector-curvature="0"
           d="m 220.3478,109.28637 c -0.003,-0.005 -0.005,-0.009 -0.008,-0.0121 l -1.99695,-2.78963 c -0.0899,-0.12543 -0.21512,-0.22131 -0.35977,-0.27514 l -3.4181,-1.27248 c -5.52304,-4.45998 -7.29145,-8.686772 -8.28983,-12.236712 -0.26913,-0.95715 -0.73088,-1.71076 -1.28911,-2.30019 l -0.002,-0.78678 c -4e-4,-0.0431 0.0168,-0.078 0.0514,-0.10359 0.0349,-0.0256 0.0728,-0.0322 0.11436,-0.0191 l 1.17506,0.37257 c 0.37493,0.1189 0.77933,-0.062 0.94072,-0.42041 1.75332,-3.89369 0.17006,-8.78647 0.10177,-8.9929 -0.0902,-0.27277 -0.32402,-0.47322 -0.60732,-0.52084 -4.41906,-0.74328 -7.7416,2.33119 -7.88077,2.46241 -0.23939,0.22565 -0.31028,0.57776 -0.17678,0.87842 l 1.63492,3.68281 0,1.55744 c -0.1929,0.0394 -0.36606,0.1503 -0.48085,0.31513 -0.17172,0.24651 -4.16169,6.12714 -2.00863,15.977182 -0.0754,0.71218 -0.26522,3.75896 1.69568,5.54018 -0.24404,0.20901 -0.56961,0.38083 -1.0676,0.48354 -1.59092,0.32834 -2.37583,1.49999 -2.09956,3.13419 0.14682,0.86871 0.89444,1.49915 1.77772,1.49915 l 0.47846,0 c 0.42806,0 0.77491,-0.34693 0.77491,-0.77489 0,-0.42794 -0.34685,-0.77489 -0.77491,-0.77489 l -0.47846,0 c -0.10768,0 -0.20074,-0.0657 -0.23692,-0.16158 0.0106,-0.0302 0.0203,-0.0611 0.0273,-0.0933 0.0802,-0.0302 0.33942,-0.0898 1.00541,0.0106 0.62549,0.0945 1.35761,0.29001 2.06555,0.47909 0.29684,0.0792 0.58541,0.15622 0.85972,0.22409 l -0.24889,0.66363 c -0.0892,0.23795 -0.0561,0.5045 0.0886,0.71342 0.14469,0.2089 0.38268,0.33351 0.63686,0.33351 2.24636,0 6.08963,-0.0654 9.5284,-0.24982 6.58836,-0.35335 7.34332,-0.90364 7.66567,-1.13869 2.26889,-1.65352 1.52934,-4.23928 0.82118,-5.37549 -0.006,-0.0106 -0.0137,-0.0191 -0.0199,-0.0288 z m -2.4905,-0.81849 -0.52611,-0.13028 c -0.24858,-0.0616 -0.50379,-0.0817 -0.75939,-0.0599 l -0.46401,0.0397 -2.10223,-0.84081 0.51545,-0.9026 2.69993,1.00509 z m -11.75525,-20.301402 -0.48344,-0.15323 c -0.51173,-0.16231 -1.07411,-0.0684 -1.50505,0.25076 -0.33186,0.24569 -0.55813,0.60513 -0.64223,0.9994 -0.5323,-0.27988 -1.0769,-0.47072 -1.58368,-0.59211 l 0,-1.88301 c 0,-0.10829 -0.0228,-0.21541 -0.0667,-0.31439 l -0.17719,-0.39912 c 0.26936,-0.24477 2.0701,-1.79486 4.82759,-2.19625 0.1271,1.30347 0.10617,2.86132 -0.36926,4.28795 z m -0.0743,-6.77186 c 0.0631,0.23939 0.14135,0.56402 0.21749,0.95054 -2.59673,0.37743 -4.44139,1.60868 -5.25628,2.25443 l -0.63096,-1.42137 c 0.8717,-0.66217 3.02953,-2.03518 5.66975,-1.7836 z m -6.55198,12.26141 c 0.48601,-1.78483 1.10591,-3.01052 1.43116,-3.58073 0.93938,0.11556 3.20146,0.64316 3.87686,3.0445 1.03918,3.69491 2.85574,8.074922 8.39261,12.683692 l -0.61227,1.07203 c -1.71551,-0.81735 -6.74726,-3.63859 -10.15018,-9.917912 -0.14029,-0.25893 -0.40676,-0.40584 -0.68201,-0.40584 -0.12467,0 -0.25117,0.0302 -0.36844,0.0937 -0.37628,0.20385 -0.51598,0.67416 -0.31213,1.05045 1.08786,2.00738 2.32252,3.679922 3.57,5.062232 -2.38141,0.0137 -4.33673,0.56133 -5.41599,0.94444 -0.82676,-4.398092 -0.32402,-7.863532 0.27039,-10.046672 z m 1.94042,18.991222 c -0.69513,-0.18567 -1.37465,-0.367 -2.00159,-0.47817 1.13846,-0.40572 1.63192,-1.13423 1.97359,-1.64143 0.0942,-0.13984 0.2364,-0.35097 0.29549,-0.38352 0.14848,-0.0214 0.7435,0.5977 1.15791,1.6498 l -0.41741,1.11306 c -0.30883,-0.0731 -0.65226,-0.16469 -1.00799,-0.25974 z m 17.2194,0.78998 c -0.12922,0.0872 -1.06925,0.53778 -6.89058,0.84752 -2.87558,0.15302 -6.03084,0.22245 -8.27225,0.24012 l 1.3103,-3.49406 c 0.8776,-0.12649 3.34547,-0.36016 8.27876,-0.0159 0.42961,0.029 0.79722,-0.29218 0.82697,-0.71909 0.0299,-0.42693 -0.29209,-0.79711 -0.719,-0.82698 -6.7112,-0.46823 -9.05149,0.10086 -9.14779,0.12528 -0.17852,0.0452 -0.33205,0.1525 -0.43723,0.29839 -0.63976,-0.95603 -1.35018,-1.38914 -2.11268,-1.28355 -0.42971,0.0592 -0.72913,0.26802 -0.96159,0.5162 -1.13218,-1.10924 -1.18466,-2.98862 -1.14446,-3.82582 0.98338,-0.38156 3.67857,-1.26152 6.86969,-0.90755 3.21777,2.97269 6.13034,4.10445 6.37675,4.19682 l 3.0907,1.23632 c 0.11224,0.0449 0.23319,0.0628 0.35398,0.0526 l 0.64729,-0.0555 c 0.0857,-0.008 0.17099,-4.1e-4 0.25427,0.02 l 2.23344,0.55317 c 0.29209,0.607 0.78781,2.06225 -0.55657,3.04202 z"
           id="path4275" />
      </g>
      <g
         id="g4291"
         transform="translate(-26.504214,-11.386219)"
         inkscape:export-filename="/Users/sheraz/dev/playground/projects/azan_call/src/ui/images/salah_in_progress_c@1x.png"
         inkscape:export-xdpi="129.95"
         inkscape:export-ydpi="129.95">
        <circle
           style="color:#000000;clip-rule:nonzero;display:inline;overflow:visible;visibility:visible;opacity:1;isolation:auto;mix-blend-mode:normal;color-interpolation:sRGB;color-interpolation-filters:linearRGB;solid-color:#000000;solid-opacity:1;fill:url(#linearGradient4284);fill-opacity:1;fill-rule:evenodd;stroke:none;stroke-width:0.73740727px;stroke-linecap:butt;stroke-linejoin:miter;stroke-miterlimit:4;stroke-dasharray:none;stroke-dashoffset:0;stroke-opacity:1;color-rendering:auto;image-rendering:auto;shape-rendering:auto;text-rendering:auto;enable-background:accumulate"
           id="circle4282"
           cx="394.49823"
           cy="435.72943"
           r="65.368675"
           transform="matrix(0.38272232,0,0,0.38272232,-80.850458,-3.1878878)" />
        <path
           style="fill:#ffffff;fill-opacity:1;stroke-width:0.05793817"
           inkscape:connector-curvature="0"
           d="m 55.595013,163.43135 c 0.0107,0.001 0.0226,0.002 0.0337,0.002 0.14715,0 0.27407,-0.11036 0.29126,-0.26006 0.34693,-3.02309 1.77959,-3.62448 1.80797,-3.63588 0.15067,-0.056 0.22835,-0.22311 0.17359,-0.37468 -0.0551,-0.15247 -0.22317,-0.2316 -0.37565,-0.17635 -0.0732,0.0263 -1.79491,0.68611 -2.18899,4.12 -0.0186,0.1611 0.097,0.30666 0.25806,0.3251 z m 30.66105,15.12368 -2.88195,0 -0.87111,-13.83577 c -9.4e-4,-0.0156 -0.005,-0.0305 -0.007,-0.0452 l 1.0376,-0.38007 c 0.30315,-0.10822 0.54594,-0.32801 0.68369,-0.61893 0.13784,-0.29086 0.154,-0.61796 0.0458,-0.92089 l -0.2044,-0.57239 c -0.11906,-0.33332 -0.37682,-0.59007 -0.69391,-0.71526 -0.0283,-0.28022 -0.15206,-0.53924 -0.3559,-0.73846 -0.20572,-0.20107 -0.47191,-0.31985 -0.75497,-0.3396 -0.21165,-1.20622 -0.64067,-2.84666 -1.48361,-3.80084 0.58578,-0.13424 1.1449,-0.41936 1.61509,-0.85793 0.87933,-0.82015 1.27942,-2.04839 1.06149,-3.22873 l 0.75482,-1.50467 c 0.17934,-0.35757 0.0343,-0.79426 -0.32317,-0.97366 l -3.86043,-1.93619 c -0.10059,-0.0504 -0.21303,-0.0772 -0.32504,-0.0772 -0.27614,0 -0.52473,0.15337 -0.64861,0.40016 l -0.84516,1.68463 c -0.22697,0.13238 -0.4402,0.28892 -0.63321,0.46902 -1.33888,1.2489 -1.48783,3.30262 -0.39762,4.72781 -0.62285,0.27594 -3.00541,1.64679 -3.2984,6.55988 -0.23001,3.85747 -0.72196,14.88759 -0.80254,16.70431 l -3.75858,0 -0.76512,-12.15162 c -3.1e-4,-0.005 -0.002,-0.01 -0.002,-0.0145 l 0.88624,-0.32455 c 0.27566,-0.0984 0.4965,-0.29838 0.62182,-0.56292 0.12528,-0.26454 0.14004,-0.5621 0.0416,-0.83762 l -0.17988,-0.50402 c -0.10584,-0.29624 -0.33215,-0.52599 -0.61147,-0.64268 -0.0298,-0.24666 -0.14108,-0.47433 -0.3213,-0.65049 -0.17637,-0.17236 -0.40058,-0.27753 -0.64186,-0.30453 -0.1758,-1.04202 -0.5404,-2.44117 -1.28412,-3.29681 0.49905,-0.12506 0.97428,-0.37337 1.37645,-0.74847 0.7801,-0.72763 1.13655,-1.81577 0.94728,-2.86304 l 0.65925,-1.31428 c 0.16655,-0.33209 0.0319,-0.73771 -0.3001,-0.90433 l -3.39875,-1.70469 c -0.0936,-0.047 -0.19784,-0.0718 -0.30197,-0.0718 -0.2564,0 -0.48725,0.14239 -0.60243,0.37171 l -0.73935,1.47388 c -0.19867,0.1168 -0.38546,0.25426 -0.55478,0.41225 -1.18116,1.10196 -1.32195,2.90735 -0.3798,4.17469 -0.4291,0.20137 -1.56274,0.89079 -2.28324,2.77374 -0.20683,-0.59468 -0.48608,-1.16672 -0.86241,-1.59975 0.49911,-0.12506 0.97427,-0.37337 1.37644,-0.74847 0.7801,-0.72763 1.13655,-1.81577 0.94727,-2.86304 l 0.65926,-1.31428 c 0.16656,-0.33209 0.0319,-0.73771 -0.30011,-0.90433 l -3.39881,-1.70465 c -0.0936,-0.047 -0.19784,-0.0718 -0.30197,-0.0718 -0.2564,0 -0.48724,0.14239 -0.60242,0.37171 l -0.73943,1.47388 c -0.19867,0.1168 -0.38545,0.25426 -0.55478,0.41225 -1.18108,1.10181 -1.32189,2.90701 -0.38007,4.17428 -0.61029,0.28505 -2.63197,1.54369 -2.88498,5.78723 -0.22001,3.68746 -0.71167,14.81895 -0.71657,14.93096 -3.2e-4,0.007 6.4e-4,0.0141 10e-4,0.0207 -3.1e-4,0.006 -0.002,0.0123 -0.002,0.0186 0,0.16214 0.13135,0.29348 0.29348,0.29348 l 32.24701,0 c 0.16214,0 0.29348,-0.13134 0.29348,-0.29348 0,-0.16214 -0.13134,-0.29348 -0.29348,-0.29348 z m -2.5462,-15.6034 c 0.0555,0.15537 0.0472,0.3231 -0.0235,0.47218 -0.0707,0.14916 -0.19516,0.26185 -0.35287,0.3182 l -3.56655,1.30642 c -0.0673,0.0241 -0.13728,0.0362 -0.20792,0.0362 -0.26039,0 -0.49408,-0.16484 -0.5817,-0.41018 -9.4e-4,-0.002 -0.001,-0.005 -0.002,-0.007 l -2.1294,-5.51413 c -0.0542,-0.15448 -0.0455,-0.32095 0.0247,-0.46915 0.0223,-0.0471 0.0504,-0.09 0.0827,-0.12906 l 1.16747,2.78914 c 0.0503,0.11988 0.17078,0.18893 0.2937,0.17933 0.0303,-0.002 0.0608,-0.01 0.0905,-0.0219 0.14943,-0.0626 0.21994,-0.23458 0.15738,-0.38414 l -1.18918,-2.84065 0.3202,-0.11442 c 0.0673,-0.0241 0.13729,-0.0362 0.20786,-0.0362 0.26047,0 0.49429,0.16483 0.58198,0.41017 10e-4,0.004 0.002,0.006 0.004,0.01 l 1.61613,4.07684 c 0.0586,0.14785 0.22421,0.22215 0.37392,0.1674 l 2.13956,-0.78494 c 0.0673,-0.0241 0.13721,-0.0362 0.20779,-0.0362 0.26046,0 0.49434,0.1649 0.58205,0.41018 z m -1.1117,-1.80382 c 0.0717,0.0702 0.12403,0.15483 0.15455,0.24749 -0.0797,0.0119 -0.15883,0.0303 -0.23679,0.058 l -0.10679,0.0391 c -0.0145,-0.13708 -0.0342,-0.3037 -0.0602,-0.49318 0.0927,0.0286 0.17789,0.0788 0.24922,0.14853 z m -2.90563,-12.55164 c 0.0214,0 0.0421,0.005 0.0619,0.0149 l 3.86052,1.93627 c 0.0682,0.0342 0.0959,0.11763 0.0617,0.18582 l -0.67182,1.33929 -4.18347,-1.91015 0.16801,-0.33478 1.33522,0.64157 c 0.041,0.0197 0.0843,0.029 0.12692,0.029 0.10929,0 0.21427,-0.0614 0.26474,-0.16641 0.0702,-0.14612 0.008,-0.32144 -0.13741,-0.39167 l -1.32618,-0.63729 0.31614,-0.63005 c 0.0281,-0.0564 0.0825,-0.0764 0.12381,-0.0764 z m -1.72647,2.39602 c 0.1455,-0.13577 0.30458,-0.25557 0.47336,-0.35894 l 4.43972,2.02706 c 0.16055,0.9682 -0.17428,1.96844 -0.89452,2.64012 -1.188,1.10783 -3.05568,1.04299 -4.1635,-0.14474 -1.1079,-1.18778 -1.04292,-3.05547 0.14494,-4.1635 z m -3.51054,10.89346 c 0.15993,-2.68162 0.98208,-4.19748 1.6436,-4.99699 0.6393,-0.77278 1.1965,-1.02185 1.47555,-1.15181 0.67271,0.62418 1.53594,0.94058 2.40168,0.94058 0.0107,0 0.0213,-6.3e-4 0.0319,-6.3e-4 1.40904,1.02904 1.76342,4.1584 1.83537,5.02329 l -1.20119,0.4407 -1.50908,-3.80664 c -0.1723,-0.47557 -0.62681,-0.79467 -1.13283,-0.79467 -0.13797,0 -0.27442,0.0237 -0.40528,0.0704 l -0.57218,0.2044 c -0.30307,0.1081 -0.54587,0.32793 -0.68362,0.61886 -0.13776,0.29084 -0.15393,0.61796 -0.0457,0.92111 9.4e-4,0.002 10e-4,0.005 0.002,0.007 l 2.12955,5.51453 c 0.17187,0.47627 0.62673,0.79598 1.13317,0.79598 0.1381,0 0.27455,-0.0237 0.40761,-0.0714 l 1.95858,-0.71746 0.77981,12.3864 -3.53187,0 c -0.16214,0 -0.29348,0.13134 -0.29348,0.29347 0,0.16215 0.13134,0.29348 0.29348,0.29348 l 3.56882,0 0.044,0.69876 -6.07477,0 0.0579,-3.93074 c 0.002,-0.16207 -0.12713,-0.29534 -0.2892,-0.29782 -0.001,0 -0.002,0 -0.005,0 -0.16006,0 -0.29099,0.1285 -0.29341,0.28919 l -0.058,3.93937 -0.94161,0 0.23775,-7.29737 c 0.005,-0.16206 -0.1218,-0.29762 -0.28374,-0.30294 -0.16303,-0.002 -0.29761,0.12182 -0.30293,0.28374 l -0.23838,7.3165 -0.94064,0 c 0.084,-1.89179 0.57224,-12.83373 0.80095,-16.66924 z m -4.91765,2.97552 c 0.0458,0.12802 0.0388,0.26613 -0.0193,0.3889 -0.0582,0.12285 -0.16076,0.21573 -0.29106,0.26227 l -3.13987,1.15008 c -0.0555,0.0198 -0.1131,0.0299 -0.17125,0.0299 -0.21441,0 -0.40694,-0.13576 -0.47909,-0.33781 -9.5e-4,-0.002 -0.001,-0.005 -0.002,-0.007 l -1.87453,-4.85411 c -0.0446,-0.1272 -0.0373,-0.26406 0.0205,-0.38601 0.0127,-0.0269 0.028,-0.0521 0.0447,-0.0759 l 0.95342,2.37433 c 0.0485,0.12064 0.16802,0.19142 0.29106,0.18355 0.0303,-0.002 0.0609,-0.008 0.0907,-0.0206 0.1504,-0.0604 0.22333,-0.23134 0.16297,-0.38174 l -0.97944,-2.4391 0.22897,-0.0819 c 0.0555,-0.0198 0.11323,-0.0299 0.17119,-0.0299 0.21447,0 0.40713,0.13584 0.47929,0.33795 9.5e-4,0.004 0.002,0.006 0.004,0.01 l 1.42284,3.58933 c 0.0586,0.14785 0.22422,0.22208 0.37393,0.16738 l 1.4149,-0.51914 c 0.0441,-0.006 0.0845,-0.0211 0.11982,-0.044 l 0.34864,-0.12789 c 0.0555,-0.0198 0.1131,-0.0299 0.17111,-0.0299 0.21456,0 0.40728,0.13583 0.47937,0.33782 z m -0.9702,-1.57478 c 0.0489,0.0477 0.0869,0.1037 0.11275,0.16471 -0.058,0.0107 -0.11573,0.0259 -0.17279,0.0462 l -0.0455,0.0167 c -0.01,-0.0952 -0.0207,-0.20448 -0.0354,-0.32546 0.0514,0.0242 0.099,0.0568 0.14094,0.0978 z m -2.53364,-11.04068 c 0.0132,0 0.0263,0.004 0.0387,0.01 l 3.39887,1.70472 c 0.0428,0.0215 0.0601,0.0737 0.0386,0.11656 l -0.57632,1.14892 -3.61929,-1.65259 0.11608,-0.23133 1.14443,0.54994 c 0.041,0.0197 0.0843,0.029 0.12692,0.029 0.10929,0 0.21421,-0.0614 0.26475,-0.16642 0.0702,-0.14612 0.008,-0.32144 -0.13742,-0.39168 l -1.13537,-0.54559 0.26226,-0.52266 c 0.0176,-0.0356 0.0517,-0.0483 0.0777,-0.0483 z m -1.49612,2.09999 c 0.12182,-0.1137 0.25433,-0.21462 0.39485,-0.30218 l 3.87563,1.76957 c 0.1321,0.83506 -0.15945,1.69533 -0.78031,2.27442 -1.03158,0.96232 -2.65386,0.90577 -3.61598,-0.12561 -0.96226,-1.03167 -0.90584,-2.65381 0.12581,-3.6162 z m -2.76979,7.52359 c 0.65738,-2.50989 2.13803,-3.21651 2.40202,-3.32369 0.59538,0.54076 1.35344,0.81497 2.11372,0.81497 0.006,0 0.0119,-3.1e-4 0.0173,-3.1e-4 1.20685,0.89403 1.5218,3.57233 1.58947,4.36348 l -1.0003,0.36696 -1.31582,-3.31913 c -0.15682,-0.43228 -0.57018,-0.72231 -1.03021,-0.72231 -0.12553,0 -0.24956,0.0216 -0.36867,0.0641 l -0.50375,0.17988 c -0.27559,0.0984 -0.49642,0.29825 -0.62176,0.56286 -0.12532,0.26455 -0.1401,0.5621 -0.0416,0.83775 9.4e-4,0.002 0.001,0.005 0.002,0.007 l 1.87481,4.85482 c 0.1564,0.43296 0.57004,0.72353 1.03049,0.72353 0.12561,0 0.24969,-0.0216 0.37095,-0.065 l 1.6802,-0.6154 0.68136,10.82095 -3.07219,0 c -0.16214,0 -0.29348,0.13134 -0.29348,0.29348 0,0.16214 0.13134,0.29348 0.29348,0.29348 l 3.10914,0 0.0346,0.54822 -5.85174,0 -0.76408,-12.16736 0.88272,-0.32339 c 0.27565,-0.0984 0.49649,-0.29838 0.62182,-0.56292 0.12526,-0.26454 0.14004,-0.5621 0.0416,-0.83762 l -0.17988,-0.50402 c -0.10608,-0.29672 -0.33291,-0.52688 -0.613,-0.6433 -0.0349,-0.24804 -0.16648,-0.4851 -0.37316,-0.6643 -0.16835,-0.14598 -0.37468,-0.2443 -0.5875,-0.28353 -0.0361,-0.21524 -0.0804,-0.44574 -0.13445,-0.6837 10e-4,-0.006 0.004,-0.0107 0.006,-0.0156 z m -4.62743,-0.76194 c 0.0206,-0.0434 0.047,-0.0828 0.0777,-0.11799 l 0.8854,2.37054 c 0.0455,0.1218 0.16325,0.19548 0.28638,0.19066 0.0304,-10e-4 0.0611,-0.007 0.0912,-0.0184 0.15186,-0.0567 0.22892,-0.22581 0.1723,-0.37766 l -0.90468,-2.42267 0.18417,-0.0658 c 0.0555,-0.0198 0.11322,-0.0299 0.17118,-0.0299 0.21455,0 0.40714,0.13582 0.47938,0.33794 10e-4,0.004 0.002,0.006 0.004,0.01 l 1.42285,3.58933 c 0.0588,0.14785 0.22415,0.22208 0.37392,0.16739 l 1.41497,-0.51915 c 0.044,-0.006 0.0845,-0.0211 0.11975,-0.044 l 0.34865,-0.12788 c 0.0555,-0.0198 0.1131,-0.0299 0.17118,-0.0299 0.21455,0 0.40721,0.13584 0.47938,0.33781 l 0.17987,0.50403 c 0.0458,0.12802 0.0388,0.26613 -0.0193,0.3889 -0.0582,0.12284 -0.16076,0.21572 -0.29106,0.26226 l -3.13987,1.15009 c -0.0555,0.0198 -0.1131,0.0299 -0.17118,0.0299 -0.21434,0 -0.40693,-0.13576 -0.47909,-0.33781 -9.5e-4,-0.002 -0.001,-0.005 -0.002,-0.007 l -1.8746,-4.85412 c -0.0445,-0.12713 -0.0372,-0.26399 0.0205,-0.38594 z m 4.84978,2.11193 c 0.0388,0.0218 0.0759,0.0471 0.10953,0.0763 0.0379,0.0329 0.0899,0.0871 0.12851,0.15813 -0.054,0.0107 -0.10774,0.0247 -0.1609,0.0436 l -0.0455,0.0167 c -0.008,-0.0871 -0.0187,-0.18589 -0.0317,-0.29472 z m -2.39644,-10.97357 c 0.0132,0 0.0263,0.004 0.0387,0.01 l 3.39889,1.70472 c 0.0428,0.0215 0.0601,0.0737 0.0386,0.11656 l -0.57632,1.14892 -3.61931,-1.65266 0.11609,-0.23133 1.14441,0.54994 c 0.041,0.0197 0.0844,0.029 0.12692,0.029 0.10929,0 0.21428,-0.0614 0.26476,-0.16641 0.0702,-0.14612 0.008,-0.32144 -0.13742,-0.39168 l -1.13538,-0.54558 0.26226,-0.52267 c 0.0178,-0.0355 0.0519,-0.0482 0.0777,-0.0482 z m -1.49611,2.09999 c 0.12181,-0.1137 0.25432,-0.21462 0.39491,-0.30218 l 3.87556,1.76957 c 0.1321,0.83506 -0.15945,1.69533 -0.7803,2.27442 -1.03165,0.96232 -2.65387,0.90577 -3.61599,-0.12561 -0.96226,-1.03167 -0.90585,-2.65381 0.12582,-3.6162 z m -3.07964,9.5673 c 0.13997,-2.34797 0.85791,-3.67503 1.43541,-4.3749 0.5132,-0.62189 1.09263,-0.91039 1.27776,-0.9914 0.59517,0.54008 1.3527,0.81387 2.11249,0.81387 0.006,0 0.0119,-3.1e-4 0.0173,-3.1e-4 1.20692,0.89403 1.5218,3.57233 1.58954,4.36348 l -1.00038,0.36696 -1.31581,-3.31913 c -0.15682,-0.43228 -0.57018,-0.72231 -1.03021,-0.72231 -0.12554,0 -0.24956,0.0216 -0.36867,0.0641 l -0.50375,0.17988 c -0.27559,0.0984 -0.4965,0.29825 -0.62176,0.56286 -0.12534,0.26455 -0.1401,0.5621 -0.0416,0.83775 9.4e-4,0.002 10e-4,0.005 0.002,0.007 l 1.8748,4.85482 c 0.1564,0.43296 0.57003,0.72353 1.03048,0.72353 0.12562,0 0.2497,-0.0216 0.37096,-0.065 l 1.68221,-0.61616 0.67956,10.82171 -3.07232,0 c -0.16214,0 -0.29348,0.13134 -0.29348,0.29348 0,0.16214 0.13134,0.29348 0.29348,0.29348 l 3.10927,0 0.0344,0.54822 -5.27569,0 0.0505,-3.42823 c 0.002,-0.16207 -0.12714,-0.29534 -0.2892,-0.29783 -0.16207,-0.001 -0.29535,0.12713 -0.29784,0.2892 l -0.0506,3.43686 -0.7582,0 0.20826,-6.39167 c 0.005,-0.16206 -0.12182,-0.29761 -0.28374,-0.30293 -0.004,-7e-5 -0.006,-1.4e-4 -0.009,-1.4e-4 -0.15758,0 -0.28795,0.12519 -0.29314,0.28388 l -0.20881,6.41079 -0.75753,0 c 0.078,-1.757 0.50355,-11.28728 0.7036,-14.64196 z m 20.13661,-2.6116 c 0.0119,0.001 0.0226,0.002 0.0337,0.002 0.14715,0 0.27408,-0.11037 0.29127,-0.26006 0.39775,-3.466 2.04924,-4.15067 2.07885,-4.16241 0.15089,-0.0559 0.22871,-0.22318 0.17395,-0.37489 -0.0551,-0.1524 -0.22318,-0.23112 -0.37573,-0.17629 -0.0821,0.0297 -2.01546,0.7707 -2.46022,4.64668 -0.0185,0.1611 0.0971,0.30659 0.25812,0.3251 z"
           id="path4288" />
      </g>
      <g
         id="g4312"
         transform="translate(-8.9809693,0.2748287)"
         inkscape:export-filename="/Users/sheraz/dev/playground/projects/azan_call/src/ui/images/salah_in_progress_d@1x.png"
         inkscape:export-xdpi="129.95"
         inkscape:export-ydpi="129.95">
        <circle
           style="color:#000000;clip-rule:nonzero;display:inline;overflow:visible;visibility:visible;opacity:1;isolation:auto;mix-blend-mode:normal;color-interpolation:sRGB;color-interpolation-filters:linearRGB;solid-color:#000000;solid-opacity:1;fill:url(#linearGradient4297);fill-opacity:1;fill-rule:evenodd;stroke:none;stroke-width:0.73740727px;stroke-linecap:butt;stroke-linejoin:miter;stroke-miterlimit:4;stroke-dasharray:none;stroke-dashoffset:0;stroke-opacity:1;color-rendering:auto;image-rendering:auto;shape-rendering:auto;text-rendering:auto;enable-background:accumulate"
           id="circle4295"
           cx="494.06345"
           cy="405.26074"
           r="65.368675"
           transform="matrix(0.38272232,0,0,0.38272232,-80.850458,-3.1878878)" />
        <path
           id="path4301"
           d="m 119.88896,163.25455 c -0.003,-0.005 -0.005,-0.009 -0.008,-0.0121 l -1.99695,-2.78963 c -0.0899,-0.12543 -0.21512,-0.22131 -0.35977,-0.27514 l -3.4181,-1.27248 c -5.52304,-4.45998 -7.29145,-8.68677 -8.28983,-12.23671 -0.26913,-0.95715 -0.73088,-1.71076 -1.28911,-2.30019 l -0.002,-0.78678 c -4e-4,-0.0431 0.0168,-0.078 0.0514,-0.10359 0.0349,-0.0256 0.0728,-0.0322 0.11436,-0.0191 l 1.17506,0.37257 c 0.37493,0.1189 0.77933,-0.062 0.94072,-0.42041 1.75332,-3.89369 0.17006,-8.78647 0.10177,-8.9929 -0.0902,-0.27277 -0.32402,-0.47322 -0.60732,-0.52084 -4.41906,-0.74328 -7.7416,2.33119 -7.88077,2.46241 -0.23939,0.22565 -0.31028,0.57776 -0.17678,0.87842 l 1.63492,3.68281 0,1.55744 c -0.1929,0.0394 -0.36606,0.1503 -0.48085,0.31513 -0.17172,0.24651 -4.16169,6.12714 -2.00863,15.97718 -0.0754,0.71218 -0.26522,3.75896 1.69568,5.54018 -0.24404,0.20901 -0.56961,0.38083 -1.0676,0.48354 -1.59092,0.32834 -2.37583,1.49999 -2.09956,3.13419 0.14682,0.86871 0.89444,1.49915 1.77772,1.49915 l 0.47846,0 c 0.42806,0 0.77491,-0.34693 0.77491,-0.77489 0,-0.42794 -0.34685,-0.77489 -0.77491,-0.77489 l -0.47846,0 c -0.10768,0 -0.20074,-0.0657 -0.23692,-0.16158 0.0106,-0.0302 0.0203,-0.0611 0.0273,-0.0933 0.0802,-0.0302 0.33942,-0.0898 1.00541,0.0106 0.62549,0.0945 1.35761,0.29001 2.06555,0.47909 0.29684,0.0792 0.58541,0.15622 0.85972,0.22409 l -0.24889,0.66363 c -0.0892,0.23795 -0.0561,0.5045 0.0886,0.71342 0.14469,0.2089 0.38268,0.33351 0.63686,0.33351 2.24636,0 6.08963,-0.0654 9.5284,-0.24982 6.58836,-0.35335 7.34332,-0.90364 7.66567,-1.13869 2.26889,-1.65352 1.52934,-4.23928 0.82118,-5.37549 -0.006,-0.0106 -0.0137,-0.0191 -0.0199,-0.0288 z m -2.4905,-0.81849 -0.52611,-0.13028 c -0.24858,-0.0616 -0.50379,-0.0817 -0.75939,-0.0599 l -0.46401,0.0397 -2.10223,-0.84081 0.51545,-0.9026 2.69993,1.00509 z m -11.75525,-20.3014 -0.48344,-0.15323 c -0.51173,-0.16231 -1.07411,-0.0684 -1.50505,0.25076 -0.33186,0.24569 -0.55813,0.60513 -0.64223,0.9994 -0.5323,-0.27988 -1.0769,-0.47072 -1.58368,-0.59211 l 0,-1.88301 c 0,-0.10829 -0.0228,-0.21541 -0.0667,-0.31439 l -0.17719,-0.39912 c 0.26936,-0.24477 2.0701,-1.79486 4.82759,-2.19625 0.1271,1.30347 0.10617,2.86132 -0.36926,4.28795 z m -0.0743,-6.77186 c 0.0631,0.23939 0.14135,0.56402 0.21749,0.95054 -2.59673,0.37743 -4.44139,1.60868 -5.25628,2.25443 l -0.63096,-1.42137 c 0.8717,-0.66217 3.02953,-2.03518 5.66975,-1.7836 z m -6.55198,12.26141 c 0.48601,-1.78483 1.10591,-3.01052 1.43116,-3.58073 0.93938,0.11556 3.20146,0.64316 3.87686,3.0445 1.03918,3.69491 2.85574,8.07492 8.39261,12.68369 l -0.61227,1.07203 c -1.71551,-0.81735 -6.74726,-3.63859 -10.15018,-9.91791 -0.14029,-0.25893 -0.40676,-0.40584 -0.68201,-0.40584 -0.12467,0 -0.25117,0.0302 -0.36844,0.0937 -0.37628,0.20385 -0.51598,0.67416 -0.31213,1.05045 1.08786,2.00738 2.32252,3.67992 3.57,5.06223 -2.38141,0.0137 -4.33673,0.56133 -5.41599,0.94444 -0.82676,-4.39809 -0.32402,-7.86353 0.27039,-10.04667 z m 1.94042,18.99122 c -0.69513,-0.18567 -1.37465,-0.367 -2.00159,-0.47817 1.13846,-0.40572 1.63192,-1.13423 1.97359,-1.64143 0.0942,-0.13984 0.2364,-0.35097 0.29549,-0.38352 0.14848,-0.0214 0.7435,0.5977 1.15791,1.6498 l -0.41741,1.11306 c -0.30883,-0.0731 -0.65226,-0.16469 -1.00799,-0.25974 z m 17.2194,0.78998 c -0.12922,0.0872 -1.06925,0.53778 -6.89058,0.84752 -2.87558,0.15302 -6.03084,0.22245 -8.27225,0.24012 l 1.3103,-3.49406 c 0.8776,-0.12649 3.34547,-0.36016 8.27876,-0.0159 0.42961,0.029 0.79722,-0.29218 0.82697,-0.71909 0.0299,-0.42693 -0.29209,-0.79711 -0.719,-0.82698 -6.7112,-0.46823 -9.05149,0.10086 -9.14779,0.12528 -0.17852,0.0452 -0.33205,0.1525 -0.43723,0.29839 -0.63976,-0.95603 -1.35018,-1.38914 -2.11268,-1.28355 -0.42971,0.0592 -0.72913,0.26802 -0.96159,0.5162 -1.13218,-1.10924 -1.18466,-2.98862 -1.14446,-3.82582 0.98338,-0.38156 3.67857,-1.26152 6.86969,-0.90755 3.21777,2.97269 6.13034,4.10445 6.37675,4.19682 l 3.0907,1.23632 c 0.11224,0.0449 0.23319,0.0628 0.35398,0.0526 l 0.64729,-0.0555 c 0.0857,-0.008 0.17099,-4.1e-4 0.25427,0.02 l 2.23344,0.55317 c 0.29209,0.607 0.78781,2.06225 -0.55657,3.04202 z"
           inkscape:connector-curvature="0"
           style="fill:#ffffff;fill-opacity:1;stroke-width:0.06812304" />
      </g>
      <g
         id="g4331"
         transform="translate(-2.9260029,-2.9259857)"
         inkscape:export-filename="/Users/sheraz/dev/playground/projects/azan_call/src/ui/images/next_salah@4x.png"
         inkscape:export-xdpi="519.82001"
         inkscape:export-ydpi="519.82001">
        <circle
           style="color:#000000;clip-rule:nonzero;display:inline;overflow:visible;visibility:visible;opacity:1;isolation:auto;mix-blend-mode:normal;color-interpolation:sRGB;color-interpolation-filters:linearRGB;solid-color:#000000;solid-opacity:1;fill:url(#linearGradient4318);fill-opacity:1;fill-rule:evenodd;stroke:none;stroke-width:0.73740727px;stroke-linecap:butt;stroke-linejoin:miter;stroke-miterlimit:4;stroke-dasharray:none;stroke-dashoffset:0;stroke-opacity:1;color-rendering:auto;image-rendering:auto;shape-rendering:auto;text-rendering:auto;enable-background:accumulate"
           id="circle4316"
           cx="623.59363"
           cy="413.62402"
           r="65.368675"
           transform="matrix(0.38272232,0,0,0.38272232,-80.850458,-3.1878878)" />
        <path
           inkscape:connector-curvature="0"
           id="path4320"
           d="m 160.33847,163.86186 8.69558,-8.69729 -8.74663,-8.74662 -8.74662,-8.7466 -2.4747,2.47469 -2.47467,2.47469 6.06437,6.06545 c 3.99584,3.99658 6.06434,6.20651 6.06434,6.47897 0,0.27249 -2.06816,2.48205 -6.06329,6.47792 l -6.06327,6.06439 2.4195,2.42585 c 1.33077,1.33421 2.46687,2.42585 2.52471,2.42585 0.0579,0 4.01816,-3.91379 8.80068,-8.6973 z"
           style="fill:#a0a0a0;fill-opacity:1;stroke-width:0.14194334" />
      </g>
      <path
         style="fill:#34ca31;fill-opacity:1;stroke-width:0.06792522"
         d="m 224.04685,160.27053 c -1.74089,-2.85826 -3.03205,-4.45377 -4.44647,-5.49456 -1.69155,-1.24472 -4.69454,-2.19797 -6.9242,-2.19797 -0.45621,0 -0.49852,0.012 -0.53624,0.15283 -0.0225,0.0841 -0.0414,1.26087 -0.0419,2.61513 -5.8e-4,1.35425 -0.0162,2.46228 -0.0349,2.46228 -0.0668,0 -12.60007,-8.3781 -12.60007,-8.42272 0,-0.0446 12.53332,-8.42273 12.60007,-8.42273 0.0187,0 0.034,1.15778 0.034,2.57284 0,1.97653 0.0197,2.58869 0.0849,2.64121 0.0467,0.0376 0.49567,0.10412 0.99772,0.14782 2.78863,0.24274 4.97401,0.9468 6.86462,2.21155 2.41405,1.61492 4.04788,3.93964 4.72628,6.72484 0.28936,1.18801 0.36811,2.06062 0.36811,4.07899 l 0,1.86446 -0.26153,0 -0.26154,0 z"
         id="path4238"
         inkscape:connector-curvature="0"
         inkscape:export-filename="/Users/sheraz/dev/playground/projects/azan_call/src/ui/images/undo@4x.png"
         inkscape:export-xdpi="123.66"
         inkscape:export-ydpi="123.66" />
    </g>
  </g>
</svg>
