<?xml version="1.0" encoding="UTF-8" standalone="no"?>
<svg
   xmlns:dc="http://purl.org/dc/elements/1.1/"
   xmlns:cc="http://creativecommons.org/ns#"
   xmlns:rdf="http://www.w3.org/1999/02/22-rdf-syntax-ns#"
   xmlns:svg="http://www.w3.org/2000/svg"
   xmlns="http://www.w3.org/2000/svg"
   xmlns:xlink="http://www.w3.org/1999/xlink"
   xmlns:sodipodi="http://sodipodi.sourceforge.net/DTD/sodipodi-0.dtd"
   xmlns:inkscape="http://www.inkscape.org/namespaces/inkscape"
   width="1024"
   height="500"
   viewBox="0 0 1024 500"
   version="1.1"
   id="svg8"
   inkscape:version="1.0.1 (c497b03c, 2020-09-10)"
   sodipodi:docname="feature_graphic.svg"
   inkscape:export-filename="/Users/sheraz/dev/playground/projects/central_masjid_dashboard/docs/app_publish/android/feature_graphic.png"
   inkscape:export-xdpi="96"
   inkscape:export-ydpi="96">
  <defs
     id="defs2">
    <linearGradient
       inkscape:collect="always"
       id="linearGradient1524">
      <stop
         style="stop-color:#000000;stop-opacity:1"
         offset="0"
         id="stop1520" />
      <stop
         style="stop-color:#080000;stop-opacity:0"
         offset="1"
         id="stop1522" />
    </linearGradient>
    <linearGradient
       inkscape:collect="always"
       id="linearGradient1462">
      <stop
         style="stop-color:#29649e;stop-opacity:1"
         offset="0"
         id="stop1458" />
      <stop
         style="stop-color:#5fa3c9;stop-opacity:1"
         offset="1"
         id="stop1460" />
    </linearGradient>
    <linearGradient
       inkscape:collect="always"
       xlink:href="#linearGradient1462"
       id="linearGradient1464"
       x1="518.82666"
       y1="391.08444"
       x2="518.82666"
       y2="107.77777"
       gradientUnits="userSpaceOnUse" />
    <filter
       style="color-interpolation-filters:sRGB"
       inkscape:label="Drop Shadow"
       id="filter909">
      <feFlood
         flood-opacity="0.498039"
         flood-color="rgb(0,0,0)"
         result="flood"
         id="feFlood899" />
      <feComposite
         in="flood"
         in2="SourceGraphic"
         operator="in"
         result="composite1"
         id="feComposite901" />
      <feGaussianBlur
         in="composite1"
         stdDeviation="3"
         result="blur"
         id="feGaussianBlur903" />
      <feOffset
         dx="6"
         dy="6"
         result="offset"
         id="feOffset905" />
      <feComposite
         in="SourceGraphic"
         in2="offset"
         operator="over"
         result="composite2"
         id="feComposite907" />
    </filter>
    <linearGradient
       inkscape:collect="always"
       xlink:href="#linearGradient1524"
       id="linearGradient1526"
       x1="115.45792"
       y1="119.35254"
       x2="431.51987"
       y2="429.72559"
       gradientUnits="userSpaceOnUse" />
  </defs>
  <sodipodi:namedview
     id="base"
     pagecolor="#ffffff"
     bordercolor="#666666"
     borderopacity="1.0"
     inkscape:pageopacity="0.0"
     inkscape:pageshadow="2"
     inkscape:zoom="0.78710938"
     inkscape:cx="571.71216"
     inkscape:cy="250"
     inkscape:document-units="px"
     inkscape:current-layer="layer1"
     inkscape:document-rotation="0"
     showgrid="false"
     units="px"
     inkscape:showpageshadow="false"
     showguides="false"
     inkscape:window-width="1440"
     inkscape:window-height="855"
     inkscape:window-x="0"
     inkscape:window-y="23"
     inkscape:window-maximized="1"
     inkscape:snap-global="false" />
  <metadata
     id="metadata5">
    <rdf:RDF>
      <cc:Work
         rdf:about="">
        <dc:format>image/svg+xml</dc:format>
        <dc:type
           rdf:resource="http://purl.org/dc/dcmitype/StillImage" />
        <dc:title></dc:title>
      </cc:Work>
    </rdf:RDF>
  </metadata>
  <g
     inkscape:label="Layer 1"
     inkscape:groupmode="layer"
     id="layer1">
    <rect
       style="fill:url(#linearGradient1464);stroke-width:10.1216;stroke-linecap:round;stroke-linejoin:round;fill-opacity:1"
       id="rect851"
       width="1024"
       height="500"
       x="0"
       y="0"
       inkscape:export-xdpi="96"
       inkscape:export-ydpi="96" />
    <path
       id="rect1513"
       style="fill:url(#linearGradient1526);fill-opacity:1;stroke:none;stroke-width:3.00421;stroke-linecap:round;stroke-linejoin:round;stroke-miterlimit:4;stroke-dasharray:none;stroke-opacity:1;opacity:0.33762058"
       d="M 353.84961 164.76367 L 353.84961 328.81836 C 298.86335 340.08641 241.60684 344.54484 177.73047 329.14258 L 177.4668 329.39062 L 366.49219 491.50586 L 542.21289 326.30859 L 353.84961 164.76367 z " />
    <path
       id="path900"
       style="color:#000000;font-style:normal;font-variant:normal;font-weight:normal;font-stretch:normal;font-size:medium;line-height:normal;font-family:sans-serif;font-variant-ligatures:normal;font-variant-position:normal;font-variant-caps:normal;font-variant-numeric:normal;font-variant-alternates:normal;font-feature-settings:normal;text-indent:0;text-align:start;text-decoration:none;text-decoration-line:none;text-decoration-style:solid;text-decoration-color:#000000;letter-spacing:normal;word-spacing:normal;text-transform:none;writing-mode:lr-tb;direction:ltr;text-orientation:mixed;dominant-baseline:auto;baseline-shift:baseline;text-anchor:start;white-space:normal;shape-padding:0;clip-rule:nonzero;display:inline;overflow:visible;visibility:visible;isolation:auto;mix-blend-mode:normal;color-interpolation:sRGB;color-interpolation-filters:linearRGB;solid-color:#000000;solid-opacity:1;vector-effect:none;fill:#f3f3f3;fill-opacity:1;fill-rule:evenodd;stroke:none;stroke-width:2.46646;stroke-linecap:round;stroke-linejoin:round;stroke-miterlimit:2;stroke-dasharray:none;stroke-dashoffset:0;stroke-opacity:1;filter:url(#filter909);color-rendering:auto;image-rendering:auto;shape-rendering:auto;text-rendering:auto;enable-background:accumulate"
       d="m 810.58064,205.09841 c -1.87337,2.23556 -1.87969,6.25071 -5.23141,6.7566 -5.2355,1.90287 -7.77263,9.16392 -3.61509,13.35854 1.79255,1.4736 -2.66527,2.29839 -3.12543,4.05328 -2.14805,2.61238 -3.03215,6.32662 -1.86529,9.55466 -17.20695,2.3179 -33.86484,8.60348 -48.18978,18.43487 -13.63537,9.31846 -25.20479,21.71386 -33.42288,36.04808 -6.52709,11.11176 -10.88267,23.41655 -13.30948,36.05445 0.88761,2.35356 4.66774,1.53472 6.72202,2.53108 51.31073,10.95924 104.37535,12.8459 156.51916,7.69319 18.35045,-1.90467 36.60985,-4.81032 54.57335,-9.03533 1.71953,-2.21928 -0.87992,-5.69335 -0.92354,-8.39331 -3.65229,-15.20054 -10.80643,-29.47891 -20.37268,-41.82063 -11.17741,-14.11324 -25.73273,-25.57186 -42.23278,-32.82641 -9.68563,-4.35501 -20.05683,-7.20706 -30.55967,-8.67732 1.77581,-4.99788 -1.29918,-10.51822 -5.80783,-12.8362 4.7139,-3.64231 3.23575,-11.38408 -2.00929,-13.72413 -2.50052,-0.6821 -3.92006,-2.21659 -4.688,-4.72593 -0.63241,-0.90991 -0.89209,-3.09684 -2.46138,-2.44549 z m 109.91844,133.0145 c -51.21219,11.70963 -104.34448,14.05997 -156.59715,9.70495 -20.88466,-1.84684 -41.68391,-4.9418 -62.10577,-9.69916 -2.56985,1.14014 -0.81527,5.41337 -1.57007,7.806 -0.12327,4.17234 -0.24907,8.58483 0.63552,12.60783 28.12458,6.71494 56.99267,10.30141 85.87574,11.60844 30.20476,1.49957 60.54301,0.20977 90.54018,-3.56931 14.68082,-1.89827 29.27041,-4.4851 43.69759,-7.80119 1.73987,-2.27176 0.58606,-5.96395 1.16404,-8.79613 -0.12727,-3.86718 0.0691,-7.95818 -0.80855,-11.67453 -0.28052,0.093 -0.5513,-0.26196 -0.83153,-0.1869 z M 721.98745,210.03423 c -0.0981,2.53433 -1.0694,6.27908 0.55724,8.22943 14.73632,0.1629 29.52717,0.0232 44.28433,0.0697 2.02341,-1.67202 0.71682,-5.63548 0.78225,-8.0999 -2.57841,-1.24882 -6.19701,-0.1841 -9.1684,-0.53753 -12.03844,0.1373 -24.19586,-0.27384 -36.16069,0.20418 z m 133.40867,0 c -0.0982,2.53433 -1.0695,6.27908 0.55724,8.22943 14.73603,0.1629 29.52687,0.0232 44.28413,0.0697 2.02361,-1.67202 0.71692,-5.63548 0.78245,-8.0999 -2.5786,-1.24882 -6.1972,-0.1841 -9.1684,-0.53753 -12.03844,0.1373 -24.19596,-0.27384 -36.16079,0.20418 z m -12.94027,-30.17755 c -0.098,2.53433 -1.06949,6.27909 0.55734,8.22943 19.04945,0.16292 38.15382,0.0233 57.2243,0.0697 2.02361,-1.67203 0.71692,-5.63548 0.78245,-8.09991 -2.5786,-1.24883 -6.1972,-0.18407 -9.1684,-0.53753 -16.21749,0 -32.43469,0 -48.65189,0 l -0.44906,0.20417 z m -120.4684,0 c -0.0981,2.53433 -1.0694,6.27909 0.55724,8.22943 19.04964,0.16292 38.15382,0.0233 57.22449,0.0697 2.02351,-1.67203 0.71673,-5.63548 0.78236,-8.09991 -2.57861,-1.24883 -6.19711,-0.18407 -9.16841,-0.53753 -16.21729,0 -32.43459,0 -48.65179,0 l -0.44916,0.20417 z m -18.82414,-26.60824 a 2.4667081,2.4667081 0 0 0 -2.46635,2.46646 v 142.26664 a 2.4667081,2.4667081 0 0 0 4.72189,0.99817 c 15.62412,-35.32207 50.17005,-62.31409 88.43799,-67.99244 0.59871,-2.00236 1.65175,-3.86795 3.08609,-5.38479 -38.08839,4.24614 -72.79575,28.67418 -91.31318,62.01802 V 158.18138 h 211.00984 v 129.64436 c -18.4925,-33.4099 -52.77067,-58.26486 -91.22263,-62.08549 1.19199,1.58902 2.35768,3.37683 3.02621,5.3212 38.57085,5.2268 72.67882,32.71678 88.40927,68.12057 a 2.4667081,2.4667081 0 0 0 4.71993,-1.00103 V 155.7149 a 2.4667081,2.4667081 0 0 0 -2.46634,-2.46646 z"
       transform="matrix(0.81094417,0,0,0.81094417,-391.54857,37.532624)" />
    <text
       xml:space="preserve"
       style="font-style:normal;font-weight:normal;font-size:40px;line-height:1.25;font-family:sans-serif;letter-spacing:4px;fill:#f3f3f3;fill-opacity:1;stroke:none"
       x="406.05209"
       y="232.35556"
       id="text1503"><tspan
         sodipodi:role="line"
         id="tspan1501"
         x="406.05209"
         y="232.35556"
         style="fill:#f3f3f3;fill-opacity:1">Masjid Dashboard</tspan></text>
    <path
       style="fill:none;stroke:#f3f3f3;stroke-width:3.33333;stroke-linecap:round;stroke-linejoin:miter;stroke-miterlimit:4;stroke-dasharray:none;stroke-opacity:1"
       d="M 416.85338,244.34667 H 814.37191"
       id="path1505" />
    <text
       xml:space="preserve"
       style="font-style:normal;font-weight:normal;font-size:27.0481px;line-height:1.25;font-family:sans-serif;fill:#f3f3f3;fill-opacity:1;stroke:none;stroke-width:0.676202"
       x="514.30774"
       y="295.43069"
       id="text1509"><tspan
         sodipodi:role="line"
         id="tspan1507"
         x="514.30774"
         y="295.43069"
         style="stroke-width:0.676202">My Masjid App</tspan></text>
  </g>
</svg>
