<svg width="145.52mm" height="222.61mm" version="1.1" viewBox="0 0 145.52084 222.61476" xmlns="http://www.w3.org/2000/svg">
 <g transform="translate(99.219 90.986)">
  <g transform="matrix(.26458 0 0 .26458 339 506.51)">
   <path d="m-1381.3-2254.4c-10.434 24.491-29.1 30.619-49.316 32.916v6.2618h98.641v-6.2637c-20.218-2.2963-38.889-8.4242-49.324-32.918zm-50.226 33.006c-16.688 1.8001-34.348 1.1718-49.27 6.1758h49.27zm100.46 0v6.17h49.254c-14.918-4.9993-32.572-4.3709-49.254-6.17zm-152.26 7.0899c-13.68 5.3219-24.751 16.04-30.148 38.805h32.17v-38.805zm2.9355 0v38.805h98.635v-38.805zm99.551 0v38.805h98.635v-38.805zm99.551 0v38.805h32.168c-5.3974-22.765-16.468-33.483-30.148-38.805zm-232.41 39.721c-1.5768 6.9447-2.6413 14.974-3.0996 24.299-0.3241 6.5934-2.5047 11.372-6.0645 14.879h91.336v-39.182h-49.322zm83.082 0v39.178h98.641v-39.182h-49.324zm99.549 0v39.178h91.336c-3.5621-3.5075-5.7442-8.2869-6.0684-14.883-0.4583-9.3248-1.5228-17.354-3.0996-24.299h-32.85zm-192.79 40.098c-10.965 9.4422-33.164 8.635-56.082 9.834v28.971h98.635v-38.805zm43.467 0v38.805h98.635v-38.805zm99.551 0v38.805h98.635v-38.805zm99.551 0v38.805h98.633v-28.971c-22.917-1.199-45.117-0.3918-56.082-9.834zm-299.57 9.8868c-25.395 1.3898-51.474 5.4577-63.932 28.918h63.932zm399.12 0v28.918h63.932c-12.457-23.46-38.537-27.528-63.932-28.918zm-463.52 29.834c-4.3502 8.6105-6.9207 19.746-7.0391 34.193v4.9883h21.672v-39.182zm15.541 0v39.18h98.642v-39.182h-49.324zm99.551 0v39.18h98.641v-39.182h-49.322zm99.551 0v39.18h98.641v-39.182h-49.324zm99.549 0v39.18h98.641v-39.182h-49.322zm99.551 0v39.18h49.316v-39.18zm49.318 0v39.182h49.322v-39.182zm50.23 0v39.18h21.668v-4.9863c-0.1184-14.447-2.6888-25.583-7.039-34.193zm-520.33 40.098v38.807h71.441v-38.807zm72.357 0v38.807h98.635v-38.807zm99.549 0v38.807h98.635v-38.807zm99.551 0v38.807h98.635v-38.807zm99.551 0v38.807h98.633v-38.807zm99.549 0v38.807h71.441v-38.807zm-470.56 39.721v39.182h21.672v-39.182zm22.58 0v39.18h98.642v-39.182h-49.324zm99.551 0v39.18h98.641v-39.182h-49.322zm99.551 0v39.18h98.641v-39.182h-49.324zm99.549 0v39.18h98.641v-39.182h-49.322zm99.551 0v39.18h49.316v-39.18zm49.318 0v39.182h49.322v-39.182zm50.23 0v39.18h21.668v-39.18zm-520.33 40.098v38.807h71.441v-38.807zm72.357 0v38.807h98.635v-38.807zm99.549 0v38.807h98.635v-38.807zm99.551 0v38.807h98.635v-38.807zm99.551 0v38.807h98.633v-38.807zm99.549 0v38.807h71.441v-38.807zm-470.56 39.721v39.184h21.672v-39.184zm22.58 0v39.18h98.642v-39.184h-49.324zm99.551 0v39.18h98.641v-39.184h-49.322zm99.551 0v39.18h98.641v-39.184h-49.324zm99.549 0v39.18h98.641v-39.184h-49.322zm99.551 0v39.18h49.316v-39.18zm49.318 0v39.184h49.322v-39.184zm50.23 0v39.18h21.668v-39.18zm-520.33 40.098v38.807h71.441v-38.807zm72.357 0v38.807h98.635v-38.807zm99.549 0v38.807h98.635v-38.807zm99.551 0v38.807h98.635v-38.807zm99.551 0v38.807h98.633v-38.807zm99.549 0v38.807h71.441v-38.807zm-470.56 39.721v39.184h21.672v-39.184zm22.58 0v39.18h98.642v-39.184h-49.324zm99.551 0v39.18h98.641v-39.184h-49.322zm99.551 0v39.18h98.641v-39.184h-49.324zm99.549 0v39.18h98.641v-39.184h-49.322zm99.551 0v39.18h49.316v-39.18zm49.318 0v39.184h49.322v-39.184zm50.23 0v39.18h21.668v-39.18zm-520.33 40.098v38.807h71.441v-38.807zm72.357 0v38.807h98.635v-38.807zm99.549 0v38.807h98.635v-38.807zm99.551 0v38.807h98.635v-38.807zm99.551 0v38.807h98.633v-38.807zm99.549 0v38.807h71.441v-38.807zm-470.56 39.721v39.184h21.672v-39.184zm22.58 0v39.18h98.642v-39.184h-49.324zm99.551 0v39.18h98.641v-39.184h-49.322zm99.551 0v39.18h98.641v-39.184h-49.324zm99.549 0v39.18h98.641v-39.184h-49.322zm99.551 0v39.18h49.316v-39.18zm49.318 0v39.184h49.322v-39.184zm50.23 0v39.18h21.668v-39.18zm-520.33 40.098v38.807h71.441v-38.807zm72.357 0v38.807h98.635v-38.807zm99.549 0v38.807h98.635v-38.807zm99.551 0v38.807h98.635v-38.807zm99.551 0v38.807h98.633v-38.807zm99.549 0v38.807h71.441v-38.807zm-470.56 39.721v39.184h21.672v-39.184zm22.58 0v39.18h98.642v-39.184h-49.324zm99.551 0v39.18h98.641v-39.184h-49.322zm99.551 0v39.18h98.641v-39.184h-49.324zm99.549 0v39.18h98.641v-39.184h-49.322zm99.551 0v39.18h49.316v-39.18zm49.318 0v39.184h49.322v-39.184zm50.23 0v39.18h21.668v-39.18zm-520.33 40.1v38.805h71.441v-38.805zm72.357 0v38.805h98.635v-38.805zm99.549 0v38.805h98.635v-38.805zm99.551 0v38.805h98.635v-38.805zm99.551 0v38.805h98.633v-38.805zm99.549 0v38.805h71.441v-38.805zm-470.56 39.721v39.182h21.672v-39.182zm22.58 0v39.178h98.642v-39.182h-49.324zm99.551 0v39.178h98.641v-39.182h-49.322zm99.551 0v39.178h98.641v-39.182h-49.324zm99.549 0v39.178h98.641v-39.182h-49.322zm99.551 0v39.178h49.316v-39.178zm49.318 0v39.182h49.322v-39.182zm50.23 0v39.178h21.668v-39.178zm-520.33 40.098v38.805h71.441v-38.805zm72.357 0v38.805h98.635v-38.805zm99.549 0v38.805h98.635v-38.805zm99.551 0v38.805h98.635v-38.805zm99.551 0v38.805h98.633v-38.805zm99.549 0v38.805h71.441v-38.805zm-470.56 39.721v39.182h21.672v-39.182zm22.58 0v39.178h98.642v-39.182h-49.324zm99.551 0v39.178h98.641v-39.182h-49.322zm99.551 0v39.178h98.641v-39.182h-49.324zm99.549 0v39.178h98.641v-39.182h-49.322zm99.551 0v39.178h49.316v-39.178zm49.318 0v39.182h49.322v-39.182zm50.23 0v39.178h21.668v-39.178zm-520.33 40.098v38.807h71.441v-38.807zm72.357 0v38.807h98.635v-38.807zm99.549 0v38.807h98.635v-38.807zm99.551 0v38.807h98.635v-38.807zm99.551 0v38.807h98.633v-38.807zm99.549 0v38.807h71.441v-38.807zm-470.56 39.721v35.141h21.672v-35.141zm22.58 0v35.141h98.642v-35.141h-49.324zm99.551 0v35.141h98.641v-35.141h-49.322zm99.551 0v35.141h98.641v-35.141h-49.324zm99.549 0v35.141h98.641v-35.141h-49.322zm99.551 0v35.141h49.316v-35.141zm49.318 0v35.141h49.322v-35.141zm50.23 0v35.141h21.668v-35.141z" fill="#ebedcb" fill-rule="evenodd" stroke="#f4f4ed" stroke-width=".91542"/>
   <g stroke="#b8b81a">
    <path d="m-1381.3-2254.2c-30.263 71.033-129.77-12.365-135.5 104.12-2.7165 55.269-134.63-15.992-135.5 89.711v639.5h542v-639.5m-271-193.83c30.263 71.033 129.77-12.365 135.5 104.12 2.7165 55.269 134.63-15.992 135.5 89.711" fill="none" stroke-linecap="round" stroke-linejoin="round" stroke-width="8"/>
    <path d="m-1381.4-2233.5c-15.898 19.276-42.514 24.12-66.251 24.16-17.31 0.7278-38.219 2.5507-48.581 18.516-10.664 15.802-8.393 35.647-12.785 53.283-6.0584 14.946-23.047 20.968-38.021 21.852-26.116 3.3592-54.65-1.6717-77.946 12.892-15.881 11.708-17.979 33.214-17.274 51.361 0.1442 163.72-0.011 455.44 0.049 619.16h521.96c-0.3872-170.75 0.8346-469.51-0.6691-640.24-1.7828-17.49-15.057-34.728-33.31-37.574-28.873-7.9202-61.262 1.0978-88.417-13.869-12.036-8.4067-14.336-24.138-14.148-37.726-1.8-16.929-8.8246-36.726-26.619-42.51-26.805-9.5439-57.939-0.7823-82.883-16.635-5.8112-3.061-10.809-8.6601-15.105-12.666z" fill="none" stroke-linecap="round" stroke-linejoin="round" stroke-width="2"/>
    <rect x="-1628.7" y="-2075.1" width="494.78" height="628.81" rx="19.303" ry="19.303" fill="#fff" fill-rule="evenodd" stroke-width="2.124"/>
   </g>
  </g>
 </g>
</svg>
