<svg width="145.28mm" height="188.22mm" version="1.1" viewBox="0 0 145.28127 188.21893" xmlns="http://www.w3.org/2000/svg">
 <g transform="translate(48.45 -4.831)">
  <g transform="matrix(.26458 0 0 .26458 685.15 554.61)">
   <path d="m-2498.1-2074c-18.936 44.52-65.024 28.382-98.201 38.807h98.201zm0.916 2.0097v36.797h97.285c-32.66-10.262-77.822 5.1915-97.285-36.797zm-101.79 37.711c-14.111 5.189-25.564 15.87-31.082 39.18h82.186v-39.182h-49.322zm52.014 0v39.18h49.316v-39.18zm49.318 0v39.182h49.322v-39.182zm50.23 0v39.18h81.266c-5.5175-23.311-16.971-33.992-31.082-39.182h-0.8652zm-182.87 40.098c-1.5741 6.9448-2.6381 14.976-3.0957 24.301-0.3123 6.3639-2.3516 11.034-5.6875 14.506h41.412v-38.807zm33.543 0v38.807h98.635v-38.807zm99.551 0v38.807h98.635v-38.807zm99.551 0v38.807h40.494c-3.3357-3.4721-5.3752-8.1422-5.6875-14.506-0.4576-9.3249-1.5216-17.356-3.0957-24.301zm-242.33 39.721c-1.8526 1.693-4.0564 3.0645-6.543 4.1895v34.99h98.641v-39.184h-49.322zm93.008 0v39.18h49.316v-39.18zm49.318 0v39.184h49.322v-39.184zm50.23 0v39.18h98.641v-34.602c-2.8647-1.1939-5.3844-2.6845-7.4609-4.5821h-41.861zm-200.01 4.5782c-23.413 9.7673-70.535-0.9094-98.641 17.879v16.723h98.641zm299.56 0.3711v34.23h49.316v-28.896c-18.689-1.0418-37.03-0.6058-49.316-5.3339zm49.318 5.3339v28.9h49.322v-16.102c-13.468-9.4586-31.544-11.808-49.322-12.799zm-448.43 12.791c-5.6627 3.9745-10.517 9.1947-14.182 16.109h14.182zm498.66 0.6582v15.447h13.26c-3.4654-6.5365-7.9912-11.559-13.26-15.447zm-513.31 16.365c-4.3428 8.6104-6.9091 19.746-7.0273 34.193v4.6132h71.447v-38.807zm65.336 0v38.807h98.635v-38.807zm99.549 0v38.807h98.635v-38.807zm99.551 0v38.807h98.635v-38.807zm99.551 0v38.807h98.633v-38.807zm99.549 0v38.807h70.531v-4.6132c-0.1182-14.447-2.6844-25.583-7.0273-34.193zm-470.56 39.721v39.184h21.678v-39.184zm22.588 0v39.18h98.641v-39.184h-49.324zm99.549 0v39.18h98.641v-39.184h-49.322zm99.551 0v39.18h49.316v-39.18zm49.318 0v39.184h49.322v-39.184zm50.23 0v39.18h98.641v-39.184h-49.322zm99.551 0v39.18h49.316v-39.18zm49.318 0v39.184h49.322v-39.184zm50.23 0v39.18h20.758v-39.18zm-520.34 40.098v38.807h71.447v-38.807zm72.363 0v38.807h98.635v-38.807zm99.549 0v38.807h98.635v-38.807zm99.551 0v38.807h98.635v-38.807zm99.551 0v38.807h98.633v-38.807zm99.549 0v38.807h70.531v-38.807zm-470.56 39.721v39.184h21.678v-39.184zm22.588 0v39.18h98.641v-39.184h-49.324zm99.549 0v39.18h98.641v-39.184h-49.322zm99.551 0v39.18h49.316v-39.18zm49.318 0v39.184h49.322v-39.184zm50.23 0v39.18h98.641v-39.184h-49.322zm99.551 0v39.18h49.316v-39.18zm49.318 0v39.184h49.322v-39.184zm50.23 0v39.18h20.758v-39.18zm-520.34 40.1v38.805h71.447v-38.805zm72.363 0v38.805h98.635v-38.805zm99.549 0v38.805h98.635v-38.805zm99.551 0v38.805h98.635v-38.805zm99.551 0v38.805h98.633v-38.805zm99.549 0v38.805h70.531v-38.805zm-470.56 39.721v39.182h21.678v-39.182zm22.588 0v39.178h98.641v-39.182h-49.324zm99.549 0v39.178h98.641v-39.182h-49.322zm99.551 0v39.178h49.316v-39.178zm49.318 0v39.182h49.322v-39.182zm50.23 0v39.178h98.641v-39.182h-49.322zm99.551 0v39.178h49.316v-39.178zm49.318 0v39.182h49.322v-39.182zm50.23 0v39.178h20.758v-39.178zm-520.34 40.098v38.805h71.447v-38.805zm72.363 0v38.805h98.635v-38.805zm99.549 0v38.805h98.635v-38.805zm99.551 0v38.805h98.635v-38.805zm99.551 0v38.805h98.633v-38.805zm99.549 0v38.805h70.531v-38.805zm-470.56 39.721v39.182h21.678v-39.182zm22.588 0v39.178h98.641v-39.182h-49.324zm99.549 0v39.178h98.641v-39.182h-49.322zm99.551 0v39.178h49.316v-39.178zm49.318 0v39.182h49.322v-39.182zm50.23 0v39.178h98.641v-39.182h-49.322zm99.551 0v39.178h49.316v-39.178zm49.318 0v39.182h49.322v-39.182zm50.23 0v39.178h20.758v-39.178zm-520.34 40.098v38.805h71.447v-38.805zm72.363 0v38.805h98.635v-38.805zm99.549 0v38.805h98.635v-38.805zm99.551 0v38.805h98.635v-38.805zm99.551 0v38.805h98.633v-38.805zm99.549 0v38.805h70.531v-38.805zm-470.56 39.721v39.182h21.678v-39.182zm22.588 0v39.178h98.641v-39.182h-49.324zm99.549 0v39.178h98.641v-39.182h-49.322zm99.551 0v39.178h49.316v-39.178zm49.318 0v39.182h49.322v-39.182zm50.23 0v39.178h98.641v-39.182h-49.322zm99.551 0v39.178h49.316v-39.178zm49.318 0v39.182h49.322v-39.182zm50.23 0v39.178h20.758v-39.178zm-520.34 40.098v38.805h71.447v-38.805zm72.363 0v38.805h98.635v-38.805zm99.549 0v38.805h98.635v-38.805zm99.551 0v38.805h98.635v-38.805zm99.551 0v38.805h98.633v-38.805zm99.549 0v38.805h70.531v-38.805zm-470.56 39.721v39.182h21.678v-39.182zm22.588 0v39.18h98.641v-39.182h-49.324zm99.549 0v39.18h98.641v-39.182h-49.322zm99.551 0v39.18h49.316v-39.18zm49.318 0v39.182h49.322v-39.182zm50.23 0v39.18h98.641v-39.182h-49.322zm99.551 0v39.18h49.316v-39.18zm49.318 0v39.182h49.322v-39.182zm50.23 0v39.18h20.758v-39.18zm-520.34 40.098v38.807h71.447v-38.807zm72.363 0v38.807h98.635v-38.807zm99.549 0v38.807h98.635v-38.807zm99.551 0v38.807h98.635v-38.807zm99.551 0v38.807h98.633v-38.807zm99.549 0v38.807h70.531v-38.807zm-470.56 39.721v25.057h21.678v-25.057zm22.588 0v25.057h98.641v-25.057h-49.324zm99.549 0v25.057h98.641v-25.057h-49.322zm99.551 0v25.057h49.316v-25.057zm49.318 0v25.057h49.322v-25.057zm50.23 0v25.057h98.641v-25.057h-49.322zm99.551 0v25.057h49.316v-25.057zm49.318 0v25.057h49.322v-25.057zm50.23 0v25.057h20.758v-25.057z" fill="#ebedcb" fill-rule="evenodd" stroke="#f4f4ed" stroke-width=".91542"/>
   <g stroke="#b8b81a">
    <path d="m-2498.1-2073.8c-30.212 71.033-129.56-12.365-135.27 104.12-2.712 55.269-134.41-15.992-135.27 89.711v509.5h541.09v-509.5m-270.55-193.83c30.212 71.033 129.56-12.365 135.27 104.12 2.712 55.269 134.41-15.992 135.27 89.711" fill="none" stroke-linecap="round" stroke-linejoin="round" stroke-width="8"/>
    <path d="m-2498.2-2055.2c-15.871 19.276-42.443 24.12-66.141 24.16-17.281 0.7278-38.155 2.5507-48.5 18.516-10.647 15.802-8.379 35.647-12.764 53.283-6.0483 14.946-23.009 20.968-37.958 21.852-26.072 3.3592-54.559-1.6717-77.816 12.892-15.854 11.708-17.949 33.214-17.245 51.361 0.1439 163.72-0.011 327.44 0.049 491.16h521.09c-0.3865-170.75 0.8332-341.51-0.6679-512.24-1.7799-17.49-15.032-34.728-33.254-37.574-28.825-7.9202-61.159 1.0978-88.27-13.869-12.016-8.4067-14.312-24.138-14.124-37.726-1.797-16.929-8.8098-36.726-26.575-42.51-26.76-9.5439-57.842-0.7823-82.744-16.635-5.8015-3.061-10.791-8.6601-15.08-12.666z" fill="none" stroke-linecap="round" stroke-linejoin="round" stroke-width="2"/>
    <rect x="-2745.1" y="-1902.1" width="493.95" height="506.16" rx="19.303" ry="19.303" fill="#fff" fill-rule="evenodd" stroke-width="2.124"/>
   </g>
  </g>
 </g>
</svg>
