<svg width="149.42mm" height="149.42mm" version="1.1" viewBox="0 0 149.4234 149.4234" xmlns="http://www.w3.org/2000/svg" xmlns:xlink="http://www.w3.org/1999/xlink">
 <defs>
  <linearGradient id="linearGradient4596" x1="1008.8" x2="948.32" y1="197.65" y2="972.8" gradientTransform="matrix(.91314 0 0 .91314 153.04 9.3705)" gradientUnits="userSpaceOnUse">
   <stop offset="0"/>
   <stop stop-color="#fff" offset=".42667"/>
   <stop stop-color="#fff" offset=".59333"/>
   <stop offset="1"/>
  </linearGradient>
  <linearGradient id="linearGradient4604" x1="1313.8" x2="766.75" y1="573.56" y2="629.52" gradientTransform="matrix(.89886 0 0 .89886 165.66 17.671)" gradientUnits="userSpaceOnUse">
   <stop offset="0"/>
   <stop stop-color="#fff" offset=".61496"/>
   <stop stop-color="#fff" stop-opacity="0" offset="1"/>
  </linearGradient>
  <linearGradient id="linearGradient4630" x1="1313.8" x2="696.51" y1="573.56" y2="599.87" gradientTransform="matrix(.89886 0 0 .89886 -1852.6 -827.92)" gradientUnits="userSpaceOnUse">
   <stop offset="0"/>
   <stop stop-color="#fff" offset=".51763"/>
   <stop stop-color="#fff" stop-opacity="0" offset="1"/>
  </linearGradient>
  <linearGradient id="linearGradient4642" x1="956.84" x2="717.79" y1="1130.9" y2="115.67" gradientTransform="matrix(.8 0 0 .8 -1765.2 -770.48)" gradientUnits="userSpaceOnUse">
   <stop offset="0"/>
   <stop stop-color="#fff" offset="1"/>
  </linearGradient>
 </defs>
 <g transform="translate(-62.872 -51.443)">
  <g transform="matrix(.26458 0 0 .26458 -116.42 -16.72)">
   <g>
    <circle cx="960" cy="540" r="282.37" fill="url(#linearGradient4596)"/>
    <path d="m1238 540a277.96 277.96 0 0 1 -277.96 277.96 277.96 277.96 0 0 1 -277.96 -277.96 277.96 277.96 0 0 1 277.96 -277.96 277.96 277.96 0 0 1 277.96 277.96z" fill="url(#linearGradient4604)"/>
    <path transform="rotate(193.25)" d="m-780.25-305.6a277.96 277.96 0 0 1 -277.96 277.96 277.96 277.96 0 0 1 -277.96 -277.96 277.96 277.96 0 0 1 277.96 -277.96 277.96 277.96 0 0 1 277.96 277.96z" fill="url(#linearGradient4630)"/>
    <path transform="rotate(193.25)" d="m-810.82-305.6a247.39 247.39 0 0 1 -247.39 247.39 247.39 247.39 0 0 1 -247.39 -247.39 247.39 247.39 0 0 1 247.39 -247.39 247.39 247.39 0 0 1 247.39 247.39z" fill="url(#linearGradient4642)"/>
    <path transform="rotate(193.25)" d="m-817.18-305.6a241.03 241.03 0 0 1 -241.03 241.03 241.03 241.03 0 0 1 -241.03 -241.03 241.03 241.03 0 0 1 241.03 -241.03 241.03 241.03 0 0 1 241.03 241.03z" fill="#f9f9f9"/>
    <path id="rect4683" d="m958.55 306.44h2.9155v9.2324h-2.9155z"/>
    <path transform="rotate(193.25)" d="m-1057.8-305.61a0.42123 0.42123 0 0 1 -0.4213 0.42123 0.42123 0.42123 0 0 1 -0.4212 -0.42123 0.42123 0.42123 0 0 1 0.4212 -0.42123 0.42123 0.42123 0 0 1 0.4213 0.42123z" fill="#f00"/>
   </g>
   <use width="100%" height="100%" xlink:href="#rect4683"/>
   <use transform="rotate(6 960 540.02)" width="100%" height="100%" xlink:href="#rect4683"/>
   <use transform="rotate(12 960 540.02)" width="100%" height="100%" xlink:href="#rect4683"/>
   <use transform="rotate(18 960 540.02)" width="100%" height="100%" xlink:href="#rect4683"/>
   <use transform="rotate(24 960 540.02)" width="100%" height="100%" xlink:href="#rect4683"/>
   <use transform="rotate(30 960 540.02)" width="100%" height="100%" xlink:href="#rect4683"/>
   <use transform="rotate(36 960 540.02)" width="100%" height="100%" xlink:href="#rect4683"/>
   <use transform="rotate(42 960 540.02)" width="100%" height="100%" xlink:href="#rect4683"/>
   <use transform="rotate(48 960 540.02)" width="100%" height="100%" xlink:href="#rect4683"/>
   <use transform="rotate(54 960 540.02)" width="100%" height="100%" xlink:href="#rect4683"/>
   <use transform="rotate(60 960 540.02)" width="100%" height="100%" xlink:href="#rect4683"/>
   <use transform="rotate(66 960 540.02)" width="100%" height="100%" xlink:href="#rect4683"/>
   <use transform="rotate(72 960 540.02)" width="100%" height="100%" xlink:href="#rect4683"/>
   <use transform="rotate(78 960 540.02)" width="100%" height="100%" xlink:href="#rect4683"/>
   <use transform="rotate(84 960 540.02)" width="100%" height="100%" xlink:href="#rect4683"/>
   <use transform="rotate(90 960 540.02)" width="100%" height="100%" xlink:href="#rect4683"/>
   <use transform="rotate(96 960 540.02)" width="100%" height="100%" xlink:href="#rect4683"/>
   <use transform="rotate(102 960 540.02)" width="100%" height="100%" xlink:href="#rect4683"/>
   <use transform="rotate(108 960 540.02)" width="100%" height="100%" xlink:href="#rect4683"/>
   <use transform="rotate(114 960 540.02)" width="100%" height="100%" xlink:href="#rect4683"/>
   <use transform="rotate(120 960 540.02)" width="100%" height="100%" xlink:href="#rect4683"/>
   <use transform="rotate(126 960 540.02)" width="100%" height="100%" xlink:href="#rect4683"/>
   <use transform="rotate(132 960 540.02)" width="100%" height="100%" xlink:href="#rect4683"/>
   <use transform="rotate(138 960 540.02)" width="100%" height="100%" xlink:href="#rect4683"/>
   <use transform="rotate(144 960 540.02)" width="100%" height="100%" xlink:href="#rect4683"/>
   <use transform="rotate(150 960 540.02)" width="100%" height="100%" xlink:href="#rect4683"/>
   <use transform="rotate(156 960 540.02)" width="100%" height="100%" xlink:href="#rect4683"/>
   <use transform="rotate(162 960 540.02)" width="100%" height="100%" xlink:href="#rect4683"/>
   <use transform="rotate(168 960 540.02)" width="100%" height="100%" xlink:href="#rect4683"/>
   <use transform="rotate(174 960 540.02)" width="100%" height="100%" xlink:href="#rect4683"/>
   <use transform="rotate(180 960 540.02)" width="100%" height="100%" xlink:href="#rect4683"/>
   <use transform="rotate(186 960 540.02)" width="100%" height="100%" xlink:href="#rect4683"/>
   <use transform="rotate(192 960 540.02)" width="100%" height="100%" xlink:href="#rect4683"/>
   <use transform="rotate(198 960 540.02)" width="100%" height="100%" xlink:href="#rect4683"/>
   <use transform="rotate(204 960 540.02)" width="100%" height="100%" xlink:href="#rect4683"/>
   <use transform="rotate(210 960 540.02)" width="100%" height="100%" xlink:href="#rect4683"/>
   <use transform="rotate(216 960 540.02)" width="100%" height="100%" xlink:href="#rect4683"/>
   <use transform="rotate(222 960 540.02)" width="100%" height="100%" xlink:href="#rect4683"/>
   <use transform="rotate(228 960 540.02)" width="100%" height="100%" xlink:href="#rect4683"/>
   <use transform="rotate(234 960 540.02)" width="100%" height="100%" xlink:href="#rect4683"/>
   <use transform="rotate(240 960 540.02)" width="100%" height="100%" xlink:href="#rect4683"/>
   <use transform="rotate(246 960 540.02)" width="100%" height="100%" xlink:href="#rect4683"/>
   <use transform="rotate(252 960 540.02)" width="100%" height="100%" xlink:href="#rect4683"/>
   <use transform="rotate(258 960 540.02)" width="100%" height="100%" xlink:href="#rect4683"/>
   <use transform="rotate(264 960 540.02)" width="100%" height="100%" xlink:href="#rect4683"/>
   <use transform="rotate(-90 960 540.02)" width="100%" height="100%" xlink:href="#rect4683"/>
   <use transform="rotate(-84 960 540.02)" width="100%" height="100%" xlink:href="#rect4683"/>
   <use transform="rotate(-78 960 540.02)" width="100%" height="100%" xlink:href="#rect4683"/>
   <use transform="rotate(-72 960 540.02)" width="100%" height="100%" xlink:href="#rect4683"/>
   <use transform="rotate(-66 960 540.02)" width="100%" height="100%" xlink:href="#rect4683"/>
   <use transform="rotate(-60 960 540.02)" width="100%" height="100%" xlink:href="#rect4683"/>
   <use transform="rotate(-54 960 540.02)" width="100%" height="100%" xlink:href="#rect4683"/>
   <use transform="rotate(-48 960 540.02)" width="100%" height="100%" xlink:href="#rect4683"/>
   <use transform="rotate(-42 960 540.02)" width="100%" height="100%" xlink:href="#rect4683"/>
   <use transform="rotate(-36 960 540.02)" width="100%" height="100%" xlink:href="#rect4683"/>
   <use transform="rotate(-30 960 540.02)" width="100%" height="100%" xlink:href="#rect4683"/>
   <use transform="rotate(-24 960 540.02)" width="100%" height="100%" xlink:href="#rect4683"/>
   <use transform="rotate(-18 960 540.02)" width="100%" height="100%" xlink:href="#rect4683"/>
   <use transform="rotate(-12 960 540.02)" width="100%" height="100%" xlink:href="#rect4683"/>
   <use transform="rotate(-6 960 540.02)" width="100%" height="100%" xlink:href="#rect4683"/>
   <path id="rect5173" d="m956.82 306.09h6.364v24.749h-6.364z"/>
   <use width="100%" height="100%" xlink:href="#rect5173"/>
   <use transform="rotate(30 960 540.03)" width="100%" height="100%" xlink:href="#rect5173"/>
   <use transform="rotate(60 960 540.03)" width="100%" height="100%" xlink:href="#rect5173"/>
   <use transform="rotate(90 960 540.03)" width="100%" height="100%" xlink:href="#rect5173"/>
   <use transform="rotate(120 960 540.03)" width="100%" height="100%" xlink:href="#rect5173"/>
   <use transform="rotate(150 960 540.03)" width="100%" height="100%" xlink:href="#rect5173"/>
   <use transform="rotate(180 960 540.03)" width="100%" height="100%" xlink:href="#rect5173"/>
   <use transform="rotate(210 960 540.03)" width="100%" height="100%" xlink:href="#rect5173"/>
   <use transform="rotate(240 960 540.03)" width="100%" height="100%" xlink:href="#rect5173"/>
   <use transform="rotate(-90 960 540.03)" width="100%" height="100%" xlink:href="#rect5173"/>
   <use transform="rotate(-60 960 540.03)" width="100%" height="100%" xlink:href="#rect5173"/>
   <use transform="rotate(-30 960 540.03)" width="100%" height="100%" xlink:href="#rect5173"/>
   <path id="rect5199" d="m953.99 305.03h12.021v34.648h-12.021z"/>
   <use width="100%" height="100%" xlink:href="#rect5199"/>
   <use transform="rotate(90 960 540)" width="100%" height="100%" xlink:href="#rect5199"/>
   <use transform="rotate(180 960 540)" width="100%" height="100%" xlink:href="#rect5199"/>
   <use transform="rotate(-90 960 540)" width="100%" height="100%" xlink:href="#rect5199"/>
   <g>
    <g stroke-width="1px" style="font-feature-settings:normal;font-variant-caps:normal;font-variant-ligatures:normal;font-variant-numeric:normal" aria-label="12">
     <path d="m943.45 355.35v45.809h-6.5487v-39.26h-7.8584v-6.5487z" style="font-feature-settings:normal;font-variant-caps:normal;font-variant-ligatures:normal;font-variant-numeric:normal"/>
     <path d="m961.75 361.9v5.9098h-6.5487v-5.9098q0-1.3417 0.51111-2.5236 0.51112-1.2139 1.4056-2.0764 0.89446-0.89446 2.0764-1.4056 1.2139-0.54307 2.5556-0.54307h20.732q1.3417 0 2.5236 0.54307 1.2139 0.51111 2.0764 1.4056 0.89446 0.86251 1.4056 2.0764 0.54306 1.182 0.54306 2.5236v8.3696q0 1.3417-0.25556 2.3959t-0.83056 1.9167q-0.54307 0.83057-1.4056 1.5014t-2.1084 1.2778l-22.681 10.638v6.6126h21.563v-5.8778h6.5487v12.427h-34.66v-12.043q0-1.3417 0.25556-2.3959 0.2875-1.0542 0.83056-1.8848 0.54307-0.83056 1.4056-1.5014 0.89445-0.70279 2.0764-1.2778l22.713-10.67v-9.4876z" style="font-feature-settings:normal;font-variant-caps:normal;font-variant-ligatures:normal;font-variant-numeric:normal"/>
    </g>
    <g style="font-feature-settings:normal;font-variant-caps:normal;font-variant-ligatures:normal;font-variant-numeric:normal" aria-label="3">
     <path d="m1106.1 550.68h6.4209v2.4278q0 2.5875 1.15 3.8014 1.15 1.2139 3.7695 1.2139h13.193q2.6195 0 3.7695-1.2139 1.15-1.2139 1.15-3.8014v-3.5459q0-2.6195-1.15-3.8014t-3.7695-1.182h-13.545v-6.389h13.353q2.3958-0.0958 3.4181-1.2778 1.0541-1.2139 1.0541-3.7056v-3.0028q0-2.6195-1.1819-3.8334-1.15-1.2139-3.7376-1.2139h-11.915q-2.5875 0-3.7375 1.2139-1.1501 1.2139-1.1501 3.8334v2.4278h-6.4209v-2.7473q0-11.149 11.117-11.149h12.299q5.6542 0 8.3696 2.7473 2.7472 2.7473 2.7472 8.4015v0.83057q0 3.8653-1.3736 6.389-1.3417 2.4917-3.9292 3.7056 2.907 0.86251 4.4403 3.45 1.5334 2.5875 1.5334 6.8682v2.3q0 11.117-11.117 11.117h-13.608q-11.149 0-11.149-11.117z" stroke-width="1px" style="font-feature-settings:normal;font-variant-caps:normal;font-variant-ligatures:normal;font-variant-numeric:normal"/>
    </g>
    <g style="font-feature-settings:normal;font-variant-caps:normal;font-variant-ligatures:normal;font-variant-numeric:normal" aria-label="9">
     <path d="m814.36 552.53q0 1.3417-0.51112 2.5556-0.51112 1.182-1.4056 2.0764-0.89446 0.89446-2.1084 1.4056-1.182 0.51111-2.5236 0.51111h-20.924q-1.3417 0-2.5556-0.51111-1.182-0.51112-2.0764-1.4056-0.89446-0.89445-1.4056-2.0764-0.51112-1.2139-0.51112-2.5556v-5.8779h6.5487v5.8779h20.924v-13.065h-20.924q-1.3417 0-2.5556-0.51111-1.182-0.54307-2.0764-1.4056-0.89446-0.89445-1.4056-2.0764-0.51112-1.2139-0.51112-2.5556v-13.097q0-1.3417 0.51112-2.5236 0.51112-1.2139 1.4056-2.0764 0.89445-0.89446 2.0764-1.4056 1.2139-0.54307 2.5556-0.54307h20.924q1.3417 0 2.5236 0.54307 1.2139 0.51111 2.1084 1.4056 0.89445 0.86251 1.4056 2.0764 0.51112 1.182 0.51112 2.5236zm-6.5487-19.614v-13.097h-20.924v13.097z" stroke-width="1px" style="font-feature-settings:normal;font-variant-caps:normal;font-variant-ligatures:normal;font-variant-numeric:normal"/>
    </g>
    <g style="font-feature-settings:normal;font-variant-caps:normal;font-variant-ligatures:normal;font-variant-numeric:normal" aria-label="6">
     <path d="m943.13 681.75q0-1.3417 0.51111-2.5236 0.51112-1.2139 1.4056-2.0764 0.89445-0.89445 2.0764-1.4056 1.2139-0.54307 2.5556-0.54307h20.924q1.3417 0 2.5236 0.54307 1.2139 0.51112 2.1084 1.4056 0.89445 0.86251 1.4056 2.0764 0.51112 1.182 0.51112 2.5236v5.9098h-6.5487v-5.9098h-20.924v13.097h20.924q1.3417 0 2.5236 0.51112 1.2139 0.51111 2.1084 1.4056 0.89445 0.89446 1.4056 2.1084 0.51112 1.182 0.51112 2.5236v13.065q0 1.3417-0.51112 2.5556-0.51112 1.182-1.4056 2.0764-0.89446 0.89446-2.1084 1.4056-1.182 0.51111-2.5236 0.51111h-20.924q-1.3417 0-2.5556-0.51111-1.182-0.51112-2.0764-1.4056-0.89446-0.89445-1.4056-2.0764-0.51111-1.2139-0.51111-2.5556zm6.5487 19.646v13.065h20.924v-13.065z" stroke-width="1px" style="font-feature-settings:normal;font-variant-caps:normal;font-variant-ligatures:normal;font-variant-numeric:normal"/>
    </g>
   </g>
   <text x="580.90204" y="684.62366" fill="#000000" font-family="sans-serif" font-size="40px" letter-spacing="0px" stroke-width="1px" word-spacing="0px" style="line-height:125%" xml:space="preserve"><tspan x="580.90204" y="720.01428"/></text>
  </g>
 </g>
</svg>
