<?xml version="1.0" encoding="UTF-8" standalone="no"?>
<svg
   xmlns:dc="http://purl.org/dc/elements/1.1/"
   xmlns:cc="http://creativecommons.org/ns#"
   xmlns:rdf="http://www.w3.org/1999/02/22-rdf-syntax-ns#"
   xmlns:svg="http://www.w3.org/2000/svg"
   xmlns="http://www.w3.org/2000/svg"
   xmlns:sodipodi="http://sodipodi.sourceforge.net/DTD/sodipodi-0.dtd"
   xmlns:inkscape="http://www.inkscape.org/namespaces/inkscape"
   width="100"
   height="100"
   viewBox="0 0 100 100"
   version="1.1"
   id="svg8"
   inkscape:version="1.0.1 (c497b03c, 2020-09-10)"
   sodipodi:docname="ui_mobile_icon_circle_info.svg">
  <defs
     id="defs2" />
  <sodipodi:namedview
     id="base"
     pagecolor="#ffffff"
     bordercolor="#666666"
     borderopacity="1.0"
     inkscape:pageopacity="0.0"
     inkscape:pageshadow="2"
     inkscape:zoom="6.47"
     inkscape:cx="42.735703"
     inkscape:cy="50"
     inkscape:document-units="px"
     inkscape:current-layer="layer1"
     inkscape:document-rotation="0"
     showgrid="false"
     units="px"
     showborder="true"
     inkscape:showpageshadow="false"
     inkscape:window-width="1440"
     inkscape:window-height="855"
     inkscape:window-x="0"
     inkscape:window-y="23"
     inkscape:window-maximized="0" />
  <metadata
     id="metadata5">
    <rdf:RDF>
      <cc:Work
         rdf:about="">
        <dc:format>image/svg+xml</dc:format>
        <dc:type
           rdf:resource="http://purl.org/dc/dcmitype/StillImage" />
        <dc:title />
      </cc:Work>
    </rdf:RDF>
  </metadata>
  <g
     inkscape:label="Layer 1"
     inkscape:groupmode="layer"
     id="layer1">
    <path
       id="path841"
       style="opacity:1;fill:#000000;fill-opacity:1;stroke:none;stroke-width:4.92952;stroke-linecap:round;stroke-linejoin:round"
       d="M 49.755859 2 A 48 48 0 0 0 2 50 A 48 48 0 0 0 50 98 A 48 48 0 0 0 98 50 A 48 48 0 0 0 50 2 A 48 48 0 0 0 49.755859 2 z M 50 15.222656 A 5.2630467 5.2630467 0 0 1 55.263672 20.484375 A 5.2630467 5.2630467 0 0 1 50 25.748047 A 5.2630467 5.2630467 0 0 1 44.736328 20.484375 A 5.2630467 5.2630467 0 0 1 50 15.222656 z M 48.142578 31.515625 L 51.857422 31.515625 C 53.743899 31.515625 55.263672 32.612887 55.263672 33.976562 L 55.263672 82.316406 C 55.263672 83.680081 53.743899 84.777344 51.857422 84.777344 L 48.142578 84.777344 C 46.256102 84.777344 44.736328 83.680081 44.736328 82.316406 L 44.736328 33.976562 C 44.736328 32.612887 46.256102 31.515625 48.142578 31.515625 z " />
  </g>
</svg>
