<?xml version="1.0" encoding="UTF-8" standalone="no"?>
<svg
   xmlns:dc="http://purl.org/dc/elements/1.1/"
   xmlns:cc="http://creativecommons.org/ns#"
   xmlns:rdf="http://www.w3.org/1999/02/22-rdf-syntax-ns#"
   xmlns:svg="http://www.w3.org/2000/svg"
   xmlns="http://www.w3.org/2000/svg"
   xmlns:sodipodi="http://sodipodi.sourceforge.net/DTD/sodipodi-0.dtd"
   xmlns:inkscape="http://www.inkscape.org/namespaces/inkscape"
   width="1080"
   height="2400"
   viewBox="0 0 1080 2400"
   version="1.1"
   id="svg1395"
   inkscape:version="1.0.1 (c497b03c, 2020-09-10)"
   sodipodi:docname="ui_mobile_settings_screen.svg"
   inkscape:export-filename="/Users/sheraz/Desktop/setting_screen_v1.png"
   inkscape:export-xdpi="50"
   inkscape:export-ydpi="50">
  <defs
     id="defs1389">
    <marker
       style="overflow:visible;"
       id="Arrow1Lend"
       refX="0.0"
       refY="0.0"
       orient="auto"
       inkscape:stockid="Arrow1Lend"
       inkscape:isstock="true">
      <path
         transform="scale(0.8) rotate(180) translate(12.5,0)"
         style="fill-rule:evenodd;stroke:#000000;stroke-width:1.0pt;"
         d="M 0.0,0.0 L 5.0,-5.0 L -12.5,0.0 L 5.0,5.0 L 0.0,0.0 z "
         id="path3705" />
    </marker>
  </defs>
  <sodipodi:namedview
     id="base"
     pagecolor="#ffffff"
     bordercolor="#666666"
     borderopacity="1.0"
     inkscape:pageopacity="0.0"
     inkscape:pageshadow="2"
     inkscape:zoom="0.26958333"
     inkscape:cx="622.42737"
     inkscape:cy="1200"
     inkscape:document-units="px"
     inkscape:current-layer="layer1"
     inkscape:document-rotation="0"
     showgrid="false"
     units="px"
     inkscape:showpageshadow="false"
     inkscape:window-width="1440"
     inkscape:window-height="855"
     inkscape:window-x="0"
     inkscape:window-y="23"
     inkscape:window-maximized="1"
     inkscape:snap-global="false" />
  <metadata
     id="metadata1392">
    <rdf:RDF>
      <cc:Work
         rdf:about="">
        <dc:format>image/svg+xml</dc:format>
        <dc:type
           rdf:resource="http://purl.org/dc/dcmitype/StillImage" />
        <dc:title></dc:title>
      </cc:Work>
    </rdf:RDF>
  </metadata>
  <g
     inkscape:label="Layer 1"
     inkscape:groupmode="layer"
     id="layer1">
    <rect
       style="fill:#183c5b;fill-opacity:1;stroke:none;stroke-width:8;stroke-linecap:round"
       id="rect3005"
       width="1080"
       height="2400"
       x="0"
       y="0" />
    <rect
       style="fill:#0c274b;fill-opacity:1;stroke:none;stroke-width:10.8337;stroke-linecap:round"
       id="rect3007"
       width="1080"
       height="185.47141"
       x="0"
       y="0" />
    <path
       id="rect851"
       style="fill:#ffffff;fill-opacity:1;stroke-width:3.39996;stroke-linecap:round;stroke-opacity:0.818548"
       d="M 48.916836,134.20817 26,103.68162 49.201879,73.405437 l 7.044069,6.23382 -18.474784,24.107313 18.247242,24.30634 z" />
    <text
       xml:space="preserve"
       style="font-style:normal;font-weight:normal;font-size:47.535px;line-height:1.25;font-family:sans-serif;fill:#000000;fill-opacity:1;stroke:none;stroke-width:1.18838"
       x="82.399986"
       y="118.92484"
       id="text3593"><tspan
         sodipodi:role="line"
         id="tspan3591"
         x="82.399986"
         y="118.92484"
         style="fill:#ffffff;fill-opacity:1;stroke-width:1.18838">Salah</tspan></text>
    <text
       xml:space="preserve"
       style="font-style:normal;font-weight:normal;font-size:40px;line-height:1.25;font-family:sans-serif;fill:#000000;fill-opacity:1;stroke:none"
       x="760.79999"
       y="-121.2"
       id="text3597"><tspan
         sodipodi:role="line"
         id="tspan3595"
         x="760.79999"
         y="-121.2"></tspan></text>
    <text
       xml:space="preserve"
       style="font-style:normal;font-weight:normal;font-size:47.535px;line-height:1.25;font-family:sans-serif;fill:#000000;fill-opacity:1;stroke:none;stroke-width:1.18838"
       x="441.48325"
       y="118.92484"
       id="text3601"><tspan
         sodipodi:role="line"
         id="tspan3599"
         x="441.48325"
         y="118.92484"
         style="fill:#ffffff;fill-opacity:1;stroke-width:1.18838">Settings</tspan></text>
    <text
       xml:space="preserve"
       style="font-style:normal;font-weight:normal;font-size:47.535px;line-height:1.25;font-family:sans-serif;fill:#000000;fill-opacity:1;stroke:none;stroke-width:1.18838"
       x="81.483253"
       y="312.92484"
       id="text3605"><tspan
         sodipodi:role="line"
         id="tspan3603"
         x="81.483253"
         y="312.92484"
         style="fill:#ffffff;fill-opacity:1;stroke-width:1.18838">Reset Masjid</tspan></text>
    <path
       id="path3675"
       style="color:#000000;font-style:normal;font-variant:normal;font-weight:normal;font-stretch:normal;font-size:medium;line-height:normal;font-family:sans-serif;font-variant-ligatures:normal;font-variant-position:normal;font-variant-caps:normal;font-variant-numeric:normal;font-variant-alternates:normal;font-variant-east-asian:normal;font-feature-settings:normal;font-variation-settings:normal;text-indent:0;text-align:start;text-decoration:none;text-decoration-line:none;text-decoration-style:solid;text-decoration-color:#000000;letter-spacing:normal;word-spacing:normal;text-transform:none;writing-mode:lr-tb;direction:ltr;text-orientation:mixed;dominant-baseline:auto;baseline-shift:baseline;text-anchor:start;white-space:normal;shape-padding:0;shape-margin:0;inline-size:0;clip-rule:nonzero;display:inline;overflow:visible;visibility:visible;isolation:auto;mix-blend-mode:normal;color-interpolation:sRGB;color-interpolation-filters:linearRGB;solid-color:#000000;solid-opacity:1;vector-effect:none;fill:#ffffff;fill-opacity:1;fill-rule:nonzero;stroke:none;stroke-width:4.25252;stroke-linecap:round;stroke-linejoin:miter;stroke-miterlimit:4;stroke-dasharray:none;stroke-dashoffset:0;stroke-opacity:1;color-rendering:auto;image-rendering:auto;shape-rendering:auto;text-rendering:auto;enable-background:accumulate;stop-color:#000000"
       d="m 948.68415,265.69149 c -1.24586,0.0198 -2.08514,0.61911 -2.72954,1.38788 v 2.8e-4 l -4.32949,5.16588 c -5.21878,-2.85417 -10.97852,-4.18777 -16.67316,-4.02384 -7.96557,0.2293 -15.80768,3.35054 -21.84763,9.17089 -10.73771,10.34733 -13.14738,26.69698 -5.85137,39.70214 7.29604,13.00515 22.50535,19.47082 36.93273,15.70028 14.42742,-3.77055 24.52815,-16.85106 24.52815,-31.76298 0,-2.71485 -2.24642,-4.96128 -4.96127,-4.96128 -2.71486,0 -4.96128,2.24643 -4.96128,4.96128 0,10.44778 -7.00649,19.5212 -17.11476,22.16296 -10.10823,2.64175 -20.65802,-1.84341 -25.76984,-10.95523 -5.11182,-9.11181 -3.44039,-20.45266 4.08281,-27.70232 6.76949,-6.52338 16.67039,-8.17048 25.08214,-4.47235 l -3.04183,3.6296 c -0.67349,0.80372 -1.0737,1.78249 -0.88955,2.92859 0.0921,0.57305 0.37653,1.2141 0.9153,1.69021 0.53877,0.47612 1.28866,0.70663 1.93218,0.69602 l 8.2747,-0.13649 8.27471,-0.13649 c 1.25215,-0.0207 2.09335,-0.62545 2.73811,-1.4009 v -2.8e-4 c 0.63714,-0.76655 1.07549,-1.69338 0.87903,-2.91558 v -2.8e-4 l -1.3123,-8.17089 -1.3123,-8.17088 v -2.8e-4 c -0.19752,-1.22859 -1.60078,-2.40558 -2.84527,-2.38596 z" />
    <path
       style="fill:none;stroke:#ffffff;stroke-width:9.57115;stroke-linecap:butt;stroke-linejoin:miter;stroke-miterlimit:4;stroke-dasharray:none;stroke-opacity:0.512097"
       d="M -1.75e-5,411.18824 H 1080"
       id="path3682" />
    <text
       xml:space="preserve"
       style="font-style:normal;font-weight:normal;font-size:47.535px;line-height:1.25;font-family:sans-serif;fill:#000000;fill-opacity:1;stroke:none;stroke-width:1.18838"
       x="81.483253"
       y="550.9248"
       id="text3696"><tspan
         sodipodi:role="line"
         id="tspan3694"
         x="81.483253"
         y="550.9248"
         style="fill:#ffffff;fill-opacity:1;stroke-width:1.18838">Azan Reminder</tspan></text>
    <circle
       style="fill:none;fill-opacity:1;stroke:#ffffff;stroke-width:10;stroke-linecap:round;stroke-linejoin:round;stroke-miterlimit:4;stroke-dasharray:none;stroke-opacity:1"
       id="circle3978"
       cx="927.08301"
       cy="800.15497"
       r="28.642221" />
    <path
       id="path3998"
       style="color:#000000;font-style:normal;font-variant:normal;font-weight:normal;font-stretch:normal;font-size:medium;line-height:normal;font-family:sans-serif;font-variant-ligatures:normal;font-variant-position:normal;font-variant-caps:normal;font-variant-numeric:normal;font-variant-alternates:normal;font-variant-east-asian:normal;font-feature-settings:normal;font-variation-settings:normal;text-indent:0;text-align:start;text-decoration:none;text-decoration-line:none;text-decoration-style:solid;text-decoration-color:#000000;letter-spacing:normal;word-spacing:normal;text-transform:none;writing-mode:lr-tb;direction:ltr;text-orientation:mixed;dominant-baseline:auto;baseline-shift:baseline;text-anchor:start;white-space:normal;shape-padding:0;shape-margin:0;inline-size:0;clip-rule:nonzero;display:inline;overflow:visible;visibility:visible;isolation:auto;mix-blend-mode:normal;color-interpolation:sRGB;color-interpolation-filters:linearRGB;solid-color:#000000;solid-opacity:1;vector-effect:none;fill:#ffffff;fill-opacity:1;fill-rule:nonzero;stroke:none;stroke-width:11.9573;stroke-linecap:round;stroke-linejoin:miter;stroke-miterlimit:4;stroke-dasharray:none;stroke-dashoffset:0;stroke-opacity:1;color-rendering:auto;image-rendering:auto;shape-rendering:auto;text-rendering:auto;enable-background:accumulate;stop-color:#000000;stop-opacity:1;opacity:1"
       d="m 963.92383,514.29102 a 5.9786501,5.9786501 0 0 0 -4.85156,2.54492 l -30.38282,43.30273 -10.2832,-10.25781 a 5.9786501,5.9786501 0 0 0 -8.45508,0.01 5.9786501,5.9786501 0 0 0 0.01,8.45508 l 20.34961,20.30078 38.55078,-54.9414 a 5.9786501,5.9786501 0 0 0 -1.46094,-8.32813 5.9786501,5.9786501 0 0 0 -3.47656,-1.08593 z m -38.03516,11.84375 c -18.52086,0 -33.64258,15.11976 -33.64258,33.64062 0,18.52086 15.12172,33.64258 33.64258,33.64258 18.52086,0 33.64258,-15.12172 33.64258,-33.64258 0,-4.69707 -0.97649,-9.17377 -2.73047,-13.24219 l -7.42187,10.57618 c 0.097,0.87509 0.15234,1.7638 0.15234,2.66601 0,13.11646 -10.52612,23.64258 -23.64258,23.64258 -13.11646,0 -23.64258,-10.52612 -23.64258,-23.64258 0,-13.11646 10.52612,-23.64062 23.64258,-23.64062 4.96359,0 9.55407,1.50937 13.34571,4.09375 l 5.71093,-8.13868 c -5.42518,-3.75002 -11.99138,-5.95507 -19.05664,-5.95507 z" />
    <path
       style="fill:none;stroke:#ff0000;stroke-width:11.9573;stroke-linecap:round;stroke-linejoin:miter;stroke-miterlimit:4;stroke-dasharray:none;stroke-opacity:1"
       d="m 780.8357,562.20188 15.3163,15.28016 34.4677,-49.12245"
       id="path3983"
       sodipodi:nodetypes="ccc" />
    <path
       style="fill:none;stroke:#ffffff;stroke-width:9.57115;stroke-linecap:butt;stroke-linejoin:miter;stroke-miterlimit:4;stroke-dasharray:none;stroke-opacity:0.512097"
       d="M -1.75e-5,670.1883 H 1080"
       id="path4007" />
    <path
       style="fill:none;stroke:#ffffff;stroke-width:9.57115;stroke-linecap:butt;stroke-linejoin:miter;stroke-miterlimit:4;stroke-dasharray:none;stroke-opacity:0.512097"
       d="M -1.75e-5,929.1883 H 1080"
       id="path4009" />
    <text
       xml:space="preserve"
       style="font-style:normal;font-weight:normal;font-size:47.535px;line-height:1.25;font-family:sans-serif;fill:#000000;fill-opacity:1;stroke:none;stroke-width:1.18838"
       x="81.483253"
       y="814.9248"
       id="text4013"><tspan
         sodipodi:role="line"
         id="tspan4011"
         x="81.483253"
         y="814.9248"
         style="fill:#ffffff;fill-opacity:1;stroke-width:1.18838">10 Min Jamat Reminder</tspan></text>
  </g>
</svg>
