<?xml version="1.0" encoding="UTF-8" standalone="no"?>
<!-- Created with Inkscape (http://www.inkscape.org/) -->

<svg
   width="1242"
   height="2436"
   viewBox="0 0 1242.0001 2436.0001"
   version="1.1"
   id="svg5"
   inkscape:version="1.2.1 (9c6d41e, 2022-07-14)"
   sodipodi:docname="ui_mobile_expo_splash-screens.svg"
   inkscape:export-filename="../../../MasjidDashboardMobile3.0/MasjidDashboardMobile/assets/splash-screens.png"
   inkscape:export-xdpi="96"
   inkscape:export-ydpi="96"
   xmlns:inkscape="http://www.inkscape.org/namespaces/inkscape"
   xmlns:sodipodi="http://sodipodi.sourceforge.net/DTD/sodipodi-0.dtd"
   xmlns="http://www.w3.org/2000/svg"
   xmlns:svg="http://www.w3.org/2000/svg">
  <sodipodi:namedview
     id="namedview7"
     pagecolor="#ffffff"
     bordercolor="#000000"
     borderopacity="0.25"
     inkscape:showpageshadow="false"
     inkscape:pageopacity="0.0"
     inkscape:pagecheckerboard="0"
     inkscape:deskcolor="#d1d1d1"
     inkscape:document-units="mm"
     showgrid="false"
     inkscape:zoom="0.2084668"
     inkscape:cx="28.781561"
     inkscape:cy="1240.0056"
     inkscape:window-width="1728"
     inkscape:window-height="1051"
     inkscape:window-x="0"
     inkscape:window-y="44"
     inkscape:window-maximized="0"
     inkscape:current-layer="layer1"
     showborder="true" />
  <defs
     id="defs2" />
  <g
     inkscape:label="Layer 1"
     inkscape:groupmode="layer"
     id="layer1">
    <rect
       style="fill:#0c274b;stroke-width:1.64585;fill-opacity:1"
       id="rect8924"
       width="1242.0001"
       height="2436.0002"
       x="3.6433419e-06"
       y="5.6843419e-14"
       inkscape:export-filename="../../../MasjidDashboardMobile3.0/MasjidDashboardMobile/assets/splash-screens.png"
       inkscape:export-xdpi="96"
       inkscape:export-ydpi="96" />
    <path
       id="path906"
       style="color:#000000;font-style:normal;font-variant:normal;font-weight:normal;font-stretch:normal;font-size:medium;line-height:normal;font-family:sans-serif;font-variant-ligatures:normal;font-variant-position:normal;font-variant-caps:normal;font-variant-numeric:normal;font-variant-alternates:normal;font-feature-settings:normal;text-indent:0;text-align:start;text-decoration:none;text-decoration-line:none;text-decoration-style:solid;text-decoration-color:#000000;letter-spacing:normal;word-spacing:normal;text-transform:none;writing-mode:lr-tb;direction:ltr;text-orientation:mixed;dominant-baseline:auto;baseline-shift:baseline;text-anchor:start;white-space:normal;shape-padding:0;clip-rule:nonzero;display:inline;overflow:visible;visibility:visible;isolation:auto;mix-blend-mode:normal;color-interpolation:sRGB;color-interpolation-filters:linearRGB;solid-color:#000000;solid-opacity:1;fill:#ffffff;fill-opacity:1;fill-rule:evenodd;stroke:none;stroke-width:3.1452;stroke-linecap:round;stroke-linejoin:round;stroke-miterlimit:2;stroke-dasharray:none;stroke-dashoffset:0;stroke-opacity:1;color-rendering:auto;image-rendering:auto;shape-rendering:auto;text-rendering:auto;enable-background:accumulate"
       d="m 620.28789,918.45197 c -2.38896,2.85076 -2.39689,7.97081 -6.67102,8.61593 -6.67607,2.42654 -9.9116,11.68571 -4.60993,17.03465 2.28581,1.8791 -3.3987,2.93087 -3.98559,5.1687 -2.73903,3.33126 -3.86652,8.06762 -2.37852,12.18396 -21.94199,2.95575 -43.18404,10.97103 -61.45086,23.50793 -17.38766,11.8828 -32.14079,27.68916 -42.62066,45.96806 -8.32321,14.1696 -13.87744,29.8605 -16.972,45.9762 1.13196,3.0011 5.95222,1.957 8.57186,3.2275 65.43098,13.9751 133.09819,16.3809 199.59124,9.8103 23.40015,-2.4289 46.68438,-6.1341 69.59119,-11.5217 2.19258,-2.8301 -1.12221,-7.2602 -1.17782,-10.7031 -4.65709,-19.3835 -13.78019,-37.5912 -25.97878,-53.3291 -14.25335,-17.99706 -32.81406,-32.60896 -53.85469,-41.85986 -12.35114,-5.55343 -25.57626,-9.19032 -38.96947,-11.06518 2.26467,-6.37322 -1.65658,-13.41268 -7.40593,-16.36855 6.01098,-4.64464 4.12612,-14.51683 -2.56221,-17.50084 -3.18879,-0.86981 -4.99867,-2.82657 -5.97827,-6.02641 -0.80624,-1.16033 -1.1375,-3.94908 -3.13854,-3.11849 z m 140.16652,169.61833 c -65.30509,14.9321 -133.05874,17.9291 -199.69068,12.3757 -26.63191,-2.3552 -53.15462,-6.3018 -79.19637,-12.3682 -3.27712,1.4538 -1.03968,6.903 -2.00218,9.9541 -0.15726,5.3204 -0.31785,10.9471 0.81046,16.0773 35.86389,8.5627 72.67612,13.1361 109.50755,14.8029 38.51687,1.9121 77.20377,0.2675 115.45581,-4.5516 18.72061,-2.4206 37.32522,-5.7193 55.72237,-9.9479 2.21869,-2.8969 0.7473,-7.6052 1.48448,-11.2168 -0.16229,-4.9313 0.089,-10.1481 -1.03113,-14.8871 -0.35773,0.1185 -0.70307,-0.3341 -1.06031,-0.2384 z M 507.31503,924.74606 c -0.12549,3.23175 -1.3637,8.007 0.71069,10.49407 18.79124,0.20776 37.65238,0.0297 56.47049,0.089 2.58038,-2.13214 0.91405,-7.1863 0.99772,-10.3289 -3.288,-1.59248 -7.90251,-0.23474 -11.69141,-0.68544 -15.3514,0.1751 -30.85441,-0.34921 -46.1117,0.26035 z m 170.1209,0 c -0.12544,3.23175 -1.3637,8.007 0.71069,10.49407 18.79124,0.20776 37.65237,0.0297 56.47049,0.089 2.58038,-2.13214 0.91405,-7.1863 0.99772,-10.3289 -3.288,-1.59248 -7.90251,-0.23474 -11.69141,-0.68544 -15.35141,0.1751 -30.85441,-0.34921 -46.11164,0.26035 z m -16.50129,-38.48201 c -0.12544,3.23175 -1.36364,8.007 0.71075,10.49407 24.29163,0.20775 48.65321,0.0297 72.97172,0.089 2.58038,-2.13214 0.91405,-7.1863 0.99772,-10.3289 -3.288,-1.59249 -7.90251,-0.23474 -11.69141,-0.68544 -20.68006,0 -41.36019,0 -62.04026,0 l -0.57268,0.26035 z m -153.61961,0 c -0.12549,3.23175 -1.3637,8.007 0.71069,10.49407 24.2917,0.20775 48.65322,0.0297 72.97171,0.089 2.58039,-2.13214 0.91406,-7.1863 0.99772,-10.3289 -3.28799,-1.59249 -7.9025,-0.23474 -11.69139,-0.68544 -20.68008,0 -41.3602,0 -62.04026,0 l -0.57268,0.26035 z m -24.00429,-33.93048 a 3.1455143,3.1455143 0 0 0 -3.1452,3.1452 v 181.41663 a 3.1455143,3.1455143 0 0 0 6.02136,1.2728 c 19.9237,-45.04226 63.97625,-79.46213 112.77503,-86.7031 0.76341,-2.55337 2.10622,-4.93233 3.93522,-6.8666 -48.56969,5.41462 -92.82818,36.56494 -116.44121,79.0846 V 858.62397 h 269.07674 v 165.32073 c -23.5812,-42.60376 -67.2923,-74.29851 -116.32572,-79.17052 1.52008,2.02629 3.0065,4.30608 3.85904,6.78553 49.18501,6.66514 92.6791,41.71993 112.73824,86.86649 a 3.1455143,3.1455143 0 0 0 6.01884,-1.2765 V 855.47877 a 3.1455143,3.1455143 0 0 0 -3.1452,-3.1452 z" />
    <text
       xml:space="preserve"
       style="font-size:76.7824px;fill:#ffffff;fill-opacity:1;stroke-width:6.39853"
       x="276.62274"
       y="1373.8378"
       id="text6549"><tspan
         sodipodi:role="line"
         id="tspan6547"
         x="276.62274"
         y="1373.8378"
         style="fill:#ffffff;fill-opacity:1;stroke-width:6.39853">Masjid Dashboard</tspan></text>
    <path
       d="m 561.4493,1212.9607 c 16.15664,-1.0326 15.027,20.5001 0,19.2543 -90.01295,-7.4629 -184.88058,-6.5255 -277.32829,-9.6278 92.44771,-3.1631 187.29516,-3.8727 277.32829,-9.6265 z m 119.10144,0 c -16.15664,-1.0326 -15.027,20.5001 0,19.2543 90.01296,-7.4629 184.88059,-6.5255 277.32833,-9.6278 -92.44774,-3.1631 -187.29519,-3.8727 -277.32833,-9.6265 z m -73.48395,9.6352 a 10.244682,8.6341168 0 0 1 -10.24469,8.6341 10.244682,8.6341168 0 0 1 -10.24468,-8.6341 10.244682,8.6341168 0 0 1 10.24468,-8.6341 10.244682,8.6341168 0 0 1 10.24469,8.6341 z m 24.17792,0 a 10.244682,8.6341168 0 0 1 -10.24468,8.6341 10.244682,8.6341168 0 0 1 -10.24469,-8.6341 10.244682,8.6341168 0 0 1 10.24469,-8.6341 10.244682,8.6341168 0 0 1 10.24468,8.6341 z m 24.17791,0 a 10.244682,8.6341168 0 0 1 -10.24467,8.6341 10.244682,8.6341168 0 0 1 -10.24469,-8.6341 10.244682,8.6341168 0 0 1 10.24469,-8.6341 10.244682,8.6341168 0 0 1 10.24467,8.6341 z"
       id="path6914"
       style="stroke-width:1.61186;fill:#ffffff;fill-opacity:1" />
  </g>
</svg>
