<?xml version="1.0" encoding="UTF-8" standalone="no"?>
<svg
   xmlns:dc="http://purl.org/dc/elements/1.1/"
   xmlns:cc="http://creativecommons.org/ns#"
   xmlns:rdf="http://www.w3.org/1999/02/22-rdf-syntax-ns#"
   xmlns:svg="http://www.w3.org/2000/svg"
   xmlns="http://www.w3.org/2000/svg"
   xmlns:sodipodi="http://sodipodi.sourceforge.net/DTD/sodipodi-0.dtd"
   xmlns:inkscape="http://www.inkscape.org/namespaces/inkscape"
   width="100"
   height="100"
   viewBox="0 0 100 100"
   version="1.1"
   id="svg4030"
   inkscape:version="1.0.1 (c497b03c, 2020-09-10)"
   sodipodi:docname="ui_mobile_icon_reset.svg">
  <defs
     id="defs4024" />
  <sodipodi:namedview
     id="base"
     pagecolor="#ffffff"
     bordercolor="#666666"
     borderopacity="1.0"
     inkscape:pageopacity="0.0"
     inkscape:pageshadow="2"
     inkscape:zoom="6.47"
     inkscape:cx="50"
     inkscape:cy="50"
     inkscape:document-units="px"
     inkscape:current-layer="layer1"
     inkscape:document-rotation="0"
     showgrid="false"
     units="px"
     inkscape:showpageshadow="false"
     inkscape:window-width="1440"
     inkscape:window-height="855"
     inkscape:window-x="0"
     inkscape:window-y="23"
     inkscape:window-maximized="1" />
  <metadata
     id="metadata4027">
    <rdf:RDF>
      <cc:Work
         rdf:about="">
        <dc:format>image/svg+xml</dc:format>
        <dc:type
           rdf:resource="http://purl.org/dc/dcmitype/StillImage" />
        <dc:title></dc:title>
      </cc:Work>
    </rdf:RDF>
  </metadata>
  <g
     inkscape:label="Layer 1"
     inkscape:groupmode="layer"
     id="layer1">
    <path
       id="path3675"
       style="color:#000000;font-style:normal;font-variant:normal;font-weight:normal;font-stretch:normal;font-size:medium;line-height:normal;font-family:sans-serif;font-variant-ligatures:normal;font-variant-position:normal;font-variant-caps:normal;font-variant-numeric:normal;font-variant-alternates:normal;font-variant-east-asian:normal;font-feature-settings:normal;font-variation-settings:normal;text-indent:0;text-align:start;text-decoration:none;text-decoration-line:none;text-decoration-style:solid;text-decoration-color:#000000;letter-spacing:normal;word-spacing:normal;text-transform:none;writing-mode:lr-tb;direction:ltr;text-orientation:mixed;dominant-baseline:auto;baseline-shift:baseline;text-anchor:start;white-space:normal;shape-padding:0;shape-margin:0;inline-size:0;clip-rule:nonzero;display:inline;overflow:visible;visibility:visible;isolation:auto;mix-blend-mode:normal;color-interpolation:sRGB;color-interpolation-filters:linearRGB;solid-color:#000000;solid-opacity:1;vector-effect:none;fill:#000000;fill-opacity:1;fill-rule:nonzero;stroke:none;stroke-width:5.39695;stroke-linecap:round;stroke-linejoin:miter;stroke-miterlimit:4;stroke-dasharray:none;stroke-dashoffset:0;stroke-opacity:1;color-rendering:auto;image-rendering:auto;shape-rendering:auto;text-rendering:auto;enable-background:accumulate;stop-color:#000000"
       d="m 78.930262,6.7425955 c -1.581121,0.024955 -2.64627,0.7857209 -3.464099,1.7613813 v 3.553e-4 L 69.971541,15.060433 C 63.348312,11.438161 56.038535,9.7456637 48.81136,9.9537105 38.70211,10.244724 28.749565,14.205938 21.084166,21.592639 7.4567622,34.724598 4.3986085,55.474233 13.658095,71.979303 c 9.259548,16.50502 28.561933,24.710717 46.87194,19.92547 18.310053,-4.785292 31.12908,-21.38596 31.12908,-40.310943 0,-3.445442 -2.850992,-6.296433 -6.296433,-6.296433 -3.445489,0 -6.296432,2.850991 -6.296432,6.296433 0,13.259456 -8.892052,24.774704 -21.720624,28.127378 C 44.5171,83.073932 31.128183,77.381732 24.640699,65.81775 18.15319,54.253817 20.274442,39.860955 29.822241,30.66029 38.413541,22.381358 50.97892,20.290991 61.65442,24.984352 l -3.860449,4.60638 c -0.854719,1.020011 -1.362637,2.2622 -1.128944,3.716739 0.117045,0.72727 0.477747,1.54083 1.161608,2.14507 0.683764,0.604231 1.63547,0.89678 2.452197,0.883302 l 10.501521,-0.173163 10.50157,-0.173166 c 1.589133,-0.02398 2.656726,-0.793797 3.474989,-1.77793 v -3.34e-4 c 0.80862,-0.972858 1.364936,-2.149096 1.115607,-3.700193 v -3.82e-4 L 84.20707,20.140875 82.541574,9.7710822 V 9.7707268 C 82.290708,8.2115 80.509995,6.7177629 78.930599,6.7426625 Z" />
  </g>
</svg>
