<?xml version="1.0" encoding="UTF-8" standalone="no"?>
<svg
   xmlns:dc="http://purl.org/dc/elements/1.1/"
   xmlns:cc="http://creativecommons.org/ns#"
   xmlns:rdf="http://www.w3.org/1999/02/22-rdf-syntax-ns#"
   xmlns:svg="http://www.w3.org/2000/svg"
   xmlns="http://www.w3.org/2000/svg"
   xmlns:sodipodi="http://sodipodi.sourceforge.net/DTD/sodipodi-0.dtd"
   xmlns:inkscape="http://www.inkscape.org/namespaces/inkscape"
   width="100"
   height="100"
   viewBox="0 0 100 100"
   version="1.1"
   id="svg4030"
   inkscape:version="1.0.1 (c497b03c, 2020-09-10)"
   sodipodi:docname="ui_mobile_icon_check.svg">
  <defs
     id="defs4024" />
  <sodipodi:namedview
     id="base"
     pagecolor="#ffffff"
     bordercolor="#666666"
     borderopacity="1.0"
     inkscape:pageopacity="0.0"
     inkscape:pageshadow="2"
     inkscape:zoom="6.47"
     inkscape:cx="50"
     inkscape:cy="50"
     inkscape:document-units="px"
     inkscape:current-layer="layer1"
     inkscape:document-rotation="0"
     showgrid="false"
     units="px"
     inkscape:showpageshadow="false"
     inkscape:window-width="1440"
     inkscape:window-height="855"
     inkscape:window-x="0"
     inkscape:window-y="23"
     inkscape:window-maximized="1" />
  <metadata
     id="metadata4027">
    <rdf:RDF>
      <cc:Work
         rdf:about="">
        <dc:format>image/svg+xml</dc:format>
        <dc:type
           rdf:resource="http://purl.org/dc/dcmitype/StillImage" />
        <dc:title></dc:title>
      </cc:Work>
    </rdf:RDF>
  </metadata>
  <g
     inkscape:label="Layer 1"
     inkscape:groupmode="layer"
     id="layer1">
    <path
       id="path3998"
       style="color:#000000;font-style:normal;font-variant:normal;font-weight:normal;font-stretch:normal;font-size:medium;line-height:normal;font-family:sans-serif;font-variant-ligatures:normal;font-variant-position:normal;font-variant-caps:normal;font-variant-numeric:normal;font-variant-alternates:normal;font-variant-east-asian:normal;font-feature-settings:normal;font-variation-settings:normal;text-indent:0;text-align:start;text-decoration:none;text-decoration-line:none;text-decoration-style:solid;text-decoration-color:#000000;letter-spacing:normal;word-spacing:normal;text-transform:none;writing-mode:lr-tb;direction:ltr;text-orientation:mixed;dominant-baseline:auto;baseline-shift:baseline;text-anchor:start;white-space:normal;shape-padding:0;shape-margin:0;inline-size:0;clip-rule:nonzero;display:inline;overflow:visible;visibility:visible;opacity:1;isolation:auto;mix-blend-mode:normal;color-interpolation:sRGB;color-interpolation-filters:linearRGB;solid-color:#000000;solid-opacity:1;vector-effect:none;fill:#000000;fill-opacity:1;fill-rule:nonzero;stroke:none;stroke-width:11.9573;stroke-linecap:round;stroke-linejoin:miter;stroke-miterlimit:4;stroke-dasharray:none;stroke-dashoffset:0;stroke-opacity:1;color-rendering:auto;image-rendering:auto;shape-rendering:auto;text-rendering:auto;enable-background:accumulate;stop-color:#000000;stop-opacity:1"
       d="m 86.827843,6.436525 a 5.9786501,5.9786501 0 0 0 -4.85156,2.54492 l -30.38282,43.30273 -10.2832,-10.25781 a 5.9786501,5.9786501 0 0 0 -8.45508,0.01 5.9786501,5.9786501 0 0 0 0.01,8.45508 l 20.34961,20.30078 38.55078,-54.9414 a 5.9786501,5.9786501 0 0 0 -1.46094,-8.32813 5.9786501,5.9786501 0 0 0 -3.47656,-1.08593 z m -38.03516,11.84375 c -18.52086,0 -33.64258,15.11976 -33.64258,33.64062 0,18.52086 15.12172,33.64258 33.64258,33.64258 18.52086,0 33.64258,-15.12172 33.64258,-33.64258 0,-4.69707 -0.97649,-9.17377 -2.73047,-13.24219 l -7.42187,10.57618 c 0.097,0.87509 0.15234,1.7638 0.15234,2.66601 0,13.11646 -10.52612,23.64258 -23.64258,23.64258 -13.11646,0 -23.64258,-10.52612 -23.64258,-23.64258 0,-13.11646 10.52612,-23.64062 23.64258,-23.64062 4.96359,0 9.55407,1.50937 13.34571,4.09375 l 5.71093,-8.13868 c -5.42518,-3.75002 -11.99138,-5.95507 -19.05664,-5.95507 z" />
  </g>
</svg>
