<?xml version="1.0" encoding="UTF-8" standalone="no"?>
<!-- Created with Inkscape (http://www.inkscape.org/) -->

<svg
   xmlns:dc="http://purl.org/dc/elements/1.1/"
   xmlns:cc="http://creativecommons.org/ns#"
   xmlns:rdf="http://www.w3.org/1999/02/22-rdf-syntax-ns#"
   xmlns:svg="http://www.w3.org/2000/svg"
   xmlns="http://www.w3.org/2000/svg"
   xmlns:sodipodi="http://sodipodi.sourceforge.net/DTD/sodipodi-0.dtd"
   xmlns:inkscape="http://www.inkscape.org/namespaces/inkscape"
   width="512"
   height="256"
   viewBox="0 0 512.00001 256"
   id="svg2"
   version="1.1"
   inkscape:version="0.91 r13725"
   sodipodi:docname="gp_logo.svg">
  <defs
     id="defs4" />
  <sodipodi:namedview
     id="base"
     pagecolor="#ffffff"
     bordercolor="#666666"
     borderopacity="1.0"
     inkscape:pageopacity="0.0"
     inkscape:pageshadow="2"
     inkscape:zoom="1.6230469"
     inkscape:cx="102.27678"
     inkscape:cy="128"
     inkscape:document-units="px"
     inkscape:current-layer="layer1"
     showgrid="false"
     units="px"
     width="512px"
     borderlayer="true"
     inkscape:showpageshadow="false"
     inkscape:window-width="1440"
     inkscape:window-height="851"
     inkscape:window-x="0"
     inkscape:window-y="1"
     inkscape:window-maximized="1" />
  <metadata
     id="metadata7">
    <rdf:RDF>
      <cc:Work
         rdf:about="">
        <dc:format>image/svg+xml</dc:format>
        <dc:type
           rdf:resource="http://purl.org/dc/dcmitype/StillImage" />
        <dc:title />
      </cc:Work>
    </rdf:RDF>
  </metadata>
  <g
     inkscape:label="Layer 1"
     inkscape:groupmode="layer"
     id="layer1"
     transform="translate(0,-796.36214)">
    <g
       id="g5684">
      <circle
         r="124"
         cy="924.36212"
         cx="128.86472"
         id="path5682"
         style="opacity:1;fill:#ffffff;fill-opacity:1;stroke:none;stroke-width:8;stroke-miterlimit:4;stroke-dasharray:none;stroke-opacity:1" />
      <g
         transform="matrix(1.1438019,0,0,1.1438019,-163.94854,-132.92504)"
         id="g4324">
        <path
           style="fill:#7291c9"
           d="m 249.56754,1033.5324 c -0.66,-0.065 -2.7525,-0.267 -4.65,-0.4479 -12.82578,-1.223 -25.88747,-5.076 -38.10004,-11.2388 -10.7521,-5.4259 -19.3121,-11.6295 -27.9092,-20.2267 -8.5972,-8.5971 -14.8008,-17.15708 -20.2267,-27.90924 -14.2087,-28.15664 -15.6943,-60.21006 -4.1504,-89.55 5.4607,-13.87885 13.6567,-26.33891 24.3771,-37.05926 8.9673,-8.96729 17.4819,-15.05424 28.9592,-20.70245 14.07972,-6.92886 26.61509,-10.17859 42.89954,-11.1215 26.11803,-1.51229 52.70195,7.09963 73.8005,23.90783 4.06539,3.2387 13.30474,12.45016 16.46608,16.41637 13.60815,17.07274 21.94191,37.46522 23.9038,58.49194 0.45237,4.84827 0.19496,19.16719 -0.42725,23.76707 -1.13173,8.36668 -2.63749,14.96109 -4.99639,21.88151 -5.4784,16.0723 -13.97748,29.74611 -25.93992,41.73363 -8.64043,8.6586 -17.28565,14.9356 -28.05632,20.3708 -11.86187,5.9859 -23.46404,9.4888 -36.9,11.1408 -3.53603,0.4348 -16.43913,0.8045 -19.05,0.5459 z m 26.85,-18.3128 c 16.83015,-1.8633 32.3731,-7.7827 46.63612,-17.76092 3.83294,-2.68146 5.64115,-4.39656 9.32539,-8.84521 18.68228,-22.55843 26.59373,-51.28831 22.0205,-79.9659 -2.87233,-18.01168 -10.83766,-35.16635 -22.79269,-49.08781 -3.07559,-3.58148 -9.64646,-9.94723 -13.18932,-12.77759 -14.05019,-11.22459 -30.10405,-18.22106 -48.15,-20.98435 -5.29711,-0.81113 -17.46192,-1.13539 -23.16985,-0.61761 -18.72439,1.69853 -36.66517,8.63528 -51.48119,19.90506 -4.3443,3.30446 -9.3145,7.72242 -10.6547,9.47094 -10.6717,13.92237 -17.4559,30.7478 -19.7431,48.96419 -0.7115,5.6671 -0.7087,17.55563 0,23.23936 2.4329,19.36218 9.6739,36.60161 21.6734,51.6 3.4034,4.25402 11.0537,11.89949 15.2701,15.26044 21.29289,16.9731 47.41098,24.5709 74.24997,21.5994 z m -6.46364,-40.14621 c -0.89991,-0.8999 -0.9394,-1.92459 -0.11459,-2.97317 1.25089,-1.59024 3.87823,-0.56481 3.87823,1.51363 0,0.95395 -1.27255,2.19591 -2.25,2.19591 -0.4275,0 -1.10864,-0.33137 -1.51364,-0.73637 z m 8.5856,-0.0672 c -2.13184,-1.11934 -3.02483,-2.69442 -3.01537,-5.31857 0.015,-4.15596 2.5158,-6.5496 6.8452,-6.55184 2.31057,-10e-4 2.80559,0.371 2.49248,1.87402 l -0.21874,1.05 -1.75631,0.0212 c -1.58401,0.0191 -1.84035,0.11524 -2.61277,0.97973 -0.676,0.75658 -0.85645,1.24613 -0.85645,2.32352 0,0.75075 0.139,1.62472 0.30889,1.94217 0.49909,0.93255 2.005,1.5428 3.53541,1.43268 1.37761,-0.0991 1.38058,-0.0972 1.65347,1.05012 0.37091,1.55947 0.0276,1.81814 -2.58243,1.94584 -1.91497,0.0937 -2.35359,0.007 -3.79338,-0.74887 z m 12.09321,0.24868 c -2.82348,-1.32565 -4.11287,-4.89216 -2.95503,-8.17381 0.88412,-2.50587 2.99316,-3.92426 5.87545,-3.95141 2.58319,-0.0243 4.34286,0.9732 5.45693,3.09346 0.73112,1.39143 0.84334,1.90733 0.7489,3.44279 -0.1399,2.27469 -0.98485,3.93955 -2.56655,5.05705 -1.63983,1.15857 -4.69698,1.40647 -6.5597,0.53192 z m 3.82995,-2.46922 c 1.24739,-0.66758 1.81352,-3.35751 1.12333,-5.33742 -0.57081,-1.63742 -2.36487,-2.06958 -3.51394,-0.84645 -1.31832,1.40329 -1.11707,5.03988 0.3352,6.05709 0.76382,0.535 1.23799,0.56425 2.05541,0.12678 z m 6.6886,2.33991 c -0.0811,-0.21133 -0.11061,-2.94508 -0.0656,-6.075 l 0.0819,-5.69076 1.24687,-0.0909 c 0.98879,-0.0721 1.33795,0.0392 1.6869,0.53737 l 0.44004,0.62823 1.08024,-0.63736 c 1.55763,-0.91903 3.53439,-0.85807 4.85567,0.14972 l 1.03191,0.78707 0.85587,-0.63277 c 1.75147,-1.29492 4.045,-1.30618 5.4148,-0.0266 1.25726,1.17446 1.56786,2.7153 1.47148,7.29988 l -0.0838,3.98535 -1.69522,0.0891 -1.69523,0.0891 -0.10478,-4.033 c -0.0897,-3.45322 -0.18693,-4.12371 -0.67627,-4.66408 -0.70015,-0.77316 -1.7209,-0.81298 -2.37287,-0.0926 -0.3888,0.42962 -0.50437,1.35481 -0.5715,4.575 l -0.0841,4.03647 -1.8,0 -1.8,0 -0.0841,-4.03647 c -0.0904,-4.33935 -0.35022,-5.11353 -1.71586,-5.11353 -1.36894,0 -1.65,0.8047 -1.65,4.72408 0,1.99477 -0.0819,3.84039 -0.1821,4.10138 -0.23291,0.60697 -3.35572,0.68565 -3.58418,0.0903 z M 182.2175,919.96481 c -2.868,-0.21992 -5.5761,-1.06053 -7.058,-2.19087 -1.2172,-0.92835 -2.4372,-3.39703 -2.6758,-5.41417 -0.2814,-2.37915 -0.2211,-2.40581 4.0742,-1.80061 2.0403,0.28748 3.8621,0.6445 4.0485,0.79338 0.1864,0.14888 0.4206,0.67935 0.5205,1.17882 0.2743,1.37187 2.3567,2.21503 4.887,1.97875 3.4223,-0.31958 4.7713,-1.54169 5.7644,-5.22216 0.6183,-2.29146 0.7816,-3.37818 0.5075,-3.37818 -0.072,0 -1.0478,0.4692 -2.1672,1.04267 -7.379,3.78009 -14.229,0.8616 -15.7158,-6.6959 -0.449,-2.28206 -0.2244,-6.94344 0.4565,-9.47487 1.9265,-7.16223 7.0067,-11.57232 13.3302,-11.57166 2.9856,3e-4 5.2811,1.03079 7.3012,3.27769 0.7754,0.86241 1.5331,1.49183 1.6837,1.39873 0.1507,-0.0931 0.3703,-0.81219 0.4881,-1.59797 0.3759,-2.50688 0.328,-2.47869 4.2156,-2.47869 3.3377,0 3.4394,0.0194 3.4394,0.65626 0,1.14637 -4.4866,23.94295 -5.4504,27.69374 -1.9553,7.60917 -4.0802,10.20362 -9.3182,11.3772 -2.3947,0.53656 -5.1011,0.67554 -8.3314,0.42784 z m 8.0359,-18.15288 c 4.1147,-2.36859 6.2632,-10.5618 3.7756,-14.39817 -1.7037,-2.62756 -4.1649,-3.38644 -6.8006,-2.09691 -1.9127,0.93582 -3.1852,2.56393 -4.3007,5.50271 -0.896,2.3605 -1.2551,6.19475 -0.7532,8.04167 0.9741,3.58395 4.6479,4.92576 8.0789,2.9507 z m 22.45616,6.92619 c -2.1348,-0.68195 -4.20956,-2.85827 -4.86086,-5.09891 -1.2952,-4.45511 0.4698,-9.00836 4.15769,-10.72613 2.07395,-0.96601 3.73006,-1.31544 8.8525,-1.86783 4.96185,-0.53507 5.66227,-0.74294 6.06403,-1.79963 0.53316,-1.40231 0.34986,-2.52676 -0.56024,-3.43686 -0.99977,-0.99977 -2.48306,-1.35013 -4.47214,-1.05633 -1.17815,0.17402 -1.65529,0.45544 -2.773,1.63559 l -1.35,1.4254 -3.3,-0.27899 c -1.815,-0.15344 -3.41219,-0.3857 -3.54931,-0.51613 -0.36154,-0.3439 0.85468,-2.56503 2.2091,-4.0344 2.42843,-2.63454 5.62719,-3.76701 10.64021,-3.76701 4.64309,0 6.74949,0.62509 8.95247,2.65671 2.41184,2.22423 2.58352,4.91453 0.82154,12.87388 -1.56913,7.08815 -1.85216,9.2805 -1.48912,11.53474 0.16893,1.04899 0.18112,1.93153 0.0288,2.08387 -0.14534,0.14535 -1.79098,0.22588 -3.65697,0.17897 -3.63353,-0.0913 -3.68801,-0.11573 -4.04455,-1.81029 -0.22018,-1.04645 -0.53323,-1.03638 -1.90475,0.0613 -2.64967,2.12068 -6.69053,2.92428 -9.76538,1.94203 z m 9.19788,-6.35302 c 1.45891,-0.85491 2.552,-2.48101 3.11554,-4.63472 0.28918,-1.10517 0.42716,-2.10801 0.30662,-2.22855 -0.34557,-0.34557 -5.45173,0.43637 -7.25479,1.11098 -3.11264,1.16459 -4.14433,3.74374 -2.25378,5.63429 0.49691,0.49692 1.27316,0.94751 1.725,1.00131 1.21639,0.14485 3.34125,-0.28549 4.36141,-0.88331 z m 15.87999,5.84967 c -0.21189,-0.26174 0.57652,-4.50327 2.61025,-14.04287 1.60261,-7.51734 3.01316,-13.82859 3.13455,-14.025 0.27272,-0.44127 7.25962,-0.5032 7.52937,-0.0667 0.21998,0.35594 -5.52216,27.61002 -5.92766,28.13462 -0.20145,0.26062 -1.31977,0.375 -3.6664,0.375 -2.33932,0 -3.46979,-0.11519 -3.68011,-0.375 z m 15.9,0 c -0.33176,-0.40981 5.31873,-27.63362 5.84473,-28.15962 0.15841,-0.15841 1.81346,-0.24792 3.71067,-0.20067 l 3.42471,0.0853 -0.0997,1.425 c -0.0549,0.78375 0.0131,1.425 0.15096,1.425 0.13789,0 0.89249,-0.45629 1.67689,-1.01398 2.46909,-1.75546 4.27565,-2.3789 7.31341,-2.52385 3.26715,-0.15589 4.51752,0.18706 6.19459,1.69904 1.59495,1.43794 2.29796,3.04614 2.31195,5.28879 0.0118,1.89274 -4.02429,21.27423 -4.57619,21.975 -0.20499,0.26029 -1.32814,0.375 -3.67186,0.375 -2.34527,0 -3.46584,-0.11453 -3.66895,-0.375 -0.19821,-0.25418 0.36787,-3.3712 1.75706,-9.675 2.55779,-11.60657 2.58928,-12.4516 0.50417,-13.52985 -2.51042,-1.29818 -7.01018,1.19261 -8.921,4.93814 -0.73602,1.44271 -1.67686,5.11103 -3.20384,12.49171 -0.61446,2.97 -1.24629,5.56875 -1.40405,5.775 -0.1995,0.2608 -1.31515,0.375 -3.66339,0.375 -2.33932,0 -3.46979,-0.11519 -3.68011,-0.375 z m -9.17163,-32.55 c -0.1157,-0.18982 0.50846,-3.46876 1.13699,-5.97304 0.17288,-0.68882 0.24594,-0.70196 3.90276,-0.70196 2.04962,0 3.79338,0.10809 3.87503,0.2402 0.12784,0.20685 -0.72633,4.59572 -1.19396,6.1348 -0.14071,0.46312 -0.59705,0.525 -3.87159,0.525 -2.04165,0 -3.7738,-0.10125 -3.84923,-0.225 z"
           id="path4235"
           inkscape:connector-curvature="0"
           sodipodi:nodetypes="ccsssssssssssssssccsssssssscscssccssssscscsccssccsscsscsssssssssccccccsscssscccsscccccssscccscssscsssccsscccsssssscsscsccsssssscsssssssccssccssssscscsscsscccssccsssssssssssscsccsssssss" />
        <path
           style="fill:#f06722"
           d="m 202.34704,957.12761 c -0.2103,-0.393 -0.2874,-7.3379 -0.2355,-21.225 l 0.077,-20.6408 3.8958,0 3.8959,0 0.2347,1.6305 c 0.129,0.8968 0.2944,1.6903 0.3674,1.7633 0.073,0.073 0.81958,-0.4847 1.65899,-1.2394 2.26542,-2.0368 4.27576,-2.7309 7.94718,-2.7439 2.68253,-0.01 3.1972,0.081 4.86348,0.8503 3.35988,1.552 6.01581,4.9666 7.16417,9.2106 0.69729,2.577 0.69398,7.8292 -0.007,10.4546 -1.68851,6.3278 -6.22763,10.4354 -11.89414,10.7635 -2.9131,0.1686 -4.98695,-0.3177 -6.92933,-1.6248 -0.82935,-0.5581 -1.56184,-1.0147 -1.62776,-1.0147 -0.0659,0 -0.11985,3.078 -0.11985,6.84 0,4.92 -0.10105,6.941 -0.36,7.2 -0.24513,0.2451 -1.67764,0.36 -4.48944,0.36 -3.7851,0 -4.1555,-0.049 -4.4421,-0.5842 z m 17.94393,-19.2987 c 3.47193,-2.2976 4.17683,-10.4851 1.19509,-13.8811 -1.26405,-1.4397 -2.3266,-1.936 -4.14453,-1.936 -1.99872,0 -3.67852,0.8737 -4.72761,2.459 -0.81214,1.2272 -0.82534,1.3222 -0.82534,5.941 0,4.5834 0.0188,4.7222 0.80048,5.9034 1.66913,2.5222 5.1455,3.2054 7.70191,1.5137 z m 26.67941,7.7325 c -3.66067,-0.9217 -6.44602,-2.797 -8.31805,-5.6004 -1.82334,-2.7305 -2.5377,-5.3879 -2.52664,-9.3992 0.008,-2.786 0.13489,-3.6658 0.81672,-5.6484 2.30789,-6.7108 7.27984,-10.402 13.99617,-10.3907 1.2375,0 2.82934,0.1374 3.53742,0.3007 4.68901,1.0816 8.08673,4.774 9.3752,10.1884 0.54253,2.2798 0.55771,7.2628 0.0241,7.9057 -0.3644,0.4391 -1.42507,0.4943 -9.50573,0.4943 -5.18465,0 -9.16859,0.1181 -9.26541,0.2748 -0.51716,0.8368 1.31547,3.2845 3.17561,4.2415 2.3732,1.2209 7.72525,1.3364 11.76411,0.2539 0.63541,-0.1703 1.22533,-0.2396 1.31094,-0.154 0.0856,0.086 0.41402,1.4107 0.72979,2.9447 l 0.57414,2.7891 -0.61499,0.502 c -1.7189,1.4033 -11.35785,2.233 -15.07336,1.2976 z m 8.60632,-19.0304 c 0.27701,-0.4482 -0.34408,-2.7496 -0.9703,-3.5954 -2.05347,-2.7734 -5.87115,-2.8652 -8.07283,-0.1942 -0.94723,1.1491 -1.75568,3.2677 -1.44118,3.7765 0.23503,0.3803 10.24965,0.3928 10.48431,0.013 z m 16.6078,19.0069 c -1.86733,-0.5747 -4.47635,-2.969 -5.2794,-4.8451 -1.20342,-2.8114 -1.11378,-6.1267 0.23743,-8.781 1.85541,-3.6449 6.84962,-6.1017 13.33301,-6.5591 2.9987,-0.2116 3.26712,-0.4411 2.54735,-2.1788 -0.99955,-2.4131 -6.2427,-2.8677 -11.03746,-0.9569 -1.04673,0.4172 -2.00326,0.6429 -2.12561,0.5016 -0.26755,-0.3089 -1.52124,-4.6718 -1.52124,-5.294 0,-1.0734 5.26467,-2.5874 9.81332,-2.822 8.80922,-0.4544 13.41947,2.8437 14.47718,10.3569 0.15504,1.1013 0.30333,6.1198 0.32955,11.1523 l 0.0477,9.15 -3.85594,0.084 c -4.17333,0.092 -4.61178,-0.063 -4.61178,-1.6242 0,-1.0927 -0.40843,-1.0537 -2.07458,0.1982 -0.86564,0.6504 -2.26248,1.3871 -3.1041,1.637 -1.89689,0.5634 -5.31175,0.5541 -7.1754,-0.019 z m 8.53872,-6.5392 c 0.53094,-0.2272 1.37036,-0.8434 1.86536,-1.3693 0.8363,-0.8886 0.90731,-1.143 1.00325,-3.594 0.0786,-2.0071 0.007,-2.6739 -0.3,-2.7891 -0.76182,-0.2859 -4.42588,0.3393 -5.65087,0.9642 -1.71302,0.874 -2.46831,2.1735 -2.31283,3.9793 0.23447,2.7232 2.65276,3.9823 5.39509,2.8089 z m 26.80558,6.5371 c -6.76768,-1.6381 -10.96633,-7.3717 -10.98501,-15.001 -0.006,-2.5802 0.90801,-6.3294 1.99908,-8.1972 1.22301,-2.0936 3.81691,-4.6469 5.78832,-5.6977 3.59651,-1.9169 8.74463,-2.6094 13.38783,-1.8008 3.02672,0.5271 3.01201,0.4984 2.20964,4.3034 l -0.68234,3.2359 -1.22887,-0.1945 c -4.52333,-0.716 -6.23621,-0.523 -8.58348,0.9673 -1.96696,1.2488 -3.06289,3.4125 -3.23508,6.3871 -0.32058,5.5378 2.72759,8.9635 7.98184,8.9705 1.20569,0 2.8007,-0.1503 3.54448,-0.3376 0.7839,-0.1973 1.46251,-0.2289 1.61444,-0.075 0.14416,0.1461 0.47711,1.6065 0.73988,3.2455 0.38841,2.4226 0.40588,3.0517 0.0934,3.3637 -1.16431,1.1624 -9.11513,1.6846 -12.64413,0.8304 z m 24.94158,0.025 c -5.17431,-1.3027 -8.64543,-4.562 -10.2104,-9.5871 -0.99434,-3.1928 -0.91088,-7.8698 0.1983,-11.1125 1.80917,-5.289 5.20329,-8.6053 10.15708,-9.924 1.82493,-0.4859 5.50243,-0.543 7.36064,-0.1143 4.68634,1.081 8.0632,4.7478 9.38272,10.1883 0.54358,2.2413 0.55301,7.2594 0.0149,7.9078 -0.36221,0.4365 -1.43864,0.4922 -9.50404,0.4922 -5.18464,0 -9.16859,0.1182 -9.26541,0.2749 -0.51716,0.8367 1.31547,3.2845 3.17561,4.2414 2.3732,1.221 7.72525,1.3365 11.76411,0.2539 0.63541,-0.1703 1.22533,-0.2396 1.31094,-0.154 0.0856,0.086 0.41402,1.4108 0.7298,2.9448 l 0.57414,2.789 -0.615,0.5021 c -1.71889,1.4033 -11.35785,2.233 -15.07336,1.2975 z m 8.62064,-19.0535 c 0.10331,-0.1672 -0.0188,-1.0147 -0.2713,-1.8833 -0.45057,-1.55 -1.44014,-2.7845 -2.78642,-3.4761 -0.89114,-0.4579 -2.905,-0.424 -4.08404,0.069 -1.23224,0.5148 -2.7421,2.2249 -3.20627,3.6313 -0.6429,1.948 -0.60324,1.9634 5.06847,1.9634 3.11489,0 5.16464,-0.118 5.27956,-0.304 z"
           id="path4237"
           inkscape:connector-curvature="0"
           sodipodi:nodetypes="csccccssccsccssscsccssscssscscsccscsccscscccccccccccsccsccssssccscccccccccscscccsscccscccscscssccscsccccscccccsccsscc" />
        <path
           style="fill:#284f9a"
           d="m 332.21754,989.81137 c 0,-0.0766 1.09701,-1.53703 2.4378,-3.24543 7.97173,-10.15736 13.95571,-21.78692 17.49786,-34.00618 4.76499,-16.43765 5.2703,-33.42458 1.49983,-50.41935 -1.08419,-4.88681 -3.87103,-13.21628 -6.10451,-18.24553 -12.34588,-27.79983 -36.91956,-48.71551 -66.12834,-56.28457 -9.43554,-2.4451 -15.29544,-3.15551 -25.85264,-3.1342 -8.65844,0.0175 -12.29547,0.35723 -19.64048,1.83466 -15.36413,3.09046 -30.07316,9.99655 -42.71266,20.05419 -1.7892,1.42373 -3.3315,2.51019 -3.4273,2.41436 -0.291,-0.29098 8.2601,-8.55037 11.7804,-11.37863 6.7537,-5.42588 15.28514,-10.61833 22.76225,-13.85362 13.9445,-6.03369 28.21144,-8.72696 40.53779,-7.65261 42.19736,3.6779 77.85771,30.50383 92.94007,69.9153 4.92288,12.86388 7.55553,27.75092 6.82589,38.59871 -1.3138,19.53255 -9.58308,39.88368 -22.48829,55.34487 -4.01722,4.81286 -9.92767,10.80092 -9.92767,10.05803 z m -117.54401,-34.77661 0.094,-0.975 52.05,0 52.05,0 0.094,0.975 0.094,0.975 -52.23802,0 -52.23802,0 0.094,-0.975 z"
           id="path4239"
           inkscape:connector-curvature="0" />
      </g>
    </g>
  </g>
</svg>
