<?xml version="1.0" encoding="UTF-8" standalone="no"?>
<!-- Created with Inkscape (http://www.inkscape.org/) -->

<svg
   xmlns:dc="http://purl.org/dc/elements/1.1/"
   xmlns:cc="http://creativecommons.org/ns#"
   xmlns:rdf="http://www.w3.org/1999/02/22-rdf-syntax-ns#"
   xmlns:svg="http://www.w3.org/2000/svg"
   xmlns="http://www.w3.org/2000/svg"
   xmlns:sodipodi="http://sodipodi.sourceforge.net/DTD/sodipodi-0.dtd"
   xmlns:inkscape="http://www.inkscape.org/namespaces/inkscape"
   width="512"
   height="256"
   viewBox="0 0 512.00001 256"
   id="svg2"
   version="1.1"
   inkscape:version="0.91 r13725"
   sodipodi:docname="icna_logo_2.svg"
   inkscape:export-filename="/Users/sheraz/Desktop/icna_logo_128.png"
   inkscape:export-xdpi="22.5"
   inkscape:export-ydpi="22.5">
  <defs
     id="defs4" />
  <sodipodi:namedview
     id="base"
     pagecolor="#ffffff"
     bordercolor="#666666"
     borderopacity="1.0"
     inkscape:pageopacity="0.0"
     inkscape:pageshadow="2"
     inkscape:zoom="0.86772068"
     inkscape:cx="347.88616"
     inkscape:cy="237.23066"
     inkscape:document-units="px"
     inkscape:current-layer="layer1"
     showgrid="false"
     borderlayer="true"
     inkscape:showpageshadow="false"
     units="px"
     width="512px"
     inkscape:window-width="1440"
     inkscape:window-height="851"
     inkscape:window-x="0"
     inkscape:window-y="1"
     inkscape:window-maximized="1" />
  <metadata
     id="metadata7">
    <rdf:RDF>
      <cc:Work
         rdf:about="">
        <dc:format>image/svg+xml</dc:format>
        <dc:type
           rdf:resource="http://purl.org/dc/dcmitype/StillImage" />
        <dc:title />
      </cc:Work>
    </rdf:RDF>
  </metadata>
  <g
     inkscape:label="Layer 1"
     inkscape:groupmode="layer"
     id="layer1"
     transform="translate(0,-796.36214)">
    <text
       xml:space="preserve"
       style="font-style:normal;font-weight:normal;font-size:40px;line-height:125%;font-family:sans-serif;letter-spacing:0px;word-spacing:0px;fill:#000000;fill-opacity:1;stroke:none;stroke-width:1px;stroke-linecap:butt;stroke-linejoin:miter;stroke-opacity:1"
       x="596.46021"
       y="1063.8666"
       id="text4550"
       sodipodi:linespacing="125%"
       inkscape:export-filename="/Users/sheraz/Desktop/icna_a_logo_100.png"
       inkscape:export-xdpi="36.000004"
       inkscape:export-ydpi="36.000004"><tspan
         sodipodi:role="line"
         id="tspan4552"
         x="596.46021"
         y="1063.8666" /></text>
    <rect
       style="opacity:1;fill:#000000;fill-opacity:1;stroke:none;stroke-width:1.78040922;stroke-linejoin:round;stroke-miterlimit:4;stroke-dasharray:none;stroke-opacity:1"
       id="rect4159"
       width="719.49738"
       height="252.7574"
       x="9.6097612"
       y="802.67181" />
    <g
       id="g4149"
       transform="translate(8.8840887,4.1121855)">
      <path
         inkscape:export-ydpi="36.000004"
         inkscape:export-xdpi="36.000004"
         inkscape:export-filename="/Users/sheraz/Desktop/icna_a_logo_100.png"
         id="path4784"
         d="m 109.63198,1045.9918 c -5.071,-0.6355 -15.07765,-2.9985 -21.161757,-4.9973 -8.929513,-2.9334 -22.652663,-9.9439 -28.828811,-14.7271 -0.34368,-0.2663 -2.452657,-1.9021 -4.686608,-3.6352 -20.453346,-15.868 -37.745763,-42.22483 -45.5991087,-69.50162 -1.7107936,-5.94203 -5.0163322,-21.30063 -5.0163322,-23.30749 0,-0.74575 2.9249655,-0.88684 18.3890579,-0.88684 l 18.389049,0 0.360509,3.59307 c 5.981717,59.61673 41.185135,102.68168 82.213851,100.57348 23.95045,-1.2308 45.44928,-17.0836 60.82431,-44.85126 7.50385,-13.55209 13.59805,-33.80166 15.59453,-51.81671 l 0.79638,-7.18614 18.88153,-0.16537 c 10.38484,-0.0911 18.88153,0.0707 18.88153,0.35938 0,1.95868 -2.87637,15.99078 -4.43904,21.6554 -5.30666,19.23647 -15.52152,39.00738 -27.45354,53.1364 -23.65516,28.0107 -53.22091,42.4306 -86.29032,42.0859 -4.93932,-0.052 -9.82417,-0.1994 -10.85523,-0.3286 z"
         style="fill:#f0b942;fill-opacity:1"
         inkscape:connector-curvature="0" />
      <path
         inkscape:export-ydpi="36.000004"
         inkscape:export-xdpi="36.000004"
         inkscape:export-filename="/Users/sheraz/Desktop/icna_a_logo_100.png"
         d="m 93.072595,942.95395 c 0,-0.53869 1.307855,-2.57737 2.906327,-4.5304 4.057258,-4.95712 5.432518,-8.27582 5.055488,-12.19964 -0.50656,-5.27184 -4.290793,-7.32552 -9.493116,-5.15185 -3.669804,1.53334 -4.010297,-0.97942 -0.545007,-4.02199 3.030426,-2.66075 5.746475,-3.73585 9.437933,-3.73585 2.56329,0 3.30901,0.29394 4.8629,1.91678 1.7069,1.78265 1.82883,2.23089 1.74239,6.40504 -0.14858,7.17664 -2.40979,11.79451 -9.216735,18.82253 -3.435407,3.54698 -4.75018,4.23764 -4.75018,2.49538 z m 22.923955,52.19379 c -9.33671,-1.62669 -11.98512,-14.49472 -3.98731,-19.37335 5.93195,-3.61851 13.30839,-1.12583 15.77403,5.33031 2.89564,7.58216 -3.70846,15.45042 -11.78672,14.04304 z m 9.58884,-136.66691 c 1.27475,-1.61143 1.34032,-2.20479 1.05328,-9.52946 -0.38648,-9.86216 -1.59334,-14.07147 -5.16586,-18.01745 -2.5709,-2.83964 -2.73615,-2.91611 -6.30315,-2.91611 -2.66602,0 -4.13697,0.34018 -5.4043,1.24978 -3.2451,2.32911 -5.75346,8.67731 -6.44767,16.31779 -0.52256,5.75114 0.33503,6.47572 3.46086,2.92413 3.84547,-4.36926 5.8512,-4.86535 8.84736,-2.18828 1.65198,1.47605 2.08302,2.4979 2.80499,6.64967 0.46919,2.6981 1.32603,5.42823 1.90408,6.06697 1.51138,1.67007 3.66976,1.44107 5.25041,-0.55704 z m 24.30903,104.53298 c 6.34496,-3.21525 9.12993,-8.88853 9.05959,-18.45552 -0.0514,-6.99423 -1.7297,-12.19284 -4.99278,-15.46582 -4.13884,-4.15137 -5.27413,-2.3934 -5.27413,8.16675 0,7.50969 -0.0519,7.81418 -1.49057,8.7569 -0.81982,0.53714 -1.64402,0.82325 -1.83154,0.63572 -0.1875,-0.18751 -0.36482,-6.71072 -0.39401,-14.49599 -0.0573,-15.27411 -0.42186,-20.09337 -1.51966,-20.08792 -0.38532,0.002 -2.66897,1.55354 -5.07477,3.44803 -2.4058,1.89449 -6.06136,4.77091 -8.12347,6.39205 -2.0621,1.62111 -3.95589,3.23302 -4.20838,3.58189 -1.03899,1.43574 -0.42161,2.19659 1.78238,2.19659 1.78147,0 2.76024,0.49966 4.61799,2.35741 2.89304,2.89304 3.73562,5.73806 3.74343,12.63975 0.006,6.24932 1.50773,16.22248 2.82406,18.768 0.50939,0.98502 1.41828,2.07761 2.01972,2.42795 1.89771,1.10529 5.70676,0.7332 8.86214,-0.86579 z m -39.95,57.12919 c -21.087001,-5.4306 -39.653968,-28.50346 -48.755387,-60.58755 -2.6889,-9.47885 -3.843255,-15.03489 -5.387909,-25.93259 -1.467138,-10.35077 -1.467923,-31.08721 -0.0018,-41.24219 2.771215,-19.19149 7.395493,-36.5146 12.860274,-48.17612 3.540208,-7.55462 14.025602,-24.16042 22.14842,-35.07662 3.150351,-4.23374 4.128241,-5.14475 5.533794,-5.15527 1.662985,-0.0125 1.539185,0.25256 -4.776092,10.22467 l -6.483301,10.23746 3.104197,0.29828 c 3.467515,0.33319 5.739146,1.74178 7.909242,4.90441 1.212932,1.76769 1.41561,2.71375 1.192528,5.56648 -0.219684,2.80912 -1.51378,5.97119 -7.085232,17.31236 -3.74905,7.63152 -7.16795,13.88815 -7.597565,13.90363 -0.429598,0.0154 -0.781094,-0.087 -0.781094,-0.22758 0,-0.14063 1.686838,-4.28829 3.748535,-9.217 3.877663,-9.26998 4.393915,-11.82573 2.837607,-14.04766 -2.554407,-3.64692 -7.753793,-3.41306 -11.296329,0.50809 -4.819948,5.33511 -7.651685,14.67322 -8.250039,27.20589 -0.685599,14.36002 2.731802,22.05141 9.797746,22.05141 9.822085,0 16.655872,-13.13289 18.142455,-34.86545 1.532447,-22.40299 6.03211,-36.52539 13.51092,-42.4046 6.24609,-4.91016 10.99537,-5.64372 13.88138,-2.14411 5.32189,6.45339 8.59575,30.11383 6.15117,44.45514 -2.36654,13.88358 -4.68209,19.40791 -8.69568,20.74577 -3.98207,1.32737 -7.95879,-2.99331 -7.95879,-8.64717 0,-5.3737 -2.70848,-7.86739 -6.94205,-6.39157 -6.58632,2.29602 -1.52484,27.2108 7.64403,37.62719 4.76319,5.41126 10.89411,6.80744 17.10715,3.89579 10.35434,-4.85241 18.51486,-24.05321 16.59264,-39.04057 -1.6167,-12.60526 -3.39695,-19.47169 -5.04837,-19.47169 -0.37656,0 -0.60883,5.1979 -0.60883,13.6257 0,12.60519 -0.1087,13.94793 -1.45143,17.92842 -1.63408,4.84422 -2.57132,5.66505 -3.1522,2.76069 -0.56264,-2.81329 -0.49257,-65.55913 0.0733,-65.55777 1.81531,0.005 10.51547,18.20651 13.8105,28.89391 4.7298,15.34105 4.12058,34.32725 -1.56721,48.84069 -0.8008,2.04342 -1.32439,3.84692 -1.16351,4.00779 0.16087,0.16088 3.86147,-2.42797 8.22353,-5.753 4.36207,-3.32502 8.1605,-5.816 8.44099,-5.53553 0.28047,0.28047 0.33464,2.38732 0.12037,4.68187 l -0.38958,4.17192 -8.19173,6.05236 c -10.2194,7.5505 -9.62592,6.96342 -7.75736,7.67383 0.86634,0.32939 3.26449,2.16289 5.32921,4.07446 4.76185,4.40864 8.44414,11.48124 9.92325,19.05967 1.44313,7.394 0.94464,24.54075 -0.91572,31.49919 -3.40589,12.7393 -11.31639,20.73739 -20.51021,20.73739 -3.43886,0 -4.08178,-0.20646 -5.83739,-1.87465 -4.6062,-4.37677 -6.23772,-10.05584 -6.64224,-23.12064 -0.36007,-11.62921 -0.83583,-13.70235 -3.45549,-15.05705 -3.07917,-1.5923 -3.50556,-0.99871 -11.93784,16.61926 -5.24277,10.95398 -9.88613,15.42624 -17.438803,16.79628 -4.041566,0.73312 -9.300687,0.10295 -12.364808,-1.48157 -2.783523,-1.43943 -6.796588,-5.20372 -8.60983,-8.07607 -0.852033,-1.3497 -2.288456,-4.44441 -3.192053,-6.87716 -1.558665,-4.1964 -1.640352,-4.99995 -1.593106,-15.6711 0.04448,-10.04579 0.223322,-11.89518 1.673353,-17.30466 0.892955,-3.33122 2.19042,-7.33831 2.88325,-8.90456 1.47758,-3.34032 2.770838,-3.84448 2.095457,-0.81689 -0.870423,3.90189 -0.43649,21.75852 0.645364,26.55716 1.531202,6.79172 3.414066,11.46504 5.995116,14.88 7.228322,9.56378 16.53754,7.20944 23.16202,-5.85775 0.75133,-1.48207 2.44399,-5.70003 3.76146,-9.37323 5.3032,-14.7858 4.85645,-14.04854 13.61874,-22.4755 l 7.97876,-7.67341 -3.12442,0.48728 c -1.71842,0.26799 -5.51458,0.47344 -8.43591,0.45655 -4.82897,-0.0279 -5.67827,-0.22659 -9.34903,-2.18707 -5.15482,-2.75312 -10.53751,-7.73298 -12.74756,-11.79356 -0.950493,-1.74636 -2.083013,-5.07278 -2.516723,-7.39203 l -0.788555,-4.21679 -0.472349,2.49952 c -0.620226,3.28201 -3.654662,9.56282 -5.639935,11.6738 -2.890773,3.07381 -5.876864,4.97174 -9.2241,5.86274 -7.196369,1.91558 -12.970345,0.59975 -16.579015,-3.7782 l -1.926805,-2.33754 -0.457993,4.88743 c -0.620791,6.62478 0.07685,18.59237 1.605736,27.54467 6.248683,36.58934 22.523982,60.39394 45.502389,66.55272 6.56701,1.76 17.27504,1.7551 23.93151,-0.011 26.51866,-7.03677 43.76968,-35.81058 47.45372,-79.15038 2.82065,-33.18256 -6.68056,-66.73111 -24.3607,-86.01708 l -3.81136,-4.15753 0.0776,-10.83964 c 0.0426,-5.9618 0.2633,-12.808 0.49023,-15.21379 l 0.41262,-4.37418 4.04015,4.08052 c 16.3388,16.50199 26.99699,41.98685 30.96047,74.02973 1.3842,11.19059 1.37352,32.95048 -0.0217,44.05416 -4.00586,31.88173 -14.50812,58.42092 -30.44727,76.94029 -7.73938,8.9923 -19.78594,16.7413 -29.45268,18.9457 -5.70614,1.3013 -13.41532,1.1785 -19.17634,-0.3051 z"
         style="fill:#356734;fill-opacity:1"
         id="path4473"
         inkscape:connector-curvature="0" />
      <g
         transform="translate(-20,-7.2767099)"
         id="g4142">
        <rect
           style="opacity:1;fill:#f0b942;fill-opacity:1;stroke:none;stroke-width:15;stroke-miterlimit:4;stroke-dasharray:none;stroke-opacity:1"
           id="rect4498"
           width="390.74747"
           height="6.5243807"
           x="301.94626"
           y="-947.5368"
           transform="scale(1,-1)"
           inkscape:export-filename="/Users/sheraz/Desktop/icna_a_logo_100.png"
           inkscape:export-xdpi="36.000004"
           inkscape:export-ydpi="36.000004" />
        <text
           xml:space="preserve"
           style="font-style:normal;font-variant:normal;font-weight:bold;font-stretch:normal;font-size:149.14927673px;line-height:125%;font-family:'Times New Roman';-inkscape-font-specification:'Times New Roman, Bold';text-align:start;letter-spacing:0px;word-spacing:0px;writing-mode:lr-tb;text-anchor:start;fill:#356734;fill-opacity:1;stroke:none;stroke-width:1px;stroke-linecap:butt;stroke-linejoin:miter;stroke-opacity:1"
           x="306.04044"
           y="920.87915"
           id="text4150"
           sodipodi:linespacing="125%"
           inkscape:export-filename="/Users/sheraz/Desktop/icna_a_logo_100.png"
           inkscape:export-xdpi="36.000004"
           inkscape:export-ydpi="36.000004"><tspan
             sodipodi:role="line"
             id="tspan4152"
             x="306.04044"
             y="920.87915">ICNA</tspan></text>
        <text
           sodipodi:linespacing="125%"
           id="text4154"
           y="1041.8986"
           x="253.02621"
           style="font-style:normal;font-variant:normal;font-weight:bold;font-stretch:normal;font-size:96.68830872px;line-height:125%;font-family:'Times New Roman';-inkscape-font-specification:'Times New Roman, Bold';text-align:start;letter-spacing:0px;word-spacing:0px;writing-mode:lr-tb;text-anchor:start;fill:#356734;fill-opacity:1;stroke:none;stroke-width:1px;stroke-linecap:butt;stroke-linejoin:miter;stroke-opacity:1"
           xml:space="preserve"
           inkscape:export-filename="/Users/sheraz/Desktop/icna_a_logo_100.png"
           inkscape:export-xdpi="36.000004"
           inkscape:export-ydpi="36.000004"><tspan
             y="1041.8986"
             x="253.02621"
             id="tspan4156"
             sodipodi:role="line">Shifa Clinic</tspan></text>
      </g>
    </g>
    <rect
       y="528.39001"
       x="3.8475382"
       height="252.7574"
       width="719.49738"
       id="rect4161"
       style="opacity:1;fill:#000000;fill-opacity:1;stroke:none;stroke-width:1.78040922;stroke-linejoin:round;stroke-miterlimit:4;stroke-dasharray:none;stroke-opacity:1" />
    <g
       transform="translate(3.1218658,-270.16963)"
       id="g4163"
       style="fill:#ffffff;fill-opacity:1"
       inkscape:export-filename="/Users/sheraz/Desktop/white_logo_100x292.png"
       inkscape:export-xdpi="36.896034"
       inkscape:export-ydpi="36.896034">
      <path
         inkscape:connector-curvature="0"
         style="fill:#ffffff;fill-opacity:1"
         d="m 109.63198,1045.9918 c -5.071,-0.6355 -15.07765,-2.9985 -21.161757,-4.9973 -8.929513,-2.9334 -22.652663,-9.9439 -28.828811,-14.7271 -0.34368,-0.2663 -2.452657,-1.9021 -4.686608,-3.6352 -20.453346,-15.868 -37.745763,-42.22483 -45.5991087,-69.50162 -1.7107936,-5.94203 -5.0163322,-21.30063 -5.0163322,-23.30749 0,-0.74575 2.9249655,-0.88684 18.3890579,-0.88684 l 18.389049,0 0.360509,3.59307 c 5.981717,59.61673 41.185135,102.68168 82.213851,100.57348 23.95045,-1.2308 45.44928,-17.0836 60.82431,-44.85126 7.50385,-13.55209 13.59805,-33.80166 15.59453,-51.81671 l 0.79638,-7.18614 18.88153,-0.16537 c 10.38484,-0.0911 18.88153,0.0707 18.88153,0.35938 0,1.95868 -2.87637,15.99078 -4.43904,21.6554 -5.30666,19.23647 -15.52152,39.00738 -27.45354,53.1364 -23.65516,28.0107 -53.22091,42.4306 -86.29032,42.0859 -4.93932,-0.052 -9.82417,-0.1994 -10.85523,-0.3286 z"
         id="path4165"
         inkscape:export-filename="/Users/sheraz/Desktop/icna_a_logo_100.png"
         inkscape:export-xdpi="36.000004"
         inkscape:export-ydpi="36.000004" />
      <path
         inkscape:connector-curvature="0"
         id="path4167"
         style="fill:#ffffff;fill-opacity:1"
         d="m 93.072595,942.95395 c 0,-0.53869 1.307855,-2.57737 2.906327,-4.5304 4.057258,-4.95712 5.432518,-8.27582 5.055488,-12.19964 -0.50656,-5.27184 -4.290793,-7.32552 -9.493116,-5.15185 -3.669804,1.53334 -4.010297,-0.97942 -0.545007,-4.02199 3.030426,-2.66075 5.746475,-3.73585 9.437933,-3.73585 2.56329,0 3.30901,0.29394 4.8629,1.91678 1.7069,1.78265 1.82883,2.23089 1.74239,6.40504 -0.14858,7.17664 -2.40979,11.79451 -9.216735,18.82253 -3.435407,3.54698 -4.75018,4.23764 -4.75018,2.49538 z m 22.923955,52.19379 c -9.33671,-1.62669 -11.98512,-14.49472 -3.98731,-19.37335 5.93195,-3.61851 13.30839,-1.12583 15.77403,5.33031 2.89564,7.58216 -3.70846,15.45042 -11.78672,14.04304 z m 9.58884,-136.66691 c 1.27475,-1.61143 1.34032,-2.20479 1.05328,-9.52946 -0.38648,-9.86216 -1.59334,-14.07147 -5.16586,-18.01745 -2.5709,-2.83964 -2.73615,-2.91611 -6.30315,-2.91611 -2.66602,0 -4.13697,0.34018 -5.4043,1.24978 -3.2451,2.32911 -5.75346,8.67731 -6.44767,16.31779 -0.52256,5.75114 0.33503,6.47572 3.46086,2.92413 3.84547,-4.36926 5.8512,-4.86535 8.84736,-2.18828 1.65198,1.47605 2.08302,2.4979 2.80499,6.64967 0.46919,2.6981 1.32603,5.42823 1.90408,6.06697 1.51138,1.67007 3.66976,1.44107 5.25041,-0.55704 z m 24.30903,104.53298 c 6.34496,-3.21525 9.12993,-8.88853 9.05959,-18.45552 -0.0514,-6.99423 -1.7297,-12.19284 -4.99278,-15.46582 -4.13884,-4.15137 -5.27413,-2.3934 -5.27413,8.16675 0,7.50969 -0.0519,7.81418 -1.49057,8.7569 -0.81982,0.53714 -1.64402,0.82325 -1.83154,0.63572 -0.1875,-0.18751 -0.36482,-6.71072 -0.39401,-14.49599 -0.0573,-15.27411 -0.42186,-20.09337 -1.51966,-20.08792 -0.38532,0.002 -2.66897,1.55354 -5.07477,3.44803 -2.4058,1.89449 -6.06136,4.77091 -8.12347,6.39205 -2.0621,1.62111 -3.95589,3.23302 -4.20838,3.58189 -1.03899,1.43574 -0.42161,2.19659 1.78238,2.19659 1.78147,0 2.76024,0.49966 4.61799,2.35741 2.89304,2.89304 3.73562,5.73806 3.74343,12.63975 0.006,6.24932 1.50773,16.22248 2.82406,18.768 0.50939,0.98502 1.41828,2.07761 2.01972,2.42795 1.89771,1.10529 5.70676,0.7332 8.86214,-0.86579 z m -39.95,57.12919 c -21.087001,-5.4306 -39.653968,-28.50346 -48.755387,-60.58755 -2.6889,-9.47885 -3.843255,-15.03489 -5.387909,-25.93259 -1.467138,-10.35077 -1.467923,-31.08721 -0.0018,-41.24219 2.771215,-19.19149 7.395493,-36.5146 12.860274,-48.17612 3.540208,-7.55462 14.025602,-24.16042 22.14842,-35.07662 3.150351,-4.23374 4.128241,-5.14475 5.533794,-5.15527 1.662985,-0.0125 1.539185,0.25256 -4.776092,10.22467 l -6.483301,10.23746 3.104197,0.29828 c 3.467515,0.33319 5.739146,1.74178 7.909242,4.90441 1.212932,1.76769 1.41561,2.71375 1.192528,5.56648 -0.219684,2.80912 -1.51378,5.97119 -7.085232,17.31236 -3.74905,7.63152 -7.16795,13.88815 -7.597565,13.90363 -0.429598,0.0154 -0.781094,-0.087 -0.781094,-0.22758 0,-0.14063 1.686838,-4.28829 3.748535,-9.217 3.877663,-9.26998 4.393915,-11.82573 2.837607,-14.04766 -2.554407,-3.64692 -7.753793,-3.41306 -11.296329,0.50809 -4.819948,5.33511 -7.651685,14.67322 -8.250039,27.20589 -0.685599,14.36002 2.731802,22.05141 9.797746,22.05141 9.822085,0 16.655872,-13.13289 18.142455,-34.86545 1.532447,-22.40299 6.03211,-36.52539 13.51092,-42.4046 6.24609,-4.91016 10.99537,-5.64372 13.88138,-2.14411 5.32189,6.45339 8.59575,30.11383 6.15117,44.45514 -2.36654,13.88358 -4.68209,19.40791 -8.69568,20.74577 -3.98207,1.32737 -7.95879,-2.99331 -7.95879,-8.64717 0,-5.3737 -2.70848,-7.86739 -6.94205,-6.39157 -6.58632,2.29602 -1.52484,27.2108 7.64403,37.62719 4.76319,5.41126 10.89411,6.80744 17.10715,3.89579 10.35434,-4.85241 18.51486,-24.05321 16.59264,-39.04057 -1.6167,-12.60526 -3.39695,-19.47169 -5.04837,-19.47169 -0.37656,0 -0.60883,5.1979 -0.60883,13.6257 0,12.60519 -0.1087,13.94793 -1.45143,17.92842 -1.63408,4.84422 -2.57132,5.66505 -3.1522,2.76069 -0.56264,-2.81329 -0.49257,-65.55913 0.0733,-65.55777 1.81531,0.005 10.51547,18.20651 13.8105,28.89391 4.7298,15.34105 4.12058,34.32725 -1.56721,48.84069 -0.8008,2.04342 -1.32439,3.84692 -1.16351,4.00779 0.16087,0.16088 3.86147,-2.42797 8.22353,-5.753 4.36207,-3.32502 8.1605,-5.816 8.44099,-5.53553 0.28047,0.28047 0.33464,2.38732 0.12037,4.68187 l -0.38958,4.17192 -8.19173,6.05236 c -10.2194,7.5505 -9.62592,6.96342 -7.75736,7.67383 0.86634,0.32939 3.26449,2.16289 5.32921,4.07446 4.76185,4.40864 8.44414,11.48124 9.92325,19.05967 1.44313,7.394 0.94464,24.54075 -0.91572,31.49919 -3.40589,12.7393 -11.31639,20.73739 -20.51021,20.73739 -3.43886,0 -4.08178,-0.20646 -5.83739,-1.87465 -4.6062,-4.37677 -6.23772,-10.05584 -6.64224,-23.12064 -0.36007,-11.62921 -0.83583,-13.70235 -3.45549,-15.05705 -3.07917,-1.5923 -3.50556,-0.99871 -11.93784,16.61926 -5.24277,10.95398 -9.88613,15.42624 -17.438803,16.79628 -4.041566,0.73312 -9.300687,0.10295 -12.364808,-1.48157 -2.783523,-1.43943 -6.796588,-5.20372 -8.60983,-8.07607 -0.852033,-1.3497 -2.288456,-4.44441 -3.192053,-6.87716 -1.558665,-4.1964 -1.640352,-4.99995 -1.593106,-15.6711 0.04448,-10.04579 0.223322,-11.89518 1.673353,-17.30466 0.892955,-3.33122 2.19042,-7.33831 2.88325,-8.90456 1.47758,-3.34032 2.770838,-3.84448 2.095457,-0.81689 -0.870423,3.90189 -0.43649,21.75852 0.645364,26.55716 1.531202,6.79172 3.414066,11.46504 5.995116,14.88 7.228322,9.56378 16.53754,7.20944 23.16202,-5.85775 0.75133,-1.48207 2.44399,-5.70003 3.76146,-9.37323 5.3032,-14.7858 4.85645,-14.04854 13.61874,-22.4755 l 7.97876,-7.67341 -3.12442,0.48728 c -1.71842,0.26799 -5.51458,0.47344 -8.43591,0.45655 -4.82897,-0.0279 -5.67827,-0.22659 -9.34903,-2.18707 -5.15482,-2.75312 -10.53751,-7.73298 -12.74756,-11.79356 -0.950493,-1.74636 -2.083013,-5.07278 -2.516723,-7.39203 l -0.788555,-4.21679 -0.472349,2.49952 c -0.620226,3.28201 -3.654662,9.56282 -5.639935,11.6738 -2.890773,3.07381 -5.876864,4.97174 -9.2241,5.86274 -7.196369,1.91558 -12.970345,0.59975 -16.579015,-3.7782 l -1.926805,-2.33754 -0.457993,4.88743 c -0.620791,6.62478 0.07685,18.59237 1.605736,27.54467 6.248683,36.58934 22.523982,60.39394 45.502389,66.55272 6.56701,1.76 17.27504,1.7551 23.93151,-0.011 26.51866,-7.03677 43.76968,-35.81058 47.45372,-79.15038 2.82065,-33.18256 -6.68056,-66.73111 -24.3607,-86.01708 l -3.81136,-4.15753 0.0776,-10.83964 c 0.0426,-5.9618 0.2633,-12.808 0.49023,-15.21379 l 0.41262,-4.37418 4.04015,4.08052 c 16.3388,16.50199 26.99699,41.98685 30.96047,74.02973 1.3842,11.19059 1.37352,32.95048 -0.0217,44.05416 -4.00586,31.88173 -14.50812,58.42092 -30.44727,76.94029 -7.73938,8.9923 -19.78594,16.7413 -29.45268,18.9457 -5.70614,1.3013 -13.41532,1.1785 -19.17634,-0.3051 z"
         inkscape:export-filename="/Users/sheraz/Desktop/icna_a_logo_100.png"
         inkscape:export-xdpi="36.000004"
         inkscape:export-ydpi="36.000004" />
      <g
         id="g4169"
         transform="translate(-20,-7.2767099)"
         style="fill:#ffffff;fill-opacity:1">
        <rect
           inkscape:export-ydpi="36.000004"
           inkscape:export-xdpi="36.000004"
           inkscape:export-filename="/Users/sheraz/Desktop/icna_a_logo_100.png"
           transform="scale(1,-1)"
           y="-947.5368"
           x="301.94626"
           height="6.5243807"
           width="390.74747"
           id="rect4171"
           style="opacity:1;fill:#ffffff;fill-opacity:1;stroke:none;stroke-width:15;stroke-miterlimit:4;stroke-dasharray:none;stroke-opacity:1" />
        <text
           inkscape:export-ydpi="36.000004"
           inkscape:export-xdpi="36.000004"
           inkscape:export-filename="/Users/sheraz/Desktop/icna_a_logo_100.png"
           sodipodi:linespacing="125%"
           id="text4173"
           y="920.87915"
           x="306.04044"
           style="font-style:normal;font-variant:normal;font-weight:bold;font-stretch:normal;font-size:149.14927673px;line-height:125%;font-family:'Times New Roman';-inkscape-font-specification:'Times New Roman, Bold';text-align:start;letter-spacing:0px;word-spacing:0px;writing-mode:lr-tb;text-anchor:start;fill:#ffffff;fill-opacity:1;stroke:none;stroke-width:1px;stroke-linecap:butt;stroke-linejoin:miter;stroke-opacity:1"
           xml:space="preserve"><tspan
             y="920.87915"
             x="306.04044"
             id="tspan4175"
             sodipodi:role="line">ICNA</tspan></text>
        <text
           inkscape:export-ydpi="36.000004"
           inkscape:export-xdpi="36.000004"
           inkscape:export-filename="/Users/sheraz/Desktop/icna_a_logo_100.png"
           xml:space="preserve"
           style="font-style:normal;font-variant:normal;font-weight:bold;font-stretch:normal;font-size:96.68830872px;line-height:125%;font-family:'Times New Roman';-inkscape-font-specification:'Times New Roman, Bold';text-align:start;letter-spacing:0px;word-spacing:0px;writing-mode:lr-tb;text-anchor:start;fill:#ffffff;fill-opacity:1;stroke:none;stroke-width:1px;stroke-linecap:butt;stroke-linejoin:miter;stroke-opacity:1"
           x="253.02621"
           y="1041.8986"
           id="text4177"
           sodipodi:linespacing="125%"><tspan
             sodipodi:role="line"
             id="tspan4179"
             x="253.02621"
             y="1041.8986">Shifa Clinic</tspan></text>
      </g>
    </g>
  </g>
</svg>
