<?xml version="1.0" encoding="UTF-8" standalone="no"?>
<!-- Created with Inkscape (http://www.inkscape.org/) -->

<svg
   xmlns:dc="http://purl.org/dc/elements/1.1/"
   xmlns:cc="http://creativecommons.org/ns#"
   xmlns:rdf="http://www.w3.org/1999/02/22-rdf-syntax-ns#"
   xmlns:svg="http://www.w3.org/2000/svg"
   xmlns="http://www.w3.org/2000/svg"
   xmlns:sodipodi="http://sodipodi.sourceforge.net/DTD/sodipodi-0.dtd"
   xmlns:inkscape="http://www.inkscape.org/namespaces/inkscape"
   width="512"
   height="256"
   viewBox="0 0 512.00001 256"
   id="svg2"
   version="1.1"
   inkscape:version="0.91 r13725"
   sodipodi:docname="icna_logo.svg"
   inkscape:export-filename="/Users/sheraz/Desktop/icna_logo_128.png"
   inkscape:export-xdpi="22.5"
   inkscape:export-ydpi="22.5">
  <defs
     id="defs4" />
  <sodipodi:namedview
     id="base"
     pagecolor="#ffffff"
     bordercolor="#666666"
     borderopacity="1.0"
     inkscape:pageopacity="0.0"
     inkscape:pageshadow="2"
     inkscape:zoom="1.1476675"
     inkscape:cx="214.01839"
     inkscape:cy="145.03509"
     inkscape:document-units="px"
     inkscape:current-layer="layer1"
     showgrid="false"
     borderlayer="true"
     inkscape:showpageshadow="false"
     units="px"
     width="512px"
     inkscape:window-width="1440"
     inkscape:window-height="851"
     inkscape:window-x="0"
     inkscape:window-y="1"
     inkscape:window-maximized="1" />
  <metadata
     id="metadata7">
    <rdf:RDF>
      <cc:Work
         rdf:about="">
        <dc:format>image/svg+xml</dc:format>
        <dc:type
           rdf:resource="http://purl.org/dc/dcmitype/StillImage" />
        <dc:title />
      </cc:Work>
    </rdf:RDF>
  </metadata>
  <g
     inkscape:label="Layer 1"
     inkscape:groupmode="layer"
     id="layer1"
     transform="translate(0,-796.36214)">
    <text
       xml:space="preserve"
       style="font-style:normal;font-weight:normal;font-size:40px;line-height:125%;font-family:sans-serif;letter-spacing:0px;word-spacing:0px;fill:#000000;fill-opacity:1;stroke:none;stroke-width:1px;stroke-linecap:butt;stroke-linejoin:miter;stroke-opacity:1"
       x="596.46021"
       y="1063.8666"
       id="text4550"
       sodipodi:linespacing="125%"><tspan
         sodipodi:role="line"
         id="tspan4552"
         x="596.46021"
         y="1063.8666" /></text>
    <rect
       style="opacity:1;fill:#ffffff;fill-opacity:0.86274511;stroke:none;stroke-width:8;stroke-miterlimit:4;stroke-dasharray:none;stroke-opacity:1"
       id="rect4211"
       width="559.92328"
       height="279.96164"
       x="-23.961639"
       y="784.38135"
       rx="5.2586393"
       ry="5.284586"
       inkscape:export-filename="/Users/sheraz/Desktop/g4202.png"
       inkscape:export-xdpi="82.300003"
       inkscape:export-ydpi="82.300003" />
    <g
       id="g4202"
       inkscape:export-filename="/Users/sheraz/Desktop/g4202.png"
       inkscape:export-xdpi="82.300003"
       inkscape:export-ydpi="82.300003">
      <path
         id="path4784"
         d="m 109.63198,1045.9918 c -5.071,-0.6355 -15.07765,-2.9985 -21.161757,-4.9973 -8.929513,-2.9334 -22.652663,-9.9439 -28.828811,-14.7271 -0.34368,-0.2663 -2.452657,-1.9021 -4.686608,-3.6352 -20.453346,-15.868 -37.745763,-42.22483 -45.5991087,-69.50162 -1.7107936,-5.94203 -5.0163322,-21.30063 -5.0163322,-23.30749 0,-0.74575 2.9249655,-0.88684 18.3890579,-0.88684 l 18.389049,0 0.360509,3.59307 c 5.981717,59.61673 41.185135,102.68168 82.213851,100.57348 23.95045,-1.2308 45.44928,-17.0836 60.82431,-44.85126 7.50385,-13.55209 13.59805,-33.80166 15.59453,-51.81671 l 0.79638,-7.18614 18.88153,-0.16537 c 10.38484,-0.0911 18.88153,0.0707 18.88153,0.35938 0,1.95868 -2.87637,15.99078 -4.43904,21.6554 -5.30666,19.23647 -15.52152,39.00738 -27.45354,53.1364 -23.65516,28.0107 -53.22091,42.4306 -86.29032,42.0859 -4.93932,-0.052 -9.82417,-0.1994 -10.85523,-0.3286 z"
         style="fill:#f0b942;fill-opacity:1" />
      <path
         d="m 93.072595,942.95395 c 0,-0.53869 1.307855,-2.57737 2.906327,-4.5304 4.057258,-4.95712 5.432518,-8.27582 5.055488,-12.19964 -0.50656,-5.27184 -4.290793,-7.32552 -9.493116,-5.15185 -3.669804,1.53334 -4.010297,-0.97942 -0.545007,-4.02199 3.030426,-2.66075 5.746475,-3.73585 9.437933,-3.73585 2.56329,0 3.30901,0.29394 4.8629,1.91678 1.7069,1.78265 1.82883,2.23089 1.74239,6.40504 -0.14858,7.17664 -2.40979,11.79451 -9.216735,18.82253 -3.435407,3.54698 -4.75018,4.23764 -4.75018,2.49538 z m 22.923955,52.19379 c -9.33671,-1.62669 -11.98512,-14.49472 -3.98731,-19.37335 5.93195,-3.61851 13.30839,-1.12583 15.77403,5.33031 2.89564,7.58216 -3.70846,15.45042 -11.78672,14.04304 z m 9.58884,-136.66691 c 1.27475,-1.61143 1.34032,-2.20479 1.05328,-9.52946 -0.38648,-9.86216 -1.59334,-14.07147 -5.16586,-18.01745 -2.5709,-2.83964 -2.73615,-2.91611 -6.30315,-2.91611 -2.66602,0 -4.13697,0.34018 -5.4043,1.24978 -3.2451,2.32911 -5.75346,8.67731 -6.44767,16.31779 -0.52256,5.75114 0.33503,6.47572 3.46086,2.92413 3.84547,-4.36926 5.8512,-4.86535 8.84736,-2.18828 1.65198,1.47605 2.08302,2.4979 2.80499,6.64967 0.46919,2.6981 1.32603,5.42823 1.90408,6.06697 1.51138,1.67007 3.66976,1.44107 5.25041,-0.55704 z m 24.30903,104.53298 c 6.34496,-3.21525 9.12993,-8.88853 9.05959,-18.45552 -0.0514,-6.99423 -1.7297,-12.19284 -4.99278,-15.46582 -4.13884,-4.15137 -5.27413,-2.3934 -5.27413,8.16675 0,7.50969 -0.0519,7.81418 -1.49057,8.7569 -0.81982,0.53714 -1.64402,0.82325 -1.83154,0.63572 -0.1875,-0.18751 -0.36482,-6.71072 -0.39401,-14.49599 -0.0573,-15.27411 -0.42186,-20.09337 -1.51966,-20.08792 -0.38532,0.002 -2.66897,1.55354 -5.07477,3.44803 -2.4058,1.89449 -6.06136,4.77091 -8.12347,6.39205 -2.0621,1.62111 -3.95589,3.23302 -4.20838,3.58189 -1.03899,1.43574 -0.42161,2.19659 1.78238,2.19659 1.78147,0 2.76024,0.49966 4.61799,2.35741 2.89304,2.89304 3.73562,5.73806 3.74343,12.63975 0.006,6.24932 1.50773,16.22248 2.82406,18.768 0.50939,0.98502 1.41828,2.07761 2.01972,2.42795 1.89771,1.10529 5.70676,0.7332 8.86214,-0.86579 z m -39.95,57.12919 c -21.087001,-5.4306 -39.653968,-28.50346 -48.755387,-60.58755 -2.6889,-9.47885 -3.843255,-15.03489 -5.387909,-25.93259 -1.467138,-10.35077 -1.467923,-31.08721 -0.0018,-41.24219 2.771215,-19.19149 7.395493,-36.5146 12.860274,-48.17612 3.540208,-7.55462 14.025602,-24.16042 22.14842,-35.07662 3.150351,-4.23374 4.128241,-5.14475 5.533794,-5.15527 1.662985,-0.0125 1.539185,0.25256 -4.776092,10.22467 l -6.483301,10.23746 3.104197,0.29828 c 3.467515,0.33319 5.739146,1.74178 7.909242,4.90441 1.212932,1.76769 1.41561,2.71375 1.192528,5.56648 -0.219684,2.80912 -1.51378,5.97119 -7.085232,17.31236 -3.74905,7.63152 -7.16795,13.88815 -7.597565,13.90363 -0.429598,0.0154 -0.781094,-0.087 -0.781094,-0.22758 0,-0.14063 1.686838,-4.28829 3.748535,-9.217 3.877663,-9.26998 4.393915,-11.82573 2.837607,-14.04766 -2.554407,-3.64692 -7.753793,-3.41306 -11.296329,0.50809 -4.819948,5.33511 -7.651685,14.67322 -8.250039,27.20589 -0.685599,14.36002 2.731802,22.05141 9.797746,22.05141 9.822085,0 16.655872,-13.13289 18.142455,-34.86545 1.532447,-22.40299 6.03211,-36.52539 13.51092,-42.4046 6.24609,-4.91016 10.99537,-5.64372 13.88138,-2.14411 5.32189,6.45339 8.59575,30.11383 6.15117,44.45514 -2.36654,13.88358 -4.68209,19.40791 -8.69568,20.74577 -3.98207,1.32737 -7.95879,-2.99331 -7.95879,-8.64717 0,-5.3737 -2.70848,-7.86739 -6.94205,-6.39157 -6.58632,2.29602 -1.52484,27.2108 7.64403,37.62719 4.76319,5.41126 10.89411,6.80744 17.10715,3.89579 10.35434,-4.85241 18.51486,-24.05321 16.59264,-39.04057 -1.6167,-12.60526 -3.39695,-19.47169 -5.04837,-19.47169 -0.37656,0 -0.60883,5.1979 -0.60883,13.6257 0,12.60519 -0.1087,13.94793 -1.45143,17.92842 -1.63408,4.84422 -2.57132,5.66505 -3.1522,2.76069 -0.56264,-2.81329 -0.49257,-65.55913 0.0733,-65.55777 1.81531,0.005 10.51547,18.20651 13.8105,28.89391 4.7298,15.34105 4.12058,34.32725 -1.56721,48.84069 -0.8008,2.04342 -1.32439,3.84692 -1.16351,4.00779 0.16087,0.16088 3.86147,-2.42797 8.22353,-5.753 4.36207,-3.32502 8.1605,-5.816 8.44099,-5.53553 0.28047,0.28047 0.33464,2.38732 0.12037,4.68187 l -0.38958,4.17192 -8.19173,6.05236 c -10.2194,7.5505 -9.62592,6.96342 -7.75736,7.67383 0.86634,0.32939 3.26449,2.16289 5.32921,4.07446 4.76185,4.40864 8.44414,11.48124 9.92325,19.05967 1.44313,7.394 0.94464,24.54075 -0.91572,31.49919 -3.40589,12.7393 -11.31639,20.73739 -20.51021,20.73739 -3.43886,0 -4.08178,-0.20646 -5.83739,-1.87465 -4.6062,-4.37677 -6.23772,-10.05584 -6.64224,-23.12064 -0.36007,-11.62921 -0.83583,-13.70235 -3.45549,-15.05705 -3.07917,-1.5923 -3.50556,-0.99871 -11.93784,16.61926 -5.24277,10.95398 -9.88613,15.42624 -17.438803,16.79628 -4.041566,0.73312 -9.300687,0.10295 -12.364808,-1.48157 -2.783523,-1.43943 -6.796588,-5.20372 -8.60983,-8.07607 -0.852033,-1.3497 -2.288456,-4.44441 -3.192053,-6.87716 -1.558665,-4.1964 -1.640352,-4.99995 -1.593106,-15.6711 0.04448,-10.04579 0.223322,-11.89518 1.673353,-17.30466 0.892955,-3.33122 2.19042,-7.33831 2.88325,-8.90456 1.47758,-3.34032 2.770838,-3.84448 2.095457,-0.81689 -0.870423,3.90189 -0.43649,21.75852 0.645364,26.55716 1.531202,6.79172 3.414066,11.46504 5.995116,14.88 7.228322,9.56378 16.53754,7.20944 23.16202,-5.85775 0.75133,-1.48207 2.44399,-5.70003 3.76146,-9.37323 5.3032,-14.7858 4.85645,-14.04854 13.61874,-22.4755 l 7.97876,-7.67341 -3.12442,0.48728 c -1.71842,0.26799 -5.51458,0.47344 -8.43591,0.45655 -4.82897,-0.0279 -5.67827,-0.22659 -9.34903,-2.18707 -5.15482,-2.75312 -10.53751,-7.73298 -12.74756,-11.79356 -0.950493,-1.74636 -2.083013,-5.07278 -2.516723,-7.39203 l -0.788555,-4.21679 -0.472349,2.49952 c -0.620226,3.28201 -3.654662,9.56282 -5.639935,11.6738 -2.890773,3.07381 -5.876864,4.97174 -9.2241,5.86274 -7.196369,1.91558 -12.970345,0.59975 -16.579015,-3.7782 l -1.926805,-2.33754 -0.457993,4.88743 c -0.620791,6.62478 0.07685,18.59237 1.605736,27.54467 6.248683,36.58934 22.523982,60.39394 45.502389,66.55272 6.56701,1.76 17.27504,1.7551 23.93151,-0.011 26.51866,-7.03677 43.76968,-35.81058 47.45372,-79.15038 2.82065,-33.18256 -6.68056,-66.73111 -24.3607,-86.01708 l -3.81136,-4.15753 0.0776,-10.83964 c 0.0426,-5.9618 0.2633,-12.808 0.49023,-15.21379 l 0.41262,-4.37418 4.04015,4.08052 c 16.3388,16.50199 26.99699,41.98685 30.96047,74.02973 1.3842,11.19059 1.37352,32.95048 -0.0217,44.05416 -4.00586,31.88173 -14.50812,58.42092 -30.44727,76.94029 -7.73938,8.9923 -19.78594,16.7413 -29.45268,18.9457 -5.70614,1.3013 -13.41532,1.1785 -19.17634,-0.3051 z"
         style="fill:#356734;fill-opacity:1"
         id="path4473" />
      <rect
         transform="scale(1,-1)"
         y="-893.99121"
         x="263.12833"
         height="1.8399447"
         width="247.31485"
         id="rect4498"
         style="opacity:1;fill:#f0b942;fill-opacity:1;stroke:none;stroke-width:15;stroke-miterlimit:4;stroke-dasharray:none;stroke-opacity:1" />
      <path
         sodipodi:nodetypes="cssssscscscsssssccsssccsccsccssccsssssscscsscssssssssscssccsssccccccscsscccsscsssscscsscscscscscsccccsscsssccssccscccssscccsscscccscscsscsssssccsssssssssscssssscssscccccsccscccssscssscccscssscccsscsccssccscccscsscssssssscsccsssscccccccccccscsscsssssssscsccsssscsssssssscscsssssccsscsssscsssscscssscsssscccccssssscccssccsssscsssscsccccssccccsssccssscscscsssssssscsssscccsssssscssssscccsssscscsssssssscssscssscscsssscsscccsccsssscscscccscccscccscscsccccsccccscsscccsscccssccscsccscccscssscccssssscsssccsssscssssssssssscssscssssscscsscsscsssccsscsccccssssssssscccscccscssscccscc"
         inkscape:connector-curvature="0"
         id="path4558"
         d="m 266.31878,957.44315 c -0.47232,-0.76427 0.25757,-1.1991 2.01289,-1.1991 2.5741,0 2.68326,-0.22595 4.00575,-8.29377 0.16342,-0.99701 0.0694,-1.29903 -0.40474,-1.29903 -0.3397,0 -0.61765,-0.17986 -0.61765,-0.3997 0,-0.21984 0.3236,-0.39969 0.71909,-0.39969 0.45193,0 0.89784,-0.49424 1.20012,-1.33024 0.62442,-1.72672 1.99479,-2.98992 3.58971,-3.30889 0.98959,-0.19792 1.3326,-0.10115 1.53794,0.43388 0.34434,0.89737 -0.51622,1.41446 -1.89502,1.1387 -0.81676,-0.16336 -1.18788,-0.0168 -1.51771,0.59947 -0.77945,1.45648 -0.54898,2.46708 0.5627,2.46708 0.5496,0 0.99925,0.17985 0.99925,0.39969 0,0.21984 -0.43903,0.3997 -0.97562,0.3997 -1.26094,0 -1.32254,0.12411 -2.00678,4.04373 -0.61882,3.54462 -1.31739,4.82521 -3.4087,6.24854 -1.3703,0.93262 -3.37108,1.19559 -3.80123,0.49963 z m -3.3696,-4.91143 c -1.59084,-0.79961 -1.85592,-2.39233 -0.76433,-4.59259 1.14505,-2.30811 2.65935,-3.04108 3.92201,-1.89838 1.01915,0.92235 1.05105,2.77435 0.0789,4.58695 -1.04105,1.94111 -2.01864,2.51619 -3.23661,1.90402 z m 2.4835,-2.42219 c 0.47992,-1.44052 -0.19293,-3.05858 -1.27192,-3.05858 -0.97842,0 -1.44096,1.81604 -0.85508,3.35708 0.53036,1.39496 1.61343,1.24295 2.127,-0.2985 z m 33.0967,-2.45355 c -2.92064,-2.97078 -5.33739,-5.40159 -5.37049,-5.40183 -0.14061,0 0.18043,8.2716 0.35182,9.06432 0.10344,0.47852 0.5027,0.95228 0.88725,1.05281 0.38455,0.10051 -0.46992,0.18274 -1.89885,0.18274 -1.42893,0 -2.30171,-0.0787 -1.93958,-0.1749 0.98569,-0.26181 1.12879,-1.32429 1.13474,-8.42585 0.004,-3.57231 0.1084,-6.49511 0.23427,-6.49511 0.12583,0 2.57371,2.42816 5.43971,5.39595 2.86605,2.96777 5.3541,5.39594 5.52909,5.39594 0.30377,0 0.12355,-8.48643 -0.20093,-9.46186 -0.0858,-0.25776 -0.5716,-0.54803 -1.07966,-0.64508 -0.50807,-0.097 0.2903,-0.20088 1.77418,-0.23081 2.66028,-0.0537 2.68726,-0.0437 1.93076,0.71278 -0.68981,0.6898 -0.77167,1.42537 -0.81089,7.28602 -0.024,3.58533 -0.18481,6.65999 -0.3574,6.83254 -0.17255,0.1726 -2.70338,-2.11685 -5.62402,-5.08766 z m 18.06168,5.01955 c -3.12813,-0.78486 -4.90247,-3.05122 -4.90483,-6.26494 0,-2.25474 0.95396,-4.05727 2.92552,-5.51826 1.40766,-1.04309 6.17979,-1.18339 8.04979,-0.23658 2.95563,1.49645 4.05484,6.31114 2.10806,9.23391 -1.50679,2.26226 -5.22184,3.52771 -8.17854,2.78587 z m 5.31113,-2.05355 c 1.04737,-1.09317 1.17396,-1.49951 1.17396,-3.7678 0,-2.97021 -0.7912,-4.37227 -3.12106,-5.53073 -3.90698,-1.94262 -7.10187,2.39224 -5.27971,7.16354 1.29399,3.38818 4.98226,4.47785 7.22681,2.13499 z m 162.79405,1.821 c -5.73337,-1.83898 -6.3587,-9.38242 -0.98026,-11.82505 1.65247,-0.75043 4.68124,-0.97238 6.98431,-0.51177 1.15769,0.23155 1.24874,0.37041 1.24464,1.89859 l -0.004,1.64875 -0.9811,-1.24451 c -1.78279,-2.26137 -5.92279,-2.05585 -7.44653,0.36972 -1.14274,1.81904 -0.89732,5.44181 0.46761,6.90278 2.59234,2.77476 6.09678,2.9462 7.50737,0.36721 0.39733,-0.72649 0.43779,-0.69003 0.44326,0.3997 0.004,0.65951 -0.14584,1.43868 -0.33151,1.73154 -0.50937,0.80356 -4.71822,0.96391 -6.90333,0.26304 z m -152.12722,-0.22794 c 0.61302,-0.35706 0.69948,-1.09323 0.69948,-5.95406 0,-4.9464 -0.0756,-5.56637 -0.69948,-5.72941 -0.38471,-0.10052 1.06241,-0.20365 3.21578,-0.22915 3.70035,-0.0438 3.97155,0.01 4.94099,0.97938 0.82793,0.82791 0.97722,1.26837 0.77412,2.28381 -0.13836,0.69196 -0.69064,1.71635 -1.22727,2.27646 l -0.97566,1.01835 1.8821,2.26585 c 1.03513,1.24619 2.42166,2.54401 3.08117,2.88403 l 1.19909,0.61826 -1.72497,0.01 c -2.26951,0.012 -2.83032,-0.33351 -4.82023,-2.96914 -1.03578,-1.37189 -1.97452,-2.21788 -2.46099,-2.21788 -0.68737,0 -0.78645,0.27858 -0.78645,2.21121 0,1.91956 0.11862,2.2589 0.89933,2.57271 0.66674,0.26799 0.17566,0.36493 -1.89859,0.37468 -2.08686,0.01 -2.62015,-0.0904 -2.09842,-0.39423 z m 5.96405,-6.2253 c 1.64176,-1.4858 0.46074,-4.93428 -1.68994,-4.93428 l -1.17643,0 0,2.53141 c 0,1.39232 0.11991,2.65137 0.26649,2.7979 0.48515,0.48515 1.85775,0.2766 2.59988,-0.39503 z m 13.52132,6.26606 c 0.4726,-0.29853 0.62901,-1.52445 0.73869,-5.78952 l 0.13917,-5.41082 -1.56163,0 c -0.85891,0 -1.91076,0.26408 -2.33748,0.58683 -1.11473,0.84313 -1.34303,0.74964 -1.02982,-0.42152 l 0.27646,-1.03379 5.68454,-0.0653 5.68449,-0.0653 -3e-5,1.29903 c -9e-5,1.29902 -9e-5,1.29902 -0.79949,0.49962 -0.49487,-0.49488 -1.33232,-0.7994 -2.19836,-0.7994 l -1.39894,0 0,5.40882 c 0,5.23559 0.0288,5.42041 0.89932,5.77031 0.66815,0.26855 0.18003,0.36645 -1.89856,0.38071 -1.91101,0.0132 -2.60786,-0.10085 -2.19836,-0.35949 z m 14.56051,-0.23714 c 0.50638,-0.50638 0.62809,-1.63197 0.62809,-5.80856 0,-4.99868 -0.0316,-5.1931 -0.89933,-5.54187 -0.65846,-0.26469 -0.15001,-0.35585 1.89859,-0.34047 1.53884,0.0115 2.48313,0.10332 2.09842,0.20381 -0.5669,0.14817 -0.69948,0.63172 -0.69948,2.55168 l 0,2.3689 3.1976,0 3.19759,0 0,-2.3689 c 0,-1.91996 -0.13254,-2.40351 -0.69947,-2.55168 -0.38472,-0.10052 0.46964,-0.19817 1.89857,-0.217 1.94387,-0.0256 2.42195,0.0684 1.89858,0.3732 -0.60859,0.35449 -0.69867,1.06684 -0.69336,5.48373 0.004,2.79198 0.1383,5.28031 0.29978,5.52969 0.16151,0.24936 0.65338,0.54327 1.09306,0.6531 0.43967,0.10984 -0.54959,0.21511 -2.19836,0.23394 -2.21478,0.0253 -2.81503,-0.0721 -2.29827,-0.37319 0.55178,-0.32137 0.69947,-0.95185 0.69947,-2.98561 l 0,-2.57818 -3.19759,0 -3.1976,0 0,2.61093 c 0,2.33403 0.0953,2.64924 0.89933,2.97241 0.67296,0.2705 0.213,0.36788 -1.8272,0.38683 -2.47865,0.0232 -2.66943,-0.0321 -2.09842,-0.60276 z m 27.77587,0.12258 c 0.74923,-0.38238 1.57274,-2.0114 3.65129,-7.22273 1.47613,-3.70098 2.87776,-6.92285 3.11466,-7.15978 0.3079,-0.30789 0.53688,-0.15565 0.80273,0.53368 1.61978,4.1998 4.61077,11.49932 5.09785,12.44121 0.32847,0.63525 0.99253,1.31414 1.47564,1.50871 0.6548,0.26368 0.24242,0.36021 -1.61974,0.37909 -2.20442,0.0224 -2.49813,-0.0647 -2.49813,-0.74094 0,-0.42144 -0.35332,-1.59056 -0.78516,-2.59804 l -0.78522,-1.83179 -2.03222,0 c -2.00346,0 -2.0432,0.024 -2.80335,1.69873 -0.96203,2.11945 -0.98606,2.98747 -0.0891,3.22185 0.3847,0.10052 -0.46966,0.20102 -1.89858,0.22328 -2.30398,0.0359 -2.48854,-0.0156 -1.63061,-0.45327 z m 8.02581,-5.8185 c 0,-0.73525 -1.29611,-4.06818 -1.58206,-4.06818 -0.33146,0 -1.61554,3.1081 -1.61554,3.91041 0,0.30086 0.60966,0.48628 1.59879,0.48628 0.87935,0 1.59881,-0.1478 1.59881,-0.32851 z m 10.04726,5.91756 c 0.48476,-0.28308 0.89148,-1.93723 1.56954,-6.38301 0.50339,-3.30052 1.06179,-6.00094 1.24095,-6.00094 0.17915,0 1.3109,1.96449 2.51506,4.36552 1.20418,2.401 2.33913,4.45802 2.52215,4.57113 0.18303,0.11311 1.3567,-1.85137 2.60817,-4.36548 2.05289,-4.12415 3.07157,-5.46929 3.0834,-4.07154 0.004,0.27479 0.36165,2.83786 0.79844,5.69573 0.643,4.20671 0.95504,5.32928 1.63884,5.89557 0.82775,0.68548 0.80461,0.69947 -1.15755,0.69947 l -2.00222,0 -0.27141,-2.70265 c -0.14928,-1.48644 -0.39318,-3.29801 -0.54202,-4.02569 -0.26449,-1.2932 -0.31533,-1.23212 -2.25359,2.7072 -1.09062,2.21665 -2.15858,3.97174 -2.37326,3.90019 -0.21464,-0.0716 -1.15557,-1.64429 -2.09095,-3.49489 -0.93538,-1.85065 -1.86381,-3.4192 -2.06318,-3.48562 -0.19932,-0.0664 -0.47864,0.99097 -0.62069,2.34982 -0.38783,3.71078 -0.33235,4.27396 0.44123,4.47612 0.38471,0.10052 -0.28977,0.19817 -1.49887,0.217 -1.5757,0.0244 -2.01301,-0.074 -1.54404,-0.34793 z m 23.69884,-0.22164 c 0.50639,-0.50638 0.62809,-1.63197 0.62809,-5.80856 0,-5.00309 -0.0307,-5.1923 -0.89932,-5.52716 -0.62302,-0.24022 0.42109,-0.38976 3.39828,-0.48677 l 4.29766,-0.13997 0,1.16112 c 0,1.09955 -0.0396,1.12604 -0.73182,0.49963 -0.40204,-0.36384 -1.3913,-0.66149 -2.19838,-0.66149 l -1.46742,0 0,2.24783 0,2.24787 2.21597,-0.18379 c 1.79794,-0.14908 2.17493,-0.0769 1.99851,0.38292 -0.11963,0.31165 -0.21748,0.94605 -0.21748,1.40973 0,0.75353 -0.0531,0.77427 -0.49963,0.1953 -0.27478,-0.35633 -1.12914,-0.70547 -1.89857,-0.7759 l -1.39895,-0.12802 -0.12383,2.18619 c -0.0974,1.71804 0.026,2.29585 0.57601,2.69798 1.02199,0.74732 2.43121,0.62613 3.34497,-0.28762 0.79939,-0.7994 0.79939,-0.7994 0.79939,0.3997 l 0,1.1991 -4.22537,0 c -3.84128,0 -4.16831,-0.0571 -3.5973,-0.62809 z m 15.1886,0 c 0.50599,-0.50598 0.62809,-1.62901 0.62809,-5.77578 0,-4.48092 -0.0906,-5.20049 -0.69948,-5.55511 -0.97619,-0.56861 6.47755,-0.57621 7.53979,-0.008 1.75836,0.94101 1.71719,3.48698 -0.0875,5.41389 l -0.78826,0.84161 2.06238,2.43873 c 1.13427,1.34128 2.53517,2.61208 3.11314,2.82404 0.95036,0.3485 0.87785,0.38831 -0.75887,0.41684 -2.16801,0.038 -3.03955,-0.51545 -4.98346,-3.16357 -0.87606,-1.19342 -1.7777,-2.00095 -2.23416,-2.00095 -0.66178,0 -0.76538,0.29926 -0.76538,2.21124 0,1.91955 0.11862,2.25889 0.89932,2.5727 0.67298,0.2705 0.21299,0.36788 -1.82719,0.38683 -2.47867,0.0232 -2.66943,-0.0321 -2.09842,-0.60275 z m 5.82418,-6.1668 c 1.65073,-1.65069 0.47105,-4.7964 -1.79865,-4.7964 -0.97066,0 -0.99924,0.0799 -0.99924,2.79789 0,2.71796 0.0283,2.7979 0.99924,2.7979 0.54959,0 1.35898,-0.35972 1.79865,-0.79939 z m 11.69123,6.51937 c 0.62521,-0.1634 0.69948,-0.79208 0.69948,-5.91983 0,-5.12775 -0.0742,-5.75644 -0.69948,-5.91983 -0.38471,-0.10052 0.46965,-0.20089 1.89857,-0.22304 1.77934,-0.0276 2.40911,0.0792 1.9985,0.33871 -0.69788,0.44111 -1.05501,5.89429 -0.61609,9.40737 0.22215,1.77808 0.4168,2.17253 1.14145,2.31343 0.48049,0.0934 -0.4754,0.17347 -2.12416,0.17791 -1.64876,0.004 -2.68298,-0.0742 -2.29827,-0.17472 z m 28.11117,-0.11159 c 0.58752,-0.2377 1.5847,-2.10566 3.39745,-6.36425 1.41118,-3.31528 2.76845,-6.03032 3.0161,-6.03344 0.2477,-0.004 1.41681,2.35203 2.59805,5.2336 1.18127,2.88151 2.62463,5.75935 3.20743,6.39519 l 1.05968,1.15601 -1.88002,0 -1.88008,0 -0.71866,-1.99849 -0.71862,-1.99851 -2.15286,0 c -2.09639,0 -2.16869,0.038 -2.75773,1.44775 -0.76778,1.83755 -0.75891,2.0507 0.0945,2.27373 0.3847,0.10052 -0.37973,0.19227 -1.69874,0.20381 -1.67398,0.0148 -2.14705,-0.0806 -1.56654,-0.3154 z m 7.3622,-5.15989 c 0,-0.54754 -1.18439,-3.2464 -1.42469,-3.2464 -0.2555,0 -1.37322,2.59221 -1.37322,3.18477 0,0.22687 0.62953,0.41253 1.39895,0.41253 0.76942,0 1.39896,-0.15788 1.39896,-0.3509 z M 262.12193,924.97049 c 0,-0.16651 0.26979,-0.30273 0.59955,-0.30273 0.50893,0 0.59955,-1.00545 0.59955,-6.65093 0,-5.86545 -0.0826,-6.7136 -0.69948,-7.18189 -0.59971,-0.45522 -0.24342,-0.52892 2.49813,-0.5166 2.48569,0.0111 3.00825,0.10603 2.34723,0.4262 -1.0078,0.48814 -1.3595,2.42165 -1.32492,7.28404 0.0339,4.80839 0.39587,6.41198 1.48121,6.56704 0.49167,0.0703 0.89392,0.27274 0.89392,0.44998 0,0.17722 -1.43891,0.30093 -3.19759,0.27491 -1.75868,-0.026 -3.1976,-0.18351 -3.1976,-0.35002 z m 14.48911,0.25221 c -0.53248,-0.23645 -0.7205,-3.75894 -0.19985,-3.74391 0.16488,0.004 0.56957,0.58932 0.89932,1.29902 0.52296,1.12557 0.82175,1.30635 2.33913,1.4153 1.97231,0.14161 3.25667,-0.69012 3.25667,-2.10898 0,-1.12931 -0.60495,-1.83705 -2.86749,-3.35459 -1.02755,-0.68922 -2.24163,-1.72776 -2.69797,-2.30787 -2.49477,-3.17159 1.05768,-7.06982 5.79529,-6.35934 1.75652,0.2634 1.76867,0.27634 1.76867,1.88178 l 0,1.61659 -1.15961,-1.24135 c -1.2921,-1.38324 -2.57783,-1.57858 -3.97038,-0.60319 -1.33996,0.93858 -1.02319,2.5383 0.70364,3.55325 0.7531,0.44263 2.14706,1.54556 3.09766,2.45092 1.49149,1.4205 1.72839,1.87163 1.72839,3.29121 0,1.25007 -0.27795,1.95617 -1.15749,2.94056 -1.08483,1.21417 -1.34199,1.30165 -4.09693,1.39399 -1.61667,0.0542 -3.16426,0 -3.43905,-0.12339 z m 16.28913,-0.25516 c 0,-0.16488 0.24597,-0.29978 0.54823,-0.29978 0.80244,0 1.04921,-1.8421 1.04921,-7.83136 l 0,-5.33319 -1.09918,-0.59632 c -1.04618,-0.56758 -0.93534,-0.5958 2.29827,-0.58528 2.75531,0.009 3.22563,0.0938 2.48834,0.44914 -0.89525,0.43143 -0.90748,0.53288 -0.7994,6.63961 l 0.10972,6.20148 1.19909,0.32396 c 1.71684,0.46376 3.85907,-0.018 4.09521,-0.921 0.22899,-0.87567 0.90105,-1.00373 0.90105,-0.17171 0,0.31544 -0.17643,1.03766 -0.39211,1.60492 l -0.39214,1.03134 -5.0025,-0.10603 c -2.75137,-0.0583 -5.00308,-0.24094 -5.00379,-0.40581 z m 14.78753,0.0497 c 0,-0.19226 0.37105,-0.34957 0.8245,-0.34957 0.87735,0 0.8128,0.12294 5.19686,-9.89729 1.17936,-2.69554 2.3113,-4.84536 2.51539,-4.7773 0.20413,0.0681 1.67012,3.12513 3.25777,6.79362 3.01172,6.95902 3.53142,7.88097 4.44229,7.88097 0.30281,0 0.55058,0.17986 0.55058,0.39969 0,0.21984 -0.8846,0.39971 -1.96579,0.39971 -2.1543,0 -3.33298,-0.30985 -3.03189,-0.79704 0.10657,-0.17247 -0.18821,-1.2328 -0.65514,-2.35632 l -0.84892,-2.04275 -2.36447,0 -2.36443,0 -0.7711,1.69873 c -0.93414,2.05793 -0.97899,2.69798 -0.18911,2.69798 0.32977,0 0.59956,0.14632 0.59956,0.32516 0,0.17882 -1.16912,0.33613 -2.59804,0.34957 -1.42893,0.0136 -2.59806,-0.13286 -2.59806,-0.32516 z m 9.44791,-6.86804 c -0.12739,-0.50746 -0.53104,-1.63162 -0.89705,-2.49813 l -0.66549,-1.57545 -0.68697,1.60047 c -1.47221,3.42999 -1.47841,3.39578 0.61218,3.39578 1.75252,0 1.85449,-0.0574 1.63733,-0.92267 z m 12.13589,6.8311 c 0,-0.17194 0.25553,-0.31263 0.56782,-0.31263 0.65038,0 0.73524,-0.34267 1.83037,-7.39446 1.01261,-6.51998 1.19516,-7.39444 1.54377,-7.39444 0.15464,0 1.53433,2.51795 3.06594,5.59543 1.53161,3.07746 2.88512,5.59556 3.00779,5.59581 0.12262,2e-4 1.45481,-2.51775 2.96041,-5.59543 1.50559,-3.07771 2.88567,-5.59581 3.0669,-5.59581 0.41204,0 0.51089,0.47488 1.58049,7.5943 0.97334,6.47849 1.21776,7.1946 2.45551,7.1946 0.54855,0 0.72581,0.13945 0.48428,0.38098 -0.21124,0.21129 -1.4043,0.2754 -2.67799,0.14394 l -2.297,-0.23705 -0.0253,-1.64282 c -0.0136,-0.90356 -0.24876,-2.9918 -0.52216,-4.64055 l -0.49715,-2.99775 -2.36759,4.69647 c -1.30214,2.58306 -2.56863,4.69647 -2.81432,4.69647 -0.24574,0 -1.50216,-2.02347 -2.79198,-4.49663 l -2.34525,-4.49661 -0.27519,1.59879 c -0.15133,0.87935 -0.40071,2.8129 -0.55415,4.29678 -0.24025,2.32385 -0.19016,2.69798 0.36118,2.69798 0.35205,0 0.64011,0.155 0.64011,0.34441 0,0.18942 -0.98926,0.33012 -2.19834,0.31265 -1.2091,-0.0177 -2.19835,-0.17246 -2.19835,-0.34443 z m 27.17959,0.0363 c 0,-0.14061 0.35974,-0.34974 0.7994,-0.46473 0.75851,-0.19833 0.79941,-0.54519 0.79941,-6.78042 0,-6.4198 -0.0208,-6.5814 -0.89933,-7.0051 -0.73086,-0.3525 -0.30242,-0.4388 2.28727,-0.46078 2.99452,-0.0256 3.13306,0.0109 2.29828,0.59515 -0.8502,0.59552 -0.88833,0.87711 -0.88833,6.56236 0,3.26706 0.1092,6.22464 0.24263,6.57238 0.13345,0.34774 0.5831,0.63224 0.99923,0.63224 0.41618,0 0.75664,0.14805 0.75664,0.329 0,0.18094 -1.43892,0.31696 -3.1976,0.30228 -1.75868,-0.0148 -3.1976,-0.14177 -3.1976,-0.28238 z m 18.4232,-0.0659 c -4.4618,-1.42433 -6.52961,-7.27482 -4.02616,-11.39137 1.55615,-2.55891 5.5462,-3.95106 9.90927,-3.45744 3.20887,0.36301 3.32702,0.47032 3.01606,2.73891 l -0.26213,1.91236 -0.50733,-1.20662 c -0.61094,-1.45299 -1.39599,-1.91576 -3.77001,-2.22233 -2.75961,-0.35633 -4.42469,0.41209 -5.49588,2.53633 -2.28057,4.52257 0.23239,9.78298 4.92623,10.31202 2.17785,0.2455 3.91793,-0.43903 4.52979,-1.78189 0.25657,-0.56315 0.57128,-0.91912 0.69936,-0.79105 0.47048,0.47048 -0.32025,3.0707 -1.05313,3.46288 -0.9777,0.52324 -6.20653,0.44986 -7.96607,-0.1118 z m 33.04379,0.11839 c -3.39909,-1.02347 -5.5015,-3.82672 -5.5015,-7.33533 0,-2.52659 0.78797,-4.26029 2.62419,-5.77387 1.83491,-1.51246 4.95731,-2.2585 7.8945,-1.88622 3.48763,0.44207 3.4708,0.42924 3.4708,2.65353 0,1.22831 -0.15359,1.90021 -0.39969,1.74812 -0.21984,-0.13585 -0.3997,-0.59199 -0.3997,-1.01364 0,-1.03099 -1.41286,-1.87379 -3.5973,-2.14578 -4.04532,-0.5037 -6.3952,1.68525 -6.3952,5.95733 0,1.91368 0.20533,2.78151 0.89932,3.80122 1.26485,1.85844 2.70193,2.81681 4.60703,3.07234 2.32109,0.31132 3.60081,-0.11788 4.43338,-1.48693 0.39699,-0.65279 0.82011,-1.08862 0.94026,-0.96852 0.36377,0.36381 -0.39271,3.06967 -0.95847,3.42839 -0.66823,0.42364 -6.16371,0.38712 -7.61762,-0.0506 z m 16.0823,-0.0987 c 0,-0.16652 0.2664,-0.30274 0.59196,-0.30274 0.89392,0 1.04717,-1.26057 0.92174,-7.58306 -0.11344,-5.71835 -0.12615,-5.79022 -1.114,-6.2894 -0.87943,-0.44443 -0.59192,-0.50242 2.39819,-0.4838 2.75909,0.0172 3.22674,0.10343 2.48877,0.45906 -0.89788,0.43272 -0.90739,0.51677 -0.7994,7.06766 0.10776,6.53312 0.1224,6.63153 1.00861,6.7574 0.49463,0.0703 0.89932,0.27275 0.89932,0.44998 0,0.17722 -1.43892,0.30094 -3.19759,0.27492 -1.75868,-0.026 -3.1976,-0.18352 -3.1976,-0.35002 z m 13.9895,0.0702 c 0,-0.15383 0.35972,-0.37379 0.79939,-0.48879 0.75755,-0.19809 0.7994,-0.54519 0.7994,-6.62886 l 0,-6.41986 -1.09917,-0.62153 c -1.03411,-0.58477 -0.81192,-0.6151 3.7553,-0.51242 5.22052,0.11739 6.15497,0.46901 6.97991,2.62639 0.42245,1.10477 -0.33262,3.12217 -1.58685,4.23969 -0.47004,0.41877 -0.8546,0.90881 -0.8546,1.08891 0,0.73975 4.90132,5.95493 5.81116,6.18327 1.42825,0.35845 1.20554,0.95964 -0.35552,0.95964 -2.47176,0 -3.64367,-0.72517 -5.83939,-3.61333 -1.59171,-2.09374 -2.35414,-2.78186 -3.08216,-2.78186 -0.93937,0 -0.96388,0.0778 -0.84912,2.69797 0.10743,2.45144 0.20037,2.70964 1.01751,2.82568 0.49464,0.0703 0.89933,0.27135 0.89933,0.44689 0,0.17552 -1.43892,0.3099 -3.1976,0.29855 -1.75869,-0.0112 -3.19759,-0.14645 -3.19759,-0.30034 z m 8.045,-7.82884 c 0.30169,-0.36352 0.54854,-1.45862 0.54854,-2.43353 0,-2.06657 -1.13738,-3.30069 -3.04201,-3.30069 l -1.15484,0 0,3.1976 0,3.19761 1.54988,0 c 0.95403,0 1.76071,-0.2541 2.09843,-0.66099 z m 17.4415,7.8573 c -3.42898,-1.0325 -5.50151,-3.73116 -5.50151,-7.16365 0,-2.63639 0.71961,-4.32528 2.51447,-5.90114 1.7706,-1.55463 5.03545,-2.32306 8.19353,-1.92847 3.1944,0.39909 3.2815,0.46397 3.2815,2.44377 0,1.90624 -0.56215,2.35579 -0.96064,0.76819 -0.34031,-1.35596 -1.52971,-1.89107 -4.26053,-1.91677 -3.82061,-0.0359 -5.6918,1.92868 -5.65579,5.93822 0.0368,4.11575 2.78751,6.95874 6.73242,6.95874 1.78346,0 2.77836,-0.53921 3.52147,-1.90861 l 0.59108,-1.08915 0.016,1.47033 c 0.0248,2.26463 -0.72397,2.73232 -4.30933,2.69215 -1.68801,-0.0189 -3.56124,-0.1825 -4.16271,-0.36361 z m 16.08288,-0.10159 c -3.2e-4,-0.16488 0.24826,-0.29978 0.55235,-0.29978 0.30413,0 0.66138,-0.40471 0.79392,-0.89933 0.34382,-1.28292 0.29789,-11.60528 -0.054,-12.12509 -0.16152,-0.23862 -0.6534,-0.63784 -1.09307,-0.88718 -0.64259,-0.36441 -0.13306,-0.45038 2.59806,-0.43839 2.73586,0.012 3.22234,0.0993 2.49812,0.44863 -0.87482,0.42192 -0.89932,0.60114 -0.89932,6.5779 l 0,6.14414 1.09918,0.42213 c 1.54815,0.59451 3.74831,0.14708 4.57804,-0.93107 l 0.70023,-0.9098 0.009,0.9256 c 0.004,0.50908 -0.17699,1.27287 -0.4041,1.69728 -0.37879,0.70771 -0.82582,0.76351 -5.39535,0.6732 -2.7403,-0.0541 -4.98265,-0.23337 -4.98298,-0.39824 z m 17.18674,0.0467 c -1.2e-4,-0.13921 0.35948,-0.34722 0.79916,-0.4622 0.75871,-0.19838 0.79939,-0.54519 0.79939,-6.80822 l 0,-6.59912 -1.09917,-0.40145 c -0.83797,-0.30609 0.15927,-0.40898 4.19685,-0.43303 5.23683,-0.0312 5.29598,-0.0215 5.28991,0.86778 -0.004,0.49463 -0.18046,1.16912 -0.3936,1.49887 -0.33322,0.51566 -0.3883,0.50422 -0.39357,-0.0818 -0.007,-0.73606 -1.9419,-1.29371 -3.65098,-1.05201 -0.88174,0.1247 -0.95169,0.31079 -0.95169,2.53277 l 0,2.3982 2.49813,-0.004 2.49811,-0.004 -0.0212,1.60271 c -0.0208,1.57338 -0.0324,1.58625 -0.64828,0.7034 -0.50506,-0.72402 -1.00748,-0.89933 -2.57709,-0.89933 l -1.94975,1.7e-4 0,2.3982 c 0,1.86528 0.17766,2.57582 0.7994,3.19759 1.26913,1.26909 3.98768,0.96263 4.74008,-0.53432 0.37704,-0.75015 0.42277,-0.65298 0.34538,0.73417 l -0.0892,1.59881 -5.09592,0 c -2.80278,0 -5.09606,-0.11393 -5.09618,-0.25318 z M 328.8718,874.72381 c -11.72675,-2.50106 -19.66799,-9.6501 -22.22024,-20.00354 -0.9668,-3.92198 -0.98497,-10.78594 -0.038,-14.3892 2.44673,-9.31076 8.83508,-15.75836 18.67518,-18.84824 2.78722,-0.87521 3.58886,-0.93435 12.17674,-0.89826 7.64666,0.0322 9.8538,0.17736 13.12079,0.86331 2.16021,0.45357 3.983,0.88584 4.05067,0.96061 0.21288,0.23526 -0.48375,13.15924 -0.72214,13.39764 -0.6348,0.6348 -1.46118,-0.35381 -1.46934,-1.75778 -0.0256,-4.42178 -3.70065,-7.90934 -10.08978,-9.57535 -3.66288,-0.95512 -10.53109,-0.84585 -13.89893,0.22113 -8.13272,2.57657 -12.40392,9.76828 -12.49149,21.0329 -0.0643,8.27465 2.04858,13.82978 7.21726,18.97497 5.73354,5.70749 12.19553,7.72194 20.46627,6.38006 4.84652,-0.78631 8.0006,-3.34012 9.42621,-7.63233 0.76002,-2.28819 1.77741,-2.62474 1.77741,-0.58797 0,1.78714 -1.10093,8.16617 -1.64239,9.51647 -0.86727,2.16277 -5.48828,3.13281 -14.7453,3.0953 -4.38342,-0.0178 -7.18896,-0.23702 -9.59279,-0.74972 z m 82.98469,-14.03307 c -8.15971,-8.19111 -16.00498,-16.17415 -17.43391,-17.74007 -5.08798,-5.5758 -6.88447,-7.45956 -6.99874,-7.33867 -0.0637,0.0674 0.11195,7.67685 0.39039,16.90992 0.40956,13.58267 0.62716,17.07402 1.13975,18.28881 0.7041,1.66862 1.86415,2.29574 4.2466,2.29574 1.84718,0 3.03652,1.04694 1.55707,1.37065 -0.51406,0.11247 -4.89165,0.16485 -9.72802,0.11639 -7.51072,-0.0752 -8.79339,-0.17554 -8.79339,-0.68764 0,-0.43175 0.60075,-0.65986 2.14639,-0.81502 2.75984,-0.27704 3.47475,-1.11971 3.78871,-4.46577 0.12971,-1.38235 0.3527,-12.5858 0.49559,-24.89655 0.1429,-12.31077 0.42452,-22.69796 0.62585,-23.08268 0.48995,-0.93623 0.99976,-0.88125 2.05482,0.22161 0.48463,0.5066 2.49109,2.62001 4.45877,4.69647 1.96768,2.07647 9.27567,9.62101 16.23992,16.76565 6.96429,7.14463 13.78501,14.20432 15.15715,15.68822 1.37216,1.48389 2.63922,2.69797 2.81564,2.69797 0.17643,0 0.25845,-1.21408 0.18222,-2.69797 -0.0763,-1.4839 -0.25648,-8.99326 -0.40066,-16.68748 -0.14413,-7.69422 -0.45078,-14.75969 -0.68141,-15.70106 -0.49215,-2.00892 -1.55179,-2.88288 -3.50456,-2.89044 -1.98998,-0.008 -3.2086,-0.39751 -3.2086,-1.02639 0,-0.43689 1.77799,-0.53815 9.39296,-0.53499 7.76301,0.003 9.39294,0.10063 9.39294,0.56104 0,0.35452 -0.65934,0.656 -1.81308,0.829 -2.41746,0.36254 -3.3843,1.22763 -3.78491,3.38662 -0.18231,0.98254 -0.46294,11.92333 -0.62366,24.31288 -0.16072,12.38955 -0.40756,23.09042 -0.54855,23.77973 -0.15784,0.77171 -0.53936,1.30779 -0.99289,1.39513 -0.52688,0.10149 -4.96019,-4.09802 -15.57239,-14.7511 z m -149.57076,13.5565 c -0.43345,-0.70136 0.33547,-1.14077 1.99622,-1.14077 3.73056,0 3.90834,-1.32574 3.75313,-27.98587 -0.0997,-17.12418 -0.20824,-20.31632 -0.71706,-21.09214 -0.59895,-0.91331 -0.88181,-1.02645 -3.69721,-1.47911 -0.90674,-0.14578 -1.49888,-0.46292 -1.49888,-0.80273 0,-0.46798 1.70023,-0.56092 10.18403,-0.55674 6.38452,0.003 10.27663,0.15485 10.43223,0.4066 0.37068,0.59982 0.0347,0.77614 -2.04817,1.07543 -1.43157,0.20566 -2.10071,0.54797 -2.73707,1.40019 -0.82595,1.10608 -0.84461,1.5114 -0.963,20.8778 -0.12346,20.19617 0.14969,26.15847 1.24863,27.25742 0.36743,0.36742 1.73262,0.71436 3.41942,0.86897 2.89292,0.26516 3.50102,0.49459 3.08697,1.16457 -0.29973,0.48495 -22.15963,0.49115 -22.45924,0.007 z m 186.97547,-0.26722 c 0.0937,-0.49114 0.67526,-0.72891 2.14632,-0.87745 2.36298,-0.23859 3.90335,-1.1394 4.98558,-2.91564 0.42804,-0.70252 4.94425,-11.70948 10.03602,-24.4599 10.14146,-25.39546 10.4812,-26.18035 11.33228,-26.18035 0.89425,0 1.88891,2.25696 10.39284,23.58229 11.43698,28.68036 11.8505,29.43247 16.45598,29.92725 1.6916,0.18174 2.32788,0.41397 2.32788,0.84965 0,0.50769 -1.16341,0.61787 -7.59429,0.71915 -4.17687,0.0658 -8.35873,0.01 -9.29302,-0.12443 -1.77015,-0.25426 -2.25787,-0.92304 -0.92696,-1.27108 0.42445,-0.11101 0.85101,-0.40893 0.9479,-0.66205 0.0968,-0.25314 -0.71706,-2.79849 -1.80877,-5.65634 -1.09166,-2.85786 -2.44732,-6.41367 -3.01257,-7.90182 l -1.02771,-2.70574 -8.37091,0.10765 -8.37096,0.10765 -2.37914,6.37565 c -2.23447,5.98789 -2.90829,8.96782 -2.19023,9.68588 0.16971,0.16974 1.24182,0.4025 2.38248,0.51723 1.48429,0.14933 2.07389,0.3791 2.07389,0.80819 0,0.51325 -1.31245,0.61023 -9.11751,0.6737 -8.35825,0.068 -9.1068,0.0181 -8.9891,-0.59955 z M 482.48431,852.422 c 0.19505,-0.33427 -6.20727,-18.08444 -6.52296,-18.08453 -0.18014,-6e-5 -1.25564,2.82666 -5.41912,14.24259 -0.73265,2.00884 -1.222,3.76252 -1.08746,3.89707 0.35429,0.35428 12.82145,0.30151 13.02954,-0.0552 z"
         style="fill:#356734;fill-opacity:1" />
      <rect
         style="opacity:1;fill:#f0b942;fill-opacity:1;stroke:none;stroke-width:15;stroke-miterlimit:4;stroke-dasharray:none;stroke-opacity:1"
         id="rect4761"
         width="247.31485"
         height="1.8399447"
         x="263.12833"
         y="-973.47137"
         transform="scale(1,-1)" />
      <text
         sodipodi:linespacing="125%"
         id="text4763"
         y="1028.5776"
         x="258.64877"
         style="font-style:normal;font-weight:normal;font-size:55.84794235px;line-height:125%;font-family:sans-serif;letter-spacing:0px;word-spacing:0px;fill:#356734;fill-opacity:1;stroke:none;stroke-width:1px;stroke-linecap:butt;stroke-linejoin:miter;stroke-opacity:1;"
         xml:space="preserve"><tspan
           style="font-style:normal;font-variant:normal;font-weight:normal;font-stretch:normal;font-size:55.84794235px;line-height:125%;font-family:'Times New Roman';-inkscape-font-specification:'Times New Roman, Normal';text-align:start;writing-mode:lr-tb;text-anchor:start;fill:#356734;fill-opacity:1;"
           y="1028.5776"
           x="258.64877"
           id="tspan4765"
           sodipodi:role="line">ATLANTA</tspan></text>
    </g>
  </g>
</svg>
