<?xml version="1.0" encoding="UTF-8" standalone="no"?>
<!-- Created with Inkscape (http://www.inkscape.org/) -->

<svg
   xmlns:dc="http://purl.org/dc/elements/1.1/"
   xmlns:cc="http://creativecommons.org/ns#"
   xmlns:rdf="http://www.w3.org/1999/02/22-rdf-syntax-ns#"
   xmlns:svg="http://www.w3.org/2000/svg"
   xmlns="http://www.w3.org/2000/svg"
   xmlns:sodipodi="http://sodipodi.sourceforge.net/DTD/sodipodi-0.dtd"
   xmlns:inkscape="http://www.inkscape.org/namespaces/inkscape"
   width="512"
   height="256"
   viewBox="0 0 512.00001 256"
   id="svg2"
   version="1.1"
   inkscape:version="0.91 r13725"
   sodipodi:docname="ilf_logo.svg"
   inkscape:export-filename="/Users/sheraz/Desktop/YM.png"
   inkscape:export-xdpi="386.98001"
   inkscape:export-ydpi="386.98001">
  <defs
     id="defs4" />
  <sodipodi:namedview
     id="base"
     pagecolor="#ffffff"
     bordercolor="#666666"
     borderopacity="1.0"
     inkscape:pageopacity="0.0"
     inkscape:pageshadow="2"
     inkscape:zoom="0.52886205"
     inkscape:cx="-17.947977"
     inkscape:cy="337.67069"
     inkscape:document-units="px"
     inkscape:current-layer="layer1"
     showgrid="false"
     units="px"
     borderlayer="true"
     inkscape:showpageshadow="false"
     inkscape:window-width="1600"
     inkscape:window-height="848"
     inkscape:window-x="1592"
     inkscape:window-y="-8"
     inkscape:window-maximized="1" />
  <metadata
     id="metadata7">
    <rdf:RDF>
      <cc:Work
         rdf:about="">
        <dc:format>image/svg+xml</dc:format>
        <dc:type
           rdf:resource="http://purl.org/dc/dcmitype/StillImage" />
        <dc:title />
      </cc:Work>
    </rdf:RDF>
  </metadata>
  <g
     inkscape:label="Layer 1"
     inkscape:groupmode="layer"
     id="layer1"
     transform="translate(0,-796.36219)">
    <g
       id="g4291"
       transform="matrix(0.54347481,0,0,0.54347481,-33.821076,93.327483)"
       inkscape:export-filename="C:\Users\chaush01\Desktop\bitmap.png"
       inkscape:export-xdpi="139.67"
       inkscape:export-ydpi="139.67">
      <g
         style="opacity:1"
         transform="matrix(1.7784645,0,0,1.7784645,1554.9404,998.51227)"
         id="g4274">
        <path
           sodipodi:nodetypes="ccccccccccccccccc"
           inkscape:connector-curvature="0"
           id="path4254"
           d="m -758.6588,167.639 -22.4707,54.10156 -54.1406,22.36329 22.3633,54.14062 -22.4688,54.0957 54.0977,22.47071 22.3652,54.14062 54.1426,-22.36328 54.0957,22.46875 22.46875,-54.0957 54.14258,-22.36524 -22.36523,-54.14257 22.4707,-54.09766 -54.09961,-22.4707 -22.36328,-54.13868 -54.14061,22.36329 z"
           style="opacity:1;fill:#ffffff;fill-opacity:1;stroke:none;stroke-width:3.52041316;stroke-linecap:round;stroke-linejoin:miter;stroke-miterlimit:4;stroke-dasharray:none;stroke-opacity:1" />
        <path
           style="opacity:1;fill:#aedee8;fill-opacity:1;fill-rule:evenodd;stroke:none;stroke-width:1px;stroke-linecap:butt;stroke-linejoin:miter;stroke-opacity:1"
           d="m -705.1306,334.47197 c -18.90752,0.64337 -21.79481,17.39386 -42.06989,17.91797 -20.92911,0.54102 -22.62454,-17.13328 -43.09961,-17.79297 -6.33401,-0.1241 -11.54489,2.43057 -17.8789,6.91016 l 36.88086,18.91602 19.00195,40.42188 4.49023,4.49219 43.00196,-17.60742 43.00195,17.60742 4.49023,-4.49219 19.00196,-40.42188 36.88281,-18.91602 c -6.33401,-4.47958 -11.54685,-7.03426 -17.88086,-6.91016 -20.47507,0.65968 -22.1705,18.33398 -43.09961,17.79297 -22.7554,-3.13078 -23.81555,-18.56133 -42.72308,-17.91797 z"
           id="path4374"
           inkscape:connector-curvature="0"
           sodipodi:nodetypes="zsccccccccccccz" />
        <path
           style="opacity:1;fill:#00a79d;fill-opacity:1;stroke:none;stroke-width:8;stroke-miterlimit:4;stroke-dasharray:none;stroke-opacity:1"
           d="m -650.42096,167.7455 -54.1396,22.36387 -54.0991,-22.47004 -22.4708,54.101 -54.13946,22.36385 22.36386,54.13943 -22.46924,54.09739 54.09744,22.46929 22.3648,54.14199 54.142,-22.36495 54.0975,22.46931 22.4685,-54.09557 54.1418,-22.36498 -22.3648,-54.14193 22.4701,-54.0992 -54.0992,-22.47006 -22.3638,-54.1394 z m -11.7501,28.28964 17.5183,42.41317 42.3823,17.60342 -17.6026,42.38037 17.5202,42.41394 -42.4139,17.5203 -17.6019,42.37859 -42.3803,-17.60262 -42.414,17.52031 -17.5203,-42.41393 -42.3804,-17.60267 17.6026,-42.38037 -17.5191,-42.41135 42.4112,-17.51931 17.6035,-42.38217 42.3804,17.60266 42.414,-17.52033 z"
           id="path4363"
           inkscape:connector-curvature="0" />
        <path
           inkscape:connector-curvature="0"
           id="path4392"
           style="font-style:normal;font-variant:normal;font-weight:normal;font-stretch:normal;font-size:medium;line-height:125%;font-family:'.Times LT MM';-inkscape-font-specification:'.Times LT MM, Normal';text-align:start;letter-spacing:0px;word-spacing:0px;writing-mode:lr-tb;text-anchor:start;opacity:1;fill:#0085c2;fill-opacity:1;stroke:none;stroke-width:1px;stroke-linecap:butt;stroke-linejoin:miter;stroke-opacity:1"
           d="m -655.37393,315.88896 0,-1.73082 c -6.32074,-0.27326 -8.10126,-1.36631 -8.10126,-8.19826 l 0,-19.94939 c 0.97932,0 6.88218,0.18227 7.86146,0.18227 6.67686,0.0911 8.54063,-2.54471 9.5199,5.10713 l 2.04758,0 0.27282,-11.99418 -2.04759,0 c -1.72038,2.95799 -2.66095,3.06113 -9.79271,3.06113 l -7.86146,0 0,-20.22267 c 0,-2.55055 0.53419,-3.09714 2.84878,-3.09714 l 3.24081,0 c 9.88172,0 12.19637,-0.58862 13.53176,7.51869 l 2.22559,0 c -0.0889,-4.37253 -0.178,-6.60777 -0.26707,-10.98022 l -38.40548,0 0,1.73077 c 5.60855,0.45545 7.74514,1.00203 7.74514,8.19833 l 0,39.44319 c 0,7.4696 -1.06832,8.83603 -7.74514,9.20035 l 0,1.73083 z m -27.7318,-0.27556 c 1.62026,-4.11231 1.05034,-8.22461 1.37174,-12.33692 l -1.28994,0 c -1.36749,7.54588 -4.49708,8.68421 -13.13717,8.37103 -8.22589,-0.29817 -9.68557,-2.66039 -9.68557,-6.76576 l 0,-39.36716 c 0,-7.19624 2.31303,-7.83394 8.60442,-8.19839 l 0,-1.73071 -26.09063,0 0,1.73071 c 5.82877,0.45551 8.04922,1.00215 8.04922,8.19839 l 0,40.44529 c 0,7.01412 -2.12792,7.83393 -8.04922,8.19837 l 0,1.73071 z m -42.11041,0.27556 0,-1.7307 c -6.75102,-0.18226 -8.94054,-1.09324 -8.94054,-8.19843 l 0,-40.4452 c 0,-7.28746 2.28076,-7.92505 8.94054,-8.19842 l 0,-1.73071 -27.09534,0 0,1.73071 c 7.5721,0.36444 8.84931,1.45761 8.84931,8.19842 l 0,40.4452 c 0,6.46761 -1.09474,8.01617 -8.84931,8.19843 l 0,1.7307 27.09534,0 z" />
        <g
           id="g4231"
           transform="translate(-1325.1458,75.051195)">
          <path
             sodipodi:nodetypes="cccccc"
             inkscape:connector-curvature="0"
             id="path4208"
             d="m 604.23484,171.93706 2.40962,-1.13908 c -0.21995,-2.12511 -0.57639,-4.23881 0.3026,-6.4555 12.46023,-1.94321 9.88443,-14.89397 3.25118,-17.08835 3.14061,5.64206 -12.09939,3.99414 -4.25984,17.49181 -0.023,2.4293 -1.11044,4.79304 -1.70356,7.19112 z"
             style="opacity:1;fill:#8cc63f;fill-opacity:1;fill-rule:evenodd;stroke:none;stroke-width:1px;stroke-linecap:butt;stroke-linejoin:miter;stroke-opacity:1" />
          <path
             sodipodi:nodetypes="ccc"
             inkscape:connector-curvature="0"
             id="path4161"
             d="m 568.5333,209.59082 c 26.07987,-38.46334 64.1334,-63.37941 111.38803,-79.62301 -40.38255,21.45413 -80.23,44.36905 -111.38803,79.62301 z"
             style="opacity:1;fill:#a47a50;fill-opacity:1;fill-rule:evenodd;stroke:none;stroke-width:1px;stroke-linecap:butt;stroke-linejoin:miter;stroke-opacity:1" />
          <path
             style="opacity:1;fill:#a47f59;fill-opacity:1;fill-rule:evenodd;stroke:none;stroke-width:1px;stroke-linecap:butt;stroke-linejoin:miter;stroke-opacity:1"
             d="m 566.43903,212.63294 c -0.91056,-0.71167 -2.15734,-1.10907 -3.86524,-1.07347 -2.886,2.77422 -3.98343,8.5962 -7.94304,9.44799 -0.5896,3.84888 -1.21636,7.68514 -2.95288,11.157 l 0.0143,-0.008 -0.004,0.0163 c 2.86462,-2.61978 6.38329,-4.27174 9.92424,-5.89135 -0.26355,-4.0416 5.03644,-6.68939 6.91567,-10.22396 -0.4328,-1.65256 -1.15593,-2.74314 -2.08958,-3.42439 z m -6.13441,8.12163 a 0.97281186,3.5328431 37.064769 0 1 -1.3534,3.4042 0.97281186,3.5328431 37.064769 0 1 -2.9051,2.23368 0.97281186,3.5328431 37.064769 0 1 1.35319,-3.40581 0.97281186,3.5328431 37.064769 0 1 2.90531,-2.23207 z"
             id="path4206"
             inkscape:connector-curvature="0" />
          <path
             sodipodi:nodetypes="cscc"
             inkscape:connector-curvature="0"
             id="path4210"
             d="m 550.55563,236.06303 c -3.19174,6.60743 1.59901,8.96904 2.68367,11.61689 0.50134,1.22383 -0.39226,3.82942 -2.1494,4.40876 -6.79249,1.04049 -7.61942,-7.4986 -0.53427,-16.02565 z"
             style="opacity:1;fill:#aedee8;fill-opacity:1;fill-rule:evenodd;stroke:none;stroke-width:1px;stroke-linecap:butt;stroke-linejoin:miter;stroke-opacity:1" />
        </g>
      </g>
      <text
         sodipodi:linespacing="85.000002%"
         id="text4285"
         y="1524.3479"
         x="542.17957"
         style="font-style:normal;font-variant:normal;font-weight:normal;font-stretch:normal;font-size:86.96317291px;line-height:85.00000238%;font-family:'Times New Roman';-inkscape-font-specification:'Times New Roman, Normal';text-align:start;letter-spacing:-1.88999999px;word-spacing:12.75999928px;writing-mode:lr-tb;text-anchor:start;fill:#0081ca;fill-opacity:1;stroke:none;stroke-width:1px;stroke-linecap:butt;stroke-linejoin:miter;stroke-opacity:1"
         xml:space="preserve"><tspan
           y="1524.3479"
           x="542.17957"
           id="tspan4287"
           sodipodi:role="line">ISLAMIC LEARNING</tspan><tspan
           id="tspan4289"
           y="1598.2666"
           x="542.17957"
           sodipodi:role="line">FOUNDATION</tspan></text>
    </g>
  </g>
</svg>
