<?xml version="1.0" encoding="UTF-8" standalone="no"?>
<!-- Created with Inkscape (http://www.inkscape.org/) -->

<svg
   xmlns:dc="http://purl.org/dc/elements/1.1/"
   xmlns:cc="http://creativecommons.org/ns#"
   xmlns:rdf="http://www.w3.org/1999/02/22-rdf-syntax-ns#"
   xmlns:svg="http://www.w3.org/2000/svg"
   xmlns="http://www.w3.org/2000/svg"
   xmlns:sodipodi="http://sodipodi.sourceforge.net/DTD/sodipodi-0.dtd"
   xmlns:inkscape="http://www.inkscape.org/namespaces/inkscape"
   width="512"
   height="256"
   viewBox="0 0 512.00001 256"
   id="svg2"
   version="1.1"
   inkscape:version="0.91 r13725"
   sodipodi:docname="mcna_logo.svg">
  <defs
     id="defs4">
    <filter
       style="color-interpolation-filters:sRGB;"
       inkscape:label="Drop Shadow"
       id="filter4227">
      <feFlood
         flood-opacity="0.498039"
         flood-color="rgb(0,0,0)"
         result="flood"
         id="feFlood4229" />
      <feComposite
         in="flood"
         in2="SourceGraphic"
         operator="in"
         result="composite1"
         id="feComposite4231" />
      <feGaussianBlur
         in="composite1"
         stdDeviation="8"
         result="blur"
         id="feGaussianBlur4233" />
      <feOffset
         dx="8"
         dy="8"
         result="offset"
         id="feOffset4235" />
      <feComposite
         in="SourceGraphic"
         in2="offset"
         operator="over"
         result="composite2"
         id="feComposite4237" />
    </filter>
    <clipPath
       clipPathUnits="userSpaceOnUse"
       id="clipPath4243">
      <ellipse
         style="opacity:0.26100003;fill:#970500;fill-opacity:1;stroke:none;stroke-width:3.52041316;stroke-linecap:round;stroke-linejoin:miter;stroke-miterlimit:4;stroke-dasharray:none;stroke-opacity:1"
         id="ellipse4245"
         cx="724.60638"
         cy="284.16486"
         rx="301.16492"
         ry="306.80161" />
    </clipPath>
  </defs>
  <sodipodi:namedview
     id="base"
     pagecolor="#ffffff"
     bordercolor="#666666"
     borderopacity="1.0"
     inkscape:pageopacity="0.0"
     inkscape:pageshadow="2"
     inkscape:zoom="0.15862762"
     inkscape:cx="-132.88132"
     inkscape:cy="789.79348"
     inkscape:document-units="px"
     inkscape:current-layer="layer1"
     showgrid="false"
     units="px"
     borderlayer="true"
     inkscape:showpageshadow="false"
     inkscape:window-width="1600"
     inkscape:window-height="848"
     inkscape:window-x="1592"
     inkscape:window-y="-8"
     inkscape:window-maximized="1" />
  <metadata
     id="metadata7">
    <rdf:RDF>
      <cc:Work
         rdf:about="">
        <dc:format>image/svg+xml</dc:format>
        <dc:type
           rdf:resource="http://purl.org/dc/dcmitype/StillImage" />
        <dc:title />
      </cc:Work>
    </rdf:RDF>
  </metadata>
  <g
     inkscape:label="Layer 1"
     inkscape:groupmode="layer"
     id="layer1"
     transform="translate(0,-796.36219)">
    <g
       id="g4322"
       transform="matrix(0.45054992,0,0,0.45054992,647.20914,398.11714)"
       inkscape:export-filename="C:\Users\chaush01\Desktop\g4322.png"
       inkscape:export-xdpi="718.53058"
       inkscape:export-ydpi="718.53058">
      <g
         transform="translate(-5.5145743,0)"
         id="g4269">
        <path
           style="opacity:1;fill:#d9281a;fill-opacity:1"
           d="m -581.04538,899.41165 c -6.46114,-0.0942 -13.15276,3.63952 -23.31836,11.75585 -40.51781,32.34991 -67.55742,81.31276 -75.47461,136.6615 -2.98266,20.8519 -3.57363,36.644 -2.17578,58.1425 1.55541,23.9218 4.48205,35.1872 10.77929,41.4844 l 4.1211,4.1231 25.16406,0 c 22.31193,0 25.25558,-0.2369 25.96289,-2.0801 0.48266,-1.2578 -1.48601,-6.5652 -4.98242,-13.4375 -11.35939,-22.3273 -14.69403,-35.3268 -12.17578,-47.4571 3.96265,-19.088 27.86902,-30.7279 63.15625,-30.7519 16.36754,-0.011 21.62079,1.2412 26.61328,6.3477 4.74695,4.8553 5.49717,8.7814 3.97461,20.8164 -1.74034,13.7564 -6.9309,29.1444 -15.7832,46.7832 -10.1237,20.1721 -10.55259,19.7793 21.56445,19.7793 25.31728,0 25.65552,-0.036 28.5957,-2.9766 7.38509,-7.3851 9.89845,-28.1692 9.03906,-74.7324 -0.68168,-36.934 -1.90478,-47.4382 -8.30273,-71.3028 -11.4341,-42.6492 -35.03563,-79.40233 -62.7793,-97.76298 -5.24557,-3.4715 -9.55773,-5.32814 -13.97851,-5.39257 z m 0.19726,50.84179 c 3.36914,-0.0111 6.53969,2.25378 11.18946,7.25 12.26748,13.1815 24.93489,44.53726 21.56835,53.39196 -1.66102,4.3688 -4.50823,5.1873 -21.27343,6.123 -7.90625,0.4413 -22.53125,2.1986 -32.5,3.9063 -24.85934,4.2586 -25,4.2383 -25,-3.6309 0,-17.0194 22.86096,-54.56067 39.375,-64.66145 2.52662,-1.5454 4.61914,-2.37223 6.64062,-2.37891 z"
           id="path4203"
           inkscape:connector-curvature="0" />
        <path
           style="opacity:1;fill:#32b7ce;fill-opacity:1"
           d="m -1035.6134,899.73586 c -15.5817,-0.0274 -19.4333,0.37956 -27.455,2.89844 -12.9762,4.07469 -21.9376,8.8468 -32.6954,17.41211 -21.0571,16.76559 -35.7754,42.64097 -44.2461,77.78303 -2.7104,11.24436 -3.8233,45.20906 -1.9453,59.37456 4.0771,30.7512 17.7595,59.3055 36.4864,76.1425 13.0563,11.7388 27.3108,18.2125 46.8164,21.2657 6.1407,0.9612 12.5703,1.5507 14.289,1.3086 1.7188,-0.242 6.9876,-0.8071 11.7071,-1.2559 16.3654,-1.5561 31.5247,-8.2878 42.83553,-19.0195 10.1876,-9.6657 16.31262,-21.562 19.3125,-37.5078 2.17147,-11.5425 -1.68573,-38.7414 -5.32227,-37.5293 -0.65022,0.2168 -2.52921,3.7084 -4.17578,7.7597 -9.70783,23.8856 -27.98508,35.5254 -53.67348,34.1817 -10.2094,-0.534 -12.5961,-1.1385 -20.6484,-5.2422 -12.0613,-6.1468 -15.344,-8.6944 -22.6797,-17.6035 -12.9525,-15.7306 -17.8464,-31.5228 -17.8184,-57.5 0.022,-20.5445 2.384,-31.26445 10.5489,-47.87829 11.527,-23.45488 34.6195,-36.55906 57.7832,-32.78906 12.9032,2.10004 16.1447,4.90278 19.7597,17.08007 3.1792,10.70921 4.54,11.54481 15.1149,9.27735 8.19064,-1.75615 13.55754,-5.32733 17.77148,-11.82618 2.65175,-4.0896 3.23438,-6.48227 3.23438,-13.26757 0,-12.18574 -2.70702,-18.76713 -10.73633,-26.10547 -13.49585,-12.33445 -28.14503,-16.91299 -54.26333,-16.95899 z"
           id="path4201"
           inkscape:connector-curvature="0" />
        <path
           style="opacity:1;fill:#00af41;fill-opacity:1"
           d="m -1395.5313,902.8511 c -8.9629,-0.0236 -9.8887,0.53428 -12.0996,2.61133 -9.584,9.00371 -14.2469,54.63743 -14.2129,139.06767 0.027,66.6595 2.7649,98.5814 8.9902,104.8067 2.0881,2.0881 4.36,2.2665 24.9453,1.957 19.622,-0.2951 22.8276,-0.6213 23.9746,-2.4414 0.9895,-1.5704 0.3245,-6.1478 -2.6308,-18.125 -19.8143,-80.3045 -20.1847,-179.69094 -0.5918,-158.83529 8.6397,9.19658 27.2721,58.43699 36.7129,97.02669 4.4683,18.2646 8.4245,23.7757 17.83,24.8359 9.2946,1.0476 11.8118,-0.2055 15.1309,-7.5351 1.6229,-3.5838 3.5986,-10.1719 4.3887,-14.6406 7.9273,-44.8352 31.1673,-102.49939 41.3105,-102.49939 3.3868,0 4.8656,2.83087 6.8281,13.08789 5.5184,28.8412 -0.9574,103.4535 -13.7461,158.3958 -2.5518,10.9637 -2.4257,11.0157 26.7071,11.0157 14.8346,0 25.0114,-0.5184 26.5683,-1.3516 7.3381,-3.9273 9.8146,-23.597 10.6856,-84.8984 1.3095,-92.17071 -4.018,-151.02819 -14.5332,-160.54431 -2.0535,-1.8584 -4.8471,-2.08253 -21.5821,-1.73242 l -19.2246,0.40234 -6.1484,4.41993 c -11.6777,8.39518 -31.5556,35.42195 -43.1777,58.70507 -8.1009,16.22895 -8.4804,16.74458 -10.8555,14.77344 -0.999,-0.8291 -5.0438,-8.30881 -8.9902,-16.62109 -8.2856,-17.45148 -17.2258,-31.97574 -28.6621,-46.56641 -11.7889,-15.04049 -10.839,-14.63665 -35.629,-15.13086 -5.119,-0.10205 -9.0006,-0.17572 -11.9882,-0.18359 z"
           id="path4199"
           inkscape:connector-curvature="0" />
        <path
           style="opacity:1;fill:#f3eb00;fill-opacity:1"
           d="m -883.01999,904.07961 c -14.81219,0 -16.45906,0.22769 -18.6543,2.58399 -5.11915,5.49476 -9.32365,28.6999 -11.31055,62.41601 -4.53044,76.87689 -1.79332,163.40179 5.62305,177.74349 l 1.8125,3.5059 20.63281,0 c 16.71877,0 20.76167,-0.3396 21.31641,-1.7852 0.37651,-0.9812 -1.0267,-11.2468 -3.11719,-22.8125 -2.09049,-11.5657 -4.68234,-28.9023 -5.75976,-38.5273 -2.16976,-19.3835 -4.01955,-87.87416 -2.625,-97.17321 1.02034,-6.80408 3.51539,-10.0103 6.78125,-8.71094 11.88559,4.72883 45.62261,67.51455 62.26757,115.88415 1.65608,4.8125 5.30531,17.75 8.10938,28.75 2.80408,11 5.96889,20.9843 7.0332,22.1875 1.70154,1.9234 4.52808,2.1875 23.42188,2.1875 24.33389,0 24.22011,0.043 26.61523,-10 3.86002,-16.1858 4.63497,-32.7127 4.57227,-97.5 -0.0664,-68.66729 -1.30082,-94.57762 -5.54883,-116.49157 -4.31318,-22.2498 -4.32463,-22.25782 -28.33203,-22.25782 l -19.18164,0 0,4.0625 c 0,2.23463 0.85152,8.00025 1.89258,12.8125 8.19952,37.90221 11.61486,63.85286 11.94921,90.78839 0.33236,26.7755 -1.60522,29.0751 -10.40039,12.336 -6.17453,-11.7516 -22.18211,-40.09121 -24.71093,-43.74939 -1.18813,-1.71875 -3.65782,-5.9375 -5.48828,-9.375 -12.04454,-22.61884 -38.77926,-59.0959 -47.50391,-64.8125 -2.51921,-1.65066 -6.39973,-2.0625 -19.39453,-2.0625 z"
           id="path4197"
           inkscape:connector-curvature="0" />
      </g>
      <rect
         ry="25"
         rx="25"
         y="1190.9843"
         x="-1424.9792"
         height="138.82483"
         width="921.26178"
         id="rect4206"
         style="opacity:1;fill:none;fill-opacity:1;stroke:#000000;stroke-width:6;stroke-linecap:round;stroke-linejoin:miter;stroke-miterlimit:4;stroke-dasharray:none;stroke-opacity:1" />
      <g
         id="text4208"
         style="font-style:normal;font-variant:normal;font-weight:normal;font-stretch:normal;font-size:71.25301361px;line-height:125%;font-family:'Times New Roman';-inkscape-font-specification:'Times New Roman, Normal';text-align:start;letter-spacing:0px;word-spacing:0px;writing-mode:lr-tb;text-anchor:start;opacity:1;fill:#000000;fill-opacity:1;stroke:none;stroke-width:1px;stroke-linecap:butt;stroke-linejoin:miter;stroke-opacity:1"
         transform="matrix(0.87644049,0,0,1.1409788,-4.8435932,5.3716168)">
        <path
           inkscape:connector-curvature="0"
           id="path4213"
           style="fill:#000000;fill-opacity:1"
           d="m -1570.8442,1124.1522 -18.2308,-39.6971 0,31.5211 q 0,4.349 0.9394,5.4275 1.2873,1.4612 4.0706,1.4612 l 1.67,0 0,1.2873 -16.4216,0 0,-1.2873 1.67,0 q 2.9921,0 4.2446,-1.8091 0.7654,-1.1134 0.7654,-5.0796 l 0,-30.8253 q 0,-3.1312 -0.6959,-4.5229 -0.487,-1.0089 -1.8091,-1.67 -1.2873,-0.6958 -4.175,-0.6958 l 0,-1.2873 13.3599,0 17.1175,36.9138 16.8391,-36.9138 13.3599,0 0,1.2873 -1.6352,0 q -3.0269,0 -4.2794,1.8092 -0.7654,1.1133 -0.7654,5.0795 l 0,30.8253 q 0,4.349 0.9742,5.4275 1.2873,1.4612 4.0706,1.4612 l 1.6352,0 0,1.2873 -20.0399,0 0,-1.2873 1.67,0 q 3.0268,0 4.2445,-1.8091 0.7655,-1.1134 0.7655,-5.0796 l 0,-31.5211 -18.196,39.6971 -1.1481,0 z" />
        <path
           inkscape:connector-curvature="0"
           id="path4215"
           style="fill:#000000;fill-opacity:1"
           d="m -1506.5147,1092.2832 0,19.3093 q 0,5.5318 0.2435,6.7843 0.2783,1.2177 0.835,1.7048 0.5915,0.4871 1.3569,0.4871 1.0785,0 2.4354,-0.5915 l 0.4871,1.2177 -9.5329,3.9315 -1.5656,0 0,-6.7496 q -4.1054,4.4533 -6.2625,5.6015 -2.1571,1.1481 -4.5577,1.1481 -2.6789,0 -4.662,-1.5308 -1.9484,-1.5657 -2.7138,-4.0011 -0.7654,-2.4354 -0.7654,-6.8887 l 0,-14.2297 q 0,-2.2615 -0.4871,-3.1312 -0.4871,-0.8698 -1.4612,-1.3221 -0.9394,-0.4871 -3.4444,-0.4523 l 0,-1.2873 11.1681,0 0,21.3272 q 0,4.4533 1.5308,5.845 1.5656,1.3916 3.7575,1.3916 1.496,0 3.3748,-0.9393 1.9135,-0.9394 4.5229,-3.5836 l 0,-18.0568 q 0,-2.7137 -1.009,-3.6531 -0.9741,-0.9741 -4.1054,-1.0437 l 0,-1.2873 10.855,0 z" />
        <path
           inkscape:connector-curvature="0"
           id="path4217"
           style="fill:#000000;fill-opacity:1"
           d="m -1478.2292,1091.3438 0,10.855 -1.1481,0 q -1.3221,-5.1144 -3.4096,-6.9583 -2.0527,-1.844 -5.2535,-1.844 -2.4354,0 -3.9315,1.2873 -1.496,1.2873 -1.496,2.8529 0,1.9483 1.1133,3.34 1.0786,1.4265 4.3837,3.0269 l 5.0796,2.4702 q 7.0627,3.4443 7.0627,9.0805 0,4.349 -3.3052,7.0279 -3.2704,2.6442 -7.341,2.6442 -2.9225,0 -6.68,-1.0438 -1.1481,-0.3479 -1.8787,-0.3479 -0.8002,0 -1.2525,0.9046 l -1.1481,0 0,-11.3768 1.1481,0 q 0.9741,4.8708 3.7227,7.341 2.7485,2.4702 6.1581,2.4702 2.4006,0 3.8966,-1.3917 1.5308,-1.4264 1.5308,-3.4095 0,-2.4007 -1.7047,-4.0359 -1.67,-1.6352 -6.7148,-4.1401 -5.0448,-2.505 -6.6104,-4.5229 -1.5656,-1.9832 -1.5656,-5.01 0,-3.9315 2.6789,-6.5756 2.7138,-2.6442 6.9931,-2.6442 1.8788,0 4.5577,0.8002 1.7744,0.5219 2.3658,0.5219 0.5567,0 0.8698,-0.2435 0.3132,-0.2436 0.7307,-1.0786 l 1.1481,0 z" />
        <path
           inkscape:connector-curvature="0"
           id="path4219"
           style="fill:#000000;fill-opacity:1"
           d="m -1460.1724,1074.6787 0,42.2717 q 0,2.992 0.4175,3.9662 0.4523,0.9742 1.3568,1.496 0.9046,0.4871 3.3748,0.4871 l 0,1.2525 -15.6214,0 0,-1.2525 q 2.1919,0 2.9921,-0.4523 0.8002,-0.4523 1.2525,-1.496 0.4523,-1.0437 0.4523,-4.001 l 0,-28.9466 q 0,-5.3926 -0.2436,-6.6103 -0.2435,-1.2525 -0.8002,-1.7048 -0.5218,-0.4523 -1.3568,-0.4523 -0.9046,0 -2.2963,0.5566 l -0.5914,-1.2177 9.4981,-3.8966 1.5656,0 z" />
        <path
           inkscape:connector-curvature="0"
           id="path4221"
           style="fill:#000000;fill-opacity:1"
           d="m -1443.2638,1074.6787 q 1.4613,0 2.4702,1.0437 1.0438,1.009 1.0438,2.4702 0,1.4613 -1.0438,2.505 -1.0089,1.0438 -2.4702,1.0438 -1.4612,0 -2.5049,-1.0438 -1.0438,-1.0437 -1.0438,-2.505 0,-1.4612 1.009,-2.4702 1.0437,-1.0437 2.5397,-1.0437 z m 2.8877,16.6651 0,25.6066 q 0,2.992 0.4175,4.001 0.4523,0.9742 1.2873,1.4612 0.8698,0.4871 3.1313,0.4871 l 0,1.2525 -15.4823,0 0,-1.2525 q 2.3311,0 3.1313,-0.4523 0.8002,-0.4523 1.2525,-1.496 0.4871,-1.0437 0.4871,-4.001 l 0,-12.2814 q 0,-5.184 -0.3132,-6.7148 -0.2435,-1.1133 -0.7654,-1.5308 -0.5219,-0.4523 -1.4264,-0.4523 -0.9742,0 -2.3659,0.5219 l -0.487,-1.2525 9.6024,-3.8967 1.5308,0 z" />
        <path
           inkscape:connector-curvature="0"
           id="path4223"
           style="fill:#000000;fill-opacity:1"
           d="m -1422.1453,1098.1282 q 3.4791,-3.4792 4.1054,-4.0011 1.5656,-1.322 3.3748,-2.0527 1.8091,-0.7306 3.5835,-0.7306 2.9921,0 5.1491,1.7396 2.1571,1.7396 2.8877,5.0448 3.5835,-4.175 6.0537,-5.4623 2.4702,-1.3221 5.0796,-1.3221 2.5398,0 4.4881,1.3221 1.9831,1.2873 3.1312,4.2446 0.7655,2.0179 0.7655,6.332 l 0,13.7079 q 0,2.992 0.4522,4.1054 0.348,0.7654 1.2873,1.3221 0.9394,0.5218 3.0617,0.5218 l 0,1.2525 -15.7258,0 0,-1.2525 0.6611,0 q 2.0527,0 3.2008,-0.8002 0.8002,-0.5566 1.1481,-1.7743 0.1392,-0.5915 0.1392,-3.3748 l 0,-13.7079 q 0,-3.8966 -0.9394,-5.497 -1.3569,-2.2267 -4.3489,-2.2267 -1.844,0 -3.7227,0.9394 -1.844,0.9046 -4.4881,3.4095 l -0.07,0.3828 0.07,1.496 0,15.2039 q 0,3.2704 0.3479,4.0706 0.3827,0.8002 1.3916,1.3569 1.009,0.5218 3.4444,0.5218 l 0,1.2525 -16.1085,0 0,-1.2525 q 2.6442,0 3.6183,-0.6262 1.009,-0.6263 1.3917,-1.8788 0.174,-0.5914 0.174,-3.4443 l 0,-13.7079 q 0,-3.8966 -1.1482,-5.6014 -1.5308,-2.2267 -4.2793,-2.2267 -1.8788,0 -3.7227,1.009 -2.8877,1.5308 -4.4533,3.4443 l 0,17.0827 q 0,3.1312 0.4175,4.0706 0.4523,0.9394 1.2873,1.4264 0.8698,0.4523 3.4791,0.4523 l 0,1.2525 -15.7605,0 0,-1.2525 q 2.1918,0 3.0616,-0.4523 0.8698,-0.487 1.3221,-1.496 0.4523,-1.0437 0.4523,-4.001 l 0,-12.177 q 0,-5.2536 -0.3131,-6.7844 -0.2436,-1.1481 -0.7655,-1.5656 -0.5218,-0.4523 -1.4264,-0.4523 -0.9742,0 -2.331,0.5219 l -0.5219,-1.2525 9.6024,-3.8967 1.4961,0 0,6.7844 z" />
        <path
           inkscape:connector-curvature="0"
           id="path4225"
           style="fill:#000000;fill-opacity:1"
           d="m -1317.5968,1075.8964 1.0785,16.0389 -1.0785,0 q -2.1571,-7.2019 -6.1581,-10.3679 -4.001,-3.166 -9.6025,-3.166 -4.6968,0 -8.4891,2.4006 -3.7923,2.3658 -5.9841,7.5845 -2.1571,5.2188 -2.1571,12.9773 0,6.4016 2.0527,11.0985 2.0527,4.6968 6.1581,7.2018 4.1402,2.505 9.4285,2.505 4.5925,0 8.1064,-1.9483 3.5139,-1.9831 7.7237,-7.8281 l 1.0786,0.6958 q -3.5488,6.2973 -8.2804,9.2198 -4.7317,2.9225 -11.2377,2.9225 -11.7247,0 -18.1612,-8.6979 -4.8012,-6.4712 -4.8012,-15.2387 0,-7.0627 3.166,-12.9772 3.1661,-5.9146 8.6979,-9.1502 5.5667,-3.2704 12.1423,-3.2704 5.1143,0 10.0895,2.505 1.4612,0.7654 2.0875,0.7654 0.9394,0 1.6352,-0.661 0.9046,-0.9394 1.2873,-2.6094 l 1.2177,0 z" />
        <path
           inkscape:connector-curvature="0"
           id="path4227"
           style="fill:#000000;fill-opacity:1"
           d="m -1301.3144,1074.6787 0,23.3103 q 3.8619,-4.2446 6.1233,-5.4275 2.2615,-1.2177 4.5229,-1.2177 2.7137,0 4.6621,1.4961 1.9483,1.496 2.8877,4.6968 0.661,2.2267 0.661,8.1412 l 0,11.2725 q 0,3.0268 0.4871,4.1402 0.3479,0.835 1.1829,1.322 0.835,0.4871 3.0617,0.4871 l 0,1.2525 -15.6562,0 0,-1.2525 0.7306,0 q 2.2267,0 3.0964,-0.661 0.8698,-0.6958 1.2177,-2.0179 0.1044,-0.5567 0.1044,-3.2704 l 0,-11.2725 q 0,-5.2187 -0.5566,-6.8539 -0.5219,-1.6352 -1.7048,-2.4354 -1.1829,-0.835 -2.8529,-0.835 -1.7048,0 -3.5488,0.9046 -1.8439,0.9046 -4.4185,3.6531 l 0,16.8391 q 0,3.2704 0.3479,4.0706 0.3827,0.8002 1.3569,1.3569 1.0089,0.5218 3.4444,0.5218 l 0,1.2525 -15.7954,0 0,-1.2525 q 2.1223,0 3.34,-0.661 0.6958,-0.3479 1.1133,-1.3221 0.4175,-0.9742 0.4175,-3.9662 l 0,-28.8422 q 0,-5.4623 -0.2783,-6.7147 -0.2436,-1.2525 -0.8002,-1.7048 -0.5219,-0.4523 -1.4265,-0.4523 -0.7306,0 -2.3658,0.5566 l -0.4871,-1.2177 9.5329,-3.8966 1.6004,0 z" />
        <path
           inkscape:connector-curvature="0"
           id="path4229"
           style="fill:#000000;fill-opacity:1"
           d="m -1266.9404,1074.6787 q 1.4613,0 2.4702,1.0437 1.0438,1.009 1.0438,2.4702 0,1.4613 -1.0438,2.505 -1.0089,1.0438 -2.4702,1.0438 -1.4612,0 -2.505,-1.0438 -1.0437,-1.0437 -1.0437,-2.505 0,-1.4612 1.0089,-2.4702 1.0438,-1.0437 2.5398,-1.0437 z m 2.8877,16.6651 0,25.6066 q 0,2.992 0.4175,4.001 0.4523,0.9742 1.2873,1.4612 0.8698,0.4871 3.1312,0.4871 l 0,1.2525 -15.4822,0 0,-1.2525 q 2.331,0 3.1312,-0.4523 0.8002,-0.4523 1.2525,-1.496 0.4871,-1.0437 0.4871,-4.001 l 0,-12.2814 q 0,-5.184 -0.3131,-6.7148 -0.2435,-1.1133 -0.7654,-1.5308 -0.5219,-0.4523 -1.4265,-0.4523 -0.9741,0 -2.3658,0.5219 l -0.4871,-1.2525 9.6025,-3.8967 1.5308,0 z" />
        <path
           inkscape:connector-curvature="0"
           id="path4231"
           style="fill:#000000;fill-opacity:1"
           d="m -1244.3259,1074.6787 0,42.2717 q 0,2.992 0.4175,3.9662 0.4523,0.9742 1.3569,1.496 0.9046,0.4871 3.3748,0.4871 l 0,1.2525 -15.6214,0 0,-1.2525 q 2.1918,0 2.992,-0.4523 0.8002,-0.4523 1.2525,-1.496 0.4523,-1.0437 0.4523,-4.001 l 0,-28.9466 q 0,-5.3926 -0.2435,-6.6103 -0.2436,-1.2525 -0.8002,-1.7048 -0.5219,-0.4523 -1.3569,-0.4523 -0.9046,0 -2.2962,0.5566 l -0.5915,-1.2177 9.4981,-3.8966 1.5656,0 z" />
        <path
           inkscape:connector-curvature="0"
           id="path4233"
           style="fill:#000000;fill-opacity:1"
           d="m -1213.0135,1120.5687 q -2.3311,2.4354 -4.5577,3.5139 -2.2267,1.0438 -4.8013,1.0438 -5.2187,0 -9.1153,-4.349 -3.8967,-4.3837 -3.8967,-11.2376 0,-6.8539 4.3142,-12.525 4.3141,-5.7058 11.0985,-5.7058 4.2097,0 6.9583,2.679 l 0,-5.8798 q 0,-5.4623 -0.2784,-6.7147 -0.2435,-1.2525 -0.8002,-1.7048 -0.5566,-0.4523 -1.3916,-0.4523 -0.9046,0 -2.4007,0.5566 l -0.4522,-1.2177 9.498,-3.8966 1.5657,0 0,36.8442 q 0,5.6014 0.2435,6.8539 0.2783,1.2177 0.835,1.7048 0.5915,0.4871 1.3569,0.4871 0.9393,0 2.505,-0.5915 l 0.3827,1.2177 -9.4633,3.9315 -1.6004,0 0,-4.5577 z m 0,-2.4354 0,-16.4216 q -0.2088,-2.3658 -1.2525,-4.3141 -1.0438,-1.9484 -2.7834,-2.9225 -1.7047,-1.009 -3.3399,-1.009 -3.0617,0 -5.4623,2.7485 -3.166,3.6184 -3.166,10.5767 0,7.0278 3.0616,10.7853 3.0617,3.7227 6.8192,3.7227 3.166,0 6.1233,-3.166 z" />
        <path
           inkscape:connector-curvature="0"
           id="path4235"
           style="fill:#000000;fill-opacity:1"
           d="m -1190.573,1091.3438 0,7.1671 q 4.001,-7.1671 8.2108,-7.1671 1.9135,0 3.166,1.1829 1.2525,1.1482 1.2525,2.679 0,1.3569 -0.9046,2.2962 -0.9046,0.9394 -2.1571,0.9394 -1.2177,0 -2.7485,-1.1829 -1.496,-1.2177 -2.2266,-1.2177 -0.6263,0 -1.3569,0.6958 -1.5656,1.4265 -3.2356,4.6969 l 0,15.2734 q 0,2.6442 0.661,4.0011 0.4523,0.9393 1.6004,1.5656 1.1481,0.6262 3.3052,0.6262 l 0,1.2525 -16.3172,0 0,-1.2525 q 2.4354,0 3.6183,-0.7654 0.8698,-0.5567 1.2177,-1.7744 0.174,-0.5914 0.174,-3.3747 l 0,-12.351 q 0,-5.5667 -0.2436,-6.6104 -0.2087,-1.0785 -0.835,-1.5656 -0.5914,-0.4871 -1.496,-0.4871 -1.0785,0 -2.4354,0.5219 l -0.3479,-1.2525 9.6372,-3.8967 1.4613,0 z" />
        <path
           inkscape:connector-curvature="0"
           id="path4237"
           style="fill:#000000;fill-opacity:1"
           d="m -1170.7419,1104.2863 q -0.035,7.0974 3.4444,11.1333 3.4791,4.0358 8.176,4.0358 3.1312,0 5.4275,-1.7048 2.331,-1.7396 3.8966,-5.9146 l 1.0786,0.6959 q -0.7307,4.7664 -4.2446,8.6978 -3.5139,3.8967 -8.8023,3.8967 -5.7406,0 -9.846,-4.4533 -4.0706,-4.4881 -4.0706,-12.0379 0,-8.176 4.175,-12.7337 4.2098,-4.5925 10.5418,-4.5925 5.3579,0 8.8023,3.5488 3.4444,3.5139 3.4444,9.4285 l -22.0231,0 z m 0,-2.0179 14.7516,0 q -0.1739,-3.0617 -0.7306,-4.3142 -0.8698,-1.9483 -2.6094,-3.0616 -1.7047,-1.1134 -3.5835,-1.1134 -2.8877,0 -5.1839,2.2615 -2.2615,2.2266 -2.6442,6.2277 z" />
        <path
           inkscape:connector-curvature="0"
           id="path4239"
           style="fill:#000000;fill-opacity:1"
           d="m -1135.2197,1098.0934 q 5.6014,-6.7496 10.681,-6.7496 2.6093,0 4.4881,1.3221 1.8787,1.2873 2.992,4.2794 0.7655,2.0875 0.7655,6.4016 l 0,13.6035 q 0,3.0268 0.487,4.1054 0.3827,0.8698 1.2177,1.3568 0.8698,0.4871 3.1661,0.4871 l 0,1.2525 -15.7606,0 0,-1.2525 0.661,0 q 2.2267,0 3.0965,-0.661 0.9046,-0.6958 1.2525,-2.0179 0.1392,-0.5219 0.1392,-3.2704 l 0,-13.0468 q 0,-4.349 -1.1482,-6.2973 -1.1133,-1.9831 -3.7922,-1.9831 -4.1402,0 -8.2456,4.5229 l 0,16.8043 q 0,3.2356 0.3827,4.001 0.4871,1.009 1.3221,1.496 0.8697,0.4523 3.4791,0.4523 l 0,1.2525 -15.7605,0 0,-1.2525 0.6958,0 q 2.4354,0 3.2704,-1.2177 0.8698,-1.2525 0.8698,-4.7316 l 0,-11.8291 q 0,-5.7406 -0.2784,-6.9931 -0.2435,-1.2525 -0.8002,-1.7048 -0.5218,-0.4523 -1.4264,-0.4523 -0.9742,0 -2.331,0.5219 l -0.5219,-1.2525 9.6024,-3.8967 1.4961,0 0,6.7496 z" />
        <path
           inkscape:connector-curvature="0"
           id="path4241"
           style="fill:#000000;fill-opacity:1"
           d="m -1075.4827,1091.3438 q 7.2366,0 11.6204,5.4971 3.7227,4.6968 3.7227,10.7854 0,4.2793 -2.0527,8.663 -2.0527,4.3838 -5.6711,6.6104 -3.5835,2.2267 -8.002,2.2267 -7.2019,0 -11.4464,-5.7406 -3.5835,-4.836 -3.5835,-10.855 0,-4.3837 2.157,-8.6978 2.1919,-4.349 5.7406,-6.4017 3.5488,-2.0875 7.515,-2.0875 z m -1.0785,2.2615 q -1.844,0 -3.7227,1.1133 -1.844,1.0785 -2.9921,3.8271 -1.1481,2.7485 -1.1481,7.0626 0,6.9583 2.7485,12.0031 2.7833,5.0448 7.3062,5.0448 3.3748,0 5.5667,-2.7833 2.1918,-2.7834 2.1918,-9.5677 0,-8.4891 -3.6531,-13.3599 -2.4702,-3.34 -6.2972,-3.34 z" />
        <path
           inkscape:connector-curvature="0"
           id="path4243"
           style="fill:#000000;fill-opacity:1"
           d="m -1042.9874,1094.7882 0,20.9445 q 0,4.4533 0.9741,5.6362 1.2873,1.5308 3.4444,1.5308 l 2.8877,0 0,1.2525 -19.031,0 0,-1.2525 1.4265,0 q 1.3917,0 2.5398,-0.6958 1.1481,-0.6958 1.5656,-1.8787 0.4523,-1.183 0.4523,-4.5925 l 0,-20.9445 -6.1929,0 0,-2.505 6.1929,0 0,-2.0875 q 0,-4.7664 1.5308,-8.0716 1.5308,-3.3052 4.6621,-5.3231 3.166,-2.0527 7.0974,-2.0527 3.6532,0 6.7148,2.3658 2.0179,1.5656 2.0179,3.5139 0,1.0438 -0.9046,1.9832 -0.9045,0.9045 -1.9483,0.9045 -0.8002,0 -1.7048,-0.5566 -0.8698,-0.5915 -2.1571,-2.4702 -1.2872,-1.9136 -2.3658,-2.5746 -1.0785,-0.661 -2.4006,-0.661 -1.6004,0 -2.7137,0.8698 -1.1134,0.8349 -1.6004,2.6441 -0.4871,1.7744 -0.4871,9.2198 l 0,2.2962 8.2108,0 0,2.505 -8.2108,0 z" />
        <path
           inkscape:connector-curvature="0"
           id="path4245"
           style="fill:#000000;fill-opacity:1"
           d="m -1017.1373,1076.9749 12.8033,0 28.84213,35.383 0,-27.207 q 0,-4.3489 -0.97416,-5.4274 -1.28729,-1.4613 -4.07061,-1.4613 l -1.6352,0 0,-1.2873 16.42159,0 0,1.2873 -1.66999,0 q -2.99207,0 -4.24456,1.8092 -0.76542,1.1133 -0.76542,5.0795 l 0,39.7667 -1.25249,0 -31.10359,-37.9923 0,29.0509 q 0,4.349 0.9393,5.4275 1.3221,1.4612 4.07066,1.4612 l 1.66999,0 0,1.2873 -16.42155,0 0,-1.2873 1.6352,0 q 3.0268,0 4.2793,-1.8091 0.7654,-1.1134 0.7654,-5.0796 l 0,-32.8084 q -2.0527,-2.4006 -3.1312,-3.166 -1.0438,-0.7654 -3.0965,-1.4265 -1.0089,-0.3131 -3.0616,-0.3131 l 0,-1.2873 z" />
        <path
           inkscape:connector-curvature="0"
           id="path4247"
           style="fill:#000000;fill-opacity:1"
           d="m -946.89329,1091.3438 q 7.23663,0 11.62036,5.4971 3.7227,4.6968 3.7227,10.7854 0,4.2793 -2.0527,8.663 -2.0527,4.3838 -5.67102,6.6104 -3.58352,2.2267 -8.00205,2.2267 -7.20184,0 -11.4464,-5.7406 -3.58353,-4.836 -3.58353,-10.855 0,-4.3837 2.15707,-8.6978 2.19187,-4.349 5.7406,-6.4017 3.54874,-2.0875 7.51497,-2.0875 z m -1.07854,2.2615 q -1.84395,0 -3.72269,1.1133 -1.84395,1.0785 -2.99207,3.8271 -1.14812,2.7485 -1.14812,7.0626 0,6.9583 2.74853,12.0031 2.78332,5.0448 7.30622,5.0448 3.37478,0 5.56664,-2.7833 2.19187,-2.7834 2.19187,-9.5677 0,-8.4891 -3.65311,-13.3599 -2.4702,-3.34 -6.29727,-3.34 z" />
        <path
           inkscape:connector-curvature="0"
           id="path4249"
           style="fill:#000000;fill-opacity:1"
           d="m -917.52924,1091.3438 0,7.1671 q 4.00103,-7.1671 8.2108,-7.1671 1.91353,0 3.16603,1.1829 1.25249,1.1482 1.25249,2.679 0,1.3569 -0.90458,2.2962 -0.90458,0.9394 -2.15707,0.9394 -1.2177,0 -2.74853,-1.1829 -1.49603,-1.2177 -2.22666,-1.2177 -0.62624,0 -1.35687,0.6958 -1.56561,1.4265 -3.23561,4.6969 l 0,15.2734 q 0,2.6442 0.66104,4.0011 0.45229,0.9393 1.60041,1.5656 1.14812,0.6262 3.3052,0.6262 l 0,1.2525 -16.31722,0 0,-1.2525 q 2.4354,0 3.61831,-0.7654 0.86979,-0.5567 1.21771,-1.7744 0.17396,-0.5914 0.17396,-3.3747 l 0,-12.351 q 0,-5.5667 -0.24355,-6.6104 -0.20874,-1.0785 -0.83499,-1.5656 -0.59146,-0.4871 -1.49604,-0.4871 -1.07853,0 -2.4354,0.5219 l -0.34792,-1.2525 9.63725,-3.8967 1.46124,0 z" />
        <path
           inkscape:connector-curvature="0"
           id="path4251"
           style="fill:#000000;fill-opacity:1"
           d="m -893.80146,1081.811 0,10.4722 7.44539,0 0,2.4354 -7.44539,0 0,20.6662 q 0,3.0964 0.86979,4.1749 0.90458,1.0786 2.29624,1.0786 1.14812,0 2.22666,-0.6959 1.07854,-0.7306 1.66999,-2.1222 l 1.35687,0 q -1.2177,3.4095 -3.44436,5.1491 -2.22666,1.7048 -4.59248,1.7048 -1.60041,0 -3.13123,-0.8698 -1.53083,-0.9046 -2.26145,-2.5398 -0.73062,-1.67 -0.73062,-5.1143 l 0,-21.4316 -5.04477,0 0,-1.1481 q 1.91353,-0.7654 3.89665,-2.5746 2.0179,-1.8439 3.58352,-4.3489 0.80021,-1.3221 2.22666,-4.836 l 1.07853,0 z" />
        <path
           inkscape:connector-curvature="0"
           id="path4253"
           style="fill:#000000;fill-opacity:1"
           d="m -873.93548,1074.6787 0,23.3103 q 3.86185,-4.2446 6.1233,-5.4275 2.26145,-1.2177 4.5229,-1.2177 2.71374,0 4.66206,1.4961 1.94833,1.496 2.8877,4.6968 0.66103,2.2267 0.66103,8.1412 l 0,11.2725 q 0,3.0268 0.48709,4.1402 0.34791,0.835 1.18291,1.322 0.83499,0.4871 3.06165,0.4871 l 0,1.2525 -15.65618,0 0,-1.2525 0.73062,0 q 2.22666,0 3.09645,-0.661 0.86978,-0.6958 1.2177,-2.0179 0.10437,-0.5567 0.10437,-3.2704 l 0,-11.2725 q 0,-5.2187 -0.55666,-6.8539 -0.52187,-1.6352 -1.70478,-2.4354 -1.18292,-0.835 -2.85291,-0.835 -1.70478,0 -3.54873,0.9046 -1.84395,0.9046 -4.41852,3.6531 l 0,16.8391 q 0,3.2704 0.34791,4.0706 0.38271,0.8002 1.35687,1.3569 1.00895,0.5218 3.44436,0.5218 l 0,1.2525 -15.79535,0 0,-1.2525 q 2.12229,0 3.33999,-0.661 0.69583,-0.3479 1.11333,-1.3221 0.4175,-0.9742 0.4175,-3.9662 l 0,-28.8422 q 0,-5.4623 -0.27834,-6.7147 -0.24354,-1.2525 -0.8002,-1.7048 -0.52187,-0.4523 -1.42645,-0.4523 -0.73063,0 -2.36583,0.5566 l -0.48708,-1.2177 9.53288,-3.8966 1.60041,0 z" />
        <path
           inkscape:connector-curvature="0"
           id="path4255"
           style="fill:#000000;fill-opacity:1"
           d="m -803.37832,1108.3569 -18.26554,0 -3.20082,7.4454 q -1.18291,2.7485 -1.18291,4.1054 0,1.0785 1.00895,1.9135 1.04374,0.8002 4.45331,1.0437 l 0,1.2873 -14.85597,0 0,-1.2873 q 2.95728,-0.5218 3.82706,-1.3568 1.77437,-1.67 3.93144,-6.7844 l 16.59556,-38.8273 1.2177,0 16.42159,39.2448 q 1.98312,4.7317 3.58353,6.1581 1.6352,1.3917 4.52289,1.5656 l 0,1.2873 -18.61346,0 0,-1.2873 q 2.81812,-0.1391 3.79228,-0.9393 1.00895,-0.8002 1.00895,-1.9484 0,-1.5308 -1.39166,-4.836 l -2.8529,-6.7843 z m -0.97416,-2.5746 -8.00205,-19.0657 -8.2108,19.0657 16.21285,0 z" />
        <path
           inkscape:connector-curvature="0"
           id="path4257"
           style="fill:#000000;fill-opacity:1"
           d="m -772.79656,1098.1282 q 3.47915,-3.4792 4.10539,-4.0011 1.56562,-1.322 3.37478,-2.0527 1.80916,-0.7306 3.58353,-0.7306 2.99207,0 5.14914,1.7396 2.15707,1.7396 2.8877,5.0448 3.58352,-4.175 6.05372,-5.4623 2.4702,-1.3221 5.07956,-1.3221 2.53978,0 4.4881,1.3221 1.98312,1.2873 3.13124,4.2446 0.76541,2.0179 0.76541,6.332 l 0,13.7079 q 0,2.992 0.45229,4.1054 0.34792,0.7654 1.28729,1.3221 0.93937,0.5218 3.06165,0.5218 l 0,1.2525 -15.72576,0 0,-1.2525 0.66104,0 q 2.0527,0 3.20082,-0.8002 0.8002,-0.5566 1.14812,-1.7743 0.13916,-0.5915 0.13916,-3.3748 l 0,-13.7079 q 0,-3.8966 -0.93937,-5.497 -1.35687,-2.2267 -4.34894,-2.2267 -1.84395,0 -3.72269,0.9394 -1.84395,0.9046 -4.4881,3.4095 l -0.0696,0.3828 0.0696,1.496 0,15.2039 q 0,3.2704 0.34791,4.0706 0.38271,0.8002 1.39166,1.3569 1.00896,0.5218 3.44436,0.5218 l 0,1.2525 -16.10847,0 0,-1.2525 q 2.64416,0 3.61832,-0.6262 1.00895,-0.6263 1.39166,-1.8788 0.17396,-0.5914 0.17396,-3.4443 l 0,-13.7079 q 0,-3.8966 -1.14812,-5.6014 -1.53083,-2.2267 -4.27936,-2.2267 -1.87874,0 -3.72269,1.009 -2.8877,1.5308 -4.45331,3.4443 l 0,17.0827 q 0,3.1312 0.41749,4.0706 0.45229,0.9394 1.28729,1.4264 0.86979,0.4523 3.47915,0.4523 l 0,1.2525 -15.76055,0 0,-1.2525 q 2.19186,0 3.06165,-0.4523 0.86979,-0.487 1.32208,-1.496 0.45229,-1.0437 0.45229,-4.001 l 0,-12.177 q 0,-5.2536 -0.31313,-6.7844 -0.24354,-1.1481 -0.76541,-1.5656 -0.52187,-0.4523 -1.42645,-0.4523 -0.97416,0 -2.33103,0.5219 l -0.52188,-1.2525 9.60246,-3.8967 1.49604,0 0,6.7844 z" />
        <path
           inkscape:connector-curvature="0"
           id="path4259"
           style="fill:#000000;fill-opacity:1"
           d="m -721.37468,1104.2863 q -0.0348,7.0974 3.44436,11.1333 3.47915,4.0358 8.17601,4.0358 3.13123,0 5.42747,-1.7048 2.33103,-1.7396 3.89665,-5.9146 l 1.07854,0.6959 q -0.73062,4.7664 -4.24457,8.6978 -3.51394,3.8967 -8.80225,3.8967 -5.7406,0 -9.846,-4.4533 -4.0706,-4.4881 -4.0706,-12.0379 0,-8.176 4.17498,-12.7337 4.20977,-4.5925 10.54183,-4.5925 5.35789,0 8.80225,3.5488 3.44436,3.5139 3.44436,9.4285 l -22.02303,0 z m 0,-2.0179 14.7516,0 q -0.17396,-3.0617 -0.73062,-4.3142 -0.86979,-1.9483 -2.60936,-3.0616 -1.70479,-1.1134 -3.58353,-1.1134 -2.88769,0 -5.18393,2.2615 -2.26145,2.2266 -2.64416,6.2277 z" />
        <path
           inkscape:connector-curvature="0"
           id="path4261"
           style="fill:#000000;fill-opacity:1"
           d="m -685.81775,1091.3438 0,7.1671 q 4.00102,-7.1671 8.2108,-7.1671 1.91353,0 3.16603,1.1829 1.25249,1.1482 1.25249,2.679 0,1.3569 -0.90458,2.2962 -0.90458,0.9394 -2.15707,0.9394 -1.21771,0 -2.74853,-1.1829 -1.49604,-1.2177 -2.22666,-1.2177 -0.62625,0 -1.35687,0.6958 -1.56562,1.4265 -3.23561,4.6969 l 0,15.2734 q 0,2.6442 0.66104,4.0011 0.45229,0.9393 1.60041,1.5656 1.14812,0.6262 3.30519,0.6262 l 0,1.2525 -16.31722,0 0,-1.2525 q 2.43541,0 3.61832,-0.7654 0.86979,-0.5567 1.2177,-1.7744 0.17396,-0.5914 0.17396,-3.3747 l 0,-12.351 q 0,-5.5667 -0.24354,-6.6104 -0.20875,-1.0785 -0.83499,-1.5656 -0.59146,-0.4871 -1.49604,-0.4871 -1.07854,0 -2.43541,0.5219 l -0.34791,-1.2525 9.63725,-3.8967 1.46124,0 z" />
        <path
           inkscape:connector-curvature="0"
           id="path4263"
           style="fill:#000000;fill-opacity:1"
           d="m -663.23809,1074.6787 q 1.46125,0 2.4702,1.0437 1.04374,1.009 1.04374,2.4702 0,1.4613 -1.04374,2.505 -1.00895,1.0438 -2.4702,1.0438 -1.46124,0 -2.50499,-1.0438 -1.04374,-1.0437 -1.04374,-2.505 0,-1.4612 1.00895,-2.4702 1.04375,-1.0437 2.53978,-1.0437 z m 2.8877,16.6651 0,25.6066 q 0,2.992 0.4175,4.001 0.45228,0.9742 1.28728,1.4612 0.86979,0.4871 3.13124,0.4871 l 0,1.2525 -15.48223,0 0,-1.2525 q 2.33104,0 3.13124,-0.4523 0.80021,-0.4523 1.2525,-1.496 0.48708,-1.0437 0.48708,-4.001 l 0,-12.2814 q 0,-5.184 -0.31313,-6.7148 -0.24354,-1.1133 -0.76541,-1.5308 -0.52187,-0.4523 -1.42645,-0.4523 -0.97416,0 -2.36583,0.5219 l -0.48708,-1.2525 9.60246,-3.8967 1.53083,0 z" />
        <path
           inkscape:connector-curvature="0"
           id="path4265"
           style="fill:#000000;fill-opacity:1"
           d="m -624.51512,1112.0448 q -1.28728,6.2972 -5.04477,9.7068 -3.75748,3.3748 -8.31517,3.3748 -5.42747,0 -9.46329,-4.5577 -4.03581,-4.5577 -4.03581,-12.3162 0,-7.515 4.45331,-12.2118 4.4881,-4.6969 10.75058,-4.6969 4.69685,0 7.72371,2.505 3.02686,2.4702 3.02686,5.1492 0,1.322 -0.86979,2.157 -0.83499,0.8002 -2.36582,0.8002 -2.0527,0 -3.09644,-1.322 -0.59146,-0.7307 -0.80021,-2.7834 -0.17395,-2.0527 -1.39166,-3.1312 -1.2177,-1.0437 -3.37477,-1.0437 -3.47916,0 -5.60144,2.5745 -2.81811,3.4096 -2.81811,9.011 0,5.7058 2.78332,10.0896 2.81811,4.3489 7.58455,4.3489 3.40957,0 6.12331,-2.331 1.91353,-1.6004 3.72269,-5.8102 l 1.00895,0.4871 z" />
        <path
           inkscape:connector-curvature="0"
           id="path4267"
           style="fill:#000000;fill-opacity:1"
           d="m -601.93542,1119.5597 q -4.9056,3.7923 -6.1581,4.3838 -1.87874,0.8698 -4.00102,0.8698 -3.3052,0 -5.46227,-2.2615 -2.12228,-2.2614 -2.12228,-5.9493 0,-2.3311 1.04374,-4.0359 1.42646,-2.3658 4.9404,-4.4533 3.54873,-2.0875 11.75953,-5.0795 l 0,-1.2525 q 0,-4.7665 -1.53083,-6.5408 -1.49603,-1.7744 -4.38373,-1.7744 -2.19186,0 -3.47915,1.1829 -1.32208,1.1829 -1.32208,2.7138 l 0.0696,2.0179 q 0,1.6004 -0.835,2.4702 -0.8002,0.8698 -2.12228,0.8698 -1.28729,0 -2.12228,-0.9046 -0.80021,-0.9046 -0.80021,-2.4702 0,-2.9921 3.06165,-5.4971 3.06166,-2.505 8.59351,-2.505 4.24456,0 6.9583,1.4265 2.0527,1.0785 3.02686,3.3748 0.62625,1.496 0.62625,6.1233 l 0,10.8201 q 0,4.5577 0.17396,5.6015 0.17395,1.0089 0.55666,1.3568 0.4175,0.3479 0.93937,0.3479 0.55666,0 0.97416,-0.2435 0.73062,-0.4523 2.81811,-2.5398 l 0,1.9483 q -3.89664,5.2188 -7.44538,5.2188 -1.70478,0 -2.71374,-1.1829 -1.00895,-1.183 -1.04374,-4.0359 z m 0,-2.2614 0,-12.1422 q -5.25352,2.0874 -6.78435,2.9572 -2.74853,1.5309 -3.93144,3.2009 -1.18291,1.6699 -1.18291,3.6531 0,2.505 1.49604,4.1749 1.49603,1.6352 3.44436,1.6352 2.64415,0 6.9583,-3.4791 z" />
      </g>
      <g
         id="text4275"
         style="font-style:normal;font-variant:normal;font-weight:normal;font-stretch:normal;font-size:95.25948334px;line-height:125%;font-family:'Times New Roman';-inkscape-font-specification:'Times New Roman, Normal';text-align:start;letter-spacing:0px;word-spacing:0px;writing-mode:lr-tb;text-anchor:start;fill:#d9281a;fill-opacity:1;stroke:none;stroke-width:1px;stroke-linecap:butt;stroke-linejoin:miter;stroke-opacity:1"
         transform="scale(0.87880273,1.1379118)">
        <path
           id="path4288"
           d="m -1566.0477,1228.7093 q 6.5583,1.3954 9.8143,4.4653 4.5118,4.2792 4.5118,10.4655 0,4.6979 -2.9769,9.0236 -2.9768,4.2793 -8.1863,6.2793 -5.163,1.9536 -15.8146,1.9536 l -29.7686,0 0,-1.721 2.3722,0 q 3.9536,0 5.6746,-2.5117 1.0698,-1.628 1.0698,-6.9305 l 0,-40.7458 q 0,-5.8607 -1.3488,-7.3956 -1.8141,-2.0466 -5.3956,-2.0466 l -2.3722,0 0,-1.721 27.2569,0 q 7.6282,0 12.233,1.1163 6.977,1.6745 10.6516,5.9537 3.6745,4.2328 3.6745,9.7679 0,4.7443 -2.8838,8.5119 -2.8838,3.7211 -8.5119,5.5351 z m -24.3731,-2.5117 q 1.721,0.3256 3.9072,0.5116 2.2326,0.1396 4.8839,0.1396 6.7909,0 10.1864,-1.4419 3.442,-1.4885 5.256,-4.5118 1.814,-3.0234 1.814,-6.6049 0,-5.5351 -4.5118,-9.4423 -4.5118,-3.9071 -13.1633,-3.9071 -4.6513,0 -8.3724,1.0233 l 0,24.2335 z m 0,30.1407 q 5.3956,1.2559 10.6516,1.2559 8.4189,0 12.8377,-3.7676 4.4188,-3.8141 4.4188,-9.3957 0,-3.6746 -2.0001,-7.0701 -2.0001,-3.3955 -6.5119,-5.349 -4.5118,-1.9536 -11.1632,-1.9536 -2.8838,0 -4.9304,0.093 -2.0466,0.093 -3.3025,0.3256 l 0,25.8615 z"
           inkscape:connector-curvature="0" />
        <path
           id="path4290"
           d="m -1526.5113,1201.2664 0,24.9312 13.861,0 q 5.3955,0 7.2095,-1.628 2.4187,-2.1396 2.6978,-7.5351 l 1.721,0 0,21.9543 -1.721,0 q -0.6512,-4.6048 -1.3024,-5.9072 -0.8372,-1.628 -2.7442,-2.5583 -1.9071,-0.9302 -5.8607,-0.9302 l -13.861,0 0,20.7915 q 0,4.1862 0.3721,5.1164 0.3721,0.8838 1.3023,1.442 0.9303,0.5116 3.5351,0.5116 l 10.6981,0 q 5.349,0 7.7677,-0.7442 2.4187,-0.7442 4.6513,-2.9303 2.8839,-2.8839 5.9072,-8.6981 l 1.8606,0 -5.4421,15.8146 -48.6065,0 0,-1.721 2.2326,0 q 2.2327,0 4.2328,-1.0698 1.4884,-0.7442 2,-2.2326 0.5582,-1.4885 0.5582,-6.0933 l 0,-40.9783 q 0,-6.0003 -1.2094,-7.3957 -1.6744,-1.8605 -5.5816,-1.8605 l -2.2326,0 0,-1.721 48.6065,0 0.6977,13.8145 -1.814,0 q -0.9768,-4.9769 -2.1861,-6.8375 -1.1629,-1.8605 -3.4886,-2.8373 -1.8605,-0.6977 -6.5583,-0.6977 l -17.303,0 z"
           inkscape:connector-curvature="0" />
        <path
           id="path4292"
           d="m -1433.5775,1243.4541 1.5349,0.3256 -5.3955,17.1169 -48.8391,0 0,-1.721 2.3722,0 q 4.0001,0 5.7211,-2.6047 0.9768,-1.4885 0.9768,-6.884 l 0,-40.6993 q 0,-5.9072 -1.3024,-7.3956 -1.814,-2.0466 -5.3955,-2.0466 l -2.3722,0 0,-1.721 28.5592,0 0,1.721 q -5.0234,-0.046 -7.07,0.9303 -2.0001,0.9768 -2.7443,2.4652 -0.7442,1.4884 -0.7442,7.1165 l 0,39.6295 q 0,3.8606 0.7442,5.3025 0.5581,0.9768 1.721,1.4419 1.1628,0.4652 7.2561,0.4652 l 4.6048,0 q 7.2561,0 10.1864,-1.0699 2.9304,-1.0698 5.3491,-3.7675 2.4187,-2.7443 4.8374,-8.605 z"
           inkscape:connector-curvature="0" />
        <path
           id="path4294"
           d="m -1400.553,1259.1756 0,1.721 -27.0243,0 0,-1.721 2.2327,0 q 3.9071,0 5.6746,-2.2791 1.1163,-1.4885 1.1163,-7.1631 l 0,-40.7458 q 0,-4.7909 -0.6047,-6.3258 -0.4651,-1.1628 -1.907,-2.0001 -2.0466,-1.1163 -4.2792,-1.1163 l -2.2327,0 0,-1.721 27.0243,0 0,1.721 -2.2792,0 q -3.8606,0 -5.6281,2.2792 -1.1628,1.4884 -1.1628,7.163 l 0,40.7458 q 0,4.7909 0.6047,6.3258 0.4651,1.1628 1.9535,2.0001 2.0001,1.1163 4.2327,1.1163 l 2.2792,0 z"
           inkscape:connector-curvature="0" />
        <path
           id="path4296"
           d="m -1378.2265,1201.2664 0,24.9312 13.861,0 q 5.3955,0 7.2095,-1.628 2.4187,-2.1396 2.6978,-7.5351 l 1.721,0 0,21.9543 -1.721,0 q -0.6512,-4.6048 -1.3024,-5.9072 -0.8372,-1.628 -2.7443,-2.5583 -1.907,-0.9302 -5.8606,-0.9302 l -13.861,0 0,20.7915 q 0,4.1862 0.3721,5.1164 0.3721,0.8838 1.3023,1.442 0.9303,0.5116 3.5351,0.5116 l 10.698,0 q 5.3491,0 7.7678,-0.7442 2.4187,-0.7442 4.6513,-2.9303 2.8839,-2.8839 5.9072,-8.6981 l 1.8606,0 -5.4421,15.8146 -48.6065,0 0,-1.721 2.2326,0 q 2.2327,0 4.2327,-1.0698 1.4885,-0.7442 2.0001,-2.2326 0.5582,-1.4885 0.5582,-6.0933 l 0,-40.9783 q 0,-6.0003 -1.2094,-7.3957 -1.6745,-1.8605 -5.5816,-1.8605 l -2.2326,0 0,-1.721 48.6065,0 0.6977,13.8145 -1.814,0 q -0.9768,-4.9769 -2.1862,-6.8375 -1.1628,-1.8605 -3.4885,-2.8373 -1.8605,-0.6977 -6.5584,-0.6977 l -17.3029,0 z"
           inkscape:connector-curvature="0" />
        <path
           id="path4298"
           d="m -1272.269,1197.8244 0,1.721 q -3.349,0.6047 -5.07,2.1396 -2.4652,2.2792 -4.3722,6.977 l -22.0009,53.6765 -1.721,0 -23.6288,-54.3742 q -1.814,-4.1862 -2.5582,-5.1164 -1.1629,-1.442 -2.8838,-2.2327 -1.6745,-0.8372 -4.5584,-1.0698 l 0,-1.721 25.7685,0 0,1.721 q -4.3723,0.4186 -5.6747,1.4884 -1.3023,1.0698 -1.3023,2.7443 0,2.3257 2.1396,7.2561 l 16.0471,36.9782 14.8843,-36.513 q 2.1861,-5.3956 2.1861,-7.4887 0,-1.3489 -1.3489,-2.5582 -1.3488,-1.2559 -4.5583,-1.7676 -0.2325,-0.046 -0.7907,-0.1395 l 0,-1.721 19.4426,0 z"
           inkscape:connector-curvature="0" />
        <path
           id="path4300"
           d="m -1251.1519,1201.2664 0,24.9312 13.861,0 q 5.3956,0 7.2096,-1.628 2.4187,-2.1396 2.6978,-7.5351 l 1.721,0 0,21.9543 -1.721,0 q -0.6512,-4.6048 -1.3024,-5.9072 -0.8372,-1.628 -2.7443,-2.5583 -1.907,-0.9302 -5.8607,-0.9302 l -13.861,0 0,20.7915 q 0,4.1862 0.3721,5.1164 0.3721,0.8838 1.3024,1.442 0.9303,0.5116 3.535,0.5116 l 10.6981,0 q 5.349,0 7.7677,-0.7442 2.4187,-0.7442 4.6514,-2.9303 2.8838,-2.8839 5.9072,-8.6981 l 1.8605,0 -5.442,15.8146 -48.6066,0 0,-1.721 2.2327,0 q 2.2326,0 4.2327,-1.0698 1.4884,-0.7442 2.0001,-2.2326 0.5581,-1.4885 0.5581,-6.0933 l 0,-40.9783 q 0,-6.0003 -1.2093,-7.3957 -1.6745,-1.8605 -5.5816,-1.8605 l -2.2327,0 0,-1.721 48.6066,0 0.6977,13.8145 -1.8141,0 q -0.9767,-4.9769 -2.1861,-6.8375 -1.1628,-1.8605 -3.4885,-2.8373 -1.8605,-0.6977 -6.5584,-0.6977 l -17.303,0 z"
           inkscape:connector-curvature="0" />
      </g>
      <g
         id="text4279"
         style="font-style:normal;font-variant:normal;font-weight:normal;font-stretch:normal;font-size:95.25948334px;line-height:125%;font-family:'Times New Roman';-inkscape-font-specification:'Times New Roman, Normal';text-align:start;letter-spacing:0px;word-spacing:0px;writing-mode:lr-tb;text-anchor:start;fill:#00af41;fill-opacity:1;stroke:none;stroke-width:1px;stroke-linecap:butt;stroke-linejoin:miter;stroke-opacity:1"
         transform="scale(0.87880273,1.1379118)">
        <path
           id="path4314"
           d="m -767.95031,1244.896 1.53494,0.3256 -5.39556,17.1169 -48.83909,0 0,-1.721 2.37219,0 q 4.00015,0 5.72115,-2.6047 0.97678,-1.4885 0.97678,-6.884 l 0,-40.6993 q 0,-5.9072 -1.30238,-7.3956 -1.81402,-2.0466 -5.39555,-2.0466 l -2.37219,0 0,-1.721 28.55924,0 0,1.721 q -5.02345,-0.046 -7.07004,0.9303 -2.00007,0.9768 -2.74429,2.4652 -0.74421,1.4884 -0.74421,7.1165 l 0,39.6295 q 0,3.8606 0.74421,5.3025 0.55816,0.9768 1.721,1.4419 1.16283,0.4651 7.25609,0.4651 l 4.60483,0 q 7.25609,0 10.18644,-1.0698 2.93034,-1.0698 5.34904,-3.7675 2.4187,-2.7443 4.8374,-8.605 z"
           inkscape:connector-curvature="0" />
        <path
           id="path4316"
           d="m -744.41452,1202.7083 0,24.9312 13.861,0 q 5.39555,0 7.20958,-1.628 2.41869,-2.1396 2.69778,-7.5352 l 1.72099,0 0,21.9544 -1.72099,0 q -0.65119,-4.6048 -1.30238,-5.9072 -0.83724,-1.628 -2.74429,-2.5583 -1.90705,-0.9302 -5.86069,-0.9302 l -13.861,0 0,20.7915 q 0,4.1862 0.37211,5.1164 0.3721,0.8838 1.30237,1.442 0.93027,0.5116 3.53502,0.5116 l 10.69809,0 q 5.34904,0 7.76774,-0.7442 2.4187,-0.7442 4.65134,-2.9304 2.88383,-2.8838 5.9072,-8.698 l 1.86054,0 -5.44207,15.8146 -48.60652,0 0,-1.721 2.23264,0 q 2.23265,0 4.23272,-1.0698 1.48843,-0.7442 2.00008,-2.2326 0.55816,-1.4885 0.55816,-6.0933 l 0,-40.9783 q 0,-6.0003 -1.20935,-7.3957 -1.67448,-1.8605 -5.58161,-1.8605 l -2.23264,0 0,-1.721 48.60652,0 0.6977,13.8145 -1.81402,0 q -0.97678,-4.9769 -2.18613,-6.8375 -1.16284,-1.8605 -3.48851,-2.8373 -1.86053,-0.6977 -6.55839,-0.6977 l -17.30299,0 z"
           inkscape:connector-curvature="0" />
        <path
           id="path4318"
           d="m -662.50439,1241.2214 -24.41954,0 -4.27924,9.9539 q -1.58146,3.6745 -1.58146,5.4886 0,1.4419 1.34889,2.5582 1.39541,1.0698 5.95372,1.3954 l 0,1.721 -19.86123,0 0,-1.721 q 3.95364,-0.6977 5.11648,-1.814 2.37218,-2.2327 5.25601,-9.0701 l 22.18691,-51.909 1.62796,0 21.95434,52.4671 q 2.65126,6.3259 4.79088,8.2329 2.18613,1.8605 6.04675,2.0931 l 0,1.721 -24.88468,0 0,-1.721 q 3.76758,-0.186 5.06996,-1.2559 1.34889,-1.0698 1.34889,-2.6047 0,-2.0466 -1.86054,-6.4654 l -3.8141,-9.0701 z m -1.30237,-3.442 -10.69809,-25.4893 -10.97717,25.4893 21.67526,0 z"
           inkscape:connector-curvature="0" />
        <path
           id="path4320"
           d="m -635.61963,1262.3385 0,-1.721 2.37218,0 q 4.00015,0 5.67464,-2.5582 1.02329,-1.535 1.02329,-6.884 l 0,-40.7458 q 0,-5.9072 -1.30237,-7.3956 -1.81403,-2.0466 -5.39556,-2.0466 l -2.37218,0 0,-1.721 25.6754,0 q 14.14008,0 21.4892,3.2094 7.39564,3.2095 11.86092,10.6981 4.51181,7.4887 4.51181,17.303 0,13.1633 -8.00031,22.0009 -8.97709,9.8608 -27.34989,9.8608 l -28.18713,0 z m 18.00069,-4.5583 q 5.9072,1.3024 9.90736,1.3024 10.79111,0 17.90766,-7.5817 7.11656,-7.5817 7.11656,-20.559 0,-13.0702 -7.11656,-20.6054 -7.11655,-7.5352 -18.27977,-7.5352 -4.18621,0 -9.53525,1.3489 l 0,53.63 z"
           inkscape:connector-curvature="0" />
      </g>
      <g
         id="text4283"
         style="font-style:normal;font-variant:normal;font-weight:bold;font-stretch:normal;font-size:95.26000214px;line-height:125%;font-family:'Times New Roman';-inkscape-font-specification:'Times New Roman, Bold';text-align:start;letter-spacing:-1.49000001px;word-spacing:0px;writing-mode:lr-tb;text-anchor:start;fill:#f3eb00;fill-opacity:1;stroke:#000000;stroke-width:2.5;stroke-linecap:butt;stroke-linejoin:miter;stroke-miterlimit:4;stroke-dasharray:none;stroke-opacity:1"
         transform="scale(0.87880273,1.1379118)">
        <path
           id="path4303"
           d="m -1130.1649,1237.6576 -2.3722,22.1405 -56.0025,0 0,-1.721 2.0931,0 q 2.7443,0 4.4188,-0.9768 1.2094,-0.6512 1.8606,-2.2327 0.5116,-1.1163 0.5116,-5.8607 l 0,-41.4902 q 0,-4.8374 -0.5116,-6.0468 -0.5117,-1.2093 -2.0932,-2.0931 -1.5349,-0.9302 -4.1862,-0.9302 l -2.0931,0 0,-1.721 33.6294,0 0,1.721 -2.7443,0 q -2.7443,0 -4.4188,0.9767 -1.2094,0.6512 -1.9071,2.2327 -0.5116,1.1163 -0.5116,5.8607 l 0,40.1878 q 0,4.8375 0.5581,6.1864 0.5582,1.3023 2.1862,1.9535 1.1628,0.4187 5.6281,0.4187 l 5.2561,0 q 5.0234,0 8.3724,-1.7676 3.349,-1.7675 5.7677,-5.5816 2.4652,-3.8141 4.6514,-11.2563 l 1.9071,0 z"
           inkscape:connector-curvature="0" />
        <path
           id="path4305"
           d="m -1102.2118,1200.3536 0,25.6756 1.2559,0 q 6.0002,0 8.698,-3.7676 2.6978,-3.7676 3.442,-11.1168 l 1.7676,0 0,33.0247 -1.7676,0 q -0.5581,-5.3956 -2.3722,-8.8376 -1.7675,-3.442 -4.1397,-4.6048 -2.3722,-1.2094 -6.884,-1.2094 l 0,17.7682 q 0,5.2095 0.4186,6.3724 0.4652,1.1628 1.6745,1.9071 1.2094,0.7442 3.9072,0.7442 l 3.7676,0 q 8.8376,0 14.1401,-4.0932 5.3491,-4.0932 7.6748,-12.4657 l 1.721,0 -2.8373,20.0474 -54.5141,0 0,-1.721 2.0931,0 q 2.7444,0 4.4188,-0.9768 1.2094,-0.6512 1.8606,-2.2327 0.5116,-1.1163 0.5116,-5.8607 l 0,-41.4902 q 0,-4.2792 -0.2325,-5.256 -0.4652,-1.628 -1.721,-2.5118 -1.7675,-1.3023 -4.8375,-1.3023 l -2.0931,0 0,-1.721 52.7931,0 0,18.6519 -1.7676,0 q -1.3489,-6.8375 -3.8141,-9.8143 -2.4187,-2.9769 -6.884,-4.3723 -2.6048,-0.8373 -9.7679,-0.8373 l -6.5119,0 z"
           inkscape:connector-curvature="0" />
        <path
           id="path4307"
           d="m -1026.3961,1241.8438 -22.28,0 -2.6513,6.1398 q -1.3024,3.0699 -1.3024,5.07 0,2.6513 2.1396,3.9072 1.2559,0.7442 6.1864,1.1163 l 0,1.721 -20.9777,0 0,-1.721 q 3.3955,-0.5117 5.5816,-2.7908 2.1862,-2.3257 5.3956,-9.5353 l 22.5592,-50.3278 0.8837,0 22.7452,51.7232 q 3.256,7.3491 5.3491,9.2562 1.5814,1.4419 4.46528,1.6745 l 0,1.721 -30.51298,0 0,-1.721 1.2559,0 q 3.6746,0 5.163,-1.0233 1.0233,-0.7442 1.0233,-2.1396 0,-0.8373 -0.2791,-1.721 -0.093,-0.4187 -1.3954,-3.4886 l -3.349,-7.8608 z m -1.5814,-3.442 -9.3958,-21.7219 -9.6748,21.7219 19.0706,0 z"
           inkscape:connector-curvature="0" />
        <path
           id="path4309"
           d="m -973.37205,1231.0526 0,17.6752 q 0,5.1165 0.60467,6.4654 0.6512,1.3024 2.23266,2.0932 1.58147,0.7907 5.90724,0.7907 l 0,1.721 -32.28049,0 0,-1.721 q 4.37228,0 5.90723,-0.7907 1.58147,-0.8373 2.18615,-2.1397 0.65119,-1.3024 0.65119,-6.4189 l 0,-40.932 q 0,-5.1165 -0.65119,-6.4189 -0.60468,-1.3489 -2.18615,-2.1396 -1.58146,-0.7907 -5.90723,-0.7907 l 0,-1.721 29.30361,0 q 11.44237,0 16.74492,1.5814 5.30256,1.5815 8.65155,5.8607 3.34898,4.2328 3.34898,9.954 0,6.977 -5.02347,11.5354 -3.20945,2.8838 -8.97714,4.3257 l 15.16345,21.3498 q 2.97688,4.1397 4.23275,5.163 1.90706,1.4419 4.4188,1.5815 l 0,1.721 -19.86134,0 -20.32648,-28.7455 -4.13971,0 z m 0,-30.9315 0,27.6291 2.65128,0 q 6.4654,0 9.67484,-1.1629 3.20944,-1.2093 5.02348,-4.2792 1.86054,-3.1164 1.86054,-8.0934 0,-7.2096 -3.39549,-10.6516 -3.34899,-3.442 -10.83769,-3.442 l -4.97696,0 z"
           inkscape:connector-curvature="0" />
        <path
           id="path4311"
           d="m -907.60328,1196.7256 31.11764,39.118 0,-27.1175 q 0,-5.6747 -1.62797,-7.6748 -2.23266,-2.6978 -7.48871,-2.6047 l 0,-1.721 20.83813,0 0,1.721 q -4.00018,0.5116 -5.39559,1.3489 -1.34889,0.7907 -2.13963,2.6512 -0.74421,1.8141 -0.74421,6.2794 l 0,52.5139 -1.58147,0 -42.65304,-52.5139 0,40.0948 q 0,5.4421 2.46523,7.3491 2.51174,1.9071 5.72118,1.9071 l 1.48844,0 0,1.721 -22.37308,0 0,-1.721 q 5.20953,-0.046 7.25613,-2.1396 2.0466,-2.0932 2.0466,-7.1166 l 0,-44.5136 -1.34889,-1.6745 q -2.00009,-2.5117 -3.53504,-3.3025 -1.53495,-0.7907 -4.4188,-0.8837 l 0,-1.721 22.37308,0 z"
           inkscape:connector-curvature="0" />
      </g>
    </g>
  </g>
</svg>
