<?xml version="1.0" encoding="UTF-8" standalone="no"?>
<!-- Created with Inkscape (http://www.inkscape.org/) -->

<svg
   width="500"
   height="500"
   viewBox="0 0 500 500"
   version="1.1"
   id="svg1"
   inkscape:version="1.4.2 (ebf0e940, 2025-05-08)"
   sodipodi:docname="shifa_clinic_logo.svg"
   xml:space="preserve"
   inkscape:export-filename="/Users/sheraz/Desktop/shifa_clinic_logo.png"
   inkscape:export-xdpi="96"
   inkscape:export-ydpi="96"
   xmlns:inkscape="http://www.inkscape.org/namespaces/inkscape"
   xmlns:sodipodi="http://sodipodi.sourceforge.net/DTD/sodipodi-0.dtd"
   xmlns="http://www.w3.org/2000/svg"
   xmlns:svg="http://www.w3.org/2000/svg"><sodipodi:namedview
     id="namedview1"
     pagecolor="#ffffff"
     bordercolor="#000000"
     borderopacity="0.25"
     inkscape:showpageshadow="2"
     inkscape:pageopacity="0.0"
     inkscape:pagecheckerboard="false"
     inkscape:deskcolor="#d1d1d1"
     inkscape:document-units="mm"
     inkscape:zoom="7.1909652"
     inkscape:cx="321.93175"
     inkscape:cy="136.69931"
     inkscape:window-width="3008"
     inkscape:window-height="1639"
     inkscape:window-x="2056"
     inkscape:window-y="25"
     inkscape:window-maximized="1"
     inkscape:current-layer="layer1" /><defs
     id="defs1" /><g
     inkscape:label="Layer 1"
     inkscape:groupmode="layer"
     id="layer1"><path
       id="path33"
       style="fill:#188441;fill-opacity:1;stroke-width:1.26748"
       d="m 185.03695,6.0750474 c -18.97848,0.9690125 -35.51609,8.9168326 -50.01842,24.0078516 -24.76607,25.771376 -23.72511,62.039681 2.785,96.996861 6.19806,8.17302 31.10028,33.60344 83.50513,85.27763 15.07039,14.86027 27.94859,27.03714 28.61732,27.0602 1.53306,0.053 11.29448,-8.64132 18.44777,-16.4302 5.17894,-5.63909 5.42479,-6.15387 4.77286,-10.07547 -2.0721,-12.46441 -6.13751,-19.73008 -11.04836,-19.75238 -3.81664,-0.0174 -12.48831,-6.11473 -21.74768,-15.28898 -9.87917,-9.78836 -11.58997,-12.32162 -9.33776,-13.83337 1.98407,-1.33179 8.79994,-1.26985 9.59026,0.0867 0.89055,1.52853 10.21819,6.4389 12.23167,6.4389 12.24765,0 17.52604,-22.45651 12.04602,-51.25125 -0.4907,-2.57833 -0.23674,-3.5061 1.11151,-4.05493 2.62625,-1.06904 4.35827,1.10974 5.10953,6.42404 0.60564,4.28415 3.39925,11.33424 4.4563,10.21292 0.23025,-0.24424 -0.26918,-4.8379 -1.95846,-9.698 -3.2383,-9.31664 -3.5862,-9.54671 -2.16859,-11.92001 1.67521,-2.80453 5.418,1.55853 7.19469,6.38838 l 2.50074,15.13813 1.13015,-15.89688 c 0.83485,-4.12994 1.75556,-4.94131 4.54262,-4.00295 1.80869,0.60894 1.97979,1.33456 1.47542,6.26066 -0.97519,9.52457 -1.32389,12.81132 -1.13627,13.0189 0.001,10e-4 0.006,0.004 0.008,0.005 10e-4,5.8e-4 0.006,0.005 0.008,0.005 0.003,2.6e-4 0.0101,6.3e-4 0.0127,0 0.12523,-0.0454 0.39974,-0.88861 0.80209,-2.07698 1.41069,-4.16678 3.99533,-7.29704 5.07734,-6.14926 0.46577,0.49409 -0.15255,6.92374 -1.37393,14.28886 -3.02736,18.25552 -3.27177,45.3581 -0.47777,53.04105 2.73851,7.53038 4.20362,6.68756 24.88666,-14.32104 9.83197,-9.98671 20.15998,-20.06986 22.95079,-22.40616 17.10041,-14.31545 34.27206,-38.98359 40.70046,-58.467466 C 391.17334,60.423493 371.88308,22.662296 335.98654,9.4693142 324.76158,5.343832 306.47993,5.1028777 294.9296,8.9271687 280.59628,13.67293 264.76291,23.592128 257.03146,32.670136 c -6.33342,7.436495 -5.1872,10.000443 8.15693,18.244778 7.79732,4.817375 14.1556,12.140081 23.1315,26.636882 5.94578,9.602973 5.93445,11.194423 -0.0817,11.194423 -5.40956,0 -8.93896,-1.734032 -13.14269,-6.458701 -9.98191,-11.218922 -18.56612,-8.296548 -26.28039,8.9491 -4.52695,10.120212 -5.71723,16.487422 -6.42158,34.380382 -0.57121,14.5111 -0.62741,14.8013 -2.89638,14.8013 -2.51662,0 -5.50314,-8.08676 -5.50314,-14.90278 0,-1.79823 -0.52189,-3.61364 -1.16103,-4.03267 -0.8625,-0.56546 -0.97777,2.40677 -0.44808,11.53109 0.70684,12.17606 0.68822,12.31956 -1.8319,14.831 -3.88909,3.87572 -5.29099,2.44765 -6.04528,-6.16163 -0.90499,-10.32936 3.20081,-39.72889 -3.10434,-7.61726 -0.83489,4.25204 -5.80157,6.65119 -7.93166,4.39161 -0.96333,-1.0219 -0.84921,-2.87584 0.52234,-8.553 2.17838,-9.01684 7.73526,-24.33066 -0.25002,-7.56776 -0.56278,1.18141 -2.3229,0.95522 -2.73796,0.51492 -1.40899,-1.49464 1.63861,-15.66133 7.15433,-33.25649 C 228.47889,56.679145 228.21725,47.727617 216.15764,21.205879 210.40703,8.5589911 207.80621,6.8392567 193.32073,6.0877172 190.50874,5.9418252 187.74876,5.9369086 185.03755,6.0753339 Z M 76.162404,229.9511 c -9.819078,0.2296 -19.716398,1.09706 -24.332144,2.47307 -24.117505,7.18978 -37.549091,22.02935 -37.549091,41.48522 -1e-6,21.22642 10.301321,31.89025 43.131443,44.65391 35.929011,13.96844 44.126738,21.37253 44.121668,39.85382 -0.003,14.16527 -4.153557,19.3404 -16.962439,21.15603 -19.703418,2.79292 -41.253168,-12.5827 -41.346581,-29.5011 -0.03173,-5.74517 -3.540122,-5.22671 -25.230772,3.71828 l -10.4938424,4.32725 0.683252,3.8569 c 2.2169614,12.53584 12.6685384,24.04875 26.5626154,29.25601 5.454574,2.04429 7.715194,2.18642 28.753475,1.81211 33.534413,-0.59665 45.162052,-4.48524 59.975072,-20.05936 9.76933,-10.27129 12.51688,-16.94055 11.83063,-28.71634 -1.00858,-17.30698 -9.90422,-25.52215 -43.005187,-39.71024 -21.660306,-9.28428 -33.620259,-17.22618 -39.987511,-26.55025 -2.851095,-4.17505 -3.019018,-4.99576 -3.015216,-14.75425 0.0062,-16.91542 3.718906,-21.10156 18.725037,-21.10156 8.207274,0 9.686284,0.3165 13.97446,2.99047 5.524336,3.44476 11.065454,10.6335 13.578372,17.6135 2.107728,5.85452 1.411821,5.94443 20.254925,-2.58695 13.29878,-6.02115 13.39634,-6.09132 12.31832,-8.81294 -3.18517,-8.04147 -15.05204,-16.50289 -28.12964,-20.05688 -4.296526,-1.16763 -14.037756,-1.57629 -23.856846,-1.3467 z m 93.724206,11.6623 c -2.42767,0 -17.27499,4.51205 -26.14673,7.94651 l -6.53048,2.52753 5.12932,5.79773 c 9.03461,10.20984 8.43914,5.2316 8.43914,70.27087 0,32.02302 -0.3967,57.84458 -0.89366,58.17039 -2.09247,1.37184 -1.89179,5.8832 0.2822,6.3374 4.18897,0.87517 25.49931,0.68879 26.87454,-0.23518 1.16399,-0.78203 0.9923,-2.28356 -1.0125,-8.86493 -2.32693,-7.63885 -2.42501,-9.30002 -2.72806,-46.30014 l -0.31191,-38.3784 3.33951,-4.03762 c 7.32549,-8.85045 21.6206,-9.70069 29.63229,-1.76259 6.63159,6.57076 6.67424,6.93042 6.69883,55.20717 l 0.0223,43.7033 14.22448,0.72039 c 16.54423,0.83777 19.72295,0.37679 18.20023,-2.64142 -0.56347,-1.11685 -2.29277,-2.7273 -3.84205,-3.57716 -5.53957,-3.03877 -5.73242,-4.46577 -5.8522,-43.15126 -0.11939,-38.56297 -0.62659,-43.15125 -5.82495,-52.56081 -4.72077,-8.54505 -11.07708,-10.96832 -28.57524,-10.89735 -10.64651,0.0432 -15.6897,0.53975 -20.11877,1.98291 -3.25082,1.05926 -6.2201,1.59849 -6.59733,1.19816 -0.37723,-0.40032 -0.68929,-8.55889 -0.69563,-18.13089 -0.0114,-19.1734 -0.67246,-23.32461 -3.71331,-23.32461 z m 108.65916,5.67891 -4.26289,0.85654 c -2.34445,0.47069 -7.6865,2.00098 -11.87272,3.39892 l -7.61231,2.53992 0.30945,3.72075 c 0.27596,3.32268 2.82394,13.19771 3.94603,15.29392 0.98185,1.83427 14.89557,-0.90362 20.65842,-4.06485 3.67425,-2.01552 3.84668,-4.80187 0.91349,-14.71464 z m 74.75903,29.39712 c -6.89951,0.0909 -14.24438,0.92932 -19.85635,2.48792 -13.7453,3.81745 -27.7679,8.54056 -33.90508,11.4197 -7.09926,3.33048 -7.28133,5.3386 -0.98032,10.81566 8.70033,7.56266 8.4543,5.67501 8.45398,65.07717 -2.6e-4,50.18054 -0.0781,52.31606 -1.98538,54.90268 -1.0915,1.48022 -1.99252,3.54111 -2.0052,4.57727 -0.0276,2.30244 0.59446,2.31841 8.45647,0.21786 11.74337,-3.13757 21.96553,-7.1094 21.96553,-8.53321 0,-0.77485 -0.90361,-3.52117 -2.00767,-6.10223 -1.68357,-3.93579 -2.01132,-7.08047 -2.02995,-19.49493 l -0.0223,-14.80129 6.34236,-0.008 c 16.96813,-0.017 45.60469,-7.37832 47.01311,-12.08561 1.15036,-3.84456 -1.16672,-4.20345 -37.38571,-5.82002 l -15.99698,-0.71544 0.26736,-34.01649 0.26735,-34.01648 9.64226,0.0792 c 11.35532,0.0938 14.2174,1.30981 21.9977,9.34023 l 5.25064,5.42146 4.15644,-3.493 c 3.99333,-3.35503 9.16211,-10.38821 10.49879,-14.28639 0.82209,-2.3976 -4.0424,-6.38019 -10.95181,-8.96641 -3.83172,-1.4342 -10.28574,-2.09114 -17.18525,-2.00025 z m -71.61261,3.43853 -3.62172,0.72038 c -1.99164,0.39634 -9.642,2.554 -16.99958,4.79513 -13.16417,4.00983 -13.3816,4.12678 -13.68482,7.33258 -0.23561,2.4911 0.16066,3.38745 1.68337,3.80986 3.31358,0.91919 7.92553,8.9188 9.9319,17.22485 3.10976,12.87383 2.78941,64.89302 -0.4456,72.30825 -1.8272,4.18827 -2.03793,5.49551 -1.00507,6.25571 0.71814,0.52857 5.37316,0.68868 10.34282,0.35648 4.96968,-0.3322 11.0212,-0.60403 13.44718,-0.60403 5.29766,0 5.47327,-0.9116 2.38148,-12.38022 -1.88772,-7.0023 -2.02996,-10.75716 -2.02996,-53.6748 z m 171.93414,0.17824 c -10.57197,-0.33504 -22.6559,1.58529 -29.81796,5.43383 -36.33915,19.52685 -43.45364,84.18074 -11.05331,100.44035 14.24128,7.14675 29.22369,7.65194 41.4555,1.39868 7.75001,-3.96199 9.59824,-3.72498 6.76073,0.86892 -1.19967,1.94224 -1.27875,2.81786 -0.34907,3.8569 1.13973,1.27367 30.62138,0.92978 31.84792,-0.37133 0.24171,-0.25645 -1.04353,-3.54238 -2.85678,-7.30286 l -3.29743,-6.83746 -1.01497,-27.36717 c -1.33415,-35.96852 -0.094,-56.27591 3.81976,-62.54964 3.28607,-5.2668 3.29805,-6.21749 0.0767,-7.07511 -1.84926,-0.49236 -3.63961,0.1052 -6.39929,2.13393 -4.65863,3.42466 -6.98277,3.50955 -13.16249,0.48024 -3.86584,-1.89504 -9.66617,-2.90825 -16.00936,-3.10928 z m -11.05331,7.26573 c 7.43875,-0.11889 14.71836,4.73391 18.81415,14.60573 2.05839,4.96147 2.39351,7.80083 2.77262,23.52511 0.81917,33.97612 -3.47059,50.36475 -14.32352,54.71453 -8.80936,3.53073 -21.91248,-5.55952 -28.42175,-19.71772 -7.45722,-16.22013 -6.87734,-40.41802 1.38878,-57.90552 4.73296,-10.01285 12.33098,-15.10329 19.76972,-15.22213 z M 335.4784,406.30905 v 2.7033 2.70576 l 78.3956,-0.27477 c 77.63327,-0.2731 78.39563,-0.29889 78.39563,-2.43099 0,-2.13211 -0.76236,-2.15543 -78.39563,-2.42852 z m -325.31159,1.18331 c -1.0880174,1.86747 1.192419,3.47447 5.869521,4.13664 2.38328,0.33735 67.108163,0.47748 143.834209,0.30944 143.50608,-0.3143 141.03984,-0.24023 141.08636,-4.27032 0.021,-1.81978 -289.73021,-1.99492 -290.79009,-0.17576 z m 412.86673,30.6745 c -14.36194,0.43085 -25.64914,12.07589 -25.64914,28.73366 0,12.23835 5.82944,20.85945 16.95005,25.0674 10.28151,3.887 28.71387,-1.45843 28.71387,-8.33022 0,-1.6123 -0.78189,-1.31072 -4.58965,1.77249 -15.3246,12.40864 -30.59978,-0.0764 -28.60743,-23.38401 1.85077,-21.65037 21.62783,-28.88861 31.09286,-11.3801 l 3.0994,5.73584 0.0127,-9.54075 c 0.009,-9.3406 -0.0274,-9.48902 -1.80962,-7.15433 l -1.81953,2.38396 -7.06025,-2.33445 c -3.54078,-1.17113 -7.01865,-1.66892 -10.33293,-1.56949 z m -332.069836,0.0174 c -8.662768,-0.59252 -16.537228,2.78991 -22.381426,9.83288 -12.255655,14.76953 -7.033245,38.11121 9.805643,43.82212 9.386766,3.1835 21.208662,0.99422 27.481039,-5.08972 4.22471,-4.09779 2.42839,-5.17199 -2.2775,-1.36155 -7.570359,6.12986 -16.963411,6.42021 -22.732942,0.70306 -6.1417,-6.08597 -8.132569,-24.94207 -3.683613,-34.88541 5.850814,-13.07648 22.296388,-13.51662 28.651975,-0.76742 1.29118,2.59009 2.47417,4.84377 2.62903,5.00803 0.15485,0.16426 0.34575,-3.59739 0.42332,-8.35992 0.13669,-8.38888 0.0826,-8.60179 -1.75269,-6.83993 -1.77959,1.7084 -2.22052,1.69947 -7.283047,-0.13368 -3.016832,-1.0924 -5.992203,-1.73095 -8.879789,-1.92846 z m 192.713876,0.43323 -8.8575,0.0322 c -7.0301,0.026 -8.44092,0.28029 -6.83003,1.2254 6.58885,3.86579 6.59732,3.8941 6.59732,24.69853 0,21.31781 -0.55684,24.06715 -5.31994,26.26307 -3.16982,1.4614 -2.92998,1.52246 5.82743,1.52246 8.64285,0 8.9595,-0.0776 5.91408,-1.48285 -1.77008,-0.81678 -3.71029,-2.46296 -4.31239,-3.65639 -1.27609,-2.52933 -1.5324,-37.83625 -0.27479,-37.83625 0.45008,0 8.55478,10.04541 18.01208,22.32201 l 17.19514,22.31952 0.50748,-25.78777 c 0.50129,-25.47807 0.53616,-25.80451 2.80975,-27.00573 3.84519,-2.03157 3.51632,-2.19874 -4.60947,-2.33445 -7.41043,-0.12371 -7.68842,-0.0442 -5.07486,1.43087 1.52092,0.85838 3.23272,2.48757 3.80491,3.62172 1.11137,2.20283 1.47009,26.14942 0.40846,27.27557 -0.34801,0.36917 -6.29668,-6.81539 -13.21694,-15.96726 z m -68.45876,1.07933 3.5524,1.88389 3.55242,1.88143 0.27479,22.49776 c 0.2961,24.24589 0.008,25.73438 -5.20113,26.81512 -0.0935,0.0194 -0.15054,0.0402 -0.17081,0.0594 l -0.003,0.003 -0.003,0.003 c -4.8e-4,9.5e-4 -0.003,0.006 -0.003,0.008 v 0.003 0.003 0.003 0.003 c 5.7e-4,9.5e-4 0.004,0.006 0.005,0.008 l 0.003,0.003 c 0.24572,0.21342 4.83542,0.40671 11.18451,0.44808 11.464,0.0747 12.72873,-0.0842 9.64226,-1.20064 l -3.55241,-1.28481 -0.28716,-22.0695 c -0.33796,-25.95061 -0.25163,-26.52921 4.10692,-27.86474 2.48188,-0.76049 0.0568,-1.02951 -9.90961,-1.10163 z m 142.07904,0.10153 c -11.95195,-0.0169 -12.89777,0.11774 -10.04328,1.43581 4.1875,1.93364 4.4296,3.32992 4.44608,25.57239 0.0157,21.56277 -0.49503,24.03652 -5.27292,25.49814 -2.52267,0.77173 0.0101,1.03203 10.36263,1.05954 11.89454,0.0316 13.23105,-0.13461 10.14727,-1.25016 l -3.5524,-1.2848 v -24.2208 -24.22321 l 3.5524,-1.28482 c 3.10761,-1.12419 1.90291,-1.28578 -9.63978,-1.30213 z m -204.99753,0.0496 c -12.29088,-0.0275 -13.72996,0.14109 -10.65724,1.25263 l 3.55242,1.28482 v 24.22321 24.22076 l -3.55242,1.2848 c -2.95723,1.06977 0.38772,1.29613 19.97519,1.3467 26.84842,0.0693 24.08961,1.3007 25.15156,-11.24393 l 0.63868,-7.53557 -2.53,5.63187 c -3.52939,7.85456 -7.1122,9.9689 -16.90055,9.97397 -4.61113,0.003 -8.1469,-0.50983 -8.87979,-1.28727 -0.86672,-0.9194 -1.21797,-7.55335 -1.21797,-23.01269 0,-23.51907 -0.0393,-23.34863 5.77049,-25.19859 1.8795,-0.59847 -1.99937,-0.91979 -11.35037,-0.94071 z"
       sodipodi:nodetypes="cssscsscsssssssssscccsscccccssssscsssssssssssssssssssscssccscsscsscccsssssscsssssssscccssssscccsscsssssssscsscccccsscccssssscssssccsccccccccssccccsssssssssscsssssssccccssssssssssssccccsccssssssscsssccccccsssssssssssssssccsssssssccsssssscccccsscccsccccccscccsccsscsscccccssscccccsccccssss" /></g></svg>
