<?xml version="1.0" encoding="UTF-8" standalone="no"?>
<!-- Created with Inkscape (http://www.inkscape.org/) -->

<svg
   xmlns:dc="http://purl.org/dc/elements/1.1/"
   xmlns:cc="http://creativecommons.org/ns#"
   xmlns:rdf="http://www.w3.org/1999/02/22-rdf-syntax-ns#"
   xmlns:svg="http://www.w3.org/2000/svg"
   xmlns="http://www.w3.org/2000/svg"
   xmlns:xlink="http://www.w3.org/1999/xlink"
   xmlns:sodipodi="http://sodipodi.sourceforge.net/DTD/sodipodi-0.dtd"
   xmlns:inkscape="http://www.inkscape.org/namespaces/inkscape"
   width="512"
   height="256"
   viewBox="0 0 512.00001 256"
   id="svg2"
   version="1.1"
   inkscape:version="0.91 r13725"
   sodipodi:docname="why_islam_logo.svg">
  <defs
     id="defs4">
    <linearGradient
       inkscape:collect="always"
       id="linearGradient4353">
      <stop
         style="stop-color:#ffffff;stop-opacity:1;"
         offset="0"
         id="stop4355" />
      <stop
         style="stop-color:#ffffff;stop-opacity:0;"
         offset="1"
         id="stop4357" />
    </linearGradient>
    <linearGradient
       inkscape:collect="always"
       id="linearGradient4335">
      <stop
         style="stop-color:#5c2d01;stop-opacity:1"
         offset="0"
         id="stop4337" />
      <stop
         style="stop-color:#5c2d01;stop-opacity:0"
         offset="1"
         id="stop4339" />
    </linearGradient>
    <linearGradient
       inkscape:collect="always"
       id="linearGradient4543">
      <stop
         style="stop-color:#f26b02;stop-opacity:1"
         offset="0"
         id="stop4545" />
      <stop
         style="stop-color:#c61e21;stop-opacity:1"
         offset="1"
         id="stop4547" />
    </linearGradient>
    <clipPath
       clipPathUnits="userSpaceOnUse"
       id="clipPath4219">
      <rect
         style="opacity:1;fill:#289a71;fill-opacity:1;stroke:none;stroke-width:15;stroke-miterlimit:4;stroke-dasharray:none;stroke-opacity:1"
         id="rect4221"
         width="187.91818"
         height="187.91817"
         x="85.641388"
         y="813.30566" />
    </clipPath>
    <linearGradient
       inkscape:collect="always"
       xlink:href="#linearGradient4543"
       id="linearGradient4549"
       x1="-528.92529"
       y1="917.91522"
       x2="-520.25031"
       y2="963.12415"
       gradientUnits="userSpaceOnUse" />
    <linearGradient
       inkscape:collect="always"
       xlink:href="#linearGradient4335"
       id="linearGradient4341"
       x1="-400.55325"
       y1="774.75574"
       x2="-400.55325"
       y2="804.75574"
       gradientUnits="userSpaceOnUse" />
    <linearGradient
       inkscape:collect="always"
       xlink:href="#linearGradient4335"
       id="linearGradient4349"
       x1="-460.37695"
       y1="746.578"
       x2="-460.08398"
       y2="806.578"
       gradientUnits="userSpaceOnUse" />
    <radialGradient
       inkscape:collect="always"
       xlink:href="#linearGradient4353"
       id="radialGradient4361"
       cx="-407"
       cy="766.36218"
       fx="-407"
       fy="766.36218"
       r="13"
       gradientTransform="matrix(1.1923077,0,0,1.7692308,578.19055,-500.55848)"
       gradientUnits="userSpaceOnUse" />
    <clipPath
       clipPathUnits="userSpaceOnUse"
       id="clipPath4365">
      <path
         id="path4367"
         d="m 74.856983,814.84648 a 3.4248318,3.4248318 0 0 0 0.06802,3.83526 3.4248318,3.4248318 0 0 0 3.988906,1.24172 l 2.332449,3.32142 -0.09036,0.13982 -0.644977,1.49111 0.570502,1.11487 0.967948,1.30354 1.249426,0.0629 0.772691,-0.0892 1.658983,2.3624 0.802731,3.81094 0.522312,2.48044 c -3.355437,14.54239 -12.347632,29.77796 -8.012814,40.9273 2.159944,5.28726 4.989784,10.65303 9.728666,14.42801 l 1.450246,-0.99693 2.100106,2.99057 -2.215346,1.55571 20.439827,29.10641 56.89416,-39.95363 -20.43983,-29.10641 -2.21375,1.5546 -2.10011,-2.99056 1.42842,-1.02461 c -1.94219,-5.73893 -6.02878,-10.22216 -10.26891,-14.04862 -9.02005,-7.86575 -26.41538,-4.57224 -41.237782,-6.35804 l -2.329301,-1.33559 -2.815018,-1.61263 -1.963162,-2.79555 0.09035,-0.13982 0.644985,-1.49111 -0.570502,-1.11488 -0.967942,-1.30353 -1.249426,-0.0629 -0.772697,0.0892 -2.33245,-3.32142 a 3.4248318,3.4248318 0 0 0 0.187168,-4.17197 3.4248318,3.4248318 0 0 0 -3.565563,-1.36956 2.677157,2.677157 0 0 1 2.478588,1.12335 2.677157,2.677157 0 0 1 -0.652016,3.72753 2.677157,2.677157 0 0 1 -3.729125,-0.65089 2.677157,2.677157 0 0 1 -0.205401,-2.72925 z"
         style="opacity:1;fill:url(#linearGradient4369);fill-opacity:1;fill-rule:evenodd;stroke:none;stroke-width:1px;stroke-linecap:butt;stroke-linejoin:miter;stroke-opacity:1"
         inkscape:connector-curvature="0" />
    </clipPath>
    <linearGradient
       inkscape:collect="always"
       xlink:href="#linearGradient4335"
       id="linearGradient4369"
       gradientUnits="userSpaceOnUse"
       x1="-400.55325"
       y1="774.75574"
       x2="-400.55325"
       y2="804.75574"
       gradientTransform="matrix(0.81836794,-0.57469463,0.57469463,0.81836794,0,0)" />
    <clipPath
       clipPathUnits="userSpaceOnUse"
       id="clipPath4371">
      <path
         id="path4373"
         d="m -407.02734,709.86414 a 3.4248318,3.4248318 0 0 0 -2.14844,3.17774 3.4248318,3.4248318 0 0 0 2.55078,3.30859 l 0,4.05859 -0.1543,0.0625 -1.38476,0.84961 -0.17383,1.24024 0.043,1.62305 0.98633,0.76953 0.68359,0.37109 0,2.88672 -1.5332,3.58008 -0.99805,2.33008 c -11.10342,9.97268 -27.21814,17.27321 -30.07813,28.88867 -1.27093,5.56823 -2.03876,11.5857 -0.33007,17.39843 l 1.75976,0.0176 0,3.6543 -2.70703,0 0,35.56641 69.52149,0 0,-35.56641 -2.70508,0 0,-3.6543 1.75781,-0.0176 c 1.7087,-5.81273 0.94086,-11.8302 -0.33008,-17.39843 -2.86132,-11.62085 -18.98986,-18.92255 -30.09375,-28.90235 l -1.13867,-2.43164 -1.37695,-2.9375 0,-3.41601 0.15429,-0.0625 1.38477,-0.84961 0.17383,-1.24024 -0.043,-1.62304 -0.98633,-0.76953 -0.68359,-0.3711 0,-4.05859 a 3.4248318,3.4248318 0 0 0 2.55078,-3.30664 3.4248318,3.4248318 0 0 0 -2.13086,-3.16992 2.677157,2.677157 0 0 1 1.38281,2.34375 2.677157,2.677157 0 0 1 -2.67578,2.67578 2.677157,2.677157 0 0 1 -2.67773,-2.67578 2.677157,2.677157 0 0 1 1.40039,-2.35157 z"
         style="opacity:1;fill:url(#linearGradient4375);fill-opacity:1;fill-rule:evenodd;stroke:none;stroke-width:1px;stroke-linecap:butt;stroke-linejoin:miter;stroke-opacity:1"
         inkscape:connector-curvature="0" />
    </clipPath>
    <linearGradient
       inkscape:collect="always"
       xlink:href="#linearGradient4335"
       id="linearGradient4375"
       gradientUnits="userSpaceOnUse"
       x1="-400.55325"
       y1="774.75574"
       x2="-400.55325"
       y2="804.75574" />
  </defs>
  <sodipodi:namedview
     id="base"
     pagecolor="#ffffff"
     bordercolor="#666666"
     borderopacity="1.0"
     inkscape:pageopacity="0.0"
     inkscape:pageshadow="2"
     inkscape:zoom="2.305172"
     inkscape:cx="161.66706"
     inkscape:cy="106.81427"
     inkscape:document-units="px"
     inkscape:current-layer="layer1"
     showgrid="false"
     units="px"
     borderlayer="true"
     inkscape:showpageshadow="false"
     inkscape:window-width="1440"
     inkscape:window-height="851"
     inkscape:window-x="0"
     inkscape:window-y="1"
     inkscape:window-maximized="1"
     inkscape:snap-global="false"
     showguides="false" />
  <metadata
     id="metadata7">
    <rdf:RDF>
      <cc:Work
         rdf:about="">
        <dc:format>image/svg+xml</dc:format>
        <dc:type
           rdf:resource="http://purl.org/dc/dcmitype/StillImage" />
        <dc:title />
      </cc:Work>
    </rdf:RDF>
  </metadata>
  <g
     inkscape:label="Layer 1"
     inkscape:groupmode="layer"
     id="layer1"
     transform="translate(0,-796.36219)">
    <g
       id="g4525"
       inkscape:export-filename="/Users/sheraz/Desktop/why_islam_logo"
       inkscape:export-xdpi="386.98001"
       inkscape:export-ydpi="386.98001">
      <rect
         y="802.37982"
         x="6.715342"
         height="243.96475"
         width="243.96475"
         id="rect4487"
         style="opacity:1;fill:#ffffff;fill-opacity:1;stroke:#fe852a;stroke-width:7.20956278;stroke-miterlimit:4;stroke-dasharray:none;stroke-opacity:1" />
      <g
         transform="matrix(0.89214176,0,0,0.89214176,679.26298,262.40475)"
         id="g4387">
        <g
           id="g4599"
           transform="translate(4.49986,-134.40022)">
          <path
             d="m -678.92104,933.33419 6.34763,-3.41129 6.61466,24.29127 5.62574,-24.29127 6.72755,2.72903 -9.21078,36.45661 c -1.04018,3.98463 -2.25617,6.76533 -3.64796,8.34213 -1.37713,1.59811 -2.12657,1.91474 -4.39738,1.91474 0,0 -4.31388,-5.88116 -4.38104,-6.18442 1.49675,-0.42756 3.19748,-0.87587 4.1196,-1.77116 0.61532,-0.61794 1.09146,-1.72597 1.42841,-3.32408 l 0.21976,-0.99082 z m -0.40603,11.34878 0,22.98257 -7.91122,0 0,-3.74056 0,-13.78281 q 0,-4.95372 -0.15383,-6.80715 -0.13185,-1.85344 -0.48346,-2.7296 -0.46149,-1.17946 -1.25261,-1.81973 -0.79112,-0.67398 -1.802,-0.67398 -2.46126,0 -3.8677,2.93179 -1.40644,2.8981 -1.40644,8.05402 l 0,18.56802 -7.86726,0 0,-52.43531 7.86726,0 0,20.21928 q 1.78002,-3.30248 3.7798,-4.85263 1.99978,-1.58383 4.41709,-1.58383 4.26327,0 6.46083,4.01014 2.21954,4.01015 2.21954,11.65978 z m -66.85179,-11.59653 6.12788,-4.6558 6.1314,26.9413 4.15339,-24.9413 6.57071,0 4.13141,24.66211 6.15338,-26.66211 6.50779,3.35218 -7.34308,35.73364 -8.59245,0 -4.15339,-26.87149 -4.13142,26.87149 -8.59245,0 z"
             style="font-style:normal;font-variant:normal;font-weight:bold;font-stretch:normal;font-size:medium;line-height:125%;font-family:sans-serif;-inkscape-font-specification:'sans-serif Bold';text-align:start;letter-spacing:-4.10195637px;word-spacing:0px;writing-mode:lr-tb;text-anchor:start;fill:#013c58;fill-opacity:1;stroke:none;stroke-width:1px;stroke-linecap:butt;stroke-linejoin:miter;stroke-opacity:1"
             id="path4427"
             inkscape:connector-curvature="0" />
          <g
             id="text4491"
             style="font-style:normal;font-variant:normal;font-weight:normal;font-stretch:normal;font-size:20.55597115px;line-height:125%;font-family:'Luxi Serif';-inkscape-font-specification:'Luxi Serif, Normal';text-align:start;letter-spacing:0px;word-spacing:0px;writing-mode:lr-tb;text-anchor:start;fill:#013c58;fill-opacity:1;stroke:none;stroke-width:1px;stroke-linecap:butt;stroke-linejoin:miter;stroke-opacity:1"
             transform="matrix(0.01036685,-0.99994626,0.99994626,0.01036685,-6.5819351,72.306847)">
            <path
               id="path4499"
               style="fill:#013c58;fill-opacity:1"
               d="m -886.60307,-513.51669 q 2.07768,0 3.29216,1.53567 1.22453,1.52564 1.22453,4.14532 0,2.65983 -1.22453,4.18547 -1.21448,1.52564 -3.35239,1.52564 -1.82675,0 -2.98101,-1.2446 -1.47546,-1.58586 -1.47546,-4.45647 0,-2.62972 1.21449,-4.15536 1.22453,-1.53567 3.30221,-1.53567 z m 0,0.67248 q -1.08401,0 -1.71635,1.35501 -0.63233,1.36504 -0.63233,3.71372 0,4.96837 2.39886,4.96837 0.90334,0 1.50557,-1.04386 0.80296,-1.39516 0.80296,-3.99477 0,-2.27842 -0.64237,-3.64346 -0.63234,-1.35501 -1.71634,-1.35501 z"
               inkscape:connector-curvature="0" />
            <path
               id="path4501"
               style="fill:#013c58;fill-opacity:1"
               d="m -881.15293,-502.37552 0,-0.6223 0.1907,-0.01 q 0.73271,-0.0401 0.8632,-0.26096 0.13048,-0.19071 0.14051,-0.71263 l 0.0201,-0.99368 0,-5.70107 -0.0201,-0.98363 q 0,-0.68252 -0.25092,-0.82304 -0.20074,-0.12045 -0.75279,-0.1606 l -0.1907,-0.01 0,-0.6223 3.1918,0 0,1.79664 q 1.09404,-2.03753 2.60964,-2.03753 0.31115,0 0.61226,0.1104 l 0,2.98102 -0.92341,0 -0.0201,-0.18067 -0.01,-0.0703 q 0,-0.0602 -0.01,-0.18066 0,-0.0703 -0.01,-0.17063 -0.0402,-0.77286 -0.56208,-0.77286 -0.82304,0 -1.68623,1.25464 l 0,5.57058 0.0201,0.99368 q 0.01,0.69256 0.25093,0.82304 0.22081,0.12044 0.76282,0.15055 l 0.18066,0.01 0,0.6223 -4.40628,0 z"
               inkscape:connector-curvature="0" />
            <path
               id="path4503"
               style="fill:#013c58;fill-opacity:1"
               d="m -872.04928,-502.79708 q -1.1342,-0.542 -1.1342,-1.40519 0,-0.84312 1.55575,-1.85686 l 0.26097,-0.17063 q -0.95353,-0.48178 -1.43531,-1.1342 -0.69256,-0.92341 -0.69256,-2.35871 0,-1.76653 0.95353,-2.78028 0.94348,-1.01374 2.53938,-1.01374 0.77286,0 1.78661,0.40148 l 3.52302,-0.28104 -0.5119,1.20445 -2.38882,-0.42156 q 1.28474,1.31486 1.28474,2.90072 0,1.62601 -1.02378,2.76021 -1.02378,1.14422 -2.47916,1.14422 -0.44163,0 -0.87323,-0.18066 -0.76282,0.6223 -0.76282,1.17434 0,0.48178 0.51189,0.60222 0.41152,0.10037 1.30483,0.10037 l 0.6223,0 q 1.96727,0 2.85053,0.59219 0.88326,0.59219 0.88326,1.87694 0,1.52564 -1.38511,2.49924 -1.37509,0.97359 -3.50295,0.97359 -1.77657,0 -2.86057,-0.65241 -1.08401,-0.65241 -1.08401,-1.71634 0,-1.3249 2.05761,-2.25835 z m 2.14793,-10.04713 q -1.60593,0 -1.60593,3.13157 0,3.22191 1.60593,3.22191 1.61598,0 1.61598,-3.16168 0,-3.1918 -1.61598,-3.1918 z m -1.62601,10.21776 q -0.6223,0.63234 -0.6223,1.69627 0,0.94349 0.65242,1.5156 0.66244,0.57212 1.67619,0.57212 1.09404,0 1.85686,-0.68252 0.76282,-0.67249 0.76282,-1.61598 0,-1.48549 -2.00742,-1.48549 l -2.31857,0 z"
               inkscape:connector-curvature="0" />
          </g>
          <circle
             r="4.4324803"
             cy="970.16223"
             cx="-522.36542"
             id="path4495"
             style="opacity:1;fill:#9e0000;fill-opacity:1;stroke:none;stroke-width:15;stroke-miterlimit:4;stroke-dasharray:none;stroke-opacity:1" />
          <path
             sodipodi:nodetypes="cscsssc"
             inkscape:connector-curvature="0"
             id="path4505"
             d="m -526.78585,964.2467 c 23.37687,-4.40022 31.6036,-17.95654 29.35286,-30.43028 -2.58257,-14.31277 -25.31229,-22.37348 -44.26423,-11.85467 -0.74066,0.60307 -0.73341,1.25023 0.25309,1.01626 14.98622,-3.55434 30.5978,-0.58828 34.32352,13.49684 4.37128,16.52567 -19.38034,26.77501 -19.82701,26.97688 -0.66314,0.2997 -0.62802,0.86414 0.16177,0.79497 z"
             style="opacity:1;fill:url(#linearGradient4549);fill-opacity:1;fill-rule:evenodd;stroke:none;stroke-width:1px;stroke-linecap:butt;stroke-linejoin:miter;stroke-opacity:1" />
          <g
             id="text4568"
             style="font-style:normal;font-variant:normal;font-weight:normal;font-stretch:normal;font-size:71.29974365px;line-height:125%;font-family:'Times New Roman';-inkscape-font-specification:'Times New Roman, Normal';text-align:start;letter-spacing:0px;word-spacing:0px;writing-mode:lr-tb;text-anchor:start;fill:#0084a2;fill-opacity:1;stroke:none;stroke-width:1px;stroke-linecap:butt;stroke-linejoin:miter;stroke-opacity:1"
             transform="scale(0.88817968,1.1258983)">
            <path
               d="m -696.27893,826.85429 0,10.86207 -1.14887,0 q -1.32294,-5.1177 -3.4118,-6.96286 -2.05405,-1.84516 -5.25697,-1.84516 -2.437,0 -3.93402,1.28813 -1.49701,1.28813 -1.49701,2.85477 0,1.94961 1.11406,3.34218 1.07924,1.42739 4.3866,3.02885 l 5.08289,2.47181 q 7.06731,3.44662 7.06731,9.08654 0,4.35179 -3.30736,7.0325 -3.27255,2.64589 -7.34582,2.64589 -2.92441,0 -6.68435,-1.04443 -1.14888,-0.34815 -1.87998,-0.34815 -0.80073,0 -1.25331,0.90517 l -1.14888,0 0,-11.38428 1.14888,0 q 0.9748,4.87401 3.72513,7.34582 2.75033,2.47182 6.16214,2.47182 2.40218,0 3.8992,-1.39257 1.53183,-1.42739 1.53183,-3.41181 0,-2.40219 -1.7059,-4.03846 -1.67109,-1.63627 -6.71917,-4.1429 -5.04807,-2.50664 -6.61472,-4.52587 -1.56664,-1.98441 -1.56664,-5.01326 0,-3.93402 2.6807,-6.57991 2.71552,-2.64589 6.99768,-2.64589 1.87997,0 4.56068,0.80073 1.77553,0.52222 2.36737,0.52222 0.55703,0 0.87036,-0.2437 0.31333,-0.2437 0.7311,-1.07925 l 1.14887,0 z m -31.08041,-3.40143 -7.13524,-5.70086 6.79028,-5.28882 7.13524,5.70085 -6.79028,5.28883 z m -7.02639,36.46273 0,-1.84552 0.64497,-0.0298 q 3.66612,-0.20836 3.86981,-0.71439 0.37339,-0.56557 0.37339,-2.17296 l 0.0679,-2.94689 0,-16.9074 -0.0679,-2.91712 q -0.034,-2.20273 -0.7468,-2.44086 -0.67891,-0.32743 -3.4964,-0.47627 l -0.64497,-0.0298 0,-1.84554 11.64335,0 0,24.61695 0.0679,2.94689 q 0.034,2.20272 0.74681,2.44086 0.71285,0.29766 3.49638,0.44649 l 0.64497,0.0298 0,1.84553 -16.5994,0 z m 39.91871,0 0,-1.84552 0.64497,-0.0298 q 3.66611,-0.20836 3.8698,-0.71439 0.37339,-0.56557 0.37339,-2.17296 l 0.0679,-2.94689 0,-31.58232 -0.0679,-2.94688 q -0.034,-2.20273 -0.7468,-2.44086 -0.71286,-0.29766 -3.49639,-0.44649 l -0.64497,-0.0298 0,-1.84552 11.64334,0 0,39.29185 0.0679,2.94688 q 0.034,2.20273 0.74681,2.44086 0.71285,0.29767 3.4964,0.4465 l 0.64496,0.0298 0,1.84553 -16.5994,0 z m 30.54986,-33.04036 c -3.80191,0 -7.37753,0.90207 -10.72683,2.70791 l 0,5.17989 4.61794,0 0,-0.53602 c 0,-1.88523 0.38285,-3.20456 1.15229,-3.95865 0.76944,-0.75408 2.10567,-1.13104 4.00662,-1.13104 1.96885,0 3.2467,0.47515 3.8351,1.42768 0.58839,0.91283 0.88399,2.98783 0.88399,6.22246 l 0,4.01763 -1.39198,0 c -10.59101,0 -15.88791,3.66171 -15.88791,10.98429 0,2.71867 0.82628,4.88221 2.47829,6.4896 1.65202,1.58756 3.87071,2.38004 6.65423,2.38004 3.82454,0 7.04837,-1.72523 9.6735,-5.17815 0.88258,3.45292 2.72876,5.17815 5.53493,5.17815 0.81469,0 2.07999,-0.24808 3.79991,-0.74419 l -0.20231,-2.20137 c -0.79206,0.1786 -1.36854,0.26715 -1.73063,0.26715 -0.90521,0 -1.50681,-0.44621 -1.801,-1.33921 -0.2942,-0.91284 -0.4398,-2.80727 -0.4398,-5.68469 l 0,-14.40864 c -10e-6,-3.51245 -0.80337,-6.00298 -2.41013,-7.47147 -1.60676,-1.46848 -4.28957,-2.20137 -8.04621,-2.20137 z m 2.20781,15.7756 1.5613,0 0,12.17431 c -1.83306,1.54786 -3.56469,2.3228 -5.19408,2.3228 -3.23614,0 -4.85544,-2.17318 -4.85544,-6.5191 0,-5.31829 2.83062,-7.97801 8.48822,-7.97801 z m 12.87529,17.26476 0,-1.84552 0.64496,-0.0298 q 2.47802,-0.11907 2.91932,-0.77392 0.44129,-0.56557 0.47523,-2.11343 l 0.0679,-2.94689 0,-16.9074 -0.0679,-2.91712 q 0,-2.02413 -0.84863,-2.44086 -0.67891,-0.3572 -2.54592,-0.47627 l -0.64496,-0.0298 0,-1.84554 10.79468,0 0,5.32822 q 2.20648,-2.73852 4.24321,-4.07801 2.91932,-1.9646 6.34783,-1.9646 3.29272,0 5.39735,1.6074 1.83305,1.39902 2.81748,4.52451 2.13857,-2.76829 4.20925,-4.13755 2.95328,-1.99436 6.5515,-1.99436 4.41293,0 6.21203,2.29202 1.83308,2.29203 1.83308,7.97744 l 0,15.06188 0.0679,2.94689 q 0.034,2.05389 0.84865,2.44086 0.74679,0.35719 2.57987,0.44649 l 0.61101,0.0298 0,1.84553 -14.90212,0 0,-1.84553 0.64497,-0.0298 q 2.47803,-0.11907 2.95327,-0.77393 0.40735,-0.59533 0.44129,-2.11342 l 0.0679,-2.94689 0,-14.13912 -0.0679,-2.29201 q -0.0679,-2.47063 -0.8147,-3.63152 -0.95047,-1.4288 -3.02114,-1.4288 -4.07348,0 -8.21484,4.19708 l 0,17.29437 0.0679,2.94689 q 0,2.05389 0.84865,2.44086 0.74681,0.35719 2.57986,0.44649 l 0.61101,0.0298 0,1.84553 -14.9021,0 0,-1.84553 0.64497,-0.0298 q 2.47802,-0.14883 2.91932,-0.77393 0.44129,-0.59533 0.47523,-2.11342 l 0.0679,-2.94689 0,-14.13912 -0.0679,-2.29201 q -0.0679,-2.5004 -0.84863,-3.66129 -0.91655,-1.39903 -2.95327,-1.39903 -4.10743,0 -8.24878,4.19708 l 0,17.29437 0.0679,2.94689 q 0.034,2.05389 0.84862,2.44086 0.74681,0.35719 2.57987,0.44649 l 0.61103,0.0298 0,1.84553 -14.90212,0 z"
               id="path4596"
               inkscape:connector-curvature="0" />
          </g>
        </g>
        <g
           id="g4381"
           transform="translate(-230.10005,-10.50018)">
          <path
             id="path4333"
             d="m -461.26172,649.50867 a 2.7713884,2.7713884 0 0 0 -1.74023,2.57032 2.7713884,2.7713884 0 0 0 1.86523,2.61523 l 0,4.27344 -1.58398,0.52734 0,1.66016 1.29687,0.43164 0,4.11133 a 6.03125,7.5625 0 0 0 -4.83789,7.41211 6.03125,7.5625 0 0 0 1.57227,5.07812 l 1.27734,3.53711 0,4.09961 -1.04297,2.88672 a 7.9567914,8.7085791 0 0 0 -3.46875,5.17773 l -2.38281,0 0,4.41993 0.22656,0 2.7793,4.81445 0,13.28125 -6.83203,0 0,7.18555 1.40625,0 3.49609,6.05664 0,17.58203 -7.14648,0 0,7.21875 0.82031,0 4.49805,7.79297 0,57.40625 21.65625,0 0,-57.40625 4.49804,-7.79297 0.82032,0 0,-7.21875 -7.14649,0 0,-17.58203 3.49609,-6.05664 1.40626,0 0,-7.18555 -6.83204,0 0,-13.41406 2.70313,-4.68164 0.30273,0 0,-4.41993 -2.3789,0 a 7.9567914,8.7085791 0 0 0 -3.5,-5.19726 l -1.01563,-2.8125 0,-4.20703 1.23633,-3.42383 a 6.03125,7.5625 0 0 0 1.61328,-5.13867 6.03125,7.5625 0 0 0 -4.83789,-7.40625 l 0,-4.11719 1.29688,-0.43164 0,-1.66016 -1.58399,-0.52734 0,-4.27344 a 2.7713884,2.7713884 0 0 0 1.86524,-2.61523 2.7713884,2.7713884 0 0 0 -1.72461,-2.56446 2.1663667,2.1663667 0 0 1 1.11914,1.89649 2.1663667,2.1663667 0 0 1 -2.16602,2.16601 2.1663667,2.1663667 0 0 1 -2.16601,-2.16601 2.1663667,2.1663667 0 0 1 1.13476,-1.90235 z"
             style="opacity:1;fill:url(#linearGradient4349);fill-opacity:1;fill-rule:evenodd;stroke:none;stroke-width:1px;stroke-linecap:butt;stroke-linejoin:miter;stroke-opacity:1"
             inkscape:connector-curvature="0" />
          <g
             id="g4377">
            <path
               style="opacity:1;fill:url(#linearGradient4341);fill-opacity:1;fill-rule:evenodd;stroke:none;stroke-width:1px;stroke-linecap:butt;stroke-linejoin:miter;stroke-opacity:1"
               d="m -407.02734,709.86414 a 3.4248318,3.4248318 0 0 0 -2.14844,3.17774 3.4248318,3.4248318 0 0 0 2.55078,3.30859 l 0,4.05859 -0.1543,0.0625 -1.38476,0.84961 -0.17383,1.24024 0.043,1.62305 0.98633,0.76953 0.68359,0.37109 0,2.88672 -1.5332,3.58008 -0.99805,2.33008 c -11.10342,9.97268 -27.21814,17.27321 -30.07813,28.88867 -1.27093,5.56823 -2.03876,11.5857 -0.33007,17.39843 l 1.75976,0.0176 0,3.6543 -2.70703,0 0,35.56641 69.52149,0 0,-35.56641 -2.70508,0 0,-3.6543 1.75781,-0.0176 c 1.7087,-5.81273 0.94086,-11.8302 -0.33008,-17.39843 -2.86132,-11.62085 -18.98986,-18.92255 -30.09375,-28.90235 l -1.13867,-2.43164 -1.37695,-2.9375 0,-3.41601 0.15429,-0.0625 1.38477,-0.84961 0.17383,-1.24024 -0.043,-1.62304 -0.98633,-0.76953 -0.68359,-0.3711 0,-4.05859 a 3.4248318,3.4248318 0 0 0 2.55078,-3.30664 3.4248318,3.4248318 0 0 0 -2.13086,-3.16992 2.677157,2.677157 0 0 1 1.38281,2.34375 2.677157,2.677157 0 0 1 -2.67578,2.67578 2.677157,2.677157 0 0 1 -2.67773,-2.67578 2.677157,2.677157 0 0 1 1.40039,-2.35157 z"
               id="path4321"
               clip-path="url(#clipPath4371)"
               inkscape:connector-curvature="0" />
            <ellipse
               style="opacity:0.55800003;fill:url(#radialGradient4361);fill-opacity:1;stroke:none;stroke-width:15;stroke-miterlimit:4;stroke-dasharray:none;stroke-opacity:1"
               id="path4351"
               cx="92.921326"
               cy="855.31305"
               rx="15.5"
               ry="23"
               transform="matrix(0.81836794,0.57469463,-0.57469463,0.81836794,0,0)"
               clip-path="url(#clipPath4365)" />
          </g>
        </g>
      </g>
    </g>
  </g>
</svg>
