<?xml version="1.0" encoding="UTF-8" standalone="no"?>
<!-- Created with Inkscape (http://www.inkscape.org/) -->

<svg
   xmlns:dc="http://purl.org/dc/elements/1.1/"
   xmlns:cc="http://creativecommons.org/ns#"
   xmlns:rdf="http://www.w3.org/1999/02/22-rdf-syntax-ns#"
   xmlns:svg="http://www.w3.org/2000/svg"
   xmlns="http://www.w3.org/2000/svg"
   xmlns:xlink="http://www.w3.org/1999/xlink"
   xmlns:sodipodi="http://sodipodi.sourceforge.net/DTD/sodipodi-0.dtd"
   xmlns:inkscape="http://www.inkscape.org/namespaces/inkscape"
   width="512"
   height="256"
   viewBox="0 0 512.00001 256"
   id="svg2"
   version="1.1"
   inkscape:version="0.91 r13725"
   sodipodi:docname="ym_brothers.svg"
   inkscape:export-filename="/Users/sheraz/Desktop/YM.png"
   inkscape:export-xdpi="386.98001"
   inkscape:export-ydpi="386.98001">
  <defs
     id="defs4">
    <linearGradient
       inkscape:collect="always"
       id="linearGradient4150">
      <stop
         style="stop-color:#000000;stop-opacity:1"
         offset="0"
         id="stop4152" />
      <stop
         style="stop-color:#ffffff;stop-opacity:1"
         offset="1"
         id="stop4154" />
    </linearGradient>
    <linearGradient
       inkscape:collect="always"
       xlink:href="#linearGradient4150"
       id="linearGradient4223"
       gradientUnits="userSpaceOnUse"
       gradientTransform="matrix(1.0088496,0,0,1,-919.55573,-1817.2961)"
       x1="461.80621"
       y1="901.6217"
       x2="461.80621"
       y2="956.51562" />
    <mask
       maskUnits="userSpaceOnUse"
       id="mask4219">
      <rect
         style="opacity:1;fill:url(#linearGradient4223);fill-opacity:1;stroke:none;stroke-width:8;stroke-miterlimit:4;stroke-dasharray:none;stroke-opacity:1"
         id="rect4221"
         width="297.9957"
         height="38.338631"
         x="-606.61627"
         y="-927.87317"
         transform="scale(-1,1)" />
    </mask>
  </defs>
  <sodipodi:namedview
     id="base"
     pagecolor="#ffffff"
     bordercolor="#666666"
     borderopacity="1.0"
     inkscape:pageopacity="0.0"
     inkscape:pageshadow="2"
     inkscape:zoom="1.0754176"
     inkscape:cx="418.06562"
     inkscape:cy="128"
     inkscape:document-units="px"
     inkscape:current-layer="layer1"
     showgrid="false"
     units="px"
     borderlayer="true"
     inkscape:showpageshadow="false"
     inkscape:window-width="1440"
     inkscape:window-height="851"
     inkscape:window-x="0"
     inkscape:window-y="1"
     inkscape:window-maximized="1" />
  <metadata
     id="metadata7">
    <rdf:RDF>
      <cc:Work
         rdf:about="">
        <dc:format>image/svg+xml</dc:format>
        <dc:type
           rdf:resource="http://purl.org/dc/dcmitype/StillImage" />
        <dc:title />
      </cc:Work>
    </rdf:RDF>
  </metadata>
  <g
     inkscape:label="Layer 1"
     inkscape:groupmode="layer"
     id="layer1"
     transform="translate(0,-796.36219)">
    <g
       id="g6362"
       inkscape:export-filename="/Users/sheraz/Desktop/ym_brother_ref.png"
       inkscape:export-xdpi="71.708221"
       inkscape:export-ydpi="71.708221">
      <circle
         r="125"
         cy="924.36218"
         cx="128.15062"
         id="path6360"
         style="opacity:1;fill:#ffffff;fill-opacity:1;stroke:none;stroke-width:8;stroke-miterlimit:4;stroke-dasharray:none;stroke-opacity:1" />
      <g
         id="g4366">
        <circle
           style="opacity:0.34200003;fill:#ffffff;fill-opacity:1;stroke:none;stroke-width:8;stroke-miterlimit:4;stroke-dasharray:none;stroke-opacity:1"
           id="path4354"
           cx="128.1506"
           cy="924.36218"
           r="125.49196" />
        <path
           style="opacity:1;fill:#1a0079;fill-opacity:1;stroke:none;stroke-width:8;stroke-miterlimit:4;stroke-dasharray:none;stroke-opacity:1"
           d="m 50.743737,840.64642 c 0,0 1.391885,5.08842 2.023409,7.62056 3.552976,14.41527 10.816451,32.43335 18.158507,45.04733 4.21175,7.23586 12.972881,19.36672 16.266567,22.52249 2.804745,2.68726 2.700169,4.01755 -0.515891,6.5979 -6.188905,4.96524 -13.052838,7.20984 -25.460228,8.32761 -3.897422,0.35114 -7.304349,0.86057 -7.571288,1.13097 -0.26694,0.27047 -0.453744,3.49194 -0.415498,7.1593 0.0502,4.77712 0.33327,6.83229 0.999095,7.24917 0.51117,0.32 2.80851,0.78613 5.105073,1.03526 5.913121,0.6415 15.262511,-1.1627 25.490584,-4.91837 4.702543,-1.72677 8.675379,-3.13963 8.829495,-3.13963 0.154116,1.1e-4 0.486072,15.61128 0.737654,34.69119 0.251581,19.07992 0.535492,34.7678 0.630209,34.8628 0.09484,0.095 3.815553,0.3997 8.268125,0.6769 l 8.09537,0.5042 0.17856,-36.53177 c 0.13541,-27.69822 0.37862,-36.5997 1.00722,-36.81191 1.03901,-0.35072 6.07536,6.52334 11.06343,15.10059 4.32081,7.4299 9.02215,17.80163 15.27685,33.70379 4.06654,10.33892 5.1343,11.42523 5.1343,11.42523 l 9.13527,-0.20075 2.0962,-6.28277 c 0.0179,-0.0528 0.0365,-0.1026 0.055,-0.15523 l -27.14206,-65.95447 -1.30488,-2.95796 c -0.16918,-0.23524 -0.13817,-0.98405 -0.13817,-0.98405 l -6.22282,-14.57852 -9.92311,-24.22051 c -0.17389,0.48992 -0.35562,0.97677 -0.52521,1.46828 0,0 -2.29925,7.35692 -5.27437,12.3181 -1.35686,2.26268 -2.88978,4.1142 -3.40573,4.1142 -2.356798,0 -11.678521,-14.40784 -16.355307,-25.27813 -1.704181,-3.96064 -5.056191,-12.85778 -7.448725,-19.77269 -2.392534,-6.91484 -4.374949,-12.6248 -4.406023,-12.68809 z"
           id="circle4245"
           inkscape:connector-curvature="0"
           sodipodi:nodetypes="ccsscscccsscscccscssccccccccccsscscc" />
        <path
           style="opacity:1;fill:#1a0079;fill-opacity:1;stroke:none;stroke-width:8;stroke-miterlimit:4;stroke-dasharray:none;stroke-opacity:1"
           d="m 125.68969,798.87787 c -15.55228,0.30511 -30.912317,3.49902 -45.297102,9.4189 -64.092151,26.37603 -94.667133,99.715 -68.291113,163.80716 26.37602,64.09217 99.715015,94.66717 163.807165,68.29107 64.09215,-26.376 94.66714,-99.71495 68.29111,-163.80712 -19.69763,-47.86431 -66.76106,-78.72498 -118.51006,-77.71001 z m -40.748736,20.47064 25.634126,62.28963 c 0.79884,-2.25341 1.62918,-4.49535 2.46854,-6.73446 1.55055,-4.6545 4.23171,-13.80572 5.9583,-20.33642 1.72659,-6.5307 3.46173,-14.0805 3.46173,-14.0805 l 19.53461,0.6326 -0.37002,3.58081 c -1.77332,17.16907 -8.54463,38.45402 -17.47571,54.93075 -1.01917,1.87498 -2.26967,3.9869 -3.6205,6.20457 l 6.08479,15.39587 c 1.61628,2.23168 6.04897,8.32573 10.94393,15.66432 6.03061,9.0411 11.21008,16.28417 11.51042,16.09617 0.30029,-0.188 3.55925,-5.28046 7.2422,-11.31669 11.32039,-18.55368 16.13146,-25.32685 22.81892,-32.12463 l 6.37732,-6.48118 0.006,0 8.79681,0.19491 8.7968,0.19608 0,53.08315 0,53.08431 -10.17052,0.1937 -10.17053,0.1926 -0.007,-31.27492 c -0.006,-30.60887 -0.39709,-42.80056 -1.37957,-42.80056 -0.79066,0 -5.36831,7.33011 -9.33141,14.94186 -2.02179,3.88331 -6.50598,13.95613 -9.96507,22.38476 -2.13253,5.19883 -4.55512,10.61631 -6.77884,17.0684 l 16.05413,39.00966 C 113.37176,1053.2076 47.016984,1025.5442 23.153194,967.55555 5.1827451,923.8212 16.196577,873.52819 50.800627,841.30727 l 0.406295,-0.37651 0.425896,-0.34012 c 9.776122,-8.97268 21.049424,-16.16219 33.308136,-21.24213 z"
           id="path4332"
           inkscape:connector-curvature="0"
           sodipodi:nodetypes="sssssscccsccccccscsccccccccccsccccccccc" />
        <path
           id="path4334"
           d="m 14.864271,970.96634 a 122.50406,122.50406 0 0 1 -3.492083,-9.86265 122.50406,122.50406 0 0 0 3.492083,9.86265 z m 4.461717,9.46488 a 122.50406,122.50406 0 0 0 2.981928,5.3169 122.50406,122.50406 0 0 1 -2.981928,-5.3169 z M 9.7480829,955.22797 a 122.50406,122.50406 0 0 1 -1.4611448,-5.95796 122.50406,122.50406 0 0 0 1.4611448,5.95796 z m 15.7154781,35.78074 a 122.50406,122.50406 0 0 0 3.514313,5.01581 122.50406,122.50406 0 0 1 -3.514313,-5.01581 z M 7.2527051,943.22985 a 122.50406,122.50406 0 0 1 -0.8551381,-6.04958 122.50406,122.50406 0 0 0 0.8551381,6.04958 z m 25.3801519,57.69835 a 122.50406,122.50406 0 0 0 3.987118,4.6281 122.50406,122.50406 0 0 1 -3.987118,-4.6281 z M 5.9724481,931.08374 a 122.50406,122.50406 0 0 1 -0.2479961,-6.1353 122.50406,122.50406 0 0 0 0.2479961,6.1353 z m 34.7868499,79.00146 a 122.50406,122.50406 0 0 0 4.425982,4.204 122.50406,122.50406 0 0 1 -4.425982,-4.204 z M 5.9097618,918.85694 a 122.50406,122.50406 0 0 1 0.366078,-6.12432 122.50406,122.50406 0 0 0 -0.366078,6.12432 z m 43.8407362,99.52076 a 122.50406,122.50406 0 0 0 4.83407,3.7482 122.50406,122.50406 0 0 1 -4.83407,-3.7482 z M 7.0694271,906.67479 a 122.50406,122.50406 0 0 1 0.9744152,-6.05398 122.50406,122.50406 0 0 0 -0.9744152,6.05398 z M 59.530864,1025.7359 a 122.50406,122.50406 0 0 0 5.184371,3.2468 122.50406,122.50406 0 0 1 -5.184371,-3.2468 z M 9.4405678,894.66683 a 122.50406,122.50406 0 0 1 1.5699042,-5.91031 122.50406,122.50406 0 0 0 -1.5699042,5.91031 z M 69.992411,1032.0779 a 122.50406,122.50406 0 0 0 5.490214,2.7171 122.50406,122.50406 0 0 1 -5.490214,-2.7171 z M 13.001253,882.95186 a 122.50406,122.50406 0 0 1 2.149677,-5.716 122.50406,122.50406 0 0 0 -2.149677,5.716 z m 68.03971,154.39474 a 122.50406,122.50406 0 0 0 5.724704,2.1524 122.50406,122.50406 0 0 1 -5.724704,-2.1524 z M 17.698238,871.6856 a 122.50406,122.50406 0 0 1 2.72204,-5.49979 122.50406,122.50406 0 0 0 -2.72204,5.49979 z m 74.860317,169.8002 a 122.50406,122.50406 0 0 0 5.912942,1.5701 122.50406,122.50406 0 0 1 -5.912942,-1.5701 z M 23.513714,860.91065 a 122.50406,122.50406 0 0 1 3.246238,-5.1829 122.50406,122.50406 0 0 0 -3.246238,5.1829 z m 80.911656,183.54195 a 122.50406,122.50406 0 0 0 6.05403,0.9744 122.50406,122.50406 0 0 1 -6.05403,-0.9744 z M 30.374539,850.77445 a 122.50406,122.50406 0 0 1 3.744621,-4.82753 122.50406,122.50406 0 0 0 -3.744621,4.82753 z m 86.164271,195.44675 a 122.50406,122.50406 0 0 0 6.09981,0.3649 122.50406,122.50406 0 0 1 -6.09981,-0.3649 z M 38.211811,841.37622 a 122.50406,122.50406 0 0 1 4.196631,-4.41912 122.50406,122.50406 0 0 0 -4.196631,4.41912 z m 90.553869,205.39568 a 122.50406,122.50406 0 0 0 6.10906,-0.2473 122.50406,122.50406 0 0 1 -6.10906,0.2473 z M 46.941211,832.8149 a 122.50406,122.50406 0 0 1 4.629817,-3.98912 122.50406,122.50406 0 0 0 -4.629817,3.98912 z m 94.043679,213.284 a 122.50406,122.50406 0 0 0 6.05325,-0.8554 122.50406,122.50406 0 0 1 -6.05325,0.8554 z M 56.473043,825.17282 a 122.50406,122.50406 0 0 1 5.012567,-3.51296 122.50406,122.50406 0 0 0 -5.012567,3.51296 z m 96.600547,219.03708 a 122.50406,122.50406 0 0 0 5.93762,-1.4552 122.50406,122.50406 0 0 1 -5.93762,1.4552 z M 66.752209,818.50045 a 122.50406,122.50406 0 0 1 5.313031,-2.9791 122.50406,122.50406 0 0 0 -5.313031,2.9791 z m 98.168831,222.62105 a 122.50406,122.50406 0 0 0 9.84993,-3.4893 122.50406,122.50406 0 0 1 -9.84993,3.4893 z m 9.84993,-3.4893 A 122.50406,122.50406 0 0 0 241.43684,877.72549 122.50406,122.50406 0 0 0 81.530083,811.05964 l 3.411289,8.28923 A 113.54035,113.54035 0 0 1 233.14762,881.13674 113.54035,113.54035 0 0 1 171.35974,1029.343 l 3.41123,8.2892 z"
           style="opacity:1;fill:#ffffff;fill-opacity:1;stroke:none;stroke-width:8;stroke-miterlimit:4;stroke-dasharray:none;stroke-opacity:1"
           inkscape:connector-curvature="0" />
      </g>
    </g>
    <g
       id="g4235"
       transform="matrix(0.96080392,0,0,0.96080392,9.5491744,23.271798)"
       inkscape:export-filename="/Users/sheraz/Desktop/ym_brother_ref.png"
       inkscape:export-xdpi="71.708221"
       inkscape:export-ydpi="71.708221">
      <text
         sodipodi:linespacing="125%"
         id="text4140"
         y="943.79541"
         x="271.04388"
         style="font-style:normal;font-weight:normal;font-size:70.44117737px;line-height:125%;font-family:sans-serif;letter-spacing:0px;word-spacing:0px;fill:#1a0079;fill-opacity:1;stroke:none;stroke-width:1px;stroke-linecap:butt;stroke-linejoin:miter;stroke-opacity:1"
         xml:space="preserve"><tspan
           y="943.79541"
           x="271.04388"
           id="tspan4142"
           sodipodi:role="line">Young Muslims</tspan></text>
      <text
         mask="url(#mask4219)"
         transform="matrix(1.7610294,0,0,-1.7610294,-276.75198,-606.43246)"
         xml:space="preserve"
         style="font-style:normal;font-weight:normal;font-size:40px;line-height:125%;font-family:sans-serif;letter-spacing:0px;word-spacing:0px;fill:#1a0079;fill-opacity:1;stroke:none;stroke-width:1px;stroke-linecap:butt;stroke-linejoin:miter;stroke-opacity:1"
         x="311.0657"
         y="-897.6687"
         id="text4144"
         sodipodi:linespacing="125%"><tspan
           sodipodi:role="line"
           id="tspan4146"
           x="311.0657"
           y="-897.6687">Young Muslims</tspan></text>
    </g>
  </g>
</svg>
