<?xml version="1.0" encoding="UTF-8" standalone="no"?>
<!-- Created with Inkscape (http://www.inkscape.org/) -->

<svg
   xmlns:dc="http://purl.org/dc/elements/1.1/"
   xmlns:cc="http://creativecommons.org/ns#"
   xmlns:rdf="http://www.w3.org/1999/02/22-rdf-syntax-ns#"
   xmlns:svg="http://www.w3.org/2000/svg"
   xmlns="http://www.w3.org/2000/svg"
   xmlns:sodipodi="http://sodipodi.sourceforge.net/DTD/sodipodi-0.dtd"
   xmlns:inkscape="http://www.inkscape.org/namespaces/inkscape"
   width="297mm"
   height="210mm"
   viewBox="0 0 1052.3622 744.09448"
   id="svg2"
   version="1.1"
   inkscape:version="0.91 r13725"
   sodipodi:docname="drawing1.svg"
   inkscape:export-filename="C:\Users\SherazD\Dropbox\sagheer logo\drawing1.png"
   inkscape:export-xdpi="90"
   inkscape:export-ydpi="90">
  <defs
     id="defs4" />
  <sodipodi:namedview
     id="base"
     pagecolor="#ffffff"
     bordercolor="#666666"
     borderopacity="1.0"
     inkscape:pageopacity="0.0"
     inkscape:pageshadow="2"
     inkscape:zoom="6.2795272"
     inkscape:cx="528.67527"
     inkscape:cy="779.9889"
     inkscape:document-units="px"
     inkscape:current-layer="layer2"
     showgrid="false"
     inkscape:window-width="1920"
     inkscape:window-height="1019"
     inkscape:window-x="-9"
     inkscape:window-y="-9"
     inkscape:window-maximized="1"
     inkscape:snap-bbox="true"
     inkscape:bbox-paths="true"
     inkscape:bbox-nodes="true"
     inkscape:snap-bbox-edge-midpoints="true"
     inkscape:snap-bbox-midpoints="false"
     inkscape:snap-page="true" />
  <metadata
     id="metadata7">
    <rdf:RDF>
      <cc:Work
         rdf:about="">
        <dc:format>image/svg+xml</dc:format>
        <dc:type
           rdf:resource="http://purl.org/dc/dcmitype/StillImage" />
        <dc:title />
      </cc:Work>
    </rdf:RDF>
  </metadata>
  <g
     inkscape:groupmode="layer"
     id="layer2"
     inkscape:label="Layer 2">
    <rect
       style="opacity:1;fill:#ffffff;fill-opacity:1;stroke:none;stroke-width:1.70000005;stroke-linecap:round;stroke-linejoin:round;stroke-miterlimit:4;stroke-dasharray:none;stroke-opacity:1"
       id="rect4142"
       width="1052.3622"
       height="744.09448"
       x="8.5931262e-014"
       y="-2.6867397e-014" />
  </g>
  <g
     inkscape:label="Layer 1"
     inkscape:groupmode="layer"
     id="layer1"
     transform="translate(0,-308.26772)">
    <path
       style="opacity:1;fill:#3087ba;fill-opacity:1;stroke:#000d48;stroke-width:1.7;stroke-linecap:round;stroke-linejoin:round;stroke-miterlimit:4;stroke-dasharray:none;stroke-opacity:1"
       inkscape:transform-center-x="0.065515112"
       inkscape:transform-center-y="-12.945894"
       d="m 245.42617,462.9899 -90.86527,-0.22499 c -11.84531,-36.6451 32.4527,-46.1244 45.62917,-77.90053 10.72987,30.68928 58.04377,43.36975 45.2361,78.12552 z"
       id="path4140"
       inkscape:connector-curvature="0"
       sodipodi:nodetypes="cccc" />
    <path
       style="fill:#3087ba;fill-opacity:1;stroke:#000d48;stroke-width:1.70000005;stroke-linecap:round;stroke-linejoin:miter;stroke-miterlimit:8.89999962;stroke-dasharray:none;stroke-opacity:1"
       d="m 195.8209,330.46951 a 22.381098,22.381098 0 0 0 -15.30548,21.20359 22.381098,22.381098 0 0 0 22.38128,22.38128 22.381098,22.381098 0 0 0 17.56917,-8.55672 21.576986,21.576986 0 0 1 -10.33206,2.66037 21.576986,21.576986 0 0 1 -21.57734,-21.57735 21.576986,21.576986 0 0 1 7.26443,-16.11117 z"
       id="path8068"
       inkscape:connector-curvature="0" />
    <path
       sodipodi:type="star"
       style="fill:#3087ba;fill-opacity:1;stroke:#000d48;stroke-width:1.70000005;stroke-linecap:round;stroke-linejoin:miter;stroke-miterlimit:8.89999962;stroke-dasharray:none;stroke-opacity:1"
       id="path8075"
       sodipodi:sides="5"
       sodipodi:cx="214.04767"
       sodipodi:cy="343.39246"
       sodipodi:r1="11.046911"
       sodipodi:r2="5.5234556"
       sodipodi:arg1="0.93804749"
       sodipodi:arg2="1.566366"
       inkscape:flatsided="false"
       inkscape:rounded="0"
       inkscape:randomized="0"
       d="m 220.58041,352.30074 -6.50827,-3.38488 -6.47803,3.44241 1.20805,-7.23572 -5.27575,-5.0972 7.25489,-1.08704 3.21743,-6.59266 3.27572,6.5639 7.26423,1.02271 -5.23038,5.14375 z"
       inkscape:transform-center-x="0.015123606"
       inkscape:transform-center-y="-1.0404923" />
    <path
       id="path8103"
       style="fill:#3087ba;fill-opacity:1;fill-rule:evenodd;stroke:#000000;stroke-width:1px;stroke-linecap:butt;stroke-linejoin:miter;stroke-opacity:1"
       d="m 933.17265,778.08709 c 0.093,0.0621 -0.1193,0.21489 -0.1514,0.22798 -0.5641,0.2303 -0.9581,-0.54048 -0.9791,-0.97851 -0.074,-1.55238 1.7498,-2.30359 3.0454,-2.13382 3.0566,0.40055 4.3283,3.93048 3.6912,6.60611 -1.2215,5.12961 -7.2093,7.09697 -11.8379,5.66508 -7.8164,-2.41808 -10.6632,-11.68612 -8.0712,-18.88237 4.0178,-11.15512 17.4451,-15.07318 27.8601,-10.92537 15.1789,6.04503 20.3679,24.55937 14.2424,38.87649 -8.5216,19.9173 -33.0941,26.58434 -52.026,18.0365 -25.3974,-11.46706 -33.7564,-43.10836 -22.3212,-67.39433 14.8997,-31.64408 54.6564,-41.91551 85.0607,-27.10947 38.68045,18.8363 51.09085,67.78844 32.41325,105.09846 -23.29225,46.52832 -60.40017,78.13264 -114.06573,90.13621 -101.19336,22.63428 -207.3041,-46.55055 -308.99116,-39.36721 -159.11813,11.24036 -325.07794,94.63812 -447.6821,-9.32519 0,0 17.47981,-29.87191 21.07295,-46.50815 24.3921,-112.93537 0,-346.61844 0,-346.61844 l 91.12135,0 c 0,0 -65.95591,251.75438 0,346.61844 48.59427,69.89291 240.1889,30.46246 363.09337,12.98139 92.06375,-13.0945 253.60126,30.5009 286.60835,28.65548 38.64201,-2.16047 66.35422,-26.56831 78.30582,-56.84624 8.1477,-20.64152 0.4474,-47.08583 -21.4892,-55.27989 -14.4492,-5.39724 -32.917,0.13198 -38.3051,15.58349 -3.406,9.76718 0.4476,22.22948 10.9712,25.58921 6.3271,2.01997 14.3964,-0.5716 16.3485,-7.45209 1.1028,-3.8869 -0.5658,-8.85353 -4.8421,-9.87994 -2.2309,-0.53549 -5.1,0.48226 -5.5608,2.97361 -0.2164,1.17006 0.3628,2.69771 1.6954,2.84893 0.541,0.0614 1.2709,-0.23946 1.2819,-0.87237 0.003,-0.20721 -0.1342,-0.50768 -0.3859,-0.47728 -0.058,0.007 -0.157,0.059 -0.132,0.13349 0.003,0.008 0.017,0.0308 0.029,0.0218 -6e-4,-0.001 6e-4,-0.002 0,-0.002"
       inkscape:connector-curvature="0"
       sodipodi:nodetypes="cccscscsssssssscsccsssssssssccccccc" />
    <path
       style="opacity:1;fill:#3087ba;fill-opacity:1;stroke:#000000;stroke-width:1.65405703;stroke-linecap:round;stroke-linejoin:round;stroke-miterlimit:4;stroke-dasharray:none;stroke-opacity:1"
       d="m 348.64761,482.23441 a 174.15699,174.15699 0 0 0 -73.73988,234.997 174.15699,174.15699 0 0 0 234.997,73.73989 174.15699,174.15699 0 0 0 50.95397,-40.33514 163.05375,163.05375 0 0 1 -203.66717,-76.3826 163.05375,163.05375 0 0 1 53.70837,-210.67369 174.15699,174.15699 0 0 0 -62.25229,18.65454 z"
       id="path4168"
       inkscape:connector-curvature="0" />
    <path
       inkscape:connector-curvature="0"
       id="path4174"
       d="m 802.00154,482.23441 a 174.15699,174.15699 0 0 1 73.73988,234.997 174.15699,174.15699 0 0 1 -234.997,73.73989 174.15699,174.15699 0 0 1 -50.95397,-40.33514 163.05375,163.05375 0 0 0 203.66718,-76.3826 163.05375,163.05375 0 0 0 -53.70837,-210.67369 174.15699,174.15699 0 0 1 62.25228,18.65454 z"
       style="opacity:1;fill:#3087ba;fill-opacity:1;stroke:#000000;stroke-width:1.65405703;stroke-linecap:round;stroke-linejoin:round;stroke-miterlimit:4;stroke-dasharray:none;stroke-opacity:1" />
    <path
       transform="matrix(0.88806651,0.45971498,-0.45971498,0.88806651,0,0)"
       style="opacity:1;fill:#3087ba;fill-opacity:1;stroke:#000000;stroke-width:1.70000005;stroke-linecap:round;stroke-linejoin:round;stroke-miterlimit:4;stroke-dasharray:none;stroke-opacity:1"
       d="m 851.7265,74.597481 5.65768,0 c 4.432,0 8,3.568 8,8 l 0,298.673369 c 0,4.432 -3.568,8 -8,8 l -5.65768,0 c -4.432,0 -8,-3.568 -8,-8 l 0,-298.673369 c 0,-4.432 3.568,-8 8,-8 z"
       id="rect4178" />
  </g>
</svg>
