<?xml version="1.0" encoding="UTF-8" standalone="no"?>
<!-- Created with Inkscape (http://www.inkscape.org/) -->

<svg
   xmlns:dc="http://purl.org/dc/elements/1.1/"
   xmlns:cc="http://creativecommons.org/ns#"
   xmlns:rdf="http://www.w3.org/1999/02/22-rdf-syntax-ns#"
   xmlns:svg="http://www.w3.org/2000/svg"
   xmlns="http://www.w3.org/2000/svg"
   xmlns:sodipodi="http://sodipodi.sourceforge.net/DTD/sodipodi-0.dtd"
   xmlns:inkscape="http://www.inkscape.org/namespaces/inkscape"
   width="500"
   height="500"
   viewBox="0 0 500 500"
   version="1.1"
   id="svg8"
   inkscape:version="0.92.2 5c3e80d, 2017-08-06"
   sodipodi:docname="logo.svg">
  <defs
     id="defs2" />
  <sodipodi:namedview
     id="base"
     pagecolor="#ffffff"
     bordercolor="#666666"
     borderopacity="1.0"
     inkscape:pageopacity="0.0"
     inkscape:pageshadow="2"
     inkscape:zoom="1.284"
     inkscape:cx="250"
     inkscape:cy="250"
     inkscape:document-units="px"
     inkscape:current-layer="layer1"
     showgrid="false"
     units="px"
     borderlayer="true"
     inkscape:showpageshadow="false"
     inkscape:window-width="1440"
     inkscape:window-height="855"
     inkscape:window-x="0"
     inkscape:window-y="1"
     inkscape:window-maximized="1"
     inkscape:snap-global="false" />
  <metadata
     id="metadata5">
    <rdf:RDF>
      <cc:Work
         rdf:about="">
        <dc:format>image/svg+xml</dc:format>
        <dc:type
           rdf:resource="http://purl.org/dc/dcmitype/StillImage" />
        <dc:title></dc:title>
      </cc:Work>
    </rdf:RDF>
  </metadata>
  <g
     inkscape:label="Layer 1"
     inkscape:groupmode="layer"
     id="layer1"
     transform="translate(0,-164.70834)">
    <path
       style="opacity:1;fill:none;fill-opacity:1;fill-rule:evenodd;stroke:#000000;stroke-width:5;stroke-linecap:round;stroke-linejoin:round;stroke-miterlimit:2;stroke-dasharray:none;stroke-opacity:1"
       d="m -605.86017,620.16745 a 115.65421,115.65421 0 0 0 -115.6543,115.65429 115.65421,115.65421 0 0 0 0.43555,9.37696 220.83319,85.359467 0 0 0 115.21875,12.66406 220.83319,85.359467 0 0 0 115.18164,-12.61328 115.65421,115.65421 0 0 0 0.47266,-9.42774 115.65421,115.65421 0 0 0 -115.6543,-115.65429 z"
       id="path834"
       inkscape:connector-curvature="0" />
    <path
       style="color:#000000;font-style:normal;font-variant:normal;font-weight:normal;font-stretch:normal;font-size:medium;line-height:normal;font-family:sans-serif;font-variant-ligatures:normal;font-variant-position:normal;font-variant-caps:normal;font-variant-numeric:normal;font-variant-alternates:normal;font-feature-settings:normal;text-indent:0;text-align:start;text-decoration:none;text-decoration-line:none;text-decoration-style:solid;text-decoration-color:#000000;letter-spacing:normal;word-spacing:normal;text-transform:none;writing-mode:lr-tb;direction:ltr;text-orientation:mixed;dominant-baseline:auto;baseline-shift:baseline;text-anchor:start;white-space:normal;shape-padding:0;clip-rule:nonzero;display:inline;overflow:visible;visibility:visible;opacity:1;isolation:auto;mix-blend-mode:normal;color-interpolation:sRGB;color-interpolation-filters:linearRGB;solid-color:#000000;solid-opacity:1;vector-effect:none;fill:#000000;fill-opacity:1;fill-rule:evenodd;stroke:#000000;stroke-width:5;stroke-linecap:round;stroke-linejoin:round;stroke-miterlimit:2;stroke-dasharray:none;stroke-dashoffset:0;stroke-opacity:1;color-rendering:auto;image-rendering:auto;shape-rendering:auto;text-rendering:auto;enable-background:accumulate"
       d="m 180.04237,177.54322 -3.12305,6.30469 a 11.064637,8.6945509 0 0 0 -7.9414,8.33594 11.064637,8.6945509 0 0 0 3.93164,6.64648 14.635794,11.540072 0 0 0 -7.50196,10.06055 14.635794,11.540072 0 0 0 0.9375,4.02539 115.65421,115.65421 0 0 0 -100.144524,94.51171 c 33.05308,7.80121 72.077394,12.34766 113.841794,12.34766 41.73298,0 80.73039,-4.53964 113.76758,-12.33008 a 115.65421,115.65421 0 0 0 -100.07227,-94.50195 14.635794,11.540072 0 0 0 0.94141,-4.05273 14.635794,11.540072 0 0 0 -7.50391,-10.07227 11.064637,8.6945509 0 0 0 3.9336,-6.63476 11.064637,8.6945509 0 0 0 -7.94336,-8.33594 z m 115.14062,139.86914 c -33.71494,7.87748 -73.06598,12.36328 -115.14062,12.36328 -42.06335,0 -81.404338,-4.48387 -115.113278,-12.35742 a 115.65421,115.65421 0 0 0 -0.541016,10.24414 115.65421,115.65421 0 0 0 0.435547,9.37695 220.83319,85.359467 0 0 0 115.218747,12.66406 220.83319,85.359467 0 0 0 115.18164,-12.61328 115.65421,115.65421 0 0 0 0.47266,-9.42773 115.65421,115.65421 0 0 0 -0.51368,-10.25 z"
       id="ellipse843"
       inkscape:connector-curvature="0" />
    <ellipse
       style="opacity:1;fill:none;fill-opacity:1;fill-rule:evenodd;stroke:#000000;stroke-width:10;stroke-linecap:round;stroke-linejoin:round;stroke-miterlimit:2;stroke-dasharray:none;stroke-opacity:1"
       id="ellipse848"
       cx="-411.37823"
       cy="138.08813"
       rx="220.83319"
       ry="85.359467" />
    <path
       style="opacity:1;fill:none;fill-opacity:1;fill-rule:evenodd;stroke:#000000;stroke-width:1;stroke-linecap:round;stroke-linejoin:round;stroke-miterlimit:2;stroke-dasharray:none;stroke-opacity:1"
       d="M -85.520001,-225.23291 V 65.539979 h -79.691869 c -3.15926,-84.23245 43.00539,-100.4319 72.330749,-139.85797 -55.741379,-6.40012 -21.375579,-88.573319 7.36112,-150.914919 z"
       id="rect860"
       inkscape:connector-curvature="0"
       sodipodi:nodetypes="ccccc" />
    <path
       inkscape:connector-curvature="0"
       d="m -380.53039,403.95749 a 115.65421,115.65421 0 0 0 -113.76758,-95.4375 115.65421,115.65421 0 0 0 -113.84179,95.41992 c 33.05308,7.80121 72.07739,12.34766 113.84179,12.34766 41.73298,0 80.73039,-4.53964 113.76758,-12.33008 z m 1.37305,9.96679 c -33.71495,7.87748 -73.06599,12.36329 -115.14063,12.36329 -42.06335,0 -81.40434,-4.48388 -115.11328,-12.35743 a 115.65421,115.65421 0 0 0 -0.54101,10.24414 115.65421,115.65421 0 0 0 0.43554,9.37696 220.83319,85.359467 0 0 0 115.21875,12.66406 220.83319,85.359467 0 0 0 115.18165,-12.61328 115.65421,115.65421 0 0 0 0.47265,-9.42774 115.65421,115.65421 0 0 0 -0.51367,-10.25 z"
       style="color:#000000;font-style:normal;font-variant:normal;font-weight:normal;font-stretch:normal;font-size:medium;line-height:normal;font-family:sans-serif;font-variant-ligatures:normal;font-variant-position:normal;font-variant-caps:normal;font-variant-numeric:normal;font-variant-alternates:normal;font-feature-settings:normal;text-indent:0;text-align:start;text-decoration:none;text-decoration-line:none;text-decoration-style:solid;text-decoration-color:#000000;letter-spacing:normal;word-spacing:normal;text-transform:none;writing-mode:lr-tb;direction:ltr;text-orientation:mixed;dominant-baseline:auto;baseline-shift:baseline;text-anchor:start;white-space:normal;shape-padding:0;clip-rule:nonzero;display:inline;overflow:visible;visibility:visible;opacity:1;isolation:auto;mix-blend-mode:normal;color-interpolation:sRGB;color-interpolation-filters:linearRGB;solid-color:#000000;solid-opacity:1;vector-effect:none;fill:none;fill-opacity:1;fill-rule:evenodd;stroke:#000000;stroke-width:5;stroke-linecap:round;stroke-linejoin:round;stroke-miterlimit:2;stroke-dasharray:none;stroke-dashoffset:0;stroke-opacity:1;color-rendering:auto;image-rendering:auto;shape-rendering:auto;text-rendering:auto;enable-background:accumulate"
       id="path870" />
    <path
       inkscape:connector-curvature="0"
       id="path872"
       d="m -336.14688,-106.4465 -3.12279,6.30513 a 11.064637,8.6945509 0 0 0 -7.94121,8.335639 11.064637,8.6945509 0 0 0 3.9306,6.64655 14.635794,11.540072 0 0 0 -7.50247,10.06082 14.635794,11.540072 0 0 0 14.63587,11.53935 14.635794,11.540072 0 0 0 14.63589,-11.53935 14.635794,11.540072 0 0 0 -7.50247,-10.07286 11.064637,8.6945509 0 0 0 3.93188,-6.63451 11.064637,8.6945509 0 0 0 -7.94249,-8.337139 z"
       style="opacity:1;fill:none;fill-opacity:1;fill-rule:evenodd;stroke:#000000;stroke-width:0.99999994;stroke-linecap:round;stroke-linejoin:round;stroke-miterlimit:2;stroke-dasharray:none;stroke-opacity:1" />
    <path
       style="opacity:1;fill:none;fill-opacity:1;fill-rule:evenodd;stroke:#000000;stroke-width:5;stroke-linecap:round;stroke-linejoin:round;stroke-miterlimit:2;stroke-dasharray:none;stroke-opacity:1"
       d="m 253.36703,225.04283 c 29.8402,20.84848 50.59876,55.02801 52.49805,91.70899 -0.3727,6.16621 1.84311,14.03706 -0.9961,19.67773 h 94.89258 V 225.04283 Z"
       id="rect879"
       inkscape:connector-curvature="0" />
    <rect
       style="opacity:1;fill:#000000;fill-opacity:1;fill-rule:evenodd;stroke:#000000;stroke-width:5;stroke-linecap:round;stroke-linejoin:round;stroke-miterlimit:2;stroke-dasharray:none;stroke-opacity:1"
       id="rect891"
       width="59.929821"
       height="7"
       x="317.06247"
       y="258.79102" />
    <rect
       y="292.69183"
       x="330.65906"
       height="7"
       width="46.333241"
       id="rect893"
       style="opacity:1;fill:#000000;fill-opacity:1;fill-rule:evenodd;stroke:#000000;stroke-width:5;stroke-linecap:round;stroke-linejoin:round;stroke-miterlimit:2;stroke-dasharray:none;stroke-opacity:1" />
    <path
       inkscape:connector-curvature="0"
       id="path906"
       d="m 243.92429,463.91045 -3.12305,6.30469 a 11.064637,8.6945509 0 0 0 -7.9414,8.33594 11.064637,8.6945509 0 0 0 3.93164,6.64648 14.635794,11.540072 0 0 0 -7.50196,10.06055 14.635794,11.540072 0 0 0 0.9375,4.02539 115.65421,115.65421 0 0 0 -100.14452,94.51171 c 33.05308,7.80121 72.07739,12.34766 113.84179,12.34766 41.73298,0 80.73039,-4.53964 113.76758,-12.33008 a 115.65421,115.65421 0 0 0 -100.07227,-94.50195 14.635794,11.540072 0 0 0 0.94141,-4.05273 14.635794,11.540072 0 0 0 -7.50391,-10.07227 11.064637,8.6945509 0 0 0 3.9336,-6.63476 11.064637,8.6945509 0 0 0 -7.94336,-8.33594 z m 115.14062,139.86914 c -33.71494,7.87748 -73.06598,12.36328 -115.14062,12.36328 -42.06335,0 -81.40434,-4.48387 -115.11328,-12.35742 a 115.65421,115.65421 0 0 0 -0.54101,10.24414 115.65421,115.65421 0 0 0 0.43554,9.37695 220.83319,85.359467 0 0 0 115.21875,12.66406 220.83319,85.359467 0 0 0 115.18164,-12.61328 115.65421,115.65421 0 0 0 0.47266,-9.42773 115.65421,115.65421 0 0 0 -0.51368,-10.25 z"
       style="color:#000000;font-style:normal;font-variant:normal;font-weight:normal;font-stretch:normal;font-size:medium;line-height:normal;font-family:sans-serif;font-variant-ligatures:normal;font-variant-position:normal;font-variant-caps:normal;font-variant-numeric:normal;font-variant-alternates:normal;font-feature-settings:normal;text-indent:0;text-align:start;text-decoration:none;text-decoration-line:none;text-decoration-style:solid;text-decoration-color:#000000;letter-spacing:normal;word-spacing:normal;text-transform:none;writing-mode:lr-tb;direction:ltr;text-orientation:mixed;dominant-baseline:auto;baseline-shift:baseline;text-anchor:start;white-space:normal;shape-padding:0;clip-rule:nonzero;display:inline;overflow:visible;visibility:visible;opacity:1;isolation:auto;mix-blend-mode:normal;color-interpolation:sRGB;color-interpolation-filters:linearRGB;solid-color:#000000;solid-opacity:1;vector-effect:none;fill:#000000;fill-opacity:1;fill-rule:evenodd;stroke:#000000;stroke-width:5;stroke-linecap:round;stroke-linejoin:round;stroke-miterlimit:2;stroke-dasharray:none;stroke-dashoffset:0;stroke-opacity:1;color-rendering:auto;image-rendering:auto;shape-rendering:auto;text-rendering:auto;enable-background:accumulate" />
    <rect
       style="opacity:1;fill:none;fill-opacity:1;fill-rule:evenodd;stroke:#000000;stroke-width:5;stroke-linecap:round;stroke-linejoin:round;stroke-miterlimit:2;stroke-dasharray:none;stroke-opacity:1"
       id="rect918"
       width="226.89096"
       height="174.02316"
       x="-656.44183"
       y="840.93427" />
    <path
       style="opacity:1;fill:none;fill-opacity:1;fill-rule:evenodd;stroke:#000000;stroke-width:5;stroke-linecap:round;stroke-linejoin:round;stroke-miterlimit:2;stroke-dasharray:none;stroke-opacity:1"
       d="m 130.47898,411.18109 v 149.43555 c 18.97412,-42.88296 63.73053,-74.23923 111.16406,-74.12695 4.7087,-0.0602 9.42165,0.11548 14.10938,0.56836 44.25381,3.17819 83.82465,33.734 101.61719,73.76758 V 411.18109 Z"
       id="rect920"
       inkscape:connector-curvature="0" />
    <rect
       y="437.21982"
       x="151.03931"
       height="7"
       width="59.929821"
       id="rect923"
       style="opacity:1;fill:#000000;fill-opacity:1;fill-rule:evenodd;stroke:#000000;stroke-width:5;stroke-linecap:round;stroke-linejoin:round;stroke-miterlimit:2;stroke-dasharray:none;stroke-opacity:1" />
    <rect
       y="437.21982"
       x="277.61444"
       height="7"
       width="59.929821"
       id="rect925"
       style="opacity:1;fill:#000000;fill-opacity:1;fill-rule:evenodd;stroke:#000000;stroke-width:5;stroke-linecap:round;stroke-linejoin:round;stroke-miterlimit:2;stroke-dasharray:none;stroke-opacity:1" />
    <rect
       style="opacity:1;fill:#000000;fill-opacity:1;fill-rule:evenodd;stroke:#000000;stroke-width:5;stroke-linecap:round;stroke-linejoin:round;stroke-miterlimit:2;stroke-dasharray:none;stroke-opacity:1"
       id="rect927"
       width="46.333241"
       height="7"
       x="291.21103"
       y="468.91782" />
    <rect
       style="opacity:1;fill:#000000;fill-opacity:1;fill-rule:evenodd;stroke:#000000;stroke-width:5;stroke-linecap:round;stroke-linejoin:round;stroke-miterlimit:2;stroke-dasharray:none;stroke-opacity:1"
       id="rect929"
       width="46.333241"
       height="7"
       x="151.03931"
       y="468.91782" />
  </g>
</svg>
