<?xml version="1.0" encoding="UTF-8" standalone="no"?>
<svg xmlns="http://www.w3.org/2000/svg" width="400" height="190" viewBox="0 0 400 190" version="1.1">
   <path d="m 399,183.80203 v 0.79441 c 0,2.35345 -12.25129,4.24808 -27.46926,4.24808 H 28.469269 c -15.217973,0 -27.4692676,-1.89463 -27.4692676,-4.24808 v -0.79441 c 0,-2.35344 12.2512946,-4.24808 27.4692676,-4.24808 H 371.53074 c 15.21797,0 27.46926,1.89464 27.46926,4.24808 z M 72.016524,129.85906 72.222137,129.0917 c 0.609115,-2.27324 2.92957,-3.61296 5.202817,-3.00385 l 22.080835,5.91655 c 2.273261,0.60911 3.612991,2.92957 3.003871,5.20282 l -0.20563,0.76736 c -0.6091,2.27324 -2.929561,3.61296 -5.202801,3.00384 l -22.080858,-5.91655 c -2.273245,-0.60911 -3.612962,-2.92956 -3.003847,-5.20281 z m 34.087256,-59.452081 0.56174,-0.56175 c 1.66413,-1.66412 4.34356,-1.66412 6.00769,0 l 16.1643,16.16431 c 1.66414,1.66413 1.66414,4.34358 0,6.0077 l -0.56172,0.56175 c -1.66416,1.66412 -4.34357,1.66412 -6.00771,0 l -16.1643,-16.16432 c -1.66414,-1.66413 -1.66414,-4.34356 0,-6.00769 z m 59.24647,-34.44339 0.76735,-0.20561 c 2.27326,-0.60911 4.59369,0.73061 5.20282,3.00385 l 5.91654,22.08084 c 0.60911,2.27326 -0.73061,4.59371 -3.00384,5.20283 l -0.76737,0.20559 c -2.27324,0.60913 -4.5937,-0.73058 -5.20282,-3.00383 l -5.91654,-22.08085 c -0.60912,-2.27325 0.7306,-4.59369 3.00386,-5.20282 z m 162.42611,93.128131 0.20561,0.76735 c 0.60911,2.27324 -0.7306,4.59369 -3.00384,5.2028 l -22.08087,5.91656 c -2.27324,0.60911 -4.59369,-0.7306 -5.20281,-3.00385 l -0.2056,-0.76735 c -0.60912,-2.27324 0.73061,-4.59371 3.00385,-5.20282 l 22.08083,-5.91655 c 2.27327,-0.60912 4.59372,0.73061 5.20283,3.00386 z m -34.44338,-59.246501 0.56173,0.56175 c 1.66413,1.66412 1.66413,4.34356 0,6.00769 l -16.1643,16.16431 c -1.66414,1.66413 -4.34356,1.66413 -6.0077,0 l -0.56173,-0.56174 c -1.66414,-1.66412 -1.66414,-4.34357 0,-6.0077 l 16.16429,-16.16431 c 1.66414,-1.66412 4.34357,-1.66412 6.00771,0 z m -234.335284,12.94686 0.397209,-0.68798 c 1.176719,-2.03814 3.764851,-2.73162 5.802988,-1.55491 l 45.946077,26.526991 c 2.03813,1.17671 2.73162,3.76484 1.55491,5.80299 l -0.39721,0.68797 c -1.17672,2.03816 -3.76485,2.73163 -5.80298,1.55491 L 60.552603,88.595069 c -2.038137,-1.17673 -2.731626,-3.76485 -1.554907,-5.80299 z m 59.364934,-59.6557 0.68799,-0.39722 c 2.03814,-1.17672 4.62627,-0.48323 5.80298,1.55491 l 26.52698,45.94607 c 1.17672,2.03813 0.48324,4.62627 -1.5549,5.80299 l -0.688,0.3972 c -2.03813,1.17673 -4.62626,0.48325 -5.80298,-1.55489 l -26.52698,-45.94607 c -1.17673,-2.03815 -0.48323,-4.62627 1.55491,-5.80299 z m 222.24096,58.96772 0.39719,0.68798 c 1.17673,2.03814 0.48324,4.62626 -1.5549,5.80299 l -45.94607,26.526981 c -2.03815,1.17672 -4.62626,0.48325 -5.80298,-1.55491 l -0.39722,-0.68797 c -1.17673,-2.03815 -0.48323,-4.62628 1.55491,-5.80299 L 334.8006,80.549189 c 2.03812,-1.17671 4.62627,-0.48323 5.80299,1.55491 z m -59.65574,-59.36493 0.68799,0.39722 c 2.03815,1.17672 2.73164,3.76484 1.55492,5.80299 l -26.52698,45.94607 c -1.17671,2.03814 -3.76485,2.73162 -5.80299,1.55489 l -0.68799,-0.3972 c -2.03814,-1.17672 -2.73163,-3.76486 -1.5549,-5.80299 l 26.52697,-45.94607 c 1.17671,-2.03814 3.76486,-2.73164 5.80298,-1.55491 z m -47.06696,13.0188 0.76735,0.20561 c 2.27324,0.60912 3.61296,2.92957 3.00384,5.20281 l -5.91653,22.08087 c -0.60913,2.27324 -2.92958,3.61295 -5.20283,3.00383 l -0.76734,-0.2056 c -2.27325,-0.60912 -3.61296,-2.92957 -3.00385,-5.20282 l 5.91654,-22.08086 c 0.60911,-2.27324 2.92958,-3.61296 5.20282,-3.00384 z M 199.60203,1.155481 h 0.79442 c 2.35345,0 4.24809,1.894645 4.24809,4.248083 v 53.053955 c 0,2.35344 -1.89464,4.24809 -4.24809,4.24809 h -0.79442 c -2.35344,0 -4.24809,-1.89465 -4.24809,-4.24809 V 5.403564 c 0,-2.353438 1.89465,-4.248083 4.24809,-4.248083 z m 0.39715,74.025078 a 88.560058,88.560058 0 0 0 -88.55923,88.560891 88.560058,88.560058 0 0 0 1.42211,15.8125 h 174.27425 a 88.560058,88.560058 0 0 0 1.42377,-15.8125 88.560058,88.560058 0 0 0 -88.5609,-88.560891 z" />
</svg>
