<?xml version="1.0" encoding="UTF-8" standalone="no"?>
<svg
   xmlns:dc="http://purl.org/dc/elements/1.1/"
   xmlns:cc="http://creativecommons.org/ns#"
   xmlns:rdf="http://www.w3.org/1999/02/22-rdf-syntax-ns#"
   xmlns:svg="http://www.w3.org/2000/svg"
   xmlns="http://www.w3.org/2000/svg"
   xmlns:sodipodi="http://sodipodi.sourceforge.net/DTD/sodipodi-0.dtd"
   xmlns:inkscape="http://www.inkscape.org/namespaces/inkscape"
   width="420"
   height="15"
   viewBox="0 0 420 15"
   version="1.1"
   id="svg1363"
   inkscape:version="1.0.1 (c497b03c, 2020-09-10)"
   sodipodi:docname="underline.svg">
  <defs
     id="defs1357" />
  <sodipodi:namedview
     id="base"
     pagecolor="#ffffff"
     bordercolor="#666666"
     borderopacity="1.0"
     inkscape:pageopacity="0.0"
     inkscape:pageshadow="2"
     inkscape:zoom="2.1428571"
     inkscape:cx="207.12865"
     inkscape:cy="20.1"
     inkscape:document-units="px"
     inkscape:current-layer="layer1"
     inkscape:document-rotation="0"
     showgrid="false"
     units="px"
     inkscape:showpageshadow="false"
     inkscape:window-width="1440"
     inkscape:window-height="855"
     inkscape:window-x="0"
     inkscape:window-y="23"
     inkscape:window-maximized="1"
     showguides="false" />
  <metadata
     id="metadata1360">
    <rdf:RDF>
      <cc:Work
         rdf:about="">
        <dc:format>image/svg+xml</dc:format>
        <dc:type
           rdf:resource="http://purl.org/dc/dcmitype/StillImage" />
        <dc:title></dc:title>
      </cc:Work>
    </rdf:RDF>
  </metadata>
  <g
     inkscape:label="Layer 1"
     inkscape:groupmode="layer"
     id="layer1">
    <path
       id="path2027"
       style="fill:#000000;fill-opacity:1;stroke:none;stroke-width:2.60747;stroke-linecap:round"
       d="m 173.05469,1.5223336 c 10.02359,-0.640591 9.32276,12.7183024 0,11.9453584 C 117.21058,8.8376946 58.35463,9.4192706 1,7.4946006 58.35463,5.5321546 117.19806,5.0920386 173.05469,1.5223336 Z m 73.89062,0 c -10.02359,-0.640591 -9.32276,12.7183024 0,11.9453584 C 302.78942,8.8376946 361.64537,9.4192706 419,7.4946006 361.64537,5.5321546 302.80194,5.0920386 246.94531,1.5223336 Z m -45.5895,5.9776666 A 6.3558087,5.3566127 0 0 1 195,12.856613 6.3558087,5.3566127 0 0 1 188.64419,7.5000002 6.3558087,5.3566127 0 0 1 195,2.143387 a 6.3558087,5.3566127 0 0 1 6.35581,5.3566132 z m 15,0 A 6.3558087,5.3566127 0 0 1 210,12.856613 6.3558087,5.3566127 0 0 1 203.64419,7.5000002 6.3558087,5.3566127 0 0 1 210,2.143387 a 6.3558087,5.3566127 0 0 1 6.35581,5.3566132 z m 15,0 A 6.3558087,5.3566127 0 0 1 225,12.856613 6.3558087,5.3566127 0 0 1 218.64419,7.5000002 6.3558087,5.3566127 0 0 1 225,2.143387 a 6.3558087,5.3566127 0 0 1 6.35581,5.3566132 z" />
  </g>
</svg>
